<?xml version="1.0" encoding="UTF-8" standalone="no"?>
<svg
   xmlns:dc="http://purl.org/dc/elements/1.1/"
   xmlns:cc="http://creativecommons.org/ns#"
   xmlns:rdf="http://www.w3.org/1999/02/22-rdf-syntax-ns#"
   xmlns:svg="http://www.w3.org/2000/svg"
   xmlns="http://www.w3.org/2000/svg"
   xmlns:xlink="http://www.w3.org/1999/xlink"
   xmlns:sodipodi="http://sodipodi.sourceforge.net/DTD/sodipodi-0.dtd"
   xmlns:inkscape="http://www.inkscape.org/namespaces/inkscape"
   width="32"
   height="32"
   viewBox="0 0 8.4666665 8.4666669"
   version="1.1"
   id="svg8"
   inkscape:version="1.0 (1.0+r73+1)"
   sodipodi:docname="tool65.svg">
  <defs
     id="defs2">
    <inkscape:path-effect
       lpeversion="0"
       effect="bspline"
       id="path-effect8657"
       is_visible="true"
       weight="33.333333"
       steps="2"
       helper_size="0"
       apply_no_weight="true"
       apply_with_weight="true"
       only_selected="false" />
    <inkscape:path-effect
       lpeversion="0"
       effect="bspline"
       id="path-effect5573"
       is_visible="true"
       weight="33.333333"
       steps="2"
       helper_size="0"
       apply_no_weight="true"
       apply_with_weight="true"
       only_selected="false" />
    <inkscape:path-effect
       lpeversion="0"
       only_selected="false"
       apply_with_weight="true"
       apply_no_weight="true"
       helper_size="0"
       steps="2"
       weight="33.333333"
       is_visible="true"
       id="path-effect5569"
       effect="bspline" />
    <inkscape:path-effect
       lpeversion="0"
       only_selected="false"
       apply_with_weight="true"
       apply_no_weight="true"
       helper_size="0"
       steps="2"
       weight="33.333333"
       is_visible="true"
       id="path-effect8548"
       effect="bspline" />
    <inkscape:path-effect
       lpeversion="0"
       effect="bspline"
       id="path-effect8543"
       is_visible="true"
       weight="33.333333"
       steps="2"
       helper_size="0"
       apply_no_weight="true"
       apply_with_weight="true"
       only_selected="false" />
    <inkscape:path-effect
       lpeversion="0"
       effect="bspline"
       id="path-effect5525"
       is_visible="true"
       weight="33.333333"
       steps="2"
       helper_size="0"
       apply_no_weight="true"
       apply_with_weight="true"
       only_selected="false" />
    <linearGradient
       inkscape:collect="always"
       xlink:href="#linearGradient5666"
       id="linearGradient7228"
       gradientUnits="userSpaceOnUse"
       x1="14.495079"
       y1="6.8702259"
       x2="14.322937"
       y2="2.2740316" />
    <linearGradient
       inkscape:collect="always"
       id="linearGradient5666">
      <stop
         style="stop-color:#82ade0;stop-opacity:1"
         offset="0"
         id="stop5662" />
      <stop
         style="stop-color:#f1effb;stop-opacity:1"
         offset="1"
         id="stop5664" />
    </linearGradient>
  </defs>
  <sodipodi:namedview
     id="base"
     pagecolor="#ffffff"
     bordercolor="#666666"
     borderopacity="1.0"
     inkscape:pageopacity="0.0"
     inkscape:pageshadow="2"
     inkscape:zoom="5.6568543"
     inkscape:cx="18.190742"
     inkscape:cy="6.7335287"
     inkscape:document-units="px"
     inkscape:current-layer="layer1"
     inkscape:document-rotation="0"
     showgrid="false"
     units="px"
     inkscape:window-width="925"
     inkscape:window-height="704"
     inkscape:window-x="0"
     inkscape:window-y="0"
     inkscape:window-maximized="0" />
  <metadata
     id="metadata5">
    <rdf:RDF>
      <cc:Work
         rdf:about="">
        <dc:format>image/svg+xml</dc:format>
        <dc:type
           rdf:resource="http://purl.org/dc/dcmitype/StillImage" />
        <dc:title></dc:title>
      </cc:Work>
    </rdf:RDF>
  </metadata>
  <g
     inkscape:label="Layer 1"
     inkscape:groupmode="layer"
     id="layer1">
    <g
       transform="matrix(0.26458333,0,0,0.26458333,-101.58277,-33.78506)"
       id="g6200">
      <g
         id="g7226"
         transform="matrix(0.99989187,0,0,0.99999865,383.9366,128.35062)">
        <path
           id="path7210"
           d="m 3.5316486,27.487468 c 8.3122364,0 16.6244624,0 24.9366894,0 1.843589,0 3.33871,-1.487611 3.33871,-3.322407 0,-5.882857 0,-11.765328 0,-17.6481853 0,-1.8347963 -1.494735,-3.322407 -3.33871,-3.322407 -8.312227,0 -16.624453,0 -24.9366894,0 -1.8435791,0 -3.33870047,1.4876107 -3.33870047,3.322407 0,5.8828573 0,11.7653283 0,17.6481853 3.8641e-4,1.834796 1.49512137,3.322407 3.33870047,3.322407 z"
           inkscape:connector-curvature="0"
           style="fill:#008080;stroke:#000000;stroke-width:0.387115;stroke-linecap:round;stroke-linejoin:round" />
        <path
           id="path7212"
           d="m 0.19333454,8.4246623 c 10.53802946,0 21.07567346,0 31.61371346,0 0,-0.6356714 0,-1.271729 0,-1.9077866 0,-1.8347963 -1.494735,-3.322407 -3.33871,-3.322407 -8.312227,0 -16.624453,0 -24.9366894,0 -1.8435791,0 -3.33870047,1.4876107 -3.33870047,3.322407 3.8641e-4,0.6360576 3.8641e-4,1.2721152 3.8641e-4,1.9077866 z"
           inkscape:connector-curvature="0"
           style="fill:url(#linearGradient7228);fill-opacity:1;stroke:#000000;stroke-width:0.387115;stroke-linecap:round;stroke-linejoin:round" />
        <rect
           id="rect7214"
           height="17.656296"
           width="29.293224"
           y="8.7618141"
           x="1.4261559"
           style="fill:#ffffff;stroke:#000000;stroke-width:0.387115;stroke-linecap:round;stroke-linejoin:round" />
      </g>
      <g
         transform="matrix(0.51515029,0,0,0.5152053,502.9667,144.5116)"
         id="g7208">
        <line
           style="fill:none;stroke:#000000;stroke-width:2.6727;stroke-linecap:round;stroke-linejoin:round;stroke-miterlimit:4;stroke-dasharray:none"
           x1="-216.78941"
           y1="0.96866995"
           x2="-188.02049"
           y2="0.96866995"
           id="line5977" />
        <line
           style="fill:none;stroke:#000000;stroke-width:2.31628;stroke-linecap:round;stroke-linejoin:round;stroke-miterlimit:4;stroke-dasharray:none"
           x1="-183.30858"
           y1="1.1286927"
           x2="-173.9841"
           y2="1.1286927"
           id="line5979" />
        <line
           style="fill:none;stroke:#000000;stroke-width:2.31628;stroke-linecap:round;stroke-linejoin:round;stroke-miterlimit:4;stroke-dasharray:none"
           x1="-183.30859"
           y1="-6.7810464"
           x2="-173.9841"
           y2="-6.7810464"
           id="line5981" />
        <line
           style="fill:none;stroke:#000000;stroke-width:2.6727;stroke-linecap:round;stroke-linejoin:round;stroke-miterlimit:4;stroke-dasharray:none"
           x1="-216.78941"
           y1="-6.7546368"
           x2="-188.02049"
           y2="-6.7546368"
           id="line5983" />
        <line
           style="fill:none;stroke:#000000;stroke-width:2.68852;stroke-linecap:round;stroke-linejoin:round;stroke-miterlimit:4;stroke-dasharray:none"
           x1="-216.47406"
           y1="9.5287018"
           x2="-174.4547"
           y2="9.5287018"
           id="line5985" />
        <path
           style="fill:#008000;fill-opacity:1;stroke:none;stroke-width:1.292;stroke-linecap:round;stroke-linejoin:round;stroke-miterlimit:4;stroke-dasharray:none"
           inkscape:connector-curvature="0"
           d="m -222.88311,2.0178864 c 1.70364,0 3.08456,-1.38092476 3.08456,-3.0845613 0,-2.3416191 0,-4.6836298 0,-7.0256406 0,-1.7036365 -1.38092,-3.0841695 -3.08456,-3.0841695 -1.70364,0 -3.08417,1.3809246 -3.08417,3.0841695 0,2.3420108 0,4.6840215 0,7.0256406 -3.9e-4,1.70363654 1.38053,3.0845613 3.08417,3.0845613 z"
           id="path5987" />
        <path
           style="fill:#008000;fill-opacity:1;stroke:none;stroke-width:1.292;stroke-linecap:round;stroke-linejoin:round;stroke-miterlimit:4;stroke-dasharray:none"
           inkscape:connector-curvature="0"
           d="m -222.88507,12.842832 c 1.45651,0 2.63731,-1.180796 2.63731,-2.636916 0,-0.2314594 0,-0.462919 0,-0.693987 0,-1.4565113 -1.1808,-2.6373077 -2.63731,-2.6373077 -1.45651,0 -2.63691,1.1807964 -2.63691,2.6373077 0,0.2314596 0,0.4629192 0,0.693987 0,1.45612 1.1804,2.636916 2.63691,2.636916 z"
           id="path5989" />
      </g>
    </g>
  </g>
</svg>
