<?xml version="1.0" encoding="utf-8"?>
<!-- Generator: Adobe Illustrator 25.2.0, SVG Export Plug-In . SVG Version: 6.00 Build 0)  -->
<svg version="1.1" id="Layer_1" xmlns="http://www.w3.org/2000/svg" xmlns:xlink="http://www.w3.org/1999/xlink" x="0px" y="0px"
	 viewBox="0 0 14 11" style="enable-background:new 0 0 14 11;" xml:space="preserve">
<style type="text/css">
	.st0{fill:#D31616;}
</style>
<g>
	<path class="st0" d="M10.6,5.6c0-0.8-0.3-1.5-0.7-2.1l1.3-1.3l-0.8-0.8L9.1,2.6C8.5,2.2,7.8,2,7,2C6.2,2,5.5,2.2,5,2.6L3.6,1.3
		L2.8,2.2l1.3,1.3C3.7,4,3.4,4.8,3.4,5.6s0.3,1.5,0.7,2.1L2.8,8.9l0.8,0.8l1.3-1.3C5.5,8.9,6.2,9.2,7,9.2c0.8,0,1.5-0.3,2.1-0.7
		l1.3,1.3l0.8-0.8L9.9,7.7C10.3,7.1,10.6,6.3,10.6,5.6z M7,3.1c0.4,0,0.9,0.1,1.2,0.3L7,4.6L5.8,3.4C6.2,3.2,6.6,3.1,7,3.1z
		 M4.6,5.6c0-0.5,0.1-0.9,0.4-1.3l1.3,1.3L4.9,6.8C4.7,6.5,4.6,6,4.6,5.6z M7,8C6.5,8,6.1,7.9,5.7,7.6L7,6.4l1.3,1.3
		C7.9,7.9,7.5,8,7,8z M9.1,6.8L7.8,5.6l1.3-1.3c0.2,0.4,0.4,0.8,0.4,1.3C9.4,6,9.3,6.5,9.1,6.8z"/>
</g>
</svg>
