<?xml version="1.0" encoding="utf-8"?>
<!-- Generator: Adobe Illustrator 25.2.0, SVG Export Plug-In . SVG Version: 6.00 Build 0)  -->
<svg version="1.1" id="Layer_1" xmlns="http://www.w3.org/2000/svg" xmlns:xlink="http://www.w3.org/1999/xlink" x="0px" y="0px"
	 viewBox="0 0 14 11" style="enable-background:new 0 0 14 11;" xml:space="preserve">
<style type="text/css">
	.st0{fill:#D31616;}
</style>
<g>
	<g>
		<g>
			<path class="st0" d="M5.6,1.7L5.4,1.5C4.1,2,3.1,3,2.6,4.3h1.2c0.5-0.9,1.4-1.7,2.4-1.8L5.6,1.7z M4,6.7H2.7C3.2,8,4.1,9,5.5,9.5
				l0.2-0.2l0.8-0.8C5.3,8.4,4.3,7.8,4,6.7z"/>
		</g>
	</g>
	<g>
		<g>
			<g>
				<polygon class="st0" points="12.1,5.6 10.7,6.9 8.2,9.4 7,10.6 6.1,9.7 7.2,8.4 9.7,6.1 1.9,6.1 1.9,4.9 9.7,4.9 6.1,1.3 7,0.4 
					10.7,4.1 				"/>
			</g>
		</g>
	</g>
</g>
</svg>
