<?xml version="1.0" encoding="utf-8"?>
<!-- Generator: Adobe Illustrator 25.2.0, SVG Export Plug-In . SVG Version: 6.00 Build 0)  -->
<svg version="1.1" id="Layer_1" xmlns="http://www.w3.org/2000/svg" xmlns:xlink="http://www.w3.org/1999/xlink" x="0px" y="0px"
	 viewBox="0 0 14 11" style="enable-background:new 0 0 14 11;" xml:space="preserve">
<style type="text/css">
	.st0{fill:#8E8E8E;}
</style>
<g>
	<g id="circle8554">
		<polygon class="st0" points="9.9,7.2 9.9,7.2 9.9,7.2 		"/>
	</g>
	<g>
		<path class="st0" d="M7,1.8c-2,0-3.7,1.7-3.7,3.7S5,9.2,7,9.2s3.7-1.7,3.7-3.7S9,1.8,7,1.8z M7,8.2C5.5,8.2,4.3,7,4.3,5.5
			S5.5,2.8,7,2.8S9.7,4,9.7,5.5S8.5,8.2,7,8.2z"/>
	</g>
	<g>
		<path class="st0" d="M7,7.4c-1,0-1.8-0.8-1.8-1.9c0-1,0.8-1.8,1.8-1.8c1,0,1.9,0.8,1.9,1.8C8.9,6.5,8,7.4,7,7.4z M7,4.1
			c-0.7,0-1.3,0.6-1.3,1.3c0,0.7,0.6,1.4,1.3,1.4c0.7,0,1.4-0.6,1.4-1.4C8.4,4.8,7.7,4.1,7,4.1z"/>
	</g>
</g>
</svg>
