<svg viewBox="0 0 32 32" xmlns="http://www.w3.org/2000/svg">
  <defs>
    <clipPath id="cp" clipPathUnits="userSpaceOnUse">
      <path  d="M0 0 v 32 h 20 v -16 h12 v -16 z"/>
	</clipPath>
  </defs>

  <path transform="scale(1.1) translate(-2,-3)" d="m30.7 23.6-6 6-2.1-2.1 2.4-2.4h-6.3v-3h6.3l-2.4-2.4 2.1-2.1 2.9 2.8 2.6 2.7z" />
  <g clip-path="url(#cp)"> 
    <path transform="scale(2) translate(-4,-4)" d="M19,14.87V9.13c0-0.72-0.38-1.38-1-1.73l-5-2.88c-0.31-0.18-0.65-0.27-1-0.27s-0.69,0.09-1,0.27L6,7.39 C5.38,7.75,5,8.41,5,9.13v5.74c0,0.72,0.38,1.38,1,1.73l5,2.88c0.31,0.18,0.65,0.27,1,0.27s0.69-0.09,1-0.27l5-2.88 C18.62,16.25,19,15.59,19,14.87z M11,17.17l-4-2.3v-4.63l4,2.33V17.17z M12,10.84L8.04,8.53L12,6.25l3.96,2.28L12,10.84z M17,14.87l-4,2.3v-4.6l4-2.33V14.87z"/>
  </g>

</svg>