<svg viewBox="0 0 36 36">
	<defs>
		<clipPath id="cp">
			<polygon points="2.4,2.4 2.4,33.6 21.9,33.6 21.9,18 33.6,18 33.6,2.4 		"/>
		</clipPath>
	</defs>
	<path d="M33.2,24.5l-6.4,6.4l-2.2-2.2l2.6-2.6h-6.7v-3.2h6.7l-2.6-2.6l2.2-2.2l3.1,3l2.8,2.9L33.2,24.5z"/>
	<g clip-path="url(#cp)">
		<path d="M31.6,23.6V12.4c0-1.4-0.7-2.7-1.9-3.4l-9.7-5.6c-0.6-0.4-1.3-0.5-1.9-0.5s-1.3,0.2-1.9,0.5L6.3,9c-1.2,0.7-1.9,2-1.9,3.4
			v11.2c0,1.4,0.7,2.7,1.9,3.4l9.7,5.6c0.6,0.4,1.3,0.5,1.9,0.5s1.3-0.2,1.9-0.5l9.7-5.6C30.9,26.3,31.6,25,31.6,23.6z M16.1,28.1
			l-7.8-4.5v-9l7.8,4.5V28.1z M18,15.7l-7.7-4.5L18,6.8l7.7,4.4L18,15.7z M27.7,23.6l-7.8,4.5v-9l7.8-4.5V23.6z"/>
	</g>
</svg>