<svg height="32" viewBox="0 0 8.4666665 8.4666669" width="32" xmlns="http://www.w3.org/2000/svg" xmlns:xlink="http://www.w3.org/1999/xlink"><linearGradient id="a" gradientUnits="userSpaceOnUse" x1="-1229.079" x2="-1161.802" y1="-490.61426" y2="-490.61426"><stop offset="0" stop-color="#fff"/><stop offset="1" stop-color="#fff" stop-opacity="0"/></linearGradient><linearGradient id="b" gradientUnits="userSpaceOnUse" x1="-475.34381" x2="-537.25702" y1="290.64554" y2="214.88901"><stop offset="0" stop-color="#ccc"/><stop offset="1" stop-color="#fff"/></linearGradient><filter id="c" color-interpolation-filters="sRGB" height="1.048002" width="1.048" x="-.024" y="-.024001"><feGaussianBlur stdDeviation=".18358864"/></filter><g transform="matrix(.96930795 0 0 .96930795 -8.076875 16.542525)"><g fill="url(#a)" transform="matrix(-.10311169 0 0 .10182625 -110.56389609532 37.25855935779)"><path d="m-537.257 297.035h66.277v-63.788l-18.359-18.358h-47.918z" fill="url(#b)" stroke="#000" stroke-linecap="round" stroke-linejoin="round" transform="matrix(.99999983 0 0 1.0000232 -691.32212 -746.58316)"/><path d="m-470.98 233.247h-18.359v-18.358z" fill="#4d4d4d" filter="url(#c)" transform="matrix(.99999983 0 0 1.0000232 -691.45668 -745.9019)"/><path d="m-489.339 233.247v-18.358l18.359 18.358z" fill="#808080" transform="matrix(.99999983 0 0 1.0000232 -691.32212 -746.58316)"/></g><g fill="#000080" transform="matrix(.77327378 0 0 .77327378 -.113554 14.032788)"><path d="m17.144546-35.086753h-1.482675v1.539265h-.648907v-1.539265h-1.482675v-.573452h1.482675v-1.527948h.648907v1.527948h1.482675z"/><path d="m19.365155-32.488166h-1.482675v1.539265h-.648906v-1.539265h-1.482675v-.573452h1.482675v-1.527948h.648906v1.527948h1.482675z"/></g></g></svg>