<svg height="32" viewBox="0 0 8.4666665 8.4666669" width="32" xmlns="http://www.w3.org/2000/svg"><g><path d="m.81815958885.84710064094h4.48603350446v5.64372012904h-4.48603350446z" fill="#fff" stroke="#000" stroke-linejoin="round" stroke-width=".3208936959"/><path d="m.90546939795.96335200924h4.31141388626v.86729730435h-4.31141388626z" fill="#00f" stroke="#000" stroke-linejoin="round" stroke-width=".13627863619"/><path d="m1.3475974557 5.71111222534h3.42715777076v.37278544027h-3.42715777076z" fill="#00f"/><path d="m-21.976623 8.0328815q.103462 0 .156898-.045478.05344-.045478.05344-.1341588 0-.087544-.05344-.1330218-.05344-.046614-.156898-.046614h-.242168v.3592725zm.01478.7424208q.131885 0 .197828-.05571.06708-.05571.06708-.1682669 0-.110283-.06594-.164856-.06594-.05571-.198965-.05571h-.256948v.4445429zm.407024-.6105359q.140981.04093.218293.1512128.07731.110283.07731.2705913 0 .2455787-.165993.3660942-.165993.1205155-.5048.1205155h-.726504v-1.6974491h.65715q.353588 0 .511623.1068722.159171.1068722.159171.3422185 0 .1239263-.05798.2114705-.05798.086407-.168267.1284741z" fill="#d40000" transform="matrix(1.7326125 0 0 1.7326125 41.10564338186 -10.58083023431)"/><path d="m3.1624743972 1.97584570631h4.48603350446v5.64372012904h-4.48603350446z" fill="#fff" stroke="#000" stroke-linejoin="round" stroke-width=".3208936959"/><path d="m3.2497842063 2.09209707461h4.31141388626v.86729730435h-4.31141388626z" fill="#00f" stroke="#000" stroke-linejoin="round" stroke-width=".13627863619"/><path d="m3.69191226405 6.8398555581h3.42715777076v.37278544027h-3.42715777076z" fill="#00f"/><path d="m-19.47368 10.699895h1.279056v.246716l-.661698 1.450734h-.426352l.626453-1.375696h-.817459z" fill="#d40000" transform="matrix(1.7326125 0 0 1.7326125 38.037774 -15.211575)"/></g></svg>