<svg height="32" viewBox="0 0 8.4666665 8.4666669" width="32" xmlns="http://www.w3.org/2000/svg" xmlns:xlink="http://www.w3.org/1999/xlink"><linearGradient id="a" gradientUnits="userSpaceOnUse" x1="-1229.079" x2="-1161.802" y1="-490.61426" y2="-490.61426"><stop offset="0" stop-color="#fff"/><stop offset="1" stop-color="#fff" stop-opacity="0"/></linearGradient><linearGradient id="b" gradientUnits="userSpaceOnUse" x1="-475.34381" x2="-537.25702" y1="290.64554" y2="214.88901"><stop offset="0" stop-color="#ccc"/><stop offset="1" stop-color="#fff"/></linearGradient><filter id="c" color-interpolation-filters="sRGB" height="1.048002" width="1.048" x="-.024" y="-.024001"><feGaussianBlur stdDeviation=".18358864"/></filter><g transform="matrix(.96849991 0 0 .96849991 .133356 16.532264)"><g fill="url(#a)" transform="matrix(-.10311169 0 0 .10182625 -119.03056609532 37.25855935779)"><path d="m-537.257 214.889v82.146h66.277v-63.788l-18.359-18.358z" fill="url(#b)" stroke="#000" stroke-linecap="round" stroke-linejoin="round" transform="matrix(.99999983 0 0 1.0000232 -691.32212 -746.58316)"/><path d="m-489.339 214.889 18.359 18.358h-18.359z" fill="#4d4d4d" filter="url(#c)" transform="matrix(.99999983 0 0 1.0000232 -691.45668 -745.9019)"/><path d="m-470.98 233.247h-18.359v-18.358z" fill="#808080" transform="matrix(.99999983 0 0 1.0000232 -691.32212 -746.58316)"/></g><path d="m5.7979872-11.739045h-.7471502l-.1239666 1.229615h-.4958665l.1239666-1.229615h-.8543646l-.1239666 1.229615h-.4958665l.1239667-1.229615h-.7136457v-.435558h.7572015l.1206162-1.172657h-.7069448v-.435559h.7505006l.1139153-1.105648h.4891656l-.1105649 1.105648h.8577151l.1139152-1.105648h.4958665l-.1172657 1.105648h.7203466v.435559h-.7639024l-.1172658 1.172657h.7035944zm-1.1961104-.435558.1172657-1.172657h-.857715l-.1172657 1.172657z" fill="#00007a"/></g></svg>