<svg enable-background="new 0 0 32 32" viewBox="0 0 32 32" xmlns="http://www.w3.org/2000/svg"><path d="m29.2 4c-1.6-.6-3.5-.8-5.3-.8-3 0-6.1.6-8.3 2.3-2.1-1.6-5.3-2.2-8.1-2.2-3 0-6.1.6-8.3 2.3v21.9c0 .4.5.8.8.8h.5c2-1.1 5-1.7 7.2-1.7 2.9 0 6 .6 8.3 2.3 2-1.3 5.7-2.3 8.3-2.3 2.4 0 5 .4 7.2 1.5h.5c.5 0 .8-.4.8-.8v-21.9c-1.5-.5-2.5-.9-3.6-1.4zm0 20.3c-1.6-.6-3.5-.8-5.3-.8-2.5 0-6.3.9-8.3 2.3v-17.3c2-1.3 5.7-2.3 8.3-2.3 1.8 0 3.6.2 5.3.8z"/><path d="m24 12.3c1.4 0 2.5.2 3.8.4v-2.3c-1.2-.2-2.4-.3-3.8-.3-2.5 0-4.8.4-6.8 1.2v2.6c1.7-1 4.1-1.6 6.8-1.6z"/><path d="m17.2 15.3v2.6c1.6-.9 4-1.5 6.8-1.5 1.4 0 2.5.2 3.8.4v-2.3c-1.2-.2-2.4-.3-3.8-.3-2.6-.1-4.8.3-6.8 1.1z"/><path d="m24 18.1c-2.5 0-4.8.4-6.8 1.2v2.6c1.6-.9 4-1.5 6.8-1.5 1.4 0 2.5.2 3.8.4v-2.3c-1.3-.2-2.5-.4-3.8-.4z"/></svg>