<svg enable-background="new 0 0 32 32" viewBox="0 0 32 32" xmlns="http://www.w3.org/2000/svg"><path d="m17.4 13.4-2.1-1.4 2-.7c1.2-.4 2-.9 2.4-1.3.4-.5.3-.9-.3-1.2-.3-.2-.8-.3-1.4-.4s-1.3-.1-2 0c-.8.1-1.5.2-2.3.5l-4.2 1.4 5.6 3.9zm-4.7-3.1 2-.7c.5-.2 1-.3 1.5-.3s.8.1 1.1.3c.3.1.3.3.2.5-.2.2-.5.4-1.1.6l-2 .7z"/><path d="m11.8 19.2c.1 0 .3 0 .4-.1.1-.1.2-.1.3-.2s.1-.1.1-.2.1-.1.1-.2 0-.1 0-.2 0-.1 0-.2v-.1c0-.1 0-.2-.1-.3-.1-.1-.1-.2-.2-.3l-7.5-6.3c-.4-.3-1-.3-1.4.1-.3.4-.3 1 .1 1.4l.1.1s0 .1.1.1l7.1 6.1.2.1c.3.1.5.2.7.2z"/><path d="m32.1 16.9-1.7-.9c-.1 0-.2-.1-.3-.1v-1l1.8-.8c.5-.2.8-.7.8-1.2s-.3-1-.7-1.3l-14.9-7.7c-.3-.2-.7-.2-1-.1l-12.9 3.8-.9.3c-1.7.5-2.8 1.8-3 3.4-.2 1.5.4 3 1.9 4.5l12 11.9c.1.1.2.2.3.2.3.2.6.4.9.4.2 0 .4 0 .6-.2l17-8.8c.5-.2.7-.7.7-1.2.2-.5-.1-1-.6-1.2zm-3.9 1.3-13.3 6.9c0-.2-.1-.5-.1-1v-.6c.1-1.1.7-2 1.7-2.4l11.7-5.3zm-26.1-6.7c0-.5.5-.9 1.1-1l13.2-3.9 11.8 6.1-12.8 5.8c-1.7.7-2.9 2.3-3.2 4.2l-9-8.9c-1.2-1.3-1.2-2-1.1-2.3z"/></svg>