<svg viewBox="0 0 32 32" xmlns="http://www.w3.org/2000/svg"><path d="m7.5 25.6 2.1 2.1 3.6-3.6c1 .6 2.3 1.1 3.6 1.1 3.8 0 6.8-3 6.8-6.8s-3-6.8-6.8-6.8-6.8 3-6.8 6.8c0 1.3.5 2.5 1 3.6zm5.5-7.2c0-2.1 1.7-3.8 3.8-3.8s3.8 1.6 3.8 3.8c0 2.1-1.7 3.8-3.8 3.8s-3.8-1.7-3.8-3.8zm-5.5 7.2 2.1 2.1 3.6-3.6c1 .6 2.3 1.1 3.6 1.1 3.8 0 6.8-3 6.8-6.8s-3-6.8-6.8-6.8-6.8 3-6.8 6.8c0 1.3.5 2.5 1 3.6zm5.5-7.2c0-2.1 1.7-3.8 3.8-3.8s3.8 1.6 3.8 3.8c0 2.1-1.7 3.8-3.8 3.8s-3.8-1.7-3.8-3.8zm-5.5 7.2 2.1 2.1 3.6-3.6c1 .6 2.3 1.1 3.6 1.1 3.8 0 6.8-3 6.8-6.8s-3-6.8-6.8-6.8-6.8 3-6.8 6.8c0 1.3.5 2.5 1 3.6zm5.5-7.2c0-2.1 1.7-3.8 3.8-3.8s3.8 1.6 3.8 3.8c0 2.1-1.7 3.8-3.8 3.8s-3.8-1.7-3.8-3.8z"/><path d="m19 1h-12c-1.7 0-3 1.3-3 3v24c0 1.7 1.3 3 3 3h18c1.7 0 3-1.3 3-3v-18zm6 27h-18v-24h10.5v7.5h7.5z"/></svg>