<svg enable-background="new 0 0 32 32" viewBox="0 0 32 32" xmlns="http://www.w3.org/2000/svg"><path d="m4.6 6.5h16.4v-4.1c0-1.1-.9-2.1-2.1-2.1h-14.3c-.6 0-1.3.4-1.7 1-.1.2-.3.5-.3.7 0 .1-.1.3-.1.5v18.8c0 1.1.9 2.1 2.1 2.1h4.2v-2.1h-4.2zm0-4.1h14.3v2.1h-14.3z"/><path d="m27.4 8.8h-12.6c-.5-.7-1.3-1-2.2-1h-4.6v9.9h3v.8h-5v2.3h5v8.9c0 1.1.9 2.1 2.1 2.1h14.3c1.1 0 2.1-.9 2.1-2.1v-18.9c0-1.1-1-2-2.1-2zm-17.1.7h1.1s0 0-.1.1c-.2.2-.3.5-.3.7s-.1.3-.1.5v.8.1h-.7v-2.2zm0 6.4v-2.1h.7v2.1zm17.1 13.7h-14.3v-8.9-2.3-.8-1.8-.8h.8 1.8 3.3 8.4zm0-16.7h-8.4-4.2-1.7v-1.5-.6h.3.1 1.9 12z"/><path d="m16.7 17.8h4.7l-.4.9-.6 1.4-1.6 3.2-1.2 2.7h2.5l3.7-8.7v-1.2h-7.1z"/><path d="m14.4 26.7h11.7v2.3h-11.7z"/></svg>