<svg height="32" viewBox="0 0 8.4666665 8.4666669" width="32" xmlns="http://www.w3.org/2000/svg" xmlns:xlink="http://www.w3.org/1999/xlink"><linearGradient id="a" gradientUnits="userSpaceOnUse" x1="143.05969" x2="62.454414" y1="991.66974" y2="958.71808"><stop offset="0" stop-color="#6a60c0"/><stop offset="1" stop-color="#d1d1ff"/></linearGradient><linearGradient id="b" gradientUnits="userSpaceOnUse" x1="88.427315" x2="31.83585" y1="1042.1697" y2="989.17999"><stop offset="0" stop-color="#473895"/><stop offset="1" stop-color="#6e6db6"/></linearGradient><g transform="matrix(.0611958 0 0 .06102485 32.42051902151 -8.94513503303)"><path d="m64.501 946.523 2.523 5.743-29.999 13.38-16.733-17.688 1.148-10.622 8.325 2.297 8.326-9.186 11.77.287 4.593 6.315 6.603 5.455z" fill="#008000" stroke="#000" stroke-linecap="round" stroke-linejoin="round" transform="translate(-548.16356 -778.98402)"/><path d="m154.785 990.171-56.198-51.983-66.957 29.864 56.559 52.163z" fill="url(#a)" stroke="#1a1a1a" stroke-linecap="round" stroke-linejoin="round" transform="translate(-548.16356 -778.98402)"/><path d="m-456.73299 178.19353c-3.8905-.33755-7.63056.89111-11.21095 3.6813-1.80724 1.4079-3.14603 2.90038-4.02093 4.48617-.87489 1.58581-1.24595 3.35483-1.12255 5.29158l-.19747.15072c-1.22696-.84219-2.4565-1.68195-3.68345-2.52412-1.11118.8655-2.21945 1.73423-3.33064 2.59973 10.40975 9.91694 20.81463 19.82724 31.22327 29.74416 1.36593-1.0634 2.73566-2.12021 4.10162-3.18472-2.933-2.79408-5.8691-5.59428-8.80208-8.38947-1.11921-1.06559-2.39617-2.10966-3.83954-3.14607.0978-.0759.19396-.15485.29176-.2308 2.05559.25039 4.06705.0488 6.03701-.59317 1.96996-.64204 3.82914-1.64298 5.58521-3.01132 3.51214-2.73667 5.28933-5.80854 5.31955-9.21048.0269-3.40205-1.72376-6.77654-5.24876-10.13494-3.51094-3.34575-7.21155-5.19101-11.10205-5.52857zm-1.30987 4.48443c2.74325.32542 5.44099 1.75813 8.1061 4.29645 2.62403 2.50044 4.02648 4.97911 4.19895 7.4317.17247 2.4526-.90197 4.58185-3.23242 6.39848-2.79332 2.17606-5.46945 3.1398-8.02616 2.89218-2.55667-.24874-5.34226-1.80342-8.34331-4.66287-.23984-.22826-.47496-.45648-.71479-.68474-2.60508-2.53986-3.89555-4.85926-3.87266-6.9705.0229-2.11123 1.41255-4.24059 4.1695-6.38884 2.39756-1.86906 4.96942-2.64068 7.71479-2.31186z" fill="#d45500" stroke="#f60" stroke-linecap="round" stroke-linejoin="round" stroke-width="1.11046"/><g transform="translate(-548.16356 -778.98402)"><path d="m154.785 990.171v35.379l-66.596 33.74v-39.075z" fill="#1a1a1a"/><path d="m154.822 991.515-.037 32.133-66.803874 33.6747-3.191429-33.9305z" fill="#f2f2f2" stroke="#1a1a1a" stroke-linecap="round" stroke-linejoin="round"/><path d="m88.189 1059.29v-39.075l-56.559-52.163v34.678z" fill="url(#b)" stroke="#000" stroke-linecap="round" stroke-linejoin="round" stroke-width="1.27219"/></g></g></svg>