<svg height="32" viewBox="0 0 8.4666665 8.4666669" width="32" xmlns="http://www.w3.org/2000/svg" xmlns:xlink="http://www.w3.org/1999/xlink"><radialGradient id="a" cx="15.614744" cy="14.487043" gradientTransform="matrix(.8639023 -.42516096 .44743531 .90916244 28.82144 -136.14644)" gradientUnits="userSpaceOnUse" r="15.958009"><stop offset="0" stop-color="#f00"/><stop offset=".8214854" stop-color="#f00"/><stop offset="1" stop-color="#cf0000"/></radialGradient><linearGradient id="b" gradientUnits="userSpaceOnUse" x1="35.276194" x2="53.810004" y1="-134.525059" y2="-134.525059"><stop offset="0" stop-color="#f2f2f2"/><stop offset="1" stop-color="#f2f2f2" stop-opacity="0"/></linearGradient><filter id="c" color-interpolation-filters="sRGB" height="1.179537" width="1.157856" x="-.078928" y="-.089769"><feGaussianBlur stdDeviation=".52641736"/></filter><g transform="matrix(.26716143 0 0 .26716143 -9.072066 38.537503)"><circle cx="49.802845" cy="-128.4024" fill="url(#a)" r="15.25701" stroke="#000" stroke-linecap="round" stroke-linejoin="round" stroke-width=".216467"/><path d="m45.782439-135.88425-3.28711 3.28711 4.134766 4.13476-4.136719 4.13477 3.287109 3.28711 4.134766-4.13672 4.134766 4.13476 3.287109-3.28515-4.134766-4.13672 4.132813-4.13281-3.28711-3.28516-4.132812 4.13281z" fill="#f9f9f9"/><path d="m52.388692-140.67645c1.152337 1.51354-4.228787 1.0545-8.769431 4.51152-4.540647 3.45701-5.483176 9.96591-6.635513 8.45236s-.185322-7.32274 4.355324-10.77975 9.897283-3.69768 11.04962-2.18413z" fill="url(#b)" filter="url(#c)" opacity=".703"/></g></svg>