<svg height="32" viewBox="0 0 8.4666665 8.4666669" width="32" xmlns="http://www.w3.org/2000/svg" xmlns:xlink="http://www.w3.org/1999/xlink"><linearGradient id="a" gradientUnits="userSpaceOnUse" x1="-.56438439722" x2="-21.83397154336" y1="-80.95964747278" y2="-107.99050444698"><stop offset="0" stop-color="#96cef1"/><stop offset="1" stop-color="#fff"/></linearGradient><linearGradient id="b" gradientUnits="userSpaceOnUse" x1="-14.954345" x2="-6.325375" y1="-99.537272" y2="-91.986424"><stop offset="0" stop-color="#dbf0fa"/><stop offset="1" stop-color="#f8fcfe" stop-opacity=".712766"/></linearGradient><linearGradient id="c" gradientUnits="userSpaceOnUse" x1="-18.270607" x2="-21.091094" y1="-86.814331" y2="-89.855645"><stop offset="0" stop-color="#f60"/><stop offset="1" stop-color="#fca"/></linearGradient><filter id="d" color-interpolation-filters="sRGB" height="1.095748" width="1.106414" x="-.053207" y="-.047874"><feGaussianBlur stdDeviation=".6637155"/></filter><g transform="matrix(.25638878 0 0 .2585003 7.074892 28.848219)"><path d="m-23.525254-110.98067v31.517575h24.714844v-24.154295l-6.615235-7.36328zm1.691406 2.99023 12.517579.16602-12.517579 12.517575z" fill="url(#a)" stroke="#000" stroke-linecap="round" stroke-linejoin="round" stroke-width=".223075"/><circle cx="-10.293019" cy="-96.048386" fill="#4d4d4d" r="7.048056"/><path d="m-15.843546-92.054877c.493442.710271 1.068529 1.28402 1.779692 1.775677-2.249488 2.16762-4.498753 4.335463-6.748242 6.503083-.581334-.603417-1.16289-1.206612-1.744224-1.809807 2.237666-2.156467 4.475109-4.31271 6.712774-6.468953z" fill="#808080"/><circle cx="-10.587424" cy="-96.23378" fill="#008080" r="7.048056"/><circle cx="-10.587424" cy="-96.23378" fill="url(#b)" r="5.93335" stroke="#ececec" stroke-linecap="round" stroke-linejoin="round" stroke-width=".223075"/><path d="m-16.375325-92.212186c.493442.710271 1.068529 1.28402 1.779692 1.775677-2.249488 2.16762-4.498754 4.335463-6.748243 6.503083-.581333-.603417-1.16289-1.206612-1.744223-1.809807 2.237665-2.156467 4.475108-4.31271 6.712774-6.468953z" fill="url(#c)"/><path d="m-6.932732-92.961372c-.970282 1.110132-2.345231 1.511917-2.715275 1.18849s.876874-.803883 1.847156-1.914015c.970282-1.110131 1.296502-2.429554 1.666546-2.106128.370045.323426.171857 1.72152-.798427 2.831653z" fill="#fff" opacity=".706"/><path d="m147.129 813.141-29.938.264.278-33.273z" fill="#333" filter="url(#d)" transform="matrix(.22307504 0 0 .22307504 -31.705373 -284.69873)"/><path d="m117.191 813.405.278-33.273 29.66 33.009z" fill="#c2e3f6" transform="matrix(.22307504 0 0 .22307504 -31.631218 -285.00885)"/></g></svg>