<?xml version="1.0" encoding="utf-8"?>
<!-- Generator: Adobe Illustrator 25.2.1, SVG Export Plug-In . SVG Version: 6.00 Build 0)  -->
<svg version="1.1" id="Layer_1" xmlns="http://www.w3.org/2000/svg" xmlns:xlink="http://www.w3.org/1999/xlink" x="0px" y="0px"
	 viewBox="0 0 32 32" >
<style type="text/css">
	.st0{fill:#4488FF;}
	.st1{fill:#FFCE00;}
	.st2{fill:#E24444;}
</style>
<g>
	<g>
		<path d="M23.5,23.1c0,0.8-0.7,1.5-1.5,1.5h-8.2c-0.8,0-1.5-0.7-1.5-1.5V12.7H8.8c-0.8,0-1.5-0.7-1.5-1.5c0-0.8,0.7-1.5,1.5-1.5h12
			c0.8,0,1.5,0.7,1.5,1.5c0,0.8-0.7,1.5-1.5,1.5h-5.5v8.9H22C22.8,21.6,23.5,22.3,23.5,23.1z"/>
	</g>
	<g>
		<path class="st0" d="M23.5,18.7c-0.4,0-0.9-0.2-1.2-0.5l-3.8-3.8c-0.7-0.7-0.7-1.8,0-2.5L25,5.3c0.7-0.7,1.8-0.7,2.5,0l3.8,3.8
			c0.7,0.7,0.7,1.8,0,2.5l-6.6,6.6C24.4,18.5,24,18.7,23.5,18.7z M22.1,13.1l1.4,1.4l4.1-4.1L26.2,9L22.1,13.1z"/>
	</g>
	<g>
		<path class="st1" d="M6.3,15.7c-0.4,0-0.9-0.2-1.2-0.5l-4.5-4.5c-0.7-0.7-0.7-1.8,0-2.5l7.7-7.7c0.7-0.7,1.8-0.7,2.5,0L15.2,5
			c0.7,0.7,0.7,1.8,0,2.5l-7.7,7.7C7.2,15.5,6.7,15.7,6.3,15.7z M4.3,9.5l2,2l5.2-5.2l-2-2L4.3,9.5z"/>
	</g>
	<g>
		<path class="st2" d="M23,32c-0.4,0-0.9-0.2-1.2-0.5l-3.8-3.8c-0.7-0.7-0.7-1.8,0-2.5l6.6-6.6c0.7-0.7,1.8-0.7,2.5,0l3.8,3.8
			c0.7,0.7,0.7,1.8,0,2.5l-6.6,6.6C23.9,31.8,23.5,32,23,32z M21.7,26.4l1.4,1.4l4.1-4.1l-1.4-1.4L21.7,26.4z"/>
	</g>
</g>
</svg>
