<?xml version="1.0" encoding="utf-8"?>
<!-- Generator: Adobe Illustrator 25.2.0, SVG Export Plug-In . SVG Version: 6.00 Build 0)  -->
<svg version="1.1" id="Layer_1" xmlns="http://www.w3.org/2000/svg" xmlns:xlink="http://www.w3.org/1999/xlink" x="0px" y="0px"
	 viewBox="0 0 32 32" style="enable-background:new 0 0 32 32;" xml:space="preserve">
<style type="text/css">
	.st0{fill:#FFFFFF;}
	.st1{fill:#008080;}
	.st2{fill:#FFC300;}
	.st3{fill:#D45500;}
</style>
<g id="g15309" transform="matrix(0.26458333,0,0,0.26458333,8.2833207,-8.617605)">
	<g>
		<path d="M21.3,123.6c-0.1-0.1-0.2-0.3-0.3-0.4c-0.1-0.1-0.2-0.3-0.2-0.5c0-0.1-0.1-0.3-0.1-0.4c-0.1-0.1-0.1-0.2,0-0.3
			c0,0-0.1-0.1,0-0.2V79.1h0.1v42.6C20.6,122.4,20.9,123.1,21.3,123.6z"/>
		<path d="M45.4,118.9l-5.6,5.6H23.1c-0.2,0-0.5,0-0.7-0.1h-0.1c-0.2-0.1-0.3-0.2-0.5-0.3c-0.1,0-0.1,0-0.2-0.1
			c0.4,0.3,0.9,0.5,1.4,0.5h14l5.5-5.5h-17l0,0V79.1h0v39.8H45.4z"/>
		<path class="st0" d="M20.6,121.7V79.1h-0.1v42.6c0,0.1,0,0.2,0,0.2c0,0.1,0,0.2,0,0.2c0,0.1,0,0.2,0,0.3c0,0.2,0.1,0.3,0.1,0.4
			c0,0.2,0.1,0.3,0.2,0.5c0.1,0.2,0.2,0.3,0.3,0.4C20.9,123.1,20.6,122.4,20.6,121.7z M45.4,118.8H25.7V79.1h-0.1v39.8l0,0h19.6
			l-5.5,5.5H23.1c-0.5,0-1-0.2-1.4-0.5c0,0.1,0.1,0.1,0.2,0.1c0.2,0.1,0.3,0.2,0.5,0.3h0.1c0.2,0.1,0.4,0.2,0.7,0.2h16.7
			c0,0,0,0,0,0L45.4,118.8C45.4,118.9,45.4,118.9,45.4,118.8C45.4,118.8,45.4,118.8,45.4,118.8z"/>
		<path d="M25.7,118.9h17l-5.5,5.5h-14c-0.5,0-1-0.2-1.4-0.5c-0.2-0.1-0.3-0.2-0.4-0.3c-0.4-0.5-0.7-1.2-0.7-2V79.1h-9.2l5.2-5.2
			h26.5l-5.2,5.2H25.6L25.7,118.9L25.7,118.9z"/>
	</g>
	<g>
		<path class="st0" d="M42.2,78.3c-0.4,0.4-0.9,0.7-1.5,0.8h-15v0.1h15c0.3,0,0.6-0.1,0.9-0.3h0c0.1-0.1,0.3-0.2,0.4-0.3
			C42,78.6,42.2,78.4,42.2,78.3C42.2,78.3,42.2,78.3,42.2,78.3z"/>
	</g>
	<g id="rect15303">
		<path class="st1" d="M81.8,71.7L64.9,54.8c-0.7-0.7-2-0.7-2.6,0l-19,19l-5.3,5.3l0,0l0,0l-2.2,2.2c-0.7,0.8-0.7,1.9,0,2.7
			L52.5,101c0.4,0.3,0.8,0.6,1.4,0.6c0.5,0,1-0.2,1.3-0.6l26.6-26.6C82.5,73.7,82.5,72.4,81.8,71.7z M53.9,97L39.6,82.7l23.9-23.9
			L77.8,73L53.9,97z"/>
	</g>
	<g>
		<path class="st2" d="M31,56.8L10.8,36.6C10.5,36.2,10,36,9.5,36c-0.5,0-1,0.2-1.4,0.6l-31.6,31.7c-0.7,0.7-0.7,1.9,0,2.6
			l20.1,20.1c0.4,0.4,0.9,0.6,1.4,0.6c0.5,0,0.9-0.2,1.3-0.6L10,80.5l21-21c0.3-0.3,0.5-0.8,0.5-1.3C31.6,57.6,31.4,57.2,31,56.8z
			 M-2,87.1l-17.5-17.4l29-29L27,58.2L-2,87.1z"/>
	</g>
	<g>
		<path class="st3" d="M79.5,119.5l-17.4-17.4c-0.7-0.8-1.9-0.8-2.6,0L44,117.5l-1.3,1.3l-0.1,0.1l0,0l-5.5,5.5l0,0l0,0l-4.9,4.9
			c-0.7,0.8-0.7,1.9,0,2.7l17.4,17.4c0.3,0.4,0.8,0.6,1.3,0.6c0.5,0,1-0.2,1.4-0.6l27.3-27.3C80.3,121.4,80.3,120.3,79.5,119.5z
			 M50.9,145.5l-14.7-14.7l24.6-24.6l14.7,14.7L50.9,145.5z"/>
	</g>
</g>
</svg>
