<?xml version="1.0" encoding="utf-8"?>
<!-- Generator: Adobe Illustrator 25.2.0, SVG Export Plug-In . SVG Version: 6.00 Build 0)  -->
<svg version="1.1" id="Layer_1" xmlns="http://www.w3.org/2000/svg" xmlns:xlink="http://www.w3.org/1999/xlink" x="0px" y="0px"
	 viewBox="0 0 32 32" style="enable-background:new 0 0 32 32;" xml:space="preserve">
<style type="text/css">
	.st0{fill:#0000FF;}
</style>
<g>
	<path class="st0" d="M11.8,27.9c-2.9-0.8-4.4-2.7-4.4-5.7v-2.4c0-1.7-0.7-2.6-2.2-2.6v-2.5c1.4,0,2.1-0.8,2.2-2.4V9.8
		c0-1.5,0.4-2.7,1.1-3.7s1.8-1.6,3.3-2l0.7,2c-0.6,0.2-1.1,0.6-1.4,1.2c-0.3,0.6-0.5,1.3-0.5,2.3v2.6c0,1.8-0.7,3.1-2.2,3.9
		c1.5,0.7,2.2,2,2.2,3.9v2.6c0,1.9,0.7,3.1,1.9,3.5L11.8,27.9z"/>
	<path class="st0" d="M19.6,25.9c1.2-0.4,1.9-1.6,1.9-3.5v-2.6c0-1.8,0.7-3.1,2.2-3.8c-1.5-0.7-2.2-2-2.2-3.9V9.6
		c0-1.9-0.7-3.1-1.9-3.5l0.7-2c1.5,0.4,2.6,1.1,3.3,2c0.7,0.9,1.1,2.1,1.1,3.6v2.6c0,1.6,0.8,2.4,2.2,2.4v2.5
		c-1.4,0-2.2,0.9-2.2,2.6v2.6c-0.1,2.8-1.5,4.7-4.4,5.5L19.6,25.9z"/>
</g>
</svg>
