<?xml version="1.0" encoding="utf-8"?>
<!-- Generator: Adobe Illustrator 25.2.0, SVG Export Plug-In . SVG Version: 6.00 Build 0)  -->
<svg version="1.1" id="Layer_1" xmlns="http://www.w3.org/2000/svg" xmlns:xlink="http://www.w3.org/1999/xlink" x="0px" y="0px"
	 viewBox="0 0 32 32" style="enable-background:new 0 0 32 32;" xml:space="preserve">
<style type="text/css">
	.st0{fill:#E24444;}
</style>
<g>
	<path d="M25.3,11.5l2.7,2.6v-3c0-1.5-1.2-2.7-2.7-2.7h-5.5V5.7c0-1.5-1.2-2.7-2.7-2.7h-5.6c-1.5,0-2.7,1.2-2.7,2.7v2.7H3.1
		c-1.5,0-2.7,1.2-2.7,2.7v15.2c0,1.5,1.2,2.7,2.7,2.7h22.2c1.5,0,2.7-1.2,2.7-2.7l0-1.1L28,25.4l-3.6,3.2C24,29,23.4,29,23,28.6
		l-2.3-2.2H3.1V11.1h14.8l3-2.4c0.1-0.1,0.3-0.2,0.4-0.2h0.4c0.2,0,0.4,0.1,0.5,0.2l2.5,2.4h0.4V11.5z M17,8.4h-5.6V5.7H17V8.4z"/>
	<g>
		<path class="st0" d="M25,11.1h-0.1l0.1,0.1l0.3,0.2v-0.1L25,11.1z M25,11.1h-0.1l0.1,0.1l0.3,0.2v-0.1L25,11.1z"/>
		<path class="st0" d="M31.6,17.6c0-0.1-0.1-0.2-0.2-0.3l-3.3-3.2l-2.7-2.6L25,11.2l-0.1-0.1l-2.5-2.4c-0.1-0.1-0.3-0.2-0.5-0.2
			h-0.4c-0.1,0-0.3,0.1-0.4,0.2l-3,2.4l-0.1,0.1l-3.2,2.5c-0.3,0.3-0.3,0.7-0.3,0.8v5.3c0,0.3,0.1,0.5,0.3,0.8l6,5.8l2.3,2.2
			c0.4,0.4,1,0.4,1.5,0l3.6-3.2l0.1-0.1l2.2-2c0.1-0.1,0.3-0.3,0.3-0.5l1-4.7C31.6,18,31.6,17.7,31.6,17.6z M16.3,19.3v-2.5l0.7,0.7
			l6.5,6.1L23,25.8L16.3,19.3z M28.7,22.1l-0.7,0.7l-2.7,2.4l-0.1,0.1l0.1-0.5v-0.1l0.1-0.8l2.6-2.3l0.3-0.3l0.7-0.5L28.7,22.1z
			 M28.1,18.8l-2.7,2.4l-0.8,0.7L20,17.5l-3.2-3l4.3-3.4l0.5-0.4l0.4,0.4l3.3,3.1l2.7,2.6l1.1,1.1L28.1,18.8z"/>
		<rect x="2.6" y="22.8" class="st0" width="11.9" height="2.2"/>
		<rect x="5" y="16.3" class="st0" width="7.4" height="2.2"/>
		<rect x="2.6" y="19.6" class="st0" width="9.7" height="2.2"/>
	</g>
</g>
</svg>
