<?xml version="1.0" encoding="utf-8"?>
<!-- Generator: Adobe Illustrator 25.2.0, SVG Export Plug-In . SVG Version: 6.00 Build 0)  -->
<svg version="1.1" id="Layer_1" xmlns="http://www.w3.org/2000/svg" xmlns:xlink="http://www.w3.org/1999/xlink" x="0px" y="0px"
	 viewBox="0 0 32 32" style="enable-background:new 0 0 32 32;" xml:space="preserve">
<style type="text/css">
	.st0{fill:#73E529;}
</style>
<g>
	<path class="st0" d="M29.2,15L29.2,15c0-0.1-0.1-0.2-0.2-0.3l0,0l-3-2.9l-2.8-2.6l-2.4-2.3c-0.1-0.1-0.3-0.2-0.5-0.2h-0.4
		c-0.1,0-0.3,0.1-0.4,0.2l-2.9,2.3l-2.9,2.3l0,0c-0.3,0.2-0.3,0.6-0.3,0.7l0,0l0,0V17c0,0.3,0.1,0.5,0.3,0.7l5.5,5.3l2.1,2
		c0.4,0.4,1,0.4,1.3,0l3.2-3l2.1-1.9c0.1-0.1,0.3-0.3,0.3-0.5l0.9-4.3C29.2,15.4,29.3,15.1,29.2,15z M15.2,16.6v-2.3l0.6,0.6
		l5.9,5.6l-0.3,2L15.2,16.6z M26.6,19.1L26,19.7l-2.5,2.2L23.4,22l0.1-0.5v-0.1l0.1-0.7l2.4-2.1l0.3-0.3l0.6-0.5L26.6,19.1z
		 M26,16.1l-2.5,2.2l-0.7,0.6l-4.2-4l-2.9-2.7l3.9-3.1l0.5-0.4l0.4,0.4l3,2.8l2.5,2.4l1,1L26,16.1z"/>
	<rect x="2.7" y="19.8" class="st0" width="10.9" height="2"/>
	<rect x="4.9" y="13.8" class="st0" width="6.8" height="2"/>
	<rect x="2.7" y="16.8" class="st0" width="8.9" height="2"/>
</g>
</svg>
