<?xml version="1.0" encoding="utf-8"?>
<!-- Generator: Adobe Illustrator 25.2.0, SVG Export Plug-In . SVG Version: 6.00 Build 0)  -->
<svg version="1.1" id="Layer_1" xmlns="http://www.w3.org/2000/svg" xmlns:xlink="http://www.w3.org/1999/xlink" x="0px" y="0px"
	 viewBox="0 0 32 32" style="enable-background:new 0 0 32 32;" xml:space="preserve">
<style type="text/css">
	.st0{fill:none;}
</style>
<g>
	<path class="st0" d="M3.1,3.1h25.9v25.9H3.1V3.1z"/>
	<path d="M26.8,23.5h-6.5v-4.3h-2.9c-1.2,2.6-3.9,4.3-6.8,4.3c-4.2,0-7.5-3.3-7.5-7.5s3.3-7.5,7.5-7.5c2.9,0,5.6,1.7,6.8,4.3h11.5
		v6.5h-2.2V23.5z M22.5,21.4h2.2v-4.3h2.2v-2.2H15.9l-0.2-0.8c-0.8-2.2-2.8-3.6-5.1-3.6c-3,0-5.4,2.4-5.4,5.4s2.4,5.4,5.4,5.4
		c2.3,0,4.3-1.4,5.1-3.6l0.2-0.8h6.6C22.5,17.1,22.5,21.4,22.5,21.4z M10.6,19.2c-1.8,0-3.2-1.5-3.2-3.2s1.4-3.2,3.2-3.2
		c1.7,0,3.2,1.5,3.2,3.2S12.3,19.2,10.6,19.2z M10.6,14.9c-0.6,0-1.1,0.4-1.1,1.1s0.4,1.1,1.1,1.1s1.1-0.4,1.1-1.1
		S11.1,14.9,10.6,14.9z"/>
</g>
</svg>
