<svg viewBox="0 0 32 32">
<g fill="#E24444"> 
	<rect x="3.8" y="9.7" width="6.5" height="3.5"/>
	<rect x="0.4" y="16.1" width="9.9" height="3.5"/>
	<rect x="0.4" y="22.6" width="11.9" height="3.5"/>
	<path d="M31.1,13.9l-8.7-8.3c-0.6-0.6-1.6-0.6-2.3-0.1l-6.2,4.9c-0.1,0.1-0.3,0.2-0.4,0.3c-0.1,0.1-0.2,0.3-0.3,0.4
		c0,0-0.1,0.1-0.1,0.1c0,0,0,0,0,0.1C13.1,11.5,13,11.7,13,12l0,5.2c0,0.5,0.2,0.9,0.5,1.3l8.3,8c0.3,0.3,0.8,0.5,1.2,0.5
		c0.4,0,0.8-0.2,1.2-0.5l5.8-5.3c0.3-0.3,0.5-0.6,0.5-1l0.9-4.6C31.7,15,31.5,14.3,31.1,13.9z M21.1,9.2l6.3,6L24,18.1L17.5,12
		L21.1,9.2z"/>
</g>
</svg>
