<svg viewBox="0 0 32 32">
<g fill="#4488FF">
	<path d="M10.6,31.4c-3.7-1-5.7-3.5-5.7-7.4v-3.1c0-2.2-2.2-3.4-4.1-3.4v-3.2c1.8,0,4-1,4.1-3.1V8
		c0-1.9,0.5-3.5,1.4-4.8c0.9-1.3,2.3-2.1,4.3-2.6l0.9,2.6C10.7,3.5,10,4,9.7,4.8C9.3,5.5,9,6.4,9,7.7v3.4c0,2.3-0.9,4-2.8,5
		C8.1,17,9,18.7,9,21.2v3.4c0,2.5,0.9,4,2.5,4.5L10.6,31.4z"/>
	<path d="M20.6,28.8c1.5-0.5,2.5-2.1,2.5-4.5v-3.4c0-2.3,0.9-4,2.8-4.9c-1.9-0.9-2.8-2.6-2.8-5V7.7c0-2.5-0.9-4-2.5-4.5
		l0.9-2.6c1.9,0.5,3.4,1.4,4.3,2.6c0.9,1.2,1.4,2.7,1.4,4.6v3.4c0,2.1,2.3,3.1,4.1,3.1v3.2c-1.8,0-4.1,1.2-4.1,3.4v3.4
		c-0.1,3.6-1.9,6.1-5.7,7.1L20.6,28.8z"/>
</g>
</svg>
