<svg viewBox="0 0 32 32">
<g transform="translate(-275.1 -318.4)">
	<path d="M290.9,318.8h-11.3c-1.6,0-2.9,1.3-2.8,2.9v23.4c0,1.6,1.2,2.9,2.8,2.9h17c1.6,0,2.9-1.3,2.8-2.9
		v-17.6L290.9,318.8z M279.6,345.2v-23.4h9.9v7.3h7.1v16.1L279.6,345.2L279.6,345.2z"/>
</g>
<g transform="translate(-16.5,-18) scale(1.45)">
	<path fill="#4488FF" d="M20.8,22.5H25c1.2,0,2.1-1,2.1-2.2v-4c-0.1-1.2-1-2.1-2.1-2.2c0,0,0,0-0.1,0c-0.6-0.1-3.4-0.2-4.2,0
		c-1.2,0.3-1.8,0.6-2,1.2c-0.1,0.3-0.1,0.6-0.1,1v1.6h4.2v0.6h-5.9c-1.3,0-2.4,0.9-2.7,2.1c-0.1,0.3-0.1,0.5-0.2,0.8
		c0,0.1,0,0.2-0.1,0.3c-0.1,0.4-0.1,0.8-0.1,1.2c0,0.7,0.1,1.4,0.3,2.1c0.1,0.3,0.2,0.6,0.3,0.8c0.3,0.6,0.6,1,1.1,1.2
		c0.3,0.1,0.5,0.2,0.8,0.2h1.5v-2C18.1,23.6,19.3,22.5,20.8,22.5z M20.5,16.7c-0.4,0-0.8-0.4-0.8-0.8s0.4-0.8,0.8-0.8
		s0.8,0.4,0.8,0.8C21.4,16.3,21,16.7,20.5,16.7z"/>
	<path fill="#FFCE00" d="M24.9,23.5h-4.2c-1.2,0-2.1,1-2.1,2.2v4c0.1,1.2,1,2.1,2.1,2.2c0,0,0,0,0.1,0c0.6,0.1,3.4,0.2,4.2,0
		c1.2-0.3,1.8-0.6,2-1.2c0.1-0.3,0.1-0.6,0.1-1v-1.6h-4.2v-0.6h5.9c1.3,0,2.4-0.9,2.7-2.1c0.1-0.3,0.1-0.5,0.2-0.8
		c0-0.1,0-0.2,0.1-0.3c0.1-0.4,0.1-0.8,0.1-1.2c0-0.7-0.1-1.4-0.3-2.1c-0.1-0.3-0.2-0.6-0.3-0.8c-0.3-0.6-0.6-1-1.1-1.2
		c-0.3-0.1-0.5-0.2-0.8-0.2h-1.5v2C27.6,22.4,26.4,23.5,24.9,23.5z M25.2,29.3c0.4,0,0.8,0.4,0.8,0.8c0,0.4-0.4,0.8-0.8,0.8
		s-0.8-0.4-0.8-0.8C24.3,29.7,24.7,29.3,25.2,29.3z"/>
</g>
</svg>
