<?xml version="1.0" encoding="utf-8"?>
<!-- Generator: Adobe Illustrator 25.2.0, SVG Export Plug-In . SVG Version: 6.00 Build 0)  -->
<svg version="1.1" id="Layer_1" xmlns="http://www.w3.org/2000/svg" xmlns:xlink="http://www.w3.org/1999/xlink" x="0px" y="0px"
	 viewBox="0 0 32 32" style="enable-background:new 0 0 32 32;" xml:space="preserve">
<g>
	<path d="M10.2,25.1H9.6c-1.1,0-2.2-0.4-2.9-0.7c0.2-0.2,0.4-0.5,0.6-0.7c0.6-0.5,1.2-1,1.7-1.4c0.5,0,1,0,1.4-0.1
		c0.2,0,0.3-0.1,0.5-0.1c0-0.5,0-1,0-1.5c0,0,0,0,0,0c0,0,0-0.1,0-0.1c-0.6,0.1-1.1,0.2-1.6,0.2H9.3c-0.5,0-0.9,0-1.4,0
		c-0.1,0-0.1,0-0.2,0c-1.5,0-2.5-0.6-3.2-1.3c-0.8-0.8-1.1-2-1-3.1c0.7,0.8,1.9,1.9,3.6,2.2c0.5,0.1,0.9,0.1,1.4,0.1
		c1.1,0,2.2-0.2,3.2-0.6c0.7-1.4,2.2-2.4,3.9-2.4h0.1v-0.7c0,0,0,0,0,0c-0.7,0.4-1.4,0.8-2.3,1.3c-2,1-3.7,1.6-6.1,1.3
		c-1.9-0.3-3.1-1.9-3.5-2.4c0.6-1.4,1.4-1.8,2.9-2.6c1.5-0.7,1.8-2,1.8-2c0.3-1.5,0.4-5.7,1.1-6.6c0.5-0.6,1-0.8,1.5-0.8
		c0.3,0,0.5,0,0.9,0.1C12.7,3.3,13.4,4,13.4,4l0.7-0.5c0.4-0.3,0.9-0.4,1.3-0.4h0.4c1.6,0,2.4,0.6,3,1.7c1,1.8,0.8,4,0.9,4.9
		c0,0.4,0.3,1,0.6,1.5c0.2,0,0.5,0,0.8,0c0.2,0,0.5,0,0.7,0c0.1,0,0.2,0,0.3,0c-0.5-0.7-0.8-1.3-0.8-1.6V8.9c0-1.2-0.1-3.1-1.1-4.9
		C19.4,2.4,18,1.6,16,1.6h-0.5c-0.7,0-1.3,0.2-1.9,0.6c-0.3-0.2-0.7-0.4-1.1-0.5c-0.5-0.3-0.9-0.3-1.3-0.3C9.8,1.4,9,2.1,8.5,2.7
		c-0.8,1-1,2.7-1.3,5.6C7.1,9,7.1,9.6,7,10c0,0.1-0.2,0.7-1,1.1l-0.3,0.2c-1.5,0.8-2.7,1.5-3.4,3.6c-0.6,1.9-0.2,4,1.1,5.5
		c0.2,0.3,0.5,0.5,0.8,0.7c-0.3,1.1,0,2.4,0.5,3.4c-0.3,0.2-1.6,1.3-1.5,2.6v0.1h0.1c0.2,0,0.7-0.3,1.5-1.2c0.2-0.1,0.3-0.2,0.4-0.1
		c0.1,0.1,0.2,0.2,0.2,0.5l0.1,1.8h0.1c0,0,0,0,0.1,0c0.1,0,0.1,0,0.2-0.1c0.3-0.2,0.5-0.9,0.4-2c1,0.5,2.2,0.7,3.2,0.7
		c0.3,0,0.6,0,0.8-0.1c0.9-0.1,1.6-0.3,2.2-0.4c-0.4-0.4-0.7-0.9-0.9-1.4C11.2,24.9,10.7,25,10.2,25.1z M6.4,20.6h0.1
		c0.1,0,0.2,0,0.3,0c0,0-0.3,0.3-0.2,0.6s0.3,0.4,0.6,0.7l-1.3,1.3C5.6,22.1,5.6,20.6,6.4,20.6z"/>
	<path d="M8.5,15.4c0.1,1.1,0.9,0.9,0.9,0.9s0.6,0,0.6-0.8c0.2-1-0.2-1.2-0.4-1.2C9.5,14.2,8.5,14.3,8.5,15.4z"/>
	<path d="M5.8,14.5c-0.6,1,0,1.5,0,1.5s0.7,0.4,1.4-0.6c0.6-0.9,0.3-1.3,0.2-1.4C7.3,13.9,6.4,13.5,5.8,14.5z"/>
	<path d="M11.2,11.7c0.2,0,0.5-0.1,0.7-0.2c0.6-0.3,1-0.9,1.2-1.3c0.3,0.6,0.7,1.1,1.4,1.3c0.3,0.1,0.6,0.2,0.9,0.2
		c0.3,0,0.5-0.1,0.8-0.2c0.5-0.3,0.9-0.8,1.2-1.6c0.2-0.7,0.5-2.5,0-3.6c-0.6-1.2-1.9-1.5-2.9-1.1c-0.6,0.2-1,0.5-1.2,1.1
		c0-0.1,0-0.1,0-0.2C13,5.6,12.6,5.2,12,5c-0.5-0.2-1.1-0.2-1.5,0C9.7,5.4,9.3,5.9,9,7.7c-0.2,2.1,0.3,3.4,1.5,3.9
		C10.7,11.7,11,11.7,11.2,11.7z M13.4,7.8C13.6,6.2,14,6,14.6,5.7c0.2-0.1,0.4-0.1,0.6-0.1c0.6,0,1.2,0.3,1.6,1
		C17,6.8,17,7.1,17.1,7.4v0c-0.3-0.4-0.7-0.6-1.2-0.6c-0.8,0-1.3,0.7-1.3,1.6c0,1,0.5,1.7,1.3,1.7c0.4,0,0.8-0.2,1-0.5c0,0,0,0,0,0
		c0,0.1,0,0.2-0.1,0.2c-0.2,0.6-0.5,1.1-0.9,1.3c-0.3,0.2-0.8,0.2-1.3,0c-0.6-0.2-1.3-0.7-1.3-2.2c0-0.2,0-0.5,0.1-0.8
		c0,0,0,0,0-0.1C13.4,8,13.4,7.9,13.4,7.8z M9.6,7.7c0.2-1.7,0.6-2,1.2-2.3c0.1-0.1,0.3-0.1,0.5-0.1c0.2,0,0.4,0.1,0.6,0.1
		c0.3,0.1,0.7,0.4,0.9,0.9c0.1,0.2,0.1,0.5,0.1,0.7c0,0,0,0,0,0c-0.3-0.3-0.7-0.5-1.1-0.5c-0.8,0-1.4,0.7-1.4,1.6
		c0,0.9,0.6,1.6,1.4,1.6c0.4,0,0.8-0.2,1-0.4c0,0,0,0,0,0c0,0.2-0.1,0.3-0.1,0.4c-0.1,0.1-0.4,1-1,1.3c-0.3,0.1-0.6,0.2-1,0
		C9.8,10.7,9.4,9.6,9.6,7.7z"/>
	<path d="M19.2,21.2h4.2c1.2,0,2.1-1,2.1-2.2v-4c-0.1-1.2-1-2.1-2.1-2.2c0,0,0,0-0.1,0c-0.6-0.1-3.4-0.2-4.2,0
		c-1.2,0.3-1.8,0.6-2,1.2c-0.1,0.3-0.1,0.6-0.1,1v1.6h4.2v0.6h-5.9c-1.3,0-2.4,0.9-2.7,2.1c-0.1,0.3-0.1,0.5-0.2,0.8
		c0,0.1,0,0.2-0.1,0.3c-0.1,0.4-0.1,0.8-0.1,1.2c0,0.7,0.1,1.4,0.3,2.1c0.1,0.3,0.2,0.6,0.3,0.8c0.3,0.6,0.6,1,1.1,1.2
		c0.3,0.1,0.5,0.2,0.8,0.2h1.5v-2C16.5,22.3,17.7,21.2,19.2,21.2z M18.9,15.4c-0.4,0-0.8-0.4-0.8-0.8c0-0.4,0.4-0.8,0.8-0.8
		c0.4,0,0.8,0.4,0.8,0.8C19.8,15,19.4,15.4,18.9,15.4z"/>
	<path d="M30,20.2C30,20.2,30,20.2,30,20.2c-0.1-0.4-0.1-0.7-0.2-1.1c-0.1-0.3-0.1-0.5-0.2-0.8v0c-0.3-0.7-0.8-1.3-1.8-1.3h-1.6v1.9
		c0,1.5-1.2,2.7-2.7,2.7h-4.2c-1.2,0-2.1,1-2.1,2.2v4c0,1.1,1,1.8,2.1,2.2c0.4,0.1,0.7,0.2,1.1,0.3c0,0,0,0,0,0
		c0.4,0.1,0.7,0.1,1.1,0.1c0.1,0,0.2,0,0.2,0c0.1,0,0.2,0,0.2,0c0.1,0,0.3,0,0.4-0.1c0.1,0,0.3-0.1,0.4-0.1c0.1,0,0.3-0.1,0.4-0.1h0
		c0.1,0,0.3-0.1,0.4-0.1c1.1-0.3,2.1-0.9,2.1-2.2v-1.6h-4.2v-0.6h6.4c0.3,0,0.5,0,0.7-0.1c0.1,0,0.3-0.1,0.4-0.2
		c0.1-0.1,0.2-0.1,0.3-0.2c0.3-0.3,0.5-0.7,0.7-1.3c0.1-0.2,0.1-0.3,0.2-0.5c0.1-0.4,0.2-0.7,0.2-1.1C30.1,21.7,30.1,20.9,30,20.2z
		 M29.4,21.7c0,0.2,0,0.3-0.1,0.5c0,0.1,0,0.2,0,0.3c-0.1,0.3-0.1,0.6-0.2,0.8c-0.4,1.1-0.6,1.5-1,1.6C28,25,27.8,25,27.6,25h-7.1v2
		h4.2v0.9c0,0.7-0.6,1.2-1.6,1.5c-0.6,0.2-1.3,0.3-1.9,0.3c-0.6,0-1.3-0.1-1.9-0.3c-0.1,0-0.2-0.1-0.2-0.1c0,0,0,0,0,0
		c-0.6-0.2-1.4-0.6-1.4-1.4v-4c0-0.8,0.6-1.4,1.4-1.5h4.2c1.8-0.1,3.3-1.5,3.3-3.4v-1.2h1c0.2,0,0.4,0,0.6,0.1h0
		c0.1,0.1,0.2,0.1,0.3,0.2c0.1,0.1,0.2,0.2,0.3,0.4c0,0,0,0,0,0c0.1,0.2,0.2,0.5,0.3,0.8c0.1,0.3,0.2,0.7,0.2,1
		c0,0.3,0.1,0.6,0.1,0.9C29.4,21.4,29.4,21.6,29.4,21.7z"/>
	<path d="M23.8,28.9c0.4,0,0.8-0.4,0.8-0.8c0-0.4-0.4-0.8-0.8-0.8c-0.4,0-0.8,0.4-0.8,0.8C23,28.5,23.4,28.9,23.8,28.9z"/>
</g>
</svg>
