<?xml version="1.0" encoding="utf-8"?>
<!-- Generator: Adobe Illustrator 25.2.0, SVG Export Plug-In . SVG Version: 6.00 Build 0)  -->
<svg version="1.1" id="Layer_1" xmlns="http://www.w3.org/2000/svg" xmlns:xlink="http://www.w3.org/1999/xlink" x="0px" y="0px"
	 viewBox="0 0 32 32" style="enable-background:new 0 0 32 32;" xml:space="preserve">
<g>
	<g>
		<path d="M28,7H16l-3-3H4C2.3,4,1,5.3,1,7v18c0,1.7,1.3,3,3,3h24c1.7,0,3-1.3,3-3V10C31,8.4,29.6,7,28,7z M28,25H4V7h7.8l2.1,2.1
			l0.9,0.9H28V25z M16.3,16H10v3h6.3l-2.4,2.4l2.1,2.1l6-6l-6-6l-2.1,2.1L16.3,16z"/>
	</g>
</g>
</svg>
