<?xml version="1.0" encoding="utf-8"?>
<!-- Generator: Adobe Illustrator 25.2.0, SVG Export Plug-In . SVG Version: 6.00 Build 0)  -->
<svg version="1.1" id="Layer_1" xmlns="http://www.w3.org/2000/svg" xmlns:xlink="http://www.w3.org/1999/xlink" x="0px" y="0px"
	 viewBox="0 0 32 32" style="enable-background:new 0 0 32 32;" xml:space="preserve">
<g>
	<g>
		<path d="M28,7H16l-3-3H4C2.3,4,1,5.4,1,7v18c0,1.7,1.3,3,3,3h24c1.7,0,3-1.3,3-3V10C31,8.3,29.6,7,28,7z M28,25H4V10h24V25z"/>
	</g>
	<g>
		<path d="M10.2,22h-3v-4.7c0-0.8,0.7-1.5,1.5-1.5h3.9l2.3-2.3c0.3-0.3,0.7-0.4,1.1-0.4h9v3h-8.3l-2.3,2.3c-0.3,0.3-0.7,0.4-1.1,0.4
			h-3V22z"/>
	</g>
</g>
</svg>
