<?xml version="1.0" encoding="utf-8"?>
<!-- Generator: Adobe Illustrator 25.2.0, SVG Export Plug-In . SVG Version: 6.00 Build 0)  -->
<svg version="1.1" id="Layer_1" xmlns="http://www.w3.org/2000/svg" xmlns:xlink="http://www.w3.org/1999/xlink" x="0px" y="0px"
	 viewBox="0 0 32 32" style="enable-background:new 0 0 32 32;" xml:space="preserve">
<path d="M30.5,9.6c0-0.1,0-0.3,0-0.4l0,0c0-0.1-0.1-0.2-0.1-0.3c0,0,0-0.1-0.1-0.1c0-0.1-0.1-0.1-0.1-0.2l-0.1-0.1
	c-0.1,0-0.1-0.1-0.2-0.1l0,0L16.1,1.2c-0.4-0.2-0.9-0.2-1.3,0L2.2,7.9l0,0C2.1,7.9,2.1,8,2,8L1.9,8.1C1.8,8.2,1.8,8.2,1.7,8.3
	L1.6,8.4c0,0.1-0.1,0.2-0.1,0.2v0.1c0,0.1,0,0.2,0,0.4v13.2c0,0.5,0.3,1,0.7,1.2l13.3,7.4l0,0c0.1,0,0.2,0.1,0.2,0.1h0.1
	c0.1,0,0.2,0,0.3,0s0.2,0,0.3,0c0,0,0,0,0.1,0s0.1,0,0.2-0.1l0,0l13.1-7.1c0.4-0.3,0.7-0.7,0.7-1.2L30.5,9.6z M14.5,4.5l0.2,3.7
	l-7-0.1L14.5,4.5z M14.7,27.4L4.2,21.5V11.4l10.5,5.4V27.4z M8.2,10.3l6.5,0.1l0.1,3.3L8.2,10.3z M16.7,4.6l7.2,3.8l-7-0.1L16.7,4.6
	z M17,10.5l6.9,0.1l-6.8,3.3L17,10.5z M17.5,27.4V16.8l10.3-5l0.1,10L17.5,27.4z"/>
</svg>
