<?xml version="1.0" encoding="utf-8"?>
<!-- Generator: Adobe Illustrator 25.2.0, SVG Export Plug-In . SVG Version: 6.00 Build 0)  -->
<svg version="1.1" id="Layer_1" xmlns="http://www.w3.org/2000/svg" xmlns:xlink="http://www.w3.org/1999/xlink" x="0px" y="0px"
	 viewBox="0 0 32 32" style="enable-background:new 0 0 32 32;" xml:space="preserve">
<g>
	<g>
		<path d="M16,14.1L16,14.1h-0.2C15.8,14.1,15.8,14.1,16,14.1C15.9,14.1,15.9,14.1,16,14.1z"/>
		<path d="M17.3,22v3.2v-0.1V22C17.2,22.1,17.2,22,17.3,22z"/>
	</g>
	<g>
		<path d="M16,14.1L16,14.1h-0.2C15.8,14.1,15.8,14.1,16,14.1C15.9,14.1,15.9,14.1,16,14.1z"/>
	</g>
	<g>
		<g>
			<path d="M16.6,30.8l-0.2,0.1C16.5,30.8,16.6,30.8,16.6,30.8z"/>
			<path d="M16.4,30.9l0.2-0.1C16.6,30.8,16.5,30.8,16.4,30.9z"/>
		</g>
		<g>
			<polygon points="30.7,23.6 24.7,29.6 22.6,27.5 25,25.1 18.7,25.1 18.7,22.1 25,22.1 22.6,19.7 24.7,17.6 27.6,20.4 30.2,23.1 
							"/>
		</g>
	</g>
	<path d="M30.4,21L30.3,9.5v0c0,0,0,0,0-0.1s0,0,0-0.1c0,0,0,0,0,0c0,0,0,0,0,0c0-0.5-0.4-0.9-0.8-1.1c0,0,0,0,0,0L16,1.1
		c-0.4-0.2-0.9-0.2-1.3,0L2.1,7.8C1.8,7.9,1.6,8.1,1.4,8.3C1.2,8.7,1.3,9.1,1.3,9.5c0,0.3,0,0.6,0,0.9c0,0.9,0,1.8,0,2.7
		c0,1.1,0,2.2,0,3.2c0,1,0,2,0,3c0,0.7,0,1.4,0,2.1c0,0.2,0,0.4,0,0.6c0,0.5,0.3,1,0.7,1.2l13.1,7.4c0.1,0,0.2,0.1,0.3,0.1
		c0.1,0,0.2,0.1,0.2,0.1h0.6c0.1,0,0.2,0,0.2-0.1c0.1-0.1,0.2-0.1,0.2-0.1l-0.2,0.1c0,0,0,0,0.1,0c0.1,0,0.1-0.1,0.2-0.1l4.7-2.6
		c-0.3-0.5-0.3-1.1,0.1-1.6h-2.7c-0.1,0-0.2,0-0.2,0l-1.3,0.7V16.6l10.3-5v6.6L30.4,21z M14.2,4.3L14.4,8L7.5,7.9L14.2,4.3z
		 M14.5,27.2L4,21.3V11.2l10.5,5.4V27.2z M8,10.1l6.5,0.1l0.2,3.3L8,10.1z M16.9,13.7l-0.2-3.4l6.9,0.1L16.9,13.7z M16.6,8.1
		l-0.2-3.6l7.2,3.8L16.6,8.1z"/>
</g>
</svg>
