<?xml version="1.0" encoding="utf-8"?>
<!-- Generator: Adobe Illustrator 25.2.0, SVG Export Plug-In . SVG Version: 6.00 Build 0)  -->
<svg version="1.1" id="Layer_1" xmlns="http://www.w3.org/2000/svg" xmlns:xlink="http://www.w3.org/1999/xlink" x="0px" y="0px"
	 viewBox="0 0 14 11" style="enable-background:new 0 0 14 11;" xml:space="preserve">
<style type="text/css">
	.st0{fill:#8E8E8E;}
</style>
<g>
	<g>
		<path class="st0" d="M7,0.8c-2.6,0-4.7,2.1-4.7,4.7s2.1,4.7,4.7,4.7s4.7-2.1,4.7-4.7S9.6,0.8,7,0.8z M7,9C5.1,9,3.5,7.4,3.5,5.5
			S5.1,2,7,2c1.9,0,3.5,1.6,3.5,3.5S8.9,9,7,9z"/>
	</g>
	<g>
		<path class="st0" d="M7,7.9c-1.3,0-2.4-1-2.4-2.4s1-2.4,2.4-2.4c1.3,0,2.4,1,2.4,2.4S8.3,7.9,7,7.9z M7,3.8
			c-0.9,0-1.7,0.8-1.7,1.7c0,0.9,0.8,1.7,1.7,1.7s1.7-0.8,1.7-1.7C8.7,4.6,7.9,3.8,7,3.8z"/>
	</g>
</g>
</svg>
