<?xml version="1.0" encoding="utf-8"?>
<!-- Generator: Adobe Illustrator 25.2.0, SVG Export Plug-In . SVG Version: 6.00 Build 0)  -->
<svg version="1.1" id="Layer_1" xmlns="http://www.w3.org/2000/svg" xmlns:xlink="http://www.w3.org/1999/xlink" x="0px" y="0px"
	 viewBox="0 0 14 11" style="enable-background:new 0 0 14 11;" xml:space="preserve">
<style type="text/css">
	.st0{fill:#D31616;}
</style>
<g>
	<path class="st0" d="M11.1,5.6c0-0.9-0.3-1.7-0.8-2.4l1.5-1.5l-1-1L9.3,2.2C8.6,1.8,7.8,1.5,7,1.5c-0.8,0-1.6,0.3-2.3,0.7L3.2,0.7
		l-1,1l1.5,1.5C3.2,3.9,2.9,4.7,2.9,5.6c0,0.8,0.3,1.6,0.7,2.3L2.2,9.3l1,1l1.4-1.4C5.3,9.4,6.1,9.7,7,9.7s1.7-0.3,2.4-0.8l1.4,1.4
		l1-1l-1.5-1.5C10.8,7.2,11.1,6.4,11.1,5.6z M7,2.8c0.5,0,1,0.1,1.4,0.4L7,4.5L5.6,3.1C6,2.9,6.5,2.8,7,2.8z M4.3,5.5
		c0-0.5,0.1-1,0.4-1.4L6,5.5L4.6,6.9C4.4,6.5,4.3,6,4.3,5.5z M7,8.2c-0.5,0-1-0.1-1.4-0.4L7,6.5l1.4,1.4C8,8.1,7.5,8.2,7,8.2z
		 M9.4,6.9L8,5.5l1.4-1.4C9.6,4.5,9.7,5,9.7,5.5S9.6,6.5,9.4,6.9z"/>
</g>
</svg>
