<?xml version="1.0" encoding="utf-8"?>
<!-- Generator: Adobe Illustrator 25.2.0, SVG Export Plug-In . SVG Version: 6.00 Build 0)  -->
<svg version="1.1" id="Layer_1" xmlns="http://www.w3.org/2000/svg" xmlns:xlink="http://www.w3.org/1999/xlink" x="0px" y="0px"
	 viewBox="0 0 14 11" style="enable-background:new 0 0 14 11;" xml:space="preserve">
<style type="text/css">
	.st0{fill:#D31616;}
</style>
<g>
	<g>
		<g>
			<path class="st0" d="M5.6,1.5L5.4,1.3C4,1.7,3,2.8,2.5,4.1h1.3c0.5-1.1,1.4-1.7,2.6-1.9L5.6,1.5z M3.9,6.8H2.6
				C3,8.1,4.1,9.2,5.5,9.6l0.2-0.2l0.8-0.8C5.3,8.5,4.3,7.8,3.9,6.8z"/>
		</g>
	</g>
	<g>
		<g>
			<g>
				<polygon class="st0" points="12.3,5.5 10.9,6.9 8.2,9.6 7,10.8 6.1,9.9 7.3,8.6 9.7,6.2 1.7,6.2 1.7,4.8 9.7,4.8 6.1,1.1 7,0.2 
					10.9,4 				"/>
			</g>
		</g>
	</g>
</g>
</svg>
