<?xml version="1.0" encoding="UTF-8" standalone="no"?>
<svg
   xmlns:dc="http://purl.org/dc/elements/1.1/"
   xmlns:cc="http://creativecommons.org/ns#"
   xmlns:rdf="http://www.w3.org/1999/02/22-rdf-syntax-ns#"
   xmlns:svg="http://www.w3.org/2000/svg"
   xmlns="http://www.w3.org/2000/svg"
   xmlns:xlink="http://www.w3.org/1999/xlink"
   xmlns:sodipodi="http://sodipodi.sourceforge.net/DTD/sodipodi-0.dtd"
   xmlns:inkscape="http://www.inkscape.org/namespaces/inkscape"
   width="32"
   height="32"
   viewBox="0 0 8.4666665 8.4666669"
   version="1.1"
   id="svg8"
   inkscape:version="1.0 (1.0+r73+1)"
   sodipodi:docname="Print5.svg">
  <defs
     id="defs2">
    <inkscape:path-effect
       lpeversion="0"
       effect="bspline"
       id="path-effect8657"
       is_visible="true"
       weight="33.333333"
       steps="2"
       helper_size="0"
       apply_no_weight="true"
       apply_with_weight="true"
       only_selected="false" />
    <radialGradient
       r="7.0476027"
       fy="-29.007458"
       fx="223.78369"
       cy="-29.007458"
       cx="223.78369"
       gradientTransform="matrix(1.1065117,0,0,1.1256532,149.09222,92.008437)"
       gradientUnits="userSpaceOnUse"
       id="radialGradient7001"
       xlink:href="#linearGradient5672"
       inkscape:collect="always" />
    <linearGradient
       id="linearGradient5672"
       inkscape:collect="always">
      <stop
         id="stop5668"
         offset="0"
         style="stop-color:#008080;stop-opacity:1" />
      <stop
         style="stop-color:#008080;stop-opacity:1"
         offset="0.9170109"
         id="stop5676" />
      <stop
         id="stop5670"
         offset="1"
         style="stop-color:#00474d;stop-opacity:1" />
    </linearGradient>
    <linearGradient
       inkscape:collect="always"
       xlink:href="#linearGradient5369-7"
       id="linearGradient12522"
       gradientUnits="userSpaceOnUse"
       gradientTransform="matrix(1.1064406,0,0,1.1255808,378.27981,42.372558)"
       x1="12.291612"
       y1="11.785198"
       x2="20.920582"
       y2="19.336046" />
    <linearGradient
       inkscape:collect="always"
       id="linearGradient5369-7">
      <stop
         style="stop-color:#dbf0fa;stop-opacity:1"
         offset="0"
         id="stop5365-5" />
      <stop
         style="stop-color:#f8fcfe;stop-opacity:0.71276593"
         offset="1"
         id="stop5367" />
    </linearGradient>
    <linearGradient
       inkscape:collect="always"
       xlink:href="#linearGradient5534"
       id="linearGradient12524"
       gradientUnits="userSpaceOnUse"
       gradientTransform="matrix(1.1064406,0,0,1.1255808,378.27981,42.372558)"
       x1="8.9753504"
       y1="24.508139"
       x2="6.581181"
       y2="21.695408" />
    <linearGradient
       id="linearGradient5534"
       inkscape:collect="always">
      <stop
         id="stop5529"
         offset="0"
         style="stop-color:#ffbe00;stop-opacity:1" />
      <stop
         id="stop5532"
         offset="1"
         style="stop-color:#ffcc9a;stop-opacity:1" />
    </linearGradient>
    <linearGradient
       inkscape:collect="always"
       xlink:href="#linearGradient5696"
       id="linearGradient12526"
       gradientUnits="userSpaceOnUse"
       gradientTransform="matrix(0.68610202,0,0,0.68610202,350.43574,115.19554)"
       x1="73.930481"
       y1="-73.120491"
       x2="60.957924"
       y2="-84.434196" />
    <linearGradient
       id="linearGradient5696"
       inkscape:collect="always">
      <stop
         id="stop5692"
         offset="0"
         style="stop-color:#f9f9f9;stop-opacity:1;" />
      <stop
         id="stop5694"
         offset="1"
         style="stop-color:#f9f9f9;stop-opacity:0;" />
    </linearGradient>
  </defs>
  <sodipodi:namedview
     id="base"
     pagecolor="#ffffff"
     bordercolor="#666666"
     borderopacity="1.0"
     inkscape:pageopacity="0.0"
     inkscape:pageshadow="2"
     inkscape:zoom="3.959798"
     inkscape:cx="32.87339"
     inkscape:cy="-10.045736"
     inkscape:document-units="px"
     inkscape:current-layer="layer1"
     inkscape:document-rotation="0"
     showgrid="false"
     units="px"
     inkscape:window-width="925"
     inkscape:window-height="704"
     inkscape:window-x="20"
     inkscape:window-y="0"
     inkscape:window-maximized="0" />
  <metadata
     id="metadata5">
    <rdf:RDF>
      <cc:Work
         rdf:about="">
        <dc:format>image/svg+xml</dc:format>
        <dc:type
           rdf:resource="http://purl.org/dc/dcmitype/StillImage" />
        <dc:title></dc:title>
      </cc:Work>
    </rdf:RDF>
  </metadata>
  <g
     inkscape:label="Layer 1"
     inkscape:groupmode="layer"
     id="layer1">
    <g
       id="g7327"
       transform="matrix(-0.26458333,0,0,0.26458333,109.08457,-28.047409)">
      <g
         id="g6999"
         transform="matrix(-1.1932323,0,0,1.1932323,866.25262,47.592454)">
        <path
           inkscape:connector-curvature="0"
           style="fill:#4d4d4d;stroke:none;stroke-width:0.248945;stroke-linecap:round;stroke-linejoin:round;stroke-opacity:1"
           d="m 397.03762,51.63165 a 7.7982556,7.9331561 0 0 0 -7.7988,7.932287 7.7982556,7.9331561 0 0 0 7.7988,7.934167 7.7982556,7.9331561 0 0 0 7.79879,-7.934167 7.7982556,7.9331561 0 0 0 -7.79879,-7.932287 z m -0.32527,1.045354 a 6.564899,6.6784643 0 0 1 6.56355,6.678237 6.564899,6.6784643 0 0 1 -6.56355,6.680118 6.564899,6.6784643 0 0 1 -6.56543,-6.680118 6.564899,6.6784643 0 0 1 6.56543,-6.678237 z"
           id="path6987" />
        <path
           d="m 390.89591,64.059792 c 0.54596,0.799467 1.18226,1.445268 1.96912,1.998669 -2.48892,2.439832 -4.9776,4.879914 -7.46653,7.319745 -0.64321,-0.679194 -1.28666,-1.358139 -1.92988,-2.037084 2.47584,-2.427279 4.95144,-4.854304 7.42729,-7.28133 z"
           id="path6989"
           inkscape:connector-curvature="0"
           style="fill:#808080;fill-opacity:1;stroke:none;stroke-width:0.248945;stroke-linecap:round;stroke-linejoin:round;stroke-opacity:1" />
        <path
           inkscape:connector-curvature="0"
           style="fill:url(#radialGradient7001);fill-opacity:1;stroke:none;stroke-width:0.248945;stroke-linecap:round;stroke-linejoin:round;stroke-opacity:1"
           d="m 396.71235,51.422955 a 7.7982556,7.9331561 0 0 0 -7.79879,7.932286 7.7982556,7.9331561 0 0 0 7.79879,7.934168 7.7982556,7.9331561 0 0 0 7.79692,-7.934168 7.7982556,7.9331561 0 0 0 -7.79692,-7.932286 z m 0,1.254049 a 6.564899,6.6784643 0 0 1 6.56355,6.678237 6.564899,6.6784643 0 0 1 -6.56355,6.680118 6.564899,6.6784643 0 0 1 -6.56543,-6.680118 6.564899,6.6784643 0 0 1 6.56543,-6.678237 z"
           id="path6991" />
        <ellipse
           ry="6.6784644"
           rx="6.564899"
           style="opacity:0.696;fill:url(#linearGradient12522);fill-opacity:1;stroke:#ececec;stroke-width:0.248945;stroke-linecap:round;stroke-linejoin:round;stroke-opacity:1"
           id="ellipse6993"
           cy="59.356098"
           cx="396.71149" />
        <path
           style="fill:url(#linearGradient12524);fill-opacity:1;stroke:none;stroke-width:0.248945;stroke-linecap:round;stroke-linejoin:round;stroke-opacity:1"
           inkscape:connector-curvature="0"
           id="path6995"
           d="m 390.30753,63.882729 c 0.54596,0.799466 1.18226,1.445268 1.96913,1.998667 -2.48894,2.439833 -4.97761,4.879915 -7.46654,7.319746 -0.64321,-0.679195 -1.28667,-1.358139 -1.92988,-2.037084 2.47585,-2.427278 4.95145,-4.854304 7.42729,-7.281329 z" />
        <path
           inkscape:connector-curvature="0"
           id="path6997"
           d="m 399.4891,56.780091 c -1.76354,0.186534 -3.34621,0.949798 -4.53583,2.092065 -1.00313,0.963201 -1.72231,2.19635 -2.04118,3.573943 0.65645,1.785131 2.42468,3.066312 4.50854,3.066312 2.64257,0 4.78399,-2.056956 4.78399,-4.594339 0,-1.824835 -1.11025,-3.396548 -2.71552,-4.137981 z"
           style="opacity:1;fill:url(#linearGradient12526);fill-opacity:1;fill-rule:nonzero;stroke:none;stroke-width:0.602987;stroke-linecap:butt;stroke-linejoin:round;stroke-miterlimit:4;stroke-dasharray:none;stroke-dashoffset:0;stroke-opacity:1" />
      </g>
      <text
         id="text7015"
         y="125.91534"
         x="386.44812"
         style="font-style:normal;font-variant:normal;font-weight:normal;font-stretch:normal;font-size:27.2px;line-height:1.25;font-family:calibri;-inkscape-font-specification:calibri;letter-spacing:0px;word-spacing:0px;fill:#ffffff;fill-opacity:1;stroke:none;stroke-width:0.68"
         xml:space="preserve"><tspan
           y="125.91534"
           x="386.44812"
           id="tspan7013"
           sodipodi:role="line"
           style="fill:#ffffff;stroke-width:0.68">+</tspan></text>
      <text
         xml:space="preserve"
         style="font-style:normal;font-variant:normal;font-weight:normal;font-stretch:normal;font-size:25.4545px;line-height:1.25;font-family:calibri;-inkscape-font-specification:calibri;letter-spacing:0px;word-spacing:0px;fill:#ff0000;fill-opacity:1;stroke:none;stroke-width:0.636364"
         x="386.88278"
         y="125.42358"
         id="text7011"><tspan
           style="fill:#ff0000;stroke-width:0.636364"
           sodipodi:role="line"
           id="tspan7009"
           x="386.88278"
           y="125.42358">+</tspan></text>
    </g>
  </g>
</svg>
