<?xml version="1.0" encoding="utf-8"?>
<!-- Generator: Adobe Illustrator 25.2.0, SVG Export Plug-In . SVG Version: 6.00 Build 0)  -->
<svg version="1.1" id="Layer_1" xmlns="http://www.w3.org/2000/svg" xmlns:xlink="http://www.w3.org/1999/xlink" x="0px" y="0px"
	 viewBox="0 0 32 32" style="enable-background:new 0 0 32 32;" xml:space="preserve">
<g>
	<g>
		<path d="M4,16C4,9.3,9.4,4,16,4s12,5.4,12,12s-5.4,12-12,12S4,22.6,4,16 M1,16c0,8.2,6.7,15,15,15s15-6.7,15-15S24.3,1,16,1
			S1,7.7,1,16L1,16z"/>
	</g>
	<g id="play_arrow-24px_1_" transform="translate(-31 55)">
		<g id="play_arrow-24px-2_1_" transform="translate(31 -55)">
			<path id="Trazado_1725_1_" d="M14,19.9v-7.8l6.1,3.9L14,19.9 M24.4,16.1L11.7,8v16.1L24.4,16.1z"/>
		</g>
	</g>
</g>
</svg>
