<?xml version="1.0" encoding="utf-8"?>
<svg version="1.1" id="Layer_1" xmlns="http://www.w3.org/2000/svg" xmlns:xlink="http://www.w3.org/1999/xlink" x="0px" y="0px"
	 viewBox="0 0 32 32" >
	<path d="M2.8,26.9l2.3,2.3l7.5-7.5v-1.2l0.5-0.4c1.6,1.5,3.9,2.4,6.3,2.4c5.4,0,9.8-4.3,9.8-9.8s-4.3-9.8-9.8-9.8s-9.8,4.3-9.8,9.7
		c0,2.4,0.9,4.7,2.4,6.3l-0.4,0.5h-1.2L2.8,26.9z M12.6,12.6c0-3.8,3-6.8,6.8-6.8s6.8,3,6.8,6.8s-3,6.8-6.8,6.8S12.6,16.4,12.6,12.6
		z M18.6,11.9h-3v1.5h3v3h1.5v-3h3v-1.5h-3v-3h-1.5V11.9z"/>
</svg>
