<svg viewBox="0 0 32 32">
	<path d="M4.6,6.5H21V2.4c0-1.1-0.9-2.1-2.1-2.1H4.6C4,0.3,3.3,0.7,2.9,1.3C2.8,1.5,2.6,1.8,2.6,2c0,0.1-0.1,0.3-0.1,0.5v18.8
		c0,1.1,0.9,2.1,2.1,2.1h4.2v-2.1H4.6V6.5z M4.6,2.4h14.3v2.1H4.6V2.4z"/>
	<path d="M27.4,8.8H14.8c-0.5-0.7-1.3-1-2.2-1H8v9.9H11v0.8h-5v2.3h5v8.9c0,1.1,0.9,2.1,2.1,2.1h14.3c1.1,0,2.1-0.9,2.1-2.1V10.8
		C29.5,9.7,28.5,8.8,27.4,8.8z M10.3,9.5h1.1c0,0,0,0-0.1,0.1c-0.2,0.2-0.3,0.5-0.3,0.7c0,0.2-0.1,0.3-0.1,0.5v0.8v0.1h-0.7V9.5z
		 M10.3,15.9v-2.1H11v2.1H10.3z M27.4,29.6H13.1v-8.9v-2.3v-0.8v-1.8V15h0.8h1.8h3.3h8.4V29.6z M27.4,12.9h-8.4h-4.2h-1.7v-1.5v-0.6
		h0.3h0.1h1.9h12V12.9z"/>
	<polygon points="16.7,17.8 21.4,17.8 21,18.7 20.4,20.1 18.8,23.3 17.6,26 20.1,26 23.8,17.3 23.8,16.1 16.7,16.1 "/>
	<rect x="14.4" y="26.7" width="11.7" height="2.3"/>
</svg>
