<?xml version="1.0" encoding="utf-8"?>
<!-- Generator: Adobe Illustrator 25.2.0, SVG Export Plug-In . SVG Version: 6.00 Build 0)  -->
<svg version="1.1" id="Layer_1" xmlns="http://www.w3.org/2000/svg" xmlns:xlink="http://www.w3.org/1999/xlink" x="0px" y="0px"
	 viewBox="0 0 32 32" style="enable-background:new 0 0 32 32;" xml:space="preserve">
<style type="text/css">
	.st0{fill:#FFFFFF;}
</style>
<g>
	<path class="st0" d="M18.8,9.3c0-1.5-0.3-2.6-1-3.3c-0.7-0.7-1.7-1-3.2-1h-2.7v9.1h2.9c1.4,0,2.4-0.4,3.1-1.1S18.8,11.1,18.8,9.3z
		 M20.8,21.4c0-1.7-0.4-3-1.3-3.9c-0.9-0.8-2.3-1.3-4.2-1.3h-3.4v10.6c1.9,0.1,3.4,0.1,4.4,0.1c1.5,0,2.6-0.5,3.4-1.4
		C20.4,24.7,20.8,23.3,20.8,21.4z M2.4,29v-1.4l3.4-0.5V4.8L2.4,4.3V2.8h12.7c3.5,0,6,0.5,7.7,1.4c1.7,0.9,2.5,2.4,2.5,4.5
		c0,1.6-0.5,2.9-1.5,4c-1,1.1-2.3,1.9-3.9,2.2c2.4,0.2,4.3,0.9,5.5,2c1.2,1.1,1.9,2.5,1.9,4.4c0,2.5-0.9,4.5-2.8,5.8s-4.6,2-8.1,2
		L7.5,29L2.4,29z"/>
</g>
<g>
	<path d="M22.2,15.6c1.8-1.2,3-3.3,3-5.2c0-4.3-3.3-7.4-7.4-7.4H6.1v25.9H19c3.9,0,6.8-3.1,6.8-7C26.3,19.1,24.6,16.7,22.2,15.6z
		 M11.9,7.6h5.5c1.5,0,2.8,1.2,2.8,2.8s-1.2,2.8-2.8,2.8h-5.5V7.6z M18.3,24.3h-6.5v-5.5h6.5c1.5,0,2.8,1.2,2.8,2.8
		C21.1,23.1,19.8,24.3,18.3,24.3z"/>
</g>
</svg>
