<?xml version="1.0" encoding="utf-8"?>
<!-- Generator: Adobe Illustrator 25.2.0, SVG Export Plug-In . SVG Version: 6.00 Build 0)  -->
<svg version="1.1" id="Layer_1" xmlns="http://www.w3.org/2000/svg" xmlns:xlink="http://www.w3.org/1999/xlink" x="0px" y="0px"
	 viewBox="0 0 32 32" style="enable-background:new 0 0 32 32;" xml:space="preserve">
<g>
	<g>
		<path d="M19,1H7C5.3,1,4,2.3,4,4v24c0,1.7,1.3,3,3,3h18c1.7,0,3-1.3,3-3V10L19,1z M7,28V4h10.5v7.5H25V28H7z"/>
	</g>
	<g>
		<g>
			<path d="M19.9,19.5v-4h-2v4h-4v2h4v4h2v-4h4v-2H19.9z M17.5,14.2v-2h-4v-4h-2v4h-4v2h4v4h2v-4C13.5,14.2,17.5,14.2,17.5,14.2z"/>
		</g>
	</g>
</g>
</svg>
