<svg viewBox="0 0 32 32" xmlns="http://www.w3.org/2000/svg" xmlns:xlink="http://www.w3.org/1999/xlink"><clipPath id="a"><path d="m0 0v32h20v-16h12v-16z"/></clipPath><path d="m30.7 23.6-6 6-2.1-2.1 2.4-2.4h-6.3v-3h6.3l-2.4-2.4 2.1-2.1 2.9 2.8 2.6 2.7z" transform="matrix(1.1 0 0 1.1 -2.2 -3.3)"/><g clip-path="url(#a)"><path d="m19 14.87v-5.74c0-.72-.38-1.38-1-1.73l-5-2.88c-.31-.18-.65-.27-1-.27s-.69.09-1 .27l-5 2.87c-.62.36-1 1.02-1 1.74v5.74c0 .72.38 1.38 1 1.73l5 2.88c.31.18.65.27 1 .27s.69-.09 1-.27l5-2.88c.62-.35 1-1.01 1-1.73zm-8 2.3-4-2.3v-4.63l4 2.33zm1-6.33-3.96-2.31 3.96-2.28 3.96 2.28zm5 4.03-4 2.3v-4.6l4-2.33z" transform="matrix(2 0 0 2 -8 -8)"/></g></svg>