<svg height="32" viewBox="0 0 8.4666665 8.4666669" width="32" xmlns="http://www.w3.org/2000/svg" xmlns:xlink="http://www.w3.org/1999/xlink"><filter id="a" color-interpolation-filters="sRGB" height="1.103799" width="1.440389" x="-.220194" y="-.051899"><feGaussianBlur stdDeviation=".15935645"/></filter><g transform="translate(-.000131 8.46667)"><path d="m4.2020652-7.9179285c-.57361 0-.8418769.294576-.8369844.918153.00331.415881.070644.790041.3845632 2.12373.1380565.586621.2757477 1.249706.3047174 1.474369.028937.224664.059101.434527.067857.46573.00865.0312.057617.05589.109122.05589.1133546 0 .1093333.01721.1969365-.657344.038899-.299552.172128-.963967.296739-1.4757.4615773-1.895661.483945-2.292563.1503689-2.649339-.1678953-.179574-.3676539-.255487-.673312-.255487zm.031937 6.061146a.65392321.65392321 0 0 0 -.6546784.653353.65392321.65392321 0 0 0 .6546784.65468401.65392321.65392321 0 0 0 .6533576-.65468401.65392321.65392321 0 0 0 -.6533576-.653353z" fill="#333" filter="url(#a)"/><path d="m4.2040581-7.6840675c-.537203 0-.788443.275879-.783861.859878.0031.389485.06616.739897.360155 1.988937.129294.549388.258246 1.170387.285377 1.380791.0271.210404.05535.406947.06355.43617.0081.02922.05396.05234.102196.05234.10616 0 .102394.01612.184437-.615623.03643-.280539.161203-.902784.277905-1.382037.432281-1.775344.453229-2.147054.140825-2.481186-.157239-.168176-.344319-.239271-.630577-.239271zm.02991 5.676445a.61241874.61241874 0 0 0 -.613126.611885.61241874.61241874 0 0 0 .613126.61313101.61241874.61241874 0 0 0 .611889-.61313101.61241874.61241874 0 0 0 -.611889-.611885z" fill="#f00"/></g></svg>