<svg height="32" viewBox="0 0 8.4666665 8.4666669" width="32" xmlns="http://www.w3.org/2000/svg" xmlns:xlink="http://www.w3.org/1999/xlink"><linearGradient id="a" gradientUnits="userSpaceOnUse" x1="-397.66101" x2="-449.64587" y1="277.38501" y2="235.68221"><stop offset="0" stop-color="#f8b509"/><stop offset="1" stop-color="#fcf52e"/></linearGradient><filter id="b" color-interpolation-filters="sRGB" height="1.070585" width="1.064125" x="-.032062" y="-.035293"><feGaussianBlur stdDeviation=".33408593"/></filter><linearGradient id="c" gradientUnits="userSpaceOnUse" x1="-397.66101" x2="-428.76801" y1="277.38501" y2="229.62199"><stop offset="0" stop-color="#f8b509"/><stop offset="1" stop-color="#fcf5bd"/></linearGradient><radialGradient id="d" cx="-116.1304" cy="172.40646" gradientTransform="matrix(1.3090894 -.0014765 .00204953 1.8171615 35.541313 -140.70154)" gradientUnits="userSpaceOnUse" r="2.726063"><stop offset="0" stop-color="#d62200"/><stop offset=".75880492" stop-color="#eb3e0c"/><stop offset="1" stop-color="#ffb431"/></radialGradient><filter id="e" color-interpolation-filters="sRGB" height="1.1344" width="1.1344" x="-.0672" y="-.0672"><feGaussianBlur stdDeviation=".053228708"/></filter><g transform="matrix(.2571436 0 0 .25717106 .013377 .249177)"><g transform="matrix(1.00472438854 0 0 .99563876443 -.0000689997 -1.07265497753)"><path d="m-434.565 223.825 5.797 5.797 30.3 3.012.807 44.751-61.604 16.507v-62.506l7.561-7.561z" fill="url(#a)" stroke="#000" stroke-linecap="round" stroke-linejoin="round" transform="matrix(.42387273 0 0 .42235565 194.88192 -92.350986)"/><path d="m26.035156 8.8027344-8.220703 1.2832036-2.615234 5.447265h-6.355469l-7.6777344 15.988281 3.5078125-.9375 19.1249999-6.162109 2.375-7.986328z" fill="#333" filter="url(#b)"/><path d="m-397.661 277.385-61.604 16.507 21.092-36.532h17.218l7.084-12.27 29.1-3.78z" fill="url(#c)" stroke="#000" stroke-linecap="round" stroke-linejoin="round" stroke-width=".290702" transform="matrix(.42387273 0 0 .42235565 194.88192 -92.350986)"/></g><g stroke-linecap="round" stroke-linejoin="round" transform="matrix(2.2066963 0 0 2.2066963 278.62941 -370.20553)"><g stroke="#f00"><path d="m-113.24992 172.22681h1.60973" fill="#f00" stroke-width=".497"/><path d="m-113.94982 173.83653 1.50486 1.50487" fill="#f00" stroke-width=".497"/><path d="m-116.53948 173.41669-1.64489 1.64468" fill="#f00" stroke-width=".497"/><path d="m-117.16315 171.94104h-1.4237" fill="#f00" stroke-width=".497"/><path d="m-116.74981 170.19583-1.19402-1.19401" fill="#f00" stroke-width=".497"/><path d="m-113.30581 170.24185 1.03327-1.03326" fill="#f00" stroke-width=".497"/><path d="m-115.91286 174.36601c.28261.2828.56522.56541.84802.84801l.88455-.88455c2.2964-.8573 2.27171-4.11428-.0373-4.93662 0-.52868 0-1.05736 0-1.58623-.63947 0-1.27894 0-1.91841 0v1.64725c-2.22688.95664-2.08133 4.16148.22316 4.91214z" fill="url(#d)" stroke-width=".197489"/></g><circle cx="-114.99197" cy="171.95427" fill="#ff0" filter="url(#e)" r=".950513" stroke="#ff0" stroke-width=".197489"/></g><g fill="#333"><circle cx="23.719484" cy="1.687108" r=".972272"/><circle cx="25.844484" cy="1.687108" r=".972272"/></g></g></svg>