<svg height="32" viewBox="0 0 8.4666665 8.4666669" width="32" xmlns="http://www.w3.org/2000/svg" xmlns:xlink="http://www.w3.org/1999/xlink"><linearGradient id="a" gradientUnits="userSpaceOnUse" x1="12.407554" x2="12.256194" y1="11.499709" y2="1.33505"><stop offset="0" stop-color="#666"/><stop offset=".27012497" stop-color="#808080"/><stop offset=".38327286" stop-color="#b3b3b3"/><stop offset="1" stop-color="#f9f9f9"/></linearGradient><linearGradient id="b" gradientUnits="userSpaceOnUse" x1="10.924865" x2="18.978268" y1="18.241819" y2="18.241819"><stop offset="0" stop-color="#e6e6e6"/><stop offset=".21886829" stop-color="#f9f9f9"/><stop offset="1" stop-color="#ccc"/></linearGradient><linearGradient id="c" gradientUnits="userSpaceOnUse" x1="-182.108" x2="-150.002" y1="797.70148" y2="797.70148"><stop offset="0" stop-color="#00f"/><stop offset=".10688787" stop-color="#9decff"/><stop offset="1" stop-color="#0e0edb"/></linearGradient><g stroke="#000" stroke-linecap="round" stroke-linejoin="round" transform="matrix(.25365089 0 0 .25367798 .174922 .20501)"><path d="m.75623594 10.796164h3.81190626c.3745038-.793922.7486186-1.5874724 1.1231224-2.381023.9645103-.024187 1.92939-.048179 2.8938808-.072366.8438833 1.3058875 1.6881556 2.611775 2.5320586 3.917643h7.668741c.747471-.749624 1.495331-1.499248 2.242802-2.249262 0-.4803664 0-.9607335 0-1.4411005 4.812515-.2172545 6.576719.8886995 10.215387 4.2061715-.11028-3.9811927-4.819809-10.0833967-8.913249-11.1296438-.38489-.3859789-.77015-.77234794-1.15502-1.15834635-3.607549 0-7.215116 0-10.822665 0-.7939557.79624225-1.5882811 1.59287475-2.382237 2.38911715-.7259792 0-1.4523279 0-2.1782877 0-.2270168-.9102727-.4536251-1.8201554-.6806419-2.73040869-1.451939.04544829-2.9042475.09089659-4.35618645.13634488.00038899 3.50468771.00038899 7.00861471.00038899 10.51291281z" fill="url(#a)" stroke-width=".685"/><path d="m11.117196 12.260387h7.668741v11.962865h-7.668741z" fill="url(#b)" stroke-width=".384662"/><path d="m-181.608 787.916h4.864 19.965 6.277v19.571h-31.106z" fill="url(#c)" transform="matrix(.38410922 0 0 .38521544 79.006198 -279.29417)"/></g></svg>