<svg height="32" viewBox="0 0 8.4666665 8.4666669" width="32" xmlns="http://www.w3.org/2000/svg" xmlns:xlink="http://www.w3.org/1999/xlink"><linearGradient id="a" gradientUnits="userSpaceOnUse" x1="-94.687927" x2="-69.186073" y1="1285.578" y2="1285.578"><stop offset="0" stop-color="#2929ff"/><stop offset=".2402378" stop-color="#8c8cef"/><stop offset="1" stop-color="#0000d1"/></linearGradient><linearGradient id="b" gradientTransform="matrix(.14257211 0 0 .13092139 -59.267127 -37.8927)" gradientUnits="userSpaceOnUse" x1="441.08813" x2="496.59631" y1="323.04205" y2="323.04205"><stop offset="0" stop-color="#96cef1"/><stop offset="1" stop-color="#fff"/></linearGradient><g transform="translate(-3.343766 -1.379324)"><path d="m4.9380576 6.6901743c-.0483897-.0091545-.1146659-.0243152-.1680954-.0356393-.1412431-.0327555-.30414-.0968534-.4312665-.1697035-.3271007-.1874412-.5745811-.4983607-.6701833-.8419746-.0331275-.1190649-.0451727-.2009322-.0483024-.3282653-.0058202-.2365029.0422732-.4434491.1518095-.6533322.1604709-.3074852.4349835-.5484012.780902-.6853361l.055324-.021881.00283-.041743c.02291-.3370284.2456548-.6434975.5759435-.7923863.097203-.043818.1969927-.072681.3042829-.088008.067559-.00966.2205699-.00984.2896372-.0005292.1741352.023918.328196.083418.4809288.1858193.00722.00484.010186.00106.039567-.053009.0948484-.1739085.2111889-.3256812.3538077-.4615605.3518842-.3352584.8002728-.5363943 1.3128898-.5889326.084332-.00865.2872325-.01188.3750937-.00601.5147786.034488.9782942.2232419 1.339401.5454325.3388179.3023046.5487449.6921835.6028509 1.1196279.0062.0489.01542.2101344.01233.2152356-.000793.00132-.0016.027615-.0021.058618l-.000793.056369.02492.00304c.470785.057071.889213.343852 1.086809.7448778.06716.1362892.108513.281527.123571.4339611.0065.065555.0029.2189636-.0065.2816669-.03576.2372093-.133888.451085-.294061.6408995-.047.0557-.162809.1629698-.22522.2086131-.215406.15753-.471926.2525524-.744751.2758755-.03135.0027-.9180974.00402-2.6842964.00402-.8780227-.00392-1.7611329.00476-2.6372773-.00574z" fill="url(#b)" stroke="#008080" stroke-width=".204934"/><path d="m-86.455 1293.891h-7.733l12.251 12.252 12.251-12.252h-7.733v-28.878h-4.518-4.518z" fill="url(#a)" stroke="#fff" stroke-linecap="round" stroke-linejoin="round" transform="matrix(.11410275 0 0 .11411494 16.926276 -139.88399)"/></g></svg>