<svg height="32" viewBox="0 0 8.4666665 8.4666669" width="32" xmlns="http://www.w3.org/2000/svg" xmlns:xlink="http://www.w3.org/1999/xlink"><linearGradient id="a" gradientTransform="matrix(.99989187 0 0 .99999865 -.000002 .000563)" gradientUnits="userSpaceOnUse" x1="226.19096" x2="246.80121" xlink:href="#b" y1="296.90625" y2="296.90625"/><linearGradient id="b"><stop offset="0" stop-color="#2929ff"/><stop offset=".2402378" stop-color="#8c8cef"/><stop offset="1" stop-color="#0000d1"/></linearGradient><linearGradient id="c" gradientUnits="userSpaceOnUse" x1="17.796146" x2="23.253441" xlink:href="#b" y1="13.880382" y2="16.803169"/><linearGradient id="d" gradientUnits="userSpaceOnUse" x1="16.421341" x2="20.422607" xlink:href="#b" y1="15.567744" y2="17.394485"/><linearGradient id="e" gradientTransform="matrix(.99989187 0 0 .99999865 -.000002 .000563)" gradientUnits="userSpaceOnUse" x1="226.19063" x2="239.42851" xlink:href="#b" y1="304.04102" y2="304.04102"/><linearGradient id="f" gradientTransform="matrix(.99989187 0 0 .99999865 -.000002 .000563)" gradientUnits="userSpaceOnUse" x1="226.19063" x2="239.42851" xlink:href="#b" y1="310.55859" y2="310.55859"/><g stroke="#fff" stroke-linecap="round" stroke-linejoin="round" transform="matrix(.26458333 0 0 .26458333 -59.412622 -76.2572)"><path d="m227.93433 295.16422a1.7421902 1.7423762 0 1 0 0 3.48438h17.07237a1.7421902 1.7423762 0 1 0 0-3.48438z" fill="url(#a)" stroke-width=".499973"/><g stroke-width=".243566" transform="matrix(2.052613 0 0 2.0528322 207.95691 271.97039)"><path d="m22.177628 12.527726a.70006998.70006998 0 0 0 -.689296.709855v3.030951h-4.209355a.70011821.70011821 0 1 0 0 1.400236h4.908931a.70006998.70006998 0 0 0 .700115-.700132v-3.731055a.70006998.70006998 0 0 0 -.710395-.709855z" fill="url(#c)"/><path d="m19.336583 13.819732c-.178536.0053-.348286.07869-.474499.205075l-2.448784 2.448772c-.273438.273402-.273438.716712 0 .990114l2.448784 2.448246c.440836.44098 1.194783.129036 1.195175-.494503v-4.898126c-.000106-.394637-.32621-.711194-.720676-.699578z" fill="url(#d)"/></g><g stroke-width=".499973"><path d="m227.93433 302.29898a1.7421902 1.7423762 0 1 0 0 3.48437h9.70013a1.7421902 1.7423762 0 1 0 0-3.48437z" fill="url(#e)"/><path d="m227.93433 308.81656a1.7421902 1.7423762 0 1 0 0 3.48436h9.70013a1.7421902 1.7423762 0 1 0 0-3.48436z" fill="url(#f)"/></g></g></svg>