<svg height="32" viewBox="0 0 8.4666665 8.4666669" width="32" xmlns="http://www.w3.org/2000/svg" xmlns:xlink="http://www.w3.org/1999/xlink"><linearGradient id="a" gradientUnits="userSpaceOnUse" x1="-310.47961" x2="-308.83096" y1="164.36816" y2="156.86816"><stop offset="0" stop-color="#ad0000"/><stop offset=".71714395" stop-color="#ff2a2a"/><stop offset="1" stop-color="#ff8282"/></linearGradient><g stroke-linecap="round" stroke-linejoin="round" transform="matrix(.4950664 0 0 .50481304 155.25234 -75.916441)"><path d="m-487.743 887.17v-12.091l5.116-5.116 2.558 2.558v18.37h14.649v-2.326l-6.348-1.506v-19.212l-7.534-7.534-14.021 14.021v16.557h9.766v-3.721z" stroke="#000" transform="matrix(.19748859 0 0 .19748859 -204.94959 -9.142552)"/><g stroke-width=".197489"><path d="m-309.03595 156.21293-4.19531 9.70312 3.45898.28321-.0566-.73828h-.96484l.45313-1.81446h1.30468 1.30274l.45312 1.81446h-.96289l-.0566.73828 3.45703-.28321zm.11914 4.07617a.8154304.8154304 0 0 1 .81641.81445.8154304.8154304 0 0 1 -.81641.81641.8154304.8154304 0 0 1 -.81445-.81641.8154304.8154304 0 0 1 .81445-.81445z" stroke="#000"/><path d="m-308.93555 155.8125-4.19531 9.70312 3.45898.28321-.0566-.73828h-.96484l.45313-1.81446h1.30468 1.30274l.45312 1.81446h-.96289l-.0566.73828 3.45703-.28321zm.11914 4.07617a.8154304.8154304 0 0 1 .81641.81445.8154304.8154304 0 0 1 -.81641.81641.8154304.8154304 0 0 1 -.81445-.81641.8154304.8154304 0 0 1 .81445-.81445z" fill="url(#a)" stroke="#000"/><path d="m-298.09346 151.0444-7.3418 7.34375v1.04883h2.12696v-1.30469l.90625-.9082h2.49414v1.47461l-.84961.85156h3.74219v-.85156h-1.07813zm-2.1875 3.75977a.61004227.61004227 0 0 1 .043 0 .61004227.61004227 0 0 1 .61133.60937.61004227.61004227 0 0 1 -.61133.60938.61004227.61004227 0 0 1 -.60938-.60938.61004227.61004227 0 0 1 .56641-.60937z" fill="#1a1a1a" stroke="#333"/><path d="m-298.29297 150.74414-7.3418 7.34375v1.04883h2.12696v-1.30469l.90625-.9082h2.49414v1.47461l-.84961.85156h3.74219v-.85156h-1.07813zm-2.1875 3.75977a.61004227.61004227 0 0 1 .043 0 .61004227.61004227 0 0 1 .61133.60937.61004227.61004227 0 0 1 -.61133.60938.61004227.61004227 0 0 1 -.60938-.60938.61004227.61004227 0 0 1 .56641-.60937z" fill="#000080" stroke="#f2f2f2"/><path d="m-302.57492 166.69872h1.92868" fill="none" stroke="#000"/></g><path d="m-471.768 887.059v-19.212l-7.534-7.534-14.021 14.021v16.557h9.766v-3.721h-4.186v-12.091l5.116-5.116 2.558 2.558v18.37h14.649v-2.326z" fill="#333" stroke="#fff" transform="matrix(.19748859 0 0 .19748859 -205.14926 -9.242098)"/></g></svg>