<svg height="32" viewBox="0 0 8.4666665 8.4666669" width="32" xmlns="http://www.w3.org/2000/svg"><path d="m2.9194105 8.2744238c-.3040751-.034396-.6008899-.246592-.9407208-.672306-.1611153-.201613-.3323087-.4452942-.4408619-.6267984-.3369522-.564089-.58558385-1.2800515-.66449055-1.9137286-.0368591-.2958015-.0420158-.5950453-.0148431-.8617453.0483976-.4751917.20455995-.8956146.46277215-1.2456583.3786373-.5135535.980657-.8257619 1.593932-.8265556.09952 0 .1747917.00794.2902321.032544.155686.032808.2866124.073554.5596439.1743605.1709552.062971.3504036.1198562.4341918.1373187.06581.013229.095377.015875.1387316.00794.08355-.015875.2739867-.076729.5433272-.1740958.1705028-.061383.254934-.089165.3546925-.1166813.3079406-.084402.5299075-.1005416.820756-.059267.5385171.076465.9554818.2963333 1.2624678.6662207.03372.040479.09056.1158848.09056.1198536 0 0-.02331.015875-.0518.035454-.20029.1285853-.36268.272254-.493392.4368248-.2054229.258498-.3202283.5585355-.3471391.9067271-.00669.086519-.0032.2992438.00619.3772959.038134.3172327.1425046.5865786.3218021.8299952.113086.1534584.28707.3209396.452779.4360334.08746.06059.230674.1404937.307096.1711854.01103.00529.02008.010583.02008.013229.000061.021167-.122086.335227-.177583.4572-.123101.2704017-.257912.503235-.438088.756441-.251692.353748-.4271482.554038-.6126291.699559-.2110475.165629-.4610999.249237-.6925654.23151-.1665843-.01323-.339971-.05768-.5630571-.145521-.1258888-.04974-.1884363-.0717-.267335-.09472-.2883906-.08387-.5253064-.09499-.8086514-.03784-.1233011.02381-.2522775.06509-.4146073.129117-.3222916.127264-.5542729.176741-.7314855.156633zm1.32883-6.174838c-.015187-.010583-.01733-.2129896-.00341-.3225271.047075-.3706813.2320872-.74295.5138605-1.03398896.141142-.1457854.3020219-.2624667.494702-.3593042.2240227-.1121833.4238387-.1727729.6389556-.1931458.026651-.00265.028115 0 .030893.00794.00579.018521.00783.2172229.00283.2772833-.017647.2135183-.06868.3971365-.165168.59425096-.0861568.1762105-.1899793.3264938-.335635.4860376-.2887081.3161771-.6155876.5011208-.9564767.5413375-.057031.00794-.2114709.00794-.2205699.00265z" stroke="#fff" stroke-width=".358833"/></svg>