<svg height="32" viewBox="0 0 8.4666665 8.4666669" width="32" xmlns="http://www.w3.org/2000/svg" xmlns:xlink="http://www.w3.org/1999/xlink"><radialGradient id="a" cx="223.78369" cy="-29.007458" gradientTransform="matrix(1 0 0 1.0082356 0 .238893)" gradientUnits="userSpaceOnUse" r="7.047603"><stop offset="0" stop-color="#008080"/><stop offset=".9170109" stop-color="#008080"/><stop offset="1" stop-color="#00474d"/></radialGradient><linearGradient id="b" gradientTransform="matrix(.99993573 0 0 1.0081708 207.12622 -44.219435)" gradientUnits="userSpaceOnUse" x1="12.291612" x2="20.920582" y1="11.785198" y2="19.336046"><stop offset="0" stop-color="#dbf0fa"/><stop offset="1" stop-color="#f8fcfe" stop-opacity=".712766"/></linearGradient><linearGradient id="c" gradientTransform="matrix(.99993573 0 0 1.0081708 207.12622 -44.219435)" gradientUnits="userSpaceOnUse" x1="8.97535" x2="6.581181" y1="24.508139" y2="21.695408"><stop offset="0" stop-color="#ffbe00"/><stop offset="1" stop-color="#ffcc9a"/></linearGradient><linearGradient id="d" gradientUnits="userSpaceOnUse" x1="74.107258" x2="61.134701" y1="-51.730511" y2="-63.044216"><stop offset="0" stop-color="#f9f9f9"/><stop offset="1" stop-color="#f9f9f9" stop-opacity="0"/></linearGradient><g transform="matrix(.26458333 0 0 .26458333 -42.322511 -8.466873)"><g transform="matrix(.99989187 0 0 .99999865 159.96083 32.000803)"><g transform="translate(-47.464937 71.559177)"><g transform="matrix(1.6127511 0 0 1.6272486 -293.28326 -12.794183)"><ellipse cx="224.07808" cy="-28.820549" fill="#4d4d4d" rx="7.047603" ry="7.105644"/><path d="m218.5279-24.79441c.49341.716074 1.06846 1.294511 1.77958 1.790186-2.24934 2.185331-4.49846 4.370887-6.74781 6.556218-.5813-.608347-1.16281-1.216471-1.74411-1.824594 2.23752-2.174088 4.47482-4.347949 6.71234-6.52181z" fill="#808080"/><ellipse cx="223.78369" cy="-29.007458" fill="url(#a)" rx="7.047603" ry="7.105644"/><ellipse cx="223.78369" cy="-29.007458" fill="url(#b)" rx="5.932968" ry="5.98183" stroke="#ececec" stroke-linecap="round" stroke-linejoin="round" stroke-width=".223977"/><path d="m217.99616-24.953004c.49341.716074 1.06846 1.294511 1.77958 1.790185-2.24935 2.185332-4.49847 4.370888-6.74781 6.556219-.5813-.608348-1.16282-1.216471-1.74412-1.824595 2.23753-2.174087 4.47483-4.347948 6.71235-6.521809z" fill="url(#c)"/></g><path d="m71.672499-63.751082c-2.57037.271876-4.877126 1.38434-6.611009 3.049204-1.462075 1.403875-2.510283 3.2012-2.975046 5.209055.956792 2.601845 3.534 4.469177 6.571239 4.469177 3.851574 0 6.972709-2.998031 6.972709-6.69629 0-2.659714-1.6182-4.9505-3.957893-6.031146z" fill="url(#d)"/></g><path d="m19.677001 18.839785c-.929084-.0592-1.878411-.317647-2.732934-.744024-.655326-.326987-1.210057-.713766-1.768676-1.233193l-.226374-.210492-.0045.651664c-.0044.637745-.0051.653412-.03817.733569-.06935.168511-.194535.293377-.360901.359986-.06431.02574-.112303.03279-.223378.03279-.111077 0-.159073-.007-.223379-.03279-.166359-.0666-.291527-.191455-.360912-.359986l-.03372-.0819v-1.600879-1.600876l.03372-.0819c.06914-.16794.192973-.291774.360913-.360915l.0819-.03372h1.600874 1.600876l.0819.03372c.168533.06938.293382.194556.359985.360915.02575.06431.0328.112302.0328.223377s-.007.159071-.0328.223377c-.0666.16636-.191452.291531-.359985.360916-.08116.03341-.08996.03379-.96518.04117l-.883272.0075.189287.198284c1.188629 1.245146 2.812877 1.92113 4.503511 1.874285 1.071844-.0297 2.036116-.306986 2.941145-.845752 1.801453-1.07241 2.937998-3.031492 2.947143-5.080049.0013-.286163.0042-.323863.02524-.323898.01357-.00003.03598-.02711.05212-.06299.04105-.09124.183492-.236769.279088-.285136.241308-.122091.528027-.07236.715414.124102.04399.04611.09511.113697.113618.150189.01851.0365.04112.07116.05027.07703.01145.0074.01618.111244.01518.335068-.0063 1.430288-.482366 2.886139-1.337988 4.092031-.42177.594429-.978981 1.167187-1.564489 1.608137-1.393692 1.0496-3.114265 1.562218-4.868372 1.450457zm-6.337758-7.092207c-.164147-.04469-.327715-.176007-.402219-.322923-.01852-.0365-.03848-.0697-.04439-.07379-.02415-.01674-.03071-.260062-.0092-.342513.01172-.04505.03219-.177087.04546-.293422.257386-2.255911 1.55944-4.2602691 3.536288-5.4437044.216723-.1297401.770763-.4025536 1.006594-.4956541.606828-.2395611 1.27915-.4026466 1.973172-.4786345.326529-.035751 1.107328-.03525 1.437066.0009289 1.235918.1355826 2.316052.5254958 3.324836 1.2002183.355466.2377519.641437.4678155 1.015011.8165707l.148577.1387084.0045-.645032c.0044-.6307739.0052-.6468428.03818-.7269375.06933-.1684974.194522-.2933751.360893-.3599861.116065-.046469.330691-.046469.446757 0 .16636.066606.291527.1914536.360914.3599861l.03372.081905v1.6008755 1.6008758l-.03372.081904c-.06914.1679397-.192975.2917725-.360914.3609144l-.0819.03372h-1.600948-1.600877l-.0819-.03372c-.168532-.069382-.29338-.1945554-.359986-.3609144-.04647-.1160645-.04647-.330692 0-.4467556.0666-.1663599.191454-.2915287.359986-.3609144.08117-.033422.08985-.033787.967971-.041168l.88605-.0074661-.290391-.2911829c-.323446-.3243261-.579434-.5366962-.923281-.7659564-.834995-.5567327-1.658362-.8593876-2.680687-.9853737-.301463-.037151-1.003-.037097-1.317781.0001008-1.241569.1467177-2.349901.6299553-3.276211 1.4284425-.231679.1997113-.583528.5642183-.772346.8001339-.167732.2095728-.41531.5724734-.537997.7886004-.337487.5945112-.583178 1.2788311-.697978 1.9440574-.04316.250107-.08398.615454-.08398.751616 0 .07738-.0038.08977-.02753.08977-.01796 0-.03736.02187-.05585.06295-.01558.03462-.0664.103674-.112928.153448-.157736.168715-.383459.237356-.592972.18032z" fill="#f00" stroke-width=".014892"/></g><path d="m176.65512 56.632171v-7.35999h2.41985c2.46514 0 2.64873 0 3.18445.107 1.46137.274999 2.56479 1.193998 2.87977 2.397996.16081.614.13474 1.403998-.0663 2.019998-.21972.672999-.69577 1.330998-1.27097 1.754997-.20782.153-.64373.385-.93479.497-.10564.04-.19225.08-.19225.09s.11698.04.25983.06c2.01052.333 3.20719 1.917998 3.00493 3.976995-.0535.544999-.15265.918999-.3607 1.361998-.53488 1.139999-1.70501 2.013997-3.09779 2.314997-.59189.127-.77112.134-3.37951.134h-2.44653zm4.98081 5.650992c1.26311-.207 2.04182-.870999 2.27371-1.937997.0633-.292.0634-.928999.00007-1.219999-.10438-.481999-.29225-.822998-.62398-1.134998-.34904-.327-.80698-.540999-1.43294-.669999-.47936-.1-.8306-.118-2.1016-.118h-1.18672v2.574997 2.574996l1.39887-.01c1.14498 0 1.44855-.02 1.67259-.06zm-.43283-6.824991c1.03108-.234999 1.67673-.789999 1.93739-1.665997.0952-.319.12132-.944999.0536-1.285999-.0521-.263999-.20157-.591999-.35785-.785999-.21952-.272999-.63221-.521999-1.06415-.641999-.45333-.125999-.65942-.141999-1.96804-.154999l-1.23975-.01v2.310996 2.311997l1.19999-.01c1.09191 0 1.22144-.02 1.43863-.06zm-9.42745 5.124993v-.540999l-.0995-.02c-.82229-.13-1.71119-.452999-2.36441-.858999-1.32547-.823999-2.31156-2.178997-2.6945-3.702995-.13615-.541999-.18147-.910998-.18217-1.484998-.0009-.734999.0881-1.289998.31727-1.975997.11837-.354999.39832-.981999.43834-.981999.019 0 1.37582.734999 1.40018.758999.006 0-.0437.127-.11025.269-.14958.32-.26583.665999-.34323 1.020999-.0515.236999-.0593.350999-.0596.881998-.00071.682.0308.894999.21314 1.445998.43167 1.302999 1.46401 2.355997 2.7555 2.809997.22549.08.62368.185999.69613.185999.0256 0 .0332-.138999.0332-.611999 0-.335999.008-.607999.0217-.602999.0126 0 .65079.447999 1.41953.985999l1.39771.976998-.71016.496c-.39059.272999-1.02939.718999-1.41955.990998l-.70936.495zm-11.64081-8.267988c.0848-.222 1.34554-3.533996 2.80151-7.35899l2.64718-6.954991h1.02258 1.02256l2.77499 7.28699c1.52625 4.007995 2.78727 7.31999 2.80225 7.35999l.0271.07h-1.0513-1.05135l-.74633-2.001997-.74635-2.002997h-3.07193-3.07191l-.70546 2.008997-.70543 2.008997h-1.05128-1.05127zm8.90249-5.303993c-.20137-.530999-2.22046-6.113992-2.26117-6.252992-.032-.109-.0869-.350999-.12159-.536999-.0364-.194-.076-.338-.0931-.338-.0164 0-.0381.06-.0483.139-.0536.406-.20879.871999-1.26865 3.812995-.61249 1.698998-1.11935 3.115996-1.12639 3.148996l-.0126.06h2.47218c1.96678 0 2.4696 0 2.4596-.03z" fill="#fc3000" stroke="#ececec" stroke-width=".027194"/></g></svg>