<svg height="32" viewBox="0 0 8.4666665 8.4666669" width="32" xmlns="http://www.w3.org/2000/svg" xmlns:xlink="http://www.w3.org/1999/xlink"><linearGradient id="a" gradientUnits="userSpaceOnUse" x1="14.495081" x2="14.322939" y1="6.720255" y2="2.124061"><stop offset="0" stop-color="#82ade0"/><stop offset="1" stop-color="#f1effb"/></linearGradient><linearGradient id="b" gradientUnits="userSpaceOnUse" x1="-18.47467089498" x2="-21.37818588576" y1="-8.9475326651" y2="-11.72924724754"><stop offset="0" stop-color="#0ff"/><stop offset="1" stop-color="#3caad6"/></linearGradient><linearGradient id="c" gradientUnits="userSpaceOnUse" x1="-18.64117468075" x2="-21.62836003257" y1="3.72928295227" y2=".8674079215"><stop offset="0" stop-color="#ff0"/><stop offset="1" stop-color="#d49c00"/></linearGradient><linearGradient id="d" gradientUnits="userSpaceOnUse" x1="-28.45228068075" x2="-31.43946603257" y1="-2.54628904773" y2="-5.4081640785"><stop offset="0" stop-color="#ff9139"/><stop offset="1" stop-color="#f60"/></linearGradient><g stroke-linecap="round" stroke-linejoin="round" transform="matrix(.26455472 0 0 .26458298 .000458 .034581)"><g stroke="#000" stroke-width=".387115"><path d="m3.5316505 27.337497h24.9366895c1.843589 0 3.33871-1.487611 3.33871-3.322407 0-5.882857 0-11.765328 0-17.6481856 0-1.8347963-1.494735-3.322407-3.33871-3.322407-8.312227 0-16.624453 0-24.9366895 0-1.8435791 0-3.33870043 1.4876107-3.33870043 3.322407v17.6481856c.00038641 1.834796 1.49512133 3.322407 3.33870043 3.322407z" fill="#008080"/><path d="m.19333648 8.274691h31.61371352c0-.6356714 0-1.271729 0-1.9077866 0-1.8347963-1.494735-3.322407-3.33871-3.322407-8.312227 0-16.624453 0-24.9366895 0-1.8435791 0-3.33870043 1.4876107-3.33870043 3.322407.00038641.6360576.00038641 1.2721152.00038641 1.9077866z" fill="url(#a)"/><path d="m1.426158 8.611843h29.293224v17.656296h-29.293224z" fill="#fff"/></g><path d="m-22.456495-13.999748h6.323956v9.937475h-6.323956z" fill="url(#b)" stroke="#008080" stroke-width=".770405" transform="matrix(-.70710678 -.70710678 .70710678 -.70710678 0 0)"/><path d="m-22.737745-1.468524h6.506193v10.223843h-6.506193z" fill="url(#c)" stroke="#ffc300" stroke-width=".792606" transform="matrix(-.70710678 -.70710678 .70710678 -.70710678 0 0)"/><path d="m-32.548851-7.744095h6.506193v10.223843h-6.506193z" fill="url(#d)" stroke="#d45500" stroke-width=".792606" transform="matrix(-.70710678 -.70710678 .70710678 -.70710678 0 0)"/></g></svg>