<svg height="32" viewBox="0 0 8.4666665 8.4666669" width="32" xmlns="http://www.w3.org/2000/svg" xmlns:xlink="http://www.w3.org/1999/xlink"><linearGradient id="a" gradientUnits="userSpaceOnUse" x1="26.285984" x2="7.28598" y1="28.213802" y2="4.713802"><stop offset="0" stop-color="#81b1dc"/><stop offset="1" stop-color="#fafcff"/></linearGradient><linearGradient id="b" gradientUnits="userSpaceOnUse" x1="22.021669" x2="9.873519" y1="25.332968" y2="5.180424"><stop offset="0" stop-color="#1950bd"/><stop offset=".78999853" stop-color="#3e71d4"/><stop offset="1" stop-color="#bbebfc"/></linearGradient><g stroke-linecap="round" stroke-linejoin="round" transform="matrix(.26455472 0 0 .26458298 -.009061 .009583)"><ellipse cx="16.035982" cy="15.963802" fill="url(#a)" rx="15.816149" ry="15.816359" stroke="#fff" stroke-width=".3677"/><ellipse cx="16.035982" cy="15.963802" fill="url(#b)" rx="12.568643" ry="12.56881" stroke="#000" stroke-width=".368"/><g fill="#fff" stroke="#fff" stroke-width=".444223"><path d="m16.170506 21.709022c-.608585 0-1.217153 0-1.825303 0 0-.380257 0-.760515 0-1.140772.02125-.477544.0746-.920875.160373-1.33001.08529-.408685.207441-.786291.365147-1.131886.158141-.346061.407346-.724535.747184-1.135454.339821-.411352.771159-.852016 1.294446-1.322891 1.635183-1.464175 2.452543-2.777311 2.452543-3.939409 0-1.031482-.378469-1.9043892-1.135423-2.6187036-.756954-.7143147-1.675164-1.0714798-2.754167-1.0714798-2.065187 0-3.430709 1.2931454-4.096147 3.8789864-.608584-.09647-1.217168-.192788-1.8253027-.288756.8511207-3.458298 2.8749937-5.1876565 6.0715877-5.1876565 1.121667 0 2.098066.2238835 2.928745.6721001.830697.4477823 1.477929 1.0617093 1.941245 1.8413314.463331.7796057.695214 1.69693.695214 2.75242 0 1.606762-.903105 3.282383-2.709751 5.026862-.568154.551288-1.035036 1.055025-1.401067 1.511695-.366032.456669-.609034.963524-.728962 1.522364-.12034.55884-.180362 1.212732-.180362 1.961259z"/><path d="m14.116851 23.99102h2.281959v2.509877h-2.281959z"/></g></g></svg>