<svg height="32" viewBox="0 0 8.4666665 8.4666669" width="32" xmlns="http://www.w3.org/2000/svg" xmlns:xlink="http://www.w3.org/1999/xlink"><linearGradient id="a" gradientUnits="userSpaceOnUse" x1="-455.944" x2="-404.16699" y1="850.67401" y2="850.67401"><stop offset="0" stop-color="#649adb"/><stop offset=".91283631" stop-color="#8ab3e4"/><stop offset="1" stop-color="#fff"/></linearGradient><linearGradient id="b" gradientUnits="userSpaceOnUse" x1="-404.66699" x2="-433.54999" y1="877.68402" y2="835.57007"><stop offset="0" stop-color="#96cef1"/><stop offset="1" stop-color="#fff"/></linearGradient><linearGradient id="c"><stop offset="0" stop-color="#ed8585"/><stop offset="1" stop-color="#de7979"/></linearGradient><linearGradient id="d"><stop offset="0" stop-color="#f9f9f9"/><stop offset="1" stop-color="#f2f2f2"/></linearGradient><linearGradient id="e" gradientUnits="userSpaceOnUse" x1="107.54081" x2="126.10688" y1="127.76182" y2="139.2025"><stop offset="0" stop-color="#c99052"/><stop offset="1" stop-color="#94632e"/></linearGradient><linearGradient id="f" gradientUnits="userSpaceOnUse" x1="181.99538" x2="211.41646" xlink:href="#d" y1="18.469927" y2="36.703697"/><linearGradient id="g" gradientUnits="userSpaceOnUse" x1="192.1006" x2="218.43118" xlink:href="#c" y1="8.150581" y2="25.67844"/><path d="m-455.444 889.027 50.777-11.343v-65.363l-50.777 11.344z" fill="#008080" transform="matrix(.10760345004 0 0 .10896630554 49.70287080127 -88.48800234186)"/><path d="m-455.444 889.027 50.777-11.343v-65.363l-50.777 11.344z" fill="url(#a)" stroke="#008080" stroke-linecap="round" stroke-linejoin="round" transform="matrix(.10760345004 0 0 .10896630554 50.04695613026 -88.46146992553)"/><path d="m-451.122 828.004v57.782l44.888-10.028v-57.782z" fill="url(#b)" transform="matrix(.10403358327 0 0 .10506447666 48.43651148389 -85.26986894907)"/><path d="m-414.022 832.729-2.188-1.312-12.252 26.253-10.103-6.158-4.773 2.657 16.627 14.439z" fill="#f60" transform="matrix(.10760345004 0 0 .10896630554 50.04695613026 -88.46146992553)"/><g transform="matrix(.02366059288 .00956750097 -.00956647961 .02366311901 2.72068365379 2.00573538908)"><path d="m191.59911 3.7459318-85.67687 112.6629382-.39425 33.36161 30.55752-12.57167 86.43968-110.417464s.64532-2.81747-.0798-4.543317c-1.40459-3.343616-4.77661-6.994484-7.4127-9.48517-2.90505-2.744811-6.17209-5.1823439-9.72418-7.0142443-2.64345-1.3632918-5.50606-2.4378902-8.44887-2.8694633-1.17966-.1730007-3.57448.1293548-3.57448.1293548z"/><g stroke="#000"><path d="m107.7683 116.66991-.31449 26.78469 3.19724 2.44929 24.73031-10.52253-4.13136-7.94492-7.62712-.63559-1.58898-6.35594-6.37521.26327-1.25191-4.71242z" fill="url(#e)" stroke-width=".377953"/><path d="m114.40678 115.99576 70.04689-91.133823-5.77252-2.218931-70.91285 94.026904z" fill="#ffe00d" stroke-width=".578"/><path d="m122.0339 120.44491 70.35038-90.920025-7.93061-4.662948-70.04689 91.133823 1.25191 4.71242z" fill="#ffd400" stroke-width=".578"/><path d="m131.25 127.43644 70.99453-89.345079-9.86025-8.566476-70.35038 90.920025 1.58898 6.35594z" fill="#ffce00" stroke-width=".578"/><path d="m135.38136 135.38136 71.85911-91.611924-4.99594-5.678075-70.99453 89.345079z" fill="#ffd100" stroke-width=".578"/><path d="m178.68115 22.643006 5.77252 2.218931 7.93061 4.662948 9.86025 8.566476 4.99594 5.678075 9.49825-12.307202-4.38196-5.617903-9.88752-7.977423-8.31449-4.943755-6.1797-1.797729z" fill="url(#f)" stroke-width=".377953"/></g><path d="m184.26106 15.362825-2.26568 3.107102 5.54746 2.304901 8.02344 4.46875 9.37891 7.851563 5.49165 6.281315 2.49202-3.217624-5.1243-5.91916-9.94727-8.328125-8.63281-4.808594z"/><path d="m187.97505 11.125424 6.1797 1.797729 8.31449 4.943755 9.88752 7.977423 4.38196 5.617903 4.41721-5.95167s-.16593-1.388763-.59704-2.587543c-.72254-2.009158-2.43314-3.536042-3.93253-5.056113-2.86295-2.902438-6.20882-5.54326-9.55043-7.8786965-2.19015-1.5306872-4.38059-2.9075763-6.85385-3.918901-1.81627-.7426812-3.2759-1.0205668-4.97184-1.1235808-.74211-.045076-2.21907.2247162-2.21907.2247162z" fill="url(#g)" stroke="#000" stroke-width=".377953"/></g></svg>