<svg height="32" viewBox="0 0 8.4666665 8.4666669" width="32" xmlns="http://www.w3.org/2000/svg" xmlns:xlink="http://www.w3.org/1999/xlink"><radialGradient id="a" cx="9.698131" cy="11.475898" gradientTransform="matrix(1.0000001 0 0 1.0017763 -.000001 -.017614)" gradientUnits="userSpaceOnUse" r="3.471793"><stop offset="0" stop-color="#280b0b"/><stop offset="1" stop-color="#a02c2c"/></radialGradient><radialGradient id="b" cx="13.110115" cy="21.738586" gradientTransform="matrix(.99985883 -.0168028 .02330043 1.3865041 -.450103 -7.230831)" gradientUnits="userSpaceOnUse" r="7.586783"><stop offset="0" stop-color="#d10000"/><stop offset=".82067841" stop-color="#f00"/><stop offset="1" stop-color="#ff1e1e"/></radialGradient><linearGradient id="c" gradientUnits="userSpaceOnUse" x1="16.010458" x2="18.261929" y1="13.323837" y2="9.823837"><stop offset="0" stop-color="#ececec" stop-opacity=".195"/><stop offset="1" stop-color="#fff"/></linearGradient><filter id="d" color-interpolation-filters="sRGB" height="1.237445" width="1.175158" x="-.087579" y="-.118722"><feGaussianBlur stdDeviation=".15724756"/></filter><g transform="matrix(.25616531416 0 0 .25637311036 .13355838973 .13222790468)"><path d="m9.6509511-.315753a.49956052.50053999 0 0 0 -.4993447.44785345l-.4012447 3.35223005a.49956052.50053999 0 0 0 .037617.2594001l1.3379743 3.0854401a.4997955.50077543 0 1 0 .916813-.3990724l-1.2848667-2.9612891.3857537-3.21772639a.49956052.50053999 0 0 0 -.4927019-.56683581zm7.9592469 1.8335278a.49956052.50053999 0 0 0 -.501557.5897469l.776673 4.6684409-1.192669 2.429185a.49974402.50072385 0 1 0 .8969.4419393l1.26274-2.5732957a.49956052.50053999 0 0 0 .04499-.3030011l-.803223-4.8280729a.49956052.50053999 0 0 0 -.483854-.4249424zm-12.1973948 4.797772-5.22650501.0938578a.49956052.50053999 0 1 0 .0177001 1.0006437l5.09448131-.0908988 2.5446576 1.386416a.49956052.50053999 0 1 0 .4772149-.8794441l-2.6597213-1.4499728a.49956052.50053999 0 0 0 -.2478276-.0606018zm17.9343098 1.1100228a.49956052.50053999 0 0 0 -.340765.1433691l-2.833052 2.7876153a.49956052.50053999 0 1 0 .699963.713902l2.625058-2.5829032 5.742073 1.6620712a.49956052.50053999 0 1 0 .277333-.9614734l-6.022359-1.7433668a.49956052.50053999 0 0 0 -.148251-.0192142zm-21.4407763 4.3425284a.49956052.50053999 0 0 0 -.2065211.951867l1.5540837.778196 1.2538924 1.569697a.49956052.50053999 0 0 0 .3105199.181801l5.1225099.827712a.49956052.50053999 0 1 0 .1585795-.988081l-4.9322124-.797411-1.2015209-1.504661a.49956052.50053999 0 0 0 -.166695-.135241l-1.6521838-.827712a.49956052.50053999 0 0 0 -.2404522-.056167zm22.2808783 3.525162a.49956052.50053999 0 0 0 -.09146.993254l4.488185.872796 2.829365 3.607934a.49956052.50053999 0 1 0 .785526-.617827l-2.94443-3.755741a.49956052.50053999 0 0 0 -.297982-.181801l-4.67037-.908266a.49956052.50053999 0 0 0 -.09884-.01035zm-13.344331 3.761655a.49956052.50053999 0 0 0 -.08482.0089l-4.6261141.827711a.49956052.50053999 0 0 0 -.4093602.445633l-.6608735 6.953519a.49956052.50053999 0 1 0 .9942634.09459l.6247294-6.575136 4.252899-.760458a.49956052.50053999 0 0 0 -.09072-.994734zm3.947537 3.474172a.49956052.50053999 0 0 0 -.303885.124158l-3.469586 2.9805a.49956052.50053999 0 0 0 -.174807.379862v5.794719a.499713.50069277 0 1 0 .999426 0v-5.564144l3.295516-2.830479a.49956052.50053999 0 0 0 -.346664-.884616z" stroke="#fff" stroke-linecap="round" stroke-linejoin="round" stroke-width=".4"/><path d="m9.6509511-.315753a.49956052.50053999 0 0 0 -.4993447.44785345l-.4012447 3.35223005a.49956052.50053999 0 0 0 .037617.2594001l1.3379743 3.0854401a.4997955.50077543 0 1 0 .916813-.3990724l-1.2848667-2.9612891.3857537-3.21772639a.49956052.50053999 0 0 0 -.4927019-.56683581zm7.9592469 1.8335278a.49956052.50053999 0 0 0 -.501557.5897469l.776673 4.6684409-1.192669 2.429185a.49974402.50072385 0 1 0 .8969.4419393l1.26274-2.5732957a.49956052.50053999 0 0 0 .04499-.3030011l-.803223-4.8280729a.49956052.50053999 0 0 0 -.483854-.4249424zm-12.1973948 4.797772-5.22650501.0938578a.49956052.50053999 0 1 0 .0177001 1.0006437l5.09448131-.0908988 2.5446576 1.386416a.49956052.50053999 0 1 0 .4772149-.8794441l-2.6597213-1.4499728a.49956052.50053999 0 0 0 -.2478276-.0606018zm17.9343098 1.1100228a.49956052.50053999 0 0 0 -.340765.1433691l-2.833052 2.7876153a.49956052.50053999 0 1 0 .699963.713902l2.625058-2.5829032 5.742073 1.6620712a.49956052.50053999 0 1 0 .277333-.9614734l-6.022359-1.7433668a.49956052.50053999 0 0 0 -.148251-.0192142zm-21.4407763 4.3425284a.49956052.50053999 0 0 0 -.2065211.951867l1.5540837.778196 1.2538924 1.569697a.49956052.50053999 0 0 0 .3105199.181801l5.1225099.827712a.49956052.50053999 0 1 0 .1585795-.988081l-4.9322124-.797411-1.2015209-1.504661a.49956052.50053999 0 0 0 -.166695-.135241l-1.6521838-.827712a.49956052.50053999 0 0 0 -.2404522-.056167zm22.2808783 3.525162a.49956052.50053999 0 0 0 -.09146.993254l4.488185.872796 2.829365 3.607934a.49956052.50053999 0 1 0 .785526-.617827l-2.94443-3.755741a.49956052.50053999 0 0 0 -.297982-.181801l-4.67037-.908266a.49956052.50053999 0 0 0 -.09884-.01035zm-13.344331 3.761655a.49956052.50053999 0 0 0 -.08482.0089l-4.6261141.827711a.49956052.50053999 0 0 0 -.4093602.445633l-.6608735 6.953519a.49956052.50053999 0 1 0 .9942634.09459l.6247294-6.575136 4.252899-.760458a.49956052.50053999 0 0 0 -.09072-.994734zm3.947537 3.474172a.49956052.50053999 0 0 0 -.303885.124158l-3.469586 2.9805a.49956052.50053999 0 0 0 -.174807.379862v5.794719a.499713.50069277 0 1 0 .999426 0v-5.564144l3.295516-2.830479a.49956052.50053999 0 0 0 -.346664-.884616z" stroke="#fff" stroke-linecap="round" stroke-linejoin="round" stroke-width=".4"/><path d="m22.383561 22.113103c-2.875971 2.881607-7.410592 2.023838-10.057884-.628277-2.6472927-2.65248-3.5030141-7.195993-.627043-10.0776 2.875963-2.8812429 7.410583-2.0238388 10.057876.628642 2.646567 2.652115 3.50265 7.195991.627051 10.077235z" fill="#800000"/><path d="m13.353619 12.35787c-1.317975 1.320555-3.4021767.990227-4.6321631-.242165-1.2299768-1.232013-1.5596561-3.3203055-.2413052-4.6412386 1.3179651-1.3205547 3.4021763-.9902269 4.6321533.2421647 1.229977 1.2320133 1.559656 3.3203059.241315 4.6412389z" fill="url(#a)" stroke="#000" stroke-linecap="round" stroke-linejoin="round" stroke-width=".378012"/><g fill="url(#b)" stroke="#000" stroke-linecap="round" stroke-linejoin="round" stroke-width=".378012"><path d="m11.663673 11.050937c7.392714 6.726883 8.647993 8.471983 9.414229 10.139514.302873.659143.529078 1.306177.432778 1.97667-3.316445 2.091698-7.561526.709467-9.899125-2.098509-2.3681953-2.844679-2.8802734-7.290294.05207-10.017675z"/><path d="m11.663673 11.050937c2.80588-2.6097035 7.024136-1.9849941 9.731827.315571 2.682774 2.279376 4.040013 6.3205 2.19863 9.604482-.06837-.01514-.138593-.03443-.212233-.05751-1.013212-.320869-2.578162-1.389799-11.718224-9.862539z"/></g><ellipse cx="17.235773" cy="12.882689" rx=".826281" ry=".827901"/><ellipse cx="10.775477" cy="7.489608" fill="#faa" rx=".728849" ry=".730278"/><ellipse cx="8.675407" cy="9.593783" fill="#faa" rx=".693728" ry=".695089"/><ellipse cx="12.113454" cy="16.193905" rx=".700904" ry=".702278"/><ellipse cx="15.583577" cy="18.015055" rx="1.168425" ry="1.170715"/><path d="m18.176065 19.975565c-1.608578 1.468775-4.066561 1.219278-5.734349-.654212-1.667789-1.873492-1.913823-4.661521-.30525-6.130301 1.608577-1.468774 2.060637 1.13114 3.728425 3.004632 1.667789 1.873491 3.919749 2.311106 2.311174 3.779881z" fill="#ececec" fill-opacity=".195" opacity=".843"/><ellipse cx="16.574907" cy="21.326294" rx="1.290403" ry="1.292933"/><ellipse cx="21.201384" cy="15.366009" fill="#1a1a1a" rx="1.108379" ry="1.110552"/><path d="m19.644938 12.677235c-.429624.647-.735976-.151098-2.029976-1.010346-1.294-.859249-2.65656-.768007-2.226935-1.415007.429625-.6470001 2.0397-.8850243 3.3337-.02578 1.293999.859249 1.352835 1.804129.923211 2.451129z" fill="url(#c)" filter="url(#d)" opacity=".731" transform="matrix(2.1848408 0 0 2.1848408 -20.38216 -11.229445)"/></g></svg>