<svg height="32" viewBox="0 0 8.4666665 8.4666669" width="32" xmlns="http://www.w3.org/2000/svg" xmlns:xlink="http://www.w3.org/1999/xlink"><linearGradient id="a" gradientUnits="userSpaceOnUse" x1="14.495081" x2="14.322939" y1="6.720255" y2="2.124061"><stop offset="0" stop-color="#82ade0"/><stop offset="1" stop-color="#f1effb"/></linearGradient><linearGradient id="b" gradientTransform="matrix(1.0262162 0 0 1.0237733 388.83057 401.13125)" gradientUnits="userSpaceOnUse" x1="-284.59961" x2="-270.77734" y1="-27.138622" y2="-29.550781"><stop offset="0" stop-color="#008080"/><stop offset="1" stop-color="#00d6d6"/></linearGradient><linearGradient id="c" gradientUnits="userSpaceOnUse" x1="186.52" x2="185.75835" y1="455.366" y2="411.13419"><stop offset="0" stop-color="#007500"/><stop offset=".34293374" stop-color="#00d200"/><stop offset=".89766061" stop-color="#00d200"/><stop offset="1" stop-color="#007500"/></linearGradient><g stroke="#000" stroke-linecap="round" stroke-linejoin="round" transform="matrix(.26458333 0 0 .26458333 -25.450731 -93.265622)"><g stroke-width=".387115" transform="matrix(.99989187 0 0 .99999865 95.96773445302 353.30901629336)"><path d="m3.5316505 27.337497h24.9366895c1.843589 0 3.33871-1.487611 3.33871-3.322407 0-5.882857 0-11.765328 0-17.6481856 0-1.8347963-1.494735-3.322407-3.33871-3.322407-8.312227 0-16.624453 0-24.9366895 0-1.8435791 0-3.33870043 1.4876107-3.33870043 3.322407v17.6481856c.00038641 1.834796 1.49512133 3.322407 3.33870043 3.322407z" fill="#008080"/><path d="m.19333648 8.274691h31.61371352c0-.6356714 0-1.271729 0-1.9077866 0-1.8347963-1.494735-3.322407-3.33871-3.322407-8.312227 0-16.624453 0-24.9366895 0-1.8435791 0-3.33870043 1.4876107-3.33870043 3.322407.00038641.6360576.00038641 1.2721152.00038641 1.9077866z" fill="url(#a)"/><path d="m1.426158 8.611843h29.293224v17.656296h-29.293224z" fill="#fff"/></g><path d="m105.79734 366.9783v2.74699h-4.46567a1.0263188 1.0238757 0 0 0 -.12234 0c-2.524549.3-4.439572 2.453-4.439572 4.989 0 2.53699 1.914843 4.68999 4.439572 4.98899a1.0263188 1.0238757 0 0 0 .12234 0h5.94285a1.0263188 1.0238757 0 1 0 0-2.047h-5.8386c-1.498994-.188-2.613664-1.438-2.613664-2.94799 0-1.509 1.11449-2.759 2.613664-2.947h4.36142v3.001h1.2487l3.90844-3.897-3.90844-3.89899z" fill="url(#b)" stroke-width=".512497"/><path d="m191.636 422.559 21.751 21.752-21.751 21.751h-5.116v-10.696h-19.875v-11.055-11.055h19.875v-10.697z" fill="url(#c)" transform="matrix(.32819786 0 0 .32823291 58.219107 227.50549)"/></g></svg>