<svg height="32" viewBox="0 0 8.4666665 8.4666669" width="32" xmlns="http://www.w3.org/2000/svg" xmlns:xlink="http://www.w3.org/1999/xlink"><filter id="a" color-interpolation-filters="sRGB" height="1.393657" width="1.0578" x="-.0289" y="-.196828"><feGaussianBlur stdDeviation=".10150696"/></filter><linearGradient id="b" gradientUnits="userSpaceOnUse" x1="-85.541023" x2="-58.046043" y1="1023.4482" y2="1049.6122"><stop offset="0" stop-color="#cfcf00"/><stop offset=".42483324" stop-color="#ffff3b"/><stop offset="1" stop-color="#cc0"/></linearGradient><linearGradient id="c" gradientUnits="userSpaceOnUse" x1="-176.19572" x2="-185.80104" y1="-78.537132" y2="-86.580467"><stop offset="0" stop-color="#6b624a"/><stop offset=".41192371" stop-color="#626262"/><stop offset=".559789" stop-color="#bfb9ad"/><stop offset=".69645923" stop-color="#948563"/><stop offset="1" stop-color="#433823"/></linearGradient><linearGradient id="d" gradientUnits="userSpaceOnUse" x1="-188.20474" x2="-180.83495" y1="-81.494637" y2="-74.998093"><stop offset="0" stop-color="#454030"/><stop offset=".41192371" stop-color="#4e4e4e"/><stop offset=".559789" stop-color="#918773"/><stop offset=".69645923" stop-color="#948563"/><stop offset="1" stop-color="#17140c"/></linearGradient><g transform="matrix(.35718618 0 0 .35538548 72.148406 32.445873)"><path d="m-201.74663-70.444115h8.429619v1.237711h-8.429619z" fill="#d6d600" filter="url(#a)"/><g stroke="#000" stroke-linecap="round" stroke-linejoin="round"><path d="m-74.636 1018.135-27.954 27.953v6.066l5.33 5.329h30.805l17.157-17.156" fill="url(#b)" transform="matrix(.27701672 0 0 .27701672 -167.61208 -362.14688)"/><path d="m-187.10547-81.340294c3.32808.599464 6.01016 3.06796 6.88331 6.334818h1.79562c0-4.888237 0-9.776474 0-14.664711-.79808.09973-1.59617.199729-2.39425.299455-2.09508 2.194804-4.18988 4.38933-6.28496 6.584133.00028.48201.00028.964296.00028 1.446305z" fill="url(#c)" stroke-width=".277017"/><path d="m-187.10547-81.340294c3.32808.599464 6.01016 3.06796 6.88331 6.334818-.34876.348764-.69753.697528-1.04629 1.046292-2.33968-2.049092-4.67937-4.098462-7.01877-6.147555.39364-.411093.78756-.822185 1.18175-1.233555z" fill="url(#d)" stroke-width=".277017"/></g></g></svg>