<svg height="32" viewBox="0 0 8.4666665 8.4666669" width="32" xmlns="http://www.w3.org/2000/svg" xmlns:xlink="http://www.w3.org/1999/xlink"><linearGradient id="a" gradientUnits="userSpaceOnUse" x1="14.495081" x2="14.322939" y1="6.720255" y2="2.124061"><stop offset="0" stop-color="#82ade0"/><stop offset="1" stop-color="#f1effb"/></linearGradient><g transform="matrix(.26458333 0 0 .26458333 -8.459503 -42.286384)"><g stroke="#000" stroke-linecap="round" stroke-linejoin="round" stroke-width=".387115" transform="matrix(.99989187 0 0 .99999865 31.974656 160.63158)"><path d="m3.5316505 27.337497h24.9366895c1.843589 0 3.33871-1.487611 3.33871-3.322407 0-5.882857 0-11.765328 0-17.6481856 0-1.8347963-1.494735-3.322407-3.33871-3.322407-8.312227 0-16.624453 0-24.9366895 0-1.8435791 0-3.33870043 1.4876107-3.33870043 3.322407v17.6481856c.00038641 1.834796 1.49512133 3.322407 3.33870043 3.322407z" fill="#008080"/><path d="m.19333648 8.274691h31.61371352c0-.6356714 0-1.271729 0-1.9077866 0-1.8347963-1.494735-3.322407-3.33871-3.322407-8.312227 0-16.624453 0-24.9366895 0-1.8435791 0-3.33870043 1.4876107-3.33870043 3.322407.00038641.6360576.00038641 1.2721152.00038641 1.9077866z" fill="url(#a)"/><path d="m1.426158 8.611843h29.293224v17.656296h-29.293224z" fill="#fff"/></g><path d="m52.541451 184.83754c-1.327466-.217-2.599218-1.344-3.464075-3.06999l-.09729-.194h-.949938-.949957l-.111578.225c-.360761.73-.815612 1.365-1.348794 1.88499-.636491.62-1.215998.951-1.936551 1.105-.308036.07-.832589.07-1.161284 0-1.034528-.207-1.977056-.913-2.753282-2.06099-.701044-1.037-1.184142-2.334-1.298-3.484l-.0156-.158h-.383489-.383478l.006-.403.006-.404.278949-.01c.18523 0 .28394-.02.293829-.04.008-.01.964055-1.697 2.12416-3.74099l2.109272-3.715h1.605576l1.605566-.001-.0105.376c-.006.207-.0176.384-.0263.392-.009 0-.626402.02-1.372611.03l-1.356753.01-.859247 1.512c-2.156377 3.79299-2.903007 5.12699-2.881329 5.14899.0185.02 17.590578.02 17.609066 0 .008 0-.510155-.934-1.150526-2.057-.640371-1.12399-1.47565-2.59199-1.856149-3.26099l-.691825-1.218h-1.367042-1.367043v-.377-.378h1.453413c.799374 0 1.522896 0 1.607816.02l.154414.01 2.03559 3.579c1.119578 1.96799 2.050598 3.60899 2.068936 3.64699l.0334.07h.258462.258462v.409.41h-.27809c-.152953 0-.297557 0-.321345.01-.0376.01-.04669.04-.06919.219-.0366.293-.179131.98-.265712 1.281-.247833.861-.719022 1.791-1.263693 2.492-.73973.95399-1.577589 1.53199-2.49994 1.72699-.27138.06-.765307.07-1.0177.03zm-8.933853-.836c.55377-.145 1.038877-.441 1.532854-.93699.915761-.918 1.605156-2.38 1.768949-3.753l.0282-.236h-3.837226-3.837235v.122c0 .243.152404.943.304878 1.401.607094 1.82 1.880126 3.20299 3.168607 3.44099.243044.05.616053.03.870996-.04zm9.816018.04c.27771-.06.722612-.26 1.051276-.479.288999-.19199.73989-.64899 1.063865-1.07899.400077-.531.817282-1.37 1.026579-2.065.09449-.313.221206-.934.237335-1.163l.0125-.177h-3.833395-3.833406v.103c0 .135.08779.651.157693.927.46612 1.839 1.707316 3.45999 2.947192 3.84899.36574.115.851718.149 1.170343.08zm-4.736958-3.24999s-.0183-.07-.04069-.142c-.106659-.349-.197599-.784-.254403-1.214-.0303-.23-.04889-.311-.07589-.331-.0244-.02-.124696-.03-.315095-.03-.275681 0-.27932 0-.27929.05.0001.187-.205038 1.207-.327015 1.627l-.0137.05h.653069.653069z" stroke-width=".020989"/></g></svg>