<svg height="32" viewBox="0 0 8.4666665 8.4666669" width="32" xmlns="http://www.w3.org/2000/svg" xmlns:xlink="http://www.w3.org/1999/xlink"><linearGradient id="a" gradientUnits="userSpaceOnUse" x1="-200.83" x2="-165.283" y1="1113.7145" y2="1113.7145"><stop offset="0" stop-color="#ffd875"/><stop offset="1" stop-color="#f6cf5f"/></linearGradient><linearGradient id="b" gradientUnits="userSpaceOnUse" x1="-166.283" x2="-131.341" y1="1119.4875" y2="1114.3824"><stop offset="0" stop-color="#efc544"/><stop offset="1" stop-color="#e9b53e"/></linearGradient><linearGradient id="c" gradientUnits="userSpaceOnUse" x1="6.482451" x2="15.821514" xlink:href="#d" y1="8.133895" y2="11.317127"/><linearGradient id="d"><stop offset="0" stop-color="#b09c63" stop-opacity=".45098"/><stop offset="1" stop-color="#efb30d" stop-opacity=".960784"/></linearGradient><linearGradient id="e" gradientUnits="userSpaceOnUse" x1="6.482451" x2="15.925254" xlink:href="#f" y1="8.133895" y2="8.84432"/><linearGradient id="f"><stop offset="0" stop-color="#b09c63" stop-opacity=".45098"/><stop offset="1" stop-opacity=".985"/></linearGradient><linearGradient id="g" gradientTransform="matrix(-1 0 0 1 31.455528 .28125)" gradientUnits="userSpaceOnUse" x1="6.482451" x2="15.821514" xlink:href="#d" y1="8.133895" y2="11.317127"/><linearGradient id="h" gradientTransform="matrix(-1 0 0 1 31.455528 .28125)" gradientUnits="userSpaceOnUse" x1="6.482451" x2="15.925254" xlink:href="#f" y1="8.133895" y2="8.84432"/><linearGradient id="i" gradientTransform="matrix(-1 0 0 -1 31.455528 22.241894)" gradientUnits="userSpaceOnUse" x1="6.482451" x2="15.821514" xlink:href="#d" y1="8.133895" y2="11.317127"/><linearGradient id="j" gradientTransform="matrix(-1 0 0 -1 31.455528 22.241894)" gradientUnits="userSpaceOnUse" x1="6.482451" x2="15.925254" xlink:href="#f" y1="8.133895" y2="8.84432"/><linearGradient id="k" gradientTransform="matrix(1 0 0 -1 .437963 22.25899)" gradientUnits="userSpaceOnUse" x1="6.482451" x2="15.821514" xlink:href="#d" y1="8.133895" y2="11.317127"/><linearGradient id="l" gradientTransform="matrix(1 0 0 -1 .437963 22.25899)" gradientUnits="userSpaceOnUse" x1="6.482451" x2="15.925254" xlink:href="#f" y1="8.133895" y2="8.84432"/><radialGradient id="m" cx="15.614744" cy="14.487043" gradientTransform="matrix(.33728082 -.1660326 .17468566 .35504343 208.9453 341.78449)" gradientUnits="userSpaceOnUse" r="15.958009"><stop offset="0" stop-color="#f00"/><stop offset=".8214854" stop-color="#f00"/><stop offset="1" stop-color="#cf0000"/></radialGradient><g transform="matrix(.26458333 0 0 .26458333 -50.788261 -84.799041)"><g transform="matrix(1.4934623 0 0 1.4936218 183.25456 312.60237)"><path d="m-200.33 1087.249 32.966-16.69 35.523 18.026-33.942 16.431z" fill="none" stroke="#000" stroke-linecap="round" stroke-linejoin="round" transform="matrix(.27701672 0 0 .27701672 62.00846 -290.20583)"/><path d="m-165.783 1140.18-34.547-18.441v-34.49l34.547 17.767z" fill="url(#a)" stroke="#000" stroke-linecap="round" stroke-linejoin="round" transform="matrix(.27701672 0 0 .27701672 62.00846 -290.20583)"/><path d="m-165.783 1105.016v35.164l33.942-17.709v-33.886z" fill="url(#b)" stroke="#000" stroke-linecap="round" stroke-linejoin="round" transform="matrix(.27701672 0 0 .27701672 62.00846 -290.20583)"/><g stroke-width=".2"><path d="m15.645834 6.3569127.17568 4.9602143-9.3078135-.336805z" fill="url(#c)" stroke="url(#e)"/><path d="m15.809694 6.6381627-.17568 4.9602143 9.307814-.336805z" fill="url(#g)" stroke="url(#h)"/><path d="m15.809694 15.884982-.17568-4.960215 9.307814.336805z" fill="url(#i)" stroke="url(#j)"/><path d="m16.083797 15.902078.17568-4.960215-9.3078139.336805z" fill="url(#k)" stroke="url(#l)"/></g></g><ellipse cx="217.13676" cy="344.80865" fill="url(#m)" rx="5.956573" ry="5.958123" stroke="#000" stroke-linecap="round" stroke-linejoin="round" stroke-width=".084523"/><text style="font-size:24.7447;font-family:Wingdings;letter-spacing:0;word-spacing:0;fill:#fff;stroke-width:.618618" transform="scale(.99994661 1.0000534)" x="212.68393" y="351.56845"><tspan fill="#fff" font-family="open sans" stroke-width=".618618" x="212.68393" y="351.56845">-</tspan></text></g></svg>