<svg height="32" viewBox="0 0 8.4666665 8.4666669" width="32" xmlns="http://www.w3.org/2000/svg" xmlns:xlink="http://www.w3.org/1999/xlink"><linearGradient id="a" gradientTransform="matrix(.62201222 0 0 .62801738 -16.861028 -2.644375)" gradientUnits="userSpaceOnUse" x1="26.648937" x2="135.66525" y1="20.603781" y2="114.39767"><stop offset="0" stop-color="#5a9fd4"/><stop offset="1" stop-color="#306998"/></linearGradient><linearGradient id="b" gradientTransform="matrix(.62201222 0 0 .62801738 -16.861028 -2.644375)" gradientUnits="userSpaceOnUse" x1="150.96111" x2="112.03144" y1="192.35176" y2="137.27299"><stop offset="0" stop-color="#ffd43b"/><stop offset="1" stop-color="#ffe873"/></linearGradient><radialGradient id="c" cx="61.518883" cy="132.28575" gradientTransform="matrix(.00000002 -.296405 1.43676 .00000047 -128.544 150.5202)" gradientUnits="userSpaceOnUse" r="29.036913"><stop offset="0" stop-color="#b8b8b8" stop-opacity=".498039"/><stop offset="1" stop-color="#7f7f7f" stop-opacity="0"/></radialGradient><g transform="matrix(.05378138723 0 0 .05378713221 .9431572108 .22144532627)"><path d="m60.439673 10.296173c-5.068232.02355-9.908279.455797-14.167023 1.20938-12.545725 2.216418-14.823542 6.85557-14.823543 15.410957v11.299064h29.647086v3.766355h-29.647086-11.126296c-8.616269 0-16.1609208 5.178875-18.5207913 15.030866-2.72208082 11.292669-2.8428199 18.339478 0 30.130839 2.1074208 8.777032 7.1402272 15.030866 15.7564943 15.030866h10.193345v-13.545057c0-9.785503 8.466649-18.417127 18.520791-18.417129h29.612533c8.24308 0 14.823547-6.787084 14.823543-15.06542v-28.230384c0-8.034529-6.778034-14.070027-14.823543-15.410957-5.092927-.847783-10.377279-1.23293-15.44551-1.20938zm-16.032924 9.087627c3.062341 0 5.563148 2.541657 5.563148 5.666809-.000002 3.114076-2.500807 5.632256-5.563148 5.632256-3.073319-.000001-5.563148-2.518181-5.563148-5.632256-.000001-3.125151 2.489829-5.666809 5.563148-5.666809z" fill="url(#a)" stroke="#fff" stroke-width="4.36761"/><path d="m94.405974 41.981929v13.164965c0 10.20662-8.65324 18.79722-18.520791 18.797221h-29.612533c-8.111369 0-14.823542 6.942237-14.823543 15.065419v28.230376c0 8.03453 6.986581 12.76035 14.823543 15.06542 9.384602 2.75945 18.383944 3.25815 29.612533 0 7.463774-2.161 14.823547-6.51004 14.823543-15.06542v-11.29906h-29.612533v-3.76635h29.612533 14.823544c8.61627 0 11.82705-6.010034 14.82354-15.030866 3.09527-9.286807 2.96357-18.217576 0-30.130839-2.12937-8.577549-6.19631-15.030866-14.82354-15.030866zm-16.65489 71.491631c3.073321.00001 5.563148 2.51818 5.563148 5.63225-.000003 3.12515-2.489831 5.66681-5.563148 5.66681-3.062344 0-5.563148-2.54166-5.563148-5.66681.000002-3.11407 2.500801-5.63225 5.563148-5.63225z" fill="url(#b)" stroke="#fff" stroke-width="4.36761"/><path d="m110.46717 132.28575a48.948285 8.606681 0 1 1 -97.896571 0 48.948285 8.606681 0 1 1 97.896571 0z" fill="url(#c)" opacity=".44382" transform="matrix(.73406 0 0 .809524 16.24958 27.00935)"/></g></svg>