<svg height="32" viewBox="0 0 8.4666665 8.4666669" width="32" xmlns="http://www.w3.org/2000/svg" xmlns:xlink="http://www.w3.org/1999/xlink"><linearGradient id="a" gradientUnits="userSpaceOnUse" x1="-445.33005" x2="-440.40115" y1="727.68396" y2="750.83014"><stop offset="0" stop-color="#d1e9fc"/><stop offset=".53606623" stop-color="#6cade2"/><stop offset="1" stop-color="#519cd7"/></linearGradient><linearGradient id="b" gradientUnits="userSpaceOnUse" x1="-284.0368" x2="-291.31723" y1="147.44312" y2="141.30403"><stop offset="0" stop-color="#f1fafe"/><stop offset="1" stop-color="#fff"/></linearGradient><linearGradient id="c" gradientUnits="userSpaceOnUse" x1="-408.51801" x2="-408.51801" y1="455.366" y2="422.55899"><stop offset="0" stop-color="#008080"/><stop offset=".61336267" stop-color="#00c9c9"/><stop offset="1" stop-color="#008080"/></linearGradient><g stroke-linecap="round" stroke-linejoin="round"><g stroke="#008080" transform="matrix(.51598170568 0 0 .52058915875 153.19361746778 -69.54975799317)"><path d="m-383.017 743.133-4.261-4.26h-39.702v-5.366h-3.938l-4.594-4.594h-21.221l-3.173 3.172h-3.138v15.3h80.027z" fill="url(#a)" stroke-width="3.03815" transform="matrix(.19748859 0 0 .19748859 -205.14926 -9.242098)"/><path d="m-296.59515 138.35791h15.80442v10.392245h-15.80442z" fill="url(#b)" stroke-width=".599807"/></g><path d="m-381.651 444.311-21.752 21.751h-5.115v-10.696h-19.875v-11.055-11.055h19.875v-10.697h5.115z" fill="url(#c)" stroke="#006262" stroke-width="2.56062" transform="matrix(-.08577332813 0 0 .08368794318 -31.58737676254 -32.17818015256)"/></g></svg>