<svg height="32" viewBox="0 0 8.4666665 8.4666669" width="32" xmlns="http://www.w3.org/2000/svg"><g stroke="#000" stroke-linecap="round" stroke-linejoin="round"><g transform="matrix(.11045100684 0 0 .11161829436 39.45737770906 -117.47353121083)"><path d="m-330.188 1092.195v23.366l22.554-11.767v-22.517z" fill="#250"/><path d="m-330.188 1115.561-22.955-12.253v-22.918l22.955 11.805z" fill="#00eded"/><path d="m-353.143 1080.39 21.905-11.091 23.604 11.978-22.554 10.918z" fill="#00b0b0"/></g><path d="m-307.634 1103.794v-22.517l-22.554 10.918v23.366z" fill="#250" transform="matrix(.11045100684 0 0 .11161829436 41.99278064784 -116.1058726007)"/><path d="m-353.143 1080.39 22.955 11.805v23.366l-22.955-12.253z" fill="#55d400" transform="matrix(.11045100684 0 0 .11161829436 41.99278064784 -116.1058726007)"/><path d="m-307.634 1081.277-22.554 10.918-22.955-11.805 21.905-11.091z" fill="#338000" transform="matrix(.11045100684 0 0 .11161829436 41.99278064784 -116.1058726007)"/><path d="m-307.634 1103.794v-22.517l-22.554 10.918v23.366z" fill="#d40000" transform="matrix(.11045100684 0 0 .11161829436 40.84594216798 -119.29780519299)"/><path d="m-353.143 1080.39 22.955 11.805v23.366l-22.955-12.253z" fill="#f55" transform="matrix(.11045100684 0 0 .11161829436 40.84594216798 -119.29780519299)"/><path d="m-307.634 1081.277-22.554 10.918-22.955-11.805 21.905-11.091z" fill="#ff2a2a" transform="matrix(.11045100684 0 0 .11161829436 40.84594216798 -119.29780519299)"/></g></svg>