<svg height="32" viewBox="0 0 8.4666665 8.4666669" width="32" xmlns="http://www.w3.org/2000/svg" xmlns:xlink="http://www.w3.org/1999/xlink"><filter id="a" color-interpolation-filters="sRGB" height="1.324283" width="1.180757" x="-.090379" y="-.162142"><feGaussianBlur stdDeviation="1.361516"/></filter><linearGradient id="b" gradientUnits="userSpaceOnUse" x1="-334.62405" x2="-349.44553" y1="444.53479" y2="456.42578"><stop offset="0" stop-color="#2929ff"/><stop offset=".2402378" stop-color="#8c8cef"/><stop offset="1" stop-color="#0000d1"/></linearGradient><filter id="c" color-interpolation-filters="sRGB" height="1.839148" width="1.16032" x="-.08016" y="-.419574"><feGaussianBlur stdDeviation="2.3587043"/></filter><filter id="d" color-interpolation-filters="sRGB" height="1.839086" width="1.16032" x="-.08016" y="-.419543"><feGaussianBlur stdDeviation="2.3587043"/></filter><g stroke="#fff" stroke-linecap="round" stroke-linejoin="round"><path d="m-339.281 457.347 18.077-20.153h-18.077-18.078z" fill="#fff" filter="url(#a)" stroke-width="2.9285" transform="matrix(.09535854 0 0 -.09671533 36.586722 45.871007)"/><path d="m-339.281 457.347 18.077-20.153h-18.077-18.078z" fill="url(#b)" transform="matrix(.09535854 0 0 -.09671533 36.586721 45.871007)"/><path d="m-339.281 437.194h-18.078l18.078 20.153 18.077-20.153z" fill="#fff" filter="url(#a)" stroke-width="2.9285" transform="matrix(.09535854 0 0 .09671533 36.586722 -37.351717)"/><path d="m-339.281 437.194h-18.078l18.078 20.153 18.077-20.153z" fill="url(#b)" transform="matrix(.09535854 0 0 .09671533 36.586722 -37.351717)"/><path d="m-367.705 461.626v-6.315h-6.603v13.492h35.31 35.31v-13.492h-6.603v6.315h-28.707z" fill="#fff" filter="url(#c)" stroke-width="2.88101" transform="matrix(.0857391847 0 0 .08657218076 33.29874552341 -32.60559668152)"/></g><path d="m-367.705 461.626v-6.315h-6.603v13.492h35.31 35.31v-13.492h-6.603v6.315h-28.707z" transform="matrix(.0857391847 0 0 .08657218076 33.29874552341 -32.60559668152)"/><path d="m-367.705 389.431v6.316h-6.603v-13.493h35.31 35.31v13.493h-6.603v-6.316h-28.707z" style="fill:#fff;stroke:#fff;stroke-width:2.88101;stroke-linecap:round;stroke-linejoin:round;filter:url(#d)" transform="matrix(.0857391847 0 0 .08657218076 33.29874552341 -32.60559668152)"/><path d="m-367.705 389.431v6.316h-6.603v-13.493h35.31 35.31v13.493h-6.603v-6.316h-28.707z" transform="matrix(.0857391847 0 0 .08657218076 33.29874552341 -32.60559668152)"/></svg>