<svg height="32" viewBox="0 0 8.4666665 8.4666669" width="32" xmlns="http://www.w3.org/2000/svg"><g transform="matrix(.21127971 0 0 .2096712 -45.321055 -9.920463)"><path d="m251.669 47.75v7.125l-8.125 6.75 4.375.625-.125 6.5-30.375 18.5v-6.625l9.625-9.625-4-.125.375-6.625z" fill="#f00" stroke="#800000" stroke-width=".5"/><path d="m246.92982 63.03033.20399 5.120504-28.19588 17.589281.24189-5.209785z" fill="#feb400"/><path d="m224.67982 64.53033-.17342 5.653436 7.07107-.265165 3.60235-5.388271z" fill="#f4a600"/><path d="m250.92982 48.53033.0931 5.478368-10.25305 8.927224-5.3033-1.590991z" fill="#fe9f00"/><path d="m250.92982 48.53033-26.25 16h10.5l-16 16 27.75-17.5-8.5-1.75z" fill="#fcfe00"/></g></svg>