<svg height="32" viewBox="0 0 8.4666665 8.4666669" width="32" xmlns="http://www.w3.org/2000/svg"><g stroke-linejoin="round" transform="matrix(.51022774 0 0 .51028222 90.766867 -80.83188)"><g stroke="#000" stroke-linecap="round" transform="translate(-36.986193 -8.06781)"><path d="m-461.871 911.531h30.791v26.469h32.951" fill="none" stroke-dasharray="8.52007 8.52007" stroke-width="4.26004" transform="matrix(.18779187 0 0 .18779187 -53.371273 -1.117413)"/><path d="m-461.871 900.727v63.201h14.045" fill="none" stroke-dasharray="3.72753 7.45506" stroke-width="3.72753" transform="matrix(.18779187 0 0 .18779187 -53.371273 -1.117413)"/><g fill="#fff" stroke-width=".48843"><path d="m-129.53845 172.51825h4.57779v4.57779h-4.57779z"/><path d="m-136.28049 177.48216h4.57779v4.57779h-4.57779z"/><path d="m-136.42867 167.48024h4.57779v4.57779h-4.57779z"/></g><path d="m-135.05066 168.85825h1.821804v1.821804h-1.821804z" stroke-width=".194378"/><path d="m-128.16045 173.89626h1.821804v1.821804h-1.821804z" stroke-width=".194378"/><path d="m-134.97191 178.79074h1.960649v1.960649h-1.960649z" stroke-width=".209193"/></g><g fill="#fff" stroke="#fff" stroke-dasharray="1.23794 1.23794" stroke-width=".61897"><ellipse cx="-177.11284" cy="161.33047" rx=".003583" ry=".007165"/><ellipse cx="-177.11284" cy="163.49756" rx=".003583" ry=".007165"/><ellipse cx="-177.11284" cy="165.53499" rx=".003583" ry=".007165"/><ellipse cx="-177.11284" cy="165.53499" rx=".003583" ry=".007165"/><ellipse cx="-177.11284" cy="167.68355" rx=".003583" ry=".007165"/><ellipse cx="-177.11284" cy="169.77655" rx=".003583" ry=".007165"/><ellipse cx="-177.11284" cy="171.85103" rx=".003583" ry=".007165"/><ellipse cx="-175.00133" cy="171.85103" rx=".003583" ry=".007165"/><ellipse cx="-170.07445" cy="166.99825" rx=".003583" ry=".007165"/><ellipse cx="-171.31543" cy="164.96082" rx=".003583" ry=".007165"/><ellipse cx="-171.29553" cy="166.53864" rx=".003583" ry=".007165"/><ellipse cx="-167.66658" cy="166.9612" rx=".003583" ry=".007165"/><ellipse cx="-174.66792" cy="161.97876" rx=".003583" ry=".007165"/></g></g></svg>