<svg height="32" viewBox="0 0 8.4666665 8.4666669" width="32" xmlns="http://www.w3.org/2000/svg"><g fill="#00aeff" stroke="#008080" stroke-linecap="round" stroke-linejoin="round" transform="matrix(.26457142 0 0 .26458284 .000191 .000007)"><path d="m13.089599 6.3135293c-1.191523.0559953-2.382607.1115367-3.5741303.1675308-1.1412111-1.2949164-3.2665335-.4648188-3.2418225 1.2660315v6.6105594h1.9108452v2.722256c-.6368057 0-1.2740395 0-1.9108452 0v11.471606c-.6902053 0-1.3799598 0-2.070165 0-.690194 0-1.3799598 0-2.0701537 0 0-3.823869 0-7.647737 0-11.471606-.6368057 0-1.27405086 0-1.91085654 0 0-.907419 0-1.814837 0-2.722256h1.91085654c0-2.203224 0-4.4068921 0-6.6105594.0860883-2.7631402 2.1495938-5.0556829 4.8724413-5.4120739 2.7224079-.3559462 5.2996262 1.3291331 6.0838302 3.9785116z" stroke-width=".442838"/><path d="m27.4373 29.712226c2.893626-2.720034 4.340226-5.726692 4.340226-9.020418 0-.770995-.07674-1.540657-.230365-2.308097-.153573-.76744-.401584-1.536657-.743594-2.307208-.342449-.770995-.794345-1.541545-1.355688-2.312541-.561343-.770551-1.244033-1.535324-2.048091-2.293432-.316859.327951-.633718.655902-.950577.983408 2.427183 2.440521 3.64077 5.145447 3.64077 8.113888 0 1.478445-.306707 2.899119-.92012 4.26247-.613413 1.362905-1.520293 2.649823-2.72109 3.859862.32966.340394.658869.681231.988529 1.022068z" stroke-width=".442838"/><path d="m16.241696 15.578032h1.913512c.0287.655293.05783 1.310584.08653 1.966443.356849-.422715.701342-.773562 1.033468-1.05424.332124-.280677.658064-.506465.977821-.676796.31977-.17033.645711-.290864.977835-.359335.332125-.06903.676045-.102995 1.031773-.102995 1.255434 0 2.205733.370088 2.850311 1.110827.644576.740742.966585 1.856097.966585 3.346066v7.955182c-.715949 0-1.432459 0-2.148408 0 0-2.594573 0-5.189146 0-7.784285 0-.955775-.177026-1.662564-.531062-2.120364-.354036-.457798-.881165-.685849-1.581946-.685849-.256822 0-.508017.03848-.753603.115436-.245585.07695-.501272.210508-.76709.400644-.265803.190138-.553531.447047-.863186.771299-.309639.32425-.658064.729422-1.044142 1.214384v8.088731c-.715949 0-1.432459 0-2.148408 0 0-4.061907 0-8.12325 0-12.185156z" stroke-width=".563923"/><path d="m14.079446 29.712226c-2.893638-2.720034-4.3402378-5.726692-4.3402378-9.020418 0-.770995.076849-1.540657.2303651-2.308097.1535727-.76744.4015837-1.536657.7435937-2.307208.34246-.770995.794356-1.541545 1.355688-2.312541.561343-.770551 1.244044-1.535324 2.048102-2.293432.316848.327951.633707.655902.950566.983408-2.427172 2.440521-3.640758 5.145447-3.640758 8.113888 0 1.478445.306706 2.899119.919669 4.26247.613413 1.362905 1.520304 2.649823 2.721089 3.859862-.329659.340394-.658868.681231-.988077 1.022068z" stroke-width=".442838"/></g></svg>