<svg height="32" viewBox="0 0 8.4666665 8.4666669" width="32" xmlns="http://www.w3.org/2000/svg" xmlns:xlink="http://www.w3.org/1999/xlink"><linearGradient id="a" gradientTransform="matrix(.53891348 0 0 .49482166 79.64334 86.159921)" gradientUnits="userSpaceOnUse" x1="441.08813" x2="496.59631" y1="323.04205" y2="323.04205"><stop offset="0" stop-color="#96cef1"/><stop offset="1" stop-color="#fff"/></linearGradient><linearGradient id="b" gradientUnits="userSpaceOnUse" x1="-94.687927" x2="-69.186073" y1="1285.578" y2="1285.578"><stop offset="0" stop-color="#2929ff"/><stop offset=".2402378" stop-color="#8c8cef"/><stop offset="1" stop-color="#0000d1"/></linearGradient><path d="m322.33485 254.66235c-.18291-.0346-.43343-.0919-.63539-.1347-.53389-.1238-1.14963-.36606-1.63016-.6414-1.23642-.70844-2.17188-1.88357-2.53325-3.18227-.12522-.45001-.17075-.75943-.18258-1.24069-.022-.89387.15979-1.67603.57383-2.46929.60657-1.16215 1.64421-2.0727 2.95176-2.59025l.20912-.0827.0107-.15777c.0866-1.27381.92856-2.43212 2.17703-2.99485.36742-.16561.74462-.2747 1.15017-.33263.25537-.0365.83374-.0372 1.09481-.002.65822.0904 1.24056.31528 1.81788.70231.0273.0183.0385.004.14956-.20035.35852-.65729.79828-1.23092 1.33737-1.74448 1.3301-1.26712 3.02498-2.02732 4.96264-2.22589.31877-.0327 1.08572-.0449 1.41783-.0227 1.94583.13035 3.69789.84375 5.06285 2.06148 1.28071 1.14257 2.07422 2.61613 2.27874 4.23167.0234.18482.0583.79421.0466.81349-.003.005-.006.10437-.008.22155l-.003.21305.0942.0115c1.77954.2157 3.36117 1.2996 4.10807 2.81529.25385.51511.41017 1.06404.46709 1.64017.0245.24777.0111.82758-.0247 1.06457-.13517.89654-.50609 1.70489-1.11153 2.4223-.17764.21052-.61541.61595-.85132.78846-.81422.59539-1.78385.95453-2.81511 1.04268-.1185.0102-3.47035.0152-10.14647.0152-3.31887-.0148-6.65697.018-9.96874-.0217z" fill="url(#a)" stroke="#008080" stroke-width=".774596" transform="matrix(.2645547206 0 0 .26458297281 -83.68090825234 -62.06847689554)"/><path d="m-86.455 1293.891h-7.733l12.251 12.252 12.251-12.252h-7.733v-28.878h-4.518-4.518z" fill="url(#b)" stroke="#fff" stroke-linecap="round" stroke-linejoin="round" transform="matrix(.11410275259 0 0 -.1141149378 13.57672599042 152.14399388516)"/></svg>