<svg height="32" viewBox="0 0 8.4666665 8.4666669" width="32" xmlns="http://www.w3.org/2000/svg" xmlns:xlink="http://www.w3.org/1999/xlink"><linearGradient id="a" gradientUnits="userSpaceOnUse" x1="14.495081" x2="14.322939" y1="6.720255" y2="2.124061"><stop offset="0" stop-color="#82ade0"/><stop offset="1" stop-color="#f1effb"/></linearGradient><linearGradient id="b" gradientUnits="userSpaceOnUse" x1="24.607656" x2="7.537882" y1="23.939991" y2="9.939991"><stop offset="0" stop-color="#96cef1"/><stop offset="1" stop-color="#fff"/></linearGradient><g stroke="#000" stroke-linecap="round" stroke-linejoin="round" transform="matrix(.2645547206 0 0 .26458297281 .00045789886 .21405368564)"><path d="m3.5316505 27.337497h24.9366895c1.843589 0 3.33871-1.487611 3.33871-3.322407 0-5.882857 0-11.765328 0-17.6481856 0-1.8347963-1.494735-3.322407-3.33871-3.322407-8.312227 0-16.624453 0-24.9366895 0-1.8435791 0-3.33870043 1.4876107-3.33870043 3.322407v17.6481856c.00038641 1.834796 1.49512133 3.322407 3.33870043 3.322407z" fill="#008080" stroke-width=".387115"/><path d="m.19333648 8.274691h31.61371352c0-.6356714 0-1.271729 0-1.9077866 0-1.8347963-1.494735-3.322407-3.33871-3.322407-8.312227 0-16.624453 0-24.9366895 0-1.8435791 0-3.33870043 1.4876107-3.33870043 3.322407.00038641.6360576.00038641 1.2721152.00038641 1.9077866z" fill="url(#a)" stroke-width=".387115"/><path d="m1.426158 8.611843h29.293224v17.656296h-29.293224z" fill="url(#b)" stroke-width=".387"/></g><g transform="matrix(.2645547206 0 0 .26458297281 71.6368191526 -41.54985477779)"><path d="m-265.37 169.16743h5.779359v5.779359h-5.779359z" fill="#ccc"/><path d="m-257.41125 169.16743h5.779359v5.779359h-5.779359z" fill="#00f"/><path d="m-249.82558 169.16743h5.779359v5.779359h-5.779359z" fill="#008000"/><path d="m-265.37 176.62874h5.779359v5.779359h-5.779359z" fill="#fc0"/><path d="m-257.41125 176.62874h5.779359v5.779359h-5.779359z" fill="#d45500"/><path d="m-249.82558 176.62874h5.779359v5.779359h-5.779359z" fill="#f00"/></g></svg>