<svg height="32" viewBox="0 0 8.4666665 8.4666669" width="32" xmlns="http://www.w3.org/2000/svg" xmlns:xlink="http://www.w3.org/1999/xlink"><linearGradient id="a" gradientUnits="userSpaceOnUse" x1="28.155773" x2="4.009567" y1="31.792776" y2=".207224"><stop offset="0" stop-color="#81b1dc"/><stop offset="1" stop-color="#fafcff"/></linearGradient><linearGradient id="b" gradientUnits="userSpaceOnUse" x1="15.227592" x2="15.358192" y1="20.514494" y2="13.443426"><stop offset="0" stop-color="#000080"/><stop offset=".57451993" stop-color="#4f83e8"/><stop offset="1" stop-color="#00f"/></linearGradient><g transform="matrix(.26455472 0 0 .26458298 .000458 .000006)"><g stroke-linecap="round" stroke-linejoin="round"><path d="m4.009567.207224h24.146206v31.585552h-24.146206z" fill="url(#a)" stroke="#fff" stroke-width=".41313"/><path d="m6.787395 5.841052h18.013857" fill="none" stroke="#000" stroke-width=".813"/><path d="m6.787395 10.375497h18.013857" fill="none" stroke="#000" stroke-width=".813"/></g><path d="m.761691 13.799718h30.476616v6.358484h-30.476616z" fill="url(#b)"/><path d="m6.7083198 17.166343c0 .866016-.8707548 1.349382-1.6274711 1.349382s-1.6274855-.483366-1.6274855-1.349382c0-.866421.8707692-1.349382 1.6274855-1.349382.7571188-.00042 1.6274711.482961 1.6274711 1.349382z" fill="#f9f9f9"/><path d="m29.014195 17.166343c0 .866016-.870338 1.349382-1.627471 1.349382s-1.627486-.483366-1.627486-1.349382c0-.866421.87077-1.349382 1.627486-1.349382.757133-.00042 1.627471.482961 1.627471 1.349382z" fill="#f9f9f9"/><path d="m6.787395 22.56555h18.013857" fill="none" stroke="#000" stroke-linecap="round" stroke-linejoin="round" stroke-width=".813"/><path d="m6.787395 27.099974h18.013857" fill="none" stroke="#000" stroke-linecap="round" stroke-linejoin="round" stroke-width=".813"/></g></svg>