<svg height="32" viewBox="0 0 8.4666665 8.4666669" width="32" xmlns="http://www.w3.org/2000/svg" xmlns:xlink="http://www.w3.org/1999/xlink"><linearGradient id="a" gradientUnits="userSpaceOnUse" x1="12.797526" x2="15.666945" xlink:href="#b" y1="25.483513" y2="16.909842"/><linearGradient id="b"><stop offset="0" stop-color="#e6e6e6"/><stop offset=".21886829" stop-color="#f9f9f9"/><stop offset="1" stop-color="#ccc"/></linearGradient><linearGradient id="c" gradientUnits="userSpaceOnUse" x1="13.353905" x2="18.013824" xlink:href="#b" y1="13.689355" y2="13.689355"/><linearGradient id="d" gradientUnits="userSpaceOnUse" x1="-88.593002" x2="-71.067001" y1="785.07849" y2="785.07849"><stop offset="0" stop-color="#00f"/><stop offset=".10688787" stop-color="#9decff"/><stop offset="1" stop-color="#0e0edb"/></linearGradient><linearGradient id="e" gradientUnits="userSpaceOnUse" x1="14.764372" x2="14.910724" y1="8.412869" y2=".36953"><stop offset="0" stop-color="#666"/><stop offset=".27012497" stop-color="#808080"/><stop offset=".38327286" stop-color="#b3b3b3"/><stop offset="1" stop-color="#f9f9f9"/></linearGradient><g stroke="#000" stroke-linecap="round" stroke-linejoin="round" transform="matrix(.25488858 0 0 .2549158 .155092 .154662)"><g stroke-width=".401874"><path d="m3.4412197 26.930656c-1.188262-.901167-1.7382121-2.417079-1.4050304-3.87263h4.2154977c0-1.349357 0-2.6991 0-4.048456-1.5222568 0-3.0445137 0-4.5667502 0 0-2.464156 1.9321124-3.696418 5.7963576-3.696418 1.2878039 1.291012 2.5760146 2.581618 3.8642246 3.87263h18.969912v3.872651c-6.206213 0-12.412426 0-18.618659 0-1.287804 1.291013-2.5760146 2.581618-3.8642251 3.87263-1.4636538-.000407-2.9276938-.000407-4.3913272-.000407z" fill="#333"/><path d="m3.4410376 26.430702c-1.188262-.901167-1.7382121-2.417079-1.4050304-3.87263h4.2154977c0-1.349357 0-2.6991 0-4.048456-1.5222568 0-3.0445137 0-4.5667502 0 0-2.464156 1.9321124-3.696418 5.7963576-3.696418 1.2878039 1.291012 2.5760147 2.581618 3.8642247 3.87263h18.969912v3.872651c-6.206213 0-12.412426 0-18.618659 0-1.287804 1.291013-2.5760147 2.581618-3.8642252 3.87263-1.4636538-.000407-2.9276938-.000407-4.3913272-.000407z" fill="url(#a)"/><path d="m13.554842 8.552052h4.258046v10.274608h-4.258046z" fill="url(#c)"/></g><path d="m-88.093 768.461h2.584 10.607 3.335v33.235h-16.526z" fill="url(#d)" transform="matrix(.40143729 0 0 .4023105 47.881351 -290.73198)"/><path d="m5.7729843 7.6399844h2.6643357c.2617522-.554365.5234842-1.1087503.7852161-1.6631357.6740064-.016297 1.3484399-.033816 2.0228529-.050725.590096.9124522 1.179826 1.8244766 1.769922 2.7365214h5.360402c.522671-.523808 1.044936-1.047616 1.567607-1.5710166 0-.3355361 0-.6710519 0-1.0065881 3.363649-.1517664 4.596854.6207755 7.140772 2.9380753-.07704-2.7807675-3.368873-7.043244-6.230301-7.7742487-.269374-.26955347-.538343-.53949395-.807291-.80904737-2.521436 0-5.043258 0-7.564694 0-.555195.55640211-1.109962 1.11278387-1.665157 1.66877857-.507425 0-1.0148309 0-1.5226631 0-.1585515-.636054-.3171233-1.27170063-.4756951-1.9073472-1.0152377.03177927-2.0300688.06355854-3.0448999.09533781-.0004066 2.44804299-.0004066 4.89569889-.0004066 7.34335479z" fill="url(#e)" stroke-width=".402"/></g></svg>