<svg height="32" viewBox="0 0 8.4666665 8.4666669" width="32" xmlns="http://www.w3.org/2000/svg" xmlns:xlink="http://www.w3.org/1999/xlink"><linearGradient id="a" gradientUnits="userSpaceOnUse" x1="14.495079" x2="14.322937" y1="6.870226" y2="2.274032"><stop offset="0" stop-color="#82ade0"/><stop offset="1" stop-color="#f1effb"/></linearGradient><g stroke="#000" stroke-linecap="round" stroke-linejoin="round" stroke-width=".387115" transform="matrix(.2645547206 0 0 .26458297281 .00045413688 .17437444716)"><path d="m3.5316486 27.487468h24.9366894c1.843589 0 3.33871-1.487611 3.33871-3.322407 0-5.882857 0-11.765328 0-17.6481853 0-1.8347963-1.494735-3.322407-3.33871-3.322407-8.312227 0-16.624453 0-24.9366894 0-1.8435791 0-3.33870047 1.4876107-3.33870047 3.322407v17.6481853c.00038641 1.834796 1.49512137 3.322407 3.33870047 3.322407z" fill="#008080"/><path d="m.19333454 8.4246623h31.61371346c0-.6356714 0-1.271729 0-1.9077866 0-1.8347963-1.494735-3.322407-3.33871-3.322407-8.312227 0-16.624453 0-24.9366894 0-1.8435791 0-3.33870047 1.4876107-3.33870047 3.322407.00038641.6360576.00038641 1.2721152.00038641 1.9077866z" fill="url(#a)"/><path d="m1.426156 8.761814h29.293224v17.656296h-29.293224z" fill="#fff"/></g><g transform="matrix(.13630017918 0 0 .13631473391 31.49383436511 4.45030035163)"><g fill="none" stroke="#000" stroke-linecap="round" stroke-linejoin="round"><path d="m-216.78941.96867h28.76892" stroke-width="2.6727"/><path d="m-183.30858 1.128693h9.32448" stroke-width="2.31628"/><path d="m-183.30859-6.781046h9.32449" stroke-width="2.31628"/><path d="m-216.78941-6.754637h28.76892" stroke-width="2.6727"/><path d="m-216.47406 9.528702h42.01936" stroke-width="2.68852"/></g><path d="m-222.88311 2.0178864c1.70364 0 3.08456-1.38092476 3.08456-3.0845613 0-2.3416191 0-4.6836298 0-7.0256406 0-1.7036365-1.38092-3.0841695-3.08456-3.0841695s-3.08417 1.3809246-3.08417 3.0841695v7.0256406c-.00039 1.70363654 1.38053 3.0845613 3.08417 3.0845613z" fill="#008000"/><path d="m-222.88507 12.842832c1.45651 0 2.63731-1.180796 2.63731-2.636916 0-.2314594 0-.462919 0-.693987 0-1.4565113-1.1808-2.6373077-2.63731-2.6373077s-2.63691 1.1807964-2.63691 2.6373077v.693987c0 1.45612 1.1804 2.636916 2.63691 2.636916z" fill="#008000"/></g></svg>