<svg height="32" viewBox="0 0 8.4666665 8.4666669" width="32" xmlns="http://www.w3.org/2000/svg" xmlns:xlink="http://www.w3.org/1999/xlink"><linearGradient id="a" gradientUnits="userSpaceOnUse" x1="-1229.079" x2="-1161.802" y1="-490.61426" y2="-490.61426"><stop offset="0" stop-color="#fff"/><stop offset="1" stop-color="#fff" stop-opacity="0"/></linearGradient><linearGradient id="b" gradientUnits="userSpaceOnUse" x1="-475.34381" x2="-537.25702" y1="290.64554" y2="214.88901"><stop offset="0" stop-color="#99d3f4"/><stop offset="1" stop-color="#fff"/></linearGradient><filter id="c" color-interpolation-filters="sRGB" height="1.048002" width="1.048" x="-.024" y="-.024001"><feGaussianBlur stdDeviation=".18358864"/></filter><linearGradient id="d" gradientUnits="userSpaceOnUse" x1="171.72775" x2="185.90042" xlink:href="#e" y1="198.390313" y2="198.390313"/><linearGradient id="e"><stop offset="0" stop-color="#00f"/><stop offset=".8214854" stop-color="#b6b6ff"/><stop offset="1" stop-color="#00f"/></linearGradient><linearGradient id="f" gradientTransform="matrix(-1 0 0 -1 -432.7413 170.01956)" gradientUnits="userSpaceOnUse" x1="-619.06085" x2="-604.88818" xlink:href="#e" y1="-31.001387" y2="-31.001387"/><g transform="matrix(.25698619 0 0 .25701363 -41.719418 -47.07372)"><g fill="url(#a)" transform="matrix(.38971349 0 0 .38485511 644.69338998772 388.44352792528)"><path d="m-537.257 214.889v82.146h66.277v-63.788l-18.359-18.358z" fill="url(#b)" stroke="#000" stroke-linecap="round" stroke-linejoin="round" transform="matrix(.99999983 0 0 1.0000232 -691.32212 -746.58316)"/><path d="m-470.98 233.247h-18.359v-18.358z" fill="#4d4d4d" filter="url(#c)" transform="matrix(.99999983 0 0 1.0000232 -691.45668 -745.9019)"/><path d="m-489.339 233.247v-18.358l18.359 18.358z" fill="#60a1e3" transform="matrix(.99999983 0 0 1.0000232 -691.32212 -746.58316)"/></g><g stroke="#00f" stroke-linecap="round" stroke-linejoin="round" stroke-width=".392"><path d="m185.70461 202.73563c-3.3309 3.30897-5.85972 3.392-7.58686.24947.63446-.59686 1.26892-1.19372 1.90338-1.79058-2.13131-.24478-4.26262-.48955-6.39354-.73433-.18994 2.42896-.3795 4.85791-.56944 7.28648.66148-.62232 1.32296-1.24503 1.98444-1.86734 2.88561 5.33649 10.20459.55926 10.66202-3.1437z" fill="url(#d)"/><path d="m172.34269 196.67563c3.3309-3.30897 5.85972-3.392 7.58686-.24947-.63446.59686-1.26892 1.19372-1.90338 1.79058 2.13131.24478 4.26262.48955 6.39354.73433.18994-2.42896.3795-4.85791.56944-7.28648-.66148.62232-1.32296 1.24503-1.98444 1.86734-2.88561-5.33649-10.20459-.55926-10.66202 3.1437z" fill="url(#f)"/></g></g></svg>