<svg viewBox="0 0 32 32" xmlns="http://www.w3.org/2000/svg"><path d="m30.5 26.3-2.9 2.6c1.7 0 3.1-1.4 3.2-3 0 .1-.1.3-.3.4zm-2.8-20.5h-4.8v-2.7c0-1.8-1.4-3.2-3.2-3.2h-8.1c-1.8 0-3.2 1.4-3.2 3.2v2.7h-5c-1.9 0-3.3 1.4-3.3 3.2v16.7c0 1.8 1.4 3.2 3.2 3.2h16.5l-3.5-3.4h-12.8v-1.3h-2.2v-3.1h2.2v-11.8h23.7v6l3.7 3.5v-9.8c0-1.8-1.4-3.2-3.2-3.2zm-8.4 0h-7.6v-2.5h7.6z"/><g fill="#48f"><path d="m4.7 15.1h6.4v3.1h-6.4z"/><path d="m1.3 21.2h9.8v3.1h-9.8z"/><path d="m31.5 19.3-.6-.5-3.7-3.5-4.3-4.1c-.6-.6-1.6-.6-2.3-.1l-6 4.8c-.1.1-.3.2-.4.3s-.2.3-.3.4c0 0 0 .1-.1.1v.1c-.1.2-.1.4-.1.6v5.1c0 .5.2.9.5 1.2l1.9 1.9 3.5 3.4 2.7 2.6c.3.3.8.5 1.2.5s.8-.1 1.2-.4l2.9-2.6 2.9-2.6c.1-.1.3-.3.3-.4.1-.2.1-.3.2-.5l.9-4.5c.2-.8 0-1.4-.4-1.8zm-7 4.1-6.4-6 3.5-2.8 6.2 5.9z"/></g></svg>