<svg viewBox="0 0 32 32" xmlns="http://www.w3.org/2000/svg"><g fill="#48f"><path d="m10.6 31.4c-3.7-1-5.7-3.5-5.7-7.4v-3.1c0-2.2-2.2-3.4-4.1-3.4v-3.2c1.8 0 4-1 4.1-3.1v-3.2c0-1.9.5-3.5 1.4-4.8s2.3-2.1 4.3-2.6l.9 2.6c-.8.3-1.5.8-1.8 1.6-.4.7-.7 1.6-.7 2.9v3.4c0 2.3-.9 4-2.8 5 1.9.9 2.8 2.6 2.8 5.1v3.4c0 2.5.9 4 2.5 4.5z"/><path d="m20.6 28.8c1.5-.5 2.5-2.1 2.5-4.5v-3.4c0-2.3.9-4 2.8-4.9-1.9-.9-2.8-2.6-2.8-5v-3.3c0-2.5-.9-4-2.5-4.5l.9-2.6c1.9.5 3.4 1.4 4.3 2.6s1.4 2.7 1.4 4.6v3.4c0 2.1 2.3 3.1 4.1 3.1v3.2c-1.8 0-4.1 1.2-4.1 3.4v3.4c-.1 3.6-1.9 6.1-5.7 7.1z"/></g></svg>