<svg viewBox="0 0 32 32" xmlns="http://www.w3.org/2000/svg"><path d="m290.9 318.8h-11.3c-1.6 0-2.9 1.3-2.8 2.9v23.4c0 1.6 1.2 2.9 2.8 2.9h17c1.6 0 2.9-1.3 2.8-2.9v-17.6zm-11.3 26.4v-23.4h9.9v7.3h7.1v16.1z" transform="translate(-275.1 -318.4)"/><g transform="matrix(1.45 0 0 1.45 -16.5 -18)"><path d="m20.8 22.5h4.2c1.2 0 2.1-1 2.1-2.2v-4c-.1-1.2-1-2.1-2.1-2.2 0 0 0 0-.1 0-.6-.1-3.4-.2-4.2 0-1.2.3-1.8.6-2 1.2-.1.3-.1.6-.1 1v1.6h4.2v.6h-5.9c-1.3 0-2.4.9-2.7 2.1-.1.3-.1.5-.2.8 0 .1 0 .2-.1.3-.1.4-.1.8-.1 1.2 0 .7.1 1.4.3 2.1.1.3.2.6.3.8.3.6.6 1 1.1 1.2.3.1.5.2.8.2h1.5v-2c.3-1.6 1.5-2.7 3-2.7zm-.3-5.8c-.4 0-.8-.4-.8-.8s.4-.8.8-.8.8.4.8.8c.1.4-.3.8-.8.8z" fill="#48f"/><path d="m24.9 23.5h-4.2c-1.2 0-2.1 1-2.1 2.2v4c.1 1.2 1 2.1 2.1 2.2h.1c.6.1 3.4.2 4.2 0 1.2-.3 1.8-.6 2-1.2.1-.3.1-.6.1-1v-1.6h-4.2v-.6h5.9c1.3 0 2.4-.9 2.7-2.1.1-.3.1-.5.2-.8 0-.1 0-.2.1-.3.1-.4.1-.8.1-1.2 0-.7-.1-1.4-.3-2.1-.1-.3-.2-.6-.3-.8-.3-.6-.6-1-1.1-1.2-.3-.1-.5-.2-.8-.2h-1.5v2c-.3 1.6-1.5 2.7-3 2.7zm.3 5.8c.4 0 .8.4.8.8s-.4.8-.8.8-.8-.4-.8-.8c-.1-.4.3-.8.8-.8z" fill="#ffce00"/></g></svg>