<svg height="32" viewBox="0 0 8.4666665 8.4666669" width="32" xmlns="http://www.w3.org/2000/svg" xmlns:xlink="http://www.w3.org/1999/xlink"><linearGradient id="a" gradientTransform="matrix(.26455472 0 0 .26458297 .000458 .000005)" gradientUnits="userSpaceOnUse" x1="7.007037" x2="31.749889" y1=".250111" y2="25.215469"><stop offset="0" stop-color="#ff5959"/><stop offset=".49705938" stop-color="#f00"/><stop offset="1" stop-color="#cf0000"/></linearGradient><path d="m.14093104 1.794936c.57113131-.5762625 1.14226796-1.15252239 1.71326966-1.7287849.6566381.66251671 1.3134082 1.3252953 1.970049 1.9880765.2768063-.0508.5410965-.0508.8179001 0 .6566406-.6627812 1.313411-1.32555979 1.9700489-1.9880765.5711341.57626251 1.1422682 1.1525224 1.7132697 1.7287849-.6305502.6363229-1.2612381 1.2729078-1.8917912 1.9092307.0944674.3466042.1077717.6723063.0421621 1.025525.6413548.6474328 1.2828445 1.2946036 1.9242019 1.9417745-.5711341.5765244-1.1421356 1.1525223-1.7132723 1.7290494-.6202749-.6260042-1.240685-1.2520083-1.8610922-1.8780098-.4069752.109802-.7777167.109802-1.1846893 0-.6204098.6257369-1.2406849 1.2517411-1.8610948 1.8780098-.5711313-.5765271-1.14226535-1.152525-1.71326705-1.7290494.6413547-.6471709 1.28284175-1.2943417 1.92419915-1.9417745-.0657419-.3532187-.0523025-.6789208.0421594-1.025525-.6308148-.6365875-1.26136785-1.2729078-1.89205306-1.9092307z" fill="url(#a)" stroke="#fff" stroke-linecap="round" stroke-linejoin="round" stroke-width=".132349"/></svg>