<svg height="32" viewBox="0 0 8.4666665 8.4666669" width="32" xmlns="http://www.w3.org/2000/svg" xmlns:xlink="http://www.w3.org/1999/xlink"><linearGradient id="a" gradientUnits="userSpaceOnUse" x1="394.318327" x2="397.668017" y1="-58.609628" y2="-83.109628"><stop offset="0" stop-color="#81b1dc"/><stop offset="1" stop-color="#fafcff"/></linearGradient><linearGradient id="b" gradientUnits="userSpaceOnUse" x1="107.54081" x2="126.10688" y1="127.76182" y2="139.2025"><stop offset="0" stop-color="#c99052"/><stop offset="1" stop-color="#94632e"/></linearGradient><linearGradient id="c" gradientUnits="userSpaceOnUse" x1="181.99538" x2="211.41646" y1="18.469927" y2="36.703697"><stop offset="0" stop-color="#f9f9f9"/><stop offset="1" stop-color="#f2f2f2"/></linearGradient><linearGradient id="d" gradientUnits="userSpaceOnUse" x1="192.1006" x2="218.43118" y1="8.150581" y2="25.67844"><stop offset="0" stop-color="#ed8585"/><stop offset="1" stop-color="#de7979"/></linearGradient><g transform="matrix(.2645547206 0 0 .26458297281 -100.60656755692 22.74068929267)"><path d="m388.6008-85.861768s15.5 3 15.5 3c-.75.458333-1.49883.91595-1.99944 1.593499-.50062.677548-.75023 1.571981-.86497 2.875296-.11474 1.303314-.0939 3.009385.0311 4.791233.12502 1.781848.35406 3.634941.61451 5.249899.26046 1.614959.55199 2.989318.94795 4.468985.39595 1.479667.89567 3.062133 1.23948 3.999874.3438.937741.53123 1.229294.58344 1.656186.0522.426891-.031.988905-.23947 1.572808-.20842.583904-.54109 1.186865-1.1146 1.520813s-1.38441.396325-2.47921.292097c-1.09481-.104228-2.468-.374704-5.1462-.895755-2.67819-.52105-6.65512-1.291451-8.91584-1.843556s-2.80228-.885373-3.10458-1.292258c-.30229-.406885-.36476-.885809-.32299-1.364717.0418-.478909.18787-.958932.55215-1.312453s.94907-.583259 1.52124-.666371c.57217-.08311 1.13583-.02048 1.46887-.125089.33305-.104607.43738-.375863.31285-1.351048-.12452-.975185-.48026-2.670199-.81351-4.565599-.33324-1.8954-.64588-4.00051-.7604-5.885704-.11451-1.885194-.0311-3.552521.18762-5.093806.21876-1.541286.57315-2.958843.89398-3.944101s.61699-1.556428.95541-1.941349c.33842-.38492.72465-.593694 1.10888-.801384" fill="url(#a)"/><path d="m406.48397-82.752988c-.0192.0011-.11098-.01312-.20393-.03157-.28191-.05593-.65247-.09689-.94829-.104814-.1626-.0044-.11384.0047-1.4392-.266817-7.00266-1.434464-12.35658-2.420127-14.34993-2.64183-.72495-.08064-1.02382-.06906-1.28324.04968-.0671.03072-.21895.09125-.33733.134501-.65441.239016-1.08444.613373-1.48105 1.289349-.45581.77682-.86876 2.049146-1.20785 3.721387-.19392.956285-.27284 1.861925-.27423 3.146714-.004 3.357756.64262 8.724783 1.76356 14.646513.0243.128247.0416.234519.0386.236156-.003.0015-.16691-.02562-.36414-.06057-.42767-.07574-.44562-.07821-.65359-.08924-.82678-.04385-1.61588.122828-2.16277.456856-.3472.212043-.63356.502136-.8261.836852-.16092.27975-.28909.724406-.29995 1.041319-.0396 1.136797.84224 2.159734 2.47992 2.876786.32834.143761.31519.140447 1.70416.42885.76539.158915 3.65217.752004 4.67104.959654.39268.08004.98264.200341 1.31104.267357.32839.06701.91838.187249 1.31107.267177 1.00751.205061 2.09345.426125 2.60285.529875.23919.04873 1.07647.218873 1.86064.378126s1.45426.296619 1.48908.305248l.0633.01568.0138-.04766c.0115-.03972.0183-.04653.0394-.04132.0218.0054.0233.01432.0101.05996l-.0156.05361.18924.0467c1.17514.29006 2.12007.316377 2.88777.08037.51033-.156886.90433-.400625 1.24919-.772799.22562-.243479.40595-.524768.55461-.865076.068-.15569.22075-.684022.25148-.869941.0607-.366813.0882-.700532.0828-1.003238-.01-.559191-.14371-1.145776-.36987-1.621657-.0396-.08337-.14951-.280133-.24418-.437228-.22398-.371697-.32825-.596004-.51344-1.104511-.61493-1.688475-1.28029-4.643613-1.66018-7.373566-.23519-1.690142-.45095-4.46012-.49883-6.404462-.0135-.549471-.0179-1.421596-.007-1.426884.0111-.0055 1.57397.347375 3.14491.709908.47786.110265.77652.173723.90005.191205 1.05241.148813 1.88441.04592 2.55986-.316603.54867-.294472.93723-.714519 1.22559-1.324974.0636-.134723.0915-.214729.17615-.505491.10692-.367374.13511-.511187.17406-.886806.2079-2.006226-.84625-3.578793-2.90714-4.336849-.18807-.06917-.65528-.198796-.70622-.195919zm.51259 1.38606c.65573.291416 1.13521.672979 1.4456 1.150345.33295.512085.4647 1.076287.41477 1.776112-.052.729118-.25784 1.305093-.58987 1.650819-.31217.325055-.77195.494743-1.36844.505038-.31924.0055-.73116-.03804-.92039-.09732-.28139-.0881-.62102-.22683-.89079-.363766-.35922-.182332-.63201-.419412-.8266-.718384-.21169-.325226-.25551-.623286-.14693-.999436.0349-.120926.052-.164509.0649-.165233.01-.000413.22265.03814.47344.08591 1.1087.21126 2.67486.508692 2.71525.515662l.0442.0076.18346-.305739c.20321-.338722.26709-.483977.27952-.635726.0353-.43093-.2066-1.031658-.57308-1.423061-.22469-.239982-.39159-.345459-.88237-.557613-.21189-.09159-.56929-.188934-.76414-.208067-.16464-.01617-.42137-.0069-.56338.02048-.75702.145664-1.40406.737242-1.95058 1.783402-.126.241247-.17171.353579-.24056.591702-.11542.399184-.13083.752151-.0491 1.123794.0389.176766.12568.414666.19612.537496.0152.02652.024.05008.0196.05246-.01.0054-1.11064-.237491-1.116-.246068-.008-.01271.0505-.769796.082-1.063181.0761-.709028.14923-1.105035.30224-1.636377.12251-.424902.16723-.545686.28268-.760042.13506-.250875.23915-.362334.44413-.475498.49471-.273151 1.03256-.43375 1.63625-.488592.10564-.0097.22546-.01746.26629-.0175.0408-.000014.13301-.000148.20486-.000228.1707-.000259.464.02241.67906.05248.12544.01755.28034.05215.57455.128385.36951.09557.41692.110669.57331.180188zm-4.643-.820779c-.14328.08377-.23562.150143-.34612.248819-.84953.758693-1.28624 2.565604-1.34412 5.561244-.0362 1.873186.0763 4.129006.33645 6.749606.10228 1.030103.22615 1.944667.4062 2.999564.46857 2.745277 1.13109 5.340071 1.70179 6.665106.13823.320963.20744.455206.38198.740922.0859.140701.17779.301377.20409.357065.12137.256965.21816.6111.24639.901692.0492.506033-.0202 1.085414-.18748 1.564855-.30312.869064-.95986 1.244257-2.06461 1.179506-.32608-.01911-.53267-.05636-.76616-.138215-.48847-.171207-.9019-.375855-1.14044-.564536-.24593-.194517-.48212-.491608-.56108-.705795-.056-.151835-.0987-.411338-.0702-.426625.008-.0043 1.46375.268645 2.77872.52085.21979.04216.39724.0708.4089.06599.024-.0099.28249-.420758.36885-.586251.14728-.282264.22579-.536117.22747-.735412.002-.240321-.0702-.617934-.17163-.898155-.19495-.538318-.54152-.909527-.99197-1.062479-.0517-.01738-.20604-.07178-.34312-.120556-.29224-.103979-.71258-.213851-.84853-.221788-.0574-.0034-.088-.0099-.091-.01919-.003-.0092-2.10752-.388625-6.1223-1.103788-3.36479-.599372-6.15365-1.095651-6.19748-1.102835l-.0797-.01305-.0592-.310888c-.87231-4.582033-1.46459-8.75432-1.70176-11.987904-.16185-2.206785-.14967-3.995418.0354-5.195249.0569-.369293.1895-.999864.33425-1.590127.0974-.397002.3534-1.251714.44696-1.491969.28791-.739498.54633-1.173825.84311-1.417005.0996-.08158.23617-.15096.44129-.224108.0987-.03519.21823-.08055.26568-.100792.10388-.04431.11244-.04461.45132-.01559.50851.04355 1.14915.133872 2.4567.346329.53649.08716 1.63635.28082 2.75338.484785 1.10735.20219 3.12914.588834 4.75438.909208.211.04159.49197.09678.62437.122608.13239.02582.5448.107715.91647.181976.37165.07427.89214.178152 1.15662.230902.26447.05274.52059.104929.56911.116051l.0882.02024zm3.48995 2.285524c.38192.153855.47897.219212.60244.405739.0401.06057.0694.111669.065.113552-.0113.0049-1.63418-.305163-1.63912-.313118-.009-.01392.15533-.149599.24213-.200413.22263-.130328.41646-.131856.72951-.0058zm-4.85676 21.125747c.13023.04623.25697.08914.28163.09538.14591.03689.24483.16862.3301.439462.0414.131592.0874.39602.0758.436448-.006.02051-.0171.02536-.0509.02204-.0239-.0024-.46242-.08485-.97448-.183385-.51209-.09852-.9601-.183163-.99562-.188092l-.0646-.009.0218-.04525c.0383-.07932.22896-.3388.33198-.451708.16969-.186005.30124-.270573.42874-.275612.0859-.0034.34683.06431.61551.159671zm-2.16894-.438269c-.18697.228114-.50776.760023-.69179 1.147156-.0854.179642-.19767.565927-.22033.758308-.0528.447029.0237.87859.22716 1.282969l.0529.105194-.043-.0046c-.0236-.0025-1.04469-.209075-2.26897-.459091-1.22431-.250019-2.81304-.574334-3.5305-.720707-3.08899-.630179-5.87156-1.203153-6.42187-1.322357-.24992-.05411-.27573-.062-.44844-.136646-.81708-.353128-1.42598-.827738-1.65411-1.289323-.0626-.12672-.112-.338139-.11149-.477382.00055-.150745.082-.431935.16573-.571921.19604-.327865.53682-.525618 1.06236-.616492.28435-.04918.65705-.0619.87316-.02982.0855.01271 12.89831 2.289817 12.98087 2.306993.0367.0076.0411.01196.0283.02762z" stroke="#fff" stroke-width=".199379"/></g><g transform="matrix(.03310821167 0 0 .0331117465 -.26838128977 3.21917028861)"><path d="m191.59911 3.7459318-85.67687 112.6629382-.39425 33.36161 30.55752-12.57167 86.43968-110.417464s.64532-2.81747-.0798-4.543317c-1.40459-3.343616-4.77661-6.994484-7.4127-9.48517-2.90505-2.744811-6.17209-5.1823439-9.72418-7.0142443-2.64345-1.3632918-5.50606-2.4378902-8.44887-2.8694633-1.17966-.1730007-3.57448.1293548-3.57448.1293548z"/><g stroke="#000"><path d="m107.7683 116.66991-.31449 26.78469 3.19724 2.44929 24.73031-10.52253-4.13136-7.94492-7.62712-.63559-1.58898-6.35594-6.37521.26327-1.25191-4.71242z" fill="url(#b)" stroke-width=".377953"/><path d="m114.40678 115.99576 70.04689-91.133823-5.77252-2.218931-70.91285 94.026904z" fill="#ffe00d" stroke-width=".578"/><path d="m122.0339 120.44491 70.35038-90.920025-7.93061-4.662948-70.04689 91.133823 1.25191 4.71242z" fill="#ffd400" stroke-width=".578"/><path d="m131.25 127.43644 70.99453-89.345079-9.86025-8.566476-70.35038 90.920025 1.58898 6.35594z" fill="#ffce00" stroke-width=".578"/><path d="m135.38136 135.38136 71.85911-91.611924-4.99594-5.678075-70.99453 89.345079z" fill="#ffd100" stroke-width=".578"/><path d="m178.68115 22.643006 5.77252 2.218931 7.93061 4.662948 9.86025 8.566476 4.99594 5.678075 9.49825-12.307202-4.38196-5.617903-9.88752-7.977423-8.31449-4.943755-6.1797-1.797729z" fill="url(#c)" stroke-width=".377953"/></g><path d="m184.26106 15.362825-2.26568 3.107102 5.54746 2.304901 8.02344 4.46875 9.37891 7.851563 5.49165 6.281315 2.49202-3.217624-5.1243-5.91916-9.94727-8.328125-8.63281-4.808594z"/><path d="m187.97505 11.125424 6.1797 1.797729 8.31449 4.943755 9.88752 7.977423 4.38196 5.617903 4.41721-5.95167s-.16593-1.388763-.59704-2.587543c-.72254-2.009158-2.43314-3.536042-3.93253-5.056113-2.86295-2.902438-6.20882-5.54326-9.55043-7.8786965-2.19015-1.5306872-4.38059-2.9075763-6.85385-3.918901-1.81627-.7426812-3.2759-1.0205668-4.97184-1.1235808-.74211-.045076-2.21907.2247162-2.21907.2247162z" fill="url(#d)" stroke="#000" stroke-width=".377953"/></g></svg>