<svg height="32" viewBox="0 0 8.4666665 8.4666669" width="32" xmlns="http://www.w3.org/2000/svg" xmlns:xlink="http://www.w3.org/1999/xlink"><linearGradient id="a" gradientUnits="userSpaceOnUse" x1="19.290424" x2="14.589502" y1="22.78676" y2="12.928709"><stop offset="0" stop-color="#f2f2f2"/><stop offset="1" stop-color="#f9f9f9"/></linearGradient><linearGradient id="b" gradientUnits="userSpaceOnUse" x1="18.544037" x2="16.992805" y1="18.578337" y2="12.497519"><stop offset="0" stop-color="#999"/><stop offset="1" stop-color="#f2f2f2"/></linearGradient><g transform="matrix(.26456319 0 0 .26458484 .000324396 -.03069700306)"><path d="m19.46789 10.645472c-4.557909 1.076875-9.115594 2.153529-13.6732799 3.230404-.0576668-1.805701-.1905901-2.525902-.3123807-3.234163-.1217906-.7082609-.2324486-1.4048021-.4539873-2.1652483-.2213161-.7604461-.5535128-1.5850183-1.9929577-4.1140159 4.3918099-.623128 8.7836196-1.2462561 13.1752066-1.8693841 2.325155 3.5298058 2.878668 6.0588034 3.257399 8.1524073z" fill="#ececec" stroke="#000" stroke-linecap="round" stroke-linejoin="round" stroke-width=".221887"/><path d="m5.7578726 28.444202c8.3104844-2.199302 16.6207464-4.398824 24.9314534-6.597904.246698-1.380921.334868-2.637349.316834-3.868126-.018258-1.230777-.143166-2.436347-.508983-3.888027s-.973212-3.149693-4.810173-5.6579051c-8.377502 1.9792831-16.7550051 3.9583441-25.13250775 5.9376271-.14761825 2.932107-.2952365 5.864435-.44285475 8.796542.54772382 1.332716 3.0941943 3.641695 5.6462311 5.277793z" stroke="#f9f9f9" stroke-linecap="round" stroke-linejoin="round" stroke-width=".221887"/><path d="m14.361394 25.516626c2.496374-.627108 7.499586-1.869384 10.141797-2.557743 2.642211-.68836 2.923643-.823025 3.106218-.859289.182352-.03626.265623.02587.875467.49178.609844.465688 1.745814 1.335369 2.412879 1.873586.667066.538216.865226.745409.943377.941989.07815.1968.03652.382987-.25182.551262-.288334.168276-.823366.318198-3.092635.945527-2.269269.62733-6.272551 1.731845-8.462333 2.314508-2.189782.582662-2.565841.643913-2.927428.629761-.36181-.01415-.709369-.103707-1.05025-.276184-.341102-.172477-.675748-.428317-1.26778-.926289-.592254-.498193-1.441894-1.238959-1.944865-1.671699-.50297-.43274-.659272-.557454-.753899-.635732-.09441-.07828-.127135-.110562-.150958-.131348-.0236-.02057-.03852-.02941-.05099-.04002-.01291-.01061-.02315-.023 2.473218-.650105z" fill="#333" fill-opacity=".996078"/><path d="m.83904545 15.750788c-.0932912.922972-.2502608 2.695504-.29924423 3.77658-.0489834 1.081077.009797 1.470697.23534312 1.977072.22554646.506595.61763656 1.129723 1.24529246 1.821179.6276558.691455 1.4906548 1.451238 2.1574974 1.957612.6668427.506375 1.1375289.759783 1.4806356.905725.3433293.146163.5590791.18486 1.6770145-.0586 1.1179355-.243458 3.1380567-.769291 7.1685027-1.870047 4.030446-1.100536 10.071216-2.775551 13.121103-3.652088 3.049886-.876536 3.108666-.954372 3.108666-1.314804 0-.360212-.05878-1.003241-.156969-1.938154-.09819-.934913-.235344-2.162152-.49028-3.155663-.255159-.99329-.627656-1.753073-1.068952-2.42507-.441296-.671994-.951169-1.256425-1.373095-1.655555-.421703-.39935-.755013-.6136193-1.039339-.8181592-.284327-.2045399-.51967-.3993503-.715826-.4869155-.196157-.0875652-.352904-.0683274-4.344385.8665857-3.991259.935134-11.8168077 2.785502-15.8321131 3.749161-4.0153055.963659-4.2203679 1.040389-4.3722166 1.100977-.1520713.060589-.2507061.105256-.3148299.164296-.0639011.05948-.0935138.133117-.18680495 1.055868z" fill="url(#a)"/><path d="m282.563 871.235 12.511-3.661-.763-7.933-12.86 3.287z" fill="#ff0" transform="matrix(.22265196 0 0 .22112421 -35.897192 -173.22395)"/><path d="m7.5315181 12.995138c4.6055559-1.089258 9.2111119-2.178516 13.8166669-3.2677736 1.29205 1.0412736 2.190228 2.2678496 2.719026 3.0784916.528576.81042.687549 1.204905.806668 1.701772.119119.496866.198606 1.096555.150958 1.585681-.04765.489127-.222429.867692-.89751 1.238517-.675303.370825-1.850906.73369-2.534002.930933s-.873686.228863-1.024644.189282c-.150958-.03936-.262061-.149922-.484491-.212942-.222429-.06324-.555962-.07894-.865893-.0157-.309709.06302-.595817.204982-.802215.386525-.206621.181322-.333756.402225-.389196.528487-.05566.126262-.03985.157661-.675303.331465-.635449.173582-1.922155.489127-2.77224.662709-.850085.173583-1.262882.205203-1.580829.157662-.317724-.047321-.540153-.173583-.730743-.362865-.190591-.189282-.349564-.441806-.500522-.781011-.150958-.339204-.293901-.76509-.484491-1.270137-.19059-.504827-.428827-1.088595-.905525-1.853906-.4766981-.765311-1.1916335-1.711722-2.8457149-3.02719z" fill="url(#b)" stroke="#333" stroke-linecap="round" stroke-linejoin="round" stroke-width=".221887"/><path d="m5.6164886 26.170824c.1411613-.805998.0834944-1.783588-.1578603-2.969035s-.665952-2.578308-1.2063283-3.907486c-.5403763-1.329177-1.1967543-2.594229-3.29613962-4.454547-.0302807.126925-.0630105.376575-.11689227.911032-.0932912.922972-.25026081 2.695504-.29924424 3.77658-.0489834 1.081077.009797 1.470697.23534312 1.977072.22554641.506595.61763651 1.129723 1.24529241 1.821179.6276559.691455 1.4906549 1.451238 2.1574975 1.957612.6668426.506375 1.1375289.759783 1.4806355.905725.1605321.06833.2932327.113216.5036388.116754" fill="#b3b3b3"/><path d="m12.754042 25.384948c4.556795-1.145202 9.11359-2.290183 13.670163-3.435607.03317-1.188321-.05833-1.303748-.121123-1.362346-.06301-.0586-.09774-.06015-2.262589.455516-2.164845.515662-6.459801 1.548533-8.687434 2.090287-2.227633.541533-2.388165.59195-2.53801.717769-.149622.12582-.289002.327043-.06101 1.534381z" fill="#1a1a1a"/><path d="m14.374503 24.939825c2.496374-.627108 7.499586-1.869384 10.141797-2.557743 2.642211-.68836 2.923643-.823025 3.106218-.859289.182352-.03626.265623.02587.875467.49178.609844.465688 1.745814 1.335369 2.412879 1.873586.667066.538216.865226.745409.943377.941989.07815.1968.03652.382987-.25182.551262-.288334.168276-.823366.318198-3.092635.945527-2.269269.62733-6.272551 1.731845-8.462333 2.314508-2.189782.582662-2.565841.643913-2.927428.629761-.36181-.01415-.709369-.103707-1.05025-.276184-.341102-.172477-.675748-.428317-1.26778-.926289-.592254-.498193-1.441894-1.238959-1.944865-1.671699-.50297-.43274-.659272-.557454-.753899-.635732-.09441-.07828-.127135-.110562-.150958-.131348-.0236-.02057-.03852-.02941-.05099-.04002-.01291-.01061-.02315-.023 2.473218-.650105z" style="fill:#d6d9d4;fill-opacity:.996078;stroke:#ccc;stroke-width:.221887;stroke-linecap:round;stroke-linejoin:round"/><g fill="none" stroke="#000" stroke-width=".4"><path d="m5.6631356 6.2012711 10.8543434-1.782839"/><path d="m6.7118644 8.5084745 10.2775426-1.9925848"/><path d="m7.498411 10.763241 4.929025-.9962919"/></g></g></svg>