<svg height="32" viewBox="0 0 8.4666665 8.4666669" width="32" xmlns="http://www.w3.org/2000/svg"><g stroke="#000" transform="matrix(.26455472 0 0 .26458298 .026128 -.136438)"><g stroke-linecap="round" stroke-linejoin="round"><g fill="#666" transform="matrix(.38808246 0 0 .38867605 113.28527 -279.324254)"><path d="m-253.672 753.605 41.872 22.441-37.934 23.064-41.926-21.525z"/><path d="m-253.672 753.605 41.872 22.441-8.794 5.347-40.913-22.842z"/></g><path d="m-211.8 776.046-37.934 23.064-41.926-21.525 37.988-23.98z" fill="#f2f2f2" transform="matrix(.38808246 0 0 .38867605 113.28527 -280.22376)"/><path d="m-211.8 776.046-8.794 5.347-40.913-22.842 7.835-4.946z" fill="#0ff" transform="matrix(.38808246 0 0 .38867605 113.28527 -280.22376)"/><path d="m-258.042 738.87-28.137-13.37v26.74l28.137 13.371z" fill="#f9f9f9" transform="matrix(.38808246 0 0 .38867605 113.28527 -280.22376)"/><path d="m-286.179 725.5v9.167l28.137 14.005v-9.802z" fill="#0ff" transform="matrix(.38808246 0 0 .38867605 113.28527 -280.22376)"/><path d="m-210.204 737.431-.603 5.549-5.537 5.528.393-5.447z" fill="#e4b600" transform="matrix(.38808246 0 0 .38867605 113.28527 -280.22376)"/><path d="m-215.951 743.061-.393 5.447-11.727-10.859-.375-6.286z" fill="#e7bf00" transform="matrix(.38808246 0 0 .38867605 113.28527 -280.22376)"/><path d="m-210.204 737.431-12.217-11.739-6.025 5.671 12.495 11.698z" fill="#ffcb00" transform="matrix(.38808246 0 0 .38867605 113.28527 -280.22376)"/><path d="m-229.243 751.53-11.323 12.603 5.869 5.832 11.273-12.88z" fill="#f00" transform="matrix(.38808246 0 0 .38867605 113.28527 -280.22376)"/><path d="m-223.424 757.085 5.458.211-10.461 12.084-6.27.585z" fill="#800000" transform="matrix(.38808246 0 0 .38867605 113.28527 -280.22376)"/><path d="m-229.243 751.53 5.567.417 5.71 5.349-5.458-.211z" fill="#d40000" transform="matrix(.38808246 0 0 .38867605 113.28527 -280.22376)"/><path d="m-210.807 742.98-5.537 5.528.393-5.447 5.747-5.63z" fill="#e4b600" transform="matrix(.38808246 0 0 .38867605 113.28527 -261.485431)"/><path d="m-216.344 748.508-11.727-10.859-.375-6.286 12.495 11.698z" fill="#e7bf00" transform="matrix(.38808246 0 0 .38867605 113.28527 -261.485431)"/><path d="m-222.421 725.692-6.025 5.671 12.495 11.698 5.747-5.63z" fill="#ffcb00" transform="matrix(.38808246 0 0 .38867605 113.28527 -261.485431)"/></g><path d="m3.5355337 9.1074194c2.0627785 1.0608576 4.1251735 2.1215176 6.1871839 3.1819806" fill="none"/><path d="m9.4575526 18.211419c2.7993354 1.473334 5.5982994 2.946473 8.3968924 4.419417" fill="none"/><path d="m6.8942907 19.802409c3.8894293 2.150972 7.7785163 4.301755 11.6672613 6.452349" fill="none"/></g></svg>