<svg height="32" viewBox="0 0 8.4666665 8.4666669" width="32" xmlns="http://www.w3.org/2000/svg" xmlns:xlink="http://www.w3.org/1999/xlink"><linearGradient id="a" gradientUnits="userSpaceOnUse" x1="-309.05624" x2="-360.70322" xlink:href="#b" y1="276.37445" y2="223.4808"/><linearGradient id="b"><stop offset="0" stop-color="#f8b509"/><stop offset="1" stop-color="#fcf52e"/></linearGradient><filter id="c" color-interpolation-filters="sRGB" height="1.088436" width="1.080337" x="-.040169" y="-.044218"><feGaussianBlur stdDeviation="1.1703453"/></filter><linearGradient id="d" gradientUnits="userSpaceOnUse" x1="-311.95728" x2="-364.69238" xlink:href="#b" y1="279.44125" y2="249.88304"/><linearGradient id="e" gradientTransform="matrix(.99998369 0 0 1.0004223 .000261 -.013468)" gradientUnits="userSpaceOnUse" x1="22.520376" x2="6.978875" y1="17.384663" y2="5.667965"><stop offset="0" stop-color="#008000"/><stop offset=".26857078" stop-color="#00ab00"/><stop offset=".5757919" stop-color="#00d400"/><stop offset=".81298268" stop-color="#00a100"/><stop offset="1" stop-color="#008000"/></linearGradient><g transform="matrix(.26027277 0 0 .26030056 .06897 .070271)"><path d="m-365.483 215.719-5.085 5.085v76.397l69.926-18.736v-59.645l-42.204 1.198-1.528-5.696z" fill="url(#a)" stroke="#000" stroke-linecap="round" stroke-linejoin="round" stroke-width="1.00021" transform="matrix(.40897088 0 0 .38150205 153.25267 -81.580244)"/><path d="m-370.568 297.201v-51.273l69.926-12.249v44.786z" fill="#333" filter="url(#c)" transform="matrix(.40897088 0 0 .38150205 153.25267 -82.765024)"/><path d="m-370.568 297.201v-51.273l69.926-12.249v44.786z" fill="url(#d)" transform="matrix(.40897088 0 0 .38150205 153.25267 -81.580244)"/><path d="m17.056384 2.3883576c-4.017731-.0316647-8.6272414 1.4016385-11.3943384 4.8378275 1.670237 3.8787319 4.9677694 6.9547819 8.2444434 8.7196109 0-1.535164 0-3.070329 0-4.605493 7.471898-.510831 9.500394 4.914509 4.733839 10.345954 9.603032-5.04689 7.03348-16.907026-3.92244-15.5191216.779498-1.2597198 1.558996-2.5194396 2.338496-3.7787778z" fill="url(#e)" stroke="#fff" stroke-linecap="round" stroke-linejoin="round" stroke-width=".895182"/></g></svg>