<svg height="32" viewBox="0 0 8.4666665 8.4666669" width="32" xmlns="http://www.w3.org/2000/svg" xmlns:xlink="http://www.w3.org/1999/xlink"><linearGradient id="a" gradientUnits="userSpaceOnUse" x1="10.502182" x2="6.317204" y1="5.387375" y2="15.472635"><stop offset="0" stop-color="#f2f2f2"/><stop offset=".42408159" stop-color="#ececec"/><stop offset=".57874084" stop-color="#fff"/><stop offset=".73340011" stop-color="#f2f2f2"/><stop offset="1" stop-color="#f9f9f9"/></linearGradient><linearGradient id="b" gradientUnits="userSpaceOnUse" x1="5.346654" x2="14.84261" xlink:href="#c" y1="25.233967" y2="25.233967"/><linearGradient id="c"><stop offset="0" stop-color="#2929ff"/><stop offset=".2402378" stop-color="#8c8cef"/><stop offset="1" stop-color="#0000d1"/></linearGradient><linearGradient id="d" gradientUnits="userSpaceOnUse" x1="5.451285" x2="14.737869" xlink:href="#e" y1="25.234188" y2="25.234188"/><linearGradient id="e"><stop offset="0"/><stop offset=".41192371" stop-color="#4e4e4e"/><stop offset=".559789" stop-color="#918773"/><stop offset=".69645923" stop-color="#948563"/><stop offset="1"/></linearGradient><linearGradient id="f" gradientUnits="userSpaceOnUse" x1="17.249456" x2="26.745413" xlink:href="#c" y1="25.286404" y2="25.286404"/><linearGradient id="g" gradientUnits="userSpaceOnUse" x1="17.354198" x2="26.640781" xlink:href="#e" y1="25.286625" y2="25.286625"/><g stroke-linecap="round" stroke-linejoin="round" stroke-width=".3" transform="matrix(.25296724 0 0 .25299426 .174213 .209747)"><path d="m18.150056 21.690552c.295955-.702154.592324-1.404308.888693-2.106462-3.914559-6.458819-7.828705-12.9176382-11.7432644-19.37645717-.2491159 5.99432337 1.5833988 10.00829717 3.2028594 12.92596217 1.61946 2.917665 3.025867 4.738604 4.061293 5.508185 1.035427.769581 1.699874.487387 3.590419 3.048772z" fill="url(#a)" stroke="#000" stroke-width="1"/><path d="m13.849595 21.690552c-.296369-.702154-.592324-1.404308-.888693-2.106462 3.91456-6.458819 7.828705-12.9176382 11.743265-19.37645717.249116 5.99432337-1.582985 10.00829717-3.202445 12.92596217-1.619461 2.917665-3.025867 4.738604-4.061294 5.508185-1.035841.769581-1.700288.487387-3.590833 3.048772z" fill="#f2f2f2" stroke="#000" stroke-width="1"/><path d="m12.513672 18.675781c-.424192.0086-.90215.199819-1.56836.464844-.888277.35295-2.1106237.836087-2.9433589 1.189453-.8327351.353366-1.2763109.574565-1.5722656 1.541016-.2959546.96645-.4457727 2.676561-.59375 3.921875-.1479773 1.244898-.2964105 2.026085.3261719 2.929687.6225825.904019 2.0154054 1.931932 2.8261718 2.511719.810352.579787 1.0392638.712039 1.8359378.382813.796673-.329226 2.162413-1.120451 2.86914-1.607422.706728-.486971.754847-.670244.779297-2.285157.02446-1.615329.02469-4.662217-.234375-6.464843-.259064-1.802625-.777673-2.360442-1.314453-2.527344-.134195-.04183-.268759-.05951-.410156-.05664zm-.779288 2.636454c.08485-.0017.165239.0076.245721.03242.321581.09881.632545.430599.787946 1.501276.155403 1.070677.155481 2.880033.14088 3.839117-.0146.959083-.04273 1.067809-.46687 1.356985-.424139.289176-1.243661.759367-1.721687.954916s-.6161.117136-1.1024692-.226973c-.4867168-.344451-1.3220951-.954997-1.6954765-1.491546-.3733814-.536547-.2839386-1.000248-.1949389-1.739599.088652-.739351.177825-1.754254.3554767-2.328114.1776516-.573861.4439895-.706291.9435696-.916005.4995801-.209713 1.2326133-.497497 1.7659163-.706865.399717-.157285.687367-.270397.941932-.275612z" fill="url(#b)" stroke="url(#d)" stroke-width=".509308"/><ellipse cx="16.016209" cy="17.369003" fill="#1a1a1a" rx=".763513" ry=".766667" stroke="#000" stroke-width=".3"/><path d="m19.578395 18.728217c.424192.0086.90215.199819 1.56836.464844.888277.35295 2.110623.836087 2.943359 1.189453.832735.353366 1.27631.574565 1.572265 1.541016.295955.96645.445773 2.676561.59375 3.921875.147977 1.244898.296411 2.026085-.326172 2.929687-.622582.904019-2.015405 1.931932-2.826172 2.511719-.810352.579787-1.039263.712039-1.835937.382813-.796673-.329226-2.162413-1.120451-2.86914-1.607422-.706728-.486971-.754847-.670244-.779297-2.285157-.02446-1.615329-.02469-4.662217.234375-6.464843.259064-1.802625.777673-2.360442 1.314453-2.527344.134195-.04183.268759-.05951.410156-.05664zm.779288 2.636454c-.08485-.0017-.165239.0076-.245721.03242-.321581.09881-.632545.430599-.787946 1.501276-.155403 1.070677-.155481 2.880033-.14088 3.839117.0146.959083.04273 1.067809.46687 1.356985.424139.289176 1.243661.759367 1.721687.954916s.6161.117136 1.102469-.226973c.486717-.344451 1.322095-.954997 1.695476-1.491546.373382-.536547.283939-1.000248.194939-1.739599-.08865-.739351-.177825-1.754254-.355476-2.328114-.177652-.573861-.44399-.706291-.94357-.916005-.49958-.209713-1.232613-.497497-1.765916-.706865-.399717-.157285-.687367-.270397-.941932-.275612z" fill="url(#f)" stroke="url(#g)" stroke-width=".509308"/></g></svg>