<svg height="32" viewBox="0 0 8.4666665 8.4666669" width="32" xmlns="http://www.w3.org/2000/svg" xmlns:xlink="http://www.w3.org/1999/xlink"><linearGradient id="a" gradientUnits="userSpaceOnUse" x1="-12.799535" x2="-21.195122" xlink:href="#b" y1="761.08533" y2="729.36072"/><linearGradient id="b"><stop offset="0" stop-color="#ffd43b"/><stop offset=".65879381" stop-color="#ffdd3e"/><stop offset="1" stop-color="#ffed92"/></linearGradient><linearGradient id="c" gradientUnits="userSpaceOnUse" x1="19.69606" x2="27.831936" xlink:href="#b" y1="18.704435" y2="18.704435"/><linearGradient id="d" gradientUnits="userSpaceOnUse" x1="19.69606" x2="27.831936" xlink:href="#b" y1="26.482609" y2="26.482609"/><g stroke-linecap="round" stroke-linejoin="round" transform="matrix(.29795295 0 0 .29587476 -.241099 -.265259)"><path d="m-36.093 764.082v-32.678l5.041-5.04h12.2l5.214 5.214h32.354v32.504z" fill="url(#a)" stroke="#000" stroke-width="2.20864" transform="matrix(.33097322 0 0 .33097322 14.713871 -239.18857)"/><path d="m11.330446 15.38866a.85008502.85008502 0 0 0 -.592779 1.459l1.568891 1.569534-1.685895 1.686544a.85008502.85008502 0 1 0 1.201717 1.201717l2.287723-2.287078a.85008502.85008502 0 0 0 0-1.201717l-2.170072-2.170718a.85008502.85008502 0 0 0 -.609585-.257282z" stroke="#fff" stroke-width=".377813"/><path d="m20.296061 16.566679h6.935875v4.275512h-6.935875z" fill="url(#c)" stroke="#000" stroke-width=".8"/><circle cx="16.780806" cy="18.656786" fill="#1a1a1a" r="1.425171" stroke="#fff" stroke-width=".330973"/><path d="m11.330446 23.166834a.85008502.85008502 0 0 0 -.592779 1.459l1.568891 1.569534-1.685895 1.686544a.85008502.85008502 0 1 0 1.201717 1.201717l2.287723-2.287078a.85008502.85008502 0 0 0 0-1.201717l-2.170072-2.170718a.85008502.85008502 0 0 0 -.609585-.257282z" stroke="#fff" stroke-width=".377813"/><path d="m20.296061 24.344852h6.935875v4.275512h-6.935875z" fill="url(#d)" stroke="#000" stroke-width=".8"/><circle cx="16.780806" cy="26.434959" fill="#1a1a1a" r="1.425171" stroke="#fff" stroke-width=".330973"/></g></svg>