<svg height="32" viewBox="0 0 8.4666665 8.4666669" width="32" xmlns="http://www.w3.org/2000/svg" xmlns:xlink="http://www.w3.org/1999/xlink"><filter id="a" color-interpolation-filters="sRGB" height="1.258381" width="1.152755" x="-.076378" y="-.129191"><feGaussianBlur stdDeviation="2.0355046"/></filter><filter id="b" color-interpolation-filters="sRGB"><feGaussianBlur stdDeviation=".93152507"/></filter><radialGradient id="c" cx="223.19559" cy="137.66095" gradientTransform="matrix(.81524244 -.03431182 .02961133 1.2479887 -208.43744 -35.542647)" gradientUnits="userSpaceOnUse" r="14.572236" xlink:href="#d"/><linearGradient id="d"><stop offset="0" stop-color="#fefefc"/><stop offset=".75733864" stop-color="#fefefc"/><stop offset="1" stop-color="#d4d4d4"/></linearGradient><radialGradient id="e" cx="223.19559" cy="137.66095" gradientTransform="matrix(1.0857794 -.03431182 .03943781 1.2479887 -233.54194 -35.542647)" gradientUnits="userSpaceOnUse" r="14.572236" xlink:href="#d"/><filter id="f" color-interpolation-filters="sRGB" height="1.214759" width="1.108313" x="-.054157" y="-.107379"><feGaussianBlur stdDeviation="1.3605322"/></filter><radialGradient id="g" cx="275.53763" cy="150.65126" gradientTransform="matrix(.69784558 -.50717348 .46034105 .63340638 -271.10191 183.03011)" gradientUnits="userSpaceOnUse" r="15.382211"><stop offset="0" stop-color="#020204"/><stop offset=".73448181" stop-color="#020204"/><stop offset="1" stop-color="#5c5c5c"/></radialGradient><filter id="h" color-interpolation-filters="sRGB" height="1.616501" width="1.584359" x="-.29218" y="-.30825"><feGaussianBlur stdDeviation="1.7403319"/></filter><filter id="i" color-interpolation-filters="sRGB" height="1.418397" width="1.315908" x="-.157954" y="-.209199"><feGaussianBlur stdDeviation=".24891089"/></filter><linearGradient id="j" gradientUnits="userSpaceOnUse" x1="303.01591" x2="309.73343" y1="132.76981" y2="140.72476"><stop offset="0" stop-color="#949494" stop-opacity=".392157"/><stop offset=".5" stop-color="#949494"/><stop offset="1" stop-color="#949494" stop-opacity=".392157"/></linearGradient><filter id="k" color-interpolation-filters="sRGB" height="1.362682" width="1.357358" x="-.178679" y="-.181341"><feGaussianBlur stdDeviation=".51947927"/></filter><linearGradient id="l" gradientUnits="userSpaceOnUse" x1="87.25" x2="108.625" y1="119.98718" y2="132.48718"><stop offset="0" stop-color="#747474"/><stop offset=".125" stop-color="#8c8c8c"/><stop offset=".25" stop-color="#a4a4a4"/><stop offset=".5" stop-color="#d4d4d4"/><stop offset=".61919296" stop-color="#d4d4d4"/><stop offset="1" stop-color="#7c7c7c"/></linearGradient><clipPath id="m"><path d="m85.75 122.36218c-2.54738 2.12715-5.20812 4.59907-6.25 7.75-1.30914 3.95917-1.63336 8.91703.5 12.5 3.91901 6.58194 12.38353 13.85135 19.75 11.75 4.87452-1.3905 6.10748-8.51023 7-13.5.59149-3.30679.59578-7.19325-1.25-10-3.61233-5.49303-10.4265-9.89357-17-10-1.04403-.0169-1.94852.83074-2.75 1.5z"/></clipPath><linearGradient id="n" gradientUnits="userSpaceOnUse" x1="15.50998" x2="29.74051" xlink:href="#o" y1="105.561808" y2="118.996838"/><linearGradient id="o"><stop offset="0" stop-color="#646464" stop-opacity="0"/><stop offset=".30628255" stop-color="#646464" stop-opacity=".582524"/><stop offset=".47000006" stop-color="#646464"/><stop offset=".72834015" stop-color="#646464" stop-opacity=".257282"/><stop offset="1" stop-color="#646464" stop-opacity="0"/></linearGradient><filter id="p" color-interpolation-filters="sRGB"><feGaussianBlur stdDeviation=".1475"/></filter><linearGradient id="q" gradientUnits="userSpaceOnUse" x1="-25.77255" x2="-12.37299" xlink:href="#o" y1="106.666368" y2="119.571058"/><filter id="r" color-interpolation-filters="sRGB"><feGaussianBlur stdDeviation=".13475369"/></filter><linearGradient id="s" gradientUnits="userSpaceOnUse" x1="164.04878" x2="169.8824" y1="132.06271" y2="142.49252"><stop offset="0" stop-color="#757574" stop-opacity="0"/><stop offset=".26291031" stop-color="#757574"/><stop offset=".5" stop-color="#757574"/><stop offset="1" stop-color="#757574" stop-opacity="0"/></linearGradient><filter id="t" color-interpolation-filters="sRGB" height="1.292137" width="1.468933" x="-.234466" y="-.146068"><feGaussianBlur stdDeviation=".51262416"/></filter><radialGradient id="u" cx="294.48483" cy="193.09949" gradientTransform="matrix(.93618683 -.38640412 .27133164 .65738721 -244.47527 146.7229)" gradientUnits="userSpaceOnUse" r="31.111488"><stop offset="0" stop-color="#d2940a"/><stop offset=".75143719" stop-color="#d89c08"/><stop offset=".86579126" stop-color="#b67e07"/><stop offset="1" stop-color="#946106"/></radialGradient><filter id="v" color-interpolation-filters="sRGB" height="1.429882" width="1.309661" x="-.154831" y="-.214941"><feGaussianBlur stdDeviation=".89858666"/></filter><filter id="w" color-interpolation-filters="sRGB"><feGaussianBlur stdDeviation=".75821369"/></filter><linearGradient id="x" gradientUnits="userSpaceOnUse" x1="46.85657" x2="103.3367" y1="158.31404" y2="157.8721"><stop offset="0" stop-color="#ad780a"/><stop offset=".11972899" stop-color="#d89e08"/><stop offset=".25514477" stop-color="#edb80b"/><stop offset=".39194193" stop-color="#ebc80d"/><stop offset=".52741116" stop-color="#f5d838"/><stop offset=".76906693" stop-color="#f6d811"/><stop offset="1" stop-color="#f5cd31"/></linearGradient><filter id="y" color-interpolation-filters="sRGB" height="1.260552" width="1.321912" x="-.160956" y="-.130276"><feGaussianBlur stdDeviation=".84878819"/></filter><radialGradient id="z" cx="77.67215" cy="147.09335" gradientTransform="matrix(1.0000004 0 0 .5833264 -.000035 61.416192)" gradientUnits="userSpaceOnUse" r="3.230094" xlink:href="#A"/><linearGradient id="A"><stop offset="0" stop-color="#3a2903"/><stop offset=".55472803" stop-color="#735208"/><stop offset="1" stop-color="#ac8c04"/></linearGradient><filter id="B" color-interpolation-filters="sRGB"><feGaussianBlur stdDeviation=".11039302"/></filter><radialGradient id="C" cx="63.125401" cy="147.44128" gradientTransform="matrix(1 0 0 1.0751189 0 -11.094161)" gradientUnits="userSpaceOnUse" r="1.535033" xlink:href="#A"/><filter id="D" color-interpolation-filters="sRGB" height="1.211459" width="1.232893" x="-.116446" y="-.10573"><feGaussianBlur stdDeviation=".11039302"/></filter><linearGradient id="E" gradientUnits="userSpaceOnUse" x1="243.03125" x2="243.46875" y1="157.01843" y2="159.76843"><stop offset="0" stop-color="#f5ce2d"/><stop offset="1" stop-color="#d79b08"/></linearGradient><filter id="F" color-interpolation-filters="sRGB" height="1.272215" width="1.214603" x="-.107302" y="-.136107"><feGaussianBlur stdDeviation=".2640625"/></filter><radialGradient id="G" cx="268.06998" cy="126.53491" gradientTransform="matrix(.20141143 -.03316079 .03065006 .18616184 -3.126357 114.03586)" gradientUnits="userSpaceOnUse" r="35.51144"><stop offset="0" stop-color="#c8c8c8"/><stop offset="1" stop-color="#797978"/></radialGradient><clipPath id="H"><path d="m54.232441 122.36218c-3.79199 4.78949-8.5176 11.69104-8.19273 17.25s3.86025 13.93486 8.37542 16 5.75436.0125 8.32902-2.5c2.57466-2.51247 3.85871-7.34762 4.00585-12.25.14713-4.90238-3.03534-11.91949-5.43855-15.25s-3.28702-8.03949-7.07901-3.25z"/></clipPath><clipPath id="I"><path d="m304.84727 225.44951c6.01627 4.92338 9.77707 12.317 10.94319 20.00305 1.8254 12.03148-2.34636 24.07488-6.44591 35.53273-.81749 2.28481-1.63978 4.59033-1.96473 6.99513s-.11897 4.94825 1.02948 7.08594c1.30279 2.42497 3.73227 4.12469 6.36677 4.92292 2.58877.78438 5.39365.76103 8.01466.0922 2.62101-.66882 5.06097-1.96774 7.18716-3.63996 5.48002-4.30997 8.75799-10.98552 10.01043-17.84394 1.25243-6.85841.63908-13.92879-.551-20.7983-1.62313-9.36916-4.30898-18.53961-7.74003-27.40773-2.51766-6.50732-5.46794-12.91081-9.61753-18.52016-4.04611-5.46946-9.16208-10.08954-13.10336-15.63502-2.73209-3.84412-4.89983-8.13097-8.1917-11.50812-1.64594-1.68858-3.57654-3.13527-5.76975-4.00143s-4.66356-1.12446-6.93254-.48249c-1.50468.42573-2.89193 1.23739-4.03791 2.30136s-2.05268 2.37637-2.69275 3.80312c-1.28015 2.85349-1.47719 6.11241-.96512 9.1977.66114 3.98343 2.44407 7.69333 4.46569 11.18873 2.27396 3.93169 4.918 7.71926 8.38442 10.65407 3.5985 3.04664 7.96161 5.07413 11.61053 8.0602"/></clipPath><filter id="J" color-interpolation-filters="sRGB" height="1.080093" width="1.235063" x="-.117532" y="-.040046"><feGaussianBlur stdDeviation="1.352085"/></filter><radialGradient id="K" cx="336.22372" cy="220.53755" gradientTransform="matrix(-.69844216 0 0 .76335815 166.3057 50.219935)" gradientUnits="userSpaceOnUse" r="27.391165" xlink:href="#L"/><linearGradient id="L"><stop offset="0"/><stop offset="1" stop-opacity=".248869"/></linearGradient><filter id="M" color-interpolation-filters="sRGB"><feGaussianBlur stdDeviation=".6434074"/></filter><radialGradient id="N" cx="312.14502" cy="236.36569" gradientTransform="matrix(1 0 0 .76335815 -289 41.219938)" gradientUnits="userSpaceOnUse" r="27.391165" xlink:href="#L"/><filter id="O" color-interpolation-filters="sRGB"><feGaussianBlur stdDeviation="1.1383167"/></filter><radialGradient id="P" cx="275.55389" cy="225.13487" gradientTransform="matrix(1 0 0 1.0692348 -289 -23.860302)" gradientUnits="userSpaceOnUse" r="10.84542" xlink:href="#L"/><filter id="Q" color-interpolation-filters="sRGB"><feGaussianBlur stdDeviation=".7854602"/></filter><filter id="R" color-interpolation-filters="sRGB" height="1.115648" width="2.633192" x="-.816596" y="-.057824"><feGaussianBlur stdDeviation="1.4463082"/></filter><filter id="S" color-interpolation-filters="sRGB" height="1.318857" width="1.355092" x="-.177546" y="-.159428"><feGaussianBlur stdDeviation=".90083196"/></filter><linearGradient id="T" gradientUnits="userSpaceOnUse" x1="28.28552" x2="31.98224" y1="323.90076" y2="351.48654"><stop offset="0"/><stop offset="1" stop-opacity="0"/></linearGradient><filter id="U" color-interpolation-filters="sRGB"><feGaussianBlur stdDeviation="2.2091576"/></filter><linearGradient id="V" gradientUnits="userSpaceOnUse" x1="442.03912" x2="490.12241" y1="371.54401" y2="293.58548"><stop offset="0" stop-color="#3e2a06"/><stop offset="1" stop-color="#ad780a"/></linearGradient><clipPath id="W"><path d="m516.00562 331.8756c.90859 1.59687-1.57016 3.38773-2.81579 4.73826-2.74207 2.97299-6.45099 4.90178-9.89648 7.01985-5.91373 3.63539-12.61918 5.90302-18.41964 9.71654-3.88318 2.553-7.32809 5.72221-10.86016 8.74238-3.0221 2.58411-5.48201 5.87643-8.83247 8.01771-3.3519 2.1422-7.0437 4.15414-10.99061 4.6502-4.78298.60114-9.87221-.25577-14.29898-2.16416-3.0947-1.33413-6.16113-3.38144-7.96301-6.22931-1.81288-2.86525-2.06093-6.5375-2.23266-9.92375-.30734-6.06031 1.36252-12.0605 2.17848-18.07349.67882-5.00236 1.85312-9.94325 2.26013-14.97502.73946-9.14185-.7797-18.40771.3199-27.51327.35468-2.93704-.181-6.65876 2.01238-8.64398 2.0384-1.84494 5.43058-1.1212 8.17929-1.06253 3.34492.0714 6.63224.95108 9.88917 1.71656 2.05612.48325 3.99816 1.41138 6.0722 1.81081 3.44031.66255 6.96573 1.06623 10.46739.95192 3.78516-.12356 7.43659-1.79636 11.22363-1.76474 1.55185.013 3.12359.28186 4.58649.79985 1.48266.52499 2.98786 1.20618 4.12281 2.29512.86547.83038 1.42933 1.95676 1.87872 3.06879.67163 1.66196.8942 3.4778 1.16703 5.24945.24238 1.57389-.1531 3.27141.41433 4.75933 1.83023 4.79924 5.57666 8.72712 9.22489 12.34277 1.74278 1.93455 4.03041 3.53404 6.16708 4.82839 2.26886 1.37444 4.3675 2.44991 5.46279 4.81597.65901 1.48517-.54371 3.76097.68307 4.82635z"/></clipPath><clipPath id="X"><path d="m516.00562 331.8756c.90859 1.59687-1.57016 3.38773-2.81579 4.73826-2.74207 2.97299-6.45099 4.90178-9.89648 7.01985-5.91373 3.63539-12.61918 5.90302-18.41964 9.71654-3.88318 2.553-7.32809 5.72221-10.86016 8.74238-3.0221 2.58411-5.48201 5.87643-8.83247 8.01771-3.3519 2.1422-7.0437 4.15414-10.99061 4.6502-4.78298.60114-9.87221-.25577-14.29898-2.16416-3.0947-1.33413-6.16113-3.38144-7.96301-6.22931-1.81288-2.86525-2.06093-6.5375-2.23266-9.92375-.30734-6.06031 1.36252-12.0605 2.17848-18.07349.67882-5.00236 1.85312-9.94325 2.26013-14.97502.73946-9.14185-.7797-18.40771.3199-27.51327.35468-2.93704-.181-6.65876 2.01238-8.64398 2.0384-1.84494 5.43058-1.1212 8.17929-1.06253 3.34492.0714 6.63224.95108 9.88917 1.71656 2.05612.48325 3.99816 1.41138 6.0722 1.81081 3.44031.66255 6.96573 1.06623 10.46739.95192 3.78516-.12356 7.43659-1.79636 11.22363-1.76474 1.55185.013 3.12359.28186 4.58649.79985 1.48266.52499 2.98786 1.20618 4.12281 2.29512.86547.83038 1.42933 1.95676 1.87872 3.06879.67163 1.66196.8942 3.4778 1.16703 5.24945.24238 1.57389-.1531 3.27141.41433 4.75933 1.83023 4.79924 5.57666 8.72712 9.22489 12.34277 1.74278 1.93455 4.03041 3.53404 6.16708 4.82839 2.26886 1.37444 4.3675 2.44991 5.46279 4.81597.65901 1.48517-.54371 3.76097.68307 4.82635z"/></clipPath><filter id="Y" color-interpolation-filters="sRGB" height="1.285998" width="1.290031" x="-.145015" y="-.142999"><feGaussianBlur stdDeviation="4.7787162"/></filter><clipPath id="Z"><path d="m511.82669 331.89986c.79493 1.29584-1.37375 2.7491-2.46357 3.84504-2.39907 2.41255-5.64405 3.97773-8.65855 5.69652-5.17399 2.95008-11.04067 4.79023-16.11556 7.88485-3.39744 2.07173-6.41144 4.64351-9.50169 7.09434-2.64407 2.09697-4.79627 4.76865-7.72763 6.50627-2.93262 1.73837-6.16262 3.37103-9.61582 3.77358-4.18468.48781-8.63731-.20756-12.51035-1.75619-2.70759-1.08263-5.39044-2.744-6.96693-5.05501-1.58611-2.32511-1.80313-5.3051-1.95338-8.053-.2689-4.91787 1.19208-9.78694 1.90598-14.66641.59391-4.05935 1.62131-8.06882 1.97741-12.15204.64696-7.4185-.68217-14.93763.27989-22.32668.31031-2.38337-.15836-5.4035 1.76065-7.01448 1.78342-1.49715 4.75128-.90984 7.15616-.86223 2.92651.0579 5.80263.77179 8.65215 1.39297 1.79893.39215 3.49804 1.14531 5.31265 1.46945 3.00996.53765 6.0944.86523 9.15804.77247 3.31168-.10027 6.50636-1.45773 9.81969-1.43207 1.35773.0105 2.73287.22873 4.01277.64907 1.2972.42602 2.61412.9788 3.6071 1.86246.75721.67384 1.25054 1.58789 1.64371 2.49029.58762 1.34866.78235 2.82219 1.02105 4.25986.21206 1.27719-.13395 2.65471.36251 3.86214 1.60129 3.89452 4.87908 7.08195 8.07096 10.016 1.52478 1.56986 3.52626 2.86783 5.39565 3.91818 1.98506 1.11534 3.82118 1.98807 4.77946 3.9081.57658 1.2052-.47569 3.05198.59763 3.91652z"/></clipPath><filter id="aa" color-interpolation-filters="sRGB" height="1.24989" width="1.230585" x="-.115293" y="-.124945"><feGaussianBlur stdDeviation="3.1725155"/></filter><linearGradient id="ab" gradientUnits="userSpaceOnUse" x1="45.16373" x2="43.74951" y1="289.58905" y2="302.31699"><stop offset="0" stop-color="#f3cd0c"/><stop offset="1" stop-color="#f3cd0c" stop-opacity="0"/></linearGradient><filter id="ac" color-interpolation-filters="sRGB" height="1.258537" width="1.041824" x="-.020912" y="-.129269"><feGaussianBlur stdDeviation=".47946431"/></filter><filter id="ad" color-interpolation-filters="sRGB" height="1.964527" width="2.207794" x="-.603897" y="-.482264"><feGaussianBlur stdDeviation="2.6400036"/></filter><filter id="ae" color-interpolation-filters="sRGB" height="1.547449" width="1.938659" x="-.469329" y="-.273724"><feGaussianBlur stdDeviation=".85991809"/></filter><radialGradient id="af" cx="363.33957" cy="303.41541" gradientTransform="matrix(1.3082075 .35053296 -.36795399 1.3732236 -310.50935 -240.34915)" gradientUnits="userSpaceOnUse" r="16.845654"><stop offset="0" stop-color="#110800"/><stop offset=".59066743" stop-color="#a65a00" stop-opacity=".8"/><stop offset="1" stop-color="#ff921e" stop-opacity="0"/></radialGradient><filter id="ag" color-interpolation-filters="sRGB" height="1.468181" width="1.40101" x="-.200505" y="-.23409"><feGaussianBlur stdDeviation="2.8444356"/></filter><filter id="ah" color-interpolation-filters="sRGB" height="1.213444" width="1.182821" x="-.091411" y="-.106722"><feGaussianBlur stdDeviation="1.2967831"/></filter><radialGradient id="ai" cx="382.23483" cy="246.85757" gradientTransform="matrix(.36025223 .15680447 -.07246786 .16649214 260.61683 181.93825)" gradientUnits="userSpaceOnUse" r="20.537666" xlink:href="#aj"/><linearGradient id="aj"><stop offset="0" stop-color="#7c7c7c"/><stop offset="1" stop-color="#7c7c7c" stop-opacity=".329412"/></linearGradient><clipPath id="ak"><path d="m386.1875 285.32775c-.40516-1.10369-1.11845-2.08156-1.9907-2.86987-.87226-.78832-1.90049-1.39229-2.98278-1.85155-2.16459-.91852-4.52053-1.26149-6.83152-1.69556-2.17919-.40931-4.34179-.90631-6.52782-1.27734-2.27136-.38551-4.6179-.63213-6.8653-.1253-1.96583.44333-3.7845 1.45879-5.27172 2.81864-1.48723 1.35984-2.64911 3.0564-3.48499 4.89007-1.47218 3.22952-1.93451 6.86503-1.65394 10.40316.20882 2.63325.87532 5.34594 2.60877 7.33912 1.40065 1.61052 3.38733 2.61526 5.43398 3.22092 3.52502 1.04316 7.36663.98822 10.86038-.1553 5.76689-1.93113 10.87568-5.77387 14.33034-10.77903 1.13861-1.64963 2.11217-3.44809 2.5532-5.4034.33597-1.48955.34831-3.08112-.1779-4.51456"/></clipPath><filter id="al" color-interpolation-filters="sRGB" height="1.301204" width="1.140911" x="-.070456" y="-.150602"><feGaussianBlur stdDeviation="1.0252435"/></filter><linearGradient id="am" gradientUnits="userSpaceOnUse" x1="358.5" x2="361.5" xlink:href="#aj" y1="279.36218" y2="279.23718"/><clipPath id="an"><path d="m386.1875 285.32775c-.40516-1.10369-1.11845-2.08156-1.9907-2.86987-.87226-.78832-1.90049-1.39229-2.98278-1.85155-2.16459-.91852-4.52053-1.26149-6.83152-1.69556-2.17919-.40931-4.34179-.90631-6.52782-1.27734-2.27136-.38551-4.6179-.63213-6.8653-.1253-1.96583.44333-3.7845 1.45879-5.27172 2.81864-1.48723 1.35984-2.64911 3.0564-3.48499 4.89007-1.47218 3.22952-1.93451 6.86503-1.65394 10.40316.20882 2.63325.87532 5.34594 2.60877 7.33912 1.40065 1.61052 3.38733 2.61526 5.43398 3.22092 3.52502 1.04316 7.36663.98822 10.86038-.1553 5.76689-1.93113 10.87568-5.77387 14.33034-10.77903 1.13861-1.64963 2.11217-3.44809 2.5532-5.4034.33597-1.48955.34831-3.08112-.1779-4.51456"/></clipPath><clipPath id="ao"><path d="m248.06066 184.61218s-5.10626 6.34527-7.89695 10.24696c-2.7907 3.9017-5.73652 6.64881-8.58729 10.75139-2.85076 4.10259-7.36482 9.43164-9.44912 13.93045-2.08429 4.49881-2.32047 9.0356-4.26498 13.84932-1.94451 4.81371-3.70129 10.64183-5.97071 15.33612-2.26943 4.69429-5.37093 9.68473-6.93891 13.53553-1.56799 3.8508-3.81119 5.72384-4.10782 10.22071-.29663 4.49686-.57747 8.31749 3.77151 16.77227s17.23626 22.00721 24.24176 27.92472c7.00549 5.9175 9.39133 7.22492 14.60245 8.52595 5.21112 1.30104 13.85627 2.9981 16.72874-1.2702 2.87246-4.26829 2.27191-5.96483-.74863-10.66616-3.02055-4.70132-4.82469-5.30209-9.79642-9.57343-4.97172-4.27133-18.63696-14.87266-22.68212-19.23996-4.04516-4.36729-7.10731-3.41164-5.53019-6.28412 1.57712-2.87249-2.20738-4.00856-2.65783-7.69253-.76361-6.24511.9436-18.71046 1.45958-22.13343.51598-3.42296 1.22371-2.92446 3.51815-8.03965s4.12424-8.62435 7.04933-13.46723c2.92509-4.84289 8.62493-10.12787 11.15147-15.27803 2.52654-5.15017 3.50393-10.72068 4.36185-15.31831s1.74613-12.13037 1.74613-12.13037z"/></clipPath><filter id="ap" color-interpolation-filters="sRGB" height="1.08534" width="1.202071" x="-.101035" y="-.04267"><feGaussianBlur stdDeviation="1.1322032"/></filter><clipPath id="aq"><path d="m137.57703 281.0191c1.59929-.66295 3.3982-.78361 5.10074-.46963 1.70253.31398 3.31141 1.04948 4.74342 2.02239 2.86402 1.94583 4.98821 4.77774 7.02263 7.57952 4.67189 6.43406 9.16868 13.00227 13.24488 19.8293 3.30635 5.53766 6.34352 11.25685 10.16415 16.45304 2.49398 3.3919 5.3066 6.53947 7.813 9.92221 2.50639 3.38273 4.72794 7.05586 5.83931 11.11662 1.44411 5.27653.88463 11.09291-1.62666 15.95302-1.76663 3.41896-4.47646 6.35228-7.77242 8.33898-3.29595 1.9867-7.17064 3.01444-11.01635 2.87021-6.11413-.2293-11.69944-3.28515-17.38362-5.54906-11.58097-4.6125-24.15978-6.0594-36.09666-9.65174-3.66859-1.10404-7.27582-2.4107-10.96988-3.42629-1.64125-.45122-3.30866-.8482-4.85875-1.55144-1.55008-.70325-2.999548-1.7491-3.86171-3.21675-.666391-1.13439-.948386-2.47002-.930187-3.78554.0182-1.31552.325889-2.61453.773815-3.85158.895851-2.47409 2.343262-4.71374 3.320162-7.15696 1.59511-3.98935 1.88169-8.38839 1.66657-12.67942-.21511-4.29103-.91078-8.54478-1.20454-12.83115-.13118-1.91406-.18066-3.85256.18479-5.73598.36545-1.88343 1.17577-3.72459 2.55771-5.05541 1.27406-1.22693 2.96492-1.95531 4.69643-2.31651s3.51533-.37747 5.28367-.33762c1.76833.0399 3.54067.13425 5.30351-.0106 1.76284-.14488 3.53347-.54055 5.06911-1.41828 1.45996-.83447 2.65433-2.0745 3.64374-3.43424.9894-1.35974 1.78909-2.84573 2.60891-4.31396.81983-1.46823 1.66834-2.93151 2.74157-4.22611 1.07324-1.2946 2.38923-2.42304 3.94266-3.06698"/></clipPath><linearGradient id="ar" gradientUnits="userSpaceOnUse" x1="123.13397" x2="170.86368" y1="301.54044" y2="381.62027"><stop offset="0" stop-color="#b98309"/><stop offset="1" stop-color="#382605"/></linearGradient><filter id="as" color-interpolation-filters="sRGB" height="1.216991" width="1.215018" x="-.107509" y="-.108496"><feGaussianBlur stdDeviation="3.9237191"/></filter><filter id="at" color-interpolation-filters="sRGB"><feGaussianBlur stdDeviation="2.4365744"/></filter><linearGradient id="au" gradientUnits="userSpaceOnUse" x1="171.04046" x2="186.06647" y1="322.223323" y2="350.507593"><stop offset="0" stop-color="#ebc40c"/><stop offset="1" stop-color="#ebc40c" stop-opacity="0"/></linearGradient><filter id="av" color-interpolation-filters="sRGB"><feGaussianBlur stdDeviation=".3702557"/></filter><g transform="matrix(.02770669 0 0 .02782806 4.16144121546 -1.91753946434)"><g fill="#020204"><path d="m61.52407 172.7341c3.256446 7.09068 6.891075 14.00328 10.12118 21.106 6.216296 13.66909 10.936727 28.10308 12.898249 42.99062 1.961521 14.88754 1.105026 30.2579-3.553709 44.53314-5.258406 16.11274-15.238853 30.44766-27.46966 42.18132-14.467609 13.87954-33.040384 24.58136-53.07363986 25.37-13.05401114.51389-26.05018114-3.21837-37.61083814-9.30298-9.715182-5.1133-18.583641-11.92694-25.66024-20.32053-7.076598-8.39359-12.330354-18.3872-14.763292-29.09287-2.995969-13.18318-1.641076-27.17816 2.89379-39.91421 3.243125-9.10823 8.049542-17.58768 11.47203-26.63004 3.7398-9.88071 5.828418-20.43018 10.783122-29.76107 4.491479-8.45853 11.226368-15.68619 14.80419-24.56984 2.137019-5.30617 3.063571-11.00539 4.443519-16.55679 1.379948-5.55139 3.311902-11.14416 7.070091-15.45673 4.528631-5.19667 11.343021-8.01445 18.1906067-8.80464 6.8475855-.7902 13.7776148.27687 20.4983213 1.80852 5.350644 1.21941 10.634854 2.73531 15.8054 4.57428 4.413403 1.56968 8.785663 3.39762 12.60195 6.11386 5.198917 3.70033 9.160341 8.91065 12.315218 14.45753 3.154877 5.54689 5.570481 11.47543 8.233712 17.27443z"/><path d="m4.0355401 349.03896c5.500837.31997 10.9908959.85447 16.4392499 1.67728 4.791966.72368 9.549734 1.67013 14.25969 2.81161 7.377145 1.78788 14.728205 4.0679 22.31583 4.28409 1.997291.0569 4.010279-.0321 5.960615-.46634 1.950337-.43428 3.842365-1.22549 5.404555-2.47127 2.329224-1.85746 3.809995-4.65849 4.35712-7.58698.547125-2.9285.20831-5.97588-.649294-8.82894-1.715208-5.70613-5.389711-10.57531-8.436536-15.69572-1.744737-2.93216-3.299509-5.97987-5.189103-8.82084-1.889593-2.84097-4.151357-5.50114-7.019097-7.34985-3.96766-2.55779-8.887804-3.39187-13.585173-2.92356-4.69737.46831-9.200407 2.1651-13.392487 4.3356-5.876239 3.04249-11.407036 7.21952-14.6114899 13.00903-1.1152187 2.01487-1.9252735 4.18111-2.8724724 6.28021-.9471989 2.09911-2.0556532 4.16572-3.6602676 5.81758-1.7889898 1.84166-4.11196922 3.084-5.9629057 4.86339-.9254682.8897-1.7354696 1.92538-2.2098507 3.11828s-.5916518 2.55593-.1587936 3.76452c.2968376.8288.8410826 1.5585 1.510884 2.12981.6698015.57131 1.4622323.98862 2.2928213 1.28043 1.66117785.58361 3.4489624.66943 5.2067047.77167z"/><path d="m-12.31313 348.6854c-4.583902.10576-9.120079.92594-13.610282 1.85407-4.292369.88724-8.564202 1.87547-12.803666 2.98838-7.153867 1.87798-14.317463 4.12691-21.71205 4.28409-1.94611.0414-3.906178-.065-5.802639-.50379-1.89646-.43874-3.733005-1.22036-5.255033-2.43382-2.325052-1.85369-3.802741-4.64939-4.350393-7.57207-.547652-2.92269-.213097-5.96402.635328-8.81397 1.69685-5.69989 5.336383-10.57867 8.315835-15.7256 1.693032-2.92467 3.187178-5.96644 5.017961-8.80692 1.830783-2.84047 4.036361-5.50702 6.859931-7.36377 3.84835-2.53064 8.646801-3.38743 13.230443-2.93559 4.583641.45184 8.975092 2.13982 13.017307 4.34763 5.706463 3.1168 10.916569 7.40628 14.216168 13.00903 2.314942 3.93079 3.650896 8.42457 6.3559901 12.09779 1.4565882 1.97789 3.2893313 3.68615 4.5012107 5.82274.6059397 1.0683 1.049652 2.24541 1.1531819 3.46922s-.151379 2.49795-.8400526 3.51488c-.4554825.67259-1.0873312 1.21664-1.7933422 1.61838-.706011.40173-1.4852893.66469-2.280446.83072-1.5903135.33207-3.2312719.28113-4.8554519.3186z"/><path d="m-37.926938 157.79951c-.64417-7.75054-.489994-15.54319-.7792-23.31507-.278079-7.47284-.966418-14.94214-.71488-22.41592.256146-7.61067 1.530394-15.309154 4.91386-22.131182 3.385048-6.825218 8.878775-12.607835 15.585408-16.222143 6.31035-3.400745 13.5660196-4.852888 20.7339701-4.774941 9.7187939.105686 19.4636379 3.041609 27.3342999 8.744136 4.932856 3.573999 9.084713 8.178434 12.35777 13.315908 2.793402 4.384596 4.963417 9.174082 6.32522 14.191382 2.792945 10.29006 2.130609 21.14782 2.67383 31.79633.514814 10.09165 2.130563 20.16036 1.58126 30.25019-.119294 2.19125-.356365 4.43384-1.33303 6.39902-.951782 1.91511-2.568082 3.45525-4.424671 4.51667s-3.947249 1.6657-6.060817 1.99184c-4.227136.65229-8.548648.2219-12.807542.61684-6.179941.57309-12.074877 2.86516-18.2084499 3.81352-7.3095368 1.13018-14.7573747.32867-22.1478801.0336-2.959947-.11818-5.929029-.15508-8.86833-.52354-2.9393-.36846-5.869508-1.081-8.483878-2.47395-1.611132-.85842-3.093397-1.97501-4.295425-3.34897s-2.118999-3.0094-2.576865-4.7766c-.687335-2.65287-.32485-5.44616-.315229-8.18661.0088-2.50641-.28182-5.00269-.489421-7.50051z"/></g><path d="m-26.295668 154.81433c-1.0464 1.31136-1.727734 2.88726-2.139268 4.51369-.411534 1.62642-.562286 3.30801-.626531 4.98446-.12849 3.35291.07646 6.77015-.810961 10.00604-.948742 3.4595-3.075951 6.45649-5.15761 9.37795-3.604854 5.05916-7.24855 10.25011-9.02706 16.20217-1.077103 3.60469-1.435613 7.42255-1.04841 11.16474-4.035298 5.9262-7.528852 12.22112-10.4229 18.78069-4.386197 9.94163-7.396115 20.5265-8.454552 31.34105-1.296051 13.24236.397579 26.86184 5.627472 39.09655 3.781309 8.84592 9.417708 16.94379 16.68566 23.2466 3.695412 3.20468 7.79967 5.93944 12.1895 8.09709 15.212515 7.47713 34.0134755 7.49101 48.972958-.48031 7.818379-4.16611 14.417887-10.2582 20.78084-16.42232 3.831831-3.71209 7.643527-7.51249 10.56653-11.97551 5.62746-8.59236 7.587474-19.03566 8.80544-29.23436 2.129707-17.83321 2.198403-36.66998-5.62137-52.83816-2.692189-5.56638-6.278958-10.69891-10.58065-15.14052-1.14547-7.78087-3.406381-15.39666-6.69212-22.54215-2.370453-5.15502-5.2683-10.06187-7.47079-15.29085-.904215-2.14672-1.689945-4.34486-2.69346-6.44699-1.003516-2.10213-2.241446-4.12498-3.92446-5.73541-1.723428-1.6491-3.870957-2.81824-6.135934-3.56631-2.264978-.74806-4.649164-1.08697-7.031465-1.2068-4.764603-.23966-9.53871923.38348-14.3055909.19423-3.7947631-.15066-7.5777651-.81566-11.3689171-.59186-1.895577.1119-3.790869.45058-5.550264 1.1649-1.759396.71432-3.381726 1.81713-4.566087 3.30139z" fill="#fdfdfb"/><path d="m-28.632498 172.60136c1.702936 4.93775 5.13035 9.15199 9.185848 12.44354 1.348656 1.0946 2.782167 2.10442 4.366233 2.817 1.584067.71257 3.331648 1.11945 5.062377.97245 1.6949733-.14396 3.3074706-.80936 4.788721-1.64575 1.4812505-.8364 2.8560173-1.84688 4.29298914-2.75725 2.46262056-1.56015 5.09983966-2.82139 7.65715996-4.22092 3.0824622-1.68692 6.0695999-3.59014 8.6646899-5.95927 1.187948-1.08451 2.295748-2.26795 3.607519-3.19888 1.31177-.93094 2.882987-1.60572 4.487811-1.49651 1.203853.0819 2.332908.59386 3.51249.84794.589792.12704 1.200784.18932 1.797215.0984.596431-.0909 1.179727-.34439 1.597895-.77928.512367-.53286.736406-1.29981.709607-2.03855-.0268-.73874-.284448-1.45303-.628853-2.10712-.68881-1.30819-1.734547-2.43513-2.200224-3.83833-.414395-1.24867-.330451-2.59887-.293929-3.91401.03652-1.31513.0075-2.68902-.598601-3.85671-.461591-.88922-1.236126-1.59525-2.12164-2.06391-.885513-.46867-1.878578-.71001-2.876081-.80365-1.995007-.18727-3.993929.19997-5.994489.31349-2.655817.1507-5.321957-.18176-7.9772499-.0221-3.3112912.1991-6.5570138 1.16053-9.87428 1.16645-3.7859765.007-7.5681223-1.23192-11.3075401-.63996-1.60458.25401-3.134778.8376-4.675685 1.35219-1.540906.5146-3.132742.96724-4.757133.94371-1.844198-.0267-3.629272-.66537-5.468985-.79666-.919856-.0656-1.86247-.00018-2.726086.32326-.863615.32344-1.644513.92357-2.068349 1.7426-.242869.46932-.363194.99683-.385859 1.52479-.02266.52795.05026 1.05702.177828 1.56983.255132 1.02563.724233 1.98285 1.109821 2.96688 1.392508 3.55373 1.692361 7.44806 2.93678 11.05632z" fill-opacity=".258824" filter="url(#a)"/><path d="m-54.3809 165.4735c3.308481 2.21892 6.276719 4.94413 8.76949 8.0515 2.313244 2.88358 4.281072 6.1543 7.29931 8.28886 2.132561 1.50819 4.694875 2.3578 7.29406 2.61606 3.051509.3032 6.139761-.18685 9.08171-1.05205 2.72664-.80188 5.363225-1.92931 7.78216-3.4214 4.5982326-2.83636 8.4392136-6.99279 13.51002-8.85709 1.1070251-.407 2.2592345-.69817 3.3265087-1.20024 1.0672741-.50208 2.071356-1.25404 2.5810913-2.31768.489979-1.02241.4709637-2.20249.63053-3.32496.1707072-1.20085.5537633-2.36184.7638732-3.55642s.2351735-2.47234-.2814032-3.56975c-.4277722-.90876-1.2053869-1.6278-2.0998754-2.08466-.8944886-.45686-1.9010816-.6644-2.9042801-.71362-2.00639693-.0985-3.9875479.41519-5.9880545.59766-2.649555.24167-5.3179008-.0991-7.97725-.019-3.308278.0996-6.568191.84884-9.87428 1.00503-3.771652.17818-7.534056-.41751-11.30754-.55139-1.632251-.0579-3.2754-.0286-4.884302.25254-1.608902.28112-3.188197.82168-4.548518 1.72563-1.319979.87714-2.396737 2.06728-3.606567 3.09101-.604916.51187-1.247757.98508-1.953748 1.34495s-1.478799.60451-2.270305.64257c-.40728.0196-.818345-.0152-1.2213.0472-.676172.10463-1.303709.49355-1.698284 1.05254-.394576.55899-.550896 1.28053-.423046 1.9527z" filter="url(#b)" opacity=".3" transform="matrix(1 0 0 .92110599 21 6.107506)"/><path d="m-24.767558 113.36218c-1.780966.097-3.484616.91899-4.787852 2.1367-1.303235 1.21771-2.221372 2.81176-2.786181 4.50357-1.129618 3.38363-.87548 7.05177-.618697 10.60973.23251 3.22162.470404 6.50533 1.676785 9.50158.60319 1.49813 1.450246 2.91021 2.580338 4.06395s2.551736 2.04189 4.118297 2.43447c1.468838.36809 3.03816.29183 4.482783-.16209 1.444622-.45392 2.763916-1.27887 3.846235-2.33791 1.57904-1.54507 2.643262-3.5662 3.253449-5.68947.610186-2.12328.784157-4.35155.752401-6.56053-.03974-2.76435-.400909-5.53851-1.265755-8.16439s-2.245743-5.10327-4.172795-7.08561c-.933308-.96009-1.997765-1.80513-3.198585-2.39747-1.200819-.59233-2.543439-.92535-3.880423-.85253z" fill="url(#c)"/><path d="m6.7500001 113.36218c-2.780425 1.91023-5.110569 4.57487-6.24999996 7.75-1.4360294 4.00163-.88583807 8.48071.49999996 12.5 1.4194877 4.11688 3.793788 8.04098 7.37932 10.51234 1.7927659 1.23567 3.8680909 2.08301 6.0304019 2.33859s4.409274-.0949 6.340278-1.10093c2.353116-1.22596 4.147816-3.37278 5.262172-5.78076s1.588797-5.0701 1.737828-7.71924c.189892-3.37546-.140469-6.80646-1.25-10-1.205266-3.46909-3.390051-6.67055-6.472754-8.6666-1.541351-.99803-3.291947-1.68356-5.110883-1.93515-1.818936-.25158-3.704766-.0633-5.4163629.60175-.9754713.37901-1.8874384.9074-2.75 1.5z" fill="url(#e)"/><path d="m-25.360588 142.15408c-1.786482 1.4774-3.501179 3.0416-5.13602 4.68523-.903823.90868-1.8091 1.88355-2.21459 3.09935-.36055 1.08106-.29199 2.25323-.46883 3.37902-.06057.38562-.15043.76936-.152052 1.15971-.000812.19517.02083.39147.0782.57802.05736.18656.151334.36338.284644.50594.221803.23719.538228.36582.856433.43063.318205.0648.644872.0725.967727.10746 1.456012.15747 2.798218.86338 4.00379 1.69486 1.205572.83149 2.31471 1.80014 3.55098 2.58525 2.731056 1.7344 5.993045 2.50477 9.225939 2.62813s6.4580135-.37064 9.6304491-1.00505c2.5207397-.50408 5.03384941-1.10094 7.42544-2.04356 3.6625554-1.44355 6.9635355-3.66687 10.1181899-6.02193 1.432993-1.06978 2.845976-2.17318 4.13251-3.41525.436681-.42159.859163-.85947 1.327568-1.2455.468404-.38604.988158-.72177 1.565972-.90767.880766-.28336 1.835624-.20203 2.74819-.0495.687316.11488 1.375996.26902 2.072294.24128.34815-.0139.696607-.0742 1.020058-.2037.323451-.12954.621552-.33028.843298-.59903.291392-.35317.439963-.81445.441604-1.2723.0016-.45786-.138708-.91095-.371057-1.30548-.464697-.78905-1.268246-1.32311-2.105037-1.69503-1.146138-.50941-2.386299-.76136-3.60551-1.05573-3.745289-.90427-7.384752-2.24056-10.83577-3.95385-1.7155975-.85173-3.3835507-1.79555-5.0717499-2.70037-1.7355668-.93021-3.504569-1.82415-5.38902996-2.39536-4.21332024-1.27713-8.81852844-.85829-12.97748014.58609-4.619909 1.60447-8.797446 4.46312-11.966158 8.18832z" filter="url(#f)" opacity=".3"/><path d="m-16.39938 136.86218c1.767366-1.98662 2.976192-4.41053 4.674142-6.45679.848975-1.02314 1.8284211-1.95533 2.9816817-2.61681 1.1532606-.66147 2.4919769-1.0411 3.8165164-.9264 1.4744902.12769 2.8545436.86228 3.93407466 1.87472 1.07953103 1.01244 1.8797683 2.29027 2.51864534 3.62528.6117397 1.27831 1.0977635 2.64027 1.97912 3.75.940326 1.18398 2.2595274 1.99218 3.4510909 2.92288.5957818.46535 1.167477.96911 1.6383978 1.5605.4709209.59139.8396117 1.27595.9909913 2.01662.1537234.75214.077153 1.54506-.1851792 2.26653-.2623326.72148-.7066964 1.37174-1.2596263 1.90429-1.1058598 1.0651-2.6135811 1.63957-4.1338116 1.85466-3.04046123.43016-6.1146629-.47583-9.1842429-.39142-3.1068902.0854-6.1415551 1.18366-9.2475441 1.07007-1.552994-.0568-3.128063-.43624-4.404252-1.32301-.638094-.44339-1.194008-1.01055-1.595831-1.6756-.401824-.66505-.646688-1.42894-.672863-2.20552-.02497-.74092.148043-1.48088.444075-2.16055.296033-.67967.712681-1.30175 1.182123-1.87552.938883-1.14753 2.086993-2.10617 3.072492-3.21393z" fill="url(#g)"/><path d="m277.9604 90.856536c-2.22486 1.569973-1.25289 3.530477-.29604 5.497884s-2.10429 7.63969-2.13651 7.88434c-.0322.24465 6.02534-2.8754 7.67611-4.901967 1.94956-2.393373 6.87703 3.237917 6.60851 2.381167.002-1.53312-9.62721-12.431397-11.85207-10.861424z" fill="#7c7c7c" filter="url(#h)" transform="matrix(1.1522137 0 0 1.1522137 -302.02706 -22.837384)"/><g transform="translate(-289 -9.000002)"><path d="m302.16152 130.75695c-1.04548.0749-2.06437.4318-2.95135.99028-.88699.55848-1.64327 1.31521-2.23701 2.17899-1.18748 1.72757-1.70894 3.84675-1.793 5.94139-.0631 1.5723.11098 3.16512.63245 4.64977s1.40089 2.85877 2.61276 3.86251c1.24011 1.02713 2.81647 1.64364 4.42485 1.72094s3.23948-.38665 4.56105-1.3066c1.05288-.73292 1.9021-1.74168 2.50666-2.87315.60455-1.13148.96879-2.38348 1.1353-3.65549.29411-2.24678-.0385-4.59295-1.07692-6.60695-1.03841-2.01401-2.80051-3.67269-4.92674-4.45606-.92093-.3393-1.90911-.51576-2.88805-.44563z" fill="#020204"/><path d="m304.65625 137.61218c-.86591.34162-2.23657.12677-2.61622.9767-.22493.50357.0927 1.33252.60343 1.54061 1.03244.42063 2.63193-.34111 3.04876-1.3751.18104-.4491-.0934-1.16101-.53974-1.34865-.16515-.0694-.32958.14069-.49623.20644z" fill="#141413" filter="url(#i)"/><path d="m308.625 139.86218c1.16113-1.16113-.82613-4.23951-2.375-5.5-1.12184-.91296-4.39063-1.86851-4.25-.875s1.60988 2.26647 2.59467 3.23744c1.21236 1.19533 3.47886 3.68903 4.03033 3.13756z" fill="url(#j)" filter="url(#k)"/></g><path clip-path="url(#m)" d="m75.25 132.48718c2.383746-1.98014 5.160908-3.48474 8.12154-4.40008 6.085564-1.88147 12.999677-1.13706 18.37846 2.27508 1.85708 1.17808 3.51244 2.64192 5.23935 4.00367 1.72691 1.36176 3.56115 2.64122 5.63565 3.37133 1.12086.39448 2.31818.62345 3.5.5 1.06768-.11153 2.09928-.5118 2.98444-1.11915.88515-.60736 1.62476-1.4185 2.18064-2.33686 1.11176-1.8367 1.47001-4.06457 1.27839-6.20298-.38324-4.27682-2.79556-8.05341-4.81847-11.84101-.63342-1.18598-1.23642-2.39333-2-3.5-2.34327-3.39616-6.07312-5.63562-9.98498-6.94794-3.91185-1.31233-8.046257-1.78639-12.14002-2.30206-1.825736-.22998-3.673032-.46998-5.5-.25-2.099797.25283-4.075978 1.101-6.125 1.625-.972648.24874-1.963662.42478-2.928029.70391-.964366.27912-1.912957.669-2.696971 1.29609-1.144817.91567-1.865056 2.29088-2.176504 3.72338-.311449 1.4325-.240517 2.92444-.01161 4.37242.457809 2.89597 1.540886 5.72407 1.438116 8.6542-.07058 2.01227-.702287 3.98797-.625 6 .02266.58987.106588 1.17738.25 1.75" fill="url(#l)" transform="translate(-79 -9.000002)"/><path d="m16.40625 105.125c-.47695.59985-.90798 1.25231-1.25 1.96875 2.14641.46247 4.19906 1.34575 6.03125 2.5625 3.54507 2.35427 6.237 5.7965 8.125 9.625.44076-.48807.84202-1.01184 1.1875-1.59375-1.89751-3.9878-4.64382-7.5949-8.3125-10.03125-1.76231-1.17035-3.72465-2.05369-5.78125-2.53125z" fill="url(#n)" filter="url(#p)"/><path d="m-24.968748 107.08112c-.24181-.005-.47678.0166-.71875.0284-.15551.007-.31416.0138-.46875.0284 1.41307.12839 2.81751.50809 4.09375 1.08136 1.738608.78095 3.273708 1.89289 4.624998 3.1587 2.5037 2.34533 4.36502 5.2397 5.625 8.30939-.31131-2.36487-1.02619-4.60396-2.0625-6.65889-.49356-.57132-1.00562-1.12884-1.5625-1.6505-1.35129-1.26581-2.88639-2.37775-4.625-3.1587-1.52128-.68334-3.213598-1.10788-4.906248-1.13828z" fill="url(#q)" filter="url(#r)"/><g transform="translate(-189 -9.000002)"><path d="m159.93889 137.11161c-.37211 2.24574-.38563 4.60199.3864 6.74344.50979 1.41404 1.35041 2.69692 2.37218 3.79935.66903.72184 1.42824 1.37779 2.31576 1.80318s1.91578.60638 2.87035.36671c.88113-.22123 1.65156-.78859 2.22013-1.49715.56856-.70857.9476-1.55295 1.2177-2.42034.7974-2.56075.66926-5.36165-.12241-7.92418-.5768-1.86701-1.53208-3.66794-3.02664-4.9268-.71307-.60061-1.54773-1.07115-2.45479-1.28664-.90707-.2155-1.88874-.16505-2.73754.22063-.9423.42817-1.67159 1.24304-2.14907 2.16134-.47749.91829-.72288 1.93936-.89207 2.96046z" fill="#020204"/><path d="m164.6875 135.48718c.24185.6337 1.05418.86381 1.5 1.375.43302.49651.88735 1.01055 1.125 1.625.4549 1.17616-.4488 2.91931.5 3.75.29782.26075.89472.26639 1.1875 0 1.14539-1.04215.89094-3.14433.4375-4.625-.4115-1.34371-1.42747-2.61637-2.67923-3.25512-.57882-.29536-1.45077-.54089-1.94577-.11988-.31898.2713-.27431.85878-.125 1.25z" fill="url(#s)" filter="url(#t)"/></g><g transform="translate(-79 -9.000002)"><path d="m45.751683 165.03156c.06146.29539.172509.58039.32709.8395.265683.44533.653935.80631 1.073256 1.1114s.872799.55947 1.311827.83545c2.333646 1.46695 4.235362 3.52905 5.924734 5.70709 2.266543 2.92217 4.271913 6.16491 7.29931 8.28886 2.137781 1.49982 4.695713 2.35501 7.29406 2.61606 3.051317.30656 6.139876-.18595 9.08171-1.05205 2.726384-.80267 5.363099-1.92956 7.78216-3.4214 4.598507-2.83591 8.439249-6.99271 13.51002-8.85709 1.10702-.40702 2.25922-.69819 3.3265-1.20026 1.06727-.50207 2.07136-1.25403 2.5811-2.31766.48998-1.02241.47097-2.20249.63053-3.32496.1707-1.20084.55374-2.36184.76385-3.55642.2101-1.19458.23517-2.47233-.28138-3.56975-.42775-.90878-1.20535-1.62786-2.09983-2.08475-.89448-.4569-1.90108-.66447-2.90429-.71372-2.006415-.0985-3.987581.41519-5.98809.59785-2.649534.24193-5.317874-.0982-7.97725-.019-3.308296.0986-6.568402.84468-9.87428 1.00503-3.771518.18294-7.534685-.39851-11.30754-.55139-1.634066-.0662-3.279962-.0512-4.891819.22531-1.611857.27654-3.195234.82363-4.541001 1.75286-1.311442.90553-2.355916 2.14022-3.560189 3.18405-.602137.52192-1.249488.99929-1.966273 1.3474-.716785.34812-1.50749.564-2.304158.54708-.409601-.009-.830861-.0769-1.2213.0472-.243915.0775-.460478.22705-.643532.40593s-.334787.38705-.477798.59931c-.332537.49356-.623066 1.01541-.867417 1.55807z" fill="url(#u)"/><path d="m60.55673 169.09742c-.386462 1.59605-.151992 3.33408.64359 4.77067s2.144391 2.5575 3.70231 3.07676c1.977755.65919 4.206575.33635 6.05477-.62813 1.071362-.55909 2.051171-1.34588 2.669379-2.38425.309105-.51918.523981-1.09707.604518-1.69591.08054-.59884.02471-1.2185-.184887-1.78522-.229715-.62112-.640261-1.16849-1.146053-1.59596-.505791-.42748-1.104668-.7378-1.733436-.94568-1.257537-.41575-2.610936-.42405-3.933891-.36051-2.005209.0963-4.002918.34837-5.9692.75318" fill="#d9b30d" filter="url(#v)"/><path d="m54.0663 156.67992c-1.338955.79147-2.628584 1.66369-3.8975 2.56317-.656705.46551-1.334168.96895-1.68056 1.69557-.245501.51498-.301768 1.09903-.309586 1.66948-.0078.57045.02884 1.14399-.04618 1.70954-.05124.38625-.154326.76619-.171537 1.15544-.0086.19463.0047.39145.05602.57938.05134.18793.141902.36704.275482.50885.172556.18318.407931.29591.64865.36931s.490638.1112.73562.16878c1.174662.27611 2.196917.99676 3.094125 1.80366s1.702883 1.71487 2.638865 2.47645c2.537255 2.06449 5.890478 2.91872 9.161088 2.97254 3.27061.0538 6.504204-.63066 9.695302-1.34946 2.506322-.56456 5.014978-1.15472 7.42544-2.04356 3.702752-1.36537 7.140748-3.43167 10.11819-6.02193 1.349968-1.17442 2.617219-2.46364 4.13251-3.41525 1.340926-.84211 2.842622-1.39796 4.206331-2.20265.12193-.072.24321-.14621.35213-.23665.10893-.0905.20574-.1981.26892-.3248.10917-.21894.10937-.48123.0389-.71552-.0704-.23429-.20633-.44389-.36-.63425-.16999-.21058-.36336-.40158-.568951-.57756-1.424379-1.21921-3.356756-1.66245-5.22581-1.81067-1.869053-.14822-3.760672-.0434-5.60996-.35238-1.738647-.29048-3.393268-.93881-5.07175-1.4773-1.761942-.56527-3.562776-1.01251-5.38903-1.31044-4.294756-.70063-8.71732-.56641-12.97748.32063-4.057685.84488-7.971287 2.37056-11.53927 4.47962z" fill="#604405" filter="url(#w)"/><path d="m53.63941 152.15408c-1.929391 1.2986-3.666135 2.88291-5.13602 4.68523-.840698 1.03083-1.603727 2.15084-2.02709 3.41185-.332996.99185-.446478 2.04153-.65633 3.06652-.07861.38398-.171386.76923-.169741 1.16118.000822.19597.02568.39281.08646.57912.06079.18631.15831.36204.294069.50337.224679.23391.540409.36101.858102.42632.317692.0653.643798.0751.966058.11177 1.454637.16535 2.794463.87199 4.000333 1.70216 1.205869.83017 2.317112 1.79543 3.554437 2.57795 2.733893 1.72899 5.994554 2.49829 9.226902 2.62285 3.232347.12456 6.457354-.36641 9.629488-.99977 2.520903-.50334 5.033924-1.10072 7.42544-2.04356 3.662411-1.44389 6.963507-3.66693 10.11819-6.02193 1.43301-1.06976 2.84598-2.17318 4.13251-3.41525.43668-.42159.859162-.85947 1.327567-1.24551.468404-.38603.988159-.72177 1.565973-.90766.880766-.28336 1.835622-.20203 2.748192-.0495.68732.11488 1.376.26902 2.07229.24128.34815-.0139.69661-.0742 1.02006-.2037.32345-.12954.62155-.33028.8433-.59903.29139-.35317.43996-.81445.4416-1.2723.002-.45786-.1387-.91095-.37105-1.30548-.4647-.78905-1.26825-1.32311-2.10504-1.69503-1.14614-.50941-2.3863-.76136-3.605512-1.05573-3.745289-.90427-7.384752-2.24056-10.83577-3.95385-1.715597-.85173-3.383551-1.79555-5.07175-2.70037-1.735567-.93021-3.504569-1.82415-5.38903-2.39536-4.21332-1.27713-8.818528-.85829-12.97748.58609-4.619909 1.60447-8.797447 4.46312-11.96616 8.18832z" fill="url(#x)"/><path d="m83.23853 153.07989c-.226496-.28623-.551139-.48799-.901294-.59103s-.724669-.1104-1.084432-.0488c-.719527.12322-1.364496.51049-1.965744.9245-1.708552 1.17648-3.218864 2.62822-4.53731 4.22977-1.745223 2.11996-3.18499 4.57171-3.66755 7.27489-.08131.45547-.135106.92132-.07821 1.38049.0569.45916.232792.91479.558708 1.24319.286171.28835.675727.46425 1.077847.52203.40212.0578.815901.002 1.200757-.12836.769713-.26019 1.408987-.79942 2.014436-1.34126 3.335973-2.98548 6.352522-6.56776 7.55957-10.87877.121128-.43261.224012-.87566.221233-1.3249-.0028-.44924-.119237-.90947-.398013-1.26176z" fill="#f6da4a" filter="url(#y)"/><path d="m75.2513 146.88985c.23129.7424 1.42778.61935 2.11906.97542.60659.31244 1.09447.99723 1.77651 1.01692.65093.0188 1.66398-.22542 1.74866-.87109.11187-.85303-1.13379-1.39511-1.93536-1.70762-1.03148-.40216-2.35301-.6062-3.3206-.0682-.22173.12328-.46373.41238-.38827.65458z" fill="url(#z)" filter="url(#B)" opacity=".8"/><path d="m63.8271 146.47001c-.88816-.28854-2.35748 1.27746-1.87806 2.07886.13167.22009.53491.49916.80641.34992.40925-.22497.74404-1.02958 1.18746-1.34496.29608-.21058.22974-.97156-.11581-1.08382z" fill="url(#C)" filter="url(#D)" opacity=".8"/><ellipse cx="243.29688" cy="158.28406" fill="url(#E)" filter="url(#F)" rx="2.608083" ry="2.328125" transform="matrix(1.0956223 0 -.17017853 1.5181314 -136.24431 -82.11746)"/></g><path clip-path="url(#H)" d="m50.39208 129.52717c2.68537-1.59933 5.95507-1.97034 9.066699-1.67565 3.111629.29468 6.125434 1.20847 9.141301 2.02921 2.211625.60188 4.451579 1.16149 6.525325 2.13777 2.073747.97627 3.99989 2.41568 5.141935 4.40296.183191.31877.345257.6497.539254.96201.193996.31232.42311.60867.716456.83031s.656994.3643 1.024107.34424c.183557-.01.365612-.0609.524176-.15388.158563-.093.292945-.22871.377987-.39169.09778-.18739.128079-.40446.117139-.61554s-.06122-.41805-.117139-.62189c-.755202-2.75296-2.53499-5.08832-3.88909-7.6014-.8126-1.5081-1.476963-3.09273-2.2981-4.5962-2.81829-5.16019-7.443597-9.21564-12.701405-11.84733-5.257808-2.6317-11.127445-3.89613-16.997075-4.23934-6.801182-.39768-13.619761.40945-20.32932 1.59099-2.908599.5122-5.86079 1.11511-8.435686 2.56156-1.287447.72322-2.467452 1.65662-3.388474 2.81087s-1.576477 2.53523-1.78765 3.99673c-.203522 1.40855.0088 2.86057.501301 4.19582.492484 1.33524 1.258246 2.5585 2.156537 3.66236 1.796584 2.20771 4.100665 3.93361 6.222432 5.83092 2.121308 1.8969 4.09001 3.99204 6.462948 5.56282 1.186469.78539 2.472664 1.43499 3.843385 1.81666 1.37072.38166 2.829918.48917 4.223827.20358 1.444987-.29606 2.782689-1.005 3.953624-1.90197 1.170934-.89697 2.186129-1.98006 3.148417-3.09793 1.924576-2.23575 3.722539-4.68648 6.257089-6.19599z" fill="url(#G)" transform="translate(-79 -9.000002)"/><path d="m66.1015 216.44951c6.084796 4.89463 9.945575 12.28597 11.14096 20.00305.932288 6.01859.326343 12.19496-1.030694 18.13223-1.357038 5.93726-3.452212 11.67615-5.531716 17.40051-.829244 2.2827-1.662186 4.5871-1.991686 6.9933-.3295 2.40621-.120849 4.95426 1.039536 7.08777 1.330223 2.44578 3.812954 4.13021 6.48184 4.92292 2.634941.78263 5.481042.76618 8.148186.10153 2.667145-.66466 5.157372-1.96341 7.328374-3.64929 5.515551-4.28306 8.84357-10.94871 10.13188-17.81211 1.28832-6.86339.69637-13.95038-.50149-20.83014-1.63342-9.38136-4.38172-18.55105-7.87991-27.40773-2.573144-6.51466-5.584121-12.92007-9.79135-18.52016-4.11706-5.48007-9.306851-10.09303-13.34018-15.63502-2.802621-3.85094-5.047703-8.14946-8.406367-11.52641-1.679332-1.68847-3.64041-3.13229-5.860231-3.99455s-4.71266-1.11623-7.005012-.47108c-3.021449.85034-5.489775 3.23113-6.802912 6.08208-1.313136 2.85095-1.54284 6.12313-1.031948 9.2201.659095 3.99536 2.486278 7.70258 4.54639 11.18873 2.326679 3.93724 5.021993 7.72707 8.53596 10.65407 3.667149 3.05459 8.101532 5.06875 11.82037 8.0602z" fill="#020204"/><path clip-path="url(#I)" d="m290.78125 216.01843c.48482.46774.98091.94261 1.5 1.375 3.66715 3.05459 5.61879 6.48526 9.33763 9.47671 6.0848 4.89463 12.25895 13.34358 13.45434 21.06066.93229 6.01859-.30093 9.28947-1.80468 16.3878-1.50374 7.09832-5.76944 17.14832-8.07376 23.99211-.9189 2.7291 1.86121 1.60306 1.49609 4.4798-.17944 1.41384-.19766 2.84238-.0346 4.25917.0227-.27104.0388-.5525.0693-.82194.44281-3.92274 1.62331-7.69479 2.90878-11.39514 2.47416-7.12214 5.31434-14.10109 7.27196-21.40792 1.95763-7.30683 1.74028-12.56443.71875-18.84375-1.28459-7.89637-5.79703-15.18702-12.1875-20-4.51852-3.40313-9.84688-5.58465-14.65625-8.5625z" fill="#838384" filter="url(#J)" transform="matrix(1.0180731 0 0 1 -244.25531 -9.000002)"/><path d="m-61.00266 211.59308c.88005 1.52387-.54737 6.77829 19.96381 3.4153 0 0-3.60202.4573-7.15281 1.40419-5.52127 2.1334-10.33021 4.51706-14.04019 7.67524-3.67553 3.12167-6.36707 7.19694-9.73973 10.69705 0 0 5.46173-11.5187 6.82331-14.98742 1.36157-3.46872-.22795-3.30999.84893-8.4136 1.07688-5.1036 3.71346-10.00699 3.71346-10.00699s-2.15241 7.21088-.41678 10.21623z" fill="url(#K)" filter="url(#M)" opacity=".25" transform="matrix(1.1543044 0 0 1 27.33247 -9.000002)"/><path d="m33.05009 201.21808c-4.8251 3.36138-7.65241 2.96341-13.50685 3.62087s-21.6983799.41943-21.6983799.41943 2.29371004-.0427 7.37759.90419c5.0838799.94693 15.4530699 1.85232 21.2917599 4.07468s7.96846 2.8566 11.51723 5.10056c5.05107 3.19388 8.75817 8.19694 13.587 11.69705 0 0 .23377-4.6437-1.71568-8.11242s-7.19037-8.93499-8.7322-14.0386c-1.54183-5.1036-2.27429-15.13199-2.27429-15.13199s-1.02108 8.10485-5.84618 11.46623z" fill="url(#N)" filter="url(#O)" opacity=".42"/><path d="m-12.3301 194.04012c-.179369 1.45594-.411891 2.90533-.69695 4.34431-.140522.70936-.294902 1.41989-.559048 2.09306s-.64419 1.31214-1.181252 1.79639c-.470714.42443-1.044392.71595-1.62069.97975-2.248274 1.02916-4.654404 1.71261-7.107978 2.01899.979924.0719 1.95856.16127 2.935278.2682.615343.0674 1.23207.14208 1.831685.29586.599614.15377 1.184725.38955 1.684225.75518.547806.40099.977994.94833 1.29931 1.54636.64023 1.19159.854346 2.56281.97272 3.91031.151393 1.72336.162441 3.45904.033 5.18419.115852-1.15429.357747-2.29589.72-3.39797.652842-1.98614 1.704157-3.84789 3.11974-5.38642.561715-.6105 1.1803846-1.17036 1.8587601-1.6479 2.0782129-1.46294 4.7180417-2.1055 7.23612-1.76133-2.5589724.11302-5.1489626-.69089-7.19419-2.23302-1.0416111-.78539-1.9487491-1.76287-2.5797601-2.90463-.975791-1.76561-1.250123-3.90675-.75098-5.86133z" fill="url(#P)" filter="url(#Q)" opacity=".2"/><path d="m-18.5 228.08093c-1.229545 4.67934-2.075193 9.45949-2.52566 14.27665-.637024 6.81216-.483681 13.6725-.84934 20.5046-.310288 5.79753-.991068 11.65587.0159 17.3737.480173 2.72655 1.342733 5.38547 2.55456 7.87467.192493-.95006.333564-1.91054.42239-2.87583.426609-4.63604-.354096-9.28689-.61781-13.93504-.462246-8.14744.665694-16.2899 1.125-24.4375.352601-6.25476.310824-12.53173-.125-18.78125z" filter="url(#R)" opacity=".11"/><path d="m37.6875 157.86218c-2.16217 1.96937 1.01359 4.92767 2.51966 8.40429.93626 2.16126 3.52677 5.20509 6.03244 4.7175 1.8848-.36677 3.05427-3.07936 2.87588-4.99121-.34416-3.68852-3.45669-4.55256-5.7172-5.81949-1.79139-1.00401-4.19258-3.69391-5.71078-2.31109z" fill="#838384" filter="url(#S)"/><g transform="translate(21 -9.000002)"><path d="m86.05618 328.13191c-.45671 1.54919-1.15216 3.04585-2.04962 4.41089-1.9805 3.01237-4.85449 5.2794-7.7268 7.37015-4.89889 3.56589-10.00272 6.83785-14.56318 10.89029-3.05551 2.71513-5.84112 5.75937-8.42278 8.96491-2.20789 2.74146-4.2839 5.61929-6.80089 8.05729-2.53964 2.45993-5.53049 4.44676-8.75187 5.52933-3.91796 1.31667-8.05795 1.2533-11.83233.25938-2.64475-.69647-5.22365-1.90703-6.86216-4.0969-1.6448-2.19828-2.1777-5.15218-2.36802-8.05186-.33651-5.12875.25967-10.36956.8034-15.57549.45167-4.3257.86825-8.65475 1.03855-12.97167.30984-7.85202-.19668-15.63586-1.23186-23.27336-.17336-1.27909-.36202-2.56818-.25656-3.88562.10519-1.31741.5354-2.6883 1.43615-3.70529.83202-.93937 1.9928-1.49566 3.15071-1.76892 1.15792-.27325 2.32983-.2898 3.4927-.3215 2.74018-.0747 5.49647-.24039 8.19521.006 1.70282.15559 3.37264.47459 5.07313.6427 2.83764.28052 5.78134.13286 8.62739-.72369 3.06405-.92215 5.98631-2.65158 9.09944-3.12742 1.27732-.19521 2.559-.17251 3.80104.006 1.26746.18218 2.5284.54175 3.50235 1.33598.74019.60362 1.28194 1.43281 1.70583 2.31655.63144 1.31651 1.01921 2.77031 1.24115 4.2613.19663 1.32082.26639 2.68017.59789 3.95737.54536 2.10123 1.78089 3.88647 3.26736 5.33963 1.48646 1.45316 3.22499 2.60245 4.96058 3.73413 1.72907 1.12743 3.46794 2.24684 5.31472 3.17629.86675.43621 1.75751.83074 2.58612 1.33307.8286.50234 1.60071 1.12107 2.15093 1.93549.74634 1.10471 1.04569 2.55273.82168 3.97474l.00002-.00001" fill="url(#T)" filter="url(#U)" opacity=".2" transform="matrix(1.0268828 0 0 1 -2.313437 0)"/><path clip-path="url(#W)" d="m516.00562 331.87559c-.6714 1.71905-1.62682 3.32679-2.81579 4.73826-2.6238 3.11482-6.268 5.17039-9.89648 7.01985-6.1886 3.15437-12.60169 5.92177-18.41964 9.71654-3.89802 2.54249-7.4959 5.52671-10.86016 8.74238-2.87719 2.75012-5.60582 5.68745-8.83247 8.01771-3.25567 2.35122-7.01915 4.05426-10.99061 4.6502-4.83026.72481-9.82134-.21289-14.29898-2.16416-3.13754-1.36728-6.15569-3.3229-7.96301-6.22931-1.81425-2.91754-2.22807-6.48813-2.23266-9.92375-.008-6.07666 1.11824-12.09004 2.17848-18.07349.88097-4.97177 1.71949-9.95483 2.26013-14.97502.98337-9.13118.9763-18.35278.3199-27.51327-.10993-1.53416-.23754-3.0832-.008-4.60412.22922-1.52092.85475-3.0367 2.02069-4.03986 1.07696-.9266 2.52093-1.33598 3.93947-1.4145 1.41854-.0785 2.83404.14655 4.23982.35197 3.31254.48405 6.65159.8649 9.88917 1.71656 2.04284.53738 4.03315 1.25925 6.0722 1.81081 3.40258.92039 6.96639 1.36144 10.46739.95192 3.76917-.44089 7.42987-1.85678 11.22363-1.76474 1.55658.0378 3.1015.33171 4.58649.79985 1.51539.47772 3.00914 1.16182 4.12281 2.29512.84639.8613 1.43579 1.94539 1.87872 3.06879.65982 1.67352 1.01492 3.457 1.16703 5.24945.13475 1.58788.11343 3.19441.41433 4.75933.49503 2.57458 1.84746 4.92305 3.52848 6.93494s3.68982 3.72048 5.69641 5.40783c1.99908 1.68103 4.0106 3.35469 6.16708 4.82839 1.0121.69165 2.05642 1.33949 3.01736 2.10062s1.84466 1.6468 2.44543 2.71535c.81492 1.44944 1.06377 3.2077.68307 4.82635z" fill="url(#V)" transform="translate(-410)"/><path clip-path="url(#X)" d="m512.89128 328.72435c-.61724 1.54745-1.48971 2.99275-2.57146 4.2598-2.40248 2.814-5.72921 4.65444-9.03774 6.31099-5.65305 2.83043-11.50277 5.31761-16.82133 8.73539-3.55362 2.28361-6.84076 4.96564-9.9178 7.85959-2.62917 2.47273-5.12496 5.116-8.06607 7.20809-2.98093 2.12042-6.41793 3.6468-10.03693 4.18063-4.40931.65041-8.96019-.19314-13.05822-1.94562-2.85719-1.22185-5.61733-2.97002-7.27205-5.60029-1.64629-2.61688-2.0313-5.83002-2.03893-8.92166-.0135-5.46467 1.01827-10.87076 1.98945-16.24846.80703-4.46875 1.57531-8.9482 2.06402-13.46287.88853-8.20825.8481-16.49756.29214-24.73502-.0931-1.38017-.20023-2.77381.0118-4.14077.21204-1.36695.77803-2.72737 1.82595-3.63036.9828-.84687 2.30304-1.21795 3.5986-1.28594 1.29556-.068 2.58744.14181 3.87096.3307 3.02315.4449 6.07241.77918 9.03106 1.54323 1.86541.48173 3.68372 1.13165 5.54531 1.62795 3.10947.82898 6.36227 1.22486 9.55911.8558 3.44127-.39728 6.78665-1.67148 10.24974-1.58654 1.42063.0348 2.83052.30037 4.1885.71908 1.38179.42605 2.74909 1.03446 3.76507 2.06337.76566.7754 1.29538 1.75352 1.7157 2.75891.62574 1.49674 1.03256 3.09742 1.06577 4.71936.0347 1.69374-.33552 3.39491-.10594 5.07338.18638 1.36264.7635 2.64802 1.50064 3.80912.73713 1.1611 1.634 2.2109 2.52251 3.26069 1.71726 2.02897 3.4393 4.09674 5.5931 5.65457 2.45218 1.77364 5.36188 2.81145 7.89508 4.46732.75511.49359 1.48596 1.05215 2.01814 1.78058.8972 1.22806 1.1387 2.90791.62379 4.33898z" fill="#cd8907" filter="url(#Y)" transform="translate(-410)"/><path clip-path="url(#Z)" d="m508.79285 327.92545c-.60151 1.26455-1.38215 2.44372-2.31134 3.49133-2.15335 2.42776-5.06099 4.09917-8.12349 5.1725-5.04166 1.76698-10.54565 2.00437-15.49471 4.01618-3.01615 1.22607-5.73063 3.07339-8.47914 4.81871-2.22174 1.41082-4.49246 2.76887-6.93206 3.75622-2.75548 1.1152-5.68568 1.74047-8.62582 2.17857-1.87082.27876-3.76259.48423-5.65156.38704-1.88898-.0972-3.78418-.50735-5.45127-1.40092-1.26399-.6775-2.40126-1.6529-3.07596-2.91839-.74956-1.4059-.87959-3.05603-.86243-4.64917.0457-4.24592 1.02557-8.4458.99617-12.69186-.0256-3.69614-.81525-7.34495-1.04231-11.03419-.43665-7.09457 1.2047-14.31322-.23989-21.27287-.23125-1.11413-.54212-2.22686-.52701-3.36463.008-.56889.0988-1.14101.31541-1.66709.21661-.52609.56289-1.00508 1.02461-1.33751.38878-.27992.85044-.45024 1.32336-.52677.47292-.0765.95748-.0616 1.43166.007.94836.13656 1.85188.48215 2.77546.73718 2.64193.72952 5.43254.71432 8.11748 1.26484 1.68527.34555 3.31679.91149 4.98436 1.33427 2.80028.70996 5.72013 1.0133 8.59212.70142 3.0885-.33539 6.10714-1.37534 9.21289-1.30034 1.27305.0307 2.53741.25005 3.76479.58936 1.22771.3394 2.45538.81951 3.38421 1.69114.6693.62809 1.15135 1.4307 1.54214 2.26121.5703 1.21202.96726 2.52854.95796 3.868-.005.6968-.11899 1.38758-.18672 2.0811-.0677.69352-.0878 1.40368.0914 2.07705.18009.67656.55415 1.2867.98269 1.84033.42854.55364.91471 1.06002 1.35819 1.60176 1.24195 1.51713 2.12961 3.28544 3.09724 4.99067.96764 1.70523 2.05232 3.39266 3.58036 4.62117 2.0797 1.67204 4.77798 2.34016 7.09642 3.66141.67877.38682 1.33676.84082 1.81399 1.45937.38231.49552.63762 1.0882.73509 1.70642.0975.61822.0369 1.26071-.1744 1.84982z" fill="#f5c021" filter="url(#aa)" transform="matrix(1.1429721 0 0 1.2323048 -478.99801 -77.126193)"/><path d="m27.30927 290.64972c3.27611-.88704 6.0662 1.5972 8.44228 3.47233 1.53527 1.30928 3.75348.97992 5.63665 1.04213 3.12069-.11321 6.22535.52281 9.34708.13577 6.14462-.51932 12.16847-2.02966 18.34236-2.28984 2.94948-.18579 6.25992-.35725 8.80813 1.36517 1.03299.7155 2.54702 3.74139 3.56647 2.60489-.42031-3.17821-2.77748-6.25589-5.93906-7.10224-2.47492-.38942-4.98985.29134-7.48947.0711-7.42294-.17706-14.79344-1.5554-22.23396-1.16015-5.17644.0448-10.34657-.19501-15.51546-.39662-2.03057-.41489-2.74674 1.38901-3.8489 2.08085" fill="url(#ab)" filter="url(#ac)"/></g><path d="m361.75 209.34296c.002-1.53313-7.56474-10.0564-9.7896-8.48643-2.22486 1.56998-.49172 3.7842-.29604 5.49789.19568 1.71368-.94537 6.60933.23849 7.25934s3.36607-2.5198 5.30111-4.27697c1.55818-1.41494 4.54398 1.53929 4.54604.006z" fill="#7c7c7c" filter="url(#ad)" opacity=".75" transform="matrix(-.09596121 -.95700905 -.77476232 .11853409 259.90204 542.60667)"/><path d="m351.9604 200.85653c-1.45162.38883-1.23008 3.99417-.29604 5.49789.78886 1.26999 3.07235 2.27109 3.75853 1.00504 1.11412-2.05562-1.47192-7.03613-3.46249-6.50293z" fill="#7c7c7c" filter="url(#ae)" opacity=".25" transform="matrix(-.06991927 .95700905 -.56450744 -.11853409 97.56774 -131.0171)"/><g fill="url(#af)" transform="translate(21 -9.000002)"><path d="m71.48366 295.64014c-.562575-1.10201-1.586921-1.92585-2.728725-2.40251-1.141803-.47667-2.396928-.6289-3.634197-.61936-2.474537.0191-4.934587.66357-7.399988.45028-2.082597-.18018-4.058745-.96301-6.08982-1.45739-2.097262-.51049-4.321879-.70969-6.40465-.14297-2.225952.60568-4.189424 2.09362-5.41915 4.04541-1.084262 1.72091-1.599093 3.75274-1.76111 5.78028-.162016 2.02754.01297 4.06578.21815 6.08941.148398 1.46363.31354 2.93079.667645 4.35866.354105 1.42788.904219 2.82282 1.766075 4.01506 1.240713 1.71632 3.083374 2.9395 5.06938 3.67497 3.241832 1.20053 6.933796 1.13597 10.13167-.17718 5.658851-2.45702 10.449216-6.8639 13.36879-12.29857 1.045394-1.94596 1.857401-4.01932 2.38189-6.16513.208453-.85283.372151-1.72236.379775-2.60027.0076-.8779-.146556-1.76875-.545735-2.55069z" filter="url(#ag)" opacity=".35"/><path d="m71.483661 295.64014c-.562575-1.10201-1.586921-1.92585-2.728725-2.40251-1.141803-.47667-2.396928-.6289-3.634197-.61936-2.474537.0191-4.934587.66357-7.399988.45028-2.082597-.18018-4.058745-.96301-6.08982-1.45739-2.097262-.51049-4.321879-.70969-6.40465-.14297-2.225952.60568-4.189424 2.09362-5.41915 4.04541-1.084262 1.72091-1.599093 3.75274-1.76111 5.78028-.162016 2.02754.01297 4.06578.21815 6.08941.148398 1.46363.31354 2.93079.667645 4.35866.354105 1.42788.904219 2.82282 1.766075 4.01506 1.240713 1.71632 3.083374 2.9395 5.06938 3.67497 3.241832 1.20053 6.933796 1.13597 10.13167-.17718 5.658851-2.45702 10.449216-6.8639 13.36879-12.29857 1.045394-1.94596 1.857401-4.01932 2.38189-6.16513.208453-.85283.372151-1.72236.379775-2.60027.0076-.8779-.146556-1.76875-.545735-2.55069z" filter="url(#ah)" opacity=".35" transform="matrix(1 0 0 .72292525 0 80.758477)"/></g><g transform="translate(21 -9.000002)"><path d="m76.1875 285.32775c-.405158-1.10369-1.118445-2.08156-1.990705-2.86987-.872259-.78832-1.900482-1.39229-2.982775-1.85155-2.164587-.91852-4.520525-1.26149-6.83152-1.69556-2.179187-.40931-4.34179-.90631-6.52782-1.27734-2.27136-.38551-4.617897-.63213-6.8653-.1253-1.965827.44333-3.784499 1.45879-5.271724 2.81864-1.487225 1.35984-2.649109 3.0564-3.484986 4.89007-1.472176 3.22952-1.934512 6.86503-1.65394 10.40316.208815 2.63325.875323 5.34594 2.60877 7.33912 1.400654 1.61052 3.387329 2.61526 5.43398 3.22092 3.525017 1.04316 7.366632.98822 10.86038-.1553 5.766894-1.93113 10.875681-5.77387 14.33034-10.77903 1.138609-1.64963 2.112174-3.44809 2.5532-5.4034.335973-1.48955.348308-3.08112-.1779-4.51456z" fill="#020204"/><path clip-path="url(#ak)" d="m362.21875 276.45593c-.54933.0306-1.08144.0909-1.625.1875-3.46951.61686-6.64705 2.80857-8.4375 5.84375-1.26396 2.14267-1.83985 4.67634-1.65625 7.15625.0732-1.74163.52946-3.44685 1.375-4.96875 1.43442-2.58185 4.03238-4.52979 6.9375-5.0625 1.78976-.32819 3.63182-.13095 5.4375.0937 1.73256.2156 3.48115.44287 5.1875.8125 2.64101.57209 5.25428 1.45135 7.46875 3 .51646.36118.99955.76857 1.40625 1.25.40669.48143.72188 1.03792.84375 1.65625.17824.90428-.0794 1.85295-.53125 2.65625-.45189.8033-1.06491 1.50665-1.71875 2.15625-.52923.5258-1.09482 1.03417-1.65625 1.53125 2.559-.49571 5.15199-1.19766 7.28125-2.6875.89975-.62955 1.71523-1.38464 2.25-2.34375.53477-.95912.76245-2.1212.5-3.1875-.17714-.71971-.57137-1.3824-1.0625-1.9375-.49114-.55511-1.0805-1.01217-1.6875-1.4375-2.67877-1.87701-5.81493-3.07854-9.0625-3.46875-2.08149-.38286-4.18122-.70597-6.28125-.96875-1.64344-.20564-3.32077-.37313-4.96875-.28125z" fill="url(#ai)" filter="url(#al)" transform="translate(-310)"/><path clip-path="url(#an)" d="m362.21875 276.45593c-.54933.0306-1.08144.0909-1.625.1875-3.46951.61686-6.64705 2.80857-8.4375 5.84375-1.26396 2.14267-1.83985 4.67634-1.65625 7.15625.0732-1.74163.52946-3.44685 1.375-4.96875 1.43442-2.58185 4.03238-4.52979 6.9375-5.0625 1.78976-.32819 3.63182-.13095 5.4375.0937 1.73256.2156 3.48115.44287 5.1875.8125 2.64101.57209 5.25428 1.45135 7.46875 3 .51646.36118.99955.76857 1.40625 1.25.40669.48143.72188 1.03792.84375 1.65625.17824.90428-.0794 1.85295-.53125 2.65625-.45189.8033-1.06491 1.50665-1.71875 2.15625-.52923.5258-1.09482 1.03417-1.65625 1.53125 2.559-.49571 5.15199-1.19766 7.28125-2.6875.89975-.62955 1.71523-1.38464 2.25-2.34375.53477-.95912.76245-2.1212.5-3.1875-.17714-.71971-.57137-1.3824-1.0625-1.9375-.49114-.55511-1.0805-1.01217-1.6875-1.4375-2.67877-1.87701-5.81493-3.07854-9.0625-3.46875-2.08149-.38286-4.18122-.70597-6.28125-.96875-1.64344-.20564-3.32077-.37313-4.96875-.28125z" fill="url(#am)" filter="url(#al)" transform="translate(-310)"/></g><g transform="translate(21 -9.000002)"><path d="m-61.50184 184.42468c-2.783562 3.47383-5.561716 6.95199-8.33445 10.43446-2.856916 3.58821-5.708106 7.18103-8.58729 10.75139-3.532685 4.38074-7.149144 8.79422-9.44912 13.93045-1.976249 4.41329-2.910774 9.20725-4.26498 13.84932-1.537901 5.27176-3.626089 10.3703-5.97071 15.33612-2.16496 4.58531-4.54982 9.06291-6.93891 13.53553-1.7382 3.25409-3.50514 6.58104-4.10782 10.22071-.47628 2.87632-.1985 5.84423.53375 8.66626.73225 2.82202 1.90965 5.5106 3.23776 8.10601 5.667249 11.07504 14.170032 20.62168 24.24176 27.92472 4.570626 3.31418 9.466691 6.18109 14.60245 8.52595 2.782468 1.27041 5.713552 2.40436 8.771859 2.45744 1.529154.0265 3.074104-.22544 4.47434-.84055 1.400236-.6151 2.650677-1.60373 3.482541-2.88709 1.022778-1.5779 1.369917-3.53829 1.164614-5.40743s-.934843-3.65294-1.913244-5.25873c-2.389971-3.92251-6.165196-6.76055-9.79642-9.57343-7.840549-6.07358-15.424654-12.48039-22.68212-19.23996-2.049117-1.90854-4.098407-3.87759-5.53019-6.28412-1.394295-2.34352-2.147602-5.01376-2.65783-7.69253-1.399719-7.34873-1.040921-15.08286 1.45958-22.13343.978222-2.75826 2.271183-5.39201 3.51815-8.03965 2.161326-4.58906 4.207248-9.26564 7.04933-13.46723 3.537978-5.23037 8.267489-9.66049 11.15147-15.27803 2.434229-4.74149 3.419942-10.07236 4.36185-15.31831.736933-4.10434 1.464812-8.21031 2.18363-12.31787z" fill="#020204"/><path clip-path="url(#ao)" d="m232.33049 224.26954c-2.32126 2.13749-4.33307 4.61051-5.95338 7.31823-2.66801 4.45854-4.23905 9.46835-6.17809 14.28882-1.44362 3.58886-3.12519 7.19314-3.32662 11.05622-.10346 1.98418.19056 3.96588.25671 5.95165.0662 1.98578-.11756 4.05108-1.08967 5.78391-.81338 1.44988-2.1659 2.58902-3.73298 3.14402 2.11547.70686 4.00453 2.07546 5.33532 3.86539 1.11451 1.49902 1.82759 3.25366 2.79609 4.85091.78716 1.29818 1.75335 2.50124 2.94285 3.44463s2.61141 1.61974 4.11726 1.81293c2.06623.26508 4.23574-.42815 5.76541-1.84225-1.92538-18.0357-.16195-36.4572 5.15013-53.80008.33544-1.09515.68725-2.19828.77034-3.34063.0831-1.14235-.12896-2.34792-.82414-3.2582-.37014-.48467-.86838-.87059-1.4302-1.1078-.56182-.2372-1.18588-.32512-1.79136-.25236-.60549.0727-1.19096.306-1.68059.66954-.48964.36355-.88227.85651-1.12706 1.41507z" fill="#7c7c7c" filter="url(#ap)" opacity=".95" transform="translate(-310)"/></g><g clip-path="url(#aq)" transform="translate(-219 -9.000002)"><path d="m137.57703 281.0191c1.59929-.66295 3.3982-.78361 5.10074-.46963 1.70253.31398 3.31141 1.04948 4.74342 2.02239 2.86402 1.94583 4.98821 4.77774 7.02263 7.57952 4.67189 6.43406 9.16868 13.00227 13.24488 19.8293 3.30635 5.53766 6.34352 11.25685 10.16415 16.45304 2.49398 3.3919 5.3066 6.53947 7.813 9.92221 2.50639 3.38273 4.72794 7.05586 5.83931 11.11662 1.44411 5.27653.88463 11.09291-1.62666 15.95302-1.76663 3.41896-4.47646 6.35228-7.77242 8.33898-3.29595 1.9867-7.17064 3.01444-11.01635 2.87021-6.11413-.2293-11.69944-3.28515-17.38362-5.54906-11.58097-4.6125-24.15978-6.0594-36.09666-9.65174-3.66859-1.10404-7.27582-2.4107-10.96988-3.42629-1.64125-.45122-3.30866-.8482-4.85875-1.55144-1.55008-.70325-2.999548-1.7491-3.86171-3.21675-.666391-1.13439-.948386-2.47002-.930187-3.78554.0182-1.31552.325889-2.61453.773815-3.85158.895851-2.47409 2.343262-4.71374 3.320162-7.15696 1.59511-3.98935 1.88169-8.38839 1.66657-12.67942-.21511-4.29103-.91078-8.54478-1.20454-12.83115-.13118-1.91406-.18066-3.85256.18479-5.73598.36545-1.88343 1.17577-3.72459 2.55771-5.05541 1.27406-1.22693 2.96492-1.95531 4.69643-2.31651s3.51533-.37747 5.28367-.33762c1.76833.0399 3.54067.13425 5.30351-.0106 1.76284-.14488 3.53347-.54055 5.06911-1.41828 1.45996-.83447 2.65433-2.0745 3.64374-3.43424.9894-1.35974 1.78909-2.84573 2.60891-4.31396.81983-1.46823 1.66834-2.93151 2.74157-4.22611 1.07324-1.2946 2.38923-2.42304 3.94266-3.06698z" fill="url(#ar)"/><path d="m140.10966 283.77885c1.45515-.58619 3.09423-.65064 4.62272-.30406 1.52849.34657 2.94957 1.09015 4.18836 2.047 2.47758 1.91371 4.19983 4.61379 5.85419 7.26861 3.97009 6.43306 7.8514 12.93381 11.5161 19.56716 2.7769 4.99324 5.4247 10.09253 8.83749 14.67892 2.26379 3.04154 4.84735 5.83139 7.15787 8.83675 2.31051 3.00536 4.37126 6.28214 5.3928 9.93347 1.31626 4.70582.78265 9.91001-1.49541 14.23282-1.63755 3.10576-4.15203 5.74644-7.18609 7.5126-3.03406 1.76617-6.57924 2.64923-10.08655 2.48791-5.59831-.25772-10.71129-3.05353-15.98089-4.95071-10.10307-3.66572-21.05344-4.15754-31.41615-7.02001-3.71479-1.00833-7.33661-2.35276-11.06955-3.29396-1.65162-.41658-3.33303-.75712-4.90217-1.4193-1.56914-.66219-3.04681-1.68866-3.89752-3.16474-.63282-1.09717-.88561-2.38838-.84651-3.65421.0391-1.26584.35915-2.51035.80992-3.69386.90155-2.36701 2.32025-4.51029 3.22912-6.87464 1.3787-3.57425 1.54994-7.50412 1.29397-11.32617s-.9211-7.60949-1.15326-11.4336c-.10374-1.70896-.11933-3.43899.22634-5.11576.34564-1.67677 1.07606-3.30971 2.29486-4.512 1.32089-1.30904 3.14116-2.02413 4.97727-2.30427 1.83611-.28013 3.70601-.15808 5.55479.007 1.84877.16495 3.70503.37271 5.56113.26163 1.85609-.11109 3.7357-.56331 5.26886-1.60694 1.39737-.94461 2.44584-2.32407 3.24439-3.79842.79856-1.47435 1.3676-3.05544 1.97644-4.61656.60885-1.56113 1.26672-3.12189 2.2218-4.50973.95509-1.38785 2.23612-2.60467 3.80568-3.23473" fill="#d99a03" filter="url(#as)"/><path d="m138.7532 281.23531c1.40907-.7122 3.07062-.85812 4.61642-.53681 1.54579.3213 2.97823 1.09063 4.19572 2.09584 2.43498 2.0104 3.98026 4.8747 5.41939 7.68535 3.30494 6.45466 6.3834 13.04983 10.33791 19.12824 2.86875 4.40952 6.17965 8.51701 9.08155 12.90479 3.93557 5.95071 7.13582 12.4957 8.45639 19.50682.88822 4.71571.85899 9.80955-1.37244 14.05779-1.46869 2.79611-3.85002 5.08988-6.66339 6.52522-2.81337 1.43533-6.0432 2.01701-9.18889 1.73441-4.95423-.44507-9.4537-2.92512-14.11748-4.65475-8.27469-3.06879-17.21809-3.80325-25.73435-6.1187-3.59196-.9766-7.10999-2.23521-10.7509-3.00963-1.60616-.34163-3.24361-.59125-4.77675-1.17943-1.53313-.58818-2.98623-1.56578-3.76965-3.00894-.55139-1.01573-.73656-2.20459-.65433-3.3574.0822-1.15282.42084-2.27486.86462-3.34201.88755-2.13429 2.20087-4.08935 2.89035-6.29561 1.01321-3.24214.59672-6.75718-.1636-10.06777-.76031-3.31059-1.85667-6.56127-2.19448-9.94121-.15046-1.50543-.14681-3.03993.19136-4.51458.33818-1.47465 1.02687-2.89176 2.10855-3.94955 1.3932-1.36244 3.34372-2.03997 5.28315-2.22925 1.93944-.18927 3.89217.0689 5.82027.3512 1.9281.28227 3.86824.59003 5.8148.49986 1.94656-.0902 3.92849-.61081 5.45316-1.82432 1.50782-1.20011 2.45577-2.98713 2.99939-4.83599.54362-1.84885.71997-3.78191.94267-5.69612s.50044-3.8462 1.22971-5.63c.72928-1.7838 1.96094-3.42814 3.68085-4.29745z" fill="#f5bd0c" filter="url(#at)" transform="matrix(1 0 0 .98204782 0 3.958973)"/><path d="m156.40717 295.96941c2.60622 4.71337 4.1958 10.12156 6.78125 14.875 2.3781 4.37223 5.08446 8.87379 7.5 12.90625 1.07545 1.79534 3.58329 4.5546 6.11895 8.83731 2.29771 3.88081 4.61826 9.29715 5.91658 11.1158-.74552-2.12877-2.27926-7.84655-4.10875-11.92255-1.70955-3.80877-3.69976-5.98219-4.92678-8.03056-2.41553-4.03246-5.01691-7.65647-7.5-11.5-3.42521-5.30181-6.03558-11.23523-9.78125-16.28125z" fill="url(#au)" filter="url(#av)"/></g></g></svg>