<svg height="32" viewBox="0 0 8.4666665 8.4666669" width="32" xmlns="http://www.w3.org/2000/svg"><g transform="matrix(.19754324818 0 0 .19756434341 -68.4653541902 -8.04360126533)"><path d="m354.28123 55.874999 23.03125-14 1.4375 4.25-12.9375 8.0625-11.625 7.124999-1.4375-2.25z" fill="#f00"/><path d="m356.64696 61.963648 27.60302.22385-.8125 4.9375-28.8125.625.4375-5.375z" fill="#ff0" stroke="#000"/><path d="m354.12498 67.499998 30.25.25-.25 13.749999-29.125.375z" fill="#ececec"/></g><path d="m353.80439 82.580796-.49173-.386812v-10.369916-10.369916l-1.29583-1.406304c-1.39247-1.511196-1.64602-2.259346-.97186-2.867677.53767-.485196 25.65252-15.693014 26.10291-15.806138.76749-.192768 1.2486.363109 2.05674 2.376347.8172 2.035854.90015 2.497658.53357 2.970528-.24351.314089-12.06187 7.661674-18.83572 11.710313-2.18901 1.308352-4.17869 2.531289-4.42151 2.717648-.429.329263-.043.338823 13.66459.338823 14.15608 0 14.64416.02036 15.05076.629349.0748.111954.13724 4.665297.13879 10.118374.002 8.273165-.0407 9.974174-.25987 10.274014-.25588.349973-.66056.360628-15.52094.408756-15.23259.04935-15.25902.04873-15.74994-.337389zm29.31219-7.672083v-6.386552h-13.79125-13.79126v6.386552 6.386553h13.79126 13.79125zm-20.27038-10.459139 2.02998-2.036286h-2.6842-2.6842l-2.02998 2.036286-2.02998 2.036301h2.6842 2.68421zm9.33163.138786c1.07829-1.04361 1.98831-1.959938 2.02225-2.036301.0339-.07633-1.13373-.138786-2.5948-.138786h-2.65651l-2.02998 2.036285-2.02998 2.036301h2.66423 2.66423zm9.40837.0031c1.04534-1.041775 1.90062-1.958118 1.90062-2.036286 0-.07818-1.18849-.142178-2.64109-.142178h-2.64108l-2.02998 2.036285-2.02998 2.036301h2.77045 2.77043zm-24.89234-5.540621c1.14386-.729383 2.21606-1.458288 2.38263-1.619789.18838-.182611.44208-1.098415.67107-2.422465.2025-1.170862.35589-2.144616.34086-2.163892-.0154-.01928-1.1084.65268-2.42969 1.493215l-2.40234 1.528252-.29022 1.653775c-.1596.909589-.34496 1.924532-.41188 2.255429-.0669.330897-.0808.601623-.031.601623.05 0 1.02663-.596765 2.17051-1.326148zm9.06935-5.639683c1.24646-.776755 2.29019-1.432381 2.3194-1.456915.0905-.07602.91711-4.53547.84064-4.53547-.0396 0-1.14155.664339-2.44861 1.47633l-2.37645 1.47633-.29729 1.624384c-.16351.893413-.3515 1.895125-.41773 2.226022-.0663.330897-.0677.601638-.003.601638.0645 0 1.13692-.635548 2.38339-1.412319zm8.61457-5.312579 2.36602-1.541621.31559-2.100525c.17356-1.155286.27712-2.138962.23013-2.185943-.047-.04697-1.1084.574522-2.35874 1.381116l-2.27334 1.466529-.29442 1.474275c-.41732 2.089564-.55789 3.047774-.44714 3.047774.0527 0 1.16057-.69373 2.4619-1.541605z" fill="#1a1a1a" stroke="#fff" stroke-width=".348" transform="matrix(.19754324818 0 0 .19756434341 -68.4653541902 -8.04360126533)"/><g stroke-width=".218454" transform="matrix(.26456920125 0 0 .26459745875 -59.254007 -42.333495)"><path d="m234.02716 185.53444q.51627 0 .73814-.192.22614-.192.22614-.63147 0-.4352-.22614-.62294-.22187-.18773-.73814-.18773h-.6912v1.63414zm-.6912 1.13494v2.41068h-1.64268v-6.37017h2.50882q1.25867 0 1.84321.4224.5888.4224.5888 1.33548 0 .63147-.3072 1.0368-.30293.40534-.91734.59734.33707.0768.60161.34987.2688.2688.54187.8192l.89174 1.80908h-1.74935l-.77654-1.58294q-.23467-.47787-.47787-.6528-.23893-.17494-.64-.17494z"/><path d="m238.42186 182.70989h4.43309v1.24161h-2.79041v1.18614h2.62401v1.24161h-2.62401v1.4592h2.88428v1.24161h-4.52696z"/><path d="m249.44273 188.73019q-.45227.23467-.94294.35414-.49067.11947-1.02401.11947-1.59147 0-2.52161-.88748-.93014-.89173-.93014-2.41494 0-1.52748.93014-2.41495.93014-.89174 2.52161-.89174.53334 0 1.02401.11947.49067.11946.94294.35413v1.31841q-.45654-.31147-.90027-.45654-.44374-.14506-.93441-.14506-.87894 0-1.38241.5632-.50347.5632-.50347 1.55308 0 .9856.50347 1.54881.50347.5632 1.38241.5632.49067 0 .93441-.14507.44373-.14507.90027-.45653z"/></g></svg>