<svg height="32" viewBox="0 0 8.4666665 8.4666669" width="32" xmlns="http://www.w3.org/2000/svg" xmlns:xlink="http://www.w3.org/1999/xlink"><radialGradient id="a" cx="223.78369" cy="-29.007458" gradientTransform="matrix(1 0 0 1.0082356 0 .238893)" gradientUnits="userSpaceOnUse" r="7.047603"><stop offset="0" stop-color="#008080"/><stop offset=".9170109" stop-color="#008080"/><stop offset="1" stop-color="#00474d"/></radialGradient><linearGradient id="b" gradientTransform="matrix(.99993573 0 0 1.0081708 207.12622 -44.219435)" gradientUnits="userSpaceOnUse" x1="12.291612" x2="20.920582" y1="11.785198" y2="19.336046"><stop offset="0" stop-color="#dbf0fa"/><stop offset="1" stop-color="#f8fcfe" stop-opacity=".712766"/></linearGradient><linearGradient id="c" gradientTransform="matrix(.99993573 0 0 1.0081708 207.12622 -44.219435)" gradientUnits="userSpaceOnUse" x1="8.97535" x2="6.581181" y1="24.508139" y2="21.695408"><stop offset="0" stop-color="#ffbe00"/><stop offset="1" stop-color="#ffcc9a"/></linearGradient><linearGradient id="d" gradientUnits="userSpaceOnUse" x1="74.107258" x2="61.134701" y1="-51.730511" y2="-63.044216"><stop offset="0" stop-color="#f9f9f9"/><stop offset="1" stop-color="#f9f9f9" stop-opacity="0"/></linearGradient><g transform="matrix(.26455472 0 0 .26458298 -12.556615 18.933346)"><g transform="matrix(1.6127511 0 0 1.6272486 -293.28326 -12.794183)"><ellipse cx="224.07808" cy="-28.820549" fill="#4d4d4d" rx="7.047603" ry="7.105644"/><path d="m218.5279-24.79441c.49341.716074 1.06846 1.294511 1.77958 1.790186-2.24934 2.185331-4.49846 4.370887-6.74781 6.556218-.5813-.608347-1.16281-1.216471-1.74411-1.824594 2.23752-2.174088 4.47482-4.347949 6.71234-6.52181z" fill="#808080"/><ellipse cx="223.78369" cy="-29.007458" fill="url(#a)" rx="7.047603" ry="7.105644"/><ellipse cx="223.78369" cy="-29.007458" fill="url(#b)" rx="5.932968" ry="5.98183" stroke="#ececec" stroke-linecap="round" stroke-linejoin="round" stroke-width=".223977"/><path d="m217.99616-24.953004c.49341.716074 1.06846 1.294511 1.77958 1.790185-2.24935 2.185332-4.49847 4.370888-6.74781 6.556219-.5813-.608348-1.16282-1.216471-1.74412-1.824595 2.23753-2.174087 4.47483-4.347948 6.71235-6.521809z" fill="url(#c)"/></g><path d="m71.672499-63.751082c-2.57037.271876-4.877126 1.38434-6.611009 3.049204-1.462075 1.403875-2.510283 3.2012-2.975046 5.209055.956792 2.601845 3.534 4.469177 6.571239 4.469177 3.851574 0 6.972709-2.998031 6.972709-6.69629 0-2.659714-1.6182-4.9505-3.957893-6.031146z" fill="url(#d)"/></g></svg>