<svg height="32" viewBox="0 0 8.4666665 8.4666669" width="32" xmlns="http://www.w3.org/2000/svg" xmlns:xlink="http://www.w3.org/1999/xlink"><filter id="a" color-interpolation-filters="sRGB" height="1.127754" width="1.16498" x="-.08249" y="-.063877"><feGaussianBlur stdDeviation=".7116165"/></filter><linearGradient id="b" gradientUnits="userSpaceOnUse" x1="-103.05812" x2="-100.29388" y1="179.9091" y2="170.3159"><stop offset="0" stop-color="#00f"/><stop offset=".69444132" stop-color="#0af"/><stop offset="1" stop-color="#bff"/></linearGradient><g style="filter:url(#a);fill:#fff;stroke:#fff;stroke-width:.197489;stroke-linecap:round;stroke-linejoin:round" transform="matrix(.2645547206 0 0 .26458297281 .00045413688 .2568002075)"><g transform="matrix(2.7870716 0 0 2.7870716 305.87828 -472.05109)"><path d="m-103.05812 170.3159h2.764248v9.593206h-2.764248z"/><path d="m-103.05812 170.3159h2.764248v9.593206h-2.764248z"/></g><g transform="matrix(-2.7870716 0 0 2.7870716 -273.87828 -472.05109)"><path d="m-103.05812 170.3159h2.764248v9.593206h-2.764248z"/><path d="m-103.05812 170.3159h2.764248v9.593206h-2.764248z"/></g></g><g fill="url(#b)" transform="matrix(.2645547206 0 0 .26458297281 .00045413688 .2568002075)"><path d="m-103.05812 170.3159h2.764248v9.593206h-2.764248z" transform="matrix(2.7870716 0 0 2.7870716 305.87828 -472.05109)"/><path d="m-103.05812 170.3159h2.764248v9.593206h-2.764248z" transform="matrix(-2.7870716 0 0 2.7870716 -273.87828 -472.05109)"/></g></svg>