<svg height="32" viewBox="0 0 8.4666665 8.4666669" width="32" xmlns="http://www.w3.org/2000/svg" xmlns:xlink="http://www.w3.org/1999/xlink"><linearGradient id="a" gradientUnits="userSpaceOnUse" x1="-206.63795" x2="-125.20304" y1="256.91949" y2="256.91949"><stop offset="0" stop-color="#425cb7"/><stop offset=".12050407" stop-color="#a5afe5"/><stop offset=".2039299" stop-color="#246cdb"/><stop offset=".83425844" stop-color="#0b60e2"/><stop offset=".90841472" stop-color="#8cb5f2"/><stop offset="1" stop-color="#4557b5"/></linearGradient><linearGradient id="b" gradientUnits="userSpaceOnUse" x1="5.587702" x2="26.388285" y1="4.101856" y2="10.627613"><stop offset="0" stop-color="#f2f2f2"/><stop offset=".42408159" stop-color="#ececec"/><stop offset=".57874084" stop-color="#fff"/><stop offset=".73340011" stop-color="#f2f2f2"/><stop offset="1" stop-color="#f9f9f9"/></linearGradient><filter id="c" color-interpolation-filters="sRGB" height="1.053741" width="1.043367" x="-.021683" y="-.026871"><feGaussianBlur stdDeviation=".10784202"/></filter><linearGradient id="d" gradientUnits="userSpaceOnUse" x1="-117.38606" x2="-105.36859" y1="86.632568" y2="95.386116"><stop offset="0" stop-color="#f8cc53"/><stop offset=".23920624" stop-color="#ffd15e"/><stop offset="1" stop-color="#ebbe41"/></linearGradient><filter id="e" color-interpolation-filters="sRGB" height="1.067456" width="1.040228" x="-.020114" y="-.033728"><feGaussianBlur stdDeviation=".08824285"/></filter><linearGradient id="f" gradientUnits="userSpaceOnUse" x1="-107.28858" x2="-112.96468" y1="95.098" y2="90.591957"><stop offset="0" stop-color="#f9e12d"/><stop offset="1" stop-color="#f3cc3d"/></linearGradient><g transform="matrix(.25628649419 0 0 .25631386533 .08315695269 .13230997333)"><path d="m-125.703 227.113-8.983-8.982h-71.452v77.577h80.435z" fill="url(#a)" stroke="#000" stroke-linecap="round" stroke-linejoin="round" stroke-width=".999917" transform="matrix(.39295199 0 0 .40724213 81.198793 -88.62844)"/><path d="m5.491093 2.032611h20.697174v9.477746h-20.697174z" fill="url(#b)" stroke="#1a1a1a" stroke-linecap="round" stroke-linejoin="round" stroke-width=".400033"/><path d="m5.009713 19.658062h21.659513v10.641644h-21.659513z" fill="#f9f9f9"/><path d="m8.276726 25.921038h15.262648v2.209289h-15.262648z" fill="#00b500"/><path d="m8.276726 22.121462h15.262648v2.208881h-15.262648z" fill="#00b500"/><path d="m9.191135 2.991261h2.573443v7.595066h-2.573443z"/></g><g transform="matrix(.37739679358 0 0 .37743711608 48.16103834698 -32.33627943012)"><path d="m-117.87661 87.121964v8.126842l.50793 1.015856h11.42838v-7.534261l-1.01586-1.015855h-4.90997l-.62468-1.081978h-5.3858z" fill="#1a1a1a" filter="url(#c)" stroke="#1a1a1a" stroke-width=".1"/><path d="m-117.38606 87.121964v8.126842l.50793 1.015856h11.42838v-7.534261l-1.01586-1.015855h-4.90997l-.62468-1.081978h-5.3858z" fill="url(#d)" stroke="#000" stroke-width=".1"/><path d="m-116.614 90.292405h3.5494l.53241-1.008507h6.44725v6.279102h-10.52906v-4.967688z" fill="#333" filter="url(#e)"/><path d="m-116.51408 90.591958h3.5494l.53241-1.008507h6.44725v6.279102h-10.52906v-4.967688z" fill="url(#f)"/></g></svg>