<svg height="32" viewBox="0 0 8.4666665 8.4666669" width="32" xmlns="http://www.w3.org/2000/svg" xmlns:xlink="http://www.w3.org/1999/xlink"><radialGradient id="a" cx="9.698131" cy="11.475898" gradientTransform="matrix(.96828868 0 0 .97069171 .503111 .48267)" gradientUnits="userSpaceOnUse" r="3.471793"><stop offset="0" stop-color="#005a5a"/><stop offset="1" stop-color="#008080"/></radialGradient><radialGradient id="b" cx="13.110115" cy="21.738586" gradientTransform="matrix(.96815189 -.01628142 .02256154 1.3434816 .067281 -6.506724)" gradientUnits="userSpaceOnUse" r="7.586783"><stop offset="0" stop-color="#007575"/><stop offset=".82067841" stop-color="#00c6c6"/><stop offset="1" stop-color="#00b6b6"/></radialGradient><radialGradient id="c" cx="13.110115" cy="21.738586" gradientTransform="matrix(.96815189 -.01628142 .02256154 1.3434816 .067281 -6.506724)" gradientUnits="userSpaceOnUse" r="7.586783"><stop offset="0" stop-color="#008080"/><stop offset=".82067841" stop-color="#00bebe"/><stop offset="1" stop-color="#00b3b3"/></radialGradient><linearGradient id="d" gradientUnits="userSpaceOnUse" x1="16.010458" x2="18.261929" y1="13.323837" y2="9.823837"><stop offset="0" stop-color="#ececec" stop-opacity=".195"/><stop offset="1" stop-color="#fff"/></linearGradient><filter id="e" color-interpolation-filters="sRGB" height="1.237445" width="1.175158" x="-.087579" y="-.118722"><feGaussianBlur stdDeviation=".15724756"/></filter><linearGradient id="f" gradientTransform="matrix(.31611261 0 0 .3362069 -11.981031 -26.900178)" gradientUnits="userSpaceOnUse" x1="255.36996" x2="270.98077" y1="1181.8407" y2="1202.3575"><stop offset="0" stop-color="#008000"/><stop offset=".26857078" stop-color="#00ab00"/><stop offset=".5757919" stop-color="#00d400"/><stop offset=".81298268" stop-color="#00a100"/><stop offset="1" stop-color="#008000"/></linearGradient><linearGradient id="g" gradientTransform="matrix(1.0262162 0 0 1.0237733 370.58254 401.88125)" gradientUnits="userSpaceOnUse" x1="-284.59961" x2="-270.77734" y1="-27.138622" y2="-29.550781"><stop offset="0" stop-color="#008080"/><stop offset="1" stop-color="#00d6d6"/></linearGradient><g transform="matrix(.26458333 0 0 .26458333 -16.925254 -93.265663)"><g transform="matrix(.95301259 0 0 .95311436 64.721264 353.25032)"><path d="m9.8480169.19378209a.48371875.4850085 0 0 0 -.4835097.43395679l-.3885207 3.24821212a.48371875.4850085 0 0 0 .036424.2513511l1.2955455 2.9897005a.48394628.48523664 0 1 0 .887739-.3866894l-1.2441213-2.8694019.3735213-3.11788202a.48371875.4850085 0 0 0 -.4770781-.54924719zm7.7068481 1.77663441a.48371875.4850085 0 0 0 -.485652.5714474l.752044 4.5235816-1.154848 2.3538087a.48389643.48518665 0 1 0 .868458.4282261l1.222696-2.4934477a.48371875.4850085 0 0 0 .04356-.2935991l-.777748-4.6782603a.48371875.4850085 0 0 0 -.46851-.4117567zm-11.8105983 4.6488997-5.06076508.0909454a.48371875.4850085 0 1 0 .0171388.9695943l4.93292808-.0880783 2.4639629 1.3433963a.48371875.4850085 0 1 0 .4620817-.8521555l-2.5753777-1.4049809a.48371875.4850085 0 0 0 -.2399687-.0587213zm17.3655873 1.0755794a.48371875.4850085 0 0 0 -.329959.1389204l-2.743212 2.701117a.48371875.4850085 0 1 0 .677767.69175l2.541813-2.502757 5.559984 1.610498a.48371875.4850085 0 1 0 .268538-.9316394l-5.831381-1.6892711a.48371875.4850085 0 0 0 -.14355-.018618zm-20.7608587 4.2077824a.48371875.4850085 0 0 0 -.1999721.922331l1.5048015.754049 1.2141297 1.52099a.48371875.4850085 0 0 0 .3006729.17616l4.9600677.802028a.48371875.4850085 0 1 0 .153551-.957421l-4.7758051-.772668-1.1634189-1.457972a.48371875.4850085 0 0 0 -.1614089-.131045l-1.5997907-.802028a.48371875.4850085 0 0 0 -.2328271-.05442zm21.5743197 3.415778a.48371875.4850085 0 0 0 -.08856.962434l4.345858.845713 2.739642 3.495982a.48371875.4850085 0 1 0 .760616-.598656l-2.851058-3.639203a.48371875.4850085 0 0 0 -.288533-.176159l-4.522266-.880083a.48371875.4850085 0 0 0 -.09571-.01003zm-12.921163 3.644933a.48371875.4850085 0 0 0 -.08213.0086l-4.4794137.802051a.48371875.4850085 0 0 0 -.3963788.431805l-.6399163 6.737755a.48371875.4850085 0 1 0 .9627339.09165l.6049183-6.371113 4.1180336-.736861a.48371875.4850085 0 0 0 -.08784-.963868zm3.822355 3.36637a.48371875.4850085 0 0 0 -.294248.120305l-3.359561 2.888017a.48371875.4850085 0 0 0 -.169264.368075v5.614912a.4838665.48515665 0 1 0 .967733 0v-5.391492l3.191011-2.74265a.48371875.4850085 0 0 0 -.335671-.857167z" stroke="#fff" stroke-linecap="round" stroke-linejoin="round" stroke-width=".387452"/><path d="m22.176858 21.926683c-2.78477 2.792192-7.175592 1.961039-9.738935-.608782-2.5633428-2.570175-3.3919281-6.972705-.607158-9.764898 2.784762-2.7918392 7.175583-1.9610399 9.738926.609136 2.562641 2.569821 3.391576 6.972703.607167 9.764544z" fill="#008080"/><g stroke="#000" stroke-linecap="round" stroke-linejoin="round" stroke-width=".366154"><path d="m13.433268 12.474149c-1.27618 1.279579-3.294289.959501-4.4852706-.23465-1.1909725-1.193785-1.5101972-3.2172786-.2336531-4.4972239 1.2761705-1.2795786 3.2942887-.9595007 4.4852607.2346505 1.190973 1.1937845 1.510198 3.2172784.233663 4.4972234z" fill="url(#a)"/><path d="m11.796913 11.20777c7.15828 6.518151 8.373752 8.209102 9.11569 9.82489.293268.63869.5123 1.265647.419054 1.915335-3.211276 2.026794-7.321739.687453-9.58521-2.033393-2.2930962-2.756411-2.7889355-7.06408.05042-9.706832z" fill="url(#b)"/><path d="m11.796913 11.20777c2.716901-2.5287261 6.80139-1.9234011 9.423217.305779 2.597699 2.208648 3.911898 6.124378 2.128908 9.30646-.0662-.01467-.134198-.03336-.205503-.05573-.981082-.310912-2.496405-1.346674-11.346622-9.556509z" fill="url(#c)"/></g><ellipse cx="17.192314" cy="12.982684" rx=".800078" ry=".802211"/><ellipse cx="10.936883" cy="7.756947" rx=".705736" ry=".707618" stroke="#ff0" stroke-linecap="round" stroke-linejoin="round" stroke-width=".366154"/><ellipse cx="8.903408" cy="9.795831" rx=".671729" ry=".67352" stroke="#ff0" stroke-linecap="round" stroke-linejoin="round" stroke-width=".366154"/><ellipse cx="12.23243" cy="16.191154" rx=".678677" ry=".680487"/><ellipse cx="15.592511" cy="17.955795" rx="1.131372" ry="1.134389"/><path d="m18.102787 19.855471c-1.557567 1.4232-3.937604 1.181445-5.552504-.633912-1.614901-1.815358-1.853133-4.516876-.29557-5.940081 1.557566-1.423199 1.995291 1.096041 3.610191 2.9114 1.614901 1.815358 3.795448 2.239394 2.237883 3.662593z" fill="#ececec" fill-opacity=".195" opacity=".843"/><ellipse cx="16.552404" cy="21.164288" rx="1.249482" ry="1.252814"/><ellipse cx="21.032169" cy="15.388947" fill="#1a1a1a" rx="1.073231" ry="1.076093"/><path d="m19.644938 12.677235c-.429624.647-.735976-.151098-2.029976-1.010346-1.294-.859249-2.65656-.768007-2.226935-1.415007.429625-.6470001 2.0397-.8850243 3.3337-.02578 1.293999.859249 1.352835 1.804129.923211 2.451129z" fill="url(#d)" filter="url(#e)" opacity=".731" transform="matrix(2.1155564 0 0 2.1170463 -19.232702 -10.381264)"/></g><g stroke-linecap="round" stroke-linejoin="round"><path d="m67.328952 367.1723v7.01199 6.82899h2.115342l6.421565-6.82899-6.592157-7.01199z" fill="url(#f)" stroke="#005400" stroke-width=".705425"/><path d="m87.549306 367.7283v2.74699h-4.465668a1.0263188 1.0238757 0 0 0 -.122336 0c-2.524547.3-4.43957 2.453-4.43957 4.98899 0 2.537 1.914843 4.69 4.43957 4.989a1.0263188 1.0238757 0 0 0 .122336 0h5.942848a1.0263188 1.0238757 0 1 0 0-2.047h-5.838599c-1.498988-.188-2.613657-1.438-2.613657-2.948 0-1.50899 1.114489-2.75899 2.613657-2.94699h4.361419v3.00099h1.248705l3.908437-3.89699-3.908437-3.89899z" fill="url(#g)" stroke="#f2f2f2" stroke-width=".512497"/></g></g></svg>