<svg height="32" viewBox="0 0 8.4666665 8.4666669" width="32" xmlns="http://www.w3.org/2000/svg" xmlns:xlink="http://www.w3.org/1999/xlink"><linearGradient id="a" gradientUnits="userSpaceOnUse" x1="-291.573" x2="-209.711" y1="252.073" y2="252.073"><stop offset="0" stop-color="#d59b04"/><stop offset=".04914214" stop-color="#edd415"/><stop offset="1" stop-color="#dcaa08"/></linearGradient><linearGradient id="b" gradientUnits="userSpaceOnUse" x1="-251.16093" x2="-252.34502" y1="274.84622" y2="241.23578"><stop offset="0" stop-color="#d59b04"/><stop offset="1" stop-color="#fffd21"/></linearGradient><g transform="matrix(.26289785 0 0 .26459659 .026969 -.264808)"><path d="m-210.211 246.891-4.414-1.183v-6.755h-10.634v-7.937h-29.765l-6.809-6.64357h-23.77357l-5.46643 7.63557v42.663l10.252 10.253h61.515l9.095-9.095z" fill="url(#a)" stroke="#000" stroke-linecap="round" stroke-linejoin="round" transform="matrix(.3908869 0 0 .38831703 113.97267 -81.88424)"/><path d="m2.966253 11.087916h24.916527v16.166079h-24.916527z" fill="#e6e6e6"/><path d="m3.272669 11.541961h24.916527v16.166079h-24.916527z" fill="#f9f9f9"/><path d="m-274.206 243.252v7.607h-6.284v28.082h62.786v-35.689z" fill="url(#b)" stroke="#967a20" stroke-linecap="round" stroke-linejoin="round" stroke-width="2.08794" transform="matrix(.38997425 0 0 .42198452 113.74533 -90.045467)"/><path d="m17.431822 15.751093h7.239616v3.082461h-7.239616z" fill="#fff"/><g fill="#666" stroke="#666" stroke-width=".6"><path d="m18.019987 16.575484 5.969584.03708"/><path d="m17.982909 18.021533 5.969584.03708"/></g></g></svg>