<svg height="32" viewBox="0 0 8.4666665 8.4666669" width="32" xmlns="http://www.w3.org/2000/svg" xmlns:xlink="http://www.w3.org/1999/xlink"><linearGradient id="a" gradientUnits="userSpaceOnUse" x1="-397.66101" x2="-449.64587" y1="277.38501" y2="235.68221"><stop offset="0" stop-color="#f8b509"/><stop offset="1" stop-color="#fcf52e"/></linearGradient><filter id="b" color-interpolation-filters="sRGB" height="1.070585" width="1.064125" x="-.032062" y="-.035293"><feGaussianBlur stdDeviation=".33408593"/></filter><linearGradient id="c" gradientUnits="userSpaceOnUse" x1="-397.66101" x2="-428.76801" y1="277.38501" y2="229.62199"><stop offset="0" stop-color="#f8b509"/><stop offset="1" stop-color="#fcf5bd"/></linearGradient><linearGradient id="d" gradientUnits="userSpaceOnUse" x1="17.45786050507" x2="31.41415053264" y1="20.28388217974" y2="18.85969929759"><stop offset="0" stop-color="#008000"/><stop offset=".26857078" stop-color="#00ab00"/><stop offset=".5757919" stop-color="#00d400"/><stop offset=".81298268" stop-color="#00a100"/><stop offset="1" stop-color="#008000"/></linearGradient><path d="m.000458.000006h8.465752v8.466655h-8.465752z" fill="none"/><g transform="matrix(.26116755578 0 0 .26133028647 .07428359882 -.17145107573)"><path d="m-428.768 229.622 30.3 3.012.807 44.751-61.604 16.507v-62.506l7.561-7.561h17.139z" fill="url(#a)" stroke="#000" stroke-linecap="round" stroke-linejoin="round" transform="matrix(.42387273 0 0 .42235565 194.88192 -92.350986)"/><path d="m26.035156 8.8027344-8.220703 1.2832036-2.615234 5.447265h-6.355469l-7.6777344 15.988281 3.5078125-.9375 19.1249999-6.162109 2.375-7.986328z" fill="#333" filter="url(#b)"/><g stroke-linecap="round" stroke-linejoin="round"><path d="m-459.265 293.892 21.092-36.532h17.218l7.084-12.27 29.1-3.78-12.89 36.075z" fill="url(#c)" stroke="#000" stroke-width=".290702" transform="matrix(.42387273 0 0 .42235565 194.88192 -92.350986)"/><path d="m28.136248 13.465514c-.010637-1.325867-.447249-3.6952748-1.171068-5.696119-.78571-2.1718772-1.909879-3.909668-4.348237-4.9671814-2.438358-1.0575133-6.189455-1.4347494-9.631104-.337248 7.090241.7544719 7.950412 4.424212 8.398145 6.7386969.372789 1.9271315.458854 2.9157495.477228 4.2613685-.989269 0-1.978537 0-2.967806 0 2.035109 2.724965 4.0707 5.449447 6.105808 8.173928 2.054932-2.724481 4.109863-5.449445 6.164312-8.173928-1.009092.000483-2.018185.000483-3.027278.000483z" fill="url(#d)" stroke="#fff" stroke-width=".824729"/></g></g></svg>