<svg height="32" viewBox="0 0 8.4666665 8.4666669" width="32" xmlns="http://www.w3.org/2000/svg" xmlns:xlink="http://www.w3.org/1999/xlink"><linearGradient id="a" gradientUnits="userSpaceOnUse" x1="14.495081" x2="14.322939" y1="6.720255" y2="2.124061"><stop offset="0" stop-color="#82ade0"/><stop offset="1" stop-color="#f1effb"/></linearGradient><g stroke="#000" stroke-linecap="round" stroke-linejoin="round" stroke-width=".387115" transform="matrix(.26455472 0 0 .26458298 .00045808257 .21405351244)"><path d="m3.5316505 27.337497h24.9366895c1.843589 0 3.33871-1.487611 3.33871-3.322407 0-5.882857 0-11.765328 0-17.6481856 0-1.8347963-1.494735-3.322407-3.33871-3.322407-8.312227 0-16.624453 0-24.9366895 0-1.8435791 0-3.33870043 1.4876107-3.33870043 3.322407v17.6481856c.00038641 1.834796 1.49512133 3.322407 3.33870043 3.322407z" fill="#008080"/><path d="m.19333648 8.274691h31.61371352c0-.6356714 0-1.271729 0-1.9077866 0-1.8347963-1.494735-3.322407-3.33871-3.322407-8.312227 0-16.624453 0-24.9366895 0-1.8435791 0-3.33870043 1.4876107-3.33870043 3.322407.00038641.6360576.00038641 1.2721152.00038641 1.9077866z" fill="url(#a)"/><path d="m1.426158 8.611843h29.293224v17.656296h-29.293224z" fill="#364b81"/></g><g fill="#fff" stroke-width=".123333" transform="matrix(.9999466 0 0 1.0000534 -3.081366 -1.098694)"><path d="m6.4448205 4.8471227v.7033721q-.175843-.1204404-.3540948-.1782518-.175843-.0578114-.3661389-.0578114-.3613213 0-.5636612.2119751-.1999311.2095664-.1999311.5877493 0 .378183.1999311.5901581.2023399.2095664.5636612.2095664.2023399 0 .3830005-.06022.1830695-.06022.3372332-.1782519v.7057809q-.2023399.074673-.4119062.1108052-.2071576.038541-.4167239.038541-.729869 0-1.1417753-.3733654-.4119062-.3757743-.4119062-1.0430143 0-.66724.4119062-1.0406053.4119063-.3757741 1.1417753-.3757741.2119752 0 .4167239.038541.2071575.036132.4119062.1108051z"/><path d="m7.3264444 4.7628144h.8695799v.9322089h-.8695799zm0 1.7656567h.8695799v.9322089h-.8695799z"/><path d="m10.014675 7.9183536-1.2670337-4.0540248h.5323467l1.269442 4.0540248z"/></g></svg>