<svg height="32" viewBox="0 0 8.4666665 8.4666669" width="32" xmlns="http://www.w3.org/2000/svg" xmlns:xlink="http://www.w3.org/1999/xlink"><linearGradient id="a" gradientTransform="matrix(.29155404 0 0 .29155403 -74.431436 -46.88153)" gradientUnits="userSpaceOnUse" x1="258.6178" x2="285.33841" y1="176.5014" y2="176.5014"><stop offset="0" stop-color="#2929ff"/><stop offset=".2402378" stop-color="#6464e9"/><stop offset=".88697171" stop-color="#1515f0"/><stop offset="1" stop-color="#0000d1"/></linearGradient><g fill="url(#a)" stroke="#fff" stroke-width=".132285"><path d="m4.9726994 3.5821938h-1.1410596l-.329378 1.3096697h1.1489019zm-.588175-2.231144-.4078014 1.6272843h1.1449808l.4117225-1.6272843h.6273867l-.4038802 1.6272843h1.2234041v.6038597h-1.3763296l-.3215357 1.3096697h1.2469311v.5999386h-1.3998566l-.4078014 1.6233631h-.6273867l.4038802-1.6233631h-1.1489019l-.4038802 1.6233631h-.6313079l.4078014-1.6233631h-1.2351676v-.5999386h1.3802507l.3293781-1.3096697h-1.2626158v-.6038597h1.4155413l.399959-1.6272843z" transform="matrix(.72481182298 0 0 .72488923702 -.855881 1.1648)"/><path d="m4.9726994 3.5821938h-1.1410596l-.329378 1.3096697h1.1489019zm-.588175-2.231144-.4078014 1.6272843h1.1449808l.4117225-1.6272843h.6273867l-.4038802 1.6272843h1.2234041v.6038597h-1.3763296l-.3215357 1.3096697h1.2469311v.5999386h-1.3998566l-.4078014 1.6233631h-.6273867l.4038802-1.6233631h-1.1489019l-.4038802 1.6233631h-.6313079l.4078014-1.6233631h-1.2351676v-.5999386h1.3802507l.3293781-1.3096697h-1.2626158v-.6038597h1.4155413l.399959-1.6272843z" transform="matrix(.72481182298 0 0 .72488923702 3.18547891413 1.1648)"/></g></svg>