<svg height="32" viewBox="0 0 8.4666665 8.4666669" width="32" xmlns="http://www.w3.org/2000/svg" xmlns:xlink="http://www.w3.org/1999/xlink"><linearGradient id="a" gradientTransform="matrix(.99863808 0 0 .99755771 79.410286 225.91264)" gradientUnits="userSpaceOnUse" x1="16.026119" x2="5.81847" y1="17.24884" y2="4.538538"><stop offset="0" stop-color="#b3b3b3"/><stop offset="1" stop-color="#f9f9f9"/></linearGradient><linearGradient id="b" gradientTransform="matrix(.99863808 0 0 .99755771 79.410286 225.91264)" gradientUnits="userSpaceOnUse" x1="19.049059" x2="7.184047" y1="14.328974" y2="6.468404"><stop offset="0" stop-color="#1a1a1a"/><stop offset="1" stop-color="#4d4d4d"/></linearGradient><radialGradient id="c" cx="15.614744" cy="14.487043" gradientTransform="matrix(.33728082 -.1660326 .17468566 .35504343 17.084246 406.4754)" gradientUnits="userSpaceOnUse" r="15.958009"><stop offset="0" stop-color="#f00"/><stop offset=".8214854" stop-color="#f00"/><stop offset="1" stop-color="#cf0000"/></radialGradient><linearGradient id="d" gradientUnits="userSpaceOnUse" x1="35.276194" x2="53.810004" y1="-134.525059" y2="-134.525059"><stop offset="0" stop-color="#f2f2f2"/><stop offset="1" stop-color="#f2f2f2" stop-opacity="0"/></linearGradient><filter id="e" color-interpolation-filters="sRGB" height="1.179537" width="1.157856" x="-.078928" y="-.089769"><feGaussianBlur stdDeviation=".52641736"/></filter><g transform="matrix(.26458333 0 0 .26458333 -.282632 -101.97901)"><g stroke="#000" transform="matrix(1.1934305 0 0 1.193558 -92.632179 118.81363)"><path d="m89.796516 225.40023c-.0411.002-.39455.0712-.78409.15197-.8123.16835-1.92459.49957-2.09675.62542-.11315.0827-.11207.11704.0215 1.00925.076.50761.16458 1.06367.197 1.23526.0964.51026.097.50961-.47786.86117-.29531.18061-.7401.5144-.98694.74232l-.4486.415-1.26391-.58061c-.6949-.31917-1.28082-.55556-1.30291-.52605-.32816.43832-1.03147 1.58496-1.26195 2.05746l-.29647.60789.2048.17145c.11325.0943.60712.45485 1.09811.80077.79838.56249.88958.64635.86406.78909-.0157.0878-.0883.4719-.16189.85533-.0736.38342-.13263.90252-.13263 1.15342v.45787l-1.26585.48319-1.2639.48319.0215.27861c.0399.53935.32583 1.81579.51297 2.28932l.1892.4793.37449-.0156c.20605-.008.82825-.0971 1.38288-.19679l1.00839-.18119.18724.32927c.20471.36176.83868 1.16793 1.15078 1.46321.109.10313.19894.2119.19894.23965 0 .0277-.25715.59728-.57148 1.26643l-.57149 1.21577.31403.24939c.56246.44342 2.18314 1.34242 2.41857 1.34242.039 0 1.3932-1.82837 1.64229-2.21723.006-.009.23819.0425.51688.11496.28778.0748.84907.15037 1.29901.17535l.79384.0448.18334.51047c.44933 1.24582.70287 1.92175.74898 1.99511.0549.0874.5935.004 1.55062-.23965.58634-.1493 1.53306-.50838 1.53306-.58061 0-.0272-.0855-.59827-.19114-1.27032-.10563-.67206-.1931-1.27334-.1931-1.33658 0-.0737.18734-.23663.52273-.45396.28774-.18646.71519-.51958.94987-.74038l.42715-.40331 1.14688.5358c.63064.29403 1.2001.54511 1.26585.55723.17103.0315.907414-1.00703 1.359474-1.91718.30104-.60609.34579-.73797.27307-.80662-.0883-.0833-1.766714-1.32455-2.028484-1.50023l-.14239-.0955.13068-.57477c.072-.31602.1497-.8813.17164-1.25474l.039-.67803 1.181984-.43643c.65037-.24015 1.23012-.47071 1.28731-.51242.0959-.0699.0959-.12604-.004-.7053-.10145-.58926-.5523-2.11003-.68656-2.31659-.0525-.0808-.24627-.0633-1.419944.12664-1.32223.214-1.35945.21589-1.42774.0974-.26644-.46218-.80413-1.20399-1.07276-1.4788l-.31987-.32732.16384-.32148c.0897-.17658.35186-.74168.58318-1.25669l.41935-.93716-.14628-.12469c-.36739-.3139-1.42598-.97677-1.97387-1.23526l-.60465-.28446-.13848.16561c-.0762.0914-.43578.59128-.79969 1.11056-.41663.59452-.70328.94674-.77433.94885-.0621.002-.32057-.0565-.57539-.12859-.2686-.0759-.76552-.14561-1.18003-.16756l-.71387-.039-.17554-.48514c-.44919-1.24302-.81157-2.11387-.87966-2.11007zm1.2561 6.76663c.31008-.002.69882.0293.86405.0682s.5696.19966.89917.35655c1.07793.51315 1.77152 1.38851 2.06554 2.61275.57527 2.39536-1.26808 4.7337-3.7527 4.76178-.94081.0106-1.67422-.22864-2.44393-.79883-.74026-.54837-1.26574-1.39988-1.46675-2.37504-.48802-2.36751 1.37103-4.61045 3.83462-4.6254z" fill="url(#a)" stroke-width=".8"/><path d="m91.101596 229.62887a6.442814 6.4358439 0 0 0 -6.44336 6.43555 6.442814 6.4358439 0 0 0 6.44336 6.43555 6.442814 6.4358439 0 0 0 6.44336-6.43555 6.442814 6.4358439 0 0 0 -6.44336-6.43555zm.11719 3.08985c1.18429.0516 2.35964.7747 2.87695 1.82617.57114 1.16087.45017 2.42008-.33789 3.52148-.47299.66106-1.17935 1.09502-2.0957 1.28711-1.07287.2249-2.31682-.20094-3.06836-1.05078-.74044-.83729-1.03923-2.22434-.70508-3.27148.15501-.48577.68848-1.24271 1.10938-1.57618.49328-.39081 1.08197-.63707 1.71484-.71679.16766-.0211.33668-.0269.50586-.0195z" fill="url(#b)" stroke-linejoin="round" stroke-width=".1"/></g><ellipse cx="25.275711" cy="409.49957" fill="url(#c)" rx="5.956573" ry="5.958123" stroke="#000" stroke-linecap="round" stroke-linejoin="round" stroke-width=".084523"/><path d="m52.388692-140.67645c1.152337 1.51354-4.228787 1.0545-8.769431 4.51152-4.540647 3.45701-5.483176 9.96591-6.635513 8.45236s-.185322-7.32274 4.355324-10.77975 9.897283-3.69768 11.04962-2.18413z" fill="url(#d)" filter="url(#e)" opacity=".703" transform="matrix(.37858009 0 0 .37867859 6.421346 458.12282)"/><text style="font-size:24.7447;font-family:Wingdings;letter-spacing:0;word-spacing:0;fill:#fff;stroke-width:.618618" transform="scale(.99994661 1.0000534)" x="20.812624" y="416.25592"><tspan fill="#fff" font-family="open sans" stroke-width=".618618" x="20.812624" y="416.25592">-</tspan></text></g></svg>