<svg height="32" viewBox="0 0 8.4666665 8.4666669" width="32" xmlns="http://www.w3.org/2000/svg" xmlns:xlink="http://www.w3.org/1999/xlink"><linearGradient id="a" gradientUnits="userSpaceOnUse" x1="-423.55182" x2="-423.436" y1="457.69254" y2="388.13"><stop offset="0" stop-color="#88b1e3"/><stop offset=".91283631" stop-color="#8ab3e4"/><stop offset="1" stop-color="#fff"/></linearGradient><linearGradient id="b" gradientUnits="userSpaceOnUse" x1="-408.51801" x2="-408.51801" y1="455.366" y2="422.55899"><stop offset="0" stop-color="#008000"/><stop offset=".61336267" stop-color="#00ef00"/><stop offset="1" stop-color="#fff"/></linearGradient><g transform="matrix(.26455472 0 0 .26458298 -41.34630817984 22.74063161211)"><path d="m-460.115 457.487-4.001-4.002v-58.019l7.336-7.336h33.344 33.345l7.336 7.336v58.019l-4.002 4.002h-36.679z" fill="url(#a)" stroke="#000" stroke-linecap="round" stroke-linejoin="round" transform="matrix(.38340936 0 0 .37991294 334.42564 -232.20846)"/><path d="m-455.446 448.817v-44.015h32.01 32.011v44.015h-32.011z" fill="#f9f9f9" transform="matrix(.44841661 0 0 .47634823 361.95202 -274.07506)"/><path d="m160.354-78.874672h22.804193v2.298097h-22.804193z" fill="#ccc"/><path d="m160.354-74.808807h8.053983v11.576625h-8.053983z" fill="#f2feff"/></g><path d="m-403.403 466.062h-5.115v-10.696h-19.875v-11.055-11.055h19.875v-10.697h5.115l21.752 21.752z" fill="url(#b)" stroke="#000" stroke-linecap="round" stroke-linejoin="round" transform="matrix(.10143275588 0 0 .10051849781 47.12757337118 -38.6976551244)"/></svg>