<svg height="32" viewBox="0 0 8.4666665 8.4666669" width="32" xmlns="http://www.w3.org/2000/svg" xmlns:xlink="http://www.w3.org/1999/xlink"><radialGradient id="a" cx="223.78369" cy="-29.007458" gradientTransform="matrix(1.1065117 0 0 1.1256532 149.09222 92.008437)" gradientUnits="userSpaceOnUse" r="7.047603"><stop offset="0" stop-color="#008080"/><stop offset=".9170109" stop-color="#008080"/><stop offset="1" stop-color="#00474d"/></radialGradient><linearGradient id="b" gradientTransform="matrix(1.1064406 0 0 1.1255808 378.27981 42.372558)" gradientUnits="userSpaceOnUse" x1="12.291612" x2="20.920582" y1="11.785198" y2="19.336046"><stop offset="0" stop-color="#dbf0fa"/><stop offset="1" stop-color="#f8fcfe" stop-opacity=".712766"/></linearGradient><linearGradient id="c" gradientTransform="matrix(1.1064406 0 0 1.1255808 378.27981 42.372558)" gradientUnits="userSpaceOnUse" x1="8.97535" x2="6.581181" y1="24.508139" y2="21.695408"><stop offset="0" stop-color="#ffbe00"/><stop offset="1" stop-color="#ffcc9a"/></linearGradient><linearGradient id="d" gradientUnits="userSpaceOnUse" x1="401.15959235367" x2="392.25909479141" y1="65.02742342151" y2="57.26506756732"><stop offset="0" stop-color="#f9f9f9"/><stop offset="1" stop-color="#f9f9f9" stop-opacity="0"/></linearGradient><g transform="matrix(.26455472 0 0 .26458298 -109.07231 -28.059243)"><g transform="matrix(-1.1932323 0 0 1.1932323 898.25261 47.592456)"><path d="m397.03762 51.63165a7.7982556 7.9331561 0 0 0 -7.7988 7.932287 7.7982556 7.9331561 0 0 0 7.7988 7.934167 7.7982556 7.9331561 0 0 0 7.79879-7.934167 7.7982556 7.9331561 0 0 0 -7.79879-7.932287zm-.32527 1.045354a6.564899 6.6784643 0 0 1 6.56355 6.678237 6.564899 6.6784643 0 0 1 -6.56355 6.680118 6.564899 6.6784643 0 0 1 -6.56543-6.680118 6.564899 6.6784643 0 0 1 6.56543-6.678237z" fill="#4d4d4d"/><path d="m390.89591 64.059792c.54596.799467 1.18226 1.445268 1.96912 1.998669-2.48892 2.439832-4.9776 4.879914-7.46653 7.319745-.64321-.679194-1.28666-1.358139-1.92988-2.037084 2.47584-2.427279 4.95144-4.854304 7.42729-7.28133z" fill="#808080"/><path d="m396.71235 51.422955a7.7982556 7.9331561 0 0 0 -7.79879 7.932286 7.7982556 7.9331561 0 0 0 7.79879 7.934168 7.7982556 7.9331561 0 0 0 7.79692-7.934168 7.7982556 7.9331561 0 0 0 -7.79692-7.932286zm0 1.254049a6.564899 6.6784643 0 0 1 6.56355 6.678237 6.564899 6.6784643 0 0 1 -6.56355 6.680118 6.564899 6.6784643 0 0 1 -6.56543-6.680118 6.564899 6.6784643 0 0 1 6.56543-6.678237z" fill="url(#a)"/><ellipse cx="396.71149" cy="59.356098" rx="6.564899" ry="6.678464" style="opacity:.696;stroke:#ececec;stroke-width:.248945;stroke-linecap:round;stroke-linejoin:round;fill:url(#b)"/><path d="m390.30753 63.882729c.54596.799466 1.18226 1.445268 1.96913 1.998667-2.48894 2.439833-4.97761 4.879915-7.46654 7.319746-.64321-.679195-1.28667-1.358139-1.92988-2.037084 2.47585-2.427278 4.95145-4.854304 7.42729-7.281329z" fill="url(#c)"/><path d="m399.4891 56.780091c-1.76354.186534-3.34621.949798-4.53583 2.092065-1.00313.963201-1.72231 2.19635-2.04118 3.573943.65645 1.785131 2.42468 3.066312 4.50854 3.066312 2.64257 0 4.78399-2.056956 4.78399-4.594339 0-1.824835-1.11025-3.396548-2.71552-4.137981z" fill="url(#d)"/></g><path d="m420.22253 115.39435h11.76738v3.58043h-11.76738z" fill="#fff"/><path d="m420.71371 115.713h10.52735v3.20312h-10.52735z" fill="#008080"/></g></svg>