<svg height="32" viewBox="0 0 8.4666665 8.4666669" width="32" xmlns="http://www.w3.org/2000/svg" xmlns:xlink="http://www.w3.org/1999/xlink"><filter id="a" color-interpolation-filters="sRGB" height="1.310546" width="1.464723" x="-.232361" y="-.155273"><feGaussianBlur stdDeviation=".44385526"/></filter><linearGradient id="b" gradientUnits="userSpaceOnUse" x1="130.67675436277" x2="136.32934492302" y1="110.56612430952" y2="110.56612430952"><stop offset="0" stop-color="#000062"/><stop offset=".2402378" stop-color="#8c8cef"/><stop offset="1" stop-color="#0000d1"/></linearGradient><filter id="c" color-interpolation-filters="sRGB" height="1.306414" width="1.468505" x="-.234252" y="-.153207"><feGaussianBlur stdDeviation=".44385526"/></filter><linearGradient id="d" gradientUnits="userSpaceOnUse" x1="130.65377562069" x2="136.26073867873" xlink:href="#e" y1="121.67130637858" y2="121.67130637858"/><linearGradient id="e"><stop offset="0" stop-color="#2929ff"/><stop offset=".2402378" stop-color="#8c8cef"/><stop offset="1" stop-color="#0000d1"/></linearGradient><filter id="f" color-interpolation-filters="sRGB" height="1.862851" width="1.158724" x="-.079362" y="-.431426"><feGaussianBlur stdDeviation=".76549195"/></filter><linearGradient id="g" gradientTransform="matrix(.99989187 0 0 .99999865 -.000002 .000563)" gradientUnits="userSpaceOnUse" x1="136.9158" x2="159.39786" xlink:href="#e" y1="100.6686" y2="100.6686"/><filter id="h" color-interpolation-filters="sRGB" height="1.315007" width="1.735687" x="-.367843" y="-.157503"><feGaussianBlur stdDeviation=".44385526"/></filter><linearGradient id="i" gradientUnits="userSpaceOnUse" x1="131.04093442646" x2="134.61158895813" xlink:href="#e" y1="99.60982009045" y2="99.60982009045"/><linearGradient id="j" gradientTransform="matrix(.99989187 0 0 .99999865 -.000002 .000563)" gradientUnits="userSpaceOnUse" x1="136.9158" x2="159.39786" xlink:href="#e" y1="112.48489" y2="112.48489"/><linearGradient id="k" gradientTransform="matrix(.99989187 0 0 .99999865 -.000002 .000563)" gradientUnits="userSpaceOnUse" x1="136.9158" x2="159.39786" xlink:href="#e" y1="124.3012" y2="124.3012"/><g transform="matrix(.24204255 0 0 .24204255 -30.690592 -22.861747)"><g font-family="Open Sans" letter-spacing="0" word-spacing="0"><text fill="#fff" filter="url(#a)" font-size="9.47432" stroke="#fff" stroke-width=".236858" transform="matrix(1.218656 0 0 1.2474839 123.01053 90.353589)" x="4.627581" y="20.675079"><tspan style="font-weight:600;font-size:9.47426;font-family:Open Sans;fill:#fff;stroke:#fff;stroke-width:.236858" x="4.627581" y="20.675079">2</tspan></text><text fill="url(#b)" font-size="11.6817" stroke-width=".292043" transform="scale(.98837804 1.0117586)" x="130.16341" y="114.79558"><tspan fill="url(#b)" font-family="Open Sans" font-size="11.6816" font-weight="600" stroke-width=".292043" x="130.16341" y="114.79558">2</tspan></text><text fill="#fff" filter="url(#c)" font-size="9.47432" stroke="#fff" stroke-width=".236858" transform="matrix(1.218656 0 0 1.2474839 123.01108 91.045302)" x="4.627581" y="29.08107"><tspan style="font-weight:600;font-size:9.47426;font-family:Open Sans;fill:#fff;stroke:#fff;stroke-width:.236858" x="4.627581" y="29.08107">3</tspan></text><text fill="url(#d)" font-size="11.6817" stroke-width=".292043" transform="scale(.98837804 1.0117586)" x="130.16325" y="125.84372"><tspan fill="url(#d)" font-family="Open Sans" font-size="11.6816" font-weight="600" stroke-width=".292043" x="130.16325" y="125.84372">3</tspan></text></g><path d="m136.0518 98.543198h23.149401v4.258396h-23.149401z" style="fill:#fff;stroke:#fff;stroke-width:.39331;stroke-linecap:round;stroke-linejoin:round;filter:url(#f)" transform="matrix(.96264604 0 0 1.002325 5.785048 -.261115)"/><path d="m137.09314 98.539139h22.095327v4.259761h-22.095327z" fill="url(#g)" stroke="#fff" stroke-linecap="round" stroke-linejoin="round" stroke-width=".384313"/><text style="font-size:9.47432;font-family:Open Sans;letter-spacing:0;word-spacing:0;fill:#fff;stroke:#fff;stroke-width:.236858;filter:url(#h)" transform="matrix(1.218656 0 0 1.2474839 123.01068 91.045302)" x="4.627581" y="11.186023"><tspan style="font-weight:600;font-size:9.47426;font-family:Open Sans;fill:#fff;stroke:#fff;stroke-width:.236858" x="4.627581" y="11.186023">1</tspan></text><text style="font-size:11.6817;font-family:Open Sans;letter-spacing:0;word-spacing:0;stroke-width:.292043;fill:url(#i)" transform="scale(.98837804 1.0117586)" x="130.16254" y="103.77939"><tspan fill="url(#i)" font-family="Open Sans" font-size="11.6816" font-weight="600" stroke-width=".292043" x="130.16254" y="103.77939">1</tspan></text><path d="m136.0518 110.3557h23.149401v4.258396h-23.149401z" style="fill:#fff;stroke:#fff;stroke-width:.39331;stroke-linecap:round;stroke-linejoin:round;filter:url(#f)" transform="matrix(.96264604 0 0 1.002325 5.785048 -.261115)"/><path d="m137.09314 110.35542h22.095327v4.259761h-22.095327z" fill="url(#j)" stroke="#fff" stroke-linecap="round" stroke-linejoin="round" stroke-width=".384313"/><path d="m136.0518 122.1682h23.149401v4.258396h-23.149401z" style="fill:#fff;stroke:#fff;stroke-width:.39331;stroke-linecap:round;stroke-linejoin:round;filter:url(#f)" transform="matrix(.96264604 0 0 1.002325 5.785048 -.261115)"/><path d="m137.09314 122.17171h22.095327v4.259761h-22.095327z" fill="url(#k)" stroke="#fff" stroke-linecap="round" stroke-linejoin="round" stroke-width=".384313"/></g></svg>