<svg height="32" viewBox="0 0 8.4666665 8.4666669" width="32" xmlns="http://www.w3.org/2000/svg" xmlns:xlink="http://www.w3.org/1999/xlink"><linearGradient id="a" gradientUnits="userSpaceOnUse" x1="14.495081" x2="14.322939" y1="6.720255" y2="2.124061"><stop offset="0" stop-color="#82ade0"/><stop offset="1" stop-color="#f1effb"/></linearGradient><linearGradient id="b" gradientUnits="userSpaceOnUse" x1="7.69201" x2="17.729298" y1="4.532146" y2="20.795601"><stop offset="0" stop-color="#f8a5a5"/><stop offset="1" stop-color="#e6e6e6" stop-opacity="0"/></linearGradient><filter id="c" color-interpolation-filters="sRGB" height="1.139445" width="1.129707" x="-.064854" y="-.069723"><feGaussianBlur stdDeviation=".72026172"/></filter><g stroke="#000" stroke-linecap="round" stroke-linejoin="round" stroke-width=".387115" transform="matrix(.2645547206 0 0 .26458297281 .02338479718 -.27173766044)"><path d="m3.5316505 27.337497h24.9366895c1.843589 0 3.33871-1.487611 3.33871-3.322407 0-5.882857 0-11.765328 0-17.6481856 0-1.8347963-1.494735-3.322407-3.33871-3.322407-8.312227 0-16.624453 0-24.9366895 0-1.8435791 0-3.33870043 1.4876107-3.33870043 3.322407v17.6481856c.00038641 1.834796 1.49512133 3.322407 3.33870043 3.322407z" fill="#008080"/><path d="m.19333648 8.274691h31.61371352c0-.6356714 0-1.271729 0-1.9077866 0-1.8347963-1.494735-3.322407-3.33871-3.322407-8.312227 0-16.624453 0-24.9366895 0-1.8435791 0-3.33870043 1.4876107-3.33870043 3.322407.00038641.6360576.00038641 1.2721152.00038641 1.9077866z" fill="url(#a)"/><path d="m1.426158 8.611843h29.293224v17.656296h-29.293224z" fill="#fff"/></g><g transform="matrix(.1445536392 0 0 .14456907499 -.1489168944 3.60069866577)"><circle cx="16" cy="16" fill="#ba0f0f" r="13.96443" stroke="#333" stroke-linecap="round" stroke-linejoin="round" stroke-width=".712"/><path d="m16 2.0351562a13.96443 13.96443 0 0 0 -13.9648438 13.9648438 13.96443 13.96443 0 0 0 5.1640626 10.828125 21.927635 21.927635 0 0 1 21.2304692-16.630859 21.927635 21.927635 0 0 1 .259765.013672 13.96443 13.96443 0 0 0 -12.689453-8.1757818z" fill="url(#b)" filter="url(#c)" transform="matrix(.96233255 0 0 .96233255 .578659 .543603)"/></g></svg>