<svg height="32" viewBox="0 0 8.4666665 8.4666669" width="32" xmlns="http://www.w3.org/2000/svg" xmlns:xlink="http://www.w3.org/1999/xlink"><linearGradient id="a" gradientUnits="userSpaceOnUse" x1="-423.55182" x2="-423.436" y1="457.69254" y2="388.13"><stop offset="0" stop-color="#88b1e3"/><stop offset=".91283631" stop-color="#8ab3e4"/><stop offset="1" stop-color="#fff"/></linearGradient><linearGradient id="b" gradientUnits="userSpaceOnUse" x1="169.72318" x2="169.89995" y1="-75.515907" y2="-79.316612"><stop offset="0" stop-color="#9fc6ed"/><stop offset="1" stop-color="#bad7f2"/></linearGradient><g transform="matrix(.24769611 0 0 .26458298 -38.38934800278 23.17166418604)"><path d="m-382.755 395.466v58.019l-4.002 4.002h-36.679-36.679l-4.001-4.002v-58.019l7.336-7.336h33.344 33.345z" fill="url(#a)" stroke="#000" stroke-linecap="round" stroke-linejoin="round" transform="matrix(.38340936 0 0 .37991294 334.42564 -232.20846)"/><path d="m-455.446 448.817v-44.015h32.01 32.011v44.015h-32.011z" fill="#f9f9f9" transform="matrix(.44841661 0 0 .47634823 361.95202 -274.07506)"/><g stroke-linejoin="round"><path d="m160.354-78.874672h22.804193v4.065867h-22.804193z" fill="url(#b)" stroke="#569ce0"/><path d="m160.354-72.957855h8.053983v9.725674h-8.053983z" fill="#96b6d9" stroke="#5f8ac1"/><path d="m169.979-72.957855h13.178983v9.725674h-13.178983z" fill="#e6e6e6" stroke="#808080"/></g></g></svg>