<svg height="32" viewBox="0 0 8.4666665 8.4666669" width="32" xmlns="http://www.w3.org/2000/svg" xmlns:xlink="http://www.w3.org/1999/xlink"><linearGradient id="a" gradientTransform="matrix(.25334471 0 0 .27009199 -278.4976 -128.90878)" gradientUnits="userSpaceOnUse" x1="255.36996" x2="270.98077" y1="1181.8407" y2="1202.3575"><stop offset="0" stop-color="#008000"/><stop offset=".26857078" stop-color="#00ab00"/><stop offset=".5757919" stop-color="#00d400"/><stop offset=".81298268" stop-color="#00a100"/><stop offset="1" stop-color="#008000"/></linearGradient><linearGradient id="b" gradientUnits="userSpaceOnUse" x1="-213.24861757603" x2="-203.78780647132" y1="196.40818916349" y2="194.7571592926"><stop offset="0" stop-color="#008080"/><stop offset="1" stop-color="#00d6d6"/></linearGradient><g stroke-linecap="round" stroke-linejoin="round" transform="matrix(.4776551 0 0 .47651805 104.26273 -88.264129)"><path d="m-214.93555 187.67004v5.63244 5.4867h1.69532l5.14648-5.4867-5.2832-5.63244z" fill="url(#a)" stroke="#005400" stroke-width=".566028"/><path d="m-207.22748 192.15032v1.83681h-2.97849a.68452992.68452992 0 0 0 -.0816.003c-1.68381.20057-2.96109 1.63951-2.96109 3.33543 0 1.69576 1.27716 3.13505 2.96109 3.3354a.68452992.68452992 0 0 0 .0816.003h3.96373a.68452992.68452992 0 1 0 0-1.36892h-3.8942c-.99979-.12519-1.74325-.96144-1.74325-1.9705 0-1.0093.74334-1.84506 1.74325-1.97051h2.90896v2.0066h.83285l2.60684-2.60549-2.60684-2.60684z" fill="url(#b)" stroke="#005a5a" stroke-width=".342231"/></g></svg>