<svg height="32" viewBox="0 0 8.4666665 8.4666669" width="32" xmlns="http://www.w3.org/2000/svg" xmlns:xlink="http://www.w3.org/1999/xlink"><linearGradient id="a" gradientUnits="userSpaceOnUse" x1="-313.32748" x2="-310.68985" y1="537.01526" y2="534.70599"><stop offset="0" stop-color="#ccc"/><stop offset="1" stop-color="#f9f9f9"/></linearGradient><linearGradient id="b" gradientUnits="userSpaceOnUse" x1="13.68159" x2="16.92046" y1="16.930799" y2="13.501986"><stop offset="0" stop-color="#4272ac"/><stop offset="1" stop-color="#dbe4f0"/></linearGradient><radialGradient id="c" cx="3.062096" cy="8.361413" gradientTransform="matrix(1.2209364 -.86165224 .6374287 .90321812 -6.006333 3.688084)" gradientUnits="userSpaceOnUse" r="6.000934"><stop offset="0" stop-color="#386193"/><stop offset="1" stop-color="#dbe4ef"/></radialGradient><g stroke="#000" stroke-linecap="round" stroke-linejoin="round" transform="matrix(.25503657 0 0 .25577484 .15275 .140937)"><path d="m-329.077 523.601 35.441 29.316-29.316-36.317z" fill="url(#a)" transform="matrix(.39164059 0 0 .39164059 147.40061 -184.18918)"/><g stroke-width=".391641"><path d="m16.92046 13.501986c-2.1646-2.691354-4.32959-5.382708-6.49419-8.074062-.99398 2.206503-2.81589 4.376583-4.81992 5.734793 2.69175 1.922955 5.38349 3.845519 8.07524 5.768082.0705 3.173464.14099 6.346928.21148 9.520392 5.3694-3.131559 9.72405-7.742343 12.54386-13.281708-3.1719.110835-6.34419.221669-9.51647.332503z" fill="url(#b)"/><path d="m10.35147.17994c1.29711 1.087194.8526 3.14409.41475 4.39969-.53107 1.521916-1.33354 2.796314-2.35886 4.019408-1.02609 1.224268-2.14149 2.237442-3.54826 3.02699-1.15926.650515-3.10532 1.445937-4.40165.359134-1.29711-1.087194-.85299-3.144091-.41475-4.39969.53107-1.521524 1.33354-2.795922 2.35886-4.019408 1.02609-1.224268 2.14149-2.237442 3.54826-3.02699 1.15926-.649732 3.10532-1.445545 4.40165-.359134z" fill="url(#c)"/></g></g></svg>