<svg height="32" viewBox="0 0 8.4666665 8.4666669" width="32" xmlns="http://www.w3.org/2000/svg" xmlns:xlink="http://www.w3.org/1999/xlink"><linearGradient id="a" gradientUnits="userSpaceOnUse" x1="-117.38606" x2="-105.36859" y1="86.632568" y2="95.386116"><stop offset="0" stop-color="#f8cc53"/><stop offset=".23920624" stop-color="#ffd15e"/><stop offset="1" stop-color="#ebbe41"/></linearGradient><filter id="b" color-interpolation-filters="sRGB" height="1.067456" width="1.040228" x="-.020114" y="-.033728"><feGaussianBlur stdDeviation=".08824285"/></filter><linearGradient id="c" gradientUnits="userSpaceOnUse" x1="-107.28858" x2="-112.96468" y1="95.098" y2="90.591957"><stop offset="0" stop-color="#f9e12d"/><stop offset="1" stop-color="#f3cc3d"/></linearGradient><radialGradient id="d" cx="15.614744" cy="14.487043" gradientTransform="matrix(.8972302 -.44156296 .46469661 .94423641 28.042222 46.500748)" gradientUnits="userSpaceOnUse" r="15.958009"><stop offset="0" stop-color="#00bc00"/><stop offset=".8214854" stop-color="#00bc00"/><stop offset="1" stop-color="#008000"/></radialGradient><linearGradient id="e" gradientUnits="userSpaceOnUse" x1="35.193994" x2="53.727804" y1="48.533281" y2="48.533281"><stop offset="0" stop-color="#f2f2f2"/><stop offset="1" stop-color="#f2f2f2" stop-opacity="0"/></linearGradient><filter id="f" color-interpolation-filters="sRGB" height="1.179537" width="1.157856" x="-.078928" y="-.089769"><feGaussianBlur stdDeviation=".52641736"/></filter><g transform="matrix(.67641791939 0 0 .67649015064 79.59840112568 -57.87757294645)"><path d="m-117.38606 87.121964v8.126842l.50793 1.015856h11.42838v-7.534261l-1.01586-1.015855h-4.90997l-.62468-1.081978h-5.3858z" fill="url(#a)" stroke="#000" stroke-width=".1"/><path d="m-116.614 90.292405h3.5494l.53241-1.008507h6.44725v6.279102h-10.52906v-4.967688z" fill="#333" filter="url(#b)"/><path d="m-116.51408 90.591958h3.5494l.53241-1.008507h6.44725v6.279102h-10.52906v-4.967688z" fill="url(#c)"/></g><g transform="matrix(.0994649065 0 0 .09947301862 1.41303492319 .75898512733)"><circle cx="49.83305" cy="54.543522" fill="url(#d)" r="15.8456" stroke="#000" stroke-linecap="round" stroke-linejoin="round" stroke-width=".224818"/><path d="m52.306492 42.381884c1.152337 1.513548-4.228787 1.054507-8.769431 4.511519-4.540647 3.457011-5.483176 9.965913-6.635513 8.452363-1.152337-1.513548-.185322-7.322735 4.355324-10.779747 4.540646-3.457011 9.897283-3.697684 11.04962-2.184135z" fill="url(#e)" filter="url(#f)" opacity=".703"/></g><text style="font-size:15.0655;font-family:Wingdings;letter-spacing:0;word-spacing:0;fill:#fff;stroke-width:.376638" transform="matrix(.2645692039 0 0 .26459745875 -59.254015 -85.045955)" x="242.02541" y="349.83496"><tspan fill="#fff" font-family="open sans" stroke-width=".376638" x="242.02541" y="349.83496">+</tspan></text></svg>