<svg height="32" viewBox="0 0 8.4666665 8.4666669" width="32" xmlns="http://www.w3.org/2000/svg" xmlns:xlink="http://www.w3.org/1999/xlink"><linearGradient id="a" gradientUnits="userSpaceOnUse" x1="8.83203206016" x2="34.57288153984" y1="19.5000014" y2="20.1012296"><stop offset="0" stop-color="#cee8f8"/><stop offset=".42346475" stop-color="#d6edfa"/><stop offset="1" stop-color="#97cef2"/></linearGradient><g stroke-linecap="round" stroke-linejoin="round" transform="matrix(.26455472 0 0 .26458298 -.283952 -.152139)"><path d="m13.876149 16.941863h6.949896c2.28177 0 4.130892-1.849548 4.130892-4.131319 0-2.222303 0-4.4446266 0-6.6665036 0-2.2817697-1.849549-4.1313187-4.130892-4.1313187-4.884023 0-9.768067 0-14.6520896 0-2.281771 0-4.1308928 1.849549-4.1308928 4.1313187v6.6665036c0 2.281771 1.8495488 4.131319 4.1308928 4.131319h1.89298c.274937 2.102558-.280851 4.784498-1.667368 8.045439 4.1359536-1.838573 6.6281316-4.520108 7.4765816-8.045439z" fill="#999" stroke="#00006f" stroke-width=".782799"/><path d="m20.876149 22.941863h6.949896c2.28177 0 4.130892-1.849548 4.130892-4.131319 0-2.222303 0-4.444627 0-6.666504 0-2.2817697-1.849549-4.1313187-4.130892-4.1313187-4.884023 0-9.768067 0-14.65209 0-2.281771 0-4.1308928 1.849549-4.1308928 4.1313187v6.666504c0 2.281771 1.8495488 4.131319 4.1308928 4.131319h1.89298c.274937 2.102558-.280851 4.784498-1.667368 8.045439 4.135954-1.838573 6.628132-4.520108 7.476582-8.045439z" fill="url(#a)" stroke="#6270b4" stroke-width="1.083"/></g></svg>