<svg height="32" viewBox="0 0 8.4666665 8.4666669" width="32" xmlns="http://www.w3.org/2000/svg" xmlns:xlink="http://www.w3.org/1999/xlink"><linearGradient id="a" gradientUnits="userSpaceOnUse" x1=".242575" x2="10.646855" xlink:href="#b" y1="23.752317" y2="23.752317"/><linearGradient id="b"><stop offset="0" stop-color="#2929ff"/><stop offset=".2402378" stop-color="#8c8cef"/><stop offset="1" stop-color="#0000d1"/></linearGradient><linearGradient id="c" gradientUnits="userSpaceOnUse" x1="-.40444" x2="31.712111" xlink:href="#b" y1="16.106379" y2="16.106379"/><g stroke="#fff" stroke-linecap="round" stroke-linejoin="round" stroke-width="1.2" transform="matrix(.26455472 0 0 .26458298 .092037 -.170873)"><ellipse cx="5.444715" cy="23.752317" fill="url(#a)" rx="4.416701" ry="4.455822" stroke-width="1.57088"/><path d="m12.59835 17.854255h5.303168c-.679186-4.513258-4.515955-7.820166-8.9834651-7.742638-4.4675.07712-8.19267311 3.514326-8.7225154 8.04869.14536816-7.30832 5.9418499-13.1785174 13.0943005-13.2613223 7.15246-.0828 13.076826 5.6522273 13.384245 12.9552703h4.43811c-3.085712 3.153476-6.171413 6.30695-9.256729 9.460428-3.085701-3.153478-6.171414-6.306952-9.257114-9.460428z" fill="url(#c)" stroke-width="1.2"/></g></svg>