<svg height="32" viewBox="0 0 8.4666665 8.4666669" width="32" xmlns="http://www.w3.org/2000/svg" xmlns:xlink="http://www.w3.org/1999/xlink"><linearGradient id="a" gradientUnits="userSpaceOnUse" x1="-423.55182" x2="-423.436" y1="457.69254" y2="388.13"><stop offset="0" stop-color="#88b1e3"/><stop offset=".91283631" stop-color="#8ab3e4"/><stop offset="1" stop-color="#fff"/></linearGradient><linearGradient id="b" gradientUnits="userSpaceOnUse" x1="-200.83" x2="-165.283" y1="1113.7145" y2="1113.7145"><stop offset="0" stop-color="#ffd875"/><stop offset="1" stop-color="#f6cf5f"/></linearGradient><linearGradient id="c" gradientUnits="userSpaceOnUse" x1="-166.283" x2="-131.341" y1="1119.4875" y2="1114.3824"><stop offset="0" stop-color="#efc544"/><stop offset="1" stop-color="#e9b53e"/></linearGradient><linearGradient id="d" gradientUnits="userSpaceOnUse" x1="6.482451" x2="15.821514" xlink:href="#e" y1="8.133895" y2="11.317127"/><linearGradient id="e"><stop offset="0" stop-color="#b09c63" stop-opacity=".45098"/><stop offset="1" stop-color="#efb30d" stop-opacity=".960784"/></linearGradient><linearGradient id="f" gradientUnits="userSpaceOnUse" x1="6.482451" x2="15.925254" xlink:href="#g" y1="8.133895" y2="8.84432"/><linearGradient id="g"><stop offset="0" stop-color="#b09c63" stop-opacity=".45098"/><stop offset="1" stop-opacity=".985"/></linearGradient><linearGradient id="h" gradientTransform="matrix(-1 0 0 1 31.455528 .28125)" gradientUnits="userSpaceOnUse" x1="6.482451" x2="15.821514" xlink:href="#e" y1="8.133895" y2="11.317127"/><linearGradient id="i" gradientTransform="matrix(-1 0 0 1 31.455528 .28125)" gradientUnits="userSpaceOnUse" x1="6.482451" x2="15.925254" xlink:href="#g" y1="8.133895" y2="8.84432"/><linearGradient id="j" gradientTransform="matrix(-1 0 0 -1 31.455528 22.241894)" gradientUnits="userSpaceOnUse" x1="6.482451" x2="15.821514" xlink:href="#e" y1="8.133895" y2="11.317127"/><linearGradient id="k" gradientTransform="matrix(-1 0 0 -1 31.455528 22.241894)" gradientUnits="userSpaceOnUse" x1="6.482451" x2="15.925254" xlink:href="#g" y1="8.133895" y2="8.84432"/><linearGradient id="l" gradientTransform="matrix(1 0 0 -1 .437963 22.25899)" gradientUnits="userSpaceOnUse" x1="6.482451" x2="15.821514" xlink:href="#e" y1="8.133895" y2="11.317127"/><linearGradient id="m" gradientTransform="matrix(1 0 0 -1 .437963 22.25899)" gradientUnits="userSpaceOnUse" x1="6.482451" x2="15.925254" xlink:href="#g" y1="8.133895" y2="8.84432"/><g transform="matrix(.21790424 0 0 .21792751 -33.83851588 18.977801945)"><path d="m-390.091 388.13 7.336 7.336v58.019l-4.002 4.002h-36.679-36.679l-4.001-4.002v-58.019l7.336-7.336h33.344z" fill="url(#a)" stroke="#000" stroke-linecap="round" stroke-linejoin="round" transform="matrix(.38340936 0 0 .37991294 334.42564 -232.20846)"/><path d="m-423.436 448.817h-32.01v-44.015h32.01 32.011v44.015z" fill="#f9f9f9" transform="matrix(.44841661 0 0 .47634823 361.95202 -274.07506)"/><g fill="#ccc"><path d="m160.354-78.874672h22.804193v2.298097h-22.804193z"/><path d="m160.354-73.041039h22.804193v2.298097h-22.804193z"/><path d="m160.354-66.853851h22.804193v2.298097h-22.804193z"/></g></g><g transform="matrix(.21790424 0 0 .21792751 2.66571520566 2.3817213641)"><path d="m-165.783 1105.016-34.547-17.767 32.966-16.69 35.523 18.026z" fill="none" stroke="#000" stroke-linecap="round" stroke-linejoin="round" transform="matrix(.27701672 0 0 .27701672 62.00846 -290.20583)"/><path d="m-165.783 1105.016v35.164l-34.547-18.441v-34.49z" fill="url(#b)" stroke="#000" stroke-linecap="round" stroke-linejoin="round" transform="matrix(.27701672 0 0 .27701672 62.00846 -290.20583)"/><path d="m-131.841 1088.585-33.942 16.431v35.164l33.942-17.709z" fill="url(#c)" stroke="#000" stroke-linecap="round" stroke-linejoin="round" transform="matrix(.27701672 0 0 .27701672 62.00846 -290.20583)"/><g stroke-width=".2"><path d="m15.645834 6.3569127.17568 4.9602143-9.3078135-.336805z" fill="url(#d)" stroke="url(#f)"/><path d="m15.809694 6.6381627-.17568 4.9602143 9.307814-.336805z" fill="url(#h)" stroke="url(#i)"/><path d="m15.809694 15.884982-.17568-4.960215 9.307814.336805z" fill="url(#j)" stroke="url(#k)"/><path d="m16.083797 15.902078.17568-4.960215-9.3078139.336805z" fill="url(#l)" stroke="url(#m)"/></g></g></svg>