<svg height="32" viewBox="0 0 8.4666665 8.4666669" width="32" xmlns="http://www.w3.org/2000/svg" xmlns:xlink="http://www.w3.org/1999/xlink"><linearGradient id="a" gradientUnits="userSpaceOnUse" x1="-225.15704" x2="-201.97214" y1="-8.621324" y2="-8.621324"><stop offset="0" stop-color="#f2f2f2"/><stop offset="1" stop-color="#f9f9f9"/></linearGradient><g transform="matrix(.26458333 0 0 .26458333 -33.856753 -101.7322)"><g transform="matrix(1.3282587 0 0 1.3284005 427.63156 411.95224)"><path d="m-225.01854-14.071212h22.907898v10.899776h-22.907898z" fill="url(#a)" stroke="#666" stroke-linecap="round" stroke-linejoin="round" stroke-width=".777"/><path d="m-222.77995-11.535961h8.986145v6.043951h-8.986145z" fill="#769dd6"/></g><path d="m153.15052 394.89789a.24667389.24177049 0 0 0 -.0344 0h-1.25115a.24671808.2418138 0 1 0 0 .48346h1.04263v5.11601 5.11514h-1.04263a.24667389.24177049 0 1 0 0 .48345h1.24839a.24667389.24177049 0 0 0 .0812 0h1.24839a.24667389.24177049 0 1 0 0-.48345h-1.04193v-5.11514-5.11601h1.04193a.24671808.2418138 0 1 0 0-.48346h-1.24977a.24667389.24177049 0 0 0 -.0427 0z" fill="#008080" stroke="#008080" stroke-linecap="round" stroke-linejoin="round" stroke-width=".318019"/></g></svg>