<svg height="32" viewBox="0 0 8.4666665 8.4666669" width="32" xmlns="http://www.w3.org/2000/svg" xmlns:xlink="http://www.w3.org/1999/xlink"><linearGradient id="a" gradientUnits="userSpaceOnUse" x1="-200.83" x2="-165.283" y1="1113.7145" y2="1113.7145"><stop offset="0" stop-color="#ffd875"/><stop offset="1" stop-color="#f6cf5f"/></linearGradient><linearGradient id="b" gradientUnits="userSpaceOnUse" x1="-166.283" x2="-131.341" y1="1119.4875" y2="1114.3824"><stop offset="0" stop-color="#efc544"/><stop offset="1" stop-color="#e9b53e"/></linearGradient><linearGradient id="c" gradientUnits="userSpaceOnUse" x1="6.482451" x2="15.821514" xlink:href="#d" y1="8.133895" y2="11.317127"/><linearGradient id="d"><stop offset="0" stop-color="#b09c63" stop-opacity=".45098"/><stop offset="1" stop-color="#efb30d" stop-opacity=".960784"/></linearGradient><linearGradient id="e" gradientUnits="userSpaceOnUse" x1="6.482451" x2="15.925254" xlink:href="#f" y1="8.133895" y2="8.84432"/><linearGradient id="f"><stop offset="0" stop-color="#b09c63" stop-opacity=".45098"/><stop offset="1" stop-opacity=".985"/></linearGradient><linearGradient id="g" gradientTransform="matrix(-1 0 0 1 31.455528 .28125)" gradientUnits="userSpaceOnUse" x1="6.482451" x2="15.821514" xlink:href="#d" y1="8.133895" y2="11.317127"/><linearGradient id="h" gradientTransform="matrix(-1 0 0 1 31.455528 .28125)" gradientUnits="userSpaceOnUse" x1="6.482451" x2="15.925254" xlink:href="#f" y1="8.133895" y2="8.84432"/><linearGradient id="i" gradientTransform="matrix(-1 0 0 -1 31.455528 22.241894)" gradientUnits="userSpaceOnUse" x1="6.482451" x2="15.821514" xlink:href="#d" y1="8.133895" y2="11.317127"/><linearGradient id="j" gradientTransform="matrix(-1 0 0 -1 31.455528 22.241894)" gradientUnits="userSpaceOnUse" x1="6.482451" x2="15.925254" xlink:href="#f" y1="8.133895" y2="8.84432"/><linearGradient id="k" gradientTransform="matrix(1 0 0 -1 .437963 22.25899)" gradientUnits="userSpaceOnUse" x1="6.482451" x2="15.821514" xlink:href="#d" y1="8.133895" y2="11.317127"/><linearGradient id="l" gradientTransform="matrix(1 0 0 -1 .437963 22.25899)" gradientUnits="userSpaceOnUse" x1="6.482451" x2="15.925254" xlink:href="#f" y1="8.133895" y2="8.84432"/><linearGradient id="m" gradientUnits="userSpaceOnUse" x1="186.52" x2="185.75835" y1="455.366" y2="411.13419"><stop offset="0" stop-color="#007500"/><stop offset=".34293374" stop-color="#00d200"/><stop offset=".89766061" stop-color="#00d200"/><stop offset="1" stop-color="#007500"/></linearGradient><g transform="matrix(.39514522856 0 0 .3951874296 -2.18343122268 -2.08966497951)"><path d="m-165.783 1105.016-34.547-17.767 32.966-16.69 35.523 18.026z" fill="none" stroke="#000" stroke-linecap="round" stroke-linejoin="round" transform="matrix(.27701672 0 0 .27701672 62.00846 -290.20583)"/><path d="m-165.783 1105.016v35.164l-34.547-18.441v-34.49z" fill="url(#a)" stroke="#000" stroke-linecap="round" stroke-linejoin="round" transform="matrix(.27701672 0 0 .27701672 62.00846 -290.20583)"/><path d="m-131.841 1088.585-33.942 16.431v35.164l33.942-17.709z" fill="url(#b)" stroke="#000" stroke-linecap="round" stroke-linejoin="round" transform="matrix(.27701672 0 0 .27701672 62.00846 -290.20583)"/><g stroke-width=".2"><path d="m15.645834 6.3569127.17568 4.9602143-9.3078135-.336805z" fill="url(#c)" stroke="url(#e)"/><path d="m15.809694 6.6381627-.17568 4.9602143 9.307814-.336805z" fill="url(#g)" stroke="url(#h)"/><path d="m15.809694 15.884982-.17568-4.960215 9.307814.336805z" fill="url(#i)" stroke="url(#j)"/><path d="m16.083797 15.902078.17568-4.960215-9.3078139.336805z" fill="url(#k)" stroke="url(#l)"/></g></g><path d="m186.52 466.062v-10.696h-19.875v-11.055-11.055h19.875v-10.697h5.116l21.751 21.752-21.751 21.751z" fill="url(#m)" stroke="#fff" stroke-linecap="round" stroke-linejoin="round" transform="matrix(.06751557246 0 0 .06752278236 -6.30972996236 -23.56956893806)"/></svg>