<svg height="32" viewBox="0 0 8.4666665 8.4666669" width="32" xmlns="http://www.w3.org/2000/svg" xmlns:xlink="http://www.w3.org/1999/xlink"><linearGradient id="a" gradientUnits="userSpaceOnUse" x1="-272.15393" x2="-246.265" y1="663.78101" y2="664.591"><stop offset="0" stop-color="#008080"/><stop offset=".70054847" stop-color="#009d9d"/><stop offset="1" stop-color="#00e4e4"/></linearGradient><g stroke-linecap="round" stroke-linejoin="round" transform="matrix(.26455472 0 0 .26458298 -.032577 .123323)"><path d="m20.66351 13.374131a.56105612.54646551 0 0 0 -.252399.06744l-16.6628435 8.904071a.56105612.54646551 0 0 0 -.1265156.865638l7.8804351 7.676114a.56105612.54646551 0 0 0 .68356.08337l16.332391-9.456436a.56105612.54646551 0 0 0 .103857-.861963l-7.551246-7.124355a.56105612.54646551 0 0 0 -.407239-.153879zm-.07553 1.219376 6.726696 6.346388-15.327197 8.87403-7.043298-6.86013z" stroke="#f2f2f2" stroke-width=".416477"/><path d="m20.66351 8.078036a.56105612.54646551 0 0 0 -.252399.067438l-16.6628435 8.904073a.56105612.54646551 0 0 0 -.1265156.865638l7.8804351 7.676114a.56105612.54646551 0 0 0 .68356.08337l16.332391-9.456436a.56105612.54646551 0 0 0 .103857-.861962l-7.551246-7.1243553a.56105612.54646551 0 0 0 -.407239-.1538797zm-.07553 1.2193761 6.726696 6.3463889-15.327197 8.87403-7.043298-6.86013z" stroke="#f2f2f2" stroke-width=".416477"/><path d="m-262.804 695.866-24.454-24.455 51.704-28.368 23.431 22.697z" fill="#f2f2f2" stroke="#000" stroke-width="3.48158" transform="matrix(.32226704 0 0 .32226704 96.592016 -206.85862)"/><path d="m-257.069 664.591h-14.585l19.987 19.987 19.987-19.987h-14.585v-21.607h-5.402-5.402z" fill="url(#a)" stroke="#00f" transform="matrix(.32226704 0 0 .32226704 97.228983 -206.85862)"/></g></svg>