<svg height="32" viewBox="0 0 8.4666665 8.4666669" width="32" xmlns="http://www.w3.org/2000/svg" xmlns:xlink="http://www.w3.org/1999/xlink"><linearGradient id="a" gradientUnits="userSpaceOnUse" x1="7.69201" x2="17.729298" y1="4.532146" y2="20.795601"><stop offset="0" stop-color="#f8a5a5"/><stop offset="1" stop-color="#e6e6e6" stop-opacity="0"/></linearGradient><filter id="b" color-interpolation-filters="sRGB" height="1.139445" width="1.129707" x="-.064854" y="-.069723"><feGaussianBlur stdDeviation=".72026172"/></filter><g transform="matrix(.24552664 0 0 .24555286 .403846 .407741)"><circle cx="16" cy="16" fill="#ba0f0f" r="13.96443" stroke="#333" stroke-linecap="round" stroke-linejoin="round" stroke-width=".712"/><path d="m16 2.0351562a13.96443 13.96443 0 0 0 -13.9648438 13.9648438 13.96443 13.96443 0 0 0 5.1640626 10.828125 21.927635 21.927635 0 0 1 21.2304692-16.630859 21.927635 21.927635 0 0 1 .259765.013672 13.96443 13.96443 0 0 0 -12.689453-8.1757818z" fill="url(#a)" filter="url(#b)" transform="matrix(.96233255 0 0 .96233255 .578659 .543603)"/></g></svg>