<svg xmlns="http://www.w3.org/2000/svg" width="48" height="48" viewBox="0 0 48 48"><g id="aaf0c3c9-b30b-48cb-89ef-536b36da4ca7" data-name="Layer 1"><rect x="0.57" y="3.02" width="38.4" height="39.66" rx="1.14" fill="#026eaa"/><path d="M38,43.1H2.92A2.9,2.9,0,0,1,0,40.22V2.91A2.91,2.91,0,0,1,2.92,0H38a2.91,2.91,0,0,1,2.92,2.89V40.22A2.9,2.9,0,0,1,38,43.1ZM3.64,39.51H37.3V3.62H3.64Z" fill="#8de1ff"/><path d="M23.08,19.92a1,1,0,0,1-.24,0L7.7,15.45a1.45,1.45,0,0,1-1.19-1.39,1.43,1.43,0,0,1,1.11-1.44L18.09,8.3a1.46,1.46,0,0,1,.55,0l14.57,4.06a1.44,1.44,0,0,1,.18,2.81l-9.9,4.72A1.4,1.4,0,0,1,23.08,19.92Zm-12.26-5.5L23,17l7-2.81-11.54-3Z" fill="#8de1ff"/><path d="M23.24,31.48a2.09,2.09,0,0,1-.35,0L7.61,27.69a1.44,1.44,0,0,1-1.1-1.4V14A1.42,1.42,0,0,1,7,12.92,1.45,1.45,0,0,1,8.2,12.6l15.13,4.46a1.45,1.45,0,0,1,1.2,1.41L24.68,30a1.44,1.44,0,0,1-1.44,1.46ZM9.39,25.16l12.39,3-.13-8.49-12.26-4Z" fill="#8de1ff"/><path d="M23.23,31.48a1.45,1.45,0,0,1-.8-.25,1.41,1.41,0,0,1-.64-1.18l-.15-11.56a1.45,1.45,0,0,1,1-1.4l9.91-4.71a1.43,1.43,0,0,1,1.84,1.39V26.21a1.43,1.43,0,0,1-.91,1.34l-9.76,3.83A1.39,1.39,0,0,1,23.23,31.48Zm1.31-11.92.12,8.36,6.89-2.7V15.69Z" fill="#8de1ff"/><path d="M46.46,15l-1.12-.81-1-.61A3.09,3.09,0,0,0,42,13a3.28,3.28,0,0,0-2.13,1.25l-.37.52a10.08,10.08,0,0,0-4.6-.91c-2.43,0-5.22.26-7.59,3.47A9.71,9.71,0,0,0,26,23.82a1.21,1.21,0,0,0,.12.38,6.14,6.14,0,0,0-6,6.13v8a4.91,4.91,0,0,0,1.85,3.8l-.39,4.55a1.16,1.16,0,0,0,.44,1,1.19,1.19,0,0,0,.74.26,1.26,1.26,0,0,0,.38-.06L29,46a1.16,1.16,0,0,0,.61-.46l1.36-2h5.59c6.12,0,6.77-2.61,6.89-5a11.74,11.74,0,0,0,0-2.84,6.6,6.6,0,0,0-.55-2,4.56,4.56,0,0,0-.76-1.25,4.79,4.79,0,0,0,1-3.44V25.56l2.42-3.65a1.29,1.29,0,0,0,.16-.17l1.49-2A3.35,3.35,0,0,0,46.46,15Z" fill="#fff"/><polygon points="23 41.55 23.2 41.65 30.94 32.74 27.75 32.36 22.62 41.26 23 41.55" fill="#33bc4a"/><g id="b4d42ef9-61b2-4703-92df-bf4439020e36" data-name="b8b808fb-3387-465e-9f15-0a684081380a"><path d="M27.36,42.33h9.1c5.51,0,5.61-2.13,5.71-4a11.79,11.79,0,0,0,0-2.52,6,6,0,0,0-.49-1.74,3.66,3.66,0,0,0-.87-1.26,1.83,1.83,0,0,0-.48-.39c-.39-.19-.39,0-.68,0h-.48l-.87-.09a11.67,11.67,0,0,0-1.94-.2h-.77Z" fill="#33bc4a"/><polyline points="43.13 17.07 39.46 16.68 23.1 41.16 25.52 42.81" fill="#ffce00"/><polyline points="25.52 42.81 28.52 44.84 40.91 26.65 45.94 19.1 43.13 17.07" fill="#dd910a"/><polyline points="22.62 46.81 23.1 41.16 25.52 42.81" fill="#f79c41"/><polyline points="25.52 42.81 28.52 44.84 22.62 46.81" fill="#e58833"/><path d="M44.61,15.23l1.07.77a2.15,2.15,0,0,1,.48,3l-1.48,2h0l-3-2.13" fill="#c93636"/><path d="M41.78,19l-2.61-1.74.09-.29,1.48-2a2,2,0,0,1,2.81-.39h0l1.06.68" fill="#e24444"/><path d="M40,32.36c1.35-.58,1.84-1.45,1.84-3.39V23.45c0-3.58.09-8.41-7.07-8.41-2.42,0-4.64.29-6.58,2.9a8.56,8.56,0,0,0-1.16,5.71h8.32a.56.56,0,0,1,.58.58h0v1.16H26.1a5,5,0,0,0-4.93,4.94v8A3.83,3.83,0,0,0,23,41.55v-.39c.49-.77,3.59-5.41,4.84-7.35a2.52,2.52,0,0,1,2.62-.87C38.49,33.23,38.2,33,40,32.36Z" fill="#33bc4a"/><polyline points="22.62 46.81 22.78 44.9 23.43 45.69" fill="#666"/><polyline points="23.43 45.69 24.36 46.23 22.62 46.81" fill="#565656"/><path d="M29.68,32.07a9.79,9.79,0,0,1,4.26.38,19.94,19.94,0,0,0,4.26.49,12.42,12.42,0,0,1-5.32.19c-1.94-.19-3.29-.48-4.94.68A2.15,2.15,0,0,1,29.68,32.07Z" fill="#158915"/><path d="M35.39,23.65a1.75,1.75,0,0,1,1.94,1.55h0v.09h0v.1H36a5.94,5.94,0,0,0-.09-1.26A1.19,1.19,0,0,0,35.39,23.65Z" fill="#158915"/><path d="M30.26,42.33h1.26s3.37-5.69,5.77-7.06c3-1.46,3.14-1.56,3.25-2.1s-.38-.87-.5-.81a13.63,13.63,0,0,1-3.58.87Z" fill="#158915"/><rect x="32.09" y="18.23" width="2.14" height="2.9" rx="1.07" fill="#1c66af"/></g></g></svg>