<?xml version="1.0" encoding="utf-8"?>
<!-- Generator: Adobe Illustrator 25.2.1, SVG Export Plug-In . SVG Version: 6.00 Build 0)  -->
<svg version="1.1" id="e70295f2-bfe9-4e13-838d-5913d3da1515"
	 xmlns="http://www.w3.org/2000/svg" xmlns:xlink="http://www.w3.org/1999/xlink" x="0px" y="0px" viewBox="0 0 36 36"
	 style="enable-background:new 0 0 36 36;" xml:space="preserve">
<style type="text/css">
	.st0{fill:#33BC4A;}
	.st1{fill:#FFCE00;}
	.st2{fill:#DD910A;}
	.st3{fill:#F79C41;}
	.st4{fill:#E58833;}
	.st5{fill:#C93636;}
	.st6{fill:#E24444;}
	.st7{fill:#666666;}
	.st8{fill:#565656;}
	.st9{fill:#239923;}
	.st10{fill:#1C66AF;}
</style>
<g>
	<polygon class="st0" points="6.4,29.4 6.6,29.5 14.7,20.1 11.4,19.7 6,29.1 	"/>
	<g id="b8b808fb-3387-465e-9f15-0a684081380a_3_">
		<path class="st0" d="M11,30.2h9.6c5.8,0,5.9-2.2,6-4.2c0.1-0.9,0.1-1.7,0-2.6c-0.1-0.6-0.2-1.2-0.5-1.8c-0.2-0.5-0.5-0.9-0.9-1.3
			c-0.2-0.2-0.3-0.3-0.5-0.4c-0.4-0.2-0.5-0.2-0.8-0.2l-0.4,0.2l-0.9-0.1c-0.6-0.1-1.3-0.2-2-0.2c-0.3,0-0.5,0-0.8,0L11,30.2z"/>
		<polyline class="st1" points="27.6,3.7 23.7,3.3 6.5,29 9,30.7 		"/>
		<polyline class="st2" points="9,30.7 12.2,32.9 25.2,13.7 30.5,5.8 27.6,3.7 		"/>
		<polyline class="st3" points="5.5,35.9 6.5,29 9,30.7 		"/>
		<polyline class="st4" points="9,30.7 12.2,32.9 5.5,35.9 		"/>
		<path class="st5" d="M29.4,1.3l1.1,0.8c1,0.7,1.3,2,0.6,3.1l-1.9,2.6l0,0l-3-2.1L29.4,1.3z"/>
		<path class="st6" d="M26.2,5.7l-2.8-1.8l0.1-0.3L25.4,1c0.7-0.9,2-1.1,2.9-0.4l0,0l1.1,0.7L26.2,5.7z"/>
		<path class="st0" d="M24.3,19.7c1.4-0.6,1.9-1.5,1.9-3.6v-5.8c0-3.8,0.1-8.8-7.4-8.8c-2.5,0-4.9,0.3-6.9,3.1c-1.1,1.8-1.5,4-1.2,6
			h8.7c0.3,0,0.6,0.2,0.6,0.6l0,0l0,0v1.2H9.7c-2.8,0-5.2,2.3-5.2,5.2V26c0,1.4,0.8,2.6,1.9,3.4v-0.2V29c0.5-0.8,3.8-5.7,5.1-7.7
			c0.7-0.8,2.4-1.9,3.4-1.6c3.5,0.1,4.8,0.9,6.1,0.9C22.9,20.5,23.2,20.2,24.3,19.7z"/>
		<polyline class="st7" points="5.5,35.9 5.7,34.2 6.3,34.7 		"/>
		<polyline class="st8" points="6.3,34.7 7.1,35.2 5.5,35.9 		"/>
		<path class="st9" d="M13.4,19.4c1-0.3,2.9,0,4.5,0.4c1.4,0.3,2.7,0.5,4.3,0.5c-1.8,0.5-3.6,0.5-5.4,0.2c-2-0.2-3.4-0.5-5.1,0.7
			C11.8,20.3,12.4,19.7,13.4,19.4z"/>
		<path class="st9" d="M19.4,10.6c1-0.1,1.9,0.6,2,1.6l0,0v0.1l0,0v0.1H20c0-0.4,0-0.9-0.1-1.3C19.8,10.9,19.6,10.7,19.4,10.6z"/>
		<path class="st9" d="M14,30.2h1.3c0,0,3.5-6,6.1-7.4c2.4-1.1,3.1-1.5,3.4-2.2c0.2-0.6,0-0.7-0.5-0.9c-0.8,0.5-3.5,0.8-3.7,0.8
			L14,30.2z"/>
		<path class="st10" d="M17.1,7.9L17.1,7.9c-0.6,0-1.1-0.5-1.1-1.1V6c0-0.6,0.5-1.1,1.1-1.1l0,0c0.6,0,1.1,0.5,1.1,1.1v0.8
			C18.2,7.4,17.7,7.9,17.1,7.9z"/>
	</g>
</g>
</svg>
