<?xml version="1.0" encoding="utf-8"?>
<!-- Generator: Adobe Illustrator 25.2.1, SVG Export Plug-In . SVG Version: 6.00 Build 0)  -->
<svg version="1.1" id="ee2514ad-0c1d-4dda-a282-47fabfa5bf74"
	 xmlns="http://www.w3.org/2000/svg" xmlns:xlink="http://www.w3.org/1999/xlink" x="0px" y="0px" viewBox="0 0 36 36"
	 style="enable-background:new 0 0 36 36;" xml:space="preserve">
<style type="text/css">
	.st0{fill:#33BC4A;}
	.st1{fill:#FFCE00;}
	.st2{fill:#F79C41;}
	.st3{fill:#E24444;}
	.st4{fill:#666666;}
	.st5{fill:#208920;}
	.st6{fill:#1D5B99;}
</style>
<g id="e7e4f18d-cbcd-475c-a4b9-a3f84f500be0">
	<path class="st0" d="M12,31.8h9.4c5.7,0,5.8-2.2,5.9-4.1c0.1-0.9,0.1-1.7,0-2.6c-0.1-1.1-0.6-3.8-1.3-4.6l-0.2-0.2
		c-0.2-0.2-0.5-0.4-0.8-0.5c-0.5,0.2-3.6-0.4-4.5-0.3L12,31.8z"/>
	<polygon class="st1" points="28.6,3.7 25.8,1.9 7.6,28.9 10.1,30.7 13.3,32.8 26.2,13.6 30.2,7.9 	"/>
	<polygon class="st2" points="10.1,30.7 7.6,28.9 6.6,35.9 13.3,32.8 	"/>
	<path class="st3" d="M31.6,2l-1.1-0.8l-1.1-0.7c-0.9-0.7-2.3-0.5-3,0.4l0,0l-1.9,2.7l-0.1,0.3l2.8,1.9l3,2.1l2-2.7
		C32.9,4.2,32.7,2.8,31.6,2L31.6,2z"/>
	<path class="st0" d="M25,19.8c1.4-0.6,1.9-1.5,1.9-3.5v-5.7c0-3.7,0.1-9.4-7.3-9.4c-2.5,0-4.8,0.3-6.8,3c-1.1,1.8-1.5,3.9-1.2,5.9
		h8.6c0.3,0,0.6,0.2,0.6,0.6l0,0v1.9H10.7c-2.8,0-5.1,2.3-5.1,5.1v10.8c0,1.2,0.6,2.3,1.6,3l0.4-2.6c0.5-0.8,3.6-5.3,4.9-7.3
		c0.6-0.9,1.7-1.4,2.7-1.2C20.3,20.3,23.1,20.5,25,19.8z"/>
	<polygon class="st4" points="7.3,34.9 6.9,34.1 6.6,35.9 8.3,35.1 	"/>
	<path class="st5" d="M13.7,18.6c1.6-1.4,3.7-1.5,5.6-0.8c5.4,2,7.6-1.3,7.6-1.3c0.3,3.3-2.5,4.5-10.1,3.9c-2.2-0.2-3.2,0.3-4.7,1.8
		C12.3,21.6,12.1,19.9,13.7,18.6z"/>
	<path class="st5" d="M14,31.8h1.6c0.7-0.8,2.7-5.2,7.8-7.6c1.8-0.8,2.5-1.6,3-3c-0.2-0.4-0.2-0.6-0.7-1c-0.2-0.1-0.5-0.3-0.7-0.4
		c-1.1,0.5-2.3,0.7-3.5,0.6L14,31.8z"/>
	<path class="st5" d="M20.2,10.1c1.4-0.2,2.6,0.8,2.8,2.2c0,0.1,0,0.2,0,0.3h-2.2c0-0.7,0-1.3-0.1-2C20.6,10.4,20.5,10.2,20.2,10.1z
		"/>
	<path class="st6" d="M17.9,4.2L17.9,4.2c0.8,0,1.4,0.6,1.4,1.4v1.1c0,0.8-0.6,1.4-1.4,1.4l0,0c-0.8,0-1.4-0.6-1.4-1.4V5.6
		C16.5,4.8,17.1,4.2,17.9,4.2z"/>
</g>
</svg>
