<?xml version="1.0" encoding="utf-8"?>
<!-- Generator: Adobe Illustrator 25.2.0, SVG Export Plug-In . SVG Version: 6.00 Build 0)  -->
<svg version="1.1" id="Layer_1" xmlns="http://www.w3.org/2000/svg" xmlns:xlink="http://www.w3.org/1999/xlink" x="0px" y="0px"
	 viewBox="0 0 32 32" style="enable-background:new 0 0 32 32;" xml:space="preserve">
<g>
	<g>
		<g>
			<path d="M29.2,4c-1.6-0.6-3.5-0.8-5.3-0.8c-3,0-6.1,0.6-8.3,2.3c-2.1-1.6-5.3-2.2-8.1-2.2c-3,0-6.1,0.6-8.3,2.3v21.9
				c0,0.4,0.5,0.8,0.8,0.8c0.1,0,0.3,0,0.5,0c2-1.1,5-1.7,7.2-1.7c2.9,0,6,0.6,8.3,2.3c2-1.3,5.7-2.3,8.3-2.3c2.4,0,5,0.4,7.2,1.5
				c0.1,0,0.1,0,0.5,0c0.5,0,0.8-0.4,0.8-0.8V5.4C31.3,4.9,30.3,4.5,29.2,4z M29.2,24.3c-1.6-0.6-3.5-0.8-5.3-0.8
				c-2.5,0-6.3,0.9-8.3,2.3V8.5c2-1.3,5.7-2.3,8.3-2.3c1.8,0,3.6,0.2,5.3,0.8V24.3z"/>
			<g>
				<path d="M24,12.3c1.4,0,2.5,0.2,3.8,0.4v-2.3c-1.2-0.2-2.4-0.3-3.8-0.3c-2.5,0-4.8,0.4-6.8,1.2v2.6C18.9,12.9,21.3,12.3,24,12.3
					z"/>
				<path d="M17.2,15.3v2.6c1.6-0.9,4-1.5,6.8-1.5c1.4,0,2.5,0.2,3.8,0.4v-2.3c-1.2-0.2-2.4-0.3-3.8-0.3
					C21.4,14.1,19.2,14.5,17.2,15.3z"/>
				<path d="M24,18.1c-2.5,0-4.8,0.4-6.8,1.2v2.6c1.6-0.9,4-1.5,6.8-1.5c1.4,0,2.5,0.2,3.8,0.4v-2.3C26.5,18.3,25.3,18.1,24,18.1z"
					/>
			</g>
		</g>
	</g>
</g>
</svg>
