<?xml version="1.0" encoding="utf-8"?>
<!-- Generator: Adobe Illustrator 25.2.0, SVG Export Plug-In . SVG Version: 6.00 Build 0)  -->
<svg version="1.1" id="Layer_1" xmlns="http://www.w3.org/2000/svg" xmlns:xlink="http://www.w3.org/1999/xlink" x="0px" y="0px"
	 viewBox="0 0 32 32" style="enable-background:new 0 0 32 32;" xml:space="preserve">
<g>
	<path d="M19.8,10.1L15.9,14L12,10.1l-2.1,2.1l3.9,3.9L9.9,20l2.1,2.1l3.9-3.9l3.9,3.9l2.1-2.1L18,16.1l3.9-3.9L19.8,10.1z
		 M15.9,1.1c-8.3,0-15,6.7-15,15s6.7,15,15,15s15-6.7,15-15S24.2,1.1,15.9,1.1z M15.9,28.1c-6.6,0-12-5.4-12-12s5.4-12,12-12
		s12,5.4,12,12S22.5,28.1,15.9,28.1z"/>
</g>
</svg>
