<?xml version="1.0" encoding="utf-8"?>
<!-- Generator: Adobe Illustrator 25.2.0, SVG Export Plug-In . SVG Version: 6.00 Build 0)  -->
<svg version="1.1" id="Layer_1" xmlns="http://www.w3.org/2000/svg" xmlns:xlink="http://www.w3.org/1999/xlink" x="0px" y="0px"
	 viewBox="0 0 32 32" style="enable-background:new 0 0 32 32;" xml:space="preserve">
<path d="M19,1H7C5.3,1,4,2.3,4,4v24c0,1.7,1.3,3,3,3h18c1.7,0,3-1.3,3-3V10L19,1z M25,23.9h-2.3V11.5H25V23.9z M11.6,23.9V8.2h5.9
	v3.3h3v12.4C20.5,23.9,11.6,23.9,11.6,23.9z M20.5,26.1V28h-8.9v-1.9H20.5z M17.5,6h-5.9V4h5.9V6z M9.4,4v2H7V4H9.4z M7,8.2h2.4
	v15.7H7v2.2h2.4V28H7V8.2z M22.7,28v-1.9H25V28H22.7z"/>
</svg>
