<svg viewBox="0 0 32 32">
	<path d="M7.5,25.6l2.1,2.1l3.6-3.6c1,0.6,2.3,1.1,3.6,1.1c3.8,0,6.8-3,6.8-6.8s-3-6.8-6.8-6.8s-6.8,3-6.8,6.8c0,1.3,0.5,2.5,1,3.6
		L7.5,25.6z M13,18.4c0-2.1,1.7-3.8,3.8-3.8s3.8,1.6,3.8,3.8c0,2.1-1.7,3.8-3.8,3.8S13,20.5,13,18.4z M7.5,25.6l2.1,2.1l3.6-3.6
		c1,0.6,2.3,1.1,3.6,1.1c3.8,0,6.8-3,6.8-6.8s-3-6.8-6.8-6.8s-6.8,3-6.8,6.8c0,1.3,0.5,2.5,1,3.6L7.5,25.6z M13,18.4
		c0-2.1,1.7-3.8,3.8-3.8s3.8,1.6,3.8,3.8c0,2.1-1.7,3.8-3.8,3.8S13,20.5,13,18.4z M7.5,25.6l2.1,2.1l3.6-3.6c1,0.6,2.3,1.1,3.6,1.1
		c3.8,0,6.8-3,6.8-6.8s-3-6.8-6.8-6.8s-6.8,3-6.8,6.8c0,1.3,0.5,2.5,1,3.6L7.5,25.6z M13,18.4c0-2.1,1.7-3.8,3.8-3.8
		s3.8,1.6,3.8,3.8c0,2.1-1.7,3.8-3.8,3.8S13,20.5,13,18.4z"/>
	<path d="M19,1H7C5.3,1,4,2.3,4,4v24c0,1.7,1.3,3,3,3h18c1.7,0,3-1.3,3-3V10L19,1z M25,28H7V4h10.5v7.5H25V28z"/>
</svg>
