<?xml version="1.0" encoding="utf-8"?>
<!-- Generator: Adobe Illustrator 25.2.0, SVG Export Plug-In . SVG Version: 6.00 Build 0)  -->
<svg version="1.1" id="Layer_1" xmlns="http://www.w3.org/2000/svg" xmlns:xlink="http://www.w3.org/1999/xlink" x="0px" y="0px"
	 viewBox="0 0 32 32" style="enable-background:new 0 0 32 32;" xml:space="preserve">
<style type="text/css">
	.st0{fill:none;}
</style>
<g>
	<g>
		<path class="st0" d="M7.5,25.6l2.1,2.1l3.6-3.6c1,0.6,2.3,1.1,3.6,1.1c3.8,0,6.8-3,6.8-6.8s-3-6.8-6.8-6.8s-6.8,3-6.8,6.8
			c0,1.3,0.5,2.5,1,3.6L7.5,25.6z"/>
		<path d="M7.5,25.6l2.1,2.1l3.6-3.6c1,0.6,2.3,1.1,3.6,1.1c3.8,0,6.8-3,6.8-6.8s-3-6.8-6.8-6.8s-6.8,3-6.8,6.8c0,1.3,0.5,2.5,1,3.6
			L7.5,25.6z M13,18.4c0-2.1,1.7-3.8,3.8-3.8s3.8,1.6,3.8,3.8c0,2.1-1.7,3.8-3.8,3.8S13,20.5,13,18.4z M7.5,25.6l2.1,2.1l3.6-3.6
			c1,0.6,2.3,1.1,3.6,1.1c3.8,0,6.8-3,6.8-6.8s-3-6.8-6.8-6.8s-6.8,3-6.8,6.8c0,1.3,0.5,2.5,1,3.6L7.5,25.6z M13,18.4
			c0-2.1,1.7-3.8,3.8-3.8s3.8,1.6,3.8,3.8c0,2.1-1.7,3.8-3.8,3.8S13,20.5,13,18.4z M7.5,25.6l2.1,2.1l3.6-3.6c1,0.6,2.3,1.1,3.6,1.1
			c3.8,0,6.8-3,6.8-6.8s-3-6.8-6.8-6.8s-6.8,3-6.8,6.8c0,1.3,0.5,2.5,1,3.6L7.5,25.6z M13,18.4c0-2.1,1.7-3.8,3.8-3.8
			s3.8,1.6,3.8,3.8c0,2.1-1.7,3.8-3.8,3.8S13,20.5,13,18.4z"/>
	</g>
	<path d="M19,1H7C5.3,1,4,2.3,4,4v24c0,1.7,1.3,3,3,3h18c1.7,0,3-1.3,3-3V10L19,1z M25,28H7V4h10.5v7.5H25V28z"/>
</g>
</svg>
