<svg height="32" viewBox="0 0 8.4666665 8.4666669" width="32" xmlns="http://www.w3.org/2000/svg" xmlns:xlink="http://www.w3.org/1999/xlink"><linearGradient id="a"><stop offset="0" stop-color="#ebe879"/><stop offset="1" stop-color="#f1ef9d"/></linearGradient><linearGradient id="b"><stop offset="0" stop-color="#202d81"/><stop offset="1" stop-color="#030532"/></linearGradient><linearGradient id="c"><stop offset="0" stop-color="#696919"/><stop offset="1" stop-color="#949423"/></linearGradient><linearGradient id="d"><stop offset="0" stop-color="#64b025"/><stop offset="1" stop-color="#63b025" stop-opacity=".597884"/></linearGradient><linearGradient id="e" gradientUnits="userSpaceOnUse" x1="-174.288379" x2="-142.238304" xlink:href="#c" y1="115.910948" y2="18.029589"/><linearGradient id="f" gradientUnits="userSpaceOnUse" x1="-135.393112" x2="-131.436149" xlink:href="#d" y1="120.342226" y2="55.623984"/><radialGradient id="g" cx="33.858749" cy="21.987902" gradientTransform="matrix(1 0 0 1.550856 -201.3507 7.41275)" gradientUnits="userSpaceOnUse" r="8.340566" xlink:href="#a"/><radialGradient id="h" cx="50.567123" cy="22.815399" gradientTransform="matrix(1 0 0 1.3922479 -201.3507 10.575623)" gradientUnits="userSpaceOnUse" r="9.121435" xlink:href="#a"/><radialGradient id="i" cx="36.623146" cy="22.056005" gradientTransform="matrix(1.233113 0 0 1.5261389 -209.88803 7.920394)" gradientUnits="userSpaceOnUse" r="4.673345" xlink:href="#b"/><radialGradient id="j" cx="53.815994" cy="21.933603" gradientTransform="matrix(1.1534217 0 0 1.3527594 -209.60724 11.787631)" gradientUnits="userSpaceOnUse" r="4.995455" xlink:href="#b"/><linearGradient id="k" gradientTransform="matrix(.62201222 0 0 .62801738 -16.861028 -2.644375)" gradientUnits="userSpaceOnUse" x1="26.648937" x2="135.66525" y1="20.603781" y2="114.39767"><stop offset="0" stop-color="#5a9fd4"/><stop offset="1" stop-color="#306998"/></linearGradient><linearGradient id="l" gradientTransform="matrix(.62201222 0 0 .62801738 -16.861028 -2.644375)" gradientUnits="userSpaceOnUse" x1="150.96111" x2="112.03144" y1="192.35176" y2="137.27299"><stop offset="0" stop-color="#ffd43b"/><stop offset="1" stop-color="#ffe873"/></linearGradient><radialGradient id="m" cx="61.518883" cy="132.28575" gradientTransform="matrix(.00000002 -.296405 1.43676 .00000047 -128.544 150.5202)" gradientUnits="userSpaceOnUse" r="29.036913"><stop offset="0" stop-color="#b8b8b8" stop-opacity=".498039"/><stop offset="1" stop-color="#7f7f7f" stop-opacity="0"/></radialGradient><g transform="matrix(.06198308727 0 0 .06198308727 13.09157679008 -.70822076352)"><g transform="translate(-.000023)"><path d="m-157.82055 23.686525c.77361-.253963 1.50339-1.731692 2.74137-2.575821 1.23798-.84413 2.98806-1.056261 5.39698-1.109177 2.40891-.05292 5.48289.05308 7.57479.212006 2.09189.158922 3.20453.370853 4.56531.982831 1.36079.611977 2.97279 1.625439 4.38262 3.555217 1.40983 1.929779 2.61868 4.776433 3.18736 8.158933.56867 3.3825.49647 7.297281.37093 9.697905-.12553 2.400625-.30431 3.282794.0697 4.731969.374 1.449174 1.30013 3.460197 2.61142 5.195413 1.3113 1.735216 3.0059 3.191513 4.38291 4.87303 1.37702 1.681516 2.43629 3.5882 3.04372 5.706876.60743 2.118675.76981 4.554466.79633 7.01783.0265 2.463364-.0794 5.004746-1.29766 7.745922-1.21829 2.741177-3.54688 5.677597-7.30895 9.611634-3.76207 3.934036-8.94958 8.856868-12.7903 12.077596-3.84073 3.220731-6.32848 4.733801-8.883 6.164601-2.55453 1.4308-5.16935 2.77563-7.89839 3.91317-2.72904 1.13753-5.56593 2.06478-8.65421 2.7407s-6.42377 1.09948-9.68179 1.25845c-3.25801.15896-6.43492.0531-8.55418-.47673-2.11926-.5298-3.17826-1.4829-4.29069-2.88671-1.11243-1.4038-2.27762-3.25752-2.70119-5.05868-.42356-1.80116-.10572-3.54929.23857-4.89965.34429-1.350354.71529-2.304365 1.29777-3.018856s1.37798-1.191791 1.64267-1.48257c.2647-.290779-.00052-.396868-1.40676-1.325512-1.40624-.928645-3.94365-2.673113-5.82412-4.209279-1.88047-1.536165-3.09859-2.860208-3.94611-4.396513-.84752-1.536306-1.32423-3.284245-1.48303-5.376125-.15881-2.09188.00015-4.529265.59606-6.779945.59591-2.250679 1.6292-4.317256 2.80787-6.078302 1.17867-1.761045 2.50282-3.217613 3.94624-4.488674s3.00592-2.356866 4.59574-3.395297c1.58982-1.03843 3.25661-2.060011 4.76561-3.145496 1.50899-1.085486 2.8871-2.25157 3.81345-3.681132.92634-1.429561 1.40341-3.125801 1.64159-4.899422s.23818-3.628733.28867-5.716879c.0505-2.088147.15153-4.413092.35181-6.885223.20027-2.472131.50003-5.094994.89332-7.135909s.88038-3.502184 1.7978-4.625186c.91743-1.123002 2.26684-1.910157 3.74545-2.340508 1.4786-.430352 3.09048-.505323 4.60682-.524024 1.51633-.0187 2.94046.01878 3.95113.224708 1.01066.205932 1.61031.580714 2.31797 1.253083.70765.672368 1.52479 1.643709 2.29841 1.389746z" stroke="#000"/><path d="m-157.5308 25.125385c.82434-.393763 1.76066-2.154041 3.07654-3.09007 1.31587-.93603 3.01088-1.048939 5.25805-1.198751 2.24716-.149811 5.04647-.336523 7.21338.319216 2.16691.65574 3.70247 2.153847 4.73231 3.520621 1.02984 1.366773 1.55418 2.602711 2.17216 4.063391.61799 1.460681 1.32956 3.145999 1.91018 5.318483.58062 2.172483 1.02992 4.83085 1.21726 7.28423.18734 2.453381.11245 4.699861.20604 6.404372.0936 1.704512.35564 2.865012 1.35047 4.178132.99483 1.313119 2.71324 2.770032 4.0149 4.069032 1.30166 1.299001 2.2187 2.48351 3.09886 3.75692.88016 1.273409 1.74147 2.658991 2.29928 4.341902.5578 1.682911.81185 3.662791.80654 5.725828-.005 2.063038-.27001 4.207236-.91883 6.140909-.64881 1.933672-1.68112 3.65418-2.93943 5.283494-1.25832 1.629314-2.74036 3.164281-4.23712 4.634581-1.49677 1.4703-3.0053 2.87297-5.69464 5.284113s-6.55322 5.825118-9.35145 8.11003c-2.79822 2.284912-4.56396 3.462072-6.45815 4.574792-1.89419 1.11271-3.93204 2.17133-6.13082 3.24424-2.19878 1.07292-4.55439 2.15809-6.4064 2.8659s-3.19763 1.03702-5.05158 1.40793c-1.85396.3709-4.21142.78252-6.92757.93242s-5.78579.0376-7.9774-.56179c-2.19162-.59939-3.50206-1.68518-4.57612-2.79434-1.07407-1.10917-1.91101-2.24094-2.39568-3.52216-.48468-1.28123-.61712-2.71153-.5243-3.92958.0928-1.21806.41082-2.225047.87421-3.045556.4634-.820509 1.07323-1.456855 1.5493-1.668293.47607-.211437.8209.000766 1.0722.423798.25129.423033.41032 1.059141.88779 1.549725.47746.490583 1.27107.834481 2.03894 1.11248.76788.277996 1.50985.489986 2.84652.662006s3.27165.30456 5.38982.27804c2.11816-.0265 4.42329-.21198 6.83273-.79457 2.40944-.582595 4.9265-1.562923 7.4153-2.754426 2.48881-1.191502 4.95291-2.59578 7.07107-4.052102s3.89338-2.966582 5.91866-4.66092c2.02527-1.694338 4.30419-3.575773 5.98547-5.25721 1.68128-1.681436 2.76761-3.165192 3.78683-4.581527 1.01923-1.416334 1.97334-2.767999 2.35702-3.535361s.19814-.9529-.33096-.714975c-.5291.237926-1.40304.900002-2.88746 2.17234s-3.57391 3.150234-5.78577 4.805896c-2.21186 1.655661-4.5412 3.085028-6.75306 4.422744-2.21185 1.337716-4.30296 2.581794-6.35595 3.614969s-4.06456 1.853684-6.15739 2.56899c-2.09282.715305-4.26313 1.324051-6.58114 1.694988s-4.77958.50328-7.30929.556274c-2.52972.05299-5.12396.02652-7.17697-.357528-2.05301-.38405-3.56197-1.125292-4.96578-1.853679-1.40382-.728388-2.70113-1.443235-4.05215-2.595588-1.35103-1.152352-2.75426-2.740913-3.66796-4.555306-.91371-1.814393-1.33746-3.853672-1.43001-5.50882-.0925-1.655148.1459-2.926808.50329-4.290054.3574-1.363245.83452-2.821129 1.64197-4.409383s1.94715-3.311066 3.32442-4.899945c1.37726-1.588879 2.99273-3.045448 4.77975-4.32937 1.78703-1.283922 3.74807-2.396944 5.41604-3.509003s3.04592-2.225018 4.05175-3.495796c1.00582-1.270778 1.64192-2.702 2.01242-4.025576.37049-1.323577.47651-2.542825.58953-4.86971.11302-2.326886.23339-5.768571.46491-8.744384.23153-2.975814.56301-5.406665 1.06865-7.428801.50564-2.022135 1.18009-3.59586 1.87303-4.587937.69293-.992076 1.40508-1.404373 2.63954-1.778386 1.23446-.374014 2.99766-.711648 4.49524-.823892s2.73432.000187 3.78245.262267c1.04812.26208 1.91016.67436 2.69639 1.367045.78623.692684 1.49783 1.666454 2.32217 1.272691z" fill="url(#e)" stroke="#000"/><path d="m-135.04402 60.488337c-1.05848.289997-2.60256.712677-3.86918 1.214313-1.68882.668849-3.52442 1.830198-6.00976 3.515625-2.48534 1.685428-5.62337 3.897974-8.36914 5.744141-2.74578 1.846167-5.10305 3.328372-7.77735 4.771484-2.67429 1.443113-5.66739 2.848305-8.58007 3.589844-2.91269.741539-5.74686.820734-8.64649.595703s-5.86774-.753793-8.22461-1.46875c-2.35687-.714956-4.10324-1.615379-5.59961-2.582031-1.49636-.966652-2.74246-1.999583-3.96094-3.800781-.2798-.413614-.55671-.874029-.83593-1.34375-.0115.01921-.0258.03941-.0371.05859-.90014 1.522064-1.37698 2.980505-1.73438 4.34375-.35739 1.363246-.59645 2.633915-.5039 4.289063.0925 1.655148.51598 3.695372 1.42968 5.509766.91371 1.814394 2.31695 3.402336 3.66797 4.554687 1.35103 1.152351 2.64893 1.867317 4.05274 2.595703 1.40381.728387 2.91183 1.469466 4.96484 1.853516s4.64802.410415 7.17774.357422c2.52971-.05299 4.99058-.185704 7.30859-.556641s4.48921-.980008 6.58203-1.695312c2.09282-.715305 4.10521-1.535185 6.1582-2.56836 2.05299-1.033174 4.14361-2.277518 6.35547-3.615234 2.21186-1.337717 4.5401-2.766213 6.75196-4.421875 2.21185-1.655662 4.30268-3.534302 5.7871-4.806641 1.48443-1.272338 2.35762-1.93395 2.88672-2.171875.52911-.237924.71376-.05252.33008.714844-.38368.767361-1.33624 2.118821-2.35547 3.535156-1.01922 1.416335-2.10582 2.900595-3.78711 4.582031-1.68128 1.681437-3.96105 3.561522-5.98632 5.25586-2.02528 1.694338-3.79981 3.205785-5.91797 4.662109s-4.58151 2.859278-7.07032 4.050781c-2.4888 1.191504-5.00657 2.173269-7.41601 2.755865-2.40944.58259-4.71387.7684-6.83203.79492-2.11817.0265-4.05396-.10728-5.39063-.2793-1.33666-.17202-2.07782-.38411-2.8457-.662109-.76788-.278-1.5616-.620745-2.03906-1.111329-.47747-.49058-.63738-1.127745-.88868-1.550778-.25129-.423033-.59619-.635266-1.07226-.423828s-1.08544.84746-1.54883 1.667969-.78218 1.828825-.875 3.046875c-.0928 1.21805.0407 2.64846.52539 3.92969.48468 1.28123 1.32047 2.41232 2.39453 3.52148 1.07407 1.10916 2.38456 2.19554 4.57617 2.79492 2.19162.59939 5.26237.71045 7.97852.56055s5.07378-.56074 6.92773-.93164c1.85396-.3709 3.19878-.70039 5.05079-1.4082 1.852-.70781 4.20747-1.79232 6.40625-2.86524 2.19878-1.07291 4.23667-2.13143 6.13086-3.24414s3.66076-2.29126 6.45898-4.57617c2.79822-2.284913 6.66222-5.698233 9.35156-8.109375 2.68935-2.411143 4.1966-3.812902 5.69336-5.283203 1.49677-1.470302 2.97997-3.005454 4.23828-4.634766 1.05333-1.363893 2.80136-4.186109 3.29122-6.389235s.3966-4.957218-.19685-6.711548c-.60916-1.800745-1.48114-2.73292-2.46102-4.083558-.97988-1.350639-2.7156-2.113706-4.3304-2.934304-1.61479-.820598-2.77665-.914051-4.63331-.984267-.46416-.01755-2.68132.347583-2.68132.347583z" fill="url(#f)"/><path d="m-186.91208 68.439894c.57991.150023 1.10425.674361 1.14195 1.47899s-.41173 1.890758-.99232 2.677746c-.58058.786987-1.29139 1.273331-2.00364 1.517166s-1.4227.243835-1.81656-.112908c-.39385-.356742-.46865-1.067344-.39365-1.778657s.3-1.423801.69314-2.003779c.39314-.579979.95588-1.03017 1.55455-1.366798s1.23661-.561784 1.81653-.41176z" stroke="#000"/><path d="m-173.97223 69.188798c-.44878-.03769-1.04803.261933-1.56437.736224s-.9822 1.173068-1.2073 1.791597-.2251 1.179357-.11264 1.723147c.11245.54379.33677 1.067196.82455 1.367137s1.23614.374777 1.79765.131046.93648-.806188 1.16079-1.479492c.2243-.673304.29936-1.461431.29929-2.060243s-.0751-1.011361-.26203-1.403919c-.18696-.392558-.48716-.767806-.93594-.805497z" stroke="#000"/><path d="m-168.24153 93.45098c-.22287.05248-.44029.107193-.6836.154297-1.45101.280915-3.28831.504637-4.88867.701172-1.60036.196536-2.96861.36581-4.08203.46875-.20093.01858-.34377.02274-.52735.03711-1.0293.942081-2.06973 1.91366-3.08984 2.873047-2.22402 2.091631-4.3445 4.106294-6.27734 6.277344-1.93285 2.17105-3.68094 4.50172-5.56055 6.22266s-3.89442 2.83502-5.13867 4.10546c-1.24426 1.27045-1.7215 2.70038-1.98633 4.10352-.26483 1.40315-.31769 2.7807.13281 2.59571s1.40261-1.93079 2.51563-3.12305c1.11301-1.19227 2.38234-1.82864 3.46875-2.14649s1.98808-.31636 2.45898-.041c.4709.27534.51503.82603.56641 2.08594.0514 1.25992.10999 3.22748.2207 4.83203.11071 1.60456.27204 2.84481.80469 2.93555.53265.0907 1.43185-.96785 1.72266-2.98047s-.0258-4.97568.14648-7.21484c.17232-2.23917.83278-3.74771 2.01172-5.31055s2.87314-3.17823 4.99219-5.00586c2.11904-1.82763 4.66069-3.86526 7.69336-6.460938 1.90296-1.628755 3.99665-3.478107 5.5-5.109375z" fill="#ea1824" stroke="#000" stroke-width=".5"/><path d="m-156.21916 30.780153c1.34052-.974002 3.20247-1.49121 5.03829-1.767746s3.65017-.313367 5.3919.396665c1.74173.710033 3.411 2.165158 4.20999 4.717141.79899 2.551984.72417 6.190516.58341 9.174458-.14077 2.983942-.34734 5.307847-1.12204 7.01292-.77469 1.705073-2.11721 2.789414-3.71931 3.719763-1.6021.930348-3.46033 1.704611-4.64879 2.066493-1.18847.361882-1.70473.310256-2.58434-.20715s-2.11733-1.497268-3.24102-2.466613-2.18256-1.975269-2.82795-2.259966-.90367.128559-1.52478.775614c-.6211.647056-1.48338 1.418569-2.38779 2.135136-.9044.716567-1.46556 1.072167-2.35108 1.492753-.88551.420585-1.86359.798241-3.09377.529656-1.23018-.268586-1.97826-.940487-2.83006-1.743146-.85181-.80266-1.34996-1.315846-1.84035-2.077751-.49039-.761904-1.12484-2.040024-1.57148-2.968565-.44663-.928541-.80673-1.719643-.97549-2.839966s-.16876-2.618363-.0912-4.762255c.0775-2.143892.23249-4.933384.7375-6.938768.50502-2.005384 1.3593-3.226426 2.49934-4.167575 1.14005-.94115 2.60754-1.622484 4.31126-1.751449 1.70371-.128965 3.66833.28464 4.99999.69149 1.33165.406849 2.07739.832983 2.6465 1.678791s.98498 2.126048 1.60531 2.048273c.62034-.07777 1.44547-1.514201 2.786-2.488203z" stroke="#000" stroke-width=".975314"/><path d="m-159.81566 33.758269c-.29976-1.272928-1.08626-2.359052-2.13445-3.107883s-2.35926-1.160882-3.50162-1.385686c-1.14237-.224804-2.11568-.262239-3.27726-.03752-1.16158.224721-2.50854.711123-3.50155 1.460264-.99302.749141-1.62915 1.759457-2.04155 3.165009-.4124 1.405551-.59944 3.201204-.74931 4.980759-.14987 1.779554-.26216 3.53876-.29965 4.981075-.0375 1.442314-.00006 2.565217.35595 3.802017.356 1.2368 1.02957 2.58394 1.89124 3.774751.86168 1.190812 1.91004 2.223114 3.08088 2.803672 1.17083.580557 2.46295.70898 3.75521.360796 1.29225-.348185 2.58437-1.172145 3.6232-1.995842 1.03884-.823697 1.82611-1.648461 2.20016-3.089089.37406-1.440628.33656-3.503082.35529-5.525083.0187-2.022.0937-4.007938.22477-5.730417.13109-1.72248.31845-3.183897.0187-4.456825z" fill="url(#g)" stroke="#000"/><path d="m-142.47516 36.922793c-.11233-1.179813-.22469-2.82773-.65507-3.931902-.43038-1.104173-1.17986-1.666281-2.09729-2.078261-.91742-.411981-2.00332-.674094-3.16458-.749098-1.16126-.075-2.39639.03728-3.53909.355608-1.14271.318327-2.19046.842202-3.07117 1.554069-.88071.711866-1.5915 1.6097-2.19116 2.527816-.59967.918116-1.08596 1.853286-1.44215 3.221503s-.58061 3.163649-.69304 4.905772-.11243 3.426456.0936 4.662942c.20602 1.236487.61775 2.022524 1.3297 2.921818.71194.899293 1.72268 1.910034 2.84647 2.715366 1.12379.805333 2.35973 1.404576 3.72688 1.498014 1.36716.09344 2.86577-.318681 4.21349-1.142496 1.34772-.823816 2.54716-2.06073 3.35186-3.614323.8047-1.553592 1.21702-3.427766 1.42288-5.187448s.20586-3.408625.14965-4.588079c-.0562-1.179454-.16864-1.891488-.28096-3.071301z" fill="url(#h)" stroke="#000"/></g><path d="m-160.72573 37.500128c-.66949-.992297-1.91644-1.869781-3.23218-2.077893-1.31574-.208113-2.70097.25363-3.74089 1.293124-1.03992 1.039493-1.73193 2.654186-1.8476 4.479656-.11567 1.825471.34574 3.855669 1.45512 5.03396 1.10938 1.17829 2.86357 1.50143 4.18115 1.552837 1.31758.05141 2.28521-.190499 2.88483-.859832s.87715-1.779476 1.01552-2.863981.13837-2.240481.0922-3.348209c-.0462-1.107729-.13865-2.217365-.80814-3.209662z" fill="url(#i)" stroke="#000" stroke-width="1.84967"/><path d="m-143.2541 37.329099c-.30231-.518048-.7343-.993236-1.40334-1.317102-.66905-.323865-1.57634-.496683-2.52697-.432029-.95063.06465-1.94321.366743-2.87281 1.144737-.92961.777994-1.79238 2.029022-2.16001 3.390697-.36762 1.361674-.23816 2.828882.23732 4.060861.47547 1.231978 1.29566 2.224843 2.67863 2.743302 1.38297.518458 3.32692.561657 4.53601.02146 1.20909-.540198 1.68469-1.664354 1.92199-3.088724.2373-1.424369.2373-3.154461.15085-4.298828-.0865-1.144368-.25937-1.706326-.56167-2.224374z" fill="url(#j)" stroke="#000" stroke-width="1.73013"/></g><g transform="matrix(.03770525559 0 0 .03770525559 3.12375285279 2.64808230043)"><path d="m60.439673 10.296173c-5.068232.02355-9.908279.455797-14.167023 1.20938-12.545725 2.216418-14.823542 6.85557-14.823543 15.410957v11.299064h29.647086v3.766355h-29.647086-11.126296c-8.616269 0-16.1609208 5.178875-18.5207913 15.030866-2.72208082 11.292669-2.8428199 18.339478 0 30.130839 2.1074208 8.777032 7.1402272 15.030866 15.7564943 15.030866h10.193345v-13.545057c0-9.785503 8.466649-18.417127 18.520791-18.417129h29.612533c8.24308 0 14.823547-6.787084 14.823543-15.06542v-28.230384c0-8.034529-6.778034-14.070027-14.823543-15.410957-5.092927-.847783-10.377279-1.23293-15.44551-1.20938zm-16.032924 9.087627c3.062341 0 5.563148 2.541657 5.563148 5.666809-.000002 3.114076-2.500807 5.632256-5.563148 5.632256-3.073319-.000001-5.563148-2.518181-5.563148-5.632256-.000001-3.125151 2.489829-5.666809 5.563148-5.666809z" fill="url(#k)" stroke="#fff" stroke-width="4.36761"/><path d="m94.405974 41.981929v13.164965c0 10.20662-8.65324 18.79722-18.520791 18.797221h-29.612533c-8.111369 0-14.823542 6.942237-14.823543 15.065419v28.230376c0 8.03453 6.986581 12.76035 14.823543 15.06542 9.384602 2.75945 18.383944 3.25815 29.612533 0 7.463774-2.161 14.823547-6.51004 14.823543-15.06542v-11.29906h-29.612533v-3.76635h29.612533 14.823544c8.61627 0 11.82705-6.010034 14.82354-15.030866 3.09527-9.286807 2.96357-18.217576 0-30.130839-2.12937-8.577549-6.19631-15.030866-14.82354-15.030866zm-16.65489 71.491631c3.073321.00001 5.563148 2.51818 5.563148 5.63225-.000003 3.12515-2.489831 5.66681-5.563148 5.66681-3.062344 0-5.563148-2.54166-5.563148-5.66681.000002-3.11407 2.500801-5.63225 5.563148-5.63225z" fill="url(#l)" stroke="#fff" stroke-width="4.36761"/><path d="m110.46717 132.28575a48.948285 8.6066821 0 1 1 -97.896571 0 48.948285 8.6066821 0 1 1 97.896571 0z" fill="url(#m)" opacity=".44382" transform="matrix(.73406 0 0 .809524 16.24958 27.00935)"/></g></svg>