<svg height="32" viewBox="0 0 8.4666665 8.4666669" width="32" xmlns="http://www.w3.org/2000/svg" xmlns:xlink="http://www.w3.org/1999/xlink"><linearGradient id="a" gradientUnits="userSpaceOnUse" x1="-25.43590989498" x2="-28.33942488576" y1="8.5403753349" y2="5.75866075246"><stop offset="0" stop-color="#0ff"/><stop offset="1" stop-color="#3caad6"/></linearGradient><linearGradient id="b" gradientUnits="userSpaceOnUse" x1="-12.38729251327" x2="-15.84778917016" y1=".9014811868" y2="-2.41385007325"><stop offset="0" stop-color="#ff0"/><stop offset="1" stop-color="#d49c00"/></linearGradient><linearGradient id="c" gradientUnits="userSpaceOnUse" x1="-33.84261068075" x2="-36.82979603257" y1="-.94820304773" y2="-3.8100780785"><stop offset="0" stop-color="#ff9139"/><stop offset="1" stop-color="#f60"/></linearGradient><g stroke-linecap="round" stroke-linejoin="round" transform="matrix(.26458333 0 0 .26458333 -.183347 -.150939)"><path d="m15.120496 11.471279a.66633034.73551805 0 0 0 -.656703.745722v11.944098a.66633034.73551805 0 0 0 .666516.735727h7.259248a.66633034.73551805 0 1 0 0-1.470621h-6.592729v-11.209204a.66633034.73551805 0 0 0 -.676332-.745722z" stroke="#fff" stroke-width=".3"/><path d="m10.609375 11.517578a.70006999.70006999 0 1 0 0 1.398438h9.041016a.70006999.70006999 0 1 0 0-1.398438z" stroke="#fff" stroke-width=".3"/><path d="m-29.417732 3.488159h6.323956v9.937475h-6.323956z" fill="url(#a)" stroke="#008080" stroke-width=".770405" transform="matrix(-.70710678 -.70710678 .70710678 -.70710678 0 0)"/><path d="m-17.132954-5.119907h7.537082v11.843781h-7.537082z" fill="url(#b)" stroke="#ffc300" stroke-width=".918192" transform="matrix(-.70710678 -.70710678 .70710678 -.70710678 0 0)"/><path d="m-37.939178-6.146009h6.506193v10.223843h-6.506193z" fill="url(#c)" stroke="#d45500" stroke-width=".792606" transform="matrix(-.70710678 -.70710678 .70710678 -.70710678 0 0)"/></g></svg>