<?xml version="1.0" encoding="UTF-8" standalone="no"?>
<svg
   xmlns:dc="http://purl.org/dc/elements/1.1/"
   xmlns:cc="http://creativecommons.org/ns#"
   xmlns:rdf="http://www.w3.org/1999/02/22-rdf-syntax-ns#"
   xmlns:svg="http://www.w3.org/2000/svg"
   xmlns="http://www.w3.org/2000/svg"
   xmlns:xlink="http://www.w3.org/1999/xlink"
   xmlns:sodipodi="http://sodipodi.sourceforge.net/DTD/sodipodi-0.dtd"
   xmlns:inkscape="http://www.inkscape.org/namespaces/inkscape"
   sodipodi:docname="tool92.svg"
   inkscape:version="1.0 (1.0+r73+1)"
   id="svg8"
   version="1.1"
   viewBox="0 0 8.4666665 8.4666669"
   height="32"
   width="32">
  <defs
     id="defs2">
    <inkscape:path-effect
       only_selected="false"
       apply_with_weight="true"
       apply_no_weight="true"
       helper_size="0"
       steps="2"
       weight="33.333333"
       is_visible="true"
       id="path-effect8657"
       effect="bspline"
       lpeversion="0" />
    <inkscape:path-effect
       only_selected="false"
       apply_with_weight="true"
       apply_no_weight="true"
       helper_size="0"
       steps="2"
       weight="33.333333"
       is_visible="true"
       id="path-effect5573"
       effect="bspline"
       lpeversion="0" />
    <inkscape:path-effect
       effect="bspline"
       id="path-effect5569"
       is_visible="true"
       weight="33.333333"
       steps="2"
       helper_size="0"
       apply_no_weight="true"
       apply_with_weight="true"
       only_selected="false"
       lpeversion="0" />
    <inkscape:path-effect
       effect="bspline"
       id="path-effect8548"
       is_visible="true"
       weight="33.333333"
       steps="2"
       helper_size="0"
       apply_no_weight="true"
       apply_with_weight="true"
       only_selected="false"
       lpeversion="0" />
    <inkscape:path-effect
       only_selected="false"
       apply_with_weight="true"
       apply_no_weight="true"
       helper_size="0"
       steps="2"
       weight="33.333333"
       is_visible="true"
       id="path-effect8543"
       effect="bspline"
       lpeversion="0" />
    <inkscape:path-effect
       only_selected="false"
       apply_with_weight="true"
       apply_no_weight="true"
       helper_size="0"
       steps="2"
       weight="33.333333"
       is_visible="true"
       id="path-effect5525"
       effect="bspline"
       lpeversion="0" />
    <linearGradient
       inkscape:collect="always"
       id="linearGradient8532">
      <stop
         style="stop-color:#2929ff;stop-opacity:1"
         offset="0"
         id="stop8526" />
      <stop
         id="stop8528"
         offset="0.2402378"
         style="stop-color:#6464e9;stop-opacity:1" />
      <stop
         style="stop-color:#1515f0;stop-opacity:1"
         offset="0.88697171"
         id="stop8534" />
      <stop
         style="stop-color:#0000d1;stop-opacity:1"
         offset="1"
         id="stop8530" />
    </linearGradient>
    <linearGradient
       gradientTransform="matrix(1.1019365,0,0,1.1019365,-27.739221,-18.502129)"
       gradientUnits="userSpaceOnUse"
       y2="176.5014"
       x2="285.33841"
       y1="176.5014"
       x1="258.6178"
       id="linearGradient6517"
       xlink:href="#linearGradient8532"
       inkscape:collect="always" />
    <inkscape:path-effect
       only_selected="false"
       apply_with_weight="true"
       apply_no_weight="true"
       helper_size="0"
       steps="2"
       weight="33.333333"
       is_visible="true"
       id="path-effect6612"
       effect="bspline"
       lpeversion="0" />
    <inkscape:path-effect
       bendpath4="M 5.5913706,3.2616329 V 141.06515"
       bendpath3="M 5.5913706,141.06515 H 480.39194"
       bendpath2="M 480.39194,3.2616329 V 141.06515"
       bendpath1="M 5.5913706,3.2616329 H 480.39194"
       xx="true"
       yy="true"
       is_visible="true"
       id="path-effect6709"
       effect="envelope"
       lpeversion="0" />
    <inkscape:path-effect
       lpeversion="0"
       effect="bspline"
       id="path-effect7258"
       is_visible="true"
       weight="33.333333"
       steps="2"
       helper_size="0"
       apply_no_weight="true"
       apply_with_weight="true"
       only_selected="false" />
    <inkscape:path-effect
       lpeversion="0"
       effect="bspline"
       id="path-effect7262"
       is_visible="true"
       weight="33.333333"
       steps="2"
       helper_size="0"
       apply_no_weight="true"
       apply_with_weight="true"
       only_selected="false" />
    <inkscape:path-effect
       lpeversion="0"
       effect="bspline"
       id="path-effect7266"
       is_visible="true"
       weight="33.333333"
       steps="2"
       helper_size="0"
       apply_no_weight="true"
       apply_with_weight="true"
       only_selected="false" />
    <linearGradient
       id="linearGradient6303">
      <stop
         style="stop-color:#ffd43b;stop-opacity:1"
         offset="0"
         id="stop6299" />
      <stop
         id="stop6305"
         offset="0.65879381"
         style="stop-color:#ffdd3e;stop-opacity:1" />
      <stop
         style="stop-color:#ffed92;stop-opacity:1"
         offset="1"
         id="stop6301" />
    </linearGradient>
    <linearGradient
       inkscape:collect="always"
       xlink:href="#linearGradient6375"
       id="linearGradient6377"
       x1="-310.47961"
       y1="164.36816"
       x2="-308.83096"
       y2="156.86816"
       gradientUnits="userSpaceOnUse" />
    <linearGradient
       inkscape:collect="always"
       id="linearGradient6375">
      <stop
         style="stop-color:#ad0000;stop-opacity:1"
         offset="0"
         id="stop6370" />
      <stop
         id="stop6385"
         offset="0.71714395"
         style="stop-color:#ff2a2a;stop-opacity:1" />
      <stop
         style="stop-color:#ff8282;stop-opacity:1"
         offset="1"
         id="stop6373" />
    </linearGradient>
  </defs>
  <sodipodi:namedview
     inkscape:window-maximized="0"
     inkscape:window-y="0"
     inkscape:window-x="0"
     inkscape:window-height="704"
     inkscape:window-width="861"
     units="px"
     showgrid="false"
     inkscape:document-rotation="0"
     inkscape:current-layer="layer1"
     inkscape:document-units="px"
     inkscape:cy="17.957618"
     inkscape:cx="23.218763"
     inkscape:zoom="5.6568543"
     inkscape:pageshadow="2"
     inkscape:pageopacity="0.0"
     borderopacity="1.0"
     bordercolor="#666666"
     pagecolor="#ffffff"
     id="base" />
  <metadata
     id="metadata5">
    <rdf:RDF>
      <cc:Work
         rdf:about="">
        <dc:format>image/svg+xml</dc:format>
        <dc:type
           rdf:resource="http://purl.org/dc/dcmitype/StillImage" />
        <dc:title></dc:title>
      </cc:Work>
    </rdf:RDF>
  </metadata>
  <g
     id="layer1"
     inkscape:groupmode="layer"
     inkscape:label="Layer 1">
    <g
       id="g6401"
       transform="matrix(0.4950664,0,0,0.50481304,155.25234,-75.916441)">
      <polygon
         style="fill:#000000;stroke:#000000;stroke-linecap:round;stroke-linejoin:round"
         points="-487.743,887.17 -487.743,875.079 -482.627,869.963 -480.069,872.521 -480.069,890.891 -465.42,890.891 -465.42,888.565 -471.768,887.059 -471.768,867.847 -479.302,860.313 -493.323,874.334 -493.323,890.891 -483.557,890.891 -483.557,887.17 "
         id="polygon6392"
         transform="matrix(0.19748859,0,0,0.19748859,-204.94959,-9.1425517)" />
      <path
         inkscape:connector-curvature="0"
         style="fill:#000000;fill-opacity:1;stroke:#000000;stroke-width:0.197489;stroke-linecap:round;stroke-linejoin:round"
         d="m -309.03595,156.21293 -4.19531,9.70312 3.45898,0.28321 -0.0566,-0.73828 h -0.96484 l 0.45313,-1.81446 h 1.30468 1.30274 l 0.45312,1.81446 h -0.96289 l -0.0566,0.73828 3.45703,-0.28321 z m 0.11914,4.07617 a 0.8154304,0.8154304 0 0 1 0.81641,0.81445 0.8154304,0.8154304 0 0 1 -0.81641,0.81641 0.8154304,0.8154304 0 0 1 -0.81445,-0.81641 0.8154304,0.8154304 0 0 1 0.81445,-0.81445 z"
         id="path6387" />
      <path
         id="polygon6260"
         d="m -308.93555,155.8125 -4.19531,9.70312 3.45898,0.28321 -0.0566,-0.73828 h -0.96484 l 0.45313,-1.81446 h 1.30468 1.30274 l 0.45312,1.81446 h -0.96289 l -0.0566,0.73828 3.45703,-0.28321 z m 0.11914,4.07617 a 0.8154304,0.8154304 0 0 1 0.81641,0.81445 0.8154304,0.8154304 0 0 1 -0.81641,0.81641 0.8154304,0.8154304 0 0 1 -0.81445,-0.81641 0.8154304,0.8154304 0 0 1 0.81445,-0.81445 z"
         style="fill:url(#linearGradient6377);fill-opacity:1;stroke:#000000;stroke-width:0.197489;stroke-linecap:round;stroke-linejoin:round"
         inkscape:connector-curvature="0" />
      <path
         inkscape:connector-curvature="0"
         style="fill:#1a1a1a;stroke:#333333;stroke-width:0.197489;stroke-linecap:round;stroke-linejoin:round"
         d="m -298.09346,151.0444 -7.3418,7.34375 v 1.04883 h 2.12696 v -1.30469 l 0.90625,-0.9082 h 2.49414 v 1.47461 l -0.84961,0.85156 h 3.74219 v -0.85156 h -1.07813 z m -2.1875,3.75977 a 0.61004227,0.61004227 0 0 1 0.043,0 0.61004227,0.61004227 0 0 1 0.61133,0.60937 0.61004227,0.61004227 0 0 1 -0.61133,0.60938 0.61004227,0.61004227 0 0 1 -0.60938,-0.60938 0.61004227,0.61004227 0 0 1 0.56641,-0.60937 z"
         id="path6390" />
      <path
         id="polygon6254"
         d="m -298.29297,150.74414 -7.3418,7.34375 v 1.04883 h 2.12696 v -1.30469 l 0.90625,-0.9082 h 2.49414 v 1.47461 l -0.84961,0.85156 h 3.74219 v -0.85156 h -1.07813 z m -2.1875,3.75977 a 0.61004227,0.61004227 0 0 1 0.043,0 0.61004227,0.61004227 0 0 1 0.61133,0.60937 0.61004227,0.61004227 0 0 1 -0.61133,0.60938 0.61004227,0.61004227 0 0 1 -0.60938,-0.60938 0.61004227,0.61004227 0 0 1 0.56641,-0.60937 z"
         style="fill:#000080;stroke:#f2f2f2;stroke-width:0.197489;stroke-linecap:round;stroke-linejoin:round"
         inkscape:connector-curvature="0" />
      <line
         id="line6262"
         y2="166.69872"
         x2="-300.64624"
         y1="166.69872"
         x1="-302.57492"
         style="fill:none;stroke:#000000;stroke-width:0.197489;stroke-linecap:round;stroke-linejoin:round" />
      <polygon
         transform="matrix(0.19748859,0,0,0.19748859,-205.14926,-9.242098)"
         id="polygon6264"
         points="-471.768,887.059 -471.768,867.847 -479.302,860.313 -493.323,874.334 -493.323,890.891 -483.557,890.891 -483.557,887.17 -487.743,887.17 -487.743,875.079 -482.627,869.963 -480.069,872.521 -480.069,890.891 -465.42,890.891 -465.42,888.565 "
         style="fill:#333333;stroke:#ffffff;stroke-linecap:round;stroke-linejoin:round" />
    </g>
  </g>
</svg>
