<?xml version="1.0" encoding="UTF-8" standalone="no"?>
<svg
   xmlns:dc="http://purl.org/dc/elements/1.1/"
   xmlns:cc="http://creativecommons.org/ns#"
   xmlns:rdf="http://www.w3.org/1999/02/22-rdf-syntax-ns#"
   xmlns:svg="http://www.w3.org/2000/svg"
   xmlns="http://www.w3.org/2000/svg"
   xmlns:xlink="http://www.w3.org/1999/xlink"
   xmlns:sodipodi="http://sodipodi.sourceforge.net/DTD/sodipodi-0.dtd"
   xmlns:inkscape="http://www.inkscape.org/namespaces/inkscape"
   width="32"
   height="32"
   viewBox="0 0 8.4666665 8.4666669"
   version="1.1"
   id="svg8"
   inkscape:version="1.0 (1.0+r73+1)"
   sodipodi:docname="tool35.svg">
  <defs
     id="defs2">
    <inkscape:path-effect
       lpeversion="0"
       effect="bspline"
       id="path-effect8657"
       is_visible="true"
       weight="33.333333"
       steps="2"
       helper_size="0"
       apply_no_weight="true"
       apply_with_weight="true"
       only_selected="false" />
    <inkscape:path-effect
       lpeversion="0"
       effect="bspline"
       id="path-effect5573"
       is_visible="true"
       weight="33.333333"
       steps="2"
       helper_size="0"
       apply_no_weight="true"
       apply_with_weight="true"
       only_selected="false" />
    <inkscape:path-effect
       lpeversion="0"
       only_selected="false"
       apply_with_weight="true"
       apply_no_weight="true"
       helper_size="0"
       steps="2"
       weight="33.333333"
       is_visible="true"
       id="path-effect5569"
       effect="bspline" />
    <inkscape:path-effect
       lpeversion="0"
       only_selected="false"
       apply_with_weight="true"
       apply_no_weight="true"
       helper_size="0"
       steps="2"
       weight="33.333333"
       is_visible="true"
       id="path-effect8548"
       effect="bspline" />
    <inkscape:path-effect
       lpeversion="0"
       effect="bspline"
       id="path-effect8543"
       is_visible="true"
       weight="33.333333"
       steps="2"
       helper_size="0"
       apply_no_weight="true"
       apply_with_weight="true"
       only_selected="false" />
    <linearGradient
       inkscape:collect="always"
       xlink:href="#linearGradient5241"
       id="linearGradient5544"
       x1="14.030027"
       y1="27.43964"
       x2="17.379717"
       y2="2.93964"
       gradientUnits="userSpaceOnUse"
       gradientTransform="translate(380.2883,-86.049268)" />
    <linearGradient
       inkscape:collect="always"
       id="linearGradient5241">
      <stop
         style="stop-color:#81b1dc;stop-opacity:1"
         offset="0"
         id="stop5237" />
      <stop
         style="stop-color:#fafcff;stop-opacity:1"
         offset="1"
         id="stop5239" />
    </linearGradient>
    <inkscape:path-effect
       lpeversion="0"
       effect="bspline"
       id="path-effect5525"
       is_visible="true"
       weight="33.333333"
       steps="2"
       helper_size="0"
       apply_no_weight="true"
       apply_with_weight="true"
       only_selected="false" />
    <linearGradient
       inkscape:collect="always"
       xlink:href="#linearGradient5570"
       id="linearGradient5560"
       x1="186.52"
       y1="455.366"
       x2="185.75835"
       y2="411.13419"
       gradientUnits="userSpaceOnUse" />
    <linearGradient
       inkscape:collect="always"
       id="linearGradient5570">
      <stop
         style="stop-color:#007500;stop-opacity:1;"
         offset="0"
         id="stop5562" />
      <stop
         id="stop5564"
         offset="0.34293374"
         style="stop-color:#00d200;stop-opacity:1" />
      <stop
         style="stop-color:#00d200;stop-opacity:1"
         offset="0.89766061"
         id="stop5566" />
      <stop
         style="stop-color:#007500;stop-opacity:1"
         offset="1"
         id="stop5568" />
    </linearGradient>
  </defs>
  <sodipodi:namedview
     id="base"
     pagecolor="#ffffff"
     bordercolor="#666666"
     borderopacity="1.0"
     inkscape:pageopacity="0.0"
     inkscape:pageshadow="2"
     inkscape:zoom="8"
     inkscape:cx="17.563086"
     inkscape:cy="13.562456"
     inkscape:document-units="px"
     inkscape:current-layer="layer1"
     inkscape:document-rotation="0"
     showgrid="false"
     units="px"
     inkscape:window-width="925"
     inkscape:window-height="704"
     inkscape:window-x="0"
     inkscape:window-y="0"
     inkscape:window-maximized="0" />
  <metadata
     id="metadata5">
    <rdf:RDF>
      <cc:Work
         rdf:about="">
        <dc:format>image/svg+xml</dc:format>
        <dc:type
           rdf:resource="http://purl.org/dc/dcmitype/StillImage" />
        <dc:title></dc:title>
      </cc:Work>
    </rdf:RDF>
  </metadata>
  <g
     inkscape:label="Layer 1"
     inkscape:groupmode="layer"
     id="layer1">
    <g
       transform="matrix(0.26458333,0,0,0.26458333,-67.719762,-16.933528)"
       id="g5171">
      <g
         transform="matrix(0.99989187,0,0,0.99999865,-124.29659,149.9498)"
         id="g7807">
        <path
           style="fill:url(#linearGradient5544);fill-opacity:1;stroke:none;stroke-width:1px;stroke-linecap:butt;stroke-linejoin:miter;stroke-opacity:1"
           d="m 388.6008,-85.861768 c 0,0 15.5,3 15.5,3 -0.75,0.458333 -1.49883,0.91595 -1.99944,1.593499 -0.50062,0.677548 -0.75023,1.571981 -0.86497,2.875296 -0.11474,1.303314 -0.0939,3.009385 0.0311,4.791233 0.12502,1.781848 0.35406,3.634941 0.61451,5.249899 0.26046,1.614959 0.55199,2.989318 0.94795,4.468985 0.39595,1.479667 0.89567,3.062133 1.23948,3.999874 0.3438,0.937741 0.53123,1.229294 0.58344,1.656186 0.0522,0.426891 -0.031,0.988905 -0.23947,1.572808 -0.20842,0.583904 -0.54109,1.186865 -1.1146,1.520813 -0.57351,0.333948 -1.38441,0.396325 -2.47921,0.292097 -1.09481,-0.104228 -2.468,-0.374704 -5.1462,-0.895755 -2.67819,-0.52105 -6.65512,-1.291451 -8.91584,-1.843556 -2.26072,-0.552105 -2.80228,-0.885373 -3.10458,-1.292258 -0.30229,-0.406885 -0.36476,-0.885809 -0.32299,-1.364717 0.0418,-0.478909 0.18787,-0.958932 0.55215,-1.312453 0.36428,-0.353521 0.94907,-0.583259 1.52124,-0.666371 0.57217,-0.08311 1.13583,-0.02048 1.46887,-0.125089 0.33305,-0.104607 0.43738,-0.375863 0.31285,-1.351048 -0.12452,-0.975185 -0.48026,-2.670199 -0.81351,-4.565599 -0.33324,-1.8954 -0.64588,-4.00051 -0.7604,-5.885704 -0.11451,-1.885194 -0.0311,-3.552521 0.18762,-5.093806 0.21876,-1.541286 0.57315,-2.958843 0.89398,-3.944101 0.32083,-0.985258 0.61699,-1.556428 0.95541,-1.941349 0.33842,-0.38492 0.72465,-0.593694 1.10888,-0.801384"
           id="path5523"
           inkscape:connector-curvature="0"
           inkscape:path-effect="#path-effect5525"
           inkscape:original-d="m 388.6008,-85.861768 15.5,3 c 0,0 -1.499,0.915667 -2.25,1.375 -0.24939,0.896234 -0.499,1.790667 -0.75,2.6875 0.0219,1.709596 0.0427,3.415667 0.0625,5.125 0.2303,1.854239 0.45933,3.707333 0.6875,5.5625 0.2928,1.37464 0.58433,2.749 0.875,4.125 0.50127,1.583202 1.001,3.165667 1.5,4.75 0.18857,0.290781 0.376,0.582333 0.5625,0.875 -0.0824,0.561987 -0.16567,1.124 -0.25,1.6875 -0.333,0.604373 -0.66567,1.207333 -1,1.8125 -0.8131,0.06162 -1.624,0.124 -2.4375,0.1875 -1.37581,-0.27219 -2.749,-0.542667 -4.125,-0.8125 -3.9804,-0.772267 -7.95733,-1.542667 -11.9375,-2.3125 -0.54077,-0.334398 -1.08233,-0.667667 -1.625,-1 -0.0615,-0.480413 -0.124,-0.959333 -0.1875,-1.4375 0.14657,-0.479312 0.29267,-0.959333 0.4375,-1.4375 0.58288,-0.229596 1.16767,-0.459333 1.75,-0.6875 0.56234,0.06137 1.126,0.124 1.6875,0.1875 0.105,-0.271411 0.20933,-0.542667 0.3125,-0.8125 -0.35159,-1.680985 -0.70733,-3.376 -1.0625,-5.0625 -0.31136,-2.104223 -0.624,-4.209333 -0.9375,-6.3125 0.0843,-1.667007 0.16767,-3.334333 0.25,-5 0.35494,-1.416776 0.70933,-2.834333 1.0625,-4.25 0.29242,-0.552625 0.58433,-1.126 0.875,-1.6875 0.3856,-0.20889 0.77183,-0.417667 1.15625,-0.625" />
        <path
           style="fill:#000000;stroke:#ffffff;stroke-width:0.199379;stroke-miterlimit:4;stroke-dasharray:none;stroke-opacity:1"
           d="m 406.48397,-82.752988 c -0.0192,0.0011 -0.11098,-0.01312 -0.20393,-0.03157 -0.28191,-0.05593 -0.65247,-0.09689 -0.94829,-0.104814 -0.1626,-0.0044 -0.11384,0.0047 -1.4392,-0.266817 -7.00266,-1.434464 -12.35658,-2.420127 -14.34993,-2.64183 -0.72495,-0.08064 -1.02382,-0.06906 -1.28324,0.04968 -0.0671,0.03072 -0.21895,0.09125 -0.33733,0.134501 -0.65441,0.239016 -1.08444,0.613373 -1.48105,1.289349 -0.45581,0.77682 -0.86876,2.049146 -1.20785,3.721387 -0.19392,0.956285 -0.27284,1.861925 -0.27423,3.146714 -0.004,3.357756 0.64262,8.724783 1.76356,14.646513 0.0243,0.128247 0.0416,0.234519 0.0386,0.236156 -0.003,0.0015 -0.16691,-0.02562 -0.36414,-0.06057 -0.42767,-0.07574 -0.44562,-0.07821 -0.65359,-0.08924 -0.82678,-0.04385 -1.61588,0.122828 -2.16277,0.456856 -0.3472,0.212043 -0.63356,0.502136 -0.8261,0.836852 -0.16092,0.27975 -0.28909,0.724406 -0.29995,1.041319 -0.0396,1.136797 0.84224,2.159734 2.47992,2.876786 0.32834,0.143761 0.31519,0.140447 1.70416,0.42885 0.76539,0.158915 3.65217,0.752004 4.67104,0.959654 0.39268,0.08004 0.98264,0.200341 1.31104,0.267357 0.32839,0.06701 0.91838,0.187249 1.31107,0.267177 1.00751,0.205061 2.09345,0.426125 2.60285,0.529875 0.23919,0.04873 1.07647,0.218873 1.86064,0.378126 0.78417,0.159253 1.45426,0.296619 1.48908,0.305248 l 0.0633,0.01568 0.0138,-0.04766 c 0.0115,-0.03972 0.0183,-0.04653 0.0394,-0.04132 0.0218,0.0054 0.0233,0.01432 0.0101,0.05996 l -0.0156,0.05361 0.18924,0.0467 c 1.17514,0.29006 2.12007,0.316377 2.88777,0.08037 0.51033,-0.156886 0.90433,-0.400625 1.24919,-0.772799 0.22562,-0.243479 0.40595,-0.524768 0.55461,-0.865076 0.068,-0.15569 0.22075,-0.684022 0.25148,-0.869941 0.0607,-0.366813 0.0882,-0.700532 0.0828,-1.003238 -0.01,-0.559191 -0.14371,-1.145776 -0.36987,-1.621657 -0.0396,-0.08337 -0.14951,-0.280133 -0.24418,-0.437228 -0.22398,-0.371697 -0.32825,-0.596004 -0.51344,-1.104511 -0.61493,-1.688475 -1.28029,-4.643613 -1.66018,-7.373566 -0.23519,-1.690142 -0.45095,-4.46012 -0.49883,-6.404462 -0.0135,-0.549471 -0.0179,-1.421596 -0.007,-1.426884 0.0111,-0.0055 1.57397,0.347375 3.14491,0.709908 0.47786,0.110265 0.77652,0.173723 0.90005,0.191205 1.05241,0.148813 1.88441,0.04592 2.55986,-0.316603 0.54867,-0.294472 0.93723,-0.714519 1.22559,-1.324974 0.0636,-0.134723 0.0915,-0.214729 0.17615,-0.505491 0.10692,-0.367374 0.13511,-0.511187 0.17406,-0.886806 0.2079,-2.006226 -0.84625,-3.578793 -2.90714,-4.336849 -0.18807,-0.06917 -0.65528,-0.198796 -0.70622,-0.195919 z m 0.51259,1.38606 c 0.65573,0.291416 1.13521,0.672979 1.4456,1.150345 0.33295,0.512085 0.4647,1.076287 0.41477,1.776112 -0.052,0.729118 -0.25784,1.305093 -0.58987,1.650819 -0.31217,0.325055 -0.77195,0.494743 -1.36844,0.505038 -0.31924,0.0055 -0.73116,-0.03804 -0.92039,-0.09732 -0.28139,-0.0881 -0.62102,-0.22683 -0.89079,-0.363766 -0.35922,-0.182332 -0.63201,-0.419412 -0.8266,-0.718384 -0.21169,-0.325226 -0.25551,-0.623286 -0.14693,-0.999436 0.0349,-0.120926 0.052,-0.164509 0.0649,-0.165233 0.01,-4.13e-4 0.22265,0.03814 0.47344,0.08591 1.1087,0.21126 2.67486,0.508692 2.71525,0.515662 l 0.0442,0.0076 0.18346,-0.305739 c 0.20321,-0.338722 0.26709,-0.483977 0.27952,-0.635726 0.0353,-0.43093 -0.2066,-1.031658 -0.57308,-1.423061 -0.22469,-0.239982 -0.39159,-0.345459 -0.88237,-0.557613 -0.21189,-0.09159 -0.56929,-0.188934 -0.76414,-0.208067 -0.16464,-0.01617 -0.42137,-0.0069 -0.56338,0.02048 -0.75702,0.145664 -1.40406,0.737242 -1.95058,1.783402 -0.126,0.241247 -0.17171,0.353579 -0.24056,0.591702 -0.11542,0.399184 -0.13083,0.752151 -0.0491,1.123794 0.0389,0.176766 0.12568,0.414666 0.19612,0.537496 0.0152,0.02652 0.024,0.05008 0.0196,0.05246 -0.01,0.0054 -1.11064,-0.237491 -1.116,-0.246068 -0.008,-0.01271 0.0505,-0.769796 0.082,-1.063181 0.0761,-0.709028 0.14923,-1.105035 0.30224,-1.636377 0.12251,-0.424902 0.16723,-0.545686 0.28268,-0.760042 0.13506,-0.250875 0.23915,-0.362334 0.44413,-0.475498 0.49471,-0.273151 1.03256,-0.43375 1.63625,-0.488592 0.10564,-0.0097 0.22546,-0.01746 0.26629,-0.0175 0.0408,-1.4e-5 0.13301,-1.48e-4 0.20486,-2.28e-4 0.1707,-2.59e-4 0.464,0.02241 0.67906,0.05248 0.12544,0.01755 0.28034,0.05215 0.57455,0.128385 0.36951,0.09557 0.41692,0.110669 0.57331,0.180188 z m -4.643,-0.820779 c -0.14328,0.08377 -0.23562,0.150143 -0.34612,0.248819 -0.84953,0.758693 -1.28624,2.565604 -1.34412,5.561244 -0.0362,1.873186 0.0763,4.129006 0.33645,6.749606 0.10228,1.030103 0.22615,1.944667 0.4062,2.999564 0.46857,2.745277 1.13109,5.340071 1.70179,6.665106 0.13823,0.320963 0.20744,0.455206 0.38198,0.740922 0.0859,0.140701 0.17779,0.301377 0.20409,0.357065 0.12137,0.256965 0.21816,0.6111 0.24639,0.901692 0.0492,0.506033 -0.0202,1.085414 -0.18748,1.564855 -0.30312,0.869064 -0.95986,1.244257 -2.06461,1.179506 -0.32608,-0.01911 -0.53267,-0.05636 -0.76616,-0.138215 -0.48847,-0.171207 -0.9019,-0.375855 -1.14044,-0.564536 -0.24593,-0.194517 -0.48212,-0.491608 -0.56108,-0.705795 -0.056,-0.151835 -0.0987,-0.411338 -0.0702,-0.426625 0.008,-0.0043 1.46375,0.268645 2.77872,0.52085 0.21979,0.04216 0.39724,0.0708 0.4089,0.06599 0.024,-0.0099 0.28249,-0.420758 0.36885,-0.586251 0.14728,-0.282264 0.22579,-0.536117 0.22747,-0.735412 0.002,-0.240321 -0.0702,-0.617934 -0.17163,-0.898155 -0.19495,-0.538318 -0.54152,-0.909527 -0.99197,-1.062479 -0.0517,-0.01738 -0.20604,-0.07178 -0.34312,-0.120556 -0.29224,-0.103979 -0.71258,-0.213851 -0.84853,-0.221788 -0.0574,-0.0034 -0.088,-0.0099 -0.091,-0.01919 -0.003,-0.0092 -2.10752,-0.388625 -6.1223,-1.103788 -3.36479,-0.599372 -6.15365,-1.095651 -6.19748,-1.102835 l -0.0797,-0.01305 -0.0592,-0.310888 c -0.87231,-4.582033 -1.46459,-8.75432 -1.70176,-11.987904 -0.16185,-2.206785 -0.14967,-3.995418 0.0354,-5.195249 0.0569,-0.369293 0.1895,-0.999864 0.33425,-1.590127 0.0974,-0.397002 0.3534,-1.251714 0.44696,-1.491969 0.28791,-0.739498 0.54633,-1.173825 0.84311,-1.417005 0.0996,-0.08158 0.23617,-0.15096 0.44129,-0.224108 0.0987,-0.03519 0.21823,-0.08055 0.26568,-0.100792 0.10388,-0.04431 0.11244,-0.04461 0.45132,-0.01559 0.50851,0.04355 1.14915,0.133872 2.4567,0.346329 0.53649,0.08716 1.63635,0.28082 2.75338,0.484785 1.10735,0.20219 3.12914,0.588834 4.75438,0.909208 0.211,0.04159 0.49197,0.09678 0.62437,0.122608 0.13239,0.02582 0.5448,0.107715 0.91647,0.181976 0.37165,0.07427 0.89214,0.178152 1.15662,0.230902 0.26447,0.05274 0.52059,0.104929 0.56911,0.116051 l 0.0882,0.02024 z m 3.48995,2.285524 c 0.38192,0.153855 0.47897,0.219212 0.60244,0.405739 0.0401,0.06057 0.0694,0.111669 0.065,0.113552 -0.0113,0.0049 -1.63418,-0.305163 -1.63912,-0.313118 -0.009,-0.01392 0.15533,-0.149599 0.24213,-0.200413 0.22263,-0.130328 0.41646,-0.131856 0.72951,-0.0058 z m -4.85676,21.125747 c 0.13023,0.04623 0.25697,0.08914 0.28163,0.09538 0.14591,0.03689 0.24483,0.16862 0.3301,0.439462 0.0414,0.131592 0.0874,0.39602 0.0758,0.436448 -0.006,0.02051 -0.0171,0.02536 -0.0509,0.02204 -0.0239,-0.0024 -0.46242,-0.08485 -0.97448,-0.183385 -0.51209,-0.09852 -0.9601,-0.183163 -0.99562,-0.188092 l -0.0646,-0.009 0.0218,-0.04525 c 0.0383,-0.07932 0.22896,-0.3388 0.33198,-0.451708 0.16969,-0.186005 0.30124,-0.270573 0.42874,-0.275612 0.0859,-0.0034 0.34683,0.06431 0.61551,0.159671 z m -2.16894,-0.438269 c -0.18697,0.228114 -0.50776,0.760023 -0.69179,1.147156 -0.0854,0.179642 -0.19767,0.565927 -0.22033,0.758308 -0.0528,0.447029 0.0237,0.87859 0.22716,1.282969 l 0.0529,0.105194 -0.043,-0.0046 c -0.0236,-0.0025 -1.04469,-0.209075 -2.26897,-0.459091 -1.22431,-0.250019 -2.81304,-0.574334 -3.5305,-0.720707 -3.08899,-0.630179 -5.87156,-1.203153 -6.42187,-1.322357 -0.24992,-0.05411 -0.27573,-0.062 -0.44844,-0.136646 -0.81708,-0.353128 -1.42598,-0.827738 -1.65411,-1.289323 -0.0626,-0.12672 -0.112,-0.338139 -0.11149,-0.477382 5.5e-4,-0.150745 0.082,-0.431935 0.16573,-0.571921 0.19604,-0.327865 0.53682,-0.525618 1.06236,-0.616492 0.28435,-0.04918 0.65705,-0.0619 0.87316,-0.02982 0.0855,0.01271 12.89831,2.289817 12.98087,2.306993 0.0367,0.0076 0.0411,0.01196 0.0283,0.02762 z"
           id="path5495"
           inkscape:connector-curvature="0" />
      </g>
      <polygon
         style="fill:url(#linearGradient5560);fill-opacity:1;stroke:#ffffff;stroke-linecap:round;stroke-linejoin:round"
         transform="matrix(0.32819786,0,0,0.32823291,213.93299,-60.289133)"
         id="polygon302"
         points="166.645,433.256 186.52,433.256 186.52,422.559 191.636,422.559 213.387,444.311 191.636,466.062 186.52,466.062 186.52,455.366 166.645,455.366 166.645,444.311 " />
    </g>
  </g>
</svg>
