<?xml version="1.0" encoding="UTF-8" standalone="no"?>
<svg
   xmlns:dc="http://purl.org/dc/elements/1.1/"
   xmlns:cc="http://creativecommons.org/ns#"
   xmlns:rdf="http://www.w3.org/1999/02/22-rdf-syntax-ns#"
   xmlns:svg="http://www.w3.org/2000/svg"
   xmlns="http://www.w3.org/2000/svg"
   xmlns:xlink="http://www.w3.org/1999/xlink"
   xmlns:sodipodi="http://sodipodi.sourceforge.net/DTD/sodipodi-0.dtd"
   xmlns:inkscape="http://www.inkscape.org/namespaces/inkscape"
   width="32"
   height="32"
   viewBox="0 0 8.4666665 8.4666669"
   version="1.1"
   id="svg8"
   inkscape:version="1.0 (1.0+r73+1)"
   sodipodi:docname="tool24.svg">
  <defs
     id="defs2">
    <inkscape:path-effect
       lpeversion="0"
       effect="bspline"
       id="path-effect8657"
       is_visible="true"
       weight="33.333333"
       steps="2"
       helper_size="0"
       apply_no_weight="true"
       apply_with_weight="true"
       only_selected="false" />
    <inkscape:path-effect
       lpeversion="0"
       effect="bspline"
       id="path-effect5573"
       is_visible="true"
       weight="33.333333"
       steps="2"
       helper_size="0"
       apply_no_weight="true"
       apply_with_weight="true"
       only_selected="false" />
    <inkscape:path-effect
       lpeversion="0"
       only_selected="false"
       apply_with_weight="true"
       apply_no_weight="true"
       helper_size="0"
       steps="2"
       weight="33.333333"
       is_visible="true"
       id="path-effect5569"
       effect="bspline" />
    <inkscape:path-effect
       lpeversion="0"
       only_selected="false"
       apply_with_weight="true"
       apply_no_weight="true"
       helper_size="0"
       steps="2"
       weight="33.333333"
       is_visible="true"
       id="path-effect8548"
       effect="bspline" />
    <inkscape:path-effect
       lpeversion="0"
       effect="bspline"
       id="path-effect8543"
       is_visible="true"
       weight="33.333333"
       steps="2"
       helper_size="0"
       apply_no_weight="true"
       apply_with_weight="true"
       only_selected="false" />
    <linearGradient
       inkscape:collect="always"
       xlink:href="#linearGradient5320"
       id="linearGradient5322"
       x1="16.026119"
       y1="17.24884"
       x2="5.8184695"
       y2="4.538538"
       gradientUnits="userSpaceOnUse"
       gradientTransform="matrix(0.99863808,0,0,0.99755771,319.85022,33.112222)" />
    <linearGradient
       inkscape:collect="always"
       id="linearGradient5320">
      <stop
         style="stop-color:#ff8700;stop-opacity:1"
         offset="0"
         id="stop5316" />
      <stop
         style="stop-color:#ffc100;stop-opacity:1"
         offset="1"
         id="stop5318" />
    </linearGradient>
    <linearGradient
       inkscape:collect="always"
       xlink:href="#linearGradient5312"
       id="linearGradient5314"
       x1="19.049059"
       y1="14.328974"
       x2="7.1840472"
       y2="6.4684038"
       gradientUnits="userSpaceOnUse"
       gradientTransform="matrix(0.99863808,0,0,0.99755771,319.85022,33.112222)" />
    <linearGradient
       inkscape:collect="always"
       id="linearGradient5312">
      <stop
         style="stop-color:#b3b3b3;stop-opacity:1"
         offset="0"
         id="stop5308" />
      <stop
         style="stop-color:#f9f9f9;stop-opacity:1"
         offset="1"
         id="stop5310" />
    </linearGradient>
    <linearGradient
       inkscape:collect="always"
       xlink:href="#linearGradient5328"
       id="linearGradient5330"
       x1="25.99613"
       y1="28.517263"
       x2="16.708216"
       y2="17.773054"
       gradientUnits="userSpaceOnUse"
       gradientTransform="matrix(0.99863808,0,0,0.99755771,319.85022,33.112222)" />
    <linearGradient
       inkscape:collect="always"
       id="linearGradient5328">
      <stop
         style="stop-color:#00b300;stop-opacity:1"
         offset="0"
         id="stop5324" />
      <stop
         style="stop-color:#68ff47;stop-opacity:1"
         offset="1"
         id="stop5326" />
    </linearGradient>
  </defs>
  <sodipodi:namedview
     id="base"
     pagecolor="#ffffff"
     bordercolor="#666666"
     borderopacity="1.0"
     inkscape:pageopacity="0.0"
     inkscape:pageshadow="2"
     inkscape:zoom="8"
     inkscape:cx="15.117792"
     inkscape:cy="13.562456"
     inkscape:document-units="px"
     inkscape:current-layer="layer1"
     inkscape:document-rotation="0"
     showgrid="false"
     units="px"
     inkscape:window-width="925"
     inkscape:window-height="704"
     inkscape:window-x="0"
     inkscape:window-y="0"
     inkscape:window-maximized="0" />
  <metadata
     id="metadata5">
    <rdf:RDF>
      <cc:Work
         rdf:about="">
        <dc:format>image/svg+xml</dc:format>
        <dc:type
           rdf:resource="http://purl.org/dc/dcmitype/StillImage" />
        <dc:title></dc:title>
      </cc:Work>
    </rdf:RDF>
  </metadata>
  <g
     inkscape:label="Layer 1"
     inkscape:groupmode="layer"
     id="layer1">
    <g
       id="g8527"
       transform="matrix(0.25360461,0,0,0.2536317,-80.97228,-8.0667095)">
      <path
         inkscape:connector-curvature="0"
         style="fill:#a58300;fill-opacity:1;stroke-width:0.0639294"
         d="m 330.43588,32.500222 c -0.0411,0 -0.39455,0.07 -0.78409,0.152 -0.8123,0.168 -1.92459,0.499 -2.09675,0.625 -0.11315,0.08 -0.11206,0.117 0.0215,1.01 0.076,0.507 0.16457,1.063 0.19699,1.235 0.0964,0.51 0.097,0.509 -0.47786,0.861 -0.29531,0.181 -0.7401,0.514 -0.98694,0.742 l -0.4486,0.415 -1.2639,-0.58 c -0.69491,-0.32 -1.28082,-0.556 -1.30292,-0.526 -0.32816,0.438 -1.03147,1.585 -1.26195,2.057 l -0.29647,0.608 0.2048,0.171 c 0.11325,0.09 0.60712,0.455 1.09811,0.801 0.79838,0.563 0.88959,0.647 0.86406,0.789 -0.0157,0.09 -0.0883,0.472 -0.16189,0.856 -0.0736,0.383 -0.13263,0.902 -0.13263,1.153 v 0.458 l -1.26585,0.483 -1.2639,0.483 0.0214,0.279 c 0.0399,0.539 0.32583,1.816 0.51297,2.289 l 0.1892,0.479 0.37449,-0.02 c 0.20605,0 0.82825,-0.1 1.38288,-0.197 l 1.00839,-0.181 0.18724,0.329 c 0.20472,0.362 0.83868,1.168 1.15078,1.463 0.109,0.104 0.19894,0.212 0.19894,0.24 0,0.03 -0.25715,0.597 -0.57148,1.266 l -0.57149,1.216 0.31403,0.25 c 0.56247,0.443 2.18314,1.342 2.41857,1.342 0.039,0 1.3932,-1.828 1.64229,-2.217 0.006,0 0.23819,0.04 0.51688,0.115 0.28779,0.07 0.84907,0.15 1.29901,0.175 l 0.79384,0.04 0.18334,0.51 c 0.44933,1.246 0.70288,1.922 0.74898,1.996 0.0549,0.09 0.5935,0 1.55062,-0.24 0.58634,-0.149 1.53306,-0.509 1.53306,-0.581 0,-0.03 -0.0855,-0.598 -0.19114,-1.27 -0.10563,-0.672 -0.1931,-1.273 -0.1931,-1.337 0,-0.07 0.18734,-0.236 0.52273,-0.454 0.28774,-0.186 0.71519,-0.519 0.94987,-0.74 l 0.42716,-0.403 1.14687,0.535 c 0.63064,0.295 1.2001,0.546 1.26585,0.558 0.17103,0.03 0.90741,-1.007 1.35948,-1.917 0.30104,-0.607 0.34578,-0.738 0.27306,-0.807 -0.0883,-0.08 -1.76671,-1.325 -2.02848,-1.5 l -0.14239,-0.1 0.13068,-0.575 c 0.072,-0.316 0.1497,-0.881 0.17164,-1.254 l 0.039,-0.678 1.18198,-0.437 c 0.65037,-0.24 1.23012,-0.47 1.28731,-0.512 0.0959,-0.07 0.0959,-0.126 -0.004,-0.705 -0.10144,-0.59 -0.5523,-2.111 -0.68656,-2.317 -0.0525,-0.08 -0.24627,-0.06 -1.41994,0.127 -1.32223,0.214 -1.35945,0.215 -1.42774,0.1 -0.26644,-0.462 -0.80413,-1.204 -1.07276,-1.479 l -0.31987,-0.327 0.16384,-0.322 c 0.0897,-0.176 0.35186,-0.741 0.58319,-1.256 l 0.41935,-0.938 -0.14629,-0.124 c -0.36739,-0.314 -1.42598,-0.977 -1.97387,-1.235 l -0.60464,-0.285 -0.13849,0.166 c -0.0762,0.09 -0.43578,0.591 -0.79969,1.11 -0.41662,0.595 -0.70328,0.947 -0.77433,0.949 -0.0621,0 -0.32057,-0.06 -0.57539,-0.128 -0.2686,-0.08 -0.76552,-0.146 -1.18003,-0.168 l -0.71387,-0.04 -0.17554,-0.485 c -0.44919,-1.243 -0.81157,-2.114 -0.87966,-2.11 z m 1.2561,6.766 c 0.31008,0 0.69883,0.03 0.86405,0.07 0.16523,0.04 0.5696,0.199 0.89917,0.356 1.07793,0.513 1.77152,1.389 2.06554,2.613 0.57528,2.395 -1.26808,4.734 -3.7527,4.762 -0.94081,0.01 -1.67422,-0.229 -2.44393,-0.799 -0.74026,-0.548 -1.26574,-1.4 -1.46675,-2.375 -0.48801,-2.368 1.37103,-4.611 3.83462,-4.626 z"
         id="path5336" />
      <path
         id="path5302"
         d="m 330.23645,32.599222 c -0.0411,0 -0.39455,0.07 -0.78409,0.152 -0.8123,0.169 -1.92459,0.5 -2.09675,0.626 -0.11315,0.08 -0.11207,0.117 0.0215,1.009 0.076,0.508 0.16458,1.064 0.197,1.235 0.0964,0.51 0.097,0.51 -0.47786,0.861 -0.29531,0.181 -0.7401,0.515 -0.98694,0.743 l -0.4486,0.415 -1.26391,-0.581 c -0.6949,-0.319 -1.28082,-0.556 -1.30291,-0.526 -0.32816,0.438 -1.03147,1.585 -1.26195,2.057 l -0.29647,0.608 0.2048,0.172 c 0.11325,0.09 0.60712,0.455 1.09811,0.801 0.79838,0.562 0.88958,0.646 0.86406,0.789 -0.0157,0.09 -0.0883,0.472 -0.16189,0.855 -0.0736,0.383 -0.13263,0.903 -0.13263,1.153 v 0.458 l -1.26585,0.483 -1.2639,0.484 0.0215,0.278 c 0.0399,0.54 0.32583,1.816 0.51297,2.29 l 0.1892,0.479 0.37449,-0.02 c 0.20605,0 0.82825,-0.1 1.38288,-0.196 l 1.00839,-0.182 0.18724,0.33 c 0.20471,0.361 0.83868,1.168 1.15078,1.463 0.109,0.103 0.19894,0.212 0.19894,0.239 0,0.03 -0.25715,0.598 -0.57148,1.267 l -0.57149,1.216 0.31403,0.249 c 0.56246,0.443 2.18314,1.342 2.41857,1.342 0.039,0 1.3932,-1.828 1.64229,-2.217 0.006,0 0.23819,0.04 0.51688,0.115 0.28778,0.07 0.84907,0.151 1.29901,0.176 l 0.79384,0.04 0.18334,0.511 c 0.44933,1.246 0.70287,1.922 0.74898,1.995 0.0549,0.09 0.5935,0 1.55062,-0.24 0.58634,-0.149 1.53306,-0.508 1.53306,-0.58 0,-0.03 -0.0855,-0.599 -0.19114,-1.271 -0.10563,-0.672 -0.1931,-1.273 -0.1931,-1.336 0,-0.07 0.18734,-0.237 0.52273,-0.454 0.28774,-0.187 0.71519,-0.52 0.94987,-0.741 l 0.42715,-0.403 1.14688,0.536 c 0.63064,0.294 1.2001,0.545 1.26585,0.557 0.17103,0.03 0.90741,-1.007 1.35947,-1.917 0.30104,-0.606 0.34579,-0.738 0.27307,-0.807 -0.0883,-0.08 -1.76671,-1.324 -2.02848,-1.5 l -0.14239,-0.1 0.13068,-0.575 c 0.072,-0.316 0.1497,-0.881 0.17164,-1.255 l 0.039,-0.678 1.18198,-0.436 c 0.65037,-0.241 1.23012,-0.471 1.28731,-0.513 0.0959,-0.07 0.0959,-0.126 -0.004,-0.705 -0.10145,-0.589 -0.5523,-2.11 -0.68656,-2.317 -0.0525,-0.08 -0.24627,-0.06 -1.41994,0.127 -1.32223,0.214 -1.35945,0.216 -1.42774,0.1 -0.26644,-0.462 -0.80413,-1.204 -1.07276,-1.478 l -0.31987,-0.328 0.16384,-0.321 c 0.0897,-0.177 0.35186,-0.742 0.58318,-1.257 l 0.41935,-0.937 -0.14628,-0.125 c -0.36739,-0.314 -1.42598,-0.977 -1.97387,-1.235 l -0.60465,-0.285 -0.13848,0.166 c -0.0762,0.09 -0.43578,0.591 -0.79969,1.111 -0.41663,0.594 -0.70328,0.946 -0.77433,0.949 -0.0621,0 -0.32057,-0.06 -0.57539,-0.129 -0.2686,-0.08 -0.76552,-0.146 -1.18003,-0.168 l -0.71387,-0.04 -0.17554,-0.485 c -0.44919,-1.243 -0.81157,-2.114 -0.87966,-2.11 z m 1.2561,6.767 c 0.31008,0 0.69882,0.03 0.86405,0.07 0.16523,0.04 0.5696,0.2 0.89917,0.357 1.07793,0.513 1.77152,1.388 2.06554,2.612 0.57527,2.396 -1.26808,4.734 -3.7527,4.762 -0.94081,0.01 -1.67422,-0.228 -2.44393,-0.799 -0.74026,-0.548 -1.26574,-1.4 -1.46675,-2.375 -0.48802,-2.367 1.37103,-4.61 3.83462,-4.625 z"
         style="fill:url(#linearGradient5322);fill-opacity:1;stroke-width:0.0639294"
         inkscape:connector-curvature="0" />
      <path
         style="opacity:1;fill:url(#linearGradient5314);fill-opacity:1;fill-rule:nonzero;stroke:#000000;stroke-width:0.1;stroke-linecap:butt;stroke-linejoin:round;stroke-miterlimit:4;stroke-dasharray:none;stroke-dashoffset:0;stroke-opacity:1"
         d="m 331.54153,36.828222 a 6.442814,6.4358439 0 0 0 -6.44336,6.435 6.442814,6.4358439 0 0 0 6.44336,6.436 6.442814,6.4358439 0 0 0 6.44336,-6.436 6.442814,6.4358439 0 0 0 -6.44336,-6.435 z m 0.11719,3.09 c 1.18429,0.05 2.35964,0.774 2.87695,1.826 0.57114,1.161 0.45017,2.42 -0.33789,3.521 -0.47299,0.661 -1.17935,1.095 -2.0957,1.288 -1.07287,0.224 -2.31682,-0.201 -3.06836,-1.051 -0.74044,-0.838 -1.03923,-2.225 -0.70508,-3.272 0.15501,-0.486 0.68848,-1.242 1.10938,-1.576 0.49328,-0.391 1.08197,-0.637 1.71484,-0.717 0.16766,-0.02 0.33668,-0.03 0.50586,-0.02 z"
         id="path5306"
         inkscape:connector-curvature="0" />
      <path
         inkscape:connector-curvature="0"
         style="fill:#45ff45;fill-opacity:1;stroke-width:0.0639294"
         d="m 342.90734,48.063222 c -0.47721,0 -0.95644,0 -1.06885,0.03 -0.17475,0.03 -0.18492,0.07 -0.29842,1.19 -0.0494,0.487 -0.11256,0.908 -0.14239,0.935 -0.0298,0.03 -0.2276,0.1 -0.43885,0.158 -0.21125,0.06 -0.59264,0.213 -0.8465,0.339 -0.41876,0.209 -0.47144,0.22 -0.57539,0.133 -0.063,-0.05 -0.38914,-0.323 -0.72362,-0.599 -0.33448,-0.275 -0.65268,-0.538 -0.70802,-0.584 -0.0864,-0.07 -0.16461,-0.03 -0.55783,0.3 -0.46963,0.394 -1.23075,1.242 -1.23075,1.372 0,0.04 0.28866,0.421 0.64171,0.847 l 0.6417,0.776 -0.19895,0.352 c -0.10958,0.194 -0.29308,0.618 -0.40765,0.943 l -0.20675,0.593 -1.01424,0.1 c -1.17451,0.111 -1.06841,0.02 -1.14882,0.982 -0.0469,0.562 -5.6e-4,1.356 0.0878,1.498 0.0291,0.05 0.44825,0.119 1.07666,0.184 l 1.02984,0.105 0.13653,0.452 c 0.0747,0.248 0.24323,0.655 0.37644,0.906 l 0.24381,0.456 -0.65926,0.789 c -0.36168,0.434 -0.65777,0.819 -0.65925,0.855 -0.004,0.103 0.94764,1.144 1.33607,1.461 l 0.34718,0.285 0.51687,-0.425 c 0.28439,-0.234 0.65406,-0.538 0.82115,-0.676 l 0.30427,-0.251 0.63,0.296 c 0.34706,0.163 0.78036,0.33 0.96158,0.372 l 0.32963,0.07 0.002,0.325 c 0.004,0.429 0.1517,1.744 0.20089,1.793 0.0669,0.07 1.60381,0.107 2.00118,0.05 0.45753,-0.06 0.44324,-0.03 0.55783,-1.309 l 0.08,-0.884 0.25942,-0.07 c 0.14266,-0.04 0.53876,-0.198 0.88161,-0.36 l 0.62415,-0.294 0.30427,0.253 c 0.87877,0.733 1.30867,1.053 1.37898,1.025 0.33347,-0.135 1.7554,-1.581 1.6774,-1.707 -0.019,-0.03 -0.32309,-0.407 -0.67486,-0.836 -0.35177,-0.428 -0.62993,-0.796 -0.6183,-0.816 0.18431,-0.326 0.51127,-1.089 0.59489,-1.389 l 0.10923,-0.388 1.01229,-0.08 c 0.55695,-0.05 1.05033,-0.104 1.09616,-0.132 0.10695,-0.07 0.12144,-2.311 0.0156,-2.416 -0.055,-0.06 -1.60843,-0.253 -2.02459,-0.258 -0.0755,0 -0.13976,-0.11 -0.21455,-0.368 -0.0586,-0.202 -0.20383,-0.58 -0.32377,-0.839 -0.11994,-0.26 -0.21846,-0.496 -0.21846,-0.527 0,-0.03 0.30088,-0.411 0.66901,-0.845 l 0.66901,-0.789 -0.14043,-0.187 c -0.27934,-0.374 -1.10655,-1.24 -1.33802,-1.401 -0.14308,-0.1 -0.26916,-0.145 -0.31988,-0.115 -0.1172,0.07 -0.57599,0.435 -1.13517,0.906 -0.47351,0.398 -0.47457,0.399 -0.63975,0.29 -0.28274,-0.186 -0.65912,-0.358 -1.15858,-0.528 l -0.47981,-0.163 -0.0956,-1.053 -0.0956,-1.054 -0.1931,-0.04 c -0.10714,-0.02 -0.58189,-0.04 -1.0591,-0.04 z m 0.10533,6.325 c 0.42165,0.01 0.57091,0.05 0.80359,0.185 0.3875,0.226 0.77857,0.664 0.91672,1.025 0.17181,0.448 0.11715,1.265 -0.11118,1.654 -0.36421,0.62 -0.94939,0.955 -1.68325,0.966 -1.16022,0.02 -2.02726,-0.92 -1.93291,-2.092 0.0618,-0.768 0.51845,-1.358 1.29706,-1.678 0.11449,-0.05 0.40114,-0.07 0.70997,-0.06 z"
         id="path5334" />
      <path
         id="path5294"
         d="m 342.60825,48.063222 c -0.47722,0 -0.95645,0 -1.06886,0.03 -0.17475,0.03 -0.18492,0.07 -0.29842,1.19 -0.0494,0.487 -0.11256,0.908 -0.14238,0.935 -0.0298,0.03 -0.22761,0.1 -0.43886,0.158 -0.21125,0.06 -0.59264,0.213 -0.8465,0.339 -0.41876,0.209 -0.47144,0.22 -0.57539,0.133 -0.063,-0.05 -0.38914,-0.323 -0.72362,-0.599 -0.33448,-0.275 -0.65268,-0.538 -0.70802,-0.584 -0.0864,-0.07 -0.16461,-0.03 -0.55783,0.3 -0.46963,0.394 -1.23075,1.242 -1.23075,1.372 0,0.04 0.28866,0.421 0.64171,0.847 l 0.6417,0.776 -0.19895,0.352 c -0.10958,0.194 -0.29308,0.618 -0.40764,0.943 l -0.20675,0.593 -1.01425,0.1 c -1.17451,0.111 -1.06841,0.02 -1.14882,0.982 -0.0469,0.562 -5.6e-4,1.356 0.0878,1.498 0.0291,0.05 0.44825,0.119 1.07666,0.184 l 1.02984,0.105 0.13654,0.452 c 0.0747,0.248 0.24322,0.655 0.37644,0.906 l 0.2438,0.456 -0.65925,0.789 c -0.36169,0.434 -0.65778,0.819 -0.65926,0.855 -0.004,0.103 0.94764,1.144 1.33607,1.461 l 0.34718,0.285 0.51687,-0.425 c 0.2844,-0.234 0.65406,-0.538 0.82115,-0.676 l 0.30427,-0.251 0.63,0.296 c 0.34706,0.163 0.78036,0.33 0.96158,0.372 l 0.32963,0.07 0.002,0.325 c 0.004,0.429 0.1517,1.744 0.2009,1.793 0.0669,0.07 1.6038,0.107 2.00117,0.05 0.45754,-0.06 0.44324,-0.03 0.55784,-1.309 l 0.08,-0.884 0.25941,-0.07 c 0.14267,-0.04 0.53876,-0.198 0.88161,-0.36 l 0.62415,-0.294 0.30427,0.253 c 0.87877,0.733 1.30867,1.053 1.37898,1.025 0.33347,-0.135 1.7554,-1.581 1.6774,-1.707 -0.019,-0.03 -0.32309,-0.407 -0.67486,-0.836 -0.35177,-0.428 -0.62992,-0.796 -0.6183,-0.816 0.18431,-0.326 0.51128,-1.089 0.59489,-1.389 l 0.10923,-0.388 1.01229,-0.08 c 0.55695,-0.05 1.05033,-0.104 1.09616,-0.132 0.10695,-0.07 0.12144,-2.311 0.0156,-2.416 -0.055,-0.06 -1.60843,-0.253 -2.02458,-0.258 -0.0755,0 -0.13977,-0.11 -0.21456,-0.368 -0.0586,-0.202 -0.20383,-0.58 -0.32377,-0.839 -0.11994,-0.26 -0.21846,-0.496 -0.21846,-0.527 0,-0.03 0.30089,-0.411 0.66901,-0.845 l 0.66901,-0.789 -0.14043,-0.187 c -0.27934,-0.374 -1.10654,-1.24 -1.33802,-1.401 -0.14307,-0.1 -0.26915,-0.145 -0.31987,-0.115 -0.1172,0.07 -0.576,0.435 -1.13518,0.906 -0.47351,0.398 -0.47457,0.399 -0.63975,0.29 -0.28273,-0.186 -0.65912,-0.358 -1.15857,-0.528 l -0.47982,-0.163 -0.0956,-1.053 -0.0956,-1.054 -0.19309,-0.04 c -0.10715,-0.02 -0.58189,-0.04 -1.05911,-0.04 z m 0.10532,6.325 c 0.42165,0.01 0.57091,0.05 0.80359,0.185 0.3875,0.226 0.77857,0.664 0.91672,1.025 0.17181,0.448 0.11715,1.265 -0.11118,1.654 -0.36421,0.62 -0.94939,0.955 -1.68325,0.966 -1.16022,0.02 -2.02726,-0.92 -1.93291,-2.092 0.0618,-0.768 0.51845,-1.358 1.29706,-1.678 0.1145,-0.05 0.40114,-0.07 0.70997,-0.06 z"
         style="fill:url(#linearGradient5330);fill-opacity:1;stroke-width:0.0639294"
         inkscape:connector-curvature="0" />
    </g>
  </g>
</svg>
