<?xml version="1.0" encoding="UTF-8" standalone="no"?>
<svg
   xmlns:dc="http://purl.org/dc/elements/1.1/"
   xmlns:cc="http://creativecommons.org/ns#"
   xmlns:rdf="http://www.w3.org/1999/02/22-rdf-syntax-ns#"
   xmlns:svg="http://www.w3.org/2000/svg"
   xmlns="http://www.w3.org/2000/svg"
   xmlns:xlink="http://www.w3.org/1999/xlink"
   xmlns:sodipodi="http://sodipodi.sourceforge.net/DTD/sodipodi-0.dtd"
   xmlns:inkscape="http://www.inkscape.org/namespaces/inkscape"
   width="32"
   height="32"
   viewBox="0 0 8.4666665 8.4666669"
   version="1.1"
   id="svg8"
   inkscape:version="1.0 (1.0+r73+1)"
   sodipodi:docname="tool67.svg">
  <defs
     id="defs2">
    <inkscape:path-effect
       lpeversion="0"
       effect="bspline"
       id="path-effect8657"
       is_visible="true"
       weight="33.333333"
       steps="2"
       helper_size="0"
       apply_no_weight="true"
       apply_with_weight="true"
       only_selected="false" />
    <inkscape:path-effect
       lpeversion="0"
       effect="bspline"
       id="path-effect5573"
       is_visible="true"
       weight="33.333333"
       steps="2"
       helper_size="0"
       apply_no_weight="true"
       apply_with_weight="true"
       only_selected="false" />
    <inkscape:path-effect
       lpeversion="0"
       only_selected="false"
       apply_with_weight="true"
       apply_no_weight="true"
       helper_size="0"
       steps="2"
       weight="33.333333"
       is_visible="true"
       id="path-effect5569"
       effect="bspline" />
    <inkscape:path-effect
       lpeversion="0"
       only_selected="false"
       apply_with_weight="true"
       apply_no_weight="true"
       helper_size="0"
       steps="2"
       weight="33.333333"
       is_visible="true"
       id="path-effect8548"
       effect="bspline" />
    <inkscape:path-effect
       lpeversion="0"
       effect="bspline"
       id="path-effect8543"
       is_visible="true"
       weight="33.333333"
       steps="2"
       helper_size="0"
       apply_no_weight="true"
       apply_with_weight="true"
       only_selected="false" />
    <inkscape:path-effect
       lpeversion="0"
       effect="bspline"
       id="path-effect5525"
       is_visible="true"
       weight="33.333333"
       steps="2"
       helper_size="0"
       apply_no_weight="true"
       apply_with_weight="true"
       only_selected="false" />
    <linearGradient
       inkscape:collect="always"
       xlink:href="#linearGradient5666"
       id="linearGradient7043"
       gradientUnits="userSpaceOnUse"
       gradientTransform="translate(1.935e-6,-0.14997127)"
       x1="14.495079"
       y1="6.8702259"
       x2="14.322937"
       y2="2.2740316" />
    <linearGradient
       inkscape:collect="always"
       id="linearGradient5666">
      <stop
         style="stop-color:#82ade0;stop-opacity:1"
         offset="0"
         id="stop5662" />
      <stop
         style="stop-color:#f1effb;stop-opacity:1"
         offset="1"
         id="stop5664" />
    </linearGradient>
  </defs>
  <sodipodi:namedview
     id="base"
     pagecolor="#ffffff"
     bordercolor="#666666"
     borderopacity="1.0"
     inkscape:pageopacity="0.0"
     inkscape:pageshadow="2"
     inkscape:zoom="5.6568543"
     inkscape:cx="18.190742"
     inkscape:cy="6.7335287"
     inkscape:document-units="px"
     inkscape:current-layer="layer1"
     inkscape:document-rotation="0"
     showgrid="false"
     units="px"
     inkscape:window-width="925"
     inkscape:window-height="704"
     inkscape:window-x="0"
     inkscape:window-y="0"
     inkscape:window-maximized="0" />
  <metadata
     id="metadata5">
    <rdf:RDF>
      <cc:Work
         rdf:about="">
        <dc:format>image/svg+xml</dc:format>
        <dc:type
           rdf:resource="http://purl.org/dc/dcmitype/StillImage" />
        <dc:title></dc:title>
      </cc:Work>
    </rdf:RDF>
  </metadata>
  <g
     inkscape:label="Layer 1"
     inkscape:groupmode="layer"
     id="layer1">
    <g
       transform="matrix(0.26458333,0,0,0.26458333,-8.4595031,-42.286384)"
       id="g6263">
      <g
         id="g7041"
         transform="matrix(0.99989187,0,0,0.99999865,31.974656,160.63158)">
        <path
           style="fill:#008080;stroke:#000000;stroke-width:0.387115;stroke-linecap:round;stroke-linejoin:round"
           inkscape:connector-curvature="0"
           d="m 3.5316505,27.337497 c 8.3122365,0 16.6244625,0 24.9366895,0 1.843589,0 3.33871,-1.487611 3.33871,-3.322407 0,-5.882857 0,-11.765328 0,-17.6481856 0,-1.8347963 -1.494735,-3.322407 -3.33871,-3.322407 -8.312227,0 -16.624453,0 -24.9366895,0 -1.8435791,0 -3.33870043,1.4876107 -3.33870043,3.322407 0,5.8828576 0,11.7653286 0,17.6481856 3.8641e-4,1.834796 1.49512133,3.322407 3.33870043,3.322407 z"
           id="path7029" />
        <path
           style="fill:url(#linearGradient7043);fill-opacity:1;stroke:#000000;stroke-width:0.387115;stroke-linecap:round;stroke-linejoin:round"
           inkscape:connector-curvature="0"
           d="m 0.19333648,8.274691 c 10.53802952,0 21.07567352,0 31.61371352,0 0,-0.6356714 0,-1.271729 0,-1.9077866 0,-1.8347963 -1.494735,-3.322407 -3.33871,-3.322407 -8.312227,0 -16.624453,0 -24.9366895,0 -1.8435791,0 -3.33870043,1.4876107 -3.33870043,3.322407 3.8641e-4,0.6360576 3.8641e-4,1.2721152 3.8641e-4,1.9077866 z"
           id="path7031" />
        <rect
           style="fill:#ffffff;stroke:#000000;stroke-width:0.387115;stroke-linecap:round;stroke-linejoin:round"
           x="1.4261578"
           y="8.6118431"
           width="29.293224"
           height="17.656296"
           id="rect7033" />
      </g>
      <path
         inkscape:connector-curvature="0"
         id="path7062"
         d="m 52.541451,184.83754 c -1.327466,-0.217 -2.599218,-1.344 -3.464075,-3.06999 l -0.09729,-0.194 h -0.949938 -0.949957 l -0.111578,0.225 c -0.360761,0.73 -0.815612,1.365 -1.348794,1.88499 -0.636491,0.62 -1.215998,0.951 -1.936551,1.105 -0.308036,0.07 -0.832589,0.07 -1.161284,0 -1.034528,-0.207 -1.977056,-0.913 -2.753282,-2.06099 -0.701044,-1.037 -1.184142,-2.334 -1.298,-3.484 l -0.0156,-0.158 h -0.383489 -0.383478 l 0.006,-0.403 0.006,-0.404 0.278949,-0.01 c 0.18523,0 0.28394,-0.02 0.293829,-0.04 0.008,-0.01 0.964055,-1.697 2.12416,-3.74099 l 2.109272,-3.715 h 1.605576 l 1.605566,-0.001 -0.0105,0.376 c -0.006,0.207 -0.0176,0.384 -0.0263,0.392 -0.009,0 -0.626402,0.02 -1.372611,0.03 l -1.356753,0.01 -0.859247,1.512 c -2.156377,3.79299 -2.903007,5.12699 -2.881329,5.14899 0.0185,0.02 17.590578,0.02 17.609066,0 0.008,0 -0.510155,-0.934 -1.150526,-2.057 -0.640371,-1.12399 -1.47565,-2.59199 -1.856149,-3.26099 l -0.691825,-1.218 h -1.367042 -1.367043 v -0.377 -0.378 h 1.453413 c 0.799374,0 1.522896,0 1.607816,0.02 l 0.154414,0.01 2.03559,3.579 c 1.119578,1.96799 2.050598,3.60899 2.068936,3.64699 l 0.0334,0.07 h 0.258462 0.258462 v 0.409 0.41 h -0.27809 c -0.152953,0 -0.297557,0 -0.321345,0.01 -0.0376,0.01 -0.04669,0.04 -0.06919,0.219 -0.0366,0.293 -0.179131,0.98 -0.265712,1.281 -0.247833,0.861 -0.719022,1.791 -1.263693,2.492 -0.73973,0.95399 -1.577589,1.53199 -2.49994,1.72699 -0.27138,0.06 -0.765307,0.07 -1.0177,0.03 z m -8.933853,-0.836 c 0.55377,-0.145 1.038877,-0.441 1.532854,-0.93699 0.915761,-0.918 1.605156,-2.38 1.768949,-3.753 l 0.0282,-0.236 H 43.100375 39.26314 v 0.122 c 0,0.243 0.152404,0.943 0.304878,1.401 0.607094,1.82 1.880126,3.20299 3.168607,3.44099 0.243044,0.05 0.616053,0.03 0.870996,-0.04 z m 9.816018,0.04 c 0.27771,-0.06 0.722612,-0.26 1.051276,-0.479 0.288999,-0.19199 0.73989,-0.64899 1.063865,-1.07899 0.400077,-0.531 0.817282,-1.37 1.026579,-2.065 0.09449,-0.313 0.221206,-0.934 0.237335,-1.163 l 0.0125,-0.177 H 52.981776 49.14837 v 0.103 c 0,0.135 0.08779,0.651 0.157693,0.927 0.46612,1.839 1.707316,3.45999 2.947192,3.84899 0.36574,0.115 0.851718,0.149 1.170343,0.08 z m -4.736958,-3.24999 c 0,0 -0.0183,-0.07 -0.04069,-0.142 -0.106659,-0.349 -0.197599,-0.784 -0.254403,-1.214 -0.0303,-0.23 -0.04889,-0.311 -0.07589,-0.331 -0.0244,-0.02 -0.124696,-0.03 -0.315095,-0.03 -0.275681,0 -0.27932,0 -0.27929,0.05 10e-5,0.187 -0.205038,1.207 -0.327015,1.627 l -0.0137,0.05 h 0.653069 c 0.359191,0 0.653069,0 0.653069,0 z"
         style="fill:#000000;stroke-width:0.020989" />
    </g>
  </g>
</svg>
