<?xml version="1.0" encoding="UTF-8" standalone="no"?>
<svg
   xmlns:dc="http://purl.org/dc/elements/1.1/"
   xmlns:cc="http://creativecommons.org/ns#"
   xmlns:rdf="http://www.w3.org/1999/02/22-rdf-syntax-ns#"
   xmlns:svg="http://www.w3.org/2000/svg"
   xmlns="http://www.w3.org/2000/svg"
   xmlns:xlink="http://www.w3.org/1999/xlink"
   xmlns:sodipodi="http://sodipodi.sourceforge.net/DTD/sodipodi-0.dtd"
   xmlns:inkscape="http://www.inkscape.org/namespaces/inkscape"
   width="32"
   height="32"
   viewBox="0 0 8.4666665 8.4666669"
   version="1.1"
   id="svg8"
   inkscape:version="1.0 (1.0+r73+1)"
   sodipodi:docname="tool45.svg">
  <defs
     id="defs2">
    <inkscape:path-effect
       lpeversion="0"
       effect="bspline"
       id="path-effect8657"
       is_visible="true"
       weight="33.333333"
       steps="2"
       helper_size="0"
       apply_no_weight="true"
       apply_with_weight="true"
       only_selected="false" />
    <inkscape:path-effect
       lpeversion="0"
       effect="bspline"
       id="path-effect5573"
       is_visible="true"
       weight="33.333333"
       steps="2"
       helper_size="0"
       apply_no_weight="true"
       apply_with_weight="true"
       only_selected="false" />
    <inkscape:path-effect
       lpeversion="0"
       only_selected="false"
       apply_with_weight="true"
       apply_no_weight="true"
       helper_size="0"
       steps="2"
       weight="33.333333"
       is_visible="true"
       id="path-effect5569"
       effect="bspline" />
    <inkscape:path-effect
       lpeversion="0"
       only_selected="false"
       apply_with_weight="true"
       apply_no_weight="true"
       helper_size="0"
       steps="2"
       weight="33.333333"
       is_visible="true"
       id="path-effect8548"
       effect="bspline" />
    <inkscape:path-effect
       lpeversion="0"
       effect="bspline"
       id="path-effect8543"
       is_visible="true"
       weight="33.333333"
       steps="2"
       helper_size="0"
       apply_no_weight="true"
       apply_with_weight="true"
       only_selected="false" />
    <inkscape:path-effect
       lpeversion="0"
       effect="bspline"
       id="path-effect5525"
       is_visible="true"
       weight="33.333333"
       steps="2"
       helper_size="0"
       apply_no_weight="true"
       apply_with_weight="true"
       only_selected="false" />
    <linearGradient
       inkscape:collect="always"
       xlink:href="#linearGradient7085"
       id="linearGradient7087"
       x1="20.001446"
       y1="5.9960594"
       x2="20.226992"
       y2="13.906704"
       gradientUnits="userSpaceOnUse"
       gradientTransform="matrix(1.0558607,0,0,1.0558607,-1.1631009,-0.58076576)" />
    <linearGradient
       inkscape:collect="always"
       id="linearGradient7085">
      <stop
         style="stop-color:#00ffff;stop-opacity:1;"
         offset="0"
         id="stop7081" />
      <stop
         style="stop-color:#3098ff;stop-opacity:1"
         offset="1"
         id="stop7083" />
    </linearGradient>
    <linearGradient
       inkscape:collect="always"
       xlink:href="#linearGradient5583"
       id="linearGradient5585"
       x1="-110.634"
       y1="482.23401"
       x2="-80.523972"
       y2="531.54504"
       gradientUnits="userSpaceOnUse" />
    <linearGradient
       inkscape:collect="always"
       id="linearGradient5583">
      <stop
         style="stop-color:#8c8cf7;stop-opacity:1"
         offset="0"
         id="stop5579" />
      <stop
         style="stop-color:#434347;stop-opacity:1"
         offset="1"
         id="stop5581" />
    </linearGradient>
  </defs>
  <sodipodi:namedview
     id="base"
     pagecolor="#ffffff"
     bordercolor="#666666"
     borderopacity="1.0"
     inkscape:pageopacity="0.0"
     inkscape:pageshadow="2"
     inkscape:zoom="8"
     inkscape:cx="17.563086"
     inkscape:cy="13.562456"
     inkscape:document-units="px"
     inkscape:current-layer="layer1"
     inkscape:document-rotation="0"
     showgrid="false"
     units="px"
     inkscape:window-width="925"
     inkscape:window-height="704"
     inkscape:window-x="0"
     inkscape:window-y="0"
     inkscape:window-maximized="0" />
  <metadata
     id="metadata5">
    <rdf:RDF>
      <cc:Work
         rdf:about="">
        <dc:format>image/svg+xml</dc:format>
        <dc:type
           rdf:resource="http://purl.org/dc/dcmitype/StillImage" />
        <dc:title></dc:title>
      </cc:Work>
    </rdf:RDF>
  </metadata>
  <g
     inkscape:label="Layer 1"
     inkscape:groupmode="layer"
     id="layer1">
    <g
       id="g8575"
       transform="matrix(0.26458333,0,0,0.26458333,-42.322508,-25.53246)">
      <g
         transform="matrix(0.99989187,0,0,0.99999865,159.96073,96.500659)"
         id="g5598">
        <rect
           style="fill:#695f9f;fill-opacity:1;stroke:#000000;stroke-width:0.355;stroke-linecap:round;stroke-linejoin:round;stroke-miterlimit:4;stroke-dasharray:none"
           x="14.389482"
           y="4.5171757"
           width="12.782759"
           height="21.229084"
           id="rect5669" />
        <rect
           style="fill:#008000;fill-opacity:1;stroke:#008000;stroke-width:0.365539;stroke-linecap:round;stroke-linejoin:round"
           x="15.506675"
           y="15.422262"
           width="10.721104"
           height="8.1471672"
           id="rect5665" />
        <rect
           style="fill:url(#linearGradient7087);fill-opacity:1;stroke:none;stroke-width:0.374528;stroke-linecap:round;stroke-linejoin:round;stroke-opacity:1"
           x="15.219884"
           y="5.3420811"
           width="11.203155"
           height="10.109204"
           id="rect5667" />
        <path
           inkscape:original-d="m 16.415942,15.34375 c 1.53225,-0.730167 3.0635,-1.459333 4.59375,-2.1875 0.729594,0.425748 1.459333,0.832333 2.1875,1.25 0.511191,0.332186 1.021833,0.665667 1.53125,1 10e-4,0.08229 10e-4,0.165667 0,0.25 -2.887417,-0.02208 -5.707333,-0.04267 -8.5625,-0.0625 0.08436,-0.08436 0.167667,-0.167667 0.25,-0.25 z"
           inkscape:path-effect="#path-effect5573"
           inkscape:connector-curvature="0"
           id="path5571"
           d="m 17.141002,15.020047 c 0.807393,-0.406037 2.338643,-1.135203 3.470367,-1.289957 1.131724,-0.154754 1.856979,0.259678 2.476618,0.634591 0.619639,0.374914 1.130281,0.708394 1.385368,0.916127 0.255087,0.207732 0.255087,0.291109 -1.188625,0.322737 -1.443712,0.03163 -4.263628,0.01105 -5.649028,-0.04156 -1.3854,-0.0526 -1.302093,-0.135907 -0.4947,-0.541943 z"
           style="fill:#004500;fill-opacity:1;stroke:none;stroke-width:1px;stroke-linecap:butt;stroke-linejoin:miter;stroke-opacity:1" />
        <polygon
           style="fill:url(#linearGradient5585);fill-opacity:1;stroke:#695f9f;stroke-linecap:round;stroke-linejoin:round;stroke-opacity:1"
           points="-77.588,554.81 -78.693,465.607 -110.634,482.234 -110.634,539.836 "
           id="polygon5673"
           transform="matrix(0.35466285,0,0,0.35476408,44.065535,-165.00365)" />
        <path
           style="fill:#f2f2f2;stroke:none;stroke-width:0.200903;stroke-linecap:round;stroke-linejoin:round"
           inkscape:connector-curvature="0"
           d="m 12.638438,16.471303 c 0,0.24152 -0.03293,0.465157 -0.125343,0.691004 -0.07834,0.191689 -0.234018,0.451895 -0.489932,0.451895 -0.256113,0 -0.41179,-0.260408 -0.490131,-0.452096 -0.0922,-0.226048 -0.125148,-0.449283 -0.125148,-0.690803 0,-0.241519 0.03293,-0.465155 0.125348,-0.691003 0.07834,-0.191688 0.234018,-0.451894 0.489931,-0.451894 0.256114,0 0.411791,0.260407 0.490132,0.452096 0.0922,0.225846 0.125143,0.449282 0.125143,0.690801 z"
           id="path5671" />
        <g
           id="g5561">
          <path
             inkscape:connector-curvature="0"
             id="path5552"
             d="m 19.308898,7.3875804 a 2.3386412,1.1693206 0 0 0 -2.338641,1.1693205 2.3386412,1.1693206 0 0 0 1.956177,1.1522679 1.765867,1.0913659 0 0 0 -0.08526,0.3288712 1.765867,1.0913659 0 0 0 1.766154,1.091366 1.765867,1.0913659 0 0 0 1.724757,-0.855066 1.7974004,1.1108545 0 0 0 0.645565,0.07552 A 1.7974004,1.1108545 0 0 0 24.775469,9.2390046 1.7974004,1.1108545 0 0 0 22.977646,8.1281501 1.7974004,1.1108545 0 0 0 21.645107,8.495999 2.3386412,1.1693206 0 0 0 19.308898,7.3875804 Z"
             style="opacity:1;fill:#f9f9f9;fill-opacity:1;fill-rule:nonzero;stroke:#f9f9f9;stroke-width:0.442783;stroke-linecap:butt;stroke-linejoin:round;stroke-miterlimit:4;stroke-dasharray:none;stroke-dashoffset:0;stroke-opacity:1" />
        </g>
        <path
           style="fill:#782121;stroke:none;stroke-width:1px;stroke-linecap:butt;stroke-linejoin:miter;stroke-opacity:1"
           d="m 18.97506,15.020047 c 0.807393,-0.406037 2.338643,-1.135203 3.470367,-1.289957 1.131724,-0.154754 1.856979,0.259678 2.476618,0.634591 0.619639,0.374914 1.130281,0.708394 1.385368,0.916127 0.255087,0.207732 0.255087,0.291109 -1.188625,0.322737 -1.443712,0.03163 -4.263628,0.01105 -5.649028,-0.04156 -1.3854,-0.0526 -1.302093,-0.135907 -0.4947,-0.541943 z"
           id="path5567"
           inkscape:connector-curvature="0"
           inkscape:path-effect="#path-effect5569"
           inkscape:original-d="m 18.25,15.34375 c 1.53225,-0.730167 3.0635,-1.459333 4.59375,-2.1875 0.729594,0.425748 1.459333,0.832333 2.1875,1.25 0.511191,0.332186 1.021833,0.665667 1.53125,1 0.001,0.08229 0.001,0.165667 0,0.25 -2.887417,-0.02208 -5.707333,-0.04267 -8.5625,-0.0625 0.08436,-0.08436 0.167667,-0.167667 0.25,-0.25 z" />
      </g>
      <path
         inkscape:connector-curvature="0"
         id="path7093"
         d="m 176.78161,111.91564 6.25904,2.077 -4.68364,1.37 -0.51094,1.061 -1.27735,2.07699 -0.0852,-6.36399 z"
         style="fill:#00807c;fill-opacity:1;stroke:none;stroke-width:0.981551px;stroke-linecap:butt;stroke-linejoin:miter;stroke-opacity:1" />
    </g>
  </g>
</svg>
