<?xml version="1.0" encoding="UTF-8" standalone="no"?>
<svg
   xmlns:dc="http://purl.org/dc/elements/1.1/"
   xmlns:cc="http://creativecommons.org/ns#"
   xmlns:rdf="http://www.w3.org/1999/02/22-rdf-syntax-ns#"
   xmlns:svg="http://www.w3.org/2000/svg"
   xmlns="http://www.w3.org/2000/svg"
   xmlns:xlink="http://www.w3.org/1999/xlink"
   xmlns:sodipodi="http://sodipodi.sourceforge.net/DTD/sodipodi-0.dtd"
   xmlns:inkscape="http://www.inkscape.org/namespaces/inkscape"
   width="32"
   height="32"
   viewBox="0 0 8.4666665 8.4666669"
   version="1.1"
   id="svg8"
   inkscape:version="1.0 (1.0+r73+1)"
   sodipodi:docname="tool114.svg">
  <defs
     id="defs2">
    <inkscape:path-effect
       lpeversion="0"
       effect="bspline"
       id="path-effect8657"
       is_visible="true"
       weight="33.333333"
       steps="2"
       helper_size="0"
       apply_no_weight="true"
       apply_with_weight="true"
       only_selected="false" />
    <inkscape:path-effect
       lpeversion="0"
       effect="bspline"
       id="path-effect5573"
       is_visible="true"
       weight="33.333333"
       steps="2"
       helper_size="0"
       apply_no_weight="true"
       apply_with_weight="true"
       only_selected="false" />
    <inkscape:path-effect
       lpeversion="0"
       only_selected="false"
       apply_with_weight="true"
       apply_no_weight="true"
       helper_size="0"
       steps="2"
       weight="33.333333"
       is_visible="true"
       id="path-effect5569"
       effect="bspline" />
    <inkscape:path-effect
       lpeversion="0"
       only_selected="false"
       apply_with_weight="true"
       apply_no_weight="true"
       helper_size="0"
       steps="2"
       weight="33.333333"
       is_visible="true"
       id="path-effect8548"
       effect="bspline" />
    <inkscape:path-effect
       lpeversion="0"
       effect="bspline"
       id="path-effect8543"
       is_visible="true"
       weight="33.333333"
       steps="2"
       helper_size="0"
       apply_no_weight="true"
       apply_with_weight="true"
       only_selected="false" />
    <inkscape:path-effect
       lpeversion="0"
       effect="bspline"
       id="path-effect5525"
       is_visible="true"
       weight="33.333333"
       steps="2"
       helper_size="0"
       apply_no_weight="true"
       apply_with_weight="true"
       only_selected="false" />
    <linearGradient
       id="linearGradient8532"
       inkscape:collect="always">
      <stop
         id="stop8526"
         offset="0"
         style="stop-color:#2929ff;stop-opacity:1" />
      <stop
         style="stop-color:#6464e9;stop-opacity:1"
         offset="0.2402378"
         id="stop8528" />
      <stop
         id="stop8534"
         offset="0.88697171"
         style="stop-color:#1515f0;stop-opacity:1" />
      <stop
         id="stop8530"
         offset="1"
         style="stop-color:#0000d1;stop-opacity:1" />
    </linearGradient>
    <linearGradient
       inkscape:collect="always"
       xlink:href="#linearGradient8532"
       id="linearGradient6517"
       x1="258.6178"
       y1="176.5014"
       x2="285.33841"
       y2="176.5014"
       gradientUnits="userSpaceOnUse"
       gradientTransform="matrix(1.1019365,0,0,1.1019365,-27.739221,-18.502129)" />
    <inkscape:path-effect
       lpeversion="0"
       effect="bspline"
       id="path-effect6612"
       is_visible="true"
       weight="33.333333"
       steps="2"
       helper_size="0"
       apply_no_weight="true"
       apply_with_weight="true"
       only_selected="false" />
    <inkscape:path-effect
       lpeversion="0"
       effect="envelope"
       id="path-effect6709"
       is_visible="true"
       yy="true"
       xx="true"
       bendpath1="M 5.5913706,3.2616329 H 480.39194"
       bendpath2="M 480.39194,3.2616329 V 141.06515"
       bendpath3="M 5.5913706,141.06515 H 480.39194"
       bendpath4="M 5.5913706,3.2616329 V 141.06515" />
    <inkscape:path-effect
       only_selected="false"
       apply_with_weight="true"
       apply_no_weight="true"
       helper_size="0"
       steps="2"
       weight="33.333333"
       is_visible="true"
       id="path-effect7258"
       effect="bspline"
       lpeversion="0" />
    <inkscape:path-effect
       only_selected="false"
       apply_with_weight="true"
       apply_no_weight="true"
       helper_size="0"
       steps="2"
       weight="33.333333"
       is_visible="true"
       id="path-effect7262"
       effect="bspline"
       lpeversion="0" />
    <inkscape:path-effect
       only_selected="false"
       apply_with_weight="true"
       apply_no_weight="true"
       helper_size="0"
       steps="2"
       weight="33.333333"
       is_visible="true"
       id="path-effect7266"
       effect="bspline"
       lpeversion="0" />
    <linearGradient
       id="linearGradient6303">
      <stop
         id="stop6299"
         offset="0"
         style="stop-color:#ffd43b;stop-opacity:1" />
      <stop
         style="stop-color:#ffdd3e;stop-opacity:1"
         offset="0.65879381"
         id="stop6305" />
      <stop
         id="stop6301"
         offset="1"
         style="stop-color:#ffed92;stop-opacity:1" />
    </linearGradient>
    <inkscape:path-effect
       is_visible="true"
       id="path-effect29672-0"
       effect="spiro"
       lpeversion="0" />
    <inkscape:path-effect
       is_visible="true"
       id="path-effect29678-1"
       effect="spiro"
       lpeversion="0" />
    <inkscape:path-effect
       is_visible="true"
       id="path-effect29678-4-6"
       effect="spiro"
       lpeversion="0" />
    <inkscape:path-effect
       is_visible="true"
       id="path-effect28714-5"
       effect="spiro"
       lpeversion="0" />
    <inkscape:path-effect
       is_visible="true"
       id="path-effect29721-2"
       effect="spiro"
       lpeversion="0" />
    <inkscape:path-effect
       is_visible="true"
       id="path-effect28463-8-0"
       effect="spiro"
       lpeversion="0" />
    <inkscape:path-effect
       is_visible="true"
       id="path-effect28463-0-7"
       effect="spiro"
       lpeversion="0" />
    <linearGradient
       id="linearGradient28799-4">
      <stop
         id="stop28801-13"
         offset="0"
         style="stop-color:#fefefc;stop-opacity:1;" />
      <stop
         style="stop-color:#fefefc;stop-opacity:1"
         offset="0.75733864"
         id="stop28807-8" />
      <stop
         id="stop28803-8"
         offset="1"
         style="stop-color:#d4d4d4;stop-opacity:1" />
    </linearGradient>
    <inkscape:path-effect
       is_visible="true"
       id="path-effect28797-8-1"
       effect="spiro"
       lpeversion="0" />
    <inkscape:path-effect
       is_visible="true"
       id="path-effect28797-81"
       effect="spiro"
       lpeversion="0" />
    <inkscape:path-effect
       is_visible="true"
       id="path-effect28273-4-2"
       effect="spiro"
       lpeversion="0" />
    <linearGradient
       id="linearGradient28853-5">
      <stop
         id="stop28855-3"
         offset="0"
         style="stop-color:#020204;stop-opacity:1" />
      <stop
         style="stop-color:#020204;stop-opacity:1"
         offset="0.73448181"
         id="stop28865-0" />
      <stop
         id="stop28857-9"
         offset="1"
         style="stop-color:#5c5c5c;stop-opacity:1;" />
    </linearGradient>
    <inkscape:path-effect
       is_visible="true"
       id="path-effect28851-0"
       effect="spiro"
       lpeversion="0" />
    <inkscape:path-effect
       is_visible="true"
       id="path-effect28881-6"
       effect="spiro"
       lpeversion="0" />
    <linearGradient
       id="linearGradient28935-8">
      <stop
         id="stop28937-7"
         offset="0"
         style="stop-color:#949494;stop-opacity:0.39215687;" />
      <stop
         style="stop-color:#949494;stop-opacity:1;"
         offset="0.5"
         id="stop28943-3" />
      <stop
         id="stop28939-8"
         offset="1"
         style="stop-color:#949494;stop-opacity:0.39215687;" />
    </linearGradient>
    <linearGradient
       id="linearGradient28976-3">
      <stop
         id="stop28978-7"
         offset="0"
         style="stop-color:#747474;stop-opacity:1" />
      <stop
         style="stop-color:#8c8c8c;stop-opacity:1;"
         offset="0.125"
         id="stop29259-5" />
      <stop
         style="stop-color:#a4a4a4;stop-opacity:1;"
         offset="0.25"
         id="stop29257-0" />
      <stop
         style="stop-color:#d4d4d4;stop-opacity:1"
         offset="0.5"
         id="stop28984-4" />
      <stop
         id="stop28986-0"
         offset="0.61919296"
         style="stop-color:#d4d4d4;stop-opacity:1" />
      <stop
         id="stop28980-2"
         offset="1"
         style="stop-color:#7c7c7c;stop-opacity:1" />
    </linearGradient>
    <clipPath
       id="clipPath29028-5"
       clipPathUnits="userSpaceOnUse">
      <path
         sodipodi:nodetypes="aaaaaaaa"
         inkscape:connector-curvature="0"
         id="path29030-7"
         d="m 85.75,122.36218 c -2.54738,2.12715 -5.20812,4.59907 -6.25,7.75 -1.30914,3.95917 -1.63336,8.91703 0.5,12.5 3.91901,6.58194 12.38353,13.85135 19.75,11.75 4.87452,-1.3905 6.10748,-8.51023 7,-13.5 0.59149,-3.30679 0.59578,-7.19325 -1.25,-10 -3.61233,-5.49303 -10.4265,-9.89357 -17,-10 -1.04403,-0.0169 -1.94852,0.83074 -2.75,1.5 z"
         style="fill:url(#radialGradient29032);fill-opacity:1;stroke:none" />
    </clipPath>
    <inkscape:path-effect
       is_visible="true"
       id="path-effect28974-8"
       effect="spiro"
       lpeversion="0" />
    <linearGradient
       id="linearGradient29336-6">
      <stop
         id="stop29338-1"
         offset="0"
         style="stop-color:#646464;stop-opacity:0" />
      <stop
         style="stop-color:#646464;stop-opacity:0.5825243"
         offset="0.30628255"
         id="stop29344-7" />
      <stop
         id="stop29354-5"
         offset="0.47000006"
         style="stop-color:#646464;stop-opacity:1" />
      <stop
         style="stop-color:#646464;stop-opacity:0.25728154"
         offset="0.72834015"
         id="stop29356-3" />
      <stop
         id="stop29340-6"
         offset="1"
         style="stop-color:#646464;stop-opacity:0;" />
    </linearGradient>
    <inkscape:path-effect
       is_visible="true"
       id="path-effect29455-3"
       effect="spiro"
       lpeversion="0" />
    <linearGradient
       id="linearGradient29477-3">
      <stop
         id="stop29479-5"
         offset="0"
         style="stop-color:#757574;stop-opacity:0" />
      <stop
         style="stop-color:#757574;stop-opacity:1;"
         offset="0.26291031"
         id="stop29487-5" />
      <stop
         style="stop-color:#757574;stop-opacity:1;"
         offset="0.5"
         id="stop29485-0" />
      <stop
         id="stop29481-3"
         offset="1"
         style="stop-color:#757574;stop-opacity:0" />
    </linearGradient>
    <linearGradient
       id="linearGradient28469-0">
      <stop
         style="stop-color:#d2940a;stop-opacity:1"
         offset="0"
         id="stop28479-4" />
      <stop
         style="stop-color:#d89c08;stop-opacity:1"
         offset="0.75143719"
         id="stop28477-2" />
      <stop
         id="stop28485-7"
         offset="0.86579126"
         style="stop-color:#b67e07;stop-opacity:1;" />
      <stop
         id="stop28473-1"
         offset="1"
         style="stop-color:#946106;stop-opacity:1" />
    </linearGradient>
    <inkscape:path-effect
       is_visible="true"
       id="path-effect28463-4"
       effect="spiro"
       lpeversion="0" />
    <inkscape:path-effect
       is_visible="true"
       id="path-effect28489-4"
       effect="spiro"
       lpeversion="0" />
    <inkscape:path-effect
       is_visible="true"
       id="path-effect28273-54-7"
       effect="spiro"
       lpeversion="0" />
    <linearGradient
       id="linearGradient28275-8">
      <stop
         id="stop28277-1"
         offset="0"
         style="stop-color:#ad780a;stop-opacity:1" />
      <stop
         style="stop-color:#d89e08;stop-opacity:1"
         offset="0.11972899"
         id="stop28291-9" />
      <stop
         style="stop-color:#edb80b;stop-opacity:1"
         offset="0.25514477"
         id="stop28289-6" />
      <stop
         style="stop-color:#ebc80d;stop-opacity:1"
         offset="0.39194193"
         id="stop28287-6" />
      <stop
         style="stop-color:#f5d838;stop-opacity:1"
         offset="0.52741116"
         id="stop28285-7" />
      <stop
         style="stop-color:#f6d811;stop-opacity:1"
         offset="0.76906693"
         id="stop28283-7" />
      <stop
         id="stop28279-5"
         offset="1"
         style="stop-color:#f5cd31;stop-opacity:1" />
    </linearGradient>
    <inkscape:path-effect
       is_visible="true"
       id="path-effect28273-44"
       effect="spiro"
       lpeversion="0" />
    <inkscape:path-effect
       is_visible="true"
       id="path-effect28384-7"
       effect="spiro"
       lpeversion="0" />
    <linearGradient
       id="linearGradient29529-6">
      <stop
         id="stop29531-0"
         offset="0"
         style="stop-color:#3a2903;stop-opacity:1;" />
      <stop
         style="stop-color:#735208;stop-opacity:1"
         offset="0.55472803"
         id="stop29539-7" />
      <stop
         id="stop29533-8"
         offset="1"
         style="stop-color:#ac8c04;stop-opacity:1" />
    </linearGradient>
    <clipPath
       id="clipPath29644-8"
       clipPathUnits="userSpaceOnUse">
      <path
         sodipodi:nodetypes="zzzzzzz"
         inkscape:connector-curvature="0"
         id="path29646-8"
         d="m 54.232441,122.36218 c -3.79199,4.78949 -8.5176,11.69104 -8.19273,17.25 0.32487,5.55896 3.86025,13.93486 8.37542,16 4.51517,2.06514 5.75436,0.0125 8.32902,-2.5 2.57466,-2.51247 3.85871,-7.34762 4.00585,-12.25 0.14713,-4.90238 -3.03534,-11.91949 -5.43855,-15.25 -2.40321,-3.33051 -3.28702,-8.03949 -7.07901,-3.25 z"
         style="fill:url(#radialGradient29648);fill-opacity:1;stroke:none" />
    </clipPath>
    <inkscape:path-effect
       is_visible="true"
       id="path-effect29553-7"
       effect="spiro"
       lpeversion="0" />
    <inkscape:path-effect
       is_visible="true"
       id="path-effect29707-7-6"
       effect="spiro"
       lpeversion="0" />
    <clipPath
       clipPathUnits="userSpaceOnUse"
       id="clipPath14656-7">
      <path
         sodipodi:nodetypes="aaaaassssaaaaaa"
         inkscape:connector-curvature="0"
         d="m 304.84727,225.44951 c 6.01627,4.92338 9.77707,12.317 10.94319,20.00305 1.8254,12.03148 -2.34636,24.07488 -6.44591,35.53273 -0.81749,2.28481 -1.63978,4.59033 -1.96473,6.99513 -0.32495,2.4048 -0.11897,4.94825 1.02948,7.08594 1.30279,2.42497 3.73227,4.12469 6.36677,4.92292 2.58877,0.78438 5.39365,0.76103 8.01466,0.0922 2.62101,-0.66882 5.06097,-1.96774 7.18716,-3.63996 5.48002,-4.30997 8.75799,-10.98552 10.01043,-17.84394 1.25243,-6.85841 0.63908,-13.92879 -0.551,-20.7983 -1.62313,-9.36916 -4.30898,-18.53961 -7.74003,-27.40773 -2.51766,-6.50732 -5.46794,-12.91081 -9.61753,-18.52016 -4.04611,-5.46946 -9.16208,-10.08954 -13.10336,-15.63502 -2.73209,-3.84412 -4.89983,-8.13097 -8.1917,-11.50812 -1.64594,-1.68858 -3.57654,-3.13527 -5.76975,-4.00143 -2.19321,-0.86616 -4.66356,-1.12446 -6.93254,-0.48249 -1.50468,0.42573 -2.89193,1.23739 -4.03791,2.30136 -1.14598,1.06397 -2.05268,2.37637 -2.69275,3.80312 -1.28015,2.85349 -1.47719,6.11241 -0.96512,9.1977 0.66114,3.98343 2.44407,7.69333 4.46569,11.18873 2.27396,3.93169 4.918,7.71926 8.38442,10.65407 3.5985,3.04664 7.96161,5.07413 11.61053,8.0602"
         id="path14658-9"
         inkscape:original-d="m 304.84727,225.44951 c 5.05628,5.63479 9.72833,12.47181 10.94319,20.00305 1.91724,11.88535 -4.97006,23.58228 -6.44591,35.53273 -0.57645,4.66766 -2.84839,9.7988 -0.93525,14.08107 1.10334,2.46967 3.76154,4.35176 6.36677,4.92292 5.08221,1.1142 11.95719,2.41291 15.20182,-3.54776 6.07775,-11.16533 10.5961,-26.78641 9.45943,-38.64224 -0.906,-9.44981 -3.86858,-18.61978 -7.74003,-27.40773 -2.817,-6.39442 -6.14704,-12.5833 -9.61753,-18.52016 -3.44146,-5.88721 -8.20051,-10.94245 -13.10336,-15.63502 -6.34842,-6.07614 -12.40311,-17.98386 -20.89399,-15.99204 -5.48499,1.28669 -7.45029,9.57719 -7.69578,15.30218 -0.17245,4.02188 2.46425,7.71677 4.46569,11.18873 2.26238,3.92465 5.10447,7.56255 8.38442,10.65407 3.43735,3.23988 8.4511,4.53927 11.61053,8.0602 z"
         style="fill:none;stroke:#c17d11;stroke-width:1px;stroke-linecap:butt;stroke-linejoin:miter;stroke-opacity:1" />
    </clipPath>
    <inkscape:path-effect
       is_visible="true"
       id="path-effect4500-7"
       effect="spiro"
       lpeversion="0" />
    <inkscape:path-effect
       is_visible="true"
       id="path-effect4582-3"
       effect="spiro"
       lpeversion="0" />
    <clipPath
       clipPathUnits="userSpaceOnUse"
       id="clipPath14489-3">
      <path
         style="fill:url(#linearGradient14485);fill-opacity:1;stroke:none"
         d="m 516.00562,331.8756 c 0.90859,1.59687 -1.57016,3.38773 -2.81579,4.73826 -2.74207,2.97299 -6.45099,4.90178 -9.89648,7.01985 -5.91373,3.63539 -12.61918,5.90302 -18.41964,9.71654 -3.88318,2.553 -7.32809,5.72221 -10.86016,8.74238 -3.0221,2.58411 -5.48201,5.87643 -8.83247,8.01771 -3.3519,2.1422 -7.0437,4.15414 -10.99061,4.6502 -4.78298,0.60114 -9.87221,-0.25577 -14.29898,-2.16416 -3.0947,-1.33413 -6.16113,-3.38144 -7.96301,-6.22931 -1.81288,-2.86525 -2.06093,-6.5375 -2.23266,-9.92375 -0.30734,-6.06031 1.36252,-12.0605 2.17848,-18.07349 0.67882,-5.00236 1.85312,-9.94325 2.26013,-14.97502 0.73946,-9.14185 -0.7797,-18.40771 0.3199,-27.51327 0.35468,-2.93704 -0.181,-6.65876 2.01238,-8.64398 2.0384,-1.84494 5.43058,-1.1212 8.17929,-1.06253 3.34492,0.0714 6.63224,0.95108 9.88917,1.71656 2.05612,0.48325 3.99816,1.41138 6.0722,1.81081 3.44031,0.66255 6.96573,1.06623 10.46739,0.95192 3.78516,-0.12356 7.43659,-1.79636 11.22363,-1.76474 1.55185,0.013 3.12359,0.28186 4.58649,0.79985 1.48266,0.52499 2.98786,1.20618 4.12281,2.29512 0.86547,0.83038 1.42933,1.95676 1.87872,3.06879 0.67163,1.66196 0.8942,3.4778 1.16703,5.24945 0.24238,1.57389 -0.1531,3.27141 0.41433,4.75933 1.83023,4.79924 5.57666,8.72712 9.22489,12.34277 1.74278,1.93455 4.03041,3.53404 6.16708,4.82839 2.26886,1.37444 4.3675,2.44991 5.46279,4.81597 0.65901,1.48517 -0.54371,3.76097 0.68307,4.82635 z"
         id="path14491-6"
         inkscape:connector-curvature="0"
         sodipodi:nodetypes="aaaaaaaaaaaaaaaaaaaaaaaacscaa" />
    </clipPath>
    <inkscape:path-effect
       effect="spiro"
       id="path-effect14300-7"
       is_visible="true"
       lpeversion="0" />
    <clipPath
       clipPathUnits="userSpaceOnUse"
       id="clipPath14481-1">
      <path
         style="fill:url(#linearGradient14485);fill-opacity:1;stroke:none"
         d="m 516.00562,331.8756 c 0.90859,1.59687 -1.57016,3.38773 -2.81579,4.73826 -2.74207,2.97299 -6.45099,4.90178 -9.89648,7.01985 -5.91373,3.63539 -12.61918,5.90302 -18.41964,9.71654 -3.88318,2.553 -7.32809,5.72221 -10.86016,8.74238 -3.0221,2.58411 -5.48201,5.87643 -8.83247,8.01771 -3.3519,2.1422 -7.0437,4.15414 -10.99061,4.6502 -4.78298,0.60114 -9.87221,-0.25577 -14.29898,-2.16416 -3.0947,-1.33413 -6.16113,-3.38144 -7.96301,-6.22931 -1.81288,-2.86525 -2.06093,-6.5375 -2.23266,-9.92375 -0.30734,-6.06031 1.36252,-12.0605 2.17848,-18.07349 0.67882,-5.00236 1.85312,-9.94325 2.26013,-14.97502 0.73946,-9.14185 -0.7797,-18.40771 0.3199,-27.51327 0.35468,-2.93704 -0.181,-6.65876 2.01238,-8.64398 2.0384,-1.84494 5.43058,-1.1212 8.17929,-1.06253 3.34492,0.0714 6.63224,0.95108 9.88917,1.71656 2.05612,0.48325 3.99816,1.41138 6.0722,1.81081 3.44031,0.66255 6.96573,1.06623 10.46739,0.95192 3.78516,-0.12356 7.43659,-1.79636 11.22363,-1.76474 1.55185,0.013 3.12359,0.28186 4.58649,0.79985 1.48266,0.52499 2.98786,1.20618 4.12281,2.29512 0.86547,0.83038 1.42933,1.95676 1.87872,3.06879 0.67163,1.66196 0.8942,3.4778 1.16703,5.24945 0.24238,1.57389 -0.1531,3.27141 0.41433,4.75933 1.83023,4.79924 5.57666,8.72712 9.22489,12.34277 1.74278,1.93455 4.03041,3.53404 6.16708,4.82839 2.26886,1.37444 4.3675,2.44991 5.46279,4.81597 0.65901,1.48517 -0.54371,3.76097 0.68307,4.82635 z"
         id="path14483-3"
         inkscape:connector-curvature="0"
         sodipodi:nodetypes="aaaaaaaaaaaaaaaaaaaaaaaacscaa" />
    </clipPath>
    <inkscape:path-effect
       effect="spiro"
       id="path-effect14300-2-7"
       is_visible="true"
       lpeversion="0" />
    <clipPath
       clipPathUnits="userSpaceOnUse"
       id="clipPath14473-5">
      <path
         style="fill:url(#linearGradient14477);fill-opacity:1;stroke:none"
         d="m 511.82669,331.89986 c 0.79493,1.29584 -1.37375,2.7491 -2.46357,3.84504 -2.39907,2.41255 -5.64405,3.97773 -8.65855,5.69652 -5.17399,2.95008 -11.04067,4.79023 -16.11556,7.88485 -3.39744,2.07173 -6.41144,4.64351 -9.50169,7.09434 -2.64407,2.09697 -4.79627,4.76865 -7.72763,6.50627 -2.93262,1.73837 -6.16262,3.37103 -9.61582,3.77358 -4.18468,0.48781 -8.63731,-0.20756 -12.51035,-1.75619 -2.70759,-1.08263 -5.39044,-2.744 -6.96693,-5.05501 -1.58611,-2.32511 -1.80313,-5.3051 -1.95338,-8.053 -0.2689,-4.91787 1.19208,-9.78694 1.90598,-14.66641 0.59391,-4.05935 1.62131,-8.06882 1.97741,-12.15204 0.64696,-7.4185 -0.68217,-14.93763 0.27989,-22.32668 0.31031,-2.38337 -0.15836,-5.4035 1.76065,-7.01448 1.78342,-1.49715 4.75128,-0.90984 7.15616,-0.86223 2.92651,0.0579 5.80263,0.77179 8.65215,1.39297 1.79893,0.39215 3.49804,1.14531 5.31265,1.46945 3.00996,0.53765 6.0944,0.86523 9.15804,0.77247 3.31168,-0.10027 6.50636,-1.45773 9.81969,-1.43207 1.35773,0.0105 2.73287,0.22873 4.01277,0.64907 1.2972,0.42602 2.61412,0.9788 3.6071,1.86246 0.75721,0.67384 1.25054,1.58789 1.64371,2.49029 0.58762,1.34866 0.78235,2.82219 1.02105,4.25986 0.21206,1.27719 -0.13395,2.65471 0.36251,3.86214 1.60129,3.89452 4.87908,7.08195 8.07096,10.016 1.52478,1.56986 3.52626,2.86783 5.39565,3.91818 1.98506,1.11534 3.82118,1.98807 4.77946,3.9081 0.57658,1.2052 -0.47569,3.05198 0.59763,3.91652 z"
         id="path14475-9"
         inkscape:connector-curvature="0"
         sodipodi:nodetypes="aaaaaaaaaaaaaaaaaaaaaaaacscaa" />
    </clipPath>
    <inkscape:path-effect
       effect="spiro"
       id="path-effect14300-2-2-0"
       is_visible="true"
       lpeversion="0" />
    <linearGradient
       id="linearGradient14518-6">
      <stop
         id="stop14540-0"
         offset="0"
         style="stop-color:#110800;stop-opacity:1;" />
      <stop
         style="stop-color:#a65a00;stop-opacity:0.80000001;"
         offset="0.59066743"
         id="stop14542-5" />
      <stop
         style="stop-color:#ff921e;stop-opacity:0;"
         offset="1"
         id="stop14522-4" />
    </linearGradient>
    <inkscape:path-effect
       is_visible="true"
       id="path-effect29716-0-0"
       effect="spiro"
       lpeversion="0" />
    <inkscape:path-effect
       is_visible="true"
       id="path-effect29716-0-8-3"
       effect="spiro"
       lpeversion="0" />
    <inkscape:path-effect
       is_visible="true"
       id="path-effect29716-6-1"
       effect="spiro"
       lpeversion="0" />
    <clipPath
       clipPathUnits="userSpaceOnUse"
       id="clipPath14822-9">
      <path
         sodipodi:nodetypes="aaaasssaccaa"
         inkscape:connector-curvature="0"
         d="m 386.1875,285.32775 c -0.40516,-1.10369 -1.11845,-2.08156 -1.9907,-2.86987 -0.87226,-0.78832 -1.90049,-1.39229 -2.98278,-1.85155 -2.16459,-0.91852 -4.52053,-1.26149 -6.83152,-1.69556 -2.17919,-0.40931 -4.34179,-0.90631 -6.52782,-1.27734 -2.27136,-0.38551 -4.6179,-0.63213 -6.8653,-0.1253 -1.96583,0.44333 -3.7845,1.45879 -5.27172,2.81864 -1.48723,1.35984 -2.64911,3.0564 -3.48499,4.89007 -1.47218,3.22952 -1.93451,6.86503 -1.65394,10.40316 0.20882,2.63325 0.87532,5.34594 2.60877,7.33912 1.40065,1.61052 3.38733,2.61526 5.43398,3.22092 3.52502,1.04316 7.36663,0.98822 10.86038,-0.1553 5.76689,-1.93113 10.87568,-5.77387 14.33034,-10.77903 1.13861,-1.64963 2.11217,-3.44809 2.5532,-5.4034 0.33597,-1.48955 0.34831,-3.08112 -0.1779,-4.51456"
         id="path14824-1"
         inkscape:original-d="m 386.1875,285.32775 c -2.36571,-3.81321 -7.59294,-4.9003 -11.805,-6.41698 -2.08672,-0.75138 -4.32322,-1.04333 -6.52782,-1.27734 -2.27612,-0.2416 -4.71593,-0.91505 -6.8653,-0.1253 -3.64566,1.33955 -7.24986,3.80684 -8.75671,7.70871 -1.13743,2.94527 -1.80122,7.05909 -1.65394,10.40316 0.13075,2.96891 0.9633,5.07273 2.60877,7.33912 1.08803,1.49859 3.40096,2.67896 5.43398,3.22092 3.49923,0.93284 7.37483,0.82779 10.86038,-0.1553 5.98587,-2.2615 11.09272,-5.76885 14.33034,-10.77903 1.07459,-1.67639 2.15539,-3.45031 2.5532,-5.4034 0.30053,-1.4755 0.61519,-3.23621 -0.1779,-4.51456 z"
         style="fill:none;stroke:#ce5c00;stroke-width:1px;stroke-linecap:butt;stroke-linejoin:miter;stroke-opacity:1" />
    </clipPath>
    <clipPath
       clipPathUnits="userSpaceOnUse"
       id="clipPath14822-2-4">
      <path
         sodipodi:nodetypes="aaaasssaccaa"
         inkscape:connector-curvature="0"
         d="m 386.1875,285.32775 c -0.40516,-1.10369 -1.11845,-2.08156 -1.9907,-2.86987 -0.87226,-0.78832 -1.90049,-1.39229 -2.98278,-1.85155 -2.16459,-0.91852 -4.52053,-1.26149 -6.83152,-1.69556 -2.17919,-0.40931 -4.34179,-0.90631 -6.52782,-1.27734 -2.27136,-0.38551 -4.6179,-0.63213 -6.8653,-0.1253 -1.96583,0.44333 -3.7845,1.45879 -5.27172,2.81864 -1.48723,1.35984 -2.64911,3.0564 -3.48499,4.89007 -1.47218,3.22952 -1.93451,6.86503 -1.65394,10.40316 0.20882,2.63325 0.87532,5.34594 2.60877,7.33912 1.40065,1.61052 3.38733,2.61526 5.43398,3.22092 3.52502,1.04316 7.36663,0.98822 10.86038,-0.1553 5.76689,-1.93113 10.87568,-5.77387 14.33034,-10.77903 1.13861,-1.64963 2.11217,-3.44809 2.5532,-5.4034 0.33597,-1.48955 0.34831,-3.08112 -0.1779,-4.51456"
         id="path14824-6-5"
         inkscape:original-d="m 386.1875,285.32775 c -2.36571,-3.81321 -7.59294,-4.9003 -11.805,-6.41698 -2.08672,-0.75138 -4.32322,-1.04333 -6.52782,-1.27734 -2.27612,-0.2416 -4.71593,-0.91505 -6.8653,-0.1253 -3.64566,1.33955 -7.24986,3.80684 -8.75671,7.70871 -1.13743,2.94527 -1.80122,7.05909 -1.65394,10.40316 0.13075,2.96891 0.9633,5.07273 2.60877,7.33912 1.08803,1.49859 3.40096,2.67896 5.43398,3.22092 3.49923,0.93284 7.37483,0.82779 10.86038,-0.1553 5.98587,-2.2615 11.09272,-5.76885 14.33034,-10.77903 1.07459,-1.67639 2.15539,-3.45031 2.5532,-5.4034 0.30053,-1.4755 0.61519,-3.23621 -0.1779,-4.51456 z"
         style="fill:none;stroke:#ce5c00;stroke-width:1px;stroke-linecap:butt;stroke-linejoin:miter;stroke-opacity:1" />
    </clipPath>
    <inkscape:path-effect
       effect="spiro"
       id="path-effect14972-2-2"
       is_visible="true"
       lpeversion="0" />
    <clipPath
       clipPathUnits="userSpaceOnUse"
       id="clipPath15031-3">
      <path
         style="fill:none;stroke:#729fcf;stroke-width:0.125;stroke-linecap:butt;stroke-linejoin:miter;stroke-miterlimit:4;stroke-dasharray:none;stroke-opacity:1"
         d="m 248.06066,184.61218 c 0,0 -5.10626,6.34527 -7.89695,10.24696 -2.7907,3.9017 -5.73652,6.64881 -8.58729,10.75139 -2.85076,4.10259 -7.36482,9.43164 -9.44912,13.93045 -2.08429,4.49881 -2.32047,9.0356 -4.26498,13.84932 -1.94451,4.81371 -3.70129,10.64183 -5.97071,15.33612 -2.26943,4.69429 -5.37093,9.68473 -6.93891,13.53553 -1.56799,3.8508 -3.81119,5.72384 -4.10782,10.22071 -0.29663,4.49686 -0.57747,8.31749 3.77151,16.77227 4.34898,8.45478 17.23626,22.00721 24.24176,27.92472 7.00549,5.9175 9.39133,7.22492 14.60245,8.52595 5.21112,1.30104 13.85627,2.9981 16.72874,-1.2702 2.87246,-4.26829 2.27191,-5.96483 -0.74863,-10.66616 -3.02055,-4.70132 -4.82469,-5.30209 -9.79642,-9.57343 -4.97172,-4.27133 -18.63696,-14.87266 -22.68212,-19.23996 -4.04516,-4.36729 -7.10731,-3.41164 -5.53019,-6.28412 1.57712,-2.87249 -2.20738,-4.00856 -2.65783,-7.69253 -0.76361,-6.24511 0.9436,-18.71046 1.45958,-22.13343 0.51598,-3.42296 1.22371,-2.92446 3.51815,-8.03965 2.29444,-5.11519 4.12424,-8.62435 7.04933,-13.46723 2.92509,-4.84289 8.62493,-10.12787 11.15147,-15.27803 2.52654,-5.15017 3.50393,-10.72068 4.36185,-15.31831 0.85792,-4.59763 1.74613,-12.13037 1.74613,-12.13037 z"
         id="path15033-2"
         inkscape:connector-curvature="0"
         sodipodi:nodetypes="czzzzzzzzzzzzzzzszzzzzc" />
    </clipPath>
    <inkscape:path-effect
       effect="spiro"
       id="path-effect15017-9"
       is_visible="true"
       lpeversion="0" />
    <clipPath
       clipPathUnits="userSpaceOnUse"
       id="clipPath14186-9">
      <path
         inkscape:original-d="m 137.57703,281.0191 c 6.32494,-1.3585 11.99755,4.87308 16.86679,9.13228 6.42572,5.62067 -8.54781,26.01622 13.24488,19.8293 5.86081,-1.66388 6.89528,11.31183 10.16415,16.45304 4.09971,6.44793 11.58575,13.6827 13.65231,21.03883 1.58383,5.63779 1.34339,10.90606 -1.62666,15.95302 -3.57124,6.06857 -11.7907,10.42929 -18.78877,11.20919 -5.73056,0.63864 -11.87822,-3.8351 -17.38362,-5.54906 -12.31617,-3.83432 -23.77946,-5.82074 -36.09666,-9.65174 -2.50091,-0.77785 -8.28361,-2.638 -10.96988,-3.42629 -4.51043,-1.3236 -6.46556,-0.99271 -8.72046,-4.76819 -2.68251,-4.49147 0.68051,-9.72669 3.16379,-14.79408 4.06995,-8.30524 1.91195,-17.82603 0.46203,-25.51057 -0.92235,-4.8884 -0.66071,-7.92707 2.7425,-10.79139 4.99476,-4.20385 14.53027,-1.53186 20.35272,-4.08305 5.82246,-2.55119 6.66365,-13.6939 12.93688,-15.04129 z"
         sodipodi:nodetypes="ssssssssssssssss"
         inkscape:connector-curvature="0"
         id="path14188-1"
         d="m 137.57703,281.0191 c 1.59929,-0.66295 3.3982,-0.78361 5.10074,-0.46963 1.70253,0.31398 3.31141,1.04948 4.74342,2.02239 2.86402,1.94583 4.98821,4.77774 7.02263,7.57952 4.67189,6.43406 9.16868,13.00227 13.24488,19.8293 3.30635,5.53766 6.34352,11.25685 10.16415,16.45304 2.49398,3.3919 5.3066,6.53947 7.813,9.92221 2.50639,3.38273 4.72794,7.05586 5.83931,11.11662 1.44411,5.27653 0.88463,11.09291 -1.62666,15.95302 -1.76663,3.41896 -4.47646,6.35228 -7.77242,8.33898 -3.29595,1.9867 -7.17064,3.01444 -11.01635,2.87021 -6.11413,-0.2293 -11.69944,-3.28515 -17.38362,-5.54906 -11.58097,-4.6125 -24.15978,-6.0594 -36.09666,-9.65174 -3.66859,-1.10404 -7.27582,-2.4107 -10.96988,-3.42629 -1.64125,-0.45122 -3.30866,-0.8482 -4.85875,-1.55144 -1.55008,-0.70325 -2.999548,-1.7491 -3.86171,-3.21675 -0.666391,-1.13439 -0.948386,-2.47002 -0.930187,-3.78554 0.0182,-1.31552 0.325889,-2.61453 0.773815,-3.85158 0.895851,-2.47409 2.343262,-4.71374 3.320162,-7.15696 1.59511,-3.98935 1.88169,-8.38839 1.66657,-12.67942 -0.21511,-4.29103 -0.91078,-8.54478 -1.20454,-12.83115 -0.13118,-1.91406 -0.18066,-3.85256 0.18479,-5.73598 0.36545,-1.88343 1.17577,-3.72459 2.55771,-5.05541 1.27406,-1.22693 2.96492,-1.95531 4.69643,-2.31651 1.73151,-0.3612 3.51533,-0.37747 5.28367,-0.33762 1.76833,0.0399 3.54067,0.13425 5.30351,-0.0106 1.76284,-0.14488 3.53347,-0.54055 5.06911,-1.41828 1.45996,-0.83447 2.65433,-2.0745 3.64374,-3.43424 0.9894,-1.35974 1.78909,-2.84573 2.60891,-4.31396 0.81983,-1.46823 1.66834,-2.93151 2.74157,-4.22611 1.07324,-1.2946 2.38923,-2.42304 3.94266,-3.06698"
         style="fill:#402c07;fill-opacity:1;stroke:none" />
    </clipPath>
    <inkscape:path-effect
       is_visible="true"
       id="path-effect4669-1"
       effect="spiro"
       lpeversion="0" />
    <inkscape:path-effect
       is_visible="true"
       id="path-effect4669-4-3"
       effect="spiro"
       lpeversion="0" />
    <radialGradient
       r="7.0476027"
       fy="-29.007458"
       fx="223.78369"
       cy="-29.007458"
       cx="223.78369"
       gradientTransform="matrix(1.1065117,0,0,1.1256532,149.09222,92.008437)"
       gradientUnits="userSpaceOnUse"
       id="radialGradient6968"
       xlink:href="#linearGradient5672"
       inkscape:collect="always" />
    <linearGradient
       id="linearGradient5672"
       inkscape:collect="always">
      <stop
         id="stop5668"
         offset="0"
         style="stop-color:#008080;stop-opacity:1" />
      <stop
         style="stop-color:#008080;stop-opacity:1"
         offset="0.9170109"
         id="stop5676" />
      <stop
         id="stop5670"
         offset="1"
         style="stop-color:#00474d;stop-opacity:1" />
    </linearGradient>
    <linearGradient
       y2="19.336046"
       x2="20.920582"
       y1="11.785198"
       x1="12.291612"
       gradientTransform="matrix(1.1064406,0,0,1.1255808,378.27981,42.372558)"
       gradientUnits="userSpaceOnUse"
       id="linearGradient6970"
       xlink:href="#linearGradient5369-7"
       inkscape:collect="always" />
    <linearGradient
       inkscape:collect="always"
       id="linearGradient5369-7">
      <stop
         style="stop-color:#dbf0fa;stop-opacity:1"
         offset="0"
         id="stop5365-5" />
      <stop
         style="stop-color:#f8fcfe;stop-opacity:0.71276593"
         offset="1"
         id="stop5367" />
    </linearGradient>
    <linearGradient
       y2="21.695408"
       x2="6.581181"
       y1="24.508139"
       x1="8.9753504"
       gradientTransform="matrix(1.1064406,0,0,1.1255808,378.27981,42.372558)"
       gradientUnits="userSpaceOnUse"
       id="linearGradient6973"
       xlink:href="#linearGradient5534"
       inkscape:collect="always" />
    <linearGradient
       id="linearGradient5534"
       inkscape:collect="always">
      <stop
         id="stop5529"
         offset="0"
         style="stop-color:#ffbe00;stop-opacity:1" />
      <stop
         id="stop5532"
         offset="1"
         style="stop-color:#ffcc9a;stop-opacity:1" />
    </linearGradient>
    <linearGradient
       y2="-84.434196"
       x2="60.957924"
       y1="-73.120491"
       x1="73.930481"
       gradientTransform="matrix(0.68610202,0,0,0.68610202,350.43574,115.19554)"
       gradientUnits="userSpaceOnUse"
       id="linearGradient6977"
       xlink:href="#linearGradient5696"
       inkscape:collect="always" />
    <linearGradient
       id="linearGradient5696"
       inkscape:collect="always">
      <stop
         id="stop5692"
         offset="0"
         style="stop-color:#f9f9f9;stop-opacity:1;" />
      <stop
         id="stop5694"
         offset="1"
         style="stop-color:#f9f9f9;stop-opacity:0;" />
    </linearGradient>
  </defs>
  <sodipodi:namedview
     id="base"
     pagecolor="#ffffff"
     bordercolor="#666666"
     borderopacity="1.0"
     inkscape:pageopacity="0.0"
     inkscape:pageshadow="2"
     inkscape:zoom="8.0000001"
     inkscape:cx="8.3765668"
     inkscape:cy="18.177732"
     inkscape:document-units="px"
     inkscape:current-layer="layer1"
     inkscape:document-rotation="0"
     showgrid="false"
     units="px"
     inkscape:window-width="861"
     inkscape:window-height="704"
     inkscape:window-x="0"
     inkscape:window-y="0"
     inkscape:window-maximized="0" />
  <metadata
     id="metadata5">
    <rdf:RDF>
      <cc:Work
         rdf:about="">
        <dc:format>image/svg+xml</dc:format>
        <dc:type
           rdf:resource="http://purl.org/dc/dcmitype/StillImage" />
        <dc:title />
      </cc:Work>
    </rdf:RDF>
  </metadata>
  <g
     inkscape:label="Layer 1"
     inkscape:groupmode="layer"
     id="layer1">
    <g
       transform="matrix(0.26455472,0,0,0.26458298,-109.07231,-28.059243)"
       id="g7372">
      <g
         id="g6966"
         transform="matrix(-1.1932323,0,0,1.1932323,898.25261,47.592456)">
        <path
           inkscape:connector-curvature="0"
           style="fill:#4d4d4d;stroke:none;stroke-width:0.248945;stroke-linecap:round;stroke-linejoin:round;stroke-opacity:1"
           d="m 397.03762,51.63165 a 7.7982556,7.9331561 0 0 0 -7.7988,7.932287 7.7982556,7.9331561 0 0 0 7.7988,7.934167 7.7982556,7.9331561 0 0 0 7.79879,-7.934167 7.7982556,7.9331561 0 0 0 -7.79879,-7.932287 z m -0.32527,1.045354 a 6.564899,6.6784643 0 0 1 6.56355,6.678237 6.564899,6.6784643 0 0 1 -6.56355,6.680118 6.564899,6.6784643 0 0 1 -6.56543,-6.680118 6.564899,6.6784643 0 0 1 6.56543,-6.678237 z"
           id="path6954" />
        <path
           d="m 390.89591,64.059792 c 0.54596,0.799467 1.18226,1.445268 1.96912,1.998669 -2.48892,2.439832 -4.9776,4.879914 -7.46653,7.319745 -0.64321,-0.679194 -1.28666,-1.358139 -1.92988,-2.037084 2.47584,-2.427279 4.95144,-4.854304 7.42729,-7.28133 z"
           id="path6956"
           inkscape:connector-curvature="0"
           style="fill:#808080;fill-opacity:1;stroke:none;stroke-width:0.248945;stroke-linecap:round;stroke-linejoin:round;stroke-opacity:1" />
        <path
           inkscape:connector-curvature="0"
           style="fill:url(#radialGradient6968);fill-opacity:1;stroke:none;stroke-width:0.248945;stroke-linecap:round;stroke-linejoin:round;stroke-opacity:1"
           d="m 396.71235,51.422955 a 7.7982556,7.9331561 0 0 0 -7.79879,7.932286 7.7982556,7.9331561 0 0 0 7.79879,7.934168 7.7982556,7.9331561 0 0 0 7.79692,-7.934168 7.7982556,7.9331561 0 0 0 -7.79692,-7.932286 z m 0,1.254049 a 6.564899,6.6784643 0 0 1 6.56355,6.678237 6.564899,6.6784643 0 0 1 -6.56355,6.680118 6.564899,6.6784643 0 0 1 -6.56543,-6.680118 6.564899,6.6784643 0 0 1 6.56543,-6.678237 z"
           id="path6958" />
        <ellipse
           ry="6.6784644"
           rx="6.564899"
           style="opacity:0.696;fill:url(#linearGradient6970);fill-opacity:1;stroke:#ececec;stroke-width:0.248945;stroke-linecap:round;stroke-linejoin:round;stroke-opacity:1"
           id="ellipse6960"
           cy="59.356098"
           cx="396.71149" />
        <path
           style="fill:url(#linearGradient6973);fill-opacity:1;stroke:none;stroke-width:0.248945;stroke-linecap:round;stroke-linejoin:round;stroke-opacity:1"
           inkscape:connector-curvature="0"
           id="path6962"
           d="m 390.30753,63.882729 c 0.54596,0.799466 1.18226,1.445268 1.96913,1.998667 -2.48894,2.439833 -4.97761,4.879915 -7.46654,7.319746 -0.64321,-0.679195 -1.28667,-1.358139 -1.92988,-2.037084 2.47585,-2.427278 4.95145,-4.854304 7.42729,-7.281329 z" />
        <path
           inkscape:connector-curvature="0"
           id="path6964"
           d="m 399.4891,56.780091 c -1.76354,0.186534 -3.34621,0.949798 -4.53583,2.092065 -1.00313,0.963201 -1.72231,2.19635 -2.04118,3.573943 0.65645,1.785131 2.42468,3.066312 4.50854,3.066312 2.64257,0 4.78399,-2.056956 4.78399,-4.594339 0,-1.824835 -1.11025,-3.396548 -2.71552,-4.137981 z"
           style="opacity:1;fill:url(#linearGradient6977);fill-opacity:1;fill-rule:nonzero;stroke:none;stroke-width:0.602987;stroke-linecap:butt;stroke-linejoin:round;stroke-miterlimit:4;stroke-dasharray:none;stroke-dashoffset:0;stroke-opacity:1" />
      </g>
      <g
         style="font-style:normal;font-variant:normal;font-weight:normal;font-stretch:normal;font-size:44.7117px;line-height:1.25;font-family:calibri;-inkscape-font-specification:calibri;letter-spacing:0px;word-spacing:0px;fill:#ffffff;fill-opacity:1;stroke:none;stroke-width:1.11779"
         id="text6985"
         aria-label="-">
        <path
           id="path984"
           style="fill:#ffffff;stroke-width:1.11779"
           d="m 420.22253,115.39435 h 11.76738 v 3.58043 h -11.76738 z" />
      </g>
      <g
         style="font-style:normal;font-variant:normal;font-weight:normal;font-stretch:normal;font-size:40px;line-height:1.25;font-family:calibri;-inkscape-font-specification:calibri;letter-spacing:0px;word-spacing:0px;fill:#008080;fill-opacity:1;stroke:none"
         id="text6981"
         aria-label="-">
        <path
           id="path987"
           d="m 420.71371,115.713 h 10.52735 v 3.20312 h -10.52735 z" />
      </g>
    </g>
  </g>
</svg>
