<?xml version="1.0" encoding="UTF-8" standalone="no"?>
<svg
   xmlns:dc="http://purl.org/dc/elements/1.1/"
   xmlns:cc="http://creativecommons.org/ns#"
   xmlns:rdf="http://www.w3.org/1999/02/22-rdf-syntax-ns#"
   xmlns:svg="http://www.w3.org/2000/svg"
   xmlns="http://www.w3.org/2000/svg"
   xmlns:xlink="http://www.w3.org/1999/xlink"
   xmlns:sodipodi="http://sodipodi.sourceforge.net/DTD/sodipodi-0.dtd"
   xmlns:inkscape="http://www.inkscape.org/namespaces/inkscape"
   sodipodi:docname="tool104.svg"
   inkscape:version="1.0 (1.0+r73+1)"
   id="svg8"
   version="1.1"
   viewBox="0 0 8.4666665 8.4666669"
   height="32"
   width="32">
  <defs
     id="defs2">
    <inkscape:path-effect
       only_selected="false"
       apply_with_weight="true"
       apply_no_weight="true"
       helper_size="0"
       steps="2"
       weight="33.333333"
       is_visible="true"
       id="path-effect8657"
       effect="bspline"
       lpeversion="0" />
    <inkscape:path-effect
       only_selected="false"
       apply_with_weight="true"
       apply_no_weight="true"
       helper_size="0"
       steps="2"
       weight="33.333333"
       is_visible="true"
       id="path-effect5573"
       effect="bspline"
       lpeversion="0" />
    <inkscape:path-effect
       effect="bspline"
       id="path-effect5569"
       is_visible="true"
       weight="33.333333"
       steps="2"
       helper_size="0"
       apply_no_weight="true"
       apply_with_weight="true"
       only_selected="false"
       lpeversion="0" />
    <inkscape:path-effect
       effect="bspline"
       id="path-effect8548"
       is_visible="true"
       weight="33.333333"
       steps="2"
       helper_size="0"
       apply_no_weight="true"
       apply_with_weight="true"
       only_selected="false"
       lpeversion="0" />
    <inkscape:path-effect
       only_selected="false"
       apply_with_weight="true"
       apply_no_weight="true"
       helper_size="0"
       steps="2"
       weight="33.333333"
       is_visible="true"
       id="path-effect8543"
       effect="bspline"
       lpeversion="0" />
    <inkscape:path-effect
       only_selected="false"
       apply_with_weight="true"
       apply_no_weight="true"
       helper_size="0"
       steps="2"
       weight="33.333333"
       is_visible="true"
       id="path-effect5525"
       effect="bspline"
       lpeversion="0" />
    <linearGradient
       inkscape:collect="always"
       id="linearGradient8532">
      <stop
         style="stop-color:#2929ff;stop-opacity:1"
         offset="0"
         id="stop8526" />
      <stop
         id="stop8528"
         offset="0.2402378"
         style="stop-color:#6464e9;stop-opacity:1" />
      <stop
         style="stop-color:#1515f0;stop-opacity:1"
         offset="0.88697171"
         id="stop8534" />
      <stop
         style="stop-color:#0000d1;stop-opacity:1"
         offset="1"
         id="stop8530" />
    </linearGradient>
    <linearGradient
       gradientTransform="matrix(1.1019365,0,0,1.1019365,-27.739221,-18.502129)"
       gradientUnits="userSpaceOnUse"
       y2="176.5014"
       x2="285.33841"
       y1="176.5014"
       x1="258.6178"
       id="linearGradient6517"
       xlink:href="#linearGradient8532"
       inkscape:collect="always" />
    <inkscape:path-effect
       only_selected="false"
       apply_with_weight="true"
       apply_no_weight="true"
       helper_size="0"
       steps="2"
       weight="33.333333"
       is_visible="true"
       id="path-effect6612"
       effect="bspline"
       lpeversion="0" />
    <inkscape:path-effect
       bendpath4="M 5.5913706,3.2616329 V 141.06515"
       bendpath3="M 5.5913706,141.06515 H 480.39194"
       bendpath2="M 480.39194,3.2616329 V 141.06515"
       bendpath1="M 5.5913706,3.2616329 H 480.39194"
       xx="true"
       yy="true"
       is_visible="true"
       id="path-effect6709"
       effect="envelope"
       lpeversion="0" />
    <inkscape:path-effect
       lpeversion="0"
       effect="bspline"
       id="path-effect7258"
       is_visible="true"
       weight="33.333333"
       steps="2"
       helper_size="0"
       apply_no_weight="true"
       apply_with_weight="true"
       only_selected="false" />
    <inkscape:path-effect
       lpeversion="0"
       effect="bspline"
       id="path-effect7262"
       is_visible="true"
       weight="33.333333"
       steps="2"
       helper_size="0"
       apply_no_weight="true"
       apply_with_weight="true"
       only_selected="false" />
    <inkscape:path-effect
       lpeversion="0"
       effect="bspline"
       id="path-effect7266"
       is_visible="true"
       weight="33.333333"
       steps="2"
       helper_size="0"
       apply_no_weight="true"
       apply_with_weight="true"
       only_selected="false" />
    <linearGradient
       id="linearGradient6303">
      <stop
         style="stop-color:#ffd43b;stop-opacity:1"
         offset="0"
         id="stop6299" />
      <stop
         id="stop6305"
         offset="0.65879381"
         style="stop-color:#ffdd3e;stop-opacity:1" />
      <stop
         style="stop-color:#ffed92;stop-opacity:1"
         offset="1"
         id="stop6301" />
    </linearGradient>
    <inkscape:path-effect
       lpeversion="0"
       effect="spiro"
       id="path-effect29672-0"
       is_visible="true" />
    <inkscape:path-effect
       lpeversion="0"
       effect="spiro"
       id="path-effect29678-1"
       is_visible="true" />
    <inkscape:path-effect
       lpeversion="0"
       effect="spiro"
       id="path-effect29678-4-6"
       is_visible="true" />
    <inkscape:path-effect
       lpeversion="0"
       effect="spiro"
       id="path-effect28714-5"
       is_visible="true" />
    <inkscape:path-effect
       lpeversion="0"
       effect="spiro"
       id="path-effect29721-2"
       is_visible="true" />
    <inkscape:path-effect
       lpeversion="0"
       effect="spiro"
       id="path-effect28463-8-0"
       is_visible="true" />
    <inkscape:path-effect
       lpeversion="0"
       effect="spiro"
       id="path-effect28463-0-7"
       is_visible="true" />
    <linearGradient
       id="linearGradient28799-4">
      <stop
         style="stop-color:#fefefc;stop-opacity:1;"
         offset="0"
         id="stop28801-13" />
      <stop
         id="stop28807-8"
         offset="0.75733864"
         style="stop-color:#fefefc;stop-opacity:1" />
      <stop
         style="stop-color:#d4d4d4;stop-opacity:1"
         offset="1"
         id="stop28803-8" />
    </linearGradient>
    <inkscape:path-effect
       lpeversion="0"
       effect="spiro"
       id="path-effect28797-8-1"
       is_visible="true" />
    <inkscape:path-effect
       lpeversion="0"
       effect="spiro"
       id="path-effect28797-81"
       is_visible="true" />
    <inkscape:path-effect
       lpeversion="0"
       effect="spiro"
       id="path-effect28273-4-2"
       is_visible="true" />
    <linearGradient
       id="linearGradient28853-5">
      <stop
         style="stop-color:#020204;stop-opacity:1"
         offset="0"
         id="stop28855-3" />
      <stop
         id="stop28865-0"
         offset="0.73448181"
         style="stop-color:#020204;stop-opacity:1" />
      <stop
         style="stop-color:#5c5c5c;stop-opacity:1;"
         offset="1"
         id="stop28857-9" />
    </linearGradient>
    <inkscape:path-effect
       lpeversion="0"
       effect="spiro"
       id="path-effect28851-0"
       is_visible="true" />
    <inkscape:path-effect
       lpeversion="0"
       effect="spiro"
       id="path-effect28881-6"
       is_visible="true" />
    <linearGradient
       id="linearGradient28935-8">
      <stop
         style="stop-color:#949494;stop-opacity:0.39215687;"
         offset="0"
         id="stop28937-7" />
      <stop
         id="stop28943-3"
         offset="0.5"
         style="stop-color:#949494;stop-opacity:1;" />
      <stop
         style="stop-color:#949494;stop-opacity:0.39215687;"
         offset="1"
         id="stop28939-8" />
    </linearGradient>
    <linearGradient
       id="linearGradient28976-3">
      <stop
         style="stop-color:#747474;stop-opacity:1"
         offset="0"
         id="stop28978-7" />
      <stop
         id="stop29259-5"
         offset="0.125"
         style="stop-color:#8c8c8c;stop-opacity:1;" />
      <stop
         id="stop29257-0"
         offset="0.25"
         style="stop-color:#a4a4a4;stop-opacity:1;" />
      <stop
         id="stop28984-4"
         offset="0.5"
         style="stop-color:#d4d4d4;stop-opacity:1" />
      <stop
         style="stop-color:#d4d4d4;stop-opacity:1"
         offset="0.61919296"
         id="stop28986-0" />
      <stop
         style="stop-color:#7c7c7c;stop-opacity:1"
         offset="1"
         id="stop28980-2" />
    </linearGradient>
    <clipPath
       clipPathUnits="userSpaceOnUse"
       id="clipPath29028-5">
      <path
         style="fill:url(#radialGradient29032);fill-opacity:1;stroke:none"
         d="m 85.75,122.36218 c -2.54738,2.12715 -5.20812,4.59907 -6.25,7.75 -1.30914,3.95917 -1.63336,8.91703 0.5,12.5 3.91901,6.58194 12.38353,13.85135 19.75,11.75 4.87452,-1.3905 6.10748,-8.51023 7,-13.5 0.59149,-3.30679 0.59578,-7.19325 -1.25,-10 -3.61233,-5.49303 -10.4265,-9.89357 -17,-10 -1.04403,-0.0169 -1.94852,0.83074 -2.75,1.5 z"
         id="path29030-7"
         inkscape:connector-curvature="0"
         sodipodi:nodetypes="aaaaaaaa" />
    </clipPath>
    <inkscape:path-effect
       lpeversion="0"
       effect="spiro"
       id="path-effect28974-8"
       is_visible="true" />
    <linearGradient
       id="linearGradient29336-6">
      <stop
         style="stop-color:#646464;stop-opacity:0"
         offset="0"
         id="stop29338-1" />
      <stop
         id="stop29344-7"
         offset="0.30628255"
         style="stop-color:#646464;stop-opacity:0.5825243" />
      <stop
         style="stop-color:#646464;stop-opacity:1"
         offset="0.47000006"
         id="stop29354-5" />
      <stop
         id="stop29356-3"
         offset="0.72834015"
         style="stop-color:#646464;stop-opacity:0.25728154" />
      <stop
         style="stop-color:#646464;stop-opacity:0;"
         offset="1"
         id="stop29340-6" />
    </linearGradient>
    <inkscape:path-effect
       lpeversion="0"
       effect="spiro"
       id="path-effect29455-3"
       is_visible="true" />
    <linearGradient
       id="linearGradient29477-3">
      <stop
         style="stop-color:#757574;stop-opacity:0"
         offset="0"
         id="stop29479-5" />
      <stop
         id="stop29487-5"
         offset="0.26291031"
         style="stop-color:#757574;stop-opacity:1;" />
      <stop
         id="stop29485-0"
         offset="0.5"
         style="stop-color:#757574;stop-opacity:1;" />
      <stop
         style="stop-color:#757574;stop-opacity:0"
         offset="1"
         id="stop29481-3" />
    </linearGradient>
    <linearGradient
       id="linearGradient28469-0">
      <stop
         id="stop28479-4"
         offset="0"
         style="stop-color:#d2940a;stop-opacity:1" />
      <stop
         id="stop28477-2"
         offset="0.75143719"
         style="stop-color:#d89c08;stop-opacity:1" />
      <stop
         style="stop-color:#b67e07;stop-opacity:1;"
         offset="0.86579126"
         id="stop28485-7" />
      <stop
         style="stop-color:#946106;stop-opacity:1"
         offset="1"
         id="stop28473-1" />
    </linearGradient>
    <inkscape:path-effect
       lpeversion="0"
       effect="spiro"
       id="path-effect28463-4"
       is_visible="true" />
    <inkscape:path-effect
       lpeversion="0"
       effect="spiro"
       id="path-effect28489-4"
       is_visible="true" />
    <inkscape:path-effect
       lpeversion="0"
       effect="spiro"
       id="path-effect28273-54-7"
       is_visible="true" />
    <linearGradient
       id="linearGradient28275-8">
      <stop
         style="stop-color:#ad780a;stop-opacity:1"
         offset="0"
         id="stop28277-1" />
      <stop
         id="stop28291-9"
         offset="0.11972899"
         style="stop-color:#d89e08;stop-opacity:1" />
      <stop
         id="stop28289-6"
         offset="0.25514477"
         style="stop-color:#edb80b;stop-opacity:1" />
      <stop
         id="stop28287-6"
         offset="0.39194193"
         style="stop-color:#ebc80d;stop-opacity:1" />
      <stop
         id="stop28285-7"
         offset="0.52741116"
         style="stop-color:#f5d838;stop-opacity:1" />
      <stop
         id="stop28283-7"
         offset="0.76906693"
         style="stop-color:#f6d811;stop-opacity:1" />
      <stop
         style="stop-color:#f5cd31;stop-opacity:1"
         offset="1"
         id="stop28279-5" />
    </linearGradient>
    <inkscape:path-effect
       lpeversion="0"
       effect="spiro"
       id="path-effect28273-44"
       is_visible="true" />
    <inkscape:path-effect
       lpeversion="0"
       effect="spiro"
       id="path-effect28384-7"
       is_visible="true" />
    <linearGradient
       id="linearGradient29529-6">
      <stop
         style="stop-color:#3a2903;stop-opacity:1;"
         offset="0"
         id="stop29531-0" />
      <stop
         id="stop29539-7"
         offset="0.55472803"
         style="stop-color:#735208;stop-opacity:1" />
      <stop
         style="stop-color:#ac8c04;stop-opacity:1"
         offset="1"
         id="stop29533-8" />
    </linearGradient>
    <clipPath
       clipPathUnits="userSpaceOnUse"
       id="clipPath29644-8">
      <path
         style="fill:url(#radialGradient29648);fill-opacity:1;stroke:none"
         d="m 54.232441,122.36218 c -3.79199,4.78949 -8.5176,11.69104 -8.19273,17.25 0.32487,5.55896 3.86025,13.93486 8.37542,16 4.51517,2.06514 5.75436,0.0125 8.32902,-2.5 2.57466,-2.51247 3.85871,-7.34762 4.00585,-12.25 0.14713,-4.90238 -3.03534,-11.91949 -5.43855,-15.25 -2.40321,-3.33051 -3.28702,-8.03949 -7.07901,-3.25 z"
         id="path29646-8"
         inkscape:connector-curvature="0"
         sodipodi:nodetypes="zzzzzzz" />
    </clipPath>
    <inkscape:path-effect
       lpeversion="0"
       effect="spiro"
       id="path-effect29553-7"
       is_visible="true" />
    <inkscape:path-effect
       lpeversion="0"
       effect="spiro"
       id="path-effect29707-7-6"
       is_visible="true" />
    <clipPath
       id="clipPath14656-7"
       clipPathUnits="userSpaceOnUse">
      <path
         style="fill:none;stroke:#c17d11;stroke-width:1px;stroke-linecap:butt;stroke-linejoin:miter;stroke-opacity:1"
         inkscape:original-d="m 304.84727,225.44951 c 5.05628,5.63479 9.72833,12.47181 10.94319,20.00305 1.91724,11.88535 -4.97006,23.58228 -6.44591,35.53273 -0.57645,4.66766 -2.84839,9.7988 -0.93525,14.08107 1.10334,2.46967 3.76154,4.35176 6.36677,4.92292 5.08221,1.1142 11.95719,2.41291 15.20182,-3.54776 6.07775,-11.16533 10.5961,-26.78641 9.45943,-38.64224 -0.906,-9.44981 -3.86858,-18.61978 -7.74003,-27.40773 -2.817,-6.39442 -6.14704,-12.5833 -9.61753,-18.52016 -3.44146,-5.88721 -8.20051,-10.94245 -13.10336,-15.63502 -6.34842,-6.07614 -12.40311,-17.98386 -20.89399,-15.99204 -5.48499,1.28669 -7.45029,9.57719 -7.69578,15.30218 -0.17245,4.02188 2.46425,7.71677 4.46569,11.18873 2.26238,3.92465 5.10447,7.56255 8.38442,10.65407 3.43735,3.23988 8.4511,4.53927 11.61053,8.0602 z"
         id="path14658-9"
         d="m 304.84727,225.44951 c 6.01627,4.92338 9.77707,12.317 10.94319,20.00305 1.8254,12.03148 -2.34636,24.07488 -6.44591,35.53273 -0.81749,2.28481 -1.63978,4.59033 -1.96473,6.99513 -0.32495,2.4048 -0.11897,4.94825 1.02948,7.08594 1.30279,2.42497 3.73227,4.12469 6.36677,4.92292 2.58877,0.78438 5.39365,0.76103 8.01466,0.0922 2.62101,-0.66882 5.06097,-1.96774 7.18716,-3.63996 5.48002,-4.30997 8.75799,-10.98552 10.01043,-17.84394 1.25243,-6.85841 0.63908,-13.92879 -0.551,-20.7983 -1.62313,-9.36916 -4.30898,-18.53961 -7.74003,-27.40773 -2.51766,-6.50732 -5.46794,-12.91081 -9.61753,-18.52016 -4.04611,-5.46946 -9.16208,-10.08954 -13.10336,-15.63502 -2.73209,-3.84412 -4.89983,-8.13097 -8.1917,-11.50812 -1.64594,-1.68858 -3.57654,-3.13527 -5.76975,-4.00143 -2.19321,-0.86616 -4.66356,-1.12446 -6.93254,-0.48249 -1.50468,0.42573 -2.89193,1.23739 -4.03791,2.30136 -1.14598,1.06397 -2.05268,2.37637 -2.69275,3.80312 -1.28015,2.85349 -1.47719,6.11241 -0.96512,9.1977 0.66114,3.98343 2.44407,7.69333 4.46569,11.18873 2.27396,3.93169 4.918,7.71926 8.38442,10.65407 3.5985,3.04664 7.96161,5.07413 11.61053,8.0602"
         inkscape:connector-curvature="0"
         sodipodi:nodetypes="aaaaassssaaaaaa" />
    </clipPath>
    <inkscape:path-effect
       lpeversion="0"
       effect="spiro"
       id="path-effect4500-7"
       is_visible="true" />
    <inkscape:path-effect
       lpeversion="0"
       effect="spiro"
       id="path-effect4582-3"
       is_visible="true" />
    <clipPath
       id="clipPath14489-3"
       clipPathUnits="userSpaceOnUse">
      <path
         sodipodi:nodetypes="aaaaaaaaaaaaaaaaaaaaaaaacscaa"
         inkscape:connector-curvature="0"
         id="path14491-6"
         d="m 516.00562,331.8756 c 0.90859,1.59687 -1.57016,3.38773 -2.81579,4.73826 -2.74207,2.97299 -6.45099,4.90178 -9.89648,7.01985 -5.91373,3.63539 -12.61918,5.90302 -18.41964,9.71654 -3.88318,2.553 -7.32809,5.72221 -10.86016,8.74238 -3.0221,2.58411 -5.48201,5.87643 -8.83247,8.01771 -3.3519,2.1422 -7.0437,4.15414 -10.99061,4.6502 -4.78298,0.60114 -9.87221,-0.25577 -14.29898,-2.16416 -3.0947,-1.33413 -6.16113,-3.38144 -7.96301,-6.22931 -1.81288,-2.86525 -2.06093,-6.5375 -2.23266,-9.92375 -0.30734,-6.06031 1.36252,-12.0605 2.17848,-18.07349 0.67882,-5.00236 1.85312,-9.94325 2.26013,-14.97502 0.73946,-9.14185 -0.7797,-18.40771 0.3199,-27.51327 0.35468,-2.93704 -0.181,-6.65876 2.01238,-8.64398 2.0384,-1.84494 5.43058,-1.1212 8.17929,-1.06253 3.34492,0.0714 6.63224,0.95108 9.88917,1.71656 2.05612,0.48325 3.99816,1.41138 6.0722,1.81081 3.44031,0.66255 6.96573,1.06623 10.46739,0.95192 3.78516,-0.12356 7.43659,-1.79636 11.22363,-1.76474 1.55185,0.013 3.12359,0.28186 4.58649,0.79985 1.48266,0.52499 2.98786,1.20618 4.12281,2.29512 0.86547,0.83038 1.42933,1.95676 1.87872,3.06879 0.67163,1.66196 0.8942,3.4778 1.16703,5.24945 0.24238,1.57389 -0.1531,3.27141 0.41433,4.75933 1.83023,4.79924 5.57666,8.72712 9.22489,12.34277 1.74278,1.93455 4.03041,3.53404 6.16708,4.82839 2.26886,1.37444 4.3675,2.44991 5.46279,4.81597 0.65901,1.48517 -0.54371,3.76097 0.68307,4.82635 z"
         style="fill:url(#linearGradient14485);fill-opacity:1;stroke:none" />
    </clipPath>
    <inkscape:path-effect
       lpeversion="0"
       is_visible="true"
       id="path-effect14300-7"
       effect="spiro" />
    <clipPath
       id="clipPath14481-1"
       clipPathUnits="userSpaceOnUse">
      <path
         sodipodi:nodetypes="aaaaaaaaaaaaaaaaaaaaaaaacscaa"
         inkscape:connector-curvature="0"
         id="path14483-3"
         d="m 516.00562,331.8756 c 0.90859,1.59687 -1.57016,3.38773 -2.81579,4.73826 -2.74207,2.97299 -6.45099,4.90178 -9.89648,7.01985 -5.91373,3.63539 -12.61918,5.90302 -18.41964,9.71654 -3.88318,2.553 -7.32809,5.72221 -10.86016,8.74238 -3.0221,2.58411 -5.48201,5.87643 -8.83247,8.01771 -3.3519,2.1422 -7.0437,4.15414 -10.99061,4.6502 -4.78298,0.60114 -9.87221,-0.25577 -14.29898,-2.16416 -3.0947,-1.33413 -6.16113,-3.38144 -7.96301,-6.22931 -1.81288,-2.86525 -2.06093,-6.5375 -2.23266,-9.92375 -0.30734,-6.06031 1.36252,-12.0605 2.17848,-18.07349 0.67882,-5.00236 1.85312,-9.94325 2.26013,-14.97502 0.73946,-9.14185 -0.7797,-18.40771 0.3199,-27.51327 0.35468,-2.93704 -0.181,-6.65876 2.01238,-8.64398 2.0384,-1.84494 5.43058,-1.1212 8.17929,-1.06253 3.34492,0.0714 6.63224,0.95108 9.88917,1.71656 2.05612,0.48325 3.99816,1.41138 6.0722,1.81081 3.44031,0.66255 6.96573,1.06623 10.46739,0.95192 3.78516,-0.12356 7.43659,-1.79636 11.22363,-1.76474 1.55185,0.013 3.12359,0.28186 4.58649,0.79985 1.48266,0.52499 2.98786,1.20618 4.12281,2.29512 0.86547,0.83038 1.42933,1.95676 1.87872,3.06879 0.67163,1.66196 0.8942,3.4778 1.16703,5.24945 0.24238,1.57389 -0.1531,3.27141 0.41433,4.75933 1.83023,4.79924 5.57666,8.72712 9.22489,12.34277 1.74278,1.93455 4.03041,3.53404 6.16708,4.82839 2.26886,1.37444 4.3675,2.44991 5.46279,4.81597 0.65901,1.48517 -0.54371,3.76097 0.68307,4.82635 z"
         style="fill:url(#linearGradient14485);fill-opacity:1;stroke:none" />
    </clipPath>
    <inkscape:path-effect
       lpeversion="0"
       is_visible="true"
       id="path-effect14300-2-7"
       effect="spiro" />
    <clipPath
       id="clipPath14473-5"
       clipPathUnits="userSpaceOnUse">
      <path
         sodipodi:nodetypes="aaaaaaaaaaaaaaaaaaaaaaaacscaa"
         inkscape:connector-curvature="0"
         id="path14475-9"
         d="m 511.82669,331.89986 c 0.79493,1.29584 -1.37375,2.7491 -2.46357,3.84504 -2.39907,2.41255 -5.64405,3.97773 -8.65855,5.69652 -5.17399,2.95008 -11.04067,4.79023 -16.11556,7.88485 -3.39744,2.07173 -6.41144,4.64351 -9.50169,7.09434 -2.64407,2.09697 -4.79627,4.76865 -7.72763,6.50627 -2.93262,1.73837 -6.16262,3.37103 -9.61582,3.77358 -4.18468,0.48781 -8.63731,-0.20756 -12.51035,-1.75619 -2.70759,-1.08263 -5.39044,-2.744 -6.96693,-5.05501 -1.58611,-2.32511 -1.80313,-5.3051 -1.95338,-8.053 -0.2689,-4.91787 1.19208,-9.78694 1.90598,-14.66641 0.59391,-4.05935 1.62131,-8.06882 1.97741,-12.15204 0.64696,-7.4185 -0.68217,-14.93763 0.27989,-22.32668 0.31031,-2.38337 -0.15836,-5.4035 1.76065,-7.01448 1.78342,-1.49715 4.75128,-0.90984 7.15616,-0.86223 2.92651,0.0579 5.80263,0.77179 8.65215,1.39297 1.79893,0.39215 3.49804,1.14531 5.31265,1.46945 3.00996,0.53765 6.0944,0.86523 9.15804,0.77247 3.31168,-0.10027 6.50636,-1.45773 9.81969,-1.43207 1.35773,0.0105 2.73287,0.22873 4.01277,0.64907 1.2972,0.42602 2.61412,0.9788 3.6071,1.86246 0.75721,0.67384 1.25054,1.58789 1.64371,2.49029 0.58762,1.34866 0.78235,2.82219 1.02105,4.25986 0.21206,1.27719 -0.13395,2.65471 0.36251,3.86214 1.60129,3.89452 4.87908,7.08195 8.07096,10.016 1.52478,1.56986 3.52626,2.86783 5.39565,3.91818 1.98506,1.11534 3.82118,1.98807 4.77946,3.9081 0.57658,1.2052 -0.47569,3.05198 0.59763,3.91652 z"
         style="fill:url(#linearGradient14477);fill-opacity:1;stroke:none" />
    </clipPath>
    <inkscape:path-effect
       lpeversion="0"
       is_visible="true"
       id="path-effect14300-2-2-0"
       effect="spiro" />
    <linearGradient
       id="linearGradient14518-6">
      <stop
         style="stop-color:#110800;stop-opacity:1;"
         offset="0"
         id="stop14540-0" />
      <stop
         id="stop14542-5"
         offset="0.59066743"
         style="stop-color:#a65a00;stop-opacity:0.80000001;" />
      <stop
         id="stop14522-4"
         offset="1"
         style="stop-color:#ff921e;stop-opacity:0;" />
    </linearGradient>
    <inkscape:path-effect
       lpeversion="0"
       effect="spiro"
       id="path-effect29716-0-0"
       is_visible="true" />
    <inkscape:path-effect
       lpeversion="0"
       effect="spiro"
       id="path-effect29716-0-8-3"
       is_visible="true" />
    <inkscape:path-effect
       lpeversion="0"
       effect="spiro"
       id="path-effect29716-6-1"
       is_visible="true" />
    <clipPath
       id="clipPath14822-9"
       clipPathUnits="userSpaceOnUse">
      <path
         style="fill:none;stroke:#ce5c00;stroke-width:1px;stroke-linecap:butt;stroke-linejoin:miter;stroke-opacity:1"
         inkscape:original-d="m 386.1875,285.32775 c -2.36571,-3.81321 -7.59294,-4.9003 -11.805,-6.41698 -2.08672,-0.75138 -4.32322,-1.04333 -6.52782,-1.27734 -2.27612,-0.2416 -4.71593,-0.91505 -6.8653,-0.1253 -3.64566,1.33955 -7.24986,3.80684 -8.75671,7.70871 -1.13743,2.94527 -1.80122,7.05909 -1.65394,10.40316 0.13075,2.96891 0.9633,5.07273 2.60877,7.33912 1.08803,1.49859 3.40096,2.67896 5.43398,3.22092 3.49923,0.93284 7.37483,0.82779 10.86038,-0.1553 5.98587,-2.2615 11.09272,-5.76885 14.33034,-10.77903 1.07459,-1.67639 2.15539,-3.45031 2.5532,-5.4034 0.30053,-1.4755 0.61519,-3.23621 -0.1779,-4.51456 z"
         id="path14824-1"
         d="m 386.1875,285.32775 c -0.40516,-1.10369 -1.11845,-2.08156 -1.9907,-2.86987 -0.87226,-0.78832 -1.90049,-1.39229 -2.98278,-1.85155 -2.16459,-0.91852 -4.52053,-1.26149 -6.83152,-1.69556 -2.17919,-0.40931 -4.34179,-0.90631 -6.52782,-1.27734 -2.27136,-0.38551 -4.6179,-0.63213 -6.8653,-0.1253 -1.96583,0.44333 -3.7845,1.45879 -5.27172,2.81864 -1.48723,1.35984 -2.64911,3.0564 -3.48499,4.89007 -1.47218,3.22952 -1.93451,6.86503 -1.65394,10.40316 0.20882,2.63325 0.87532,5.34594 2.60877,7.33912 1.40065,1.61052 3.38733,2.61526 5.43398,3.22092 3.52502,1.04316 7.36663,0.98822 10.86038,-0.1553 5.76689,-1.93113 10.87568,-5.77387 14.33034,-10.77903 1.13861,-1.64963 2.11217,-3.44809 2.5532,-5.4034 0.33597,-1.48955 0.34831,-3.08112 -0.1779,-4.51456"
         inkscape:connector-curvature="0"
         sodipodi:nodetypes="aaaasssaccaa" />
    </clipPath>
    <clipPath
       id="clipPath14822-2-4"
       clipPathUnits="userSpaceOnUse">
      <path
         style="fill:none;stroke:#ce5c00;stroke-width:1px;stroke-linecap:butt;stroke-linejoin:miter;stroke-opacity:1"
         inkscape:original-d="m 386.1875,285.32775 c -2.36571,-3.81321 -7.59294,-4.9003 -11.805,-6.41698 -2.08672,-0.75138 -4.32322,-1.04333 -6.52782,-1.27734 -2.27612,-0.2416 -4.71593,-0.91505 -6.8653,-0.1253 -3.64566,1.33955 -7.24986,3.80684 -8.75671,7.70871 -1.13743,2.94527 -1.80122,7.05909 -1.65394,10.40316 0.13075,2.96891 0.9633,5.07273 2.60877,7.33912 1.08803,1.49859 3.40096,2.67896 5.43398,3.22092 3.49923,0.93284 7.37483,0.82779 10.86038,-0.1553 5.98587,-2.2615 11.09272,-5.76885 14.33034,-10.77903 1.07459,-1.67639 2.15539,-3.45031 2.5532,-5.4034 0.30053,-1.4755 0.61519,-3.23621 -0.1779,-4.51456 z"
         id="path14824-6-5"
         d="m 386.1875,285.32775 c -0.40516,-1.10369 -1.11845,-2.08156 -1.9907,-2.86987 -0.87226,-0.78832 -1.90049,-1.39229 -2.98278,-1.85155 -2.16459,-0.91852 -4.52053,-1.26149 -6.83152,-1.69556 -2.17919,-0.40931 -4.34179,-0.90631 -6.52782,-1.27734 -2.27136,-0.38551 -4.6179,-0.63213 -6.8653,-0.1253 -1.96583,0.44333 -3.7845,1.45879 -5.27172,2.81864 -1.48723,1.35984 -2.64911,3.0564 -3.48499,4.89007 -1.47218,3.22952 -1.93451,6.86503 -1.65394,10.40316 0.20882,2.63325 0.87532,5.34594 2.60877,7.33912 1.40065,1.61052 3.38733,2.61526 5.43398,3.22092 3.52502,1.04316 7.36663,0.98822 10.86038,-0.1553 5.76689,-1.93113 10.87568,-5.77387 14.33034,-10.77903 1.13861,-1.64963 2.11217,-3.44809 2.5532,-5.4034 0.33597,-1.48955 0.34831,-3.08112 -0.1779,-4.51456"
         inkscape:connector-curvature="0"
         sodipodi:nodetypes="aaaasssaccaa" />
    </clipPath>
    <inkscape:path-effect
       lpeversion="0"
       is_visible="true"
       id="path-effect14972-2-2"
       effect="spiro" />
    <clipPath
       id="clipPath15031-3"
       clipPathUnits="userSpaceOnUse">
      <path
         sodipodi:nodetypes="czzzzzzzzzzzzzzzszzzzzc"
         inkscape:connector-curvature="0"
         id="path15033-2"
         d="m 248.06066,184.61218 c 0,0 -5.10626,6.34527 -7.89695,10.24696 -2.7907,3.9017 -5.73652,6.64881 -8.58729,10.75139 -2.85076,4.10259 -7.36482,9.43164 -9.44912,13.93045 -2.08429,4.49881 -2.32047,9.0356 -4.26498,13.84932 -1.94451,4.81371 -3.70129,10.64183 -5.97071,15.33612 -2.26943,4.69429 -5.37093,9.68473 -6.93891,13.53553 -1.56799,3.8508 -3.81119,5.72384 -4.10782,10.22071 -0.29663,4.49686 -0.57747,8.31749 3.77151,16.77227 4.34898,8.45478 17.23626,22.00721 24.24176,27.92472 7.00549,5.9175 9.39133,7.22492 14.60245,8.52595 5.21112,1.30104 13.85627,2.9981 16.72874,-1.2702 2.87246,-4.26829 2.27191,-5.96483 -0.74863,-10.66616 -3.02055,-4.70132 -4.82469,-5.30209 -9.79642,-9.57343 -4.97172,-4.27133 -18.63696,-14.87266 -22.68212,-19.23996 -4.04516,-4.36729 -7.10731,-3.41164 -5.53019,-6.28412 1.57712,-2.87249 -2.20738,-4.00856 -2.65783,-7.69253 -0.76361,-6.24511 0.9436,-18.71046 1.45958,-22.13343 0.51598,-3.42296 1.22371,-2.92446 3.51815,-8.03965 2.29444,-5.11519 4.12424,-8.62435 7.04933,-13.46723 2.92509,-4.84289 8.62493,-10.12787 11.15147,-15.27803 2.52654,-5.15017 3.50393,-10.72068 4.36185,-15.31831 0.85792,-4.59763 1.74613,-12.13037 1.74613,-12.13037 z"
         style="fill:none;stroke:#729fcf;stroke-width:0.125;stroke-linecap:butt;stroke-linejoin:miter;stroke-miterlimit:4;stroke-dasharray:none;stroke-opacity:1" />
    </clipPath>
    <inkscape:path-effect
       lpeversion="0"
       is_visible="true"
       id="path-effect15017-9"
       effect="spiro" />
    <clipPath
       id="clipPath14186-9"
       clipPathUnits="userSpaceOnUse">
      <path
         style="fill:#402c07;fill-opacity:1;stroke:none"
         d="m 137.57703,281.0191 c 1.59929,-0.66295 3.3982,-0.78361 5.10074,-0.46963 1.70253,0.31398 3.31141,1.04948 4.74342,2.02239 2.86402,1.94583 4.98821,4.77774 7.02263,7.57952 4.67189,6.43406 9.16868,13.00227 13.24488,19.8293 3.30635,5.53766 6.34352,11.25685 10.16415,16.45304 2.49398,3.3919 5.3066,6.53947 7.813,9.92221 2.50639,3.38273 4.72794,7.05586 5.83931,11.11662 1.44411,5.27653 0.88463,11.09291 -1.62666,15.95302 -1.76663,3.41896 -4.47646,6.35228 -7.77242,8.33898 -3.29595,1.9867 -7.17064,3.01444 -11.01635,2.87021 -6.11413,-0.2293 -11.69944,-3.28515 -17.38362,-5.54906 -11.58097,-4.6125 -24.15978,-6.0594 -36.09666,-9.65174 -3.66859,-1.10404 -7.27582,-2.4107 -10.96988,-3.42629 -1.64125,-0.45122 -3.30866,-0.8482 -4.85875,-1.55144 -1.55008,-0.70325 -2.999548,-1.7491 -3.86171,-3.21675 -0.666391,-1.13439 -0.948386,-2.47002 -0.930187,-3.78554 0.0182,-1.31552 0.325889,-2.61453 0.773815,-3.85158 0.895851,-2.47409 2.343262,-4.71374 3.320162,-7.15696 1.59511,-3.98935 1.88169,-8.38839 1.66657,-12.67942 -0.21511,-4.29103 -0.91078,-8.54478 -1.20454,-12.83115 -0.13118,-1.91406 -0.18066,-3.85256 0.18479,-5.73598 0.36545,-1.88343 1.17577,-3.72459 2.55771,-5.05541 1.27406,-1.22693 2.96492,-1.95531 4.69643,-2.31651 1.73151,-0.3612 3.51533,-0.37747 5.28367,-0.33762 1.76833,0.0399 3.54067,0.13425 5.30351,-0.0106 1.76284,-0.14488 3.53347,-0.54055 5.06911,-1.41828 1.45996,-0.83447 2.65433,-2.0745 3.64374,-3.43424 0.9894,-1.35974 1.78909,-2.84573 2.60891,-4.31396 0.81983,-1.46823 1.66834,-2.93151 2.74157,-4.22611 1.07324,-1.2946 2.38923,-2.42304 3.94266,-3.06698"
         id="path14188-1"
         inkscape:connector-curvature="0"
         sodipodi:nodetypes="ssssssssssssssss"
         inkscape:original-d="m 137.57703,281.0191 c 6.32494,-1.3585 11.99755,4.87308 16.86679,9.13228 6.42572,5.62067 -8.54781,26.01622 13.24488,19.8293 5.86081,-1.66388 6.89528,11.31183 10.16415,16.45304 4.09971,6.44793 11.58575,13.6827 13.65231,21.03883 1.58383,5.63779 1.34339,10.90606 -1.62666,15.95302 -3.57124,6.06857 -11.7907,10.42929 -18.78877,11.20919 -5.73056,0.63864 -11.87822,-3.8351 -17.38362,-5.54906 -12.31617,-3.83432 -23.77946,-5.82074 -36.09666,-9.65174 -2.50091,-0.77785 -8.28361,-2.638 -10.96988,-3.42629 -4.51043,-1.3236 -6.46556,-0.99271 -8.72046,-4.76819 -2.68251,-4.49147 0.68051,-9.72669 3.16379,-14.79408 4.06995,-8.30524 1.91195,-17.82603 0.46203,-25.51057 -0.92235,-4.8884 -0.66071,-7.92707 2.7425,-10.79139 4.99476,-4.20385 14.53027,-1.53186 20.35272,-4.08305 5.82246,-2.55119 6.66365,-13.6939 12.93688,-15.04129 z" />
    </clipPath>
    <inkscape:path-effect
       lpeversion="0"
       effect="spiro"
       id="path-effect4669-1"
       is_visible="true" />
    <inkscape:path-effect
       lpeversion="0"
       effect="spiro"
       id="path-effect4669-4-3"
       is_visible="true" />
    <radialGradient
       inkscape:collect="always"
       xlink:href="#linearGradient5749"
       id="radialGradient6898"
       gradientUnits="userSpaceOnUse"
       gradientTransform="matrix(0.96828868,0,0,0.97069171,241.14123,126.7406)"
       cx="9.6981306"
       cy="11.475898"
       fx="9.6981306"
       fy="11.475898"
       r="3.4717929" />
    <linearGradient
       inkscape:collect="always"
       id="linearGradient5749">
      <stop
         style="stop-color:#280b0b;stop-opacity:1"
         offset="0"
         id="stop5745" />
      <stop
         style="stop-color:#a02c2c;stop-opacity:1"
         offset="1"
         id="stop5747" />
    </linearGradient>
    <radialGradient
       inkscape:collect="always"
       xlink:href="#linearGradient5761"
       id="radialGradient6902"
       gradientUnits="userSpaceOnUse"
       gradientTransform="matrix(0.94771182,-0.19855848,0.2755037,1.3151234,237.42096,122.71775)"
       cx="13.110115"
       cy="21.738586"
       fx="13.110115"
       fy="21.738586"
       r="7.5867825" />
    <linearGradient
       inkscape:collect="always"
       id="linearGradient5761">
      <stop
         style="stop-color:#d10000;stop-opacity:1"
         offset="0"
         id="stop5757" />
      <stop
         id="stop5776"
         offset="0.82067841"
         style="stop-color:#ff0000;stop-opacity:1" />
      <stop
         style="stop-color:#ff1e1e;stop-opacity:1"
         offset="1"
         id="stop5759" />
    </linearGradient>
    <radialGradient
       inkscape:collect="always"
       xlink:href="#linearGradient5761"
       id="radialGradient6900"
       gradientUnits="userSpaceOnUse"
       gradientTransform="matrix(0.96815189,-0.01628142,0.02256154,1.3434816,240.7054,119.75121)"
       cx="13.110115"
       cy="21.738586"
       fx="13.110115"
       fy="21.738586"
       r="7.5867825" />
    <linearGradient
       inkscape:collect="always"
       xlink:href="#linearGradient5793"
       id="linearGradient6906"
       gradientUnits="userSpaceOnUse"
       x1="16.010458"
       y1="13.323837"
       x2="18.261929"
       y2="9.8238373" />
    <linearGradient
       inkscape:collect="always"
       id="linearGradient5793">
      <stop
         style="stop-color:#ececec;stop-opacity:0.19499999"
         offset="0"
         id="stop5789" />
      <stop
         style="stop-color:#ffffff;stop-opacity:1"
         offset="1"
         id="stop5791" />
    </linearGradient>
    <filter
       inkscape:collect="always"
       style="color-interpolation-filters:sRGB"
       id="filter5785"
       x="-0.087579049"
       width="1.1751581"
       y="-0.11872235"
       height="1.2374448">
      <feGaussianBlur
         inkscape:collect="always"
         stdDeviation="0.15724756"
         id="feGaussianBlur5787" />
    </filter>
  </defs>
  <sodipodi:namedview
     inkscape:window-maximized="0"
     inkscape:window-y="0"
     inkscape:window-x="0"
     inkscape:window-height="704"
     inkscape:window-width="861"
     units="px"
     showgrid="false"
     inkscape:document-rotation="0"
     inkscape:current-layer="layer1"
     inkscape:document-units="px"
     inkscape:cy="17.957618"
     inkscape:cx="23.218763"
     inkscape:zoom="5.6568543"
     inkscape:pageshadow="2"
     inkscape:pageopacity="0.0"
     borderopacity="1.0"
     bordercolor="#666666"
     pagecolor="#ffffff"
     id="base" />
  <metadata
     id="metadata5">
    <rdf:RDF>
      <cc:Work
         rdf:about="">
        <dc:format>image/svg+xml</dc:format>
        <dc:type
           rdf:resource="http://purl.org/dc/dcmitype/StillImage" />
        <dc:title></dc:title>
      </cc:Work>
    </rdf:RDF>
  </metadata>
  <g
     id="layer1"
     inkscape:groupmode="layer"
     inkscape:label="Layer 1">
    <g
       transform="matrix(0.26458333,0,0,0.26458333,-101.58709,-59.266805)"
       id="g6193">
      <path
         id="path6821"
         d="m 389.23132,252.16245 c -0.52387,-0.186 -0.79078,-0.663 -0.72835,-1.3 0.0437,-0.447 0.21771,-0.797 2.70126,-5.43999 1.15311,-2.156 1.82837,-3.35399 1.90177,-3.37299 0.13585,-0.04 1.39337,0.06 1.44253,0.106 0.0189,0.02 -0.7469,1.70699 -1.70163,3.75199 -1.92929,4.13199 -1.91648,4.09499 -1.54896,4.50599 0.17212,0.193 0.21763,0.209 0.57504,0.209 0.3301,0 0.41124,-0.02 0.54265,-0.16 0.085,-0.09 0.9662,-1.90299 1.95824,-4.03399 0.99204,-2.13 1.80953,-3.879 1.81665,-3.886 0.007,0 0.27236,0.06 0.58944,0.142 0.91851,0.247 2.19863,0.41 3.56579,0.454 l 1.25978,0.04 1.84559,3.463 c 1.01507,1.906 1.89568,3.60899 1.95692,3.78599 0.27795,0.804 -0.0229,1.572 -0.68817,1.757 -0.1774,0.05 -2.49696,0.07 -7.74774,0.07 -6.18086,0 -7.5377,-0.02 -7.74081,-0.09 z"
         style="fill:#00ff00;stroke-width:0.0640592"
         inkscape:connector-curvature="0" />
      <path
         id="path6819"
         d="m 398.63441,242.04447 c -0.24722,-0.108 -0.50787,-0.415 -0.60729,-0.717 -0.23401,-0.709 0.34345,-1.493 1.10272,-1.498 0.95191,0 1.49776,1.086 0.93697,1.873 -0.27185,0.382 -0.96203,0.547 -1.4324,0.342 z"
         style="fill:#00ff00;fill-opacity:1;stroke-width:0.0640592"
         inkscape:connector-curvature="0" />
      <path
         id="path6817"
         d="m 394.27887,241.20847 c -0.16576,-0.166 -0.20786,-0.461 -0.0956,-0.671 0.1044,-0.195 0.41767,-0.29 0.64545,-0.196 0.23471,0.1 0.31782,0.237 0.31782,0.535 0,0.438 -0.55107,0.649 -0.86766,0.332 z"
         style="fill:#00ff00;fill-opacity:1;stroke-width:0.0640592"
         inkscape:connector-curvature="0" />
      <path
         id="path6815"
         d="m 396.94505,238.94647 c -0.6434,-0.355 -0.54303,-1.258 0.16575,-1.492 0.56137,-0.185 1.17146,0.423 0.98643,0.984 -0.16743,0.507 -0.71498,0.748 -1.15218,0.508 z"
         style="fill:#00ff00;fill-opacity:1;stroke-width:0.0640592"
         inkscape:connector-curvature="0" />
      <path
         id="path6811"
         d="m 397.91882,235.54047 c -0.22675,-0.346 0.15745,-0.74999 0.52584,-0.55299 0.20749,0.111 0.25899,0.33899 0.12323,0.54699 -0.15514,0.236 -0.49584,0.24 -0.64906,0 z"
         style="fill:#ff00ff;fill-opacity:1;stroke-width:0.071617"
         inkscape:connector-curvature="0" />
      <g
         transform="matrix(0.43033763,0,0,0.43038359,154.31497,191.63655)"
         id="g6832">
        <path
           sodipodi:type="inkscape:offset"
           inkscape:radius="2.2631326"
           inkscape:original="M 563.82617 77.943359 C 554.78162 77.941059 554.13928 77.960259 552.94531 78.265625 C 551.32623 78.679716 550.24307 79.272143 549.16016 80.337891 C 547.54452 81.927921 546.71387 84.382573 547.08203 86.472656 C 547.5887 89.349043 549.59967 91.571314 552.5625 92.53125 L 553.17773 92.730469 L 553.17773 98.681641 L 553.17773 104.63281 L 552.29688 106.25781 C 551.81209 107.15102 549.23881 111.94141 546.58008 116.9043 C 536.07565 136.51226 536.05386 136.55824 535.85352 138.75391 C 535.51947 142.41515 537.69277 145.67637 541.07812 146.59375 C 541.8057 146.79044 545.38893 146.82367 564.16992 146.79688 L 586.40039 146.76367 L 587.35938 146.37695 C 589.19857 145.63516 590.6401 144.12685 591.42188 142.12695 C 591.97236 140.71868 591.95243 138.17967 591.37891 136.57812 C 590.96725 135.42853 587.60217 129.01518 578.94922 112.89453 L 574.50586 104.61719 L 574.50586 98.673828 L 574.50586 92.730469 L 575.12109 92.53125 C 577.44309 91.779497 579.08329 90.25666 579.87891 88.111328 C 581.19021 84.575563 579.65056 80.447225 576.43945 78.884766 C 574.54913 77.964977 574.28819 77.945959 563.82617 77.943359 z M 557.85547 80.267578 C 559.51668 80.245598 561.66764 80.254301 564.49805 80.269531 C 573.73913 80.319091 573.77057 80.320461 574.70312 80.697266 C 575.95074 81.201362 577.15061 82.303563 577.63672 83.390625 C 578.17011 84.582882 578.16922 86.38532 577.63477 87.494141 C 576.84768 89.127271 575.40226 90.124498 573.3125 90.476562 L 572.12695 90.677734 L 572.08398 97.835938 L 572.04102 104.99414 L 575.54883 111.52539 C 578.4574 116.94145 583.39301 126.18615 587.90234 134.66406 C 589.146 137.00224 589.43555 137.92376 589.43555 139.54492 C 589.43555 140.71416 589.37054 141.01825 588.93359 141.89258 C 588.37888 143.00266 587.75889 143.60788 586.64648 144.125 C 585.91021 144.46722 585.84891 144.46665 564.16992 144.49805 C 541.05051 144.53145 541.62773 144.55125 540.32812 143.74805 C 538.48005 142.60589 537.70105 139.78164 538.55273 137.31445 C 538.94445 136.17967 543.00935 128.4728 553.36328 109.23242 L 555.63867 105.00391 L 555.63867 98.9375 L 555.63867 92.869141 L 557.99414 92.869141 C 560.13 92.869141 560.39144 92.837461 560.7832 92.529297 C 561.27034 92.146109 561.35682 91.482861 560.98438 90.972656 C 560.77008 90.679096 560.47176 90.648622 557.16992 90.570312 C 553.59039 90.485412 553.58716 90.484213 552.52148 89.980469 C 551.05472 89.287142 550.4861 88.760652 549.88086 87.53125 C 549.40134 86.557204 549.3672 86.380965 549.4375 85.203125 C 549.5293 83.666109 549.88928 82.884308 550.96094 81.896484 C 552.29126 80.670211 552.87187 80.333516 557.85547 80.267578 z "
           xlink:href="#path6816"
           style="fill:#1a1a1a;stroke:none;stroke-width:2;stroke-miterlimit:4;stroke-dasharray:none"
           id="path6828"
           inkscape:href="#path6816"
           d="m 563.82617,75.679688 c -4.52389,-0.0012 -6.94012,0.0021 -8.45117,0.04687 -1.51105,0.04478 -2.30989,0.171702 -2.99023,0.345704 -1.88635,0.482445 -3.49071,1.351498 -4.8125,2.652343 -2.16918,2.134795 -3.24032,5.179654 -2.71875,8.140625 0.6496,3.68782 3.36025,6.635312 7.01171,7.81836 l -0.95117,-0.306641 v 4.304688 5.376949 l -0.60742,1.1211 c -0.5022,0.92531 -3.06178,5.69299 -5.7207,10.65625 -5.25226,9.80405 -7.8791,14.70088 -9.26563,17.52539 -1.38652,2.8245 -1.61999,4.08369 -1.7207,5.1875 -0.4258,4.66686 2.4305,9.02094 6.88672,10.22851 a 2.2633589,2.2633589 0 0 0 0.002,0.002 c 0.61816,0.16711 0.98846,0.16095 1.76953,0.19336 0.78107,0.0324 1.89814,0.0554 3.57617,0.0703 3.35607,0.0297 8.94781,0.031 18.33985,0.0176 l 22.23047,-0.0332 a 2.2633589,2.2633589 0 0 0 0.84179,-0.16406 l 0.95899,-0.38672 c 2.4457,-0.98641 4.33946,-3.00624 5.32422,-5.52539 0.89302,-2.28458 0.80433,-4.83609 -0.0195,-7.13672 -0.41535,-1.15989 -1.27059,-2.74012 -3.25196,-6.51562 -1.98137,-3.7755 -4.98665,-9.41181 -9.31445,-17.47461 l -4.17383,-7.77539 v -5.375002 -4.296875 l -0.95117,0.306641 c 2.87695,-0.93142 5.15483,-3.016432 6.18164,-5.785156 1.71184,-4.615765 -0.20483,-9.924675 -4.57031,-12.048829 -0.97648,-0.475135 -2.12387,-0.90356 -3.91407,-1.037109 -1.79019,-0.133549 -4.45707,-0.131512 -9.68945,-0.132812 z m -5.9414,6.851562 c 1.62746,-0.02153 3.77268,-0.01327 6.60156,0.002 4.62044,0.02478 6.9545,0.03842 8.13476,0.08789 1.18026,0.04948 0.77541,-0.01162 1.23438,0.173828 0.65252,0.263648 1.56255,1.178958 1.71484,1.519531 0.18579,0.415274 0.14376,1.951685 0.0254,2.197266 -0.47305,0.98154 -1.09023,1.468265 -2.6582,1.732422 a 2.2633589,2.2633589 0 0 0 -0.004,0.002 l -1.18554,0.201172 a 2.2633589,2.2633589 0 0 0 -1.88477,2.216796 l -0.043,7.158204 -0.043,7.158204 a 2.2633589,2.2633589 0 0 0 0.26954,1.08398 l 3.50781,6.53125 c 2.9056,5.41053 7.84148,14.65521 12.34961,23.13086 1.19628,2.2491 1.26757,2.46668 1.26758,3.81836 0,1.08535 0.12155,0.56902 -0.26172,1.33594 a 2.2633589,2.2633589 0 0 0 -0.002,0 c -0.40033,0.80114 -0.42304,0.82332 -1.21484,1.19141 -0.17297,0.0804 0.22224,-0.0291 -0.0644,0.002 -0.2867,0.0311 -1.01766,0.0689 -2.4043,0.0918 -2.77327,0.0458 -8.21908,0.0526 -19.05859,0.0684 -11.56038,0.0167 -17.21975,0.0276 -20.0293,-0.0605 -1.40478,-0.0441 -2.09025,-0.12744 -2.28711,-0.17188 -0.19686,-0.0444 0.0531,0.0583 -0.33203,-0.17968 -0.67075,-0.41455 -1.36513,-2.20826 -0.82617,-3.76954 -0.0382,0.11062 0.31716,-0.71756 0.90429,-1.8789 0.58714,-1.16134 1.45237,-2.82391 2.62891,-5.05469 2.35307,-4.46156 5.95508,-11.19647 11.13086,-20.81445 l 2.27539,-4.22852 a 2.2633589,2.2633589 0 0 0 0.27148,-1.07226 V 98.9375 95.132812 h 0.0918 c 1.07912,0 1.6891,0.0048 2.32227,-0.07227 0.63316,-0.07711 1.50669,-0.469922 1.86523,-0.751953 1.38225,-1.087284 1.65236,-3.270565 0.63086,-4.669922 -0.19001,-0.260292 -0.72179,-0.741814 -1.18555,-0.933594 -0.46376,-0.19178 -0.79979,-0.228318 -1.15429,-0.265625 -0.70901,-0.07461 -1.59374,-0.09158 -3.25,-0.130859 -1.78953,-0.04245 -2.68747,-0.07692 -3.03516,-0.121094 -0.34769,-0.04418 -0.16655,-0.0021 -0.69922,-0.253906 -1.27087,-0.600731 -1.10593,-0.447169 -1.57617,-1.402344 -0.45054,-0.915184 -0.28175,-0.07242 -0.21484,-1.193359 0.0735,-1.231129 -0.023,-1.021656 0.79687,-1.777344 0.62041,-0.57189 0.57199,-0.580735 1.11914,-0.724609 0.54715,-0.143875 1.82948,-0.272378 4.27149,-0.304688 z" />
        <path
           style="fill:#ffffff;stroke-width:2;stroke-miterlimit:4;stroke-dasharray:none"
           d="m 563.82559,77.943661 c -9.04455,-0.0023 -9.68689,0.0169 -10.88086,0.322266 -1.61908,0.414091 -2.70225,1.006518 -3.78516,2.072266 -1.61564,1.59003 -2.44628,4.044682 -2.07812,6.134765 0.50667,2.876387 2.51764,5.098658 5.48047,6.058594 l 0.61523,0.199219 v 5.951172 5.951177 l -0.88086,1.625 c -0.48479,0.89321 -3.05807,5.68359 -5.7168,10.64648 -10.50443,19.60796 -10.52622,19.65394 -10.72656,21.84961 -0.33405,3.66124 1.83925,6.92246 5.22461,7.83984 0.72758,0.19669 4.31081,0.22993 23.0918,0.20313 l 22.23047,-0.0332 0.95898,-0.38672 c 1.83919,-0.74179 3.28073,-2.2501 4.0625,-4.25 0.55049,-1.40827 0.53052,-3.94729 -0.043,-5.54883 -0.41166,-1.1496 -3.77674,-7.56294 -12.42969,-23.68359 l -4.44336,-8.27735 v -5.94336 -5.943359 l 0.61524,-0.199219 c 2.322,-0.751753 3.96219,-2.27459 4.75781,-4.419922 1.3113,-3.535765 -0.22834,-7.664103 -3.43945,-9.226562 -1.89032,-0.919789 -2.15126,-0.938807 -12.61328,-0.941407 z m -5.97071,2.324219 c 1.66121,-0.02198 3.81217,-0.01323 6.64258,0.002 9.24108,0.04956 9.27253,0.05093 10.20508,0.427735 1.24761,0.504096 2.44748,1.606297 2.93359,2.693359 0.53339,1.192257 0.53245,2.994695 -0.002,4.103516 -0.78709,1.63313 -2.2325,2.630358 -4.32226,2.982422 l -1.18555,0.201171 -0.043,7.158203 -0.043,7.158214 3.50781,6.53125 c 2.90857,5.41606 7.84419,14.66076 12.35352,23.13867 1.24366,2.33818 1.5332,3.2597 1.5332,4.88086 0,1.16924 -0.065,1.47332 -0.50195,2.34765 -0.55471,1.11008 -1.1747,1.71531 -2.28711,2.23243 -0.73627,0.34222 -0.79757,0.34164 -22.47656,0.37304 -23.11941,0.0334 -22.54219,0.0532 -23.8418,-0.75 -1.84808,-1.14216 -2.62707,-3.9664 -1.77539,-6.43359 0.39172,-1.13478 4.45662,-8.84165 14.81055,-28.08203 l 2.27539,-4.22852 V 98.937849 92.86949 h 2.35547 c 2.13586,0 2.3973,-0.03168 2.78906,-0.339844 0.48714,-0.383188 0.57362,-1.046436 0.20117,-1.556641 -0.2143,-0.29356 -0.51261,-0.324033 -3.81445,-0.402343 -3.57953,-0.0849 -3.58276,-0.0861 -4.64844,-0.589844 -1.46676,-0.693327 -2.03539,-1.219817 -2.64063,-2.449219 -0.47952,-0.974046 -0.51365,-1.150285 -0.44335,-2.328125 0.0918,-1.537016 0.45177,-2.318817 1.52343,-3.306641 1.33032,-1.226273 1.91093,-1.562968 6.89453,-1.628906 z"
           id="path6816"
           inkscape:connector-curvature="0" />
      </g>
      <g
         transform="matrix(0.58053681,0,0,0.5805988,257.70296,157.92158)"
         id="g7017">
        <path
           style="color:#000000;font-style:normal;font-variant:normal;font-weight:normal;font-stretch:normal;font-size:medium;line-height:normal;font-family:sans-serif;font-variant-ligatures:normal;font-variant-position:normal;font-variant-caps:normal;font-variant-numeric:normal;font-variant-alternates:normal;font-feature-settings:normal;text-indent:0;text-align:start;text-decoration:none;text-decoration-line:none;text-decoration-style:solid;text-decoration-color:#000000;letter-spacing:normal;word-spacing:normal;text-transform:none;writing-mode:lr-tb;direction:ltr;text-orientation:mixed;dominant-baseline:auto;baseline-shift:baseline;text-anchor:start;white-space:normal;shape-padding:0;clip-rule:nonzero;display:inline;overflow:visible;visibility:visible;opacity:1;isolation:auto;mix-blend-mode:normal;color-interpolation:sRGB;color-interpolation-filters:linearRGB;solid-color:#000000;solid-opacity:1;vector-effect:none;fill:#000000;fill-opacity:1;fill-rule:nonzero;stroke:#ffffff;stroke-width:0.387452;stroke-linecap:round;stroke-linejoin:round;stroke-miterlimit:4;stroke-dasharray:none;stroke-dashoffset:0;stroke-opacity:1;color-rendering:auto;image-rendering:auto;shape-rendering:auto;text-rendering:auto;enable-background:accumulate"
           d="m 250.48614,126.45171 a 0.48371875,0.4850085 0 0 0 -0.48351,0.43396 l -0.38852,3.24821 a 0.48371875,0.4850085 0 0 0 0.0364,0.25135 l 1.29554,2.98971 a 0.4839466,0.48523696 0 1 0 0.88774,-0.38669 l -1.24412,-2.86941 0.37352,-3.11788 a 0.48371875,0.4850085 0 0 0 -0.47707,-0.54925 z m 7.70684,1.77664 a 0.48371875,0.4850085 0 0 0 -0.48565,0.57145 l 0.75205,4.52358 -1.15485,2.35381 a 0.48389643,0.48518665 0 1 0 0.86846,0.42822 l 1.22269,-2.49344 a 0.48371875,0.4850085 0 0 0 0.0436,-0.2936 l -0.77776,-4.67826 a 0.48371875,0.4850085 0 0 0 -0.46851,-0.41176 z m -11.81059,4.6489 -5.06077,0.0909 a 0.48371875,0.4850085 0 1 0 0.0171,0.9696 l 4.93293,-0.0881 2.46396,1.3434 a 0.48371875,0.4850085 0 1 0 0.46208,-0.85216 l -2.57538,-1.40498 a 0.48371875,0.4850085 0 0 0 -0.23996,-0.0587 z m 17.36558,1.07558 a 0.48371875,0.4850085 0 0 0 -0.32996,0.13892 l -2.74321,2.70112 a 0.48371875,0.4850085 0 1 0 0.67777,0.69175 l 2.54181,-2.50276 5.55999,1.6105 a 0.48371875,0.4850085 0 1 0 0.26853,-0.93164 l -5.83138,-1.68927 a 0.48371875,0.4850085 0 0 0 -0.14355,-0.0186 z m -20.76086,4.20778 a 0.48371875,0.4850085 0 0 0 -0.19997,0.92233 l 1.5048,0.75405 1.21413,1.52099 a 0.48371875,0.4850085 0 0 0 0.30068,0.17616 l 4.96006,0.80203 a 0.48371875,0.4850085 0 1 0 0.15355,-0.95742 l -4.7758,-0.77267 -1.16342,-1.45797 a 0.48371875,0.4850085 0 0 0 -0.16141,-0.13105 l -1.59979,-0.80203 a 0.48371875,0.4850085 0 0 0 -0.23283,-0.0544 z m 21.57432,3.41578 a 0.48371875,0.4850085 0 0 0 -0.0886,0.96243 l 4.34586,0.84572 2.73964,3.49598 a 0.48371875,0.4850085 0 1 0 0.76062,-0.59866 l -2.85106,-3.6392 a 0.48371875,0.4850085 0 0 0 -0.28853,-0.17616 l -4.52227,-0.88008 a 0.48371875,0.4850085 0 0 0 -0.0957,-0.01 z m -12.92116,3.64493 a 0.48371875,0.4850085 0 0 0 -0.0821,0.009 l -4.47941,0.80203 a 0.48371875,0.4850085 0 0 0 -0.39638,0.43181 l -0.63992,6.73775 a 0.48371875,0.4850085 0 1 0 0.96274,0.0917 l 0.60491,-6.37112 4.11804,-0.73686 a 0.48371875,0.4850085 0 0 0 -0.0879,-0.96386 z m 3.82236,3.36637 a 0.48371875,0.4850085 0 0 0 -0.29425,0.12031 l -3.35956,2.88801 a 0.48371875,0.4850085 0 0 0 -0.16927,0.36808 v 5.61491 a 0.48387,0.48516016 0 1 0 0.96774,0 v -5.39149 l 3.19101,-2.74265 a 0.48371875,0.4850085 0 0 0 -0.33567,-0.85717 z"
           id="path6890"
           inkscape:connector-curvature="0" />
        <path
           inkscape:connector-curvature="0"
           id="path6860"
           d="m 250.48614,126.45171 a 0.48371875,0.4850085 0 0 0 -0.48351,0.43396 l -0.38852,3.24821 a 0.48371875,0.4850085 0 0 0 0.0364,0.25135 l 1.29554,2.98971 a 0.4839466,0.48523696 0 1 0 0.88774,-0.38669 l -1.24412,-2.86941 0.37352,-3.11788 a 0.48371875,0.4850085 0 0 0 -0.47707,-0.54925 z m 7.70684,1.77664 a 0.48371875,0.4850085 0 0 0 -0.48565,0.57145 l 0.75205,4.52358 -1.15485,2.35381 a 0.48389643,0.48518665 0 1 0 0.86846,0.42822 l 1.22269,-2.49344 a 0.48371875,0.4850085 0 0 0 0.0436,-0.2936 l -0.77776,-4.67826 a 0.48371875,0.4850085 0 0 0 -0.46851,-0.41176 z m -11.81059,4.6489 -5.06077,0.0909 a 0.48371875,0.4850085 0 1 0 0.0171,0.9696 l 4.93293,-0.0881 2.46396,1.3434 a 0.48371875,0.4850085 0 1 0 0.46208,-0.85216 l -2.57538,-1.40498 a 0.48371875,0.4850085 0 0 0 -0.23996,-0.0587 z m 17.36558,1.07558 a 0.48371875,0.4850085 0 0 0 -0.32996,0.13892 l -2.74321,2.70112 a 0.48371875,0.4850085 0 1 0 0.67777,0.69175 l 2.54181,-2.50276 5.55999,1.6105 a 0.48371875,0.4850085 0 1 0 0.26853,-0.93164 l -5.83138,-1.68927 a 0.48371875,0.4850085 0 0 0 -0.14355,-0.0186 z m -20.76086,4.20778 a 0.48371875,0.4850085 0 0 0 -0.19997,0.92233 l 1.5048,0.75405 1.21413,1.52099 a 0.48371875,0.4850085 0 0 0 0.30068,0.17616 l 4.96006,0.80203 a 0.48371875,0.4850085 0 1 0 0.15355,-0.95742 l -4.7758,-0.77267 -1.16342,-1.45797 a 0.48371875,0.4850085 0 0 0 -0.16141,-0.13105 l -1.59979,-0.80203 a 0.48371875,0.4850085 0 0 0 -0.23283,-0.0544 z m 21.57432,3.41578 a 0.48371875,0.4850085 0 0 0 -0.0886,0.96243 l 4.34586,0.84572 2.73964,3.49598 a 0.48371875,0.4850085 0 1 0 0.76062,-0.59866 l -2.85106,-3.6392 a 0.48371875,0.4850085 0 0 0 -0.28853,-0.17616 l -4.52227,-0.88008 a 0.48371875,0.4850085 0 0 0 -0.0957,-0.01 z m -12.92116,3.64493 a 0.48371875,0.4850085 0 0 0 -0.0821,0.009 l -4.47941,0.80203 a 0.48371875,0.4850085 0 0 0 -0.39638,0.43181 l -0.63992,6.73775 a 0.48371875,0.4850085 0 1 0 0.96274,0.0917 l 0.60491,-6.37112 4.11804,-0.73686 a 0.48371875,0.4850085 0 0 0 -0.0879,-0.96386 z m 3.82236,3.36637 a 0.48371875,0.4850085 0 0 0 -0.29425,0.12031 l -3.35956,2.88801 a 0.48371875,0.4850085 0 0 0 -0.16927,0.36808 v 5.61491 a 0.48387,0.48516016 0 1 0 0.96774,0 v -5.39149 l 3.19101,-2.74265 a 0.48371875,0.4850085 0 0 0 -0.33567,-0.85717 z"
           style="color:#000000;font-style:normal;font-variant:normal;font-weight:normal;font-stretch:normal;font-size:medium;line-height:normal;font-family:sans-serif;font-variant-ligatures:normal;font-variant-position:normal;font-variant-caps:normal;font-variant-numeric:normal;font-variant-alternates:normal;font-feature-settings:normal;text-indent:0;text-align:start;text-decoration:none;text-decoration-line:none;text-decoration-style:solid;text-decoration-color:#000000;letter-spacing:normal;word-spacing:normal;text-transform:none;writing-mode:lr-tb;direction:ltr;text-orientation:mixed;dominant-baseline:auto;baseline-shift:baseline;text-anchor:start;white-space:normal;shape-padding:0;clip-rule:nonzero;display:inline;overflow:visible;visibility:visible;opacity:1;isolation:auto;mix-blend-mode:normal;color-interpolation:sRGB;color-interpolation-filters:linearRGB;solid-color:#000000;solid-opacity:1;vector-effect:none;fill:#000000;fill-opacity:1;fill-rule:nonzero;stroke:#ffffff;stroke-width:0.387452;stroke-linecap:round;stroke-linejoin:round;stroke-miterlimit:4;stroke-dasharray:none;stroke-dashoffset:0;stroke-opacity:1;color-rendering:auto;image-rendering:auto;shape-rendering:auto;text-rendering:auto;enable-background:accumulate" />
        <path
           id="path6862"
           d="m 262.81498,148.18462 c -2.78477,2.79219 -7.1756,1.96103 -9.73894,-0.60879 -2.56334,-2.57017 -3.39193,-6.9727 -0.60716,-9.76489 2.78477,-2.79184 7.17559,-1.96104 9.73893,0.60913 2.56264,2.56982 3.39158,6.9727 0.60717,9.76455 z"
           inkscape:connector-curvature="0"
           style="fill:#800000;stroke:none;stroke-width:0.353061;stroke-linecap:round;stroke-linejoin:round" />
        <path
           id="path6864"
           d="m 254.07139,138.73208 c -1.27618,1.27958 -3.29429,0.9595 -4.48527,-0.23465 -1.19098,-1.19378 -1.5102,-3.21728 -0.23366,-4.49722 1.27617,-1.27958 3.29429,-0.9595 4.48526,0.23465 1.19098,1.19378 1.5102,3.21728 0.23367,4.49722 z"
           inkscape:connector-curvature="0"
           style="fill:url(#radialGradient6898);fill-opacity:1;stroke:#000000;stroke-width:0.366154;stroke-linecap:round;stroke-linejoin:round" />
        <path
           id="path6868"
           d="m 252.28066,137.90252 c 2.19131,-2.9957 6.31665,-3.17147 9.31182,-1.4767 2.96758,1.67917 4.99662,5.27682 3.84568,8.73803 -0.0677,-0.002 -0.13809,-0.007 -0.21234,-0.016 -1.0221,-0.12033 -2.70556,-0.85175 -12.94516,-7.24535 z"
           inkscape:connector-curvature="0"
           style="fill:url(#radialGradient6902);fill-opacity:1;stroke:#000000;stroke-width:0.366154;stroke-linecap:round;stroke-linejoin:round" />
        <ellipse
           ry="0.80221146"
           rx="0.80007815"
           id="ellipse6872"
           cy="139.24062"
           cx="258.48669"
           style="fill:#000000;stroke:none;stroke-width:0.366154;stroke-linecap:round;stroke-linejoin:round" />
        <ellipse
           ry="0.70761794"
           rx="0.70573622"
           id="ellipse6874"
           cy="134.01488"
           cx="251.575"
           style="fill:#ffaaaa;stroke:none;stroke-width:0.366154;stroke-linecap:round;stroke-linejoin:round" />
        <ellipse
           ry="0.67352033"
           rx="0.67172927"
           id="ellipse6876"
           cy="136.05376"
           cx="249.54153"
           style="fill:#ffaaaa;stroke:none;stroke-width:0.366154;stroke-linecap:round;stroke-linejoin:round" />
        <g
           id="g6996"
           transform="rotate(11.305961,251.08683,137.34696)">
          <path
             style="fill:url(#radialGradient6900);fill-opacity:1;stroke:#000000;stroke-width:0.366154;stroke-linecap:round;stroke-linejoin:round"
             inkscape:connector-curvature="0"
             d="m 252.43503,137.4657 c 7.15828,6.51815 8.37375,8.2091 9.11569,9.82489 0.29327,0.63869 0.5123,1.26565 0.41906,1.91534 -3.21128,2.02679 -7.32174,0.68745 -9.58521,-2.0334 -2.2931,-2.75641 -2.78894,-7.06408 0.0504,-9.70683 z"
             id="path6866" />
          <g
             id="g6975">
            <ellipse
               ry="0.6804865"
               rx="0.6786769"
               id="ellipse6878"
               cy="142.44908"
               cx="252.87054"
               style="fill:#000000;stroke:none;stroke-width:0.366154;stroke-linecap:round;stroke-linejoin:round" />
            <ellipse
               ry="1.1343887"
               rx="1.1313721"
               id="ellipse6880"
               cy="144.21373"
               cx="256.23062"
               style="fill:#000000;stroke:none;stroke-width:0.366154;stroke-linecap:round;stroke-linejoin:round" />
            <ellipse
               ry="1.2528138"
               rx="1.2494824"
               id="ellipse6884"
               cy="147.42223"
               cx="257.19052"
               style="fill:#000000;stroke:none;stroke-width:0.366154;stroke-linecap:round;stroke-linejoin:round" />
          </g>
          <path
             style="opacity:0.843;fill:#ececec;fill-opacity:0.195;fill-rule:nonzero;stroke:none;stroke-width:1.44753;stroke-linecap:butt;stroke-linejoin:round;stroke-miterlimit:4;stroke-dasharray:none;stroke-dashoffset:0;stroke-opacity:1"
             d="m 258.74091,146.1134 c -1.55757,1.4232 -3.93761,1.18145 -5.55251,-0.63391 -1.6149,-1.81536 -1.85313,-4.51687 -0.29557,-5.94008 1.55757,-1.4232 1.99529,1.09604 3.61019,2.9114 1.6149,1.81536 3.79545,2.23939 2.23789,3.66259 z"
             id="path6882"
             inkscape:connector-curvature="0"
             sodipodi:nodetypes="sssss" />
        </g>
        <ellipse
           ry="1.0760926"
           rx="1.073231"
           id="ellipse6886"
           cy="141.64688"
           cx="262.32654"
           style="fill:#1a1a1a;stroke:none;stroke-width:0.366154;stroke-linecap:round;stroke-linejoin:round" />
        <path
           transform="matrix(2.0776008,-0.39894089,0.39922185,2.0790639,217.73661,122.55223)"
           sodipodi:nodetypes="sssss"
           inkscape:connector-curvature="0"
           id="path6888"
           d="m 19.644938,12.677235 c -0.429624,0.647 -0.735976,-0.151098 -2.029976,-1.010346 -1.294,-0.859249 -2.65656,-0.768007 -2.226935,-1.415007 0.429625,-0.6470001 2.0397,-0.8850243 3.3337,-0.02578 1.293999,0.859249 1.352835,1.804129 0.923211,2.451129 z"
           style="opacity:0.731;fill:url(#linearGradient6906);fill-opacity:1;fill-rule:nonzero;stroke:none;stroke-width:0.355;stroke-linecap:butt;stroke-linejoin:round;stroke-miterlimit:4;stroke-dasharray:none;stroke-dashoffset:0;stroke-opacity:1;filter:url(#filter5785)" />
      </g>
    </g>
  </g>
</svg>
