<svg height="32" viewBox="0 0 8.4666665 8.4666669" width="32" xmlns="http://www.w3.org/2000/svg" xmlns:xlink="http://www.w3.org/1999/xlink"><radialGradient id="a" cx="-2.209961" cy="12.870117" gradientUnits="userSpaceOnUse" r="8.168555"><stop offset="0" stop-color="#ff0"/><stop offset=".69563836" stop-color="#f60"/><stop offset=".8193019" stop-color="#ff0"/><stop offset="1" stop-color="#d45500"/></radialGradient><g transform="matrix(1.8307117 0 0 1.8307117 5.303785 -2.00064)"><circle cx="-.584719" cy="3.405218" fill="#ff0" opacity=".42" r="1.695491"/><path d="m-.45317982 3.2455643.12332418.2284579c.30556791-.163507.61054818-.3263598.91624679-.489658l-.12235168-.2301517c-.30575298.1633272-.61159698.3278157-.91721929.4913518z" stroke="#fff" stroke-width=".079375"/><path d="m-2.2089844 4.8515625a8.0180858 8.0180858 0 0 0 -8.0195316 8.0195315 8.0180858 8.0180858 0 0 0 8.0195316 8.017578 8.0180858 8.0180858 0 0 0 8.0175782-8.017578 8.0180858 8.0180858 0 0 0 -8.0175782-8.0195315zm0 2.1582031a5.8595899 5.8595899 0 0 1 5.859375 5.8613284 5.8595899 5.8595899 0 0 1 -5.859375 5.859375 5.8595899 5.8595899 0 0 1 -5.859375-5.859375 5.8595899 5.8595899 0 0 1 5.859375-5.8613284z" fill="url(#a)" stroke="#000" stroke-linejoin="round" stroke-width=".3" transform="scale(.26458333)"/><g stroke="#fff"><path d="m-1.7622577 3.3426308.019687.2596143c.3454076-.028282.6921871-.056173 1.03763147-.084212l-.0224186-.2592014c-.34550557.028044-.68943137.055512-1.03489987.083799z" stroke-width=".079375"/><circle cx="-.573524" cy="3.390906" r=".324489" stroke-linejoin="round" stroke-width=".079375"/><path d="m-.7578125 2.1143581c.00026419.1255414.00026419.2508809 0 .3769531l.26367188.00195c.00026496-.1264412.00026497-.2529929 0-.3789063z" stroke-width=".072262"/><path d="m-.7578125 4.3596549c.00026419.1255414.00026419.2508809 0 .3769531l.26367188.00195c.00026496-.1264412.00026497-.2529929 0-.3789063z" stroke-width=".072262"/></g></g></svg>