<svg height="32" viewBox="0 0 8.4666665 8.4666669" width="32" xmlns="http://www.w3.org/2000/svg" xmlns:xlink="http://www.w3.org/1999/xlink"><filter id="a" color-interpolation-filters="sRGB" height="1.057756" width="1.061018" x="-.030509" y="-.028878"><feGaussianBlur stdDeviation=".083756152"/></filter><g fill="#fff" filter="url(#a)" stroke-width=".264583"><path d="m4.9844473 2.463421q0-.6046124-.263549-.873329-.2583813-.2687166-.857826-.2687166h-.7183002v2.4132817h.7596412q.552936 0 .816485-.2893871.263549-.2893871.263549-.981849zm.5219303 3.1987609q0-.6872943-.346231-1.0231901-.3410634-.3358957-1.121375-.3358957h-.8939995v2.811189q.7441383.031006 1.1730513.031006.6046123 0 .8939994-.3669015.2945548-.3669018.2945548-1.1162077zm-4.88340733 2.0205421v-.3772368l.89399943-.1395259v-5.9014298l-.89399943-.1343583v-.37723671h3.36412503q1.3797564 0 2.036045.37206911.6562886.3669015.6562886 1.1937218 0 .6201152-.3875721 1.0696987-.387572.4495836-1.0386929.5891095.9663462.098185 1.4624383.5270979.4960922.4237454.4960922 1.1575484 0 1.0076873-.7441382 1.5296176-.7441383.5219303-2.1342299.5219303l-2.3564378-.0310058z" fill="#fff" stroke-width=".264583"/></g><path d="m5.3004483 2.463421q0-.6046124-.263549-.873329-.2583813-.2687166-.857826-.2687166h-.7183001v2.4132817h.7596411q.5529361 0 .816485-.2893871.263549-.2893871.263549-.981849zm.5219303 3.1987609q0-.6872943-.346231-1.0231901-.3410634-.3358957-1.121375-.3358957h-.8939994v2.811189q.7441382.031006 1.1730512.031006.6046124 0 .8939995-.3669015.2945547-.3669018.2945547-1.1162077zm-4.8834073 2.0205421v-.3772368l.8939994-.1395259v-5.9014298l-.8939994-.1343583v-.37723671h3.364125q1.3797564 0 2.036045.37206911.6562886.3669015.6562886 1.1937218 0 .6201152-.387572 1.0696987-.387572.4495836-1.038693.5891095.9663462.098185 1.4624384.5270979.4960921.4237454.4960921 1.1575484 0 1.0076873-.7441382 1.5296176-.7441383.5219303-2.1342299.5219303l-2.3564378-.0310058z"/></svg>