<svg height="32" viewBox="0 0 8.4666665 8.4666669" width="32" xmlns="http://www.w3.org/2000/svg" xmlns:xlink="http://www.w3.org/1999/xlink"><filter id="a" color-interpolation-filters="sRGB" height="1.132783" width="1.157287" x="-.078643" y="-.066392"><feGaussianBlur stdDeviation=".20663847"/></filter><g fill="#fff" filter="url(#a)" transform="matrix(1.0506006 0 0 1.0506006 -21.594616 24.071932)"><path d="m21.880587-22.777922h.877407v3.920237q0 1.037328.376031 1.495482.376032.453831 1.218861.453831.838507 0 1.214539-.453831.376031-.458154.376031-1.495482v-3.920237h.877407v4.028292q0 1.262083-.626719 1.906091-.622397.644008-1.841258.644008-1.223183 0-1.849902-.644008-.622397-.644008-.622397-1.906091z"/><path d="m21.607422-15.988281v1c1.984594-.000265 3.969059-.000265 5.953125 0v-1c-1.984155-.000265-3.968442-.000265-5.953125 0z"/></g><path d="m1.763195.33851267h.877407v3.92023713q0 1.0373285.3760315 1.4954819.3760316.4538312 1.218861.4538312.8385072 0 1.2145387-.4538312.3760316-.4581534.3760316-1.4954819v-3.92023713h.877407v4.02829223q0 1.2620829-.6267193 1.906091-.6223971.6440081-1.841258.6440081-1.2231832 0-1.8499025-.6440081-.622397-.6440081-.622397-1.906091z"/><path d="m1.2567708 7.128154v1c1.984594-.000265 3.969059-.000265 5.953125 0v-1c-1.984155-.000265-3.968442-.000265-5.953125 0z"/></svg>