<svg height="32" viewBox="0 0 8.4666665 8.4666669" width="32" xmlns="http://www.w3.org/2000/svg" xmlns:xlink="http://www.w3.org/1999/xlink"><filter id="a" color-interpolation-filters="sRGB" height="1.154259" width="1.14826" x="-.07413" y="-.077129"><feGaussianBlur stdDeviation=".24006182"/></filter><g transform="translate(-20.73199 31.531529)"><g fill="#fff" filter="url(#a)" stroke-width=".067889"><path d="m23.270567-24.043614v.394003h-2.202105v-.394003l.539732-.145728 2.574519-6.757438h1.565221l2.563725 6.757438.550526.145728v.394003h-3.222197v-.394003l.836584-.145728-.690857-1.872868h-2.779617l-.663869 1.872868zm1.149628-5.812908-1.192807 3.200607h2.353229z" fill="#fff"/></g><path d="m23.341299-24.185781v.377237h-2.108392v-.377237l.516763-.139526 2.464958-6.469869h1.498612l2.454622 6.469869.527098.139526v.377237h-3.085073v-.377237l.800982-.139526-.661456-1.793166h-2.661328l-.635618 1.793166zm1.100705-5.565534-1.142046 3.064403h2.253085z" fill="#00f"/></g></svg>