<?xml version="1.0" encoding="utf-8"?>
<!-- Generator: Adobe Illustrator 25.2.0, SVG Export Plug-In . SVG Version: 6.00 Build 0)  -->
<svg version="1.1" id="Layer_1" xmlns="http://www.w3.org/2000/svg" xmlns:xlink="http://www.w3.org/1999/xlink" x="0px" y="0px"
	 viewBox="0 0 32 32" style="enable-background:new 0 0 32 32;" xml:space="preserve">
<g>
	<path d="M28.7,26.6l-1.8-3.2L25,20.2l-0.5-0.9l-2.3-4.1c0-0.2-0.1-0.3-0.1-0.5l-0.1,0.1l0,0l-4.6,7.9l-2.9,5l-2.2,3.8l0,0H20h11.6
		L28.7,26.6z M20.2,29.9h-5l0.2-0.4l1.9-3.3l0.4-0.7l2.5-4.2l1.6-2.8l0.1,0.1l2.9,5l2.5,4.4l1.2,2h-8.2C20.2,30,20.2,29.9,20.2,29.9
		z"/>
	<path d="M15.8,13.4c1.7,0,3.2,1.4,3.2,3.1l2-3.5c-1.2-1.7-3.1-2.8-5.2-2.8c-3.5,0-6.4,2.9-6.4,6.4c0,3.3,2.6,6.1,5.9,6.4l2-3.5
		c-0.4,0.2-1,0.4-1.5,0.4c-1.7,0-3.2-1.5-3.2-3.2C12.6,14.8,14.1,13.4,15.8,13.4z"/>
	<path d="M12.4,24.9c-0.6-0.3-1.3-0.6-1.9-1.2L9,22.7l-1.7,0.6l-2,0.9l-1.1-1.9l1.7-1.4l1.4-1.1L7.1,18c0-0.5-0.1-0.9-0.1-1.2
		c0-0.3,0-0.6,0.1-1.2l0.2-1.8l-1.4-1.2l-1.7-1.4l1.1-1.9l2,0.9L9,10.8l1.5-1.1c0.6-0.5,1.4-0.9,2-1.2l1.7-0.6l0.2-1.8L14.8,4H17
		l0.3,2.1l0.2,1.8l1.7,0.6c0.6,0.3,1.3,0.6,1.9,1.2l1.5,1.1l1.7-0.6l2-0.9l1.1,1.9l-1.7,1.4l-1.4,1.2c-0.1-0.1,0.2,1.7,0.2,1.7
		c0.1,0.4,0.1,0.6,0.1,1l4.9,8.4l1.7-3c0.2-0.3,0.1-0.7-0.2-1.1l-3.4-2.7c0.1-0.5,0.1-1.1,0.1-1.6c0-0.5,0-1.1-0.1-1.6l3.4-2.7
		c0.3-0.2,0.4-0.6,0.2-1.1l-3.2-5.6c-0.1-0.2-0.4-0.4-0.7-0.4h-0.3l-4,1.6c-0.9-0.6-1.7-1.2-2.7-1.6L19.8,1c0-0.4-0.4-0.6-0.7-0.6
		h-6.4c-0.4,0-0.7,0.3-0.7,0.6l-0.6,4.3c-1,0.4-1.9,1-2.7,1.6l-4-1.6H4.3C4,5.3,3.8,5.4,3.7,5.7l-3.2,5.6c-0.2,0.3-0.1,0.7,0.2,1.1
		L4.1,15C4,15.5,4,16.1,4,16.6c0,0.5,0,1.1,0.1,1.6l-3.4,2.7c-0.3,0.2-0.4,0.6-0.2,1.1l3.2,5.6c0.1,0.2,0.4,0.4,0.7,0.4h0.3l4-1.6
		c0.9,0.6,1.7,1.2,2.7,1.6l0.2,1.5l2.2-4L12.4,24.9z"/>
	<polygon points="21,23.8 21,25.4 22.8,25.4 22.8,22.8 22.8,21.9 21,21.9 	"/>
	<polygon points="21,27.3 21,27.7 21,29 22.8,29 22.8,27.3 21.8,27.3 	"/>
</g>
</svg>
