<?xml version="1.0" encoding="utf-8"?>
<!-- Generator: Adobe Illustrator 25.2.0, SVG Export Plug-In . SVG Version: 6.00 Build 0)  -->
<svg version="1.1" id="Layer_1" xmlns="http://www.w3.org/2000/svg" xmlns:xlink="http://www.w3.org/1999/xlink" x="0px" y="0px"
	 viewBox="0 0 32 32" style="enable-background:new 0 0 32 32;" xml:space="preserve">
<g>
	<g>
		<path d="M16,15.5v1.9l2.5-2.5L16,12.4v1.9c-2.8,0-5.1,2.3-5.1,5.1c0,1,0.3,1.9,0.8,2.7l1-1c-0.3-0.5-0.4-1.1-0.4-1.8
			C12.2,17.2,13.9,15.5,16,15.5z M20.3,16.6l-1,1c0.3,0.5,0.4,1.1,0.4,1.8c0,2.1-1.7,3.8-3.8,3.8v-1.9l-2.5,2.5l2.5,2.5v-1.9
			c2.8,0,5.1-2.3,5.1-5.1C21.1,18.3,20.8,17.4,20.3,16.6z"/>
	</g>
	<g id="Grupo_258_14_" transform="translate(-272.1 -317.4)">
		<path id="Trazado_1677_13_" d="M290.9,318.8h-11.3c-1.6,0-2.9,1.3-2.8,2.9v23.4c0,1.6,1.2,2.9,2.8,2.9h17c1.6,0,2.9-1.3,2.8-2.9
			v-17.6L290.9,318.8z M279.6,345.2v-23.4h9.9v7.3h7.1v16.1L279.6,345.2L279.6,345.2z"/>
	</g>
</g>
</svg>
