<?xml version="1.0" encoding="utf-8"?>
<!-- Generator: Adobe Illustrator 25.2.0, SVG Export Plug-In . SVG Version: 6.00 Build 0)  -->
<svg version="1.1" id="Layer_1" xmlns="http://www.w3.org/2000/svg" xmlns:xlink="http://www.w3.org/1999/xlink" x="0px" y="0px"
	 viewBox="0 0 32 32" style="enable-background:new 0 0 32 32;" xml:space="preserve">
<style type="text/css">
	.st0{fill:none;}
</style>
<g>
	<g>
		<path class="st0" d="M13.7,20.9l-0.8,0.7c-2.4-0.8-4.2-3-4.2-5.7c0-3.3,2.7-6,6-6c2.8,0,5.1,1.9,5.8,4.5l-2.4,2.3l-1,0.9l0,0
			c-0.2,0.3-0.5,0.6-0.8,0.8l0,0l-0.8,0.7L13.7,20.9z"/>
		<path d="M14.7,9.9c-3.3,0-6,2.7-6,6c0,2.7,1.8,5,4.2,5.7l0.8-0.7l1.9-1.8l0.8-0.7c-0.5,0.3-1,0.5-1.6,0.5c-1.6,0-3-1.4-3-3
			c0-1.7,1.4-3,3-3s3,1.3,3,3c0,0.6-0.2,1.2-0.5,1.7l1-0.9l2.4-2.3C19.9,11.9,17.5,9.9,14.7,9.9z M14.7,9.9c-3.3,0-6,2.7-6,6
			c0,2.7,1.8,5,4.2,5.7l0.8-0.7l1.9-1.8l0.8-0.7c-0.5,0.3-1,0.5-1.6,0.5c-1.6,0-3-1.4-3-3c0-1.7,1.4-3,3-3s3,1.3,3,3
			c0,0.6-0.2,1.2-0.5,1.7l1-0.9l2.4-2.3C19.9,11.9,17.5,9.9,14.7,9.9z M29.3,20.3l-0.6,0.5l-1.2,1.1l-1.1,1l-2.5,2.3l-0.5,0.5l2,0.8
			h0.3c0.3,0,0.5-0.1,0.6-0.4l3-5.2C29.4,20.7,29.4,20.5,29.3,20.3z M26.2,5.7c-0.1-0.2-0.4-0.4-0.7-0.4h-0.3l-3.7,1.5
			c-0.8-0.6-1.6-1.1-2.5-1.5l-0.6-4c0-0.4-0.4-0.6-0.7-0.6h-6c-0.4,0-0.7,0.3-0.7,0.6l-0.6,4C9.4,5.7,8.5,6.2,7.8,6.8L4.1,5.2H3.8
			c-0.3,0-0.5,0.1-0.6,0.4l-3,5.2c-0.2,0.3-0.1,0.7,0.2,1l3.2,2.5c-0.1,0.5-0.1,1-0.1,1.5s0,1,0.1,1.5l-3.2,2.5
			c-0.3,0.2-0.4,0.6-0.2,1l3,5.2c0.1,0.2,0.4,0.4,0.7,0.4h0.3L7.9,25c0.4,0.3,0.7,0.5,1.1,0.8v-0.4L9.4,25l1.5-1.4
			c-0.5-0.2-0.9-0.5-1.4-0.9l-1.4-1l-1.6,0.6l-1.9,0.8l-1-1.8L5.2,20l1.3-1l-0.2-1.7c0-0.5-0.1-0.8-0.1-1.1c0-0.3,0-0.6,0.1-1.1
			l0.2-1.7l-1.3-1.1L3.6,11l1-1.8L6.5,10l1.6,0.6l1.4-1c0.6-0.5,1.3-0.8,1.9-1.1l1.6-0.6l0.2-1.7l0.3-2h2.1l0.3,2l0.2,1.7l1.6,0.6
			c0.6,0.3,1.2,0.6,1.8,1.1l1.4,1l1.6-0.6l1.9-0.8l0.7,1.2l2.4-1.9L26.2,5.7z M14.7,9.9c-3.3,0-6,2.7-6,6c0,2.7,1.8,5,4.2,5.7
			l0.8-0.7l1.9-1.8l0.8-0.7c-0.5,0.3-1,0.5-1.6,0.5c-1.6,0-3-1.4-3-3c0-1.7,1.4-3,3-3s3,1.3,3,3c0,0.6-0.2,1.2-0.5,1.7l1-0.9
			l2.4-2.3C19.9,11.9,17.5,9.9,14.7,9.9z"/>
	</g>
	<g>
		<path d="M27.5,19.5l-0.1-0.1l-0.8-0.8l-1.3-1.4l-1.6-1.6l-0.8-0.8l0,0l-0.2-0.2l-2,1.9L19.2,18l-2.6,2.5l-1.8,1.7l-0.1,0.1
			l-2.2,2.1l-1.9,1.9v0.9v0.3l-0.1,3.8l5.3-0.1l2.8-2.7l0.7-0.7l2.5-2.4l1-1l1.3-1.3l1.1-1l0,0l1.2-1.1l1.3-1.2L27.5,19.5z
			 M14.5,28.2h-1.2v-1l9.5-8.9l1.2,1.1L14.5,28.2z"/>
		<g>
			<path d="M31.5,15.8l-1.8,1.9l-0.5,0.5l-0.5-0.5l-0.9-0.9l-1.3-1.4l-0.7-0.7l-0.2-0.2L25,13.9l-0.1-0.1l-0.5-0.5l2.3-2.3
				c0.3-0.2,0.6-0.4,0.7-0.4h0.1c0.5,0,0.7,0.1,0.9,0.4l0.7,0.7l2.1,2.2l0.1,0.2C32.1,14.7,32.1,15.4,31.5,15.8z"/>
		</g>
	</g>
</g>
</svg>
