<?xml version="1.0" encoding="utf-8"?>
<!-- Generator: Adobe Illustrator 25.2.0, SVG Export Plug-In . SVG Version: 6.00 Build 0)  -->
<svg version="1.1" id="Layer_1" xmlns="http://www.w3.org/2000/svg" xmlns:xlink="http://www.w3.org/1999/xlink" x="0px" y="0px"
	 viewBox="0 0 32 32" style="enable-background:new 0 0 32 32;" xml:space="preserve">
<g>
	<g>
		<path d="M2,15.2c-0.4,0-0.7-0.1-1-0.4c-0.3-0.3-0.4-0.6-0.4-1V6.2c0-0.7,0.5-1.3,1.2-1.4l9.3-1.3c0.4-0.1,0.8,0.1,1.1,0.3
			c0.3,0.3,0.5,0.6,0.5,1v8.9c0,0.7-0.6,1.4-1.3,1.4L2,15.2C2,15.2,2,15.2,2,15.2z M3.3,7.4v5.1l6.6-0.1V6.4L3.3,7.4z"/>
	</g>
	<g>
		<path d="M16.6,15c-0.4,0-0.7-0.1-1-0.4c-0.3-0.3-0.4-0.6-0.4-1V4.1c0-0.7,0.5-1.2,1.2-1.3l13.4-1.8c0.4-0.1,0.8,0.1,1.1,0.3
			c0.3,0.3,0.5,0.6,0.5,1v11.2c0,0.7-0.6,1.3-1.3,1.4L16.6,15C16.7,15,16.7,15,16.6,15z M18,5.3v7l10.7-0.1V3.8L18,5.3z"/>
	</g>
	<g>
		<path d="M30,31.1c-0.1,0-0.1,0-0.2,0l-13.4-1.8c-0.7-0.1-1.2-0.7-1.2-1.4v-9.5c0-0.4,0.1-0.7,0.4-1c0.3-0.3,0.6-0.4,1-0.4
			c0,0,0,0,0,0L30,17.1c0.7,0,1.4,0.6,1.4,1.4v11.2c0,0.4-0.2,0.8-0.5,1C30.7,30.9,30.4,31.1,30,31.1z M18,26.7l10.7,1.5v-8.3
			L18,19.7V26.7z"/>
	</g>
	<g>
		<path d="M11.3,28.6c-0.1,0-0.1,0-0.2,0l-9.3-1.3c-0.6-0.1-1.1-0.6-1.1-1.3v-7.9c0-0.4,0.1-0.7,0.4-0.9C1.3,17,1.6,16.9,2,16.8
			l9.3,0.1c0.7,0,1.3,0.6,1.3,1.3v9.1c0,0.4-0.2,0.7-0.5,1C11.9,28.5,11.6,28.6,11.3,28.6z M3.3,24.9l6.7,0.9v-6.3l-6.7-0.1V24.9z"
			/>
	</g>
</g>
</svg>
