<?xml version="1.0" encoding="utf-8"?>
<!-- Generator: Adobe Illustrator 25.2.0, SVG Export Plug-In . SVG Version: 6.00 Build 0)  -->
<svg version="1.1" id="Layer_1" xmlns="http://www.w3.org/2000/svg" xmlns:xlink="http://www.w3.org/1999/xlink" x="0px" y="0px"
	 viewBox="0 0 32 32" style="enable-background:new 0 0 32 32;" xml:space="preserve">
<g>
	<polygon points="9.3,21.7 15.9,25 18.5,23.3 11.9,20 	"/>
	<path d="M6.3,8v3.1l4.1,2.1l0,0l0,0c0-1,0-2.1,0-3L6.3,8z"/>
	<path d="M24.5,7.2l4.1,3.8c0.2,0.2,0.4,0.2,0.5,0L31,9.3c0.1-0.1,0.1-0.2,0.1-0.3l0.2-1.8c0-0.1,0-0.3-0.1-0.4l-4.3-4.2
		c-0.2-0.2-0.4-0.2-0.5,0l-2,1.8c-0.1,0.1-0.2,0.2-0.1,0.4L24.4,7C24.3,7,24.4,7.1,24.5,7.2z"/>
	<path d="M31.8,23.6l-1.2-1.2l0,0l-0.1-0.1l0.3-0.2c0.5-0.3,0.6-0.7,0.6-1.2s-0.3-0.9-0.7-1.2l-4.9-2.6l0.1-0.1l3-3.5
		c0.1-0.2,0.1-0.4,0-0.5l-1.7-1.6c-0.1-0.1-0.2-0.1-0.3-0.1l-1.7-0.1c-0.1,0-0.2,0-0.3,0.1l-3.2,3.5l-0.1,0.1l-5.8-3.1
		c-0.3-0.2-0.5-0.2-0.8-0.2V7.7c0-0.5-0.3-1-0.8-1.3L4.2,1.7C3.7,1.5,3.3,1.5,2.8,1.8C2.4,2.1,2.2,2.5,2.2,3v9.5
		c0,0.5,0.3,1,0.8,1.3l4.7,2.2l-6.8,4.3c-0.5,0.3-0.6,0.7-0.6,1.2s0.3,0.9,0.7,1.2l15.1,7.7c0.2,0.1,0.4,0.2,0.6,0.2
		c0.3,0,0.5-0.1,0.7-0.2l8.8-5.4l0.1,0.1l2.9,2.7c0.2,0.2,0.4,0.2,0.5,0l1.8-1.7c0.1-0.1,0.1-0.2,0.1-0.3l0.2-1.9
		C31.9,23.8,31.8,23.7,31.8,23.6z M6.3,12.4L5,11.7v-1.4V9.6V5.3l1.3,0.6L10.7,8l1.6,0.7v6.5l-1.7-0.8l0,0L6.3,12.4z M16.6,27.6
		l-0.2-0.1l-12-6.1L6.5,20l0.3-0.2l3.8-2.5l0,0l2.3,1.1c0.2,0.1,0.4,0.2,0.5,0.2l0,0c0.1,0,0.3,0,0.4-0.1l0,0c0.1,0,0.1,0,0.2-0.1
		l-0.4,0.3l6.7,3.2l2.3-1.6L16.3,17l-2,1.3c0.1-0.1,0.2-0.1,0.2-0.2c0.2-0.3,0.4-0.5,0.4-0.9v-2.6l0.3-0.2h0.1l0.5,0.3l10.1,5.4l0,0
		L24.9,21c-0.1,0.1-0.2,0.2-0.1,0.4l0.1,0.9v0.2L16.6,27.6z"/>
</g>
</svg>
