<?xml version="1.0" encoding="utf-8"?>
<!-- Generator: Adobe Illustrator 25.2.0, SVG Export Plug-In . SVG Version: 6.00 Build 0)  -->
<svg version="1.1" id="Layer_1" xmlns="http://www.w3.org/2000/svg" xmlns:xlink="http://www.w3.org/1999/xlink" x="0px" y="0px"
	 viewBox="0 0 32 32" style="enable-background:new 0 0 32 32;" xml:space="preserve">
<style type="text/css">
	.st0{fill:#020202;}
</style>
<path class="st0" d="M30.9,19.4c-0.2-1.3-1.7-2.3-1.7-2.3s-2.7-2.3-3.7-3.9c-0.7-1-0.9-2-0.9-2.6c0-0.4-0.1-0.8-0.1-1.2
	c-0.9-4-2.4-5.5-3.4-6.2c-0.9-0.7-3.5-2.2-6.8-1.4C11.1,2.6,9.9,4.8,9,6c-0.8,1.2-1.3,3.6-1.4,4.7c-0.1,0.9-0.4,2-0.4,2
	S6.7,14.2,4,16.3c-2.6,2.1-2.8,3.2-2.8,3.2s-0.4,1.1,0.6,1.1c0.7,0,2.7-1.5,4-1.8c0,0.2-0.1,1,0,2c0,1,0.2,2.1,0.6,3.1
	c0.3,0.9,0.7,1.4,0.9,1.7c-2.4,0.6-2.9,2.3-2.9,3.5c0,0.7,0.6,1.3,1.3,1.3h8c0.8,0,1.3-0.6,1.3-1.3c0.2,0,0.4,0,0.7,0
	c0.2,0,0.5,0,0.7,0c0.1,0.7,0.7,1.3,1.5,1.3h7.5c0.8,0,1.5-0.6,1.5-1.4c0-0.2,0-0.4-0.1-0.6c-0.3-0.6-0.8-1.8-2.4-2.5
	c0,0,0.1-0.1,0.1-0.1c0.6-0.7,1-1.4,1.3-2.1c0.6-1.3,0.9-2.8,0.9-4.3c0-0.2,0-0.4,0-0.4s0.8,0.2,2,0.9c1.4,0.9,1.7,0.7,1.9,0.7
	C30.6,20.7,31,20.4,30.9,19.4z M18.5,7.5c1.6,0,2.9,1.2,2.9,2.7S20.1,13,18.5,13c-0.2,0-0.3,0-0.5,0c-0.1-0.2-0.2-0.3-0.4-0.5
	c-0.3-0.3-0.8-0.4-1.3-0.5c-0.2-0.2-0.3-0.4-0.5-0.7c0.1,0.2,0.3,0.3,0.5,0.3c0.5,0,0.7-0.6,0.7-1.3c0-0.7-0.2-1.2-0.7-1.3
	c-0.4,0-0.8,0.6-0.8,1.2c0,0,0-0.1,0-0.1C15.6,8.6,16.9,7.5,18.5,7.5z M12.6,6.7c1.5,0,2.7,1.2,2.9,2.8c-0.1-0.3-0.3-0.4-0.7-0.4
	c-0.7,0-0.9,0.7-0.9,1.4c0,0.6,0.4,1.3,0.8,1.3c0.1,0,0.2,0,0.4-0.1c-0.1,0.1-0.2,0.2-0.3,0.3c-0.6,0.1-1.2,0.2-1.6,0.4
	c-0.2,0.1-0.5,0.4-0.6,0.7c-1.6,0-2.9-1.4-2.9-3.2C9.7,8.1,11,6.7,12.6,6.7z M20.9,25.4c-2.7,0.2-4,1.3-4.4,2.6c-0.6,0-1.3,0-1.9,0
	c-0.7-1.3-2.1-2.5-5.2-2.5c-0.4,0-0.8,0-1.1,0.1c-0.2-1.3-0.3-3.5,0-6.1c0.2-1.5,0.7-2.7,1.3-3.6c0.7-1,1.8-1.8,3-2.2
	c0.1,0.5,0.7,1.2,0.7,1.2s1.1,1.6,2.4,1.7c0.8-0.1,2.2-1.8,2.5-2.8c0.1-0.2,0-0.4,0-0.6c5.4-0.6,6.6,9.1,6.1,12.8
	C23.3,25.5,22.3,25.3,20.9,25.4z"/>
</svg>
