<?xml version="1.0" encoding="utf-8"?>
<!-- Generator: Adobe Illustrator 25.2.0, SVG Export Plug-In . SVG Version: 6.00 Build 0)  -->
<svg version="1.1" id="Layer_1" xmlns="http://www.w3.org/2000/svg" xmlns:xlink="http://www.w3.org/1999/xlink" x="0px" y="0px"
	 viewBox="0 0 32 32" style="enable-background:new 0 0 32 32;" xml:space="preserve">
<g>
	<g>
		<path d="M29.1,30.2H2.9c-0.7,0-1.4-0.7-1.4-1.4V3.2c0-0.7,0.7-1.4,1.4-1.4h26.2c0.7,0,1.4,0.7,1.4,1.4v25.7
			C30.5,29.6,30,30.2,29.1,30.2z M4.4,27.4h23.4V4.6H4.4V27.4z"/>
	</g>
	<g>
		<path d="M24.3,25.4H7.9c-0.7,0-1.4-0.7-1.4-1.4V7.9c0-0.7,0.7-1.4,1.4-1.4h16.3c0.7,0,1.4,0.7,1.4,1.4V24
			C25.7,24.8,25,25.4,24.3,25.4z M9.2,22.6h13.5V9.3H9.2V22.6z"/>
	</g>
</g>
</svg>
