<?xml version="1.0" encoding="utf-8"?>
<!-- Generator: Adobe Illustrator 25.2.0, SVG Export Plug-In . SVG Version: 6.00 Build 0)  -->
<svg version="1.1" id="Layer_1" xmlns="http://www.w3.org/2000/svg" xmlns:xlink="http://www.w3.org/1999/xlink" x="0px" y="0px"
	 viewBox="0 0 32 32" style="enable-background:new 0 0 32 32;" xml:space="preserve">
<path d="M29.8,16.9l-4.3-2.2h0c0-0.1,0-0.1,0-0.2V5.6c0-0.6-0.4-0.7-0.4-0.7L16,0.2c-0.3-0.1-0.6-0.1-0.8,0c0,0-7.9,4.2-8.3,4.4
	C6.4,4.8,6.4,5.2,6.4,5.2v4L6.2,9.3c0,0-3.5,1.9-4,2.1c-0.5,0.3-0.5,0.6-0.5,0.6V21c0,0.3,0.2,0.6,0.5,0.7l17.9,10
	c0.4,0.2,0.6,0.1,0.8,0l8.7-4.7c0.3-0.2,0.5-0.5,0.5-0.8c0,0,0-8.5,0-8.8C30.2,17,29.8,16.9,29.8,16.9z M23.9,13.9L17,17.5v-7
	l0.5-0.2l0.1,0l6.2-3L23.9,13.9z M14.9,2.4L15.6,2l4,2.1L21.1,5l1.5,0.7l-1.4,0.7l-4.4,2.2L16.1,9l-2-1l-3.2-1.7L9.3,5.5L14.9,2.4z
	 M8.2,7.1L9,7.5l0.5,0.3l5.5,2.8v6.8l-1.1-0.6l-5.6-3.1V7.1L8.2,7.1z M6.2,11.3l0.2-0.1v1.7l-0.2-0.1L4.9,12L6.2,11.3z M10.7,24.4
	l-6.9-3.9v-6.7l6.9,3.6V24.4z M19.6,29.4L13.5,26l-0.8-0.5v-6.7l5.2,2.7l1.7,0.8l0.1,0.1V29.4z M21,20.7l-0.6,0.2l-2.8-1.6l1.7-0.9
	l1.8-0.9l2.6-1.4l0.2-0.1l1.5,0.8l0.3,0.2l1.4,0.7l-1.4,0.7L21,20.7L21,20.7z M21.4,29.4v-7l6.8-3.2l0.1,6.6L21.4,29.4z"/>
</svg>
