<?xml version="1.0" encoding="utf-8"?>
<!-- Generator: Adobe Illustrator 25.2.0, SVG Export Plug-In . SVG Version: 6.00 Build 0)  -->
<svg version="1.1" id="Layer_1" xmlns="http://www.w3.org/2000/svg" xmlns:xlink="http://www.w3.org/1999/xlink" x="0px" y="0px"
	 viewBox="0 0 32 32" style="enable-background:new 0 0 32 32;" xml:space="preserve">
<g>
	<g>
		<path d="M16.4,30.6C16.5,30.6,16.5,30.6,16.4,30.6l0.2-0.1C16.6,30.5,16.5,30.5,16.4,30.6z"/>
		<path d="M30.1,9.6L30.1,9.6c0-0.1,0-0.2,0-0.2c0-0.1,0-0.2-0.1-0.3V9c0,0,0-0.1-0.1-0.1c0,0,0-0.1-0.1-0.1c0-0.1-0.1-0.1-0.1-0.2
			l-0.1-0.1l-0.1-0.1l0,0c0,0-0.1,0-0.1-0.1L16,1.3c-0.4-0.2-0.9-0.2-1.3,0L2.3,8H2.2C2.1,8,2.1,8.1,2,8.1L1.9,8.2L1.8,8.3
			C1.6,8.5,1.5,8.8,1.5,9.1v13.1c0,0.5,0.3,1,0.7,1.2l12.9,7.2c0.1,0,0.2,0.1,0.3,0.1s0.2,0.1,0.2,0.1c0.1,0,0.2,0,0.3,0
			c0.1,0,0.2,0,0.3,0s0.2,0,0.2-0.1c0,0,0,0,0.1,0c0.1,0,0.1-0.1,0.2-0.1l4.6-2.6c-0.3-0.5-0.3-1.1,0.1-1.5h-2.6c-0.1,0-0.2,0-0.2,0
			l-1.3,0.7v-2v-0.1v-3V22v-5.3l10.1-4.9v6.5l2.8,2.8L30.1,9.6z M14.3,4.4l0.2,3.7L7.6,8L14.3,4.4z M14.6,26.9L4.3,21.1v-9.9
			l10.3,5.3V26.9z M8.1,10.1l6.4,0.1l0.2,3.3L8.1,10.1z M16,14.2L16,14.2C15.9,14.1,15.9,14.1,16,14.2C16,14.1,16,14.1,16,14.2
			L16,14.2z M16.9,13.7l-0.2-3.4l6.8,0.1L16.9,13.7z M16.6,8.2l-0.2-3.6l7,3.8L16.6,8.2z"/>
	</g>
	<g>
		<polygon points="30.5,23.5 24.6,29.3 22.5,27.3 24.9,24.9 18.8,24.9 18.8,21.9 24.9,21.9 22.5,19.6 24.6,17.6 27.4,20.3 30,23 		
			"/>
		<path d="M17.2,21.9v3V25V21.9C17.2,21.8,17.2,21.9,17.2,21.9z"/>
	</g>
</g>
</svg>
