<?xml version="1.0" encoding="utf-8"?>
<!-- Generator: Adobe Illustrator 25.2.0, SVG Export Plug-In . SVG Version: 6.00 Build 0)  -->
<svg version="1.1" id="Layer_1" xmlns="http://www.w3.org/2000/svg" xmlns:xlink="http://www.w3.org/1999/xlink" x="0px" y="0px"
	 viewBox="0 0 32 32" style="enable-background:new 0 0 32 32;" xml:space="preserve">
<g>
	<path d="M13.7,20.3l2.1-1.3l2.1,1.3l-0.6-2.4l1.9-1.6l-2.5-0.2l-1-2.3l-1,2.3l-2.5,0.2l1.9,1.6L13.7,20.3z"/>
	<path d="M24.2,19.5C24.1,19.5,24.1,19.5,24.2,19.5L17.3,1.9c-0.2-0.6-0.8-1-1.4-1c-0.6,0-1.2,0.4-1.4,0.9l-7,17.7l0,0
		c-3.2,1-5.5,2.7-5.5,5.2c0,4.4,7.2,6.4,14,6.4c6.7,0,13.9-2,13.9-6.4C29.8,22.3,27.4,20.6,24.2,19.5z M10.9,19l4.9-12.4L20.6,19
		l0.7,1.9c-0.7,0.3-1.7,0.7-2.7,0.9c-1.3,0.4-2.7,0.6-3.9,0.5c-0.8-0.1-1.5-0.2-2.2-0.4c-1-0.3-1.9-0.7-2.4-1L10.9,19z M26.8,24.8
		c-0.2,0.9-4.2,3-10.9,3c-6.9,0-10.8-2.1-11-3c0.1-0.4,1.1-1.2,2.9-1.8c0.1,0,0.2-0.1,0.3-0.1c1.1,0.7,3.3,2,6.5,2.3
		c0.3,0,0.7,0.1,1,0.1c3.7,0,7.5-1.8,8.3-2.2c0.1,0,0.2,0.1,0.3,0.1C25.8,23.7,26.7,24.4,26.8,24.8L26.8,24.8z"/>
</g>
</svg>
