<svg height="32" viewBox="0 0 8.4666665 8.4666669" width="32" xmlns="http://www.w3.org/2000/svg" xmlns:xlink="http://www.w3.org/1999/xlink"><radialGradient id="a" cx="15.614744" cy="14.487043" gradientTransform="matrix(.8972302 -.44156296 .46469661 .94423641 18.899849 38.219937)" gradientUnits="userSpaceOnUse" r="15.958009"><stop offset="0" stop-color="#00bc00"/><stop offset=".8214854" stop-color="#00bc00"/><stop offset="1" stop-color="#008000"/></radialGradient><linearGradient id="b" gradientUnits="userSpaceOnUse" x1="26.051621" x2="44.585431" y1="40.25247" y2="40.25247"><stop offset="0" stop-color="#f2f2f2"/><stop offset="1" stop-color="#f2f2f2" stop-opacity="0"/></linearGradient><filter id="c" color-interpolation-filters="sRGB" height="1.179537" width="1.157856" x="-.078928" y="-.089769"><feGaussianBlur stdDeviation=".52641736"/></filter><linearGradient id="d" gradientUnits="userSpaceOnUse" x1="255.36996" x2="270.98077" y1="1181.8407" y2="1202.3575"><stop offset="0" stop-color="#f2f2f2"/><stop offset=".26857078" stop-color="#f9f9f9"/><stop offset=".5757919" stop-color="#fff"/><stop offset=".81298268" stop-color="#f9f9f9"/><stop offset="1" stop-color="#e6e6e6"/></linearGradient><g transform="matrix(.2527183055 0 0 .25271825787 -6.04994547869 -7.45809849371)"><circle cx="40.690678" cy="46.262711" fill="url(#a)" r="15.8456" stroke="#000" stroke-linecap="round" stroke-linejoin="round" stroke-width=".224818"/><path d="m43.164119 34.101073c1.152337 1.513548-4.228787 1.054507-8.769431 4.511519-4.540647 3.457011-5.483176 9.965913-6.635513 8.452363-1.152337-1.513548-.185322-7.322735 4.355324-10.779747 4.540646-3.457011 9.897283-3.697684 11.04962-2.184135z" fill="url(#b)" filter="url(#c)" opacity=".703"/></g><path d="m250.888 1219.978v-27.01-27.009l27.009 27.009z" fill="url(#d)" transform="matrix(.0965191297 0 0 .0965191297 -20.66180026622 -110.91082649925)"/></svg>