<svg height="32" viewBox="0 0 8.4666665 8.4666669" width="32" xmlns="http://www.w3.org/2000/svg" xmlns:xlink="http://www.w3.org/1999/xlink"><linearGradient id="a" gradientUnits="userSpaceOnUse" x1="19.95563977457" x2="20.19378493201" y1="5.75023705298" y2="14.10277622013"><stop offset="0" stop-color="#0ff"/><stop offset="1" stop-color="#3098ff"/></linearGradient><linearGradient id="b" gradientUnits="userSpaceOnUse" x1="-110.634" x2="-80.523972" y1="482.23401" y2="531.54504"><stop offset="0" stop-color="#8c8cf7"/><stop offset="1" stop-color="#434347"/></linearGradient><g transform="matrix(.96651866 0 0 .96651866 120.43841 -58.175998)"><g transform="matrix(.26458333 0 0 .26458333 -124.46391 60.337931)"><path d="m14.389482 4.517176h12.782759v21.229084h-12.782759z" fill="#695f9f" stroke="#000" stroke-linecap="round" stroke-linejoin="round" stroke-width=".355"/><path d="m15.506675 15.422262h10.721104v8.147167h-10.721104z" fill="#008000" stroke="#008000" stroke-linecap="round" stroke-linejoin="round" stroke-width=".365539"/><path d="m15.219884 5.342081h11.203155v10.109204h-11.203155z" fill="url(#a)"/><path d="m17.141002 15.020047c.807393-.406037 2.338643-1.135203 3.470367-1.289957s1.856979.259678 2.476618.634591c.619639.374914 1.130281.708394 1.385368.916127.255087.207732.255087.291109-1.188625.322737-1.443712.03163-4.263628.01105-5.649028-.04156-1.3854-.0526-1.302093-.135907-.4947-.541943z" fill="#004500"/><path d="m-110.634 539.836 33.046 14.974-1.105-89.203-31.941 16.627z" fill="url(#b)" stroke="#695f9f" stroke-linecap="round" stroke-linejoin="round" transform="matrix(.35466285 0 0 .35476408 44.065535 -165.00365)"/><path d="m12.638438 16.471303c0 .24152-.03293.465157-.125343.691004-.07834.191689-.234018.451895-.489932.451895-.256113 0-.41179-.260408-.490131-.452096-.0922-.226048-.125148-.449283-.125148-.690803 0-.241519.03293-.465155.125348-.691003.07834-.191688.234018-.451894.489931-.451894.256114 0 .411791.260407.490132.452096.0922.225846.125143.449282.125143.690801z" fill="#f2f2f2"/><path d="m19.308898 7.3875804a2.3386412 1.1693206 0 0 0 -2.338641 1.1693205 2.3386412 1.1693206 0 0 0 1.956177 1.1522679 1.765867 1.0913659 0 0 0 -.08526.3288712 1.765867 1.0913659 0 0 0 1.766154 1.091366 1.765867 1.0913659 0 0 0 1.724757-.855066 1.7974004 1.1108545 0 0 0 .645565.07552 1.7974004 1.1108545 0 0 0 1.797819-1.1108554 1.7974004 1.1108545 0 0 0 -1.797823-1.1108545 1.7974004 1.1108545 0 0 0 -1.332539.3678489 2.3386412 1.1693206 0 0 0 -2.336209-1.1084186z" fill="#f9f9f9" stroke="#f9f9f9" stroke-linejoin="round" stroke-width=".442783"/><path d="m18.97506 15.020047c.807393-.406037 2.338643-1.135203 3.470367-1.289957s1.856979.259678 2.476618.634591c.619639.374914 1.130281.708394 1.385368.916127.255087.207732.255087.291109-1.188625.322737-1.443712.03163-4.263628.01105-5.649028-.04156-1.3854-.0526-1.302093-.135907-.4947-.541943z" fill="#782121"/></g><path d="m-120.0129 64.416484 1.65621.54954-1.23934.362479-.1352.280723-.33801.549539-.0225-1.683808z" fill="#00807c"/></g></svg>