<svg height="32" viewBox="0 0 8.4666665 8.4666669" width="32" xmlns="http://www.w3.org/2000/svg"><g transform="matrix(.06246923566 0 0 .06133857622 42.26579474742 9.32405268826)"><path d="m-544.18056-70.694019c-10.67 7.558-27.09549 20.304525-48.43549 40.755525-21.719-10.644-58.03151-11.005525-61.81251-10.465525-6.343-24.033-12.686-48.065-19.029-72.098001 7.466-3.499 10.352-4.187 17.131-4.197 6.778-.011 17.449.656 40.123 9.993 12.004-14.671 33.344-26.676 44.015-29.343 9.336 21.784 18.672 43.569001 28.008 65.355001z" fill="#999" stroke="#803300" stroke-linecap="round" stroke-linejoin="round" stroke-width="5"/><path d="m-669.97656-114.06602c5.09-2.151 8.034-2.625 13.649-2.633 6.778-.011 17.449.656 40.123 9.993 7.405 24.066001 14.14359 46.055624 21.54859 70.122624-17.16-8.863-46.87959-9.202623-56.82459-9.308623-6.165-22.725-12.33-45.449-18.496-68.174001z" fill="#f2f2f2"/><path d="m-572.18956-136.05002c8.696 20.29 17.391 40.579001 26.086 60.868001-11.39 7.497-28.01941 18.978623-48.55241 38.598623-7.405-24.066-14.14259-46.056623-21.54759-70.123624 12.003-14.671 33.344-26.675 44.014-29.343z" fill="#f9f9f9"/><g fill="none" stroke="#000" stroke-linecap="round" stroke-linejoin="round"><path d="m-575.56856-129.10802c-10.208 4.106-16.608 8.537-22.219 13.346-5.61 4.809-10.43 9.997-12.602 12.611"/><path d="m-572.00056-120.09202c-10.208 4.105-16.608 8.536-22.218 13.346-5.61 4.809-10.43 9.997001-12.603 12.611001"/><path d="m-570.97656-110.13302c-10.208 4.105-16.608 8.536-22.219 13.346001-5.61 4.809-10.43 9.997-12.603 12.611"/><path d="m-567.40956-101.11802c-10.208 4.105001-16.608 8.536001-22.218 13.346001-5.61 4.809-10.43 9.997-12.603 12.611"/><path d="m-566.21256-90.851019c-10.208 4.105-16.608 8.536-22.218 13.346s-10.43 9.997-12.603 12.611"/><path d="m-562.64456-81.835019c-10.208 4.105-16.608 8.537-22.219 13.346-5.61 4.81-10.43 9.998-12.602 12.611"/><path d="m-649.80156-59.351019c10.909-1.436 18.66-.718 25.908.718 7.249 1.436 13.995 3.588 17.171 4.799"/><path d="m-651.12056-68.957019c10.909-1.435 18.66-.718 25.908.718 7.249 1.436 13.995 3.588 17.171 4.799"/><path d="m-655.11856-78.489019c10.909-1.436 18.66-.718 25.908.718 7.249 1.435 13.995 3.588 17.171 4.799"/><path d="m-656.43656-88.095019c10.909-1.436 18.66-.718 25.908.718 7.249 1.435 13.995 3.588 17.171 4.799"/><path d="m-660.43456-97.274019c10.909-1.435 18.66-.718 25.909.718s13.995 3.588 17.171 4.799"/><path d="m-661.75256-106.87902c10.909-1.436 18.66-.718 25.908.717 7.249 1.436 13.995 3.589 17.171 4.799"/></g></g></svg>