<svg height="32" viewBox="0 0 8.4666665 8.4666669" width="32" xmlns="http://www.w3.org/2000/svg" xmlns:xlink="http://www.w3.org/1999/xlink"><linearGradient id="a" gradientUnits="userSpaceOnUse" x1="28.268864" x2="-48.488998" y1="1051.5282" y2="1022.985"><stop offset="0" stop-color="#646494"/><stop offset="1" stop-color="#fafafc"/></linearGradient><g transform="matrix(.25853249 0 0 .25764495 .096669 .110871)"><path d="m15.561456 17.892213 14.639548 8.413675-13.619976 5.584938-16.41606643-8.558737z" fill="#784421" stroke="#784421" stroke-linejoin="round" stroke-width=".219355"/><path d="m7.553 1045.543 1.12-41.661-21.808-38.619-35.354 57.722-.351 44.878z" fill="url(#a)" transform="matrix(.22121066 0 0 .21708917 27.478029 -200.73871)"/><path d="m-29.002 1060.011.59-41.375 19.982-6.469-.444 39.878z" fill="#c87137" stroke="#502d16" stroke-linecap="round" stroke-linejoin="round" stroke-width="1.00098" transform="matrix(.22121066 0 0 .21708917 27.478029 -200.73871)"/><path d="m-118.601 1031.501.358-32.309 69.754 23.793-.351 44.878z" fill="#bebed2" transform="matrix(.22121066 0 0 .21708917 27.478029 -200.73871)"/><path d="m16.685173 22.878772-8.3796645-3.930285 6.3774445-.222469 2.068792 2.614237z" fill="#4d4d4d" opacity=".878"/><path d="m16.685173 22.878772 8.527978-13.4222951-1.186501-2.2246897-7.267321 11.9391678-.07416 3.707817" fill="#4d4d4d" opacity=".507"/><g transform="matrix(.22121066 0 0 .21708917 27.478029 -200.73871)"><path d="m-13.135 965.263 5.693-9.295 27.639 49.729-11.524-1.815z" fill="#575b72"/><path d="m-46.706 929.32-14.843-4.634-12.883 7.254 15.076 4.902z" fill="#646494" fill-opacity=".607843"/><path d="m-53.511 1031.184 46.069-75.216-72.592-19.985-43.164 60.761z" fill="#9999f0"/><path d="m-69.807 940.522 10.35 3.366-.585 41.036-10.545-2.618z" fill="#c1c1d4"/></g><path d="m16.406214 9.0847026 2.540727-4.1703006-2.169072-.5932506-2.335925 3.2443392z" fill="#4d4d4d" opacity=".857"/><path d="m-59.457 943.888 9.661-5.44-.255 28.083-9.991 18.393z" fill="#646493" transform="matrix(.22121066 0 0 .21708917 27.478029 -200.73871)"/><path d="m-59.498 934.233-8.188-2.601 6.828-4.209 7.778 2.598z" fill="#090956" transform="matrix(.22121066 0 0 .21708917 27.478029 -200.73871)"/><path d="m-59.356 936.842-15.076-4.902-.101 7.046 15.076 4.902z" fill="#bbbbea" transform="matrix(.22121066 0 0 .21708917 27.478029 -200.73871)"/><path d="m-46.706 929.32-12.65 7.522-.101 7.046 12.883-7.255z" fill="#7676f4" transform="matrix(.22121066 0 0 .21708917 27.478029 -200.73871)"/></g></svg>