<svg height="32" viewBox="0 0 8.4666665 8.4666669" width="32" xmlns="http://www.w3.org/2000/svg" xmlns:xlink="http://www.w3.org/1999/xlink"><linearGradient id="a" gradientUnits="userSpaceOnUse" x1="307.543" x2="427.25" y1="851.0495" y2="851.0495"><stop offset="0" stop-color="#007500"/><stop offset=".13077705" stop-color="#00d200"/><stop offset=".89766061" stop-color="#00d200"/><stop offset="1" stop-color="#007500"/></linearGradient><linearGradient id="b" gradientUnits="userSpaceOnUse" x1="15.770425" x2="15.93611" y1="32.299393" y2="27.580111"><stop offset="0" stop-color="#2e2e2e"/><stop offset="1" stop-color="#2e2e2e" stop-opacity="0"/></linearGradient><g transform="matrix(.25662978 0 0 .25662076 .04394 .075304)"><path d="m327.383 852.352v-62.688h-6.002l-13.338 13.337v94.884l14.55 14.55h44.804 44.803l14.55-14.55v-94.884l-13.338-13.337h-6.002v62.688h-40.013z" fill="url(#a)" stroke="#1a1a1a" stroke-linecap="round" stroke-linejoin="round" transform="matrix(.26731915 0 0 .25854204 -81.887461 -203.82906)"/><path d="m8.0761719 21.355469v10.71875h8.2480471 8.25v-10.71875h-8.25zm3.0976561 2.136719h3.601563v6.78125h-3.601563z" fill="#f2f2f2"/><path d="m8.84627 4.618647h15.348129v2.449427h-15.348129z" fill="#f9f9f9" stroke="#000" stroke-linecap="round" stroke-linejoin="round" stroke-width=".262894"/><path d="m8.84627 8.997576h15.348129v2.449427h-15.348129z" fill="#f9f9f9" stroke="#000" stroke-linecap="round" stroke-linejoin="round" stroke-width=".262894"/><path d="m.45898438 27.910156v.402344l3.88867182 3.761719h11.9765628 11.976562l3.890625-3.761719v-.402344z" fill="url(#b)" opacity=".318"/></g></svg>