<svg viewBox="0 0 32 32">
  <path d="M19,1H7C5.4,1,4,2.3,4,4v24c0,1.6,1.4,3,3,3h18c1.6,0,3-1.4,3-3V10L19,1z M25,28H7V4h10.5v7.5H25V28z"/>
  <path transform="scale(0.65)" d="M 14 20 L 14 22 L 15 22 L 15 29 L 17 29 L 17 20 L 14 20 z M 23.5 20 C 21.578812 20 20 21.578812 20 23.5 L 20 25.5 C 20 27.421188 21.578812 29 23.5 29 C 25.421188 29 27 27.421188 27 25.5 L 27 23.5 C 27 21.578812 25.421188 20 23.5 20 z M 32.5 20 C 30.578812 20 29 21.578812 29 23.5 L 29 25.5 C 29 27.421188 30.578812 29 32.5 29 C 34.421188 29 36 27.421188 36 25.5 L 36 23.5 C 36 21.578812 34.421188 20 32.5 20 z M 23.5 22 C 24.340812 22 25 22.659188 25 23.5 L 25 25.5 C 25 26.340812 24.340812 27 23.5 27 C 22.659188 27 22 26.340812 22 25.5 L 22 23.5 C 22 22.659188 22.659188 22 23.5 22 z M 32.5 22 C 33.340812 22 34 22.659188 34 23.5 L 34 25.5 C 34 26.340812 33.340812 27 32.5 27 C 31.659188 27 31 26.340812 31 25.5 L 31 23.5 C 31 22.659188 31.659188 22 32.5 22 z M 17.5 33 C 15.578812 33 14 34.578812 14 36.5 L 14 38.5 C 14 40.421188 15.578812 42 17.5 42 C 19.421188 42 21 40.421188 21 38.5 L 21 36.5 C 21 34.578812 19.421188 33 17.5 33 z M 26.5 33 C 24.578812 33 23 34.578812 23 36.5 L 23 38.5 C 23 40.421188 24.578812 42 26.5 42 C 28.421188 42 30 40.421188 30 38.5 L 30 36.5 C 30 34.578812 28.421188 33 26.5 33 z M 32 33 L 32 35 L 33 35 L 33 42 L 35 42 L 35 33 L 32 33 z M 17.5 35 C 18.340812 35 19 35.659188 19 36.5 L 19 38.5 C 19 39.340812 18.340812 40 17.5 40 C 16.659188 40 16 39.340812 16 38.5 L 16 36.5 C 16 35.659188 16.659188 35 17.5 35 z M 26.5 35 C 27.340812 35 28 35.659188 28 36.5 L 28 38.5 C 28 39.340812 27.340812 40 26.5 40 C 25.659188 40 25 39.340812 25 38.5 L 25 36.5 C 25 35.659188 25.659188 35 26.5 35 z"/>
</svg>
