<svg viewBox="0 0 32 32">
	<g transform="translate(-538.75 -769.336)">
		<path fill="#E24444" d="M547,783.8c-1.8,0-3.4,0.6-4.7,1.6c-0.1,0.1-0.2,0.2-0.3,0.2c-1.3,1-2.1,2.4-2.5,4.1
			c-0.1,0.6-0.2,1.2-0.2,1.8c0,0.6,0.1,1.1,0.2,1.7c0.2,0.7,0.4,1.3,0.7,1.9c0.1,0.2,0.2,0.4,0.3,0.6c1.4,2.1,3.8,3.6,6.5,3.6
			c2.5,0,4.7-1.2,6.1-3c0.1-0.1,0.2-0.2,0.2-0.3c0.5-0.8,0.9-1.6,1.2-2.5c0-0.1,0.1-0.2,0.1-0.3c0.1-0.5,0.2-1.1,0.2-1.6
			C554.7,787.3,551.3,783.8,547,783.8z M551.2,794.8c-0.4,0.5-0.8,0.9-1.3,1.2c-0.8,0.5-1.8,0.8-2.9,0.8c-1,0-2-0.3-2.8-0.8
			c-0.7-0.4-1.3-1-1.7-1.7c-0.6-0.8-0.9-1.8-0.9-2.9c0-0.7,0.1-1.4,0.4-2c0.3-0.9,0.9-1.6,1.7-2.2c0.9-0.7,2-1.1,3.2-1.1
			c2.9,0,5.3,2.4,5.3,5.3c0.1,0.5,0.1,0.9,0,1.3c0,0.3-0.1,0.5-0.2,0.8C551.8,794,551.5,794.4,551.2,794.8z"/>
	</g>
	<path d="M28.6,2.5H3.4c-1.5,0-2.7,1.2-2.7,2.7v10.8c0.4-0.5,1-1,1.5-1.4c0.3-0.2,0.7-0.4,1-0.6V5.2C3.3,5.1,3.3,5,3.4,5h25.2
		c0.1,0,0.2,0.1,0.2,0.2V24c0,0.1-0.1,0.2-0.2,0.2H17.9c0,0.1,0,0.1,0,0.2c-0.1,0.5-0.2,1-0.4,1.5c0,0.1-0.1,0.3-0.2,0.4
		c-0.1,0.1-0.1,0.3-0.2,0.4c0,0,0,0,0,0h11.6c1.5,0,2.7-1.2,2.7-2.7V5.2C31.3,3.7,30.1,2.5,28.6,2.5z"/>
</svg>
