<svg viewBox="0 0 32 32">
	<path transform="rotate(-45) translate(-16,6)" d="M28,9.9h-4.2c-0.7-1.2-1.6-2.2-2.7-2.9l2.4-2.4l-2.1-2.1l-3.3,3.3c-0.7-0.2-1.4-0.3-2.1-0.3s-1.4,0.1-2.1,0.3l-3.3-3.3
		L8.5,4.7l2.4,2.4c-1.1,0.8-2,1.8-2.7,2.9H4v3h3.1C7,13.4,7,13.9,7,14.4v1.5H4v3h3v1.5c0,0.5,0.1,1,0.1,1.5H4v3h4.2
		c1.6,2.7,4.5,4.5,7.8,4.5s6.2-1.8,7.8-4.5H28v-3h-3.1c0.1-0.5,0.1-1,0.1-1.5v-1.5h3v-3h-3v-1.5c0-0.5-0.1-1-0.1-1.5H28V9.9z
		 M22,15.9v4.5c0,0.3,0,0.7-0.1,1l-0.1,1l-0.6,1c-1.1,1.9-3.1,3-5.2,3c-2.1,0-4.1-1.2-5.2-3l-0.6-1l-0.1-1C10,21.2,10,20.7,10,20.3
		v-6c0-0.3,0-0.7,0.1-1l0.1-1l0.6-1c0.5-0.8,1.1-1.5,1.8-2l0.9-0.6l1.1-0.3c0.5-0.1,0.9-0.2,1.4-0.2s0.9,0.1,1.4,0.2l1,0.2l0.9,0.6
		c0.8,0.5,1.4,1.2,1.8,2l0.6,1l0.2,1c0.1,0.3,0.1,0.7,0.1,1C22,14.4,22,15.9,22,15.9z M13,18.9h6v3h-6V18.9z M13,12.9h6v3h-6V12.9z"/>
</svg>
