<svg viewBox="0 0 32 32">
	<path fill="#4488FF" d="M27.5,18.2h-3.4v-3.7c0-0.7-0.6-1.3-1.3-1.3H19V9.6c0-0.7-0.6-1.3-1.3-1.3H4.5c-0.7,0-1.3,0.6-1.3,1.3v4.9
		c0,0.7,0.6,1.3,1.3,1.3h3.9v3.7c0,0.7,0.6,1.3,1.3,1.3H13v3.7c0,0.7,0.6,1.3,1.3,1.3h13.2c0.7,0,1.3-0.6,1.3-1.3v-4.9
		C28.7,18.7,28.2,18.2,27.5,18.2z M5.7,10.8h10.7v2.4H5.7V10.8z M10.9,15.8h10.7v2.4H10.9V15.8z M26.2,23.1H15.5v-2.4h10.7V23.1z"/>
	<path d="M28.6,28.1H3.4c-1.5,0-2.7-1.2-2.7-2.7V6.6c0-1.5,1.2-2.7,2.7-2.7h25.2c1.5,0,2.7,1.2,2.7,2.7v18.8
		C31.3,26.9,30.1,28.1,28.6,28.1z M3.4,6.4c-0.1,0-0.2,0.1-0.2,0.2v18.8c0,0.1,0.1,0.2,0.2,0.2h25.2c0.1,0,0.2-0.1,0.2-0.2V6.6
		c0-0.1-0.1-0.2-0.2-0.2H3.4z"/>
</svg>
