<svg viewBox="0 0 32 32">
	<path d="M28.6,3.4H3.4c-1.7,0-3.1,1.4-3.1,3.1v18.9c0,1.7,1.4,3.1,3.1,3.1h25.2c1.7,0,3.1-1.4,3.1-3.1V6.6
		C31.7,4.8,30.3,3.4,28.6,3.4z M10.8,18.3h10.9v1.2H10.8V18.3z M5.1,15.3v-1.3H16v1.3H5.1z M16,22.6h10.4v1.3H16V22.6z M3.4,6.4
		h25.2v13.3c-0.2-0.1-0.5-0.2-0.7-0.2h-3.2v-2.8c0-0.8-0.7-1.5-1.5-1.5H19v-2.8c0-0.8-0.7-1.5-1.5-1.5H3.6c-0.1,0-0.1,0-0.2,0
		L3.4,6.4L3.4,6.4z M3.4,25.4v-7.2c0,0,0.1,0,0.2,0h4.2v2.8c0,0.8,0.7,1.5,1.5,1.5h3.8v2.8L3.4,25.4L3.4,25.4z"/>
</svg>
