<svg viewBox="0 0 32 32">
	<g transform="translate(3 2) scale(1.2)">
		<path fill="#22AA22" d="M6,14.9c0.5,0,1-0.1,1.3-0.5c0.3-0.3,0.5-0.7,0.6-1.2h2c0,0.6-0.2,1.2-0.6,1.7s-0.8,0.9-1.4,1.2
			c-0.6,0.3-1.3,0.5-1.9,0.4c-1.2,0.1-2.5-0.4-3.3-1.3c-0.8-1-1.2-2.3-1.2-3.7v-0.2C1.4,10,1.9,8.8,2.7,7.7c0.8-0.9,2-1.4,3.3-1.3
			c1,0,2,0.3,2.9,1C9.5,8.2,10,9.1,10,10.1H8c0-0.5-0.2-1-0.6-1.3C6.9,8.4,6.5,8.3,6,8.3c-0.6,0-1.2,0.3-1.6,0.8
			C4,9.8,3.8,10.6,3.8,11.4v0.3c-0.1,0.8,0.1,1.6,0.6,2.3C4.6,14.6,5.3,14.9,6,14.9z"/>
	</g>
	<path fill="#22AA22"  d="M20,10h3l4,13h-3z"/>
	<circle fill="#22AA22" cx="18" cy="13" r="2"/>
	<circle fill="#22AA22" cx="18" cy="19" r="2"/>
	<path d="M28.6,28.1H3.4c-1.5,0-2.7-1.2-2.7-2.7V6.6c0-1.5,1.2-2.7,2.7-2.7h25.2c1.5,0,2.7,1.2,2.7,2.7v18.8
		C31.3,26.9,30.1,28.1,28.6,28.1z M3.4,6.4c-0.1,0-0.2,0.1-0.2,0.2v18.8c0,0.1,0.1,0.2,0.2,0.2h25.2c0.1,0,0.2-0.1,0.2-0.2V6.6
		c0-0.1-0.1-0.2-0.2-0.2H3.4z"/>
</svg>
