<svg viewBox="0 0 32 32">
	<polygon fill="#E24444" points="26.4,24 22.8,20.5 20.3,23.1 18.9,24.5 17.2,26.2 18.4,27.4 20.7,29.7 23,27.4 26.1,24.3 "/>
	<path d="M28.6,2.6H11.8l2.5,2.5h8.5c0.3-0.2,0.6-0.3,1-0.3c0.3,0,0.6,0.1,0.9,0.3h4c0.1,0,0.2,0.1,0.2,0.1v3.9l1.3,1.3
		c0.6,0.6,0.6,1.5,0,2.1l-1.3,1.3V24c0,0.2-0.2,0.3-0.2,0.3h-0.8c0,0.3-0.2,0.6-0.4,0.8l-1.6,1.6h2.8c1.5,0,2.7-1.2,2.7-2.7V5.2
		C31.3,3.8,30.1,2.6,28.6,2.6z M3.4,24.2c-0.1,0-0.2-0.1-0.2-0.2V13.9l-1.5-1.5c-0.6-0.6-0.6-1.5,0-2.1l1.5-1.5V5.2
		c0-0.1,0.1-0.1,0.2-0.1h3.4l2.5-2.5H3.4c-1.5,0-2.7,1.2-2.7,2.6V24c0,1.5,1.2,2.7,2.7,2.7h12.3c-0.1-0.2-0.1-0.4-0.1-0.6
		c0-0.4,0.1-0.8,0.4-1.1l0.6-0.7l0.1-0.1H3.4z"/>
	<polygon fill="#FFCE00" points="15.1,8 12.6,5.4 10.6,3.5 8.7,5.4 3.4,10.6 2.8,11.3 3.4,12 7.3,15.8 10.1,13 10.1,13 11.5,11.6"/>
	<polygon points="19.5,21.7 18.3,22.9 18.1,23.1 12.9,23.1 12.9,13 10.1,13 11.5,11.6 18.4,11.6 17,13 14.3,13 14.3,21.7"/>
	<rect fill="#4488FF" x="17.1" y="9" width="10.9" height="7.6" transform="matrix(0.7071 -0.7071 0.7071 0.7071 -2.4116 19.7039)"/>
</svg>
