<svg viewBox="0 0 32 32">
	<path d="M12.5,9.5C12.8,8.7,13,7.9,13,7c0-3.3-2.7-6-6-6S1,3.7,1,7s2.7,6,6,6c0.9,0,1.7-0.2,2.5-0.5L13,16l-3.5,3.5
		C8.7,19.2,7.9,19,7,19c-3.3,0-6,2.7-6,6s2.7,6,6,6s6-2.7,6-6c0-0.9-0.2-1.7-0.5-2.5L16,19l10.5,10.5H31V28L12.5,9.5z M7,10
		c-1.6,0-3-1.3-3-3s1.4-3,3-3c1.7,0,3,1.3,3,3S8.6,10,7,10z M7,28c-1.6,0-3-1.3-3-3s1.4-3,3-3c1.7,0,3,1.3,3,3S8.6,28,7,28z
		 M16,16.7c-0.4,0-0.8-0.3-0.8-0.8c0-0.4,0.3-0.8,0.8-0.8c0.4,0,0.8,0.3,0.8,0.8C16.7,16.4,16.4,16.7,16,16.7z M26.5,2.5l-9,9l3,3
		L31,4V2.5H26.5z"/>
</svg>
