<svg viewBox="0 0 32 32">
	<g transform="translate(-262.8 -667.195)">
		<path d="M290.4,679.7l-0.3-2.1l-3.2,0.5c-0.2-0.3-0.3-0.7-0.6-1.1l2.7-2l-1.3-1.7l-2.7,2.1
			c-0.2-0.3-0.6-0.6-0.9-0.8l1.2-3l-2-0.7l-1.1,2.7c-0.6-0.2-1.1-0.3-1.7-0.4c-0.5-1-1.4-1.7-2.4-2.1l0.3-2.5l-2.1-0.2L276,671
			c-1.4,0.2-2.6,1.2-3.2,2.5l-2.7-0.3l-0.2,2.1l2.5,0.2c0.1,1.1,0.6,2.2,1.4,2.8c0,0.2-0.1,0.4-0.1,0.6l2.3,1.5
			c-0.5-1.6,0-3.3,1.2-4.4c1.8-1.5,4.8-0.8,6.7,1.6c1.8,2.3,1.8,5.2,0.1,6.7l-1.8,1.2l1.7,1.1c0.4-0.2,0.8-0.4,1.2-0.7
			c1.7-1.4,2.5-3.7,2.2-5.8L290.4,679.7z M276.2,674.3c-0.6,0.4-1,1-1.3,1.6c-0.4-1.1,0.1-2.3,1.2-2.7c0.7-0.2,1.4-0.2,2,0.2
			C277.4,673.5,276.7,673.9,276.2,674.3z"/>
		<path d="M283.7,682l-4-5.1l-1.7,1.3l4,5.1L283.7,682z"/>
	</g>
	<path d="M4.4,8.9v18l0.7-0.4c0.1-2.8,2.4-5.1,5.2-5.1H13l3.1-1.9l1.6-1l1-0.7L4.4,8.9z M6.9,22.3v-8.6l6.8,4.3L6.9,22.3z"/>
	<path d="M18.6,28.8c0.1,0.1,0.1,2,0.1,2h-8.4c-2.2,0-4-1.7-4-4c0-0.3,0.1-0.7,0.2-1.1c0.5-1.7,2-2.9,3.8-2.9h7v-3l4,4l-4,4v-3h-7
		c-1.1,0-2,0.9-2,2s0.9,2,2,2H18.6L18.6,28.8z"/>
</svg>
