<svg viewBox="0 0 24 24">
    <path transform="scale(1.2, 1.1) translate(-3,-2)" d="M10 20H6V4H13V9H18V12.1L20 10.1V8L14 2H6C4.9 2 4 2.9 4 4V20C4 21.1 4.9 22 6 22H10V20M20.2 13C20.3 13 20.5 13.1 20.6 13.2L21.9 14.5C22.1 14.7 22.1 15.1 21.9 15.3L20.9 16.3L18.8 14.2L19.8 13.2C19.9 13.1 20 13 20.2 13M20.2 16.9L14.1 23H12V20.9L18.1 14.8L20.2 16.9Z" />
    <g transform="scale(0.66) translate(-2,2)">
        <path d="M15.2,22.1C15.2,22.1,15.2,22.1,15.2,22.1C15.3,22.1,15.3,22.1,15.2,22.1c1.5,0,2.7-0.5,3.7-1.1l3.7,3.7l0-0.1l0.1,0.1
            l2.1-2.2l-3.7-3.6c0.6-1.1,1.1-2.3,1.1-3.7c0-1.9-0.8-3.7-2.1-4.9c-1.3-1.3-3-2.1-4.9-2.1c-3.8,0-6.9,3.1-6.9,6.9
            C8.3,19.1,11.4,22.1,15.2,22.1z M15.2,19c-2.1,0-3.8-1.7-3.8-3.8c0-2.1,1.7-3.8,3.8-3.8c2.2,0,3.8,1.7,3.8,3.8
            C19,17.4,17.3,19,15.2,19z"/>
    	<rect x="12.6" y="14.5" width="5" height="1.5"/>
    	<rect x="14.3" y="12.8" width="1.5" height="5"/>
    </g>    
</svg>