<svg viewBox="0 0 32 32">
	<path id="Trazado_1777_6_" d="M27.3,28.5h1.3c1.7,0,3.1-1.4,3.1-3.1v-1.2L27.3,28.5z M28.6,3.4H3.3c-1.7,0-3.1,1.4-3.1,3.1
		v18.9c0,1.7,1.4,3.1,3.1,3.1h20.8l-1.6-1.6l1.5-1.5H3.3V6.6h25.2v12.3l1,1l2.1,2.2V6.6C31.7,4.8,30.3,3.4,28.6,3.4z"/>
	<path d="M14.5,22.3c0.1,0.1,0.1,1.5,0.1,1.5H8.2c-1.6,0-3-1.3-3-3c0-0.3,0.1-0.6,0.1-0.8c0.4-1.3,1.5-2.2,2.9-2.2h5.3v-2.3l3,3
		l-3,3v-2.3H8.2c-0.8,0-1.5,0.7-1.5,1.5s0.7,1.5,1.5,1.5L14.5,22.3L14.5,22.3z"/>
	<polygon points="30.6,23 30.7,23.1 25.8,28 24.7,26.9 26.1,25.4 27.7,23.8 20.6,23.8 20.6,22.3 27.7,22.3 24.7,19.1 25.8,18.1 
		28,20.3 28.6,20.9 			"/>
    <path transform="translate(-20) scale(1.8)"
       d="M 16.684887,6.046032 14.284884,4.7159102 q -0.180723,-0.101205 -0.242169,-0.1807231 -0.05783,-0.079518 -0.05783,-0.2024099 0,-0.1554218 0.112048,-0.2674701 0.112048,-0.1120483 0.263856,-0.1120483 0.09398,0 0.289157,0.1048194 l 3.574702,1.9879538 -3.574702,1.9879538 q -0.195181,0.1084339 -0.289157,0.1084339 -0.151808,0 -0.263856,-0.1120483 -0.112048,-0.1120483 -0.112048,-0.2710846 0,-0.1228917 0.05783,-0.2024099 0.06145,-0.079518 0.242169,-0.1807231 L 16.684887,6.046032 Z"
     />
</svg>
