<svg viewBox="0 0 32 32">
	<path d="M30.6,0.3h-29c-0.8,0-1.4,0.6-1.4,1.4v2.2c0.1,0,0.2,0,0.3,0c0.3,0,0.6,0.1,0.8,0.3l1.5,1V3h26.3v18.8h-7.7l0.4,0.4
		c0.6,0.6,0.6,1.6,0,2.3v0.1h8.7c0.7,0,1.3-0.6,1.3-1.4V1.6C31.9,0.9,31.3,0.3,30.6,0.3z"/>
	<path fill="#22AA22" d="M0.1,5.4v21.7l0.8-0.5c0.1-3.4,2.9-6.1,6.3-6.1h3.3l3.7-2.3l1.9-1.2l1.2-0.8L0.1,5.4z M3.2,21.5V11.1l8.2,5.2
		L3.2,21.5z"/>
	<path d="M17.2,29.3c0.1,0.1,0.1,2.4,0.1,2.4H7.2c-2.6,0-4.8-2.1-4.8-4.8c0-0.4,0.1-0.9,0.2-1.3c0.6-2,2.4-3.5,4.6-3.5h8.4v-3.6
		l4.8,4.8l-4.8,4.8v-3.6H7.2c-1.3,0-2.4,1.1-2.4,2.4s1.1,2.4,2.4,2.4L17.2,29.3L17.2,29.3z"/>
</svg>