<svg viewBox="0 0 32 32">
	<path d="M19.5,0.6H2c-0.8,0-1.5,0.7-1.5,1.5v27c0,0.8,0.7,1.5,1.5,1.5h10v-3H3.5V3.6H28v6.1l3,1.9V2.1C31,1.3,30.4,0.6,29.5,0.6
		z"/>
	<path d="M29.8,19l-4.4-2.8L21,13.4l-0.7-0.5L18,11.4l-4.5-2.9v22.9l10.9-6.9l6.8-4.4l0.2-0.1L29.8,19z M25,20.6l-8.2,5.1V14.8
		l1.3,0.8l1.4,0.9l1.6,1l1,0.7l3.4,2.2L25,20.6z"/>
    <path transform="translate(-20,-2) scale(1.8)"
       d="M 16.684887,6.046032 14.284884,4.7159102 q -0.180723,-0.101205 -0.242169,-0.1807231 -0.05783,-0.079518 -0.05783,-0.2024099 0,-0.1554218 0.112048,-0.2674701 0.112048,-0.1120483 0.263856,-0.1120483 0.09398,0 0.289157,0.1048194 l 3.574702,1.9879538 -3.574702,1.9879538 q -0.195181,0.1084339 -0.289157,0.1084339 -0.151808,0 -0.263856,-0.1120483 -0.112048,-0.1120483 -0.112048,-0.2710846 0,-0.1228917 0.05783,-0.2024099 0.06145,-0.079518 0.242169,-0.1807231 L 16.684887,6.046032 Z"
     />
</svg>
