<svg viewBox="0 0 32 32">
<g transform="translate(138.54 -420.324)">
	<g transform="translate(-132.813 431.607)">
			<ellipse cx="11.9" cy="9" rx="1.5" ry="1.5"/>
			<ellipse cx="11.9" cy="17.4" rx="1.5" ry="1.5"/>
			<path d="M23.2,12.3h-7.5c-0.5,0-1-0.4-1-1V6.7c0-0.5,0.4-1,1-1h7.5c0.5,0,1,0.4,1,1v4.6C24.2,11.9,23.8,12.3,23.2,12.3z
				 M16.6,10.4h5.6V7.7h-5.6V10.4z"/>
		<g transform="translate(0)">
				<path d="M4.9,11.9l0.7,0.7L9,9.1L5.6,5.7L4.9,6.3l2.9,2.9L4.9,11.9z"/>
		</g>
		<g transform="translate(0 4.415)">
				<path d="M4.9,15.6l0.7,0.7L9,12.8L5.6,9.4l-0.7,0.7l2.9,2.9L4.9,15.6z"/>
		</g>
		<path d="M23.2,20.4h-7.5c-0.5,0-1-0.4-1-1v-4.5c0-0.5,0.4-1,1-1h7.5c0.5,0,1,0.4,1,1v4.6C24.2,20,23.8,20.4,23.2,20.4z
				M16.6,18.6h5.6v-2.8h-5.6V18.6z"/>
	</g>
	<g transform="translate(-138.54 420.324)">
		<path d="M20.2,2h-8l-2-2h-6c-1.1,0-2,0.9-2,2v12.2c0,1.1,0.9,2,2,2h16.2c1.1,0,2-0.9,2-2V4C22.2,3,21.3,2,20.2,2z M20.2,14.2H4
			V2h5.3l2,2h8.9L20.2,14.2z"/>
	</g>
</g>
</svg>