<svg viewBox="0 0 32 32">
	<path d="M31.5,18.7l-6.6,7.4c-0.3,0.3-0.8,0.6-1.3,0.6h-0.5c-0.2,0.1-0.4,0.1-0.7,0.1H2.6c-1.4,0-2.5-1.1-2.5-2.5V9.4
		c0-1.3,1.1-2.5,2.5-2.5H10l0.2,0.2L7.8,9.5C7.5,9.7,7.4,10,7.4,10.4c0,0.3,0.1,0.7,0.3,0.9l0.7,0.7H2.6v10.2l5-5.5
		C7.9,16.2,8.4,16,8.9,16h2.2c-0.3,0.3-0.4,0.6-0.4,2.5H9.3L4,24.3h19.3l1.7-1.8l3.6-4h-1.1c0.7-0.7,1.1-1.6,1.3-2.5h1.4
		c0.7,0,1.2,0.4,1.6,1C32,17.5,32,18.2,31.5,18.7z"/>
	<path d="M27.8,14.2c0,2.9-2.3,5.1-5.1,5.1H11.8c0,0,0-0.4,0-0.9c0-0.7,0-1.6,0.1-1.7h10.8c1.4,0,2.6-1.2,2.6-2.6
		s-1.2-2.6-2.6-2.6h-8.9v3.8l-4-4l-1.2-1.2l2.5-2.4l2.6-2.6V9h8.9c2.3,0,4.3,1.6,4.9,3.7C27.6,13.3,27.8,13.8,27.8,14.2z"/>
</svg>
