<svg viewBox="0 0 32 32">
	<path d="M28.6,28.1H3.4c-1.5,0-2.7-1.2-2.7-2.7V6.6c0-1.5,1.2-2.7,2.7-2.7h25.2c1.5,0,2.7,1.2,2.7,2.7v18.8
		C31.3,26.9,30.1,28.1,28.6,28.1z M3.4,6.4c-0.1,0-0.2,0.1-0.2,0.2v18.8c0,0.1,0.1,0.2,0.2,0.2h25.2c0.1,0,0.2-0.1,0.2-0.2V6.6
		c0-0.1-0.1-0.2-0.2-0.2H3.4z"/>
	<path transform="scale(1.1) translate(-2,-2)" fill="#4488FF" d="M15.3,22.1c1.4,0,2.6-0.5,3.7-1.1l3.7,3.7l2.1-2.1l-3.7-3.7c0.6-1.1,1.1-2.3,1.1-3.7c0-3.8-3.1-6.9-6.9-6.9
		s-6.9,3.1-6.9,6.9C8.4,19,11.4,22.1,15.3,22.1z M15.3,11.4c2.1,0,3.8,1.7,3.8,3.8S17.3,19,15.3,19s-3.8-1.7-3.8-3.8
		S13.1,11.4,15.3,11.4z "/>
</svg>