<svg viewBox="0 0 32 32">
    <defs>
        <clipPath id="clip">
            <path d="M0 0v32h14v-20h18v-12z"/>
        </clipPath>
    </defs>
    <g clip-path="url(#clip)">
        <path d="M28.7 12.9V3.1c0-1.6-1.4-3.1-3.1-3.1H6.4C4.8 0 3.3 1.4 3.3 3.1v9.7h-3V19h3v9.8c0 1.6 1.4 3.1 3.1 3.1h19.3c1.6 0 2.9-1.2 3.1-2.9v-9.9h3v-6.2zM6.2 3.1c0-.1.1-.2.2-.2h19.3c.1 0 .2.1.2.2v9.7H6.2zM3.2 16c0-.2 0-.3.1-.5.2-.8 1-1.4 1.8-1.4.4 0 .8.1 1 .4.5.4.8.9.8 1.5s-.3 1.1-.8 1.5a1.83 1.83 0 0 1-2.8-1.1c-.1-.1-.1-.2-.1-.4zm22.6 12.9c0 .1-.1.3-.2.3H6.4c-.1 0-.2-.1-.2-.2v-9.8h19.7zm2.9-12.4c-.2.8-1 1.3-1.8 1.3-.4 0-.8-.1-1-.3-.5-.4-.8-.9-.8-1.5s.3-1.1.8-1.5c.3-.2.7-.4 1-.4.9 0 1.6.6 1.8 1.3 0 .2.1.3.1.5 0 .3-.1.4-.1.6z"/>
        <path d="M9 23.3h13.9v2.9H9z"/>
        <path d="M9 5.9h13.9v2.9H9z" />
    </g>
    <g transform="matrix(.41205 -.43746 .39483 .41917 9.85 23.27)">
        <path d="M28 9.9h-4.2c-.7-1.2-1.6-2.2-2.7-2.9l2.4-2.4-2.1-2.1-3.3 3.3a7.61 7.61 0 0 0-4.2 0l-3.3-3.3-2.1 2.2 2.4 2.4c-1.1.8-2 1.8-2.7 2.9H4v3h3.1c-.1.4-.1.9-.1 1.4v1.5H4v3h3v1.5c0 .5.1 1 .1 1.5H4v3h4.2c1.6 2.7 4.5 4.5 7.8 4.5s6.2-1.8 7.8-4.5H28v-3h-3.1c.1-.5.1-1 .1-1.5v-1.5h3v-3h-3v-1.5c0-.5-.1-1-.1-1.5H28zm-6 6v4.5c0 .3 0 .7-.1 1l-.1 1-.6 1a6 6 0 0 1-5.2 3c-2.1 0-4.1-1.2-5.2-3l-.6-1-.1-1c-.1-.2-.1-.7-.1-1.1v-6c0-.3 0-.7.1-1l.1-1 .6-1c.5-.8 1.1-1.5 1.8-2l.9-.6 1.1-.3c.5-.1.9-.2 1.4-.2.5 0 .9.1 1.4.2l1 .2.9.6c.8.5 1.4 1.2 1.8 2l.6 1 .2 1c.1.3.1.7.1 1v1.7zm-9 3h6v3h-6zm0-6h6v3h-6z" id="path2-2"/>
    </g>
</svg>