<svg viewBox="0 0 32 32">
<rect x="9" y="23.3" width="13.9" height="2.9"/>
<rect x="9" y="5.9" width="13.9" height="2.9"/>
<path d="M28.7,3.1v9.7h-2.8V3.1c0-0.1-0.1-0.2-0.2-0.2H6.4C6.3,2.9,6.2,3,6.2,3.1v9.7H3.3V3.1C3.3,1.4,4.8,0,6.4,0h19.2
	C27.3,0,28.7,1.5,28.7,3.1z"/>
<path d="M25.9,19.1v0.1h0l0,3.5l-0.1,6.2c0,0.1-0.1,0.3-0.2,0.3H6.4c-0.1,0-0.2-0.1-0.2-0.2v-9.9H3.3v9.7c0,1.6,1.4,3.1,3.1,3.1
	h19.3c1.6,0,2.9-1.2,3.1-2.9v-9.9H25.9z"/>
<path fill="#4488FF" d="M28.7,12.9v-0.1h-2.8H6.2H3.3h-3V19h3v0.1h25.5h3v-6.2H28.7z M6.1,17.5c-0.3,0.2-0.7,0.3-1,0.3
	c-0.9,0-1.6-0.6-1.8-1.4c-0.1-0.1-0.1-0.2-0.1-0.4s0-0.3,0.1-0.5c0.2-0.8,1-1.4,1.8-1.4c0.4,0,0.8,0.1,1,0.4
	c0.5,0.4,0.8,0.9,0.8,1.5S6.6,17.1,6.1,17.5z M28.7,16.5c-0.2,0.8-1,1.3-1.8,1.3c-0.4,0-0.8-0.1-1-0.3c-0.5-0.4-0.8-0.9-0.8-1.5
	s0.3-1.1,0.8-1.5c0.3-0.2,0.7-0.4,1-0.4c0.9,0,1.6,0.6,1.8,1.3c0,0.2,0.1,0.3,0.1,0.5C28.8,16.2,28.7,16.3,28.7,16.5z"/>
</svg>