<svg viewBox="0 0 32 32">
    <defs>
        <clipPath id="clip">
            <path d="M0 0v32h14v-20h18v-12z"/>
        </clipPath>
    </defs>
    <g clip-path="url(#clip)">
		<path d="M9,23.3h13.9v2.9H9V23.3z"/>
		<path d="M9,5.9h13.9v2.9H9V5.9z"/>
			<path d="M6.2,12.8V3.1c0-0.1,0.1-0.2,0.2-0.2h19.3c0.1,0,0.2,0.1,0.2,0.2v9.7h2.8V3.1c0-1.6-1.4-3.1-3.1-3.1H6.4
				C4.8,0,3.3,1.4,3.3,3.1v9.7H6.2z"/>
			<path d="M25.9,19.2l-0.1,9.7c0,0.1-0.1,0.3-0.2,0.3H6.4c-0.1,0-0.2-0.1-0.2-0.2v-9.8H3.3v9.6c0,1.6,1.4,3.1,3.1,3.1h19.3
				c1.6,0,2.9-1.2,3.1-2.9v-9.8H25.9z"/>
    </g>
    <g transform="matrix(.41205 -.43746 .39483 .41917 9.85 23.27)">
        <path d="M28 9.9h-4.2c-.7-1.2-1.6-2.2-2.7-2.9l2.4-2.4-2.1-2.1-3.3 3.3a7.61 7.61 0 0 0-4.2 0l-3.3-3.3-2.1 2.2 2.4 2.4c-1.1.8-2 1.8-2.7 2.9H4v3h3.1c-.1.4-.1.9-.1 1.4v1.5H4v3h3v1.5c0 .5.1 1 .1 1.5H4v3h4.2c1.6 2.7 4.5 4.5 7.8 4.5s6.2-1.8 7.8-4.5H28v-3h-3.1c.1-.5.1-1 .1-1.5v-1.5h3v-3h-3v-1.5c0-.5-.1-1-.1-1.5H28zm-6 6v4.5c0 .3 0 .7-.1 1l-.1 1-.6 1a6 6 0 0 1-5.2 3c-2.1 0-4.1-1.2-5.2-3l-.6-1-.1-1c-.1-.2-.1-.7-.1-1.1v-6c0-.3 0-.7.1-1l.1-1 .6-1c.5-.8 1.1-1.5 1.8-2l.9-.6 1.1-.3c.5-.1.9-.2 1.4-.2.5 0 .9.1 1.4.2l1 .2.9.6c.8.5 1.4 1.2 1.8 2l.6 1 .2 1c.1.3.1.7.1 1v1.7zm-9 3h6v3h-6zm0-6h6v3h-6z" id="path2-2"/>
    </g>
    <path fill="#4488FF" d="M2.6,12.8H1.3H0v6.4l12.7,0.1H14v-6.6H2.6z M4.9,18c-1.1,0-2-0.9-2-2c0-1.1,0.9-2,2-2c1.1,0,2,0.9,2,2
        C6.9,17.1,6,18,4.9,18z"/>
</svg>