<svg viewBox="0 0 32 32">
	<rect x="2.3" y="26.9" width="24.9" height="5"/>
	<path d="M29.3,13.1L17.6,0.7C16.9,0,15.7,0,15,0.6l-3.9,3.7c-0.4,0.4-0.6,0.7-0.6,1.2s0.1,1,0.5,1.4l1.7,1.9l-1,1
		c-0.5,0.5-0.7,1.2-0.5,1.9c-0.2,0.1-0.6,0.2-0.9,0.5l-7.1,6.7c-0.4,0.4-0.6,0.9-0.6,1.4v1.4c0,0.5,0.2,1,0.5,1.2L4.3,24
		c0.4,0.4,0.9,0.6,1.4,0.6h7.6c0.5,0,1.1-0.2,1.4-0.6l3.4-4c0.2-0.2,0.4-0.5,0.4-0.7c0.1,0,0.2,0,0.4,0l0,0c0.5,0,1-0.1,1.2-0.5
		l1-1l1.4,1.4c0.4,0.4,0.9,0.6,1.4,0.6c0.5,0,0.9-0.1,1.2-0.5l4.1-3.9c0.4-0.4,0.4-0.6,0.4-1.1C29.9,13.9,29.7,13.4,29.3,13.1z
			M12.6,20.9H6.8l5-4.7l2.6,2.7L12.6,20.9z M24.2,15.4l-9.1-9.6l1.2-1.1l9.1,9.6L24.2,15.4z"/>
</svg>
