<svg viewBox="0 0 32 32">
	<path d="M26.5,2.3h-7.8H5.5L1,6.8v5.1v13.4l4.5,4.5h9.8h11.1l4.5-4.5V15.1V6.8L26.5,2.3z M28.4,24.2l-3,3h-10H6.7l-3-3V13.3V7.9
		l3-3h12h6.7l3,3v5.9V24.2z"/>
	<path d="M7.1,8h17.7c0.3,0,0.5,0.2,0.5,0.5v2c0,0.3-0.2,0.5-0.5,0.5H7.1c-0.3,0-0.5-0.2-0.5-0.5v-2C6.6,8.2,6.9,8,7.1,8z"/>
	<path d="M7.1,13.9h5.4c0.3,0,0.5,0.2,0.5,0.5v9.4c0,0.3-0.2,0.5-0.5,0.5H7.1c-0.3,0-0.5-0.2-0.5-0.5v-9.4
		C6.6,14.2,6.9,13.9,7.1,13.9z"/>
	<path d="M16.5,13.9h8.4c0.3,0,0.5,0.2,0.5,0.5v9.4c0,0.3-0.2,0.5-0.5,0.5h-8.4c-0.3,0-0.5-0.2-0.5-0.5v-9.4
		C16,14.1,16.2,13.9,16.5,13.9z"/>
</svg>
