<svg viewBox="0 0 32 32">
<g transform="translate(119.5 -231.7)">
	<path d="M-98.6,243.1h-3.7l1.5-1.6l5-5.1l3.8,3.9l2.7,2.7h-3.6c-0.2,1.8-0.7,3.3-1.5,4.6c-0.1,0.2-0.2,0.2-0.2,0.4
		c-0.6,1-1.3,1.8-2.2,2.5l-0.1,0.1c-1.8,1.5-4,2.3-6.2,2.8c1.1-0.8,2-1.8,2.7-2.9c0.5-0.7,0.9-1.6,1.2-2.5c0.4-1.2,0.7-2.6,0.7-4.1
		C-98.6,243.7-98.6,243.4-98.6,243.1z"/>
	<path d="M-88,250.9l-4.1,4.6l-2.5,2.7c-0.3,0.3-0.8,0.6-1.3,0.6h-0.5c-0.2,0.1-0.4,0.1-0.7,0.1H-117c-1.4,0-2.5-1.1-2.5-2.5v-14.9
		c0-1.3,1.1-2.5,2.5-2.5h7.5l2.5,2.5h4.5l-0.7,0.7c-0.3,0.3-0.5,0.9-0.2,1.3c0.1,0.2,0.2,0.3,0.3,0.4H-117v10.2l5-5.6
		c0.3-0.3,0.7-0.6,1.2-0.6h10c-0.3,0.9-0.8,1.7-1.4,2.5h-8.2l-5.2,5.8h19.3l1.7-1.8l2.5-2.7l1.1-1.2h-4.1c0.2-0.2,0.4-0.4,0.6-0.7
		c0.4-0.6,0.8-1.2,1.2-1.8h4.1c0.7,0,1.2,0.4,1.6,1C-87.5,249.7-87.5,250.4-88,250.9z"/>
</g>
</svg>
