<svg viewBox="0 0 510 510">
	<g>
		<path
			d="m510 388.114v-56.229l-40.849-11.954c-1.092-2.971-2.307-5.898-3.64-8.774l20.435-37.344-39.76-39.759-37.343 20.435c-2.876-1.334-5.805-2.549-8.775-3.641l-11.953-40.848h-13.115v-210h-375v465h252.868l20.946 20.945 37.343-20.435c2.877 1.334 5.805 2.549 8.775 3.641l11.953 40.849h56.229l11.953-40.849c2.97-1.092 5.898-2.307 8.775-3.641l37.343 20.435 39.76-39.759-20.435-37.344c1.333-2.876 2.548-5.804 3.64-8.774zm-480-358.114h315v180h-13.115l-11.953 40.849c-2.97 1.092-5.898 2.307-8.775 3.641l-37.343-20.435-39.76 39.759 20.435 37.344c-1.333 2.876-2.548 5.804-3.64 8.774l-40.849 11.954v56.229l40.849 11.954c1.092 2.971 2.307 5.898 3.64 8.774l-14.313 26.157h-210.176zm418.837 410.868-7.97 7.97-31.816-17.411c-5.031 2.569-12.486 7.851-25.284 11.508l-7.952 2.273-10.18 34.792h-11.271l-10.181-34.792-7.952-2.273c-12.939-3.698-20.81-9.224-25.284-11.508l-31.816 17.411-7.97-7.97 17.41-31.816-4.018-7.23c-6.597-11.872-8.208-21.212-9.764-26.005l-34.789-10.181v-11.271l34.79-10.181c1.746-5.379 3.248-14.277 9.764-26.005l4.018-7.23-17.41-31.816 7.97-7.97 31.816 17.411c5.031-2.57 12.486-7.85 25.284-11.508l7.952-2.273 10.181-34.793h11.271l10.181 34.792c5.385 1.747 14.278 3.245 26.005 9.763l7.23 4.019 31.816-17.411 7.97 7.97-17.41 31.816c2.561 5.013 7.846 12.479 11.509 25.286l2.273 7.949 34.79 10.18v11.271l-34.791 10.181-2.273 7.949c-3.708 12.965-9.229 20.822-11.509 25.286z">
		</path>
		<path
			d="m360 315c-24.813 0-45 20.186-45 45 2.472 59.699 87.538 59.681 90 0 0-24.814-20.187-45-45-45zm0 60c-8.271 0-15-6.728-15-15 .824-19.9 29.179-19.894 30 0 0 8.272-6.729 15-15 15z">
		</path>
		<path d="m60 360h105v30h-105z"></path>
		<path d="m60 300h105v30h-105z"></path>
		<path d="m60 240h105v30h-105z"></path>
		<path d="m60 180h105v30h-105z"></path>
		<path d="m60 120h255v30h-255z"></path>
		<path d="m60 60h255v30h-255z"></path>
	</g>
</svg>