<svg viewBox="0 0 32 32">
<g transform="scale(1.15) translate(1.5,1.75)">
	<path fill="#4488FF" d="M19.5,14.9V9.2c0-0.7-0.4-1.4-1-1.7l-5-2.9c-0.3-0.2-0.6-0.3-1-0.3s-0.7,0.1-1,0.3l-5,2.9c-0.6,0.4-1,1-1,1.7
		v5.7c0,0.7,0.4,1.4,1,1.7l5,2.9c0.3,0.2,0.6,0.3,1,0.3s0.7-0.1,1-0.3l5-2.9C19.2,16.3,19.5,15.6,19.5,14.9z M11.5,17.2l-4-2.3v-4.6
		l4,2.3V17.2z M12.5,10.9l-4-2.3l4-2.3l4,2.3L12.5,10.9z M17.5,14.9l-4,2.3v-4.6l4-2.3V14.9z"/>
</g>
	<path d="M28.6,28.1H3.4c-1.5,0-2.7-1.2-2.7-2.7V6.6c0-1.5,1.2-2.7,2.7-2.7h25.2c1.5,0,2.7,1.2,2.7,2.7v18.8
		C31.3,26.9,30.1,28.1,28.6,28.1z M3.4,6.4c-0.1,0-0.2,0.1-0.2,0.2v18.8c0,0.1,0.1,0.2,0.2,0.2h25.2c0.1,0,0.2-0.1,0.2-0.2V6.6
		c0-0.1-0.1-0.2-0.2-0.2H3.4z"/>
</svg>