<svg viewBox="0 0 32 32">
	<path d="m 25.6,7.3 c 0,0 0,-0.1 0,0 C 25.5,7.1 25.4,7.1 25.4,7 L 25.3,6.9 C 25.2,6.9 25.2,6.8 25.1,6.8 L 13.1,0.5 C 12.7,0.3 12.3,0.3 11.9,0.5 L 0.8,6.3 H 0.7 L 0.6,6.4 0.5,6.5 0.3,6.7 0.2,6.8 C 0.2,6.9 0.1,7 0.1,7 v 12.1 c 0,0.5 0.3,0.9 0.6,1.1 l 11.7,6.5 c 0.1,0 0.2,0.1 0.2,0.1 h 0.5 C 13,26.6 12.9,26.4 12.9,26.3 v -0.1 c -0.3,-0.9 -0.5,-1.7 -0.6,-2.5 -0.1,-0.9 -0.1,-1.7 0,-2.5 0.2,-1.8 0.9,-3.5 1.9,-5 V 14.4 L 23.3,10 v 2 c 0.8,0.1 1.6,0.2 2.3,0.5 V 7.7 c 0.1,-0.2 0,-0.3 0,-0.4 z M 22.811236,7.5707865 13.307866,11.764044 3.8303371,7.0752809 12.750562,2.3932584 Z M 11.8,23.6 2.6,18.4 V 9.6 l 9.2,4.8 z" />
		<path d="M22.7,31.6c-5.1,0-9.1-4.1-9.1-9.1c0-5.1,4.1-9.1,9.1-9.1s9.1,4.1,9.1,9.1C31.9,27.6,27.8,31.6,22.7,31.6z M22.7,15.3
			c-4,0-7.2,3.2-7.2,7.2s3.2,7.2,7.2,7.2c4,0,7.2-3.2,7.2-7.2C29.9,18.5,26.7,15.3,22.7,15.3z"/>
	<polygon points="28.3,21.5 28.3,23.3 23.7,23.4 23.7,28 21.8,28 21.8,23.4 17.3,23.4 17.3,21.5 21.8,21.5 21.8,16.9 23.7,16.9 23.7,21.5 	"/>
</svg>
