<svg viewBox="0 0 32 32">
	<g transform="translate(-272.1 -317.4)">
		<path d="M294,318.8h-11.3c-1.6,0-2.9,1.3-2.8,2.9v5.6l1.4-0.7c0.3-0.2,0.7-0.3,1.1-0.3c0.1,0,0.2,0,0.3,0
			v-4.5h9.9v7.3h7.1v16.1h-11.1L284,348h15.7c1.6,0,2.9-1.3,2.8-2.9v-17.6L294,318.8z"/>
	</g>
	<g transform="scale(1.3) translate(-4,3.5)">
		<path fill="#4488FF" d="M19,14.87V9.13c0-0.72-0.38-1.38-1-1.73l-5-2.88c-0.31-0.18-0.65-0.27-1-0.27s-0.69,0.09-1,0.27L6,7.39 C5.38,7.75,5,8.41,5,9.13v5.74c0,0.72,0.38,1.38,1,1.73l5,2.88c0.31,0.18,0.65,0.27,1,0.27s0.69-0.09,1-0.27l5-2.88 C18.62,16.25,19,15.59,19,14.87z M11,17.17l-4-2.3v-4.63l4,2.33V17.17z M12,10.84L8.04,8.53L12,6.25l3.96,2.28L12,10.84z M17,14.87l-4,2.3v-4.6l4-2.33V14.87z"/>
	</g>
</svg>