<svg viewBox="0 0 32 32">
	<path d="M31.7,15.1l-2.3-5.4c0-0.1-0.1-0.2-0.1-0.2l0,0c0,0,0-0.1-0.1-0.1c0-0.1-0.1-0.1-0.1-0.2L29,9.1c-0.1,0-0.1-0.1-0.2-0.1
		L16.2,2.4c-0.4-0.2-0.8-0.2-1.2,0L3.5,8.5l0,0l0,0c0,0,0,0-0.1,0l0,0l0,0l0,0l0,0l0,0c0,0,0,0-0.1,0l0,0L3.2,8.6
		C3.1,8.7,3.1,8.7,3,8.8L2.9,8.9l0,0C2.8,9,2.7,9.1,2.6,9.3l-2.3,5.4c-0.3,0.6,0,1.3,0.5,1.6l2,1.1v4.3c0,0.5,0.3,0.9,0.6,1.1
		l12.2,6.8c0.1,0,0.2,0.1,0.2,0.1h0.6c0,0,0,0,0.1,0s0.1,0,0.2-0.1l12-6.5c0.4-0.3,0.6-0.7,0.6-1.1v-4.3l1.9-1
		C31.8,16.3,32,15.7,31.7,15.1z M3,14.7l1.3-3.1l0.9,0.5l9.2,4.8L13,20.3L5.2,16L3,14.7z M14.9,26.4L5.3,21v-2.2l7.8,4.3
		c0.2,0.1,0.4,0.2,0.6,0.2c0.1,0,0.3,0,0.4-0.1c0.3-0.1,0.6-0.4,0.7-0.7v-0.1v4L14.9,26.4L14.9,26.4z M15.1,13.8L15.1,13.8
		L15,13.7L11.7,12l-1.4-0.7L6.8,9.5l1.7-1l1.6-0.8l4.7-2.5l0,0L15,5.1v8.4L15.1,13.8L15.1,13.8L15.1,13.8z M28.9,9.1
		c0,0-0.1,0-0.2-0.1C28.8,9,28.8,9.1,28.9,9.1z M17.4,5.8l5.9,3.1l2,1l-2.1,1l-5.8,2.7L17.4,5.8L17.4,5.8z M26.9,21.3l-7.4,4
		l-0.3,0.1l-1.8,0.9v-3.2c0.1,0.1,0.3,0.2,0.5,0.3c0.1,0,0.3,0.1,0.4,0.1c0.2,0,0.4-0.1,0.6-0.2l8-4.4V21.3z M26.9,16.2L26.9,16.2
		l-8,4.4l-1.4-3.4l9.3-4.9l0.8-0.4l1.3,3.1L26.9,16.2z"/>
</svg>
