<svg viewBox="0 0 32 32">
	<path d="m 25.6,7.3 c 0,0 0,-0.1 0,0 C 25.5,7.1 25.4,7.1 25.4,7 L 25.3,6.9 C 25.2,6.9 25.2,6.8 25.1,6.8 L 13.1,0.5 C 12.7,0.3 12.3,0.3 11.9,0.5 L 0.8,6.3 H 0.7 L 0.6,6.4 0.5,6.5 0.3,6.7 0.2,6.8 C 0.2,6.9 0.1,7 0.1,7 v 12.1 c 0,0.5 0.3,0.9 0.6,1.1 l 11.7,6.5 c 0.1,0 0.2,0.1 0.2,0.1 h 0.5 C 13,26.6 12.9,26.4 12.9,26.3 v -0.1 c -0.3,-0.9 -0.5,-1.7 -0.6,-2.5 -0.1,-0.9 -0.1,-1.7 0,-2.5 0.2,-1.8 0.9,-3.5 1.9,-5 V 14.4 L 23.3,10 v 2 c 0.8,0.1 1.6,0.2 2.3,0.5 V 7.7 c 0.1,-0.2 0,-0.3 0,-0.4 z M 22.811236,7.5707865 13.307866,11.764044 3.8303371,7.0752809 12.750562,2.3932584 Z M 11.8,23.6 2.6,18.4 V 9.6 l 9.2,4.8 z" />
	<polygon points="28.2,21.5 28.2,23.3 23.7,23.4 21.8,23.4 17.3,23.4 17.3,21.5 21.8,21.5 23.7,21.5 			"/>
	<path d="M29.1,15.9c-1-1-2.2-1.7-3.5-2.2c-0.8-0.3-1.5-0.5-2.3-0.5l0,0c-0.2,0-0.4,0-0.7,0c-2.3,0-4.6,0.9-6.5,2.7
		c-0.9,0.9-1.4,1.7-1.9,2.8c-0.4,0.8-0.6,1.6-0.7,2.4c-0.1,0.8-0.1,1.4,0,2.3c0.1,0.8,0.3,1.4,0.5,2.2c0.1,0.2,0.2,0.4,0.2,0.5
		c0.2,0.4,0.4,0.8,0.7,1.3c0.4,0.5,0.7,1,1.2,1.4c0.2,0.2,0.5,0.5,0.7,0.6c0.2,0.2,0.4,0.3,0.6,0.5c0.8,0.5,1.5,1,2.4,1.3
		c0.9,0.3,1.7,0.5,2.7,0.5c0.9,0,1.7-0.1,2.5-0.4c0.7-0.2,1.4-0.5,2.1-1c0.6-0.4,1.3-0.8,1.7-1.4C32.7,25.3,32.7,19.5,29.1,15.9z
			M27.9,27.5c-0.2,0.2-0.4,0.4-0.5,0.5c-0.6,0.5-1.4,1-2.1,1.3c-0.8,0.3-1.5,0.5-2.3,0.5h-0.3c-1.2,0-2.2-0.3-3.2-0.7
		c-0.7-0.4-1.4-0.8-1.9-1.4c-0.7-0.7-1.2-1.4-1.5-2.2c-0.3-0.8-0.5-1.5-0.6-2.4l0,0c-0.1-0.9,0-1.7,0.3-2.6c0.4-1.2,1-2.2,1.8-3.1
		c1.4-1.4,3.3-2.1,5.1-2.1c0.2,0,0.4,0,0.7,0c0,0,0,0,0.1,0c0.8,0.1,1.5,0.3,2.3,0.6c0.8,0.4,1.5,0.9,2.1,1.4
		C30.7,20.1,30.7,24.7,27.9,27.5z"/>
</svg>
