<svg viewBox="0 0 32 32">
	<path d="M9.1,20.5c0,1.1,0.3,2,0.9,2.8v-5.5C9.5,18.5,9.1,19.4,9.1,20.5z M4.6,7v6h6.2c0.7-0.8,1.6-1.3,2.7-1.3h4.6V7H4.6z
			M21.1,2.5h-18c-1.7,0-3,1.4-3,3v21c0,1.6,1.3,3,3,3h7.5c-0.4-0.6-0.6-1.3-0.6-2v-1H3.1v-21h16.8l4.2,4.2v4.1h3V8.5L21.1,2.5z
			M9.1,20.5c0,1.1,0.3,2,0.9,2.8v-5.5C9.5,18.5,9.1,19.4,9.1,20.5z M4.6,7v6h6.2c0.7-0.8,1.6-1.3,2.7-1.3h4.6V7H4.6z M9.1,20.5
		c0,1.1,0.3,2,0.9,2.8v-5.5C9.5,18.5,9.1,19.4,9.1,20.5z M4.6,7v6h6.2c0.7-0.8,1.6-1.3,2.7-1.3h4.6V7H4.6z"/>
	<g transform="scale(1.25) translate(3.5,5.5)">
		<path fill="#4488FF" d="M19,14.87V9.13c0-0.72-0.38-1.38-1-1.73l-5-2.88c-0.31-0.18-0.65-0.27-1-0.27s-0.69,0.09-1,0.27L6,7.39 C5.38,7.75,5,8.41,5,9.13v5.74c0,0.72,0.38,1.38,1,1.73l5,2.88c0.31,0.18,0.65,0.27,1,0.27s0.69-0.09,1-0.27l5-2.88 C18.62,16.25,19,15.59,19,14.87z M11,17.17l-4-2.3v-4.63l4,2.33V17.17z M12,10.84L8.04,8.53L12,6.25l3.96,2.28L12,10.84z M17,14.87l-4,2.3v-4.6l4-2.33V14.87z"/>
	</g>
</svg>