<svg viewBox="0 0 32 32">
	<path d="M27.1,17c0.1-0.5,0.1-1,0.1-1.5c0-0.5,0-1-0.1-1.5l3.2-2.5c0.3-0.2,0.4-0.6,0.2-1l-3-5.2c-0.1-0.2-0.4-0.4-0.7-0.4h-0.3
		l-3.7,1.5c-0.8-0.6-1.6-1.1-2.5-1.5l-0.6-4c0-0.4-0.4-0.6-0.7-0.6h-6c-0.4,0-0.7,0.3-0.7,0.6l-0.6,4c-0.9,0.4-1.8,0.9-2.5,1.5
		L5.3,4.8H5c-0.3,0-0.5,0.1-0.6,0.4l-3,5.2c-0.2,0.3-0.1,0.7,0.2,1l3.2,2.5c-0.1,0.5-0.1,1-0.1,1.5c0,0.5,0,1,0.1,1.5l-3.2,2.5
		c-0.3,0.2-0.4,0.6-0.2,1l3,5.2c0.1,0.2,0.4,0.4,0.7,0.4h0.3l3.7-1.5c0.8,0.6,1.6,1.1,2.5,1.5l0.6,4c0,0.4,0.4,0.6,0.7,0.6h4.2
		l1.2-1.4l1.4-1.4h-5.4v-3.2l-0.1-0.9l-1.6-0.6c-0.6-0.3-1.2-0.6-1.8-1.1l-1.4-1l-1.6,0.6l-1.9,0.8l-1-1.8l1.6-1.3l1.3-1l-0.2-1.7
		c0-0.5-0.1-0.8-0.1-1.1c0-0.3,0-0.6,0.1-1.1l0.2-1.7l-1.3-1.1l-1.6-1.3l1-1.8l1.9,0.8l1.6,0.6l1.4-1c0.6-0.5,1.3-0.8,1.9-1.1
		l1.6-0.6l0.2-1.7l0.3-2H17l0.3,2l0.2,1.7l1.6,0.6c0.6,0.3,1.2,0.6,1.8,1.1l1.4,1l1.6-0.6l1.9-0.8l1,1.8l-1.6,1.3l-1.3,1.1
		c-0.1-0.1,0.2,1.6,0.2,1.6c0.1,0.5,0.1,0.8,0.1,1.1c0,0.2,0,0.5,0,0.8l3.5,3.3l0,0l0,0l2,2.1l0.8-1.3c0.2-0.3,0.1-0.7-0.2-1
		L27.1,17z"/>
	<path d="M15.9,9.4c-3.3,0-6,2.7-6,6c0,2.9,2,5.3,4.7,5.9c0.4,0.1,0.8,0.1,1.3,0.1s0.9,0,1.3-0.1c0.7-0.2,1.3-0.5,1.3-0.5l2.8-2.6
		c0.3-0.5,0.5-1.1,0.6-1.6c0.1-0.4,0.1-0.8,0.1-1.1C21.9,12.1,19.2,9.4,15.9,9.4z M15.9,18.5c-1.6,0-3-1.4-3-3c0-1.7,1.4-3,3-3
		s3,1.3,3,3S17.5,18.5,15.9,18.5z"/>
	<polygon points="30.4,24.6 23.1,31.8 20.5,29.3 22.3,27.6 23.4,26.4 15.9,26.4 15.9,22.8 23.4,22.8 22.6,22 21.9,21.3 20.5,20 
		23.1,17.4 23.9,18.2 25.2,19.5 25.2,19.5 26.6,20.8 29.8,24 		"/>
</svg>
