<svg viewBox="0 0 32 32">
<path fill="#4488FF" d="M11.5,12.4l0.9,0.4l0.6-0.5c0.4-0.4,1.6-0.4,2.5,0l2.8,1c0.7,0.3,1.7,0.3,2.1,0l1.1-1c0.3-0.3-0.1-0.7-0.8-1
	c-0.5-0.2-0.9-0.4-1.4-0.6c-0.5-0.2-0.9-0.3-1.4-0.5c-1.3-0.4-1.7-0.3-2.1,0l-0.5,0.4l2.8,1l-0.2,0.1l-2.8-1l-1-0.4
	c-0.8-0.3-1.8-0.4-2.3-0.1c-0.7,0.3-1,0.6-1.2,1C10.5,11.7,10.7,12.1,11.5,12.4z M17.7,10.8c-0.1,0.1-0.5,0.1-0.7,0
	c-0.3-0.1-0.5-0.3-0.3-0.4c0.1-0.1,0.5-0.1,0.7,0C17.7,10.5,17.8,10.7,17.7,10.8z"/>
<path fill="#FFCE00" d="M20.7,13.4c-0.4,0.4-1.6,0.4-2.5,0l-2.8-1c-0.7-0.3-1.7-0.3-2.1,0l-1.1,1c-0.4,0.3,0.2,0.7,0.7,1
	c0.4,0.2,0.8,0.5,1.3,0.6c0.5,0.2,0.9,0.3,1.5,0.5c0.8,0.2,1.7,0.3,2.1,0l0.5-0.4l-2.9-1l0.2-0.1l2.9,1l1.4,0.6
	c0.8,0.3,1.4,0.2,2.1,0s1-0.6,1.2-1.1c0.1-0.4,0-0.7-0.8-1l-1.1-0.4L20.7,13.4z M16.1,14.9c0.1-0.1,0.5-0.1,0.7,0
	c0.3,0.1,0.4,0.3,0.3,0.4c-0.1,0.1-0.5,0.1-0.7,0C16.1,15.2,16,15,16.1,14.9z"/>
<path d="M30.4,14.7v-2.9l1.1-1c0.4-0.3,0.5-0.7,0.4-1.2s-0.4-0.8-0.8-0.9L16.2,3.4c-0.5-0.2-0.9-0.1-1.2,0.2L2.2,14.2
	C2.1,14.3,2,14.4,2,14.4c-0.9,0.7-2,2.1-2,4.3C0,21.5,2,23,2.1,23c0.1,0.1,0.3,0.2,0.4,0.2c0.1,0.1,0.2,0.2,0.4,0.2L18,28.6
	c0.1,0.1,0.3,0.1,0.5,0.1c0.3,0,0.7-0.1,0.9-0.4l12.1-11.6c0.6-0.5,0.6-1.3,0-1.9C31.2,14.8,30.8,14.7,30.4,14.7z M7.9,18.5
	L7.9,18.5l0.7,0.3l6.8,2.6V25L6,21.5v-3.7L7.9,18.5z M3.1,20.3c-0.2-0.4-0.4-0.9-0.4-1.6c0-1.1,0.3-1.7,0.6-2v3.6l0,0
	C3.2,20.4,3.1,20.4,3.1,20.3z M27.8,16.8l-10.1,9c0-0.1,0-0.1,0-0.2v-3.3h0.1c0.2,0.1,0.3,0.1,0.5,0.1s0.3,0,0.5-0.1
	c0,0,0.1,0,0.1-0.1c0.1,0,0.2-0.1,0.3-0.2c0,0,0,0,0.1,0l8.6-7.7L27.8,16.8z M16.1,6.1l12.2,4.3l-10.2,9.2L8.9,16l-3.4-1.3L16.1,6.1
	z"/>
</svg>