<svg viewBox="0 0 32 32">
	<path d="M27.1,17.5c0.1-0.5,0.1-1,0.1-1.5s0-1-0.1-1.5l3.2-2.5c0.3-0.2,0.4-0.6,0.2-1l-3-5.2c-0.1-0.2-0.4-0.4-0.7-0.4
		c-0.1,0-0.2,0-0.3,0l-3.7,1.5c-0.8-0.6-1.6-1.1-2.5-1.5l-0.6-4c0-0.4-0.4-0.6-0.7-0.6h-6c-0.4,0-0.7,0.3-0.7,0.6l-0.6,4
		c-0.9,0.4-1.8,0.9-2.5,1.5L5.4,5.4c-0.1,0-0.2,0-0.3,0c-0.3,0-0.5,0.1-0.6,0.4l-3,5.2c-0.2,0.3-0.1,0.7,0.2,1l3.2,2.5
		c-0.1,0.5-0.1,1-0.1,1.5s0,1,0.1,1.5L1.7,20c-0.3,0.2-0.4,0.6-0.2,1l3,5.2c0.1,0.2,0.4,0.4,0.7,0.4c0.1,0,0.2,0,0.3,0l3.7-1.5
		c0.8,0.6,1.6,1.1,2.5,1.5l0.6,4c0,0.4,0.4,0.6,0.7,0.6h6c0.4,0,0.7-0.3,0.7-0.6l0.6-4c0.9-0.4,1.8-0.9,2.5-1.5l3.7,1.5
		c0.1,0,0.2,0,0.3,0c0.3,0,0.5-0.1,0.6-0.4l3-5.2c0.2-0.3,0.1-0.7-0.2-1L27.1,17.5z M24.1,15c0.1,0.5,0.1,0.8,0.1,1.1
		c0,0.3,0,0.6-0.1,1.1l-0.2,1.7l1.3,1.1l1.6,1.3l-1.1,1.8l-1.9-0.8l-1.6-0.6l-1.3,1c-0.6,0.5-1.3,0.8-1.9,1.1l-1.6,0.6l-0.2,1.7
		l-0.3,2h-2.1l-0.3-2l-0.2-1.7l-1.6-0.6c-0.6-0.3-1.2-0.6-1.8-1.1l-1.4-1l-1.6,0.6L6,23.1l-1-1.8L6.6,20l1.3-1l-0.2-1.7
		c0-0.5-0.1-0.8-0.1-1.1c0-0.3,0-0.6,0.1-1.1l0.2-1.7l-1.3-1.1L5,11l1-1.8L7.9,10l1.6,0.6l1.4-1c0.6-0.5,1.3-0.8,1.9-1.1l1.6-0.6
		l0.2-1.7l0.3-2H17l0.3,2l0.2,1.7l1.6,0.6c0.6,0.3,1.2,0.6,1.8,1.1l1.4,1l1.6-0.6l1.9-0.8l1,1.8l-1.6,1.3l-1.3,1.1
		C23.8,13.3,24.1,15,24.1,15z M15.9,10c-3.3,0-6,2.7-6,6s2.7,6,6,6s6-2.7,6-6S19.2,10,15.9,10z M15.9,19c-1.6,0-3-1.4-3-3
		c0-1.7,1.4-3,3-3s3,1.3,3,3S17.6,19,15.9,19z"/>
</svg>
