<svg viewBox="0 0 18 18">
		<path fill="#4488FF" d="M11.298,8.02c1.295-0.587,1.488-5.055,0.724-6.371c-0.998-1.718-5.742-1.373-7.24-0.145
			C4.61,2.114,4.628,3.221,4.636,4.101h4.702v0.412H4.637c0,0.006-2.093,0.013-2.093,0.013c-3.609,0-3.534,7.838,1.228,7.838
			c0,0,0.175-1.736,0.481-2.606C5.198,7.073,9.168,8.986,11.298,8.02z M6.375,3.465c-0.542,0-0.981-0.439-0.981-0.982
			c0-0.542,0.439-0.982,0.981-0.982c0.543,0,0.982,0.44,0.982,0.982C7.358,3.025,6.918,3.465,6.375,3.465z"/>
		<path fill="#FFCE00" d="M13.12,4.691c0,0-0.125,1.737-0.431,2.606c-0.945,2.684-4.914,0.772-7.045,1.738
			C4.35,9.622,4.155,14.09,4.92,15.406c0.997,1.719,5.741,1.374,7.24,0.145c0.172-0.609,0.154-1.716,0.146-2.596H7.603v-0.412h4.701
			c0-0.006,2.317-0.013,2.317-0.013C17.947,12.53,18.245,4.691,13.12,4.691z M10.398,13.42c0.542,0,0.982,0.439,0.982,0.982
			c0,0.542-0.44,0.981-0.982,0.981s-0.981-0.439-0.981-0.981C9.417,13.859,9.856,13.42,10.398,13.42z"/>
</svg>