<svg viewBox="0 0 32 32">
	<g id="g8744_3_" transform="matrix(1.158447,0,0,1.158447,504.97232,133.29027)">
		<path d="M-418.8-110.7c0.4,0.4,0.7,0.8,1.1,1.2c0.4,0.4,0.8,0.8,1.1,1.3h2.2v-0.4c0-0.3-0.1-0.5-0.3-0.7c-0.5-0.6-1-1.1-1.5-1.6
			s-0.9-1-1.4-1.6c-0.2-0.3-0.5-0.4-0.9-0.4h-13.6c-0.6,0-1.1,0.5-1.1,1.1c0,6.9,0,13.5-0.1,20.3c0,0.4,0.2,0.8,0.6,1
			s0.8,0.1,1.2-0.1c3.5-2.8,5.6-2,7.5-0.9c0.3,0.1,0.5,0.3,0.8,0.4c1.2,0.7,2.4,1.5,4.3,1.5c1,0,2.2-0.2,3.7-0.9
			c0.4-0.2,0.7-0.6,0.7-1v-0.3l-2.6-0.3c0,0-1.1,0.3-2.4,0c-1-0.2-1.6-0.5-2.5-1c-0.3-0.2-0.5-0.3-0.8-0.5
			c-1.2-0.6-2.5-1.2-4.2-1.2c-1.2,0-2.5,0.3-4,1.1c0.1-5.7,0.1-11.3,0.1-17.1L-418.8-110.7L-418.8-110.7z"/>
	</g>
	<rect x="8.5" y="10.1" width="6.4" height="2.4"/>
	<rect x="7.3" y="14" width="3.9" height="2.4"/>
	<rect x="7.3" y="18" width="3.9" height="2.4"/>
	<rect x="8.5" y="6.1" width="6.4" height="2.4"/>
	<g id="g7183_2_" transform="matrix(0.20329022,0,0,0.20329022,293.67856,-35.35736)">
		<path id="path7177_2_" d="M-1343.7,218.1c-3.4,0-6.7,0.3-9.5,0.8c-8.4,1.5-9.9,4.6-9.9,10.3v7.6h19.9v2.6h-19.9h-7.5
			c-5.8,0-10.9,3.5-12.4,10.1c-1.8,7.6-1.9,12.3,0,20.2c1.4,5.9,4.8,10.1,10.6,10.1h6.9v-9.1c0-6.6,5.7-12.4,12.4-12.4h19.9
			c5.5,0,9.9-4.6,9.9-10.1v-19c0-5.4-4.6-9.5-9.9-10.3C-1336.7,218.3-1340.3,218.1-1343.7,218.1z M-1354.5,224.2
			c2.1,0,3.8,1.7,3.8,3.8c0,2.1-1.7,3.8-3.8,3.8s-3.8-1.7-3.8-3.8C-1358.2,225.8-1356.5,224.2-1354.5,224.2z"/>
		<path d="M-1313.4,243.6c1.5,0,4.2,0,5.9,7c1.9,7.3,1.9,12.5,0.1,17.9c-2.2,6.5-3.6,7.3-6,7.3h-9.9h-19.9c-2.3,0-4.1,1.9-4.1,4.1
			v2.6c0,2.3,1.9,4.1,4.1,4.1h5.4c-1,1.3-1.7,2.9-1.7,4.7c0,2.2,1,4.3,2.5,5.6c-2.2,0.5-4.2,0.7-6.3,0.7c-2.8,0-5.6-0.4-8.7-1.4
			c-2.6-0.8-7-2.6-7-6.2v-19c0-3.3,2.7-6,5.8-6h19.9c9,0,16.6-7.7,16.6-16.8v-4.7h3.3 M-1320.9,239.4v8.9c0,6.9-5.8,12.6-12.4,12.6
			h-19.9c-5.4,0-9.9,4.6-9.9,10.1v19c0,5.4,4.7,8.6,9.9,10.1c3.3,1,6.5,1.5,9.9,1.5c3.1,0,6.4-0.5,10-1.5c5-1.5,9.9-4.4,9.9-10.1
			v-7.6h-19.9v-2.6h19.9h9.9c5.8,0,7.9-4,9.9-10.1c2.1-6.2,2-12.2,0-20.2c-1.4-5.8-4.2-10.1-9.9-10.1L-1320.9,239.4L-1320.9,239.4
			L-1320.9,239.4z M-1332.1,294.6c-1.8,0-3.3-1.5-3.3-3.4c0.1-1.8,1.6-3.3,3.3-3.3c1.8,0,3.3,1.5,3.3,3.3
			C-1328.7,293-1330.2,294.6-1332.1,294.6L-1332.1,294.6z"/>
	</g>
</svg>
