<svg viewBox="0 0 32 32">
    <g transform="translate(293.68 -35.36) scale(.20329)">
        <path d="M364.3 1607.1c-5 0-9.7.5-13.9 1.2-12.2 2.2-14.5 6.8-14.5 15.1v11.1h29v3.7H325c-8.4 0-15.9 5.1-18.1 14.7-2.6 11.1-2.7 17.9 0 29.5 2.1 8.6 7 14.7 15.5 14.7h10v-13.2c0-9.6 8.3-18 18.1-18h29c8 0 14.5-6.7 14.5-14.8v-27.6c0-7.8-6.7-13.8-14.5-15.1-5-1-10.2-1.3-15.2-1.3zm-15.7 8.9c3 0 5.5 2.4 5.5 5.6 0 3-2.4 5.5-5.5 5.5-3 0-5.5-2.4-5.5-5.5 0-3.2 2.5-5.6 5.5-5.6z" id="path7177_1_"/>
        <path d="M408.4 1644.2c2.2 0 6.2 0 8.7 10.1 2.7 10.7 2.7 18.3.1 26.1-3.2 9.5-5.2 10.6-8.8 10.6H365c-3.3 0-6 2.7-6 6v3.7c0 3.3 2.7 6 6 6h7.9c-1.5 1.9-2.4 4.2-2.5 6.8 0 3.3 1.4 6.2 3.7 8.2-3.2.7-6.2 1-9.1 1-4.1 0-8.1-.6-12.7-2-3.8-1.1-10.2-3.8-10.2-9v-27.6c0-4.8 3.9-8.8 8.5-8.8h29c13.1 0 24.1-11.2 24.1-24.4v-6.8h4.7m-10.8-6v12.9c0 10-8.5 18.4-18.1 18.4h-29c-7.9 0-14.5 6.8-14.5 14.8v27.6c0 7.8 6.9 12.5 14.5 14.8 4.8 1.4 9.5 2.2 14.4 2.2 4.6 0 9.3-.7 14.6-2.2 7.3-2.2 14.5-6.4 14.5-14.8v-11.1h-29v-3.7h43.5c8.4 0 11.6-5.9 14.5-14.7 3-9.1 2.9-17.8 0-29.5-2.1-8.4-6.1-14.7-14.5-14.7h-10.9zm-16.4 80.5c-2.7 0-4.9-2.2-4.9-5 .1-2.7 2.3-4.9 4.9-4.9 2.7 0 4.9 2.2 4.9 4.9a5 5 0 0 1-4.9 5z"/>
    </g>
    <g transform="matrix(.26247 0 0 .25765 374.62 -49.02)">
        <path d="M-1366.7 191.8c-5 0-9.7.5-13.9 1.2-12.2 2.2-14.5 6.8-14.5 15.1v11.1h29v3.7h-39.9c-8.4 0-15.9 5.1-18.1 14.7-2.6 11.1-2.7 17.9 0 29.5 2.1 8.6 7 14.7 15.5 14.7h10v-13.2c0-9.6 8.3-18 18.1-18h29c8 0 14.5-6.7 14.5-14.8v-27.6c0-7.8-6.7-13.8-14.5-15.1-5-1-10.2-1.3-15.2-1.3zm-15.7 8.9c3 0 5.5 2.4 5.5 5.6 0 3-2.4 5.5-5.5 5.5-3 0-5.5-2.4-5.5-5.5 0-3.2 2.5-5.6 5.5-5.6z" id="path7177_2_"/>
        <path d="M-1322.6 228.9c2.2 0 6.2 0 8.7 10.1 2.7 10.7 2.7 18.3.1 26.1-3.2 9.5-5.2 10.6-8.8 10.6h-43.4c-3.3 0-6 2.7-6 6v3.7c0 3.3 2.7 6 6 6h7.9c-1.5 1.9-2.4 4.2-2.5 6.8 0 3.3 1.4 6.2 3.7 8.2-3.2.7-6.2 1-9.1 1-4.1 0-8.1-.6-12.7-2-3.8-1.1-10.2-3.8-10.2-9v-27.6c0-4.8 3.9-8.8 8.5-8.8h29c13.1 0 24.1-11.2 24.1-24.4v-6.8h4.7m-10.8-6v12.9c0 10-8.5 18.4-18.1 18.4h-29c-7.9 0-14.5 6.8-14.5 14.8v27.6c0 7.8 6.9 12.5 14.5 14.8 4.8 1.4 9.5 2.2 14.4 2.2 4.6 0 9.3-.7 14.6-2.2 7.3-2.2 14.5-6.4 14.5-14.8v-11.1h-29v-3.7h43.5c8.4 0 11.6-5.9 14.5-14.7 3-9.1 2.9-17.8 0-29.5-2.1-8.4-6.1-14.7-14.5-14.7h-10.9zm-16.4 80.5c-2.7 0-4.9-2.2-4.9-5 .1-2.7 2.3-4.9 4.9-4.9 2.7 0 4.9 2.2 4.9 4.9a5 5 0 0 1-4.9 5z"/>
    </g>
</svg>