<svg viewBox="0 0 32 32">
	<path d="M29.8,4.7c-2.2-2.8-5.5-4.6-9.5-4.6S13,1.7,10.8,4.7c-0.2,0.2-0.3,0.4-0.4,0.6l1.9,4.9c0.5-2.4,2-4.3,3.9-5.4
		c1.3-0.6,2.7-1.1,4.1-1.1c1.6,0,2.8,0.3,4.1,1.1c2.5,1.4,4.1,4.1,4.1,7.1c0.1,1.8-0.5,3.5-1.5,4.9c0.5,0.7,0.9,1.7,0.9,3
		c0,0.6-0.1,1.1-0.3,1.6c2.6-2.2,4.3-5.4,4.3-9.2C32.3,9.3,31.4,6.7,29.8,4.7z M5,24.4L0.3,29l-0.2,0.2L2.9,32l4.5-4.5
		c-1-0.9-1.8-2.1-2.1-3.4L5,24.4z"/>
	<path d="M9.5,6.9L8.9,5.4H6.2L0.9,19.7H4l1-2.9h5.1l0.7,2l0.3,0.9l0,0h3.1L9.5,6.9z M5.8,14.4l1.8-5.3l0.9,2.8l0.9,2.5H5.8z"/>
	<path d="M26.1,23.9c-0.3-0.4-0.6-0.7-1.1-0.9c-0.2-0.1-0.4-0.2-0.6-0.2c0.6-0.3,1.1-0.6,1.5-1.2c0.3-0.5,0.5-1.1,0.5-1.8
		s-0.1-1.4-0.4-1.9c-0.2-0.4-0.5-0.7-0.9-1c-0.9-0.7-2.2-1-3.9-1h-4.9V30h5.5c1.6,0,2.8-0.4,3.7-1.1c0.9-0.7,1.3-1.7,1.3-3.1
		C26.8,25.1,26.6,24.5,26.1,23.9z M19.2,18.3h2c0.8,0,1.4,0.1,1.8,0.4c0.3,0.2,0.4,0.5,0.5,0.8c0.1,0.2,0.1,0.4,0.1,0.6
		c0,1.1-0.7,1.7-2.2,1.8h-2.2L19.2,18.3L19.2,18.3z M23.3,27.3c-0.4,0.3-0.9,0.5-1.6,0.5h-2.5V24h2.7H22c1.3,0,1.9,0.7,1.9,2
		C23.9,26.5,23.7,26.9,23.3,27.3z"/>
	<path d="M14.8,27.5L14.8,27.5L11.6,30l0.2-2.2c-1.3-0.1-2.5-0.7-3.4-1.5l0,0c-1-0.9-1.7-2.2-2-3.6l0,0c-0.1-0.5-0.1-1-0.1-1.5
		C6.4,20,6.9,19,7.5,18.2l1.1,1.3C8.3,20,8.1,20.5,8,21l0,0c0,0.1,0,0.3,0,0.4c-0.2,1.5,0.4,2.8,1.4,3.7l0,0c0.7,0.6,1.5,1,2.5,1.1
		l0.2-2.2L14.8,27.5L14.8,27.5z"/>
</svg>
