<svg viewBox="0 0 32 32">
	<path d="M21.2,14.8l4.4,4.4c-1.2,1.2-2.9,2.2-4.7,2.5c0.2,0.5,0.3,1,0.3,1.6c0,0.7-0.2,1.3-0.5,1.9c2.9-0.3,5.5-1.6,7.5-3.6
		l3.5,3.7l0.1-10.5H21.2z M19.5,0.8
		c-3.5,0-6.5,1.3-8.8,3.6L7.2,0.7v10.5h10.5l-4.4-4.4c1.6-1.5,3.7-2.6,6.1-2.6c4.2,0,7.8,2.9,8.6,7h3.5C30.6,5.5,25.6,0.9,19.5,0.8z"/>
	<path d="M9.4,20.5l-0.7-1.7l-1.1-3l-0.9-2.2l-0.5-1.1H4.2l-4,10.7h2.4L3.3,21h3.9l0.4,1.1l0.1,0.3L8,23.2h2.4L9.4,20.5z
			M4,19.2l1.3-4l0.8,2.1l0.7,1.9H4z"/>
	<path d="M10.8,29.2L10.8,29.2l-0.3,0.3l-2.1,1.8l0.2-1.7c-0.9-0.1-1.6-0.4-2.3-0.9c-0.1-0.1-0.2-0.1-0.3-0.2l0,0
		c-0.8-0.7-1.3-1.6-1.5-2.7l0,0c0-0.1-0.1-0.3-0.1-0.4c0-0.2,0-0.5,0-0.8c0.1-0.8,0.4-1.5,0.9-2.2c0-0.1,0.1-0.1,0.1-0.2l0.2,0.2
		l0.7,0.8c-0.2,0.2-0.3,0.5-0.4,0.7c-0.1,0.2-0.1,0.4-0.1,0.6l0,0c0,0.1,0,0.2,0,0.3c-0.2,1.1,0.3,2.2,1,2.9
		c0.1,0.1,0.2,0.2,0.3,0.2c0.5,0.3,1,0.5,1.6,0.6l0.2-1.7l1.7,2.1L10.8,29.2L10.8,29.2z"/>
	<path d="M19.5,26.4c-0.2-0.3-0.5-0.5-0.9-0.7c-0.2-0.1-0.3-0.1-0.5-0.2c0.2-0.1,0.4-0.2,0.6-0.3c0.2-0.2,0.4-0.3,0.6-0.6
		c0.3-0.4,0.4-0.9,0.4-1.4s-0.1-1-0.4-1.4l-0.1-0.1c-0.2-0.3-0.4-0.5-0.6-0.7c-0.7-0.5-1.6-0.8-2.9-0.8H12V31h4.2
		c1.2,0,2.2-0.3,2.8-0.9c0.6-0.6,1-1.3,1-2.3C19.9,27.4,19.8,26.9,19.5,26.4z M14.1,22.2h1.5c0.6,0,1,0.1,1.3,0.3
		c0.2,0.2,0.3,0.4,0.4,0.6c0,0.1,0.1,0.3,0.1,0.5c0,0.8-0.4,1.1-1.2,1.3c-0.1,0-0.3,0-0.4,0h-1.6L14.1,22.2L14.1,22.2z M17.3,29
		c-0.3,0.3-0.7,0.4-1.2,0.4h-1.9v-2.9h2h0.1c1,0,1.4,0.6,1.4,1.5C17.8,28.4,17.6,28.7,17.3,29z"/>
</svg>
