<svg viewBox="0 0 32 32">
    <polygon points="30.6,9.1 29.1,10.5 29,10.6 27.8,11.7 27.8,18.4 30.7,21.4 30.6,9.3 30.6,9.2"/>
    <path d="M15.35 3.15l5.18 2.35 1.87-1.6L15.7.4c-.4-.2-.9-.2-1.4 0l-13.2 7H1c-.1 0-.1.1-.2.1l-.1.1-.2.1c-.2.3-.3.6-.3.9v13.9c0 .5.3 1 .7 1.3l13.7 7.8.5.2h.6l.5-.2 4.9-2.7-2.7-1.7c.1 0 0 0 0 0L17 28v-6.6l-2.9-.1v6.6l-11-6.2V11.1l7.31 3.86L13 12.9 5 8.75"/>
    <polygon fill="#22AA22" points="27.8,20.7 24.7,17.8 22.5,20 25.1,22.5 18.5,22.5 18.5,25.7 25.1,25.7 22.5,28.2 24.7,30.4 31,24.1 30.5,23.6"/>
    <path d="M20.5 8l-2.3 2.2-1.7 1.6-3.7 3.6v.8l-.1 3.7h1.5l2.5.1h.5l.2-.2 2.5-2.4.6-.6 3.1-3 2.2-2.1 1-.9 1-.9-.1-.2-.1-.1-3.9-4.4zm4.2 1.3c-2.37 2.18-4.79 4.57-6.8 6.5-.52.43-1.06.96-1.5 1.4h-1v-1l4-3.8 4-3.8.4-.4c.25.41.59.74.9 1.1z"/>
    <path d="M31.5 4.6l-.1-.2-2.5-2.6c-.2-.2-.4-.3-.8-.3H28c-.1 0-.3.1-.4.1-.1 0-.2.1-.2.2l-2.1 2.1a86.11 86.11 0 0 1 4.1 4.4l.4-.4 1.6-1.7c.5-.4.5-1.1.1-1.6z"/>
</svg>