<svg viewBox="0 0 32 32">
    <path d="M16 28.4l-1.1.6v-8.8l.9-.5c-1.1-.6-2.1-1.2-3-2.1l-5.4-2.8-1.83-.9L7 13.1l2.7-1.5c-.2-.7-.2-1.6-.2-2.3l-7 3.7c-.1 0-.1.1-.2.1l-.1.1-.1.1c-.2.2-.3.4-.3.6v10.9c0 .4.3.8.6 1l10.7 6c.1 0 .2.1.3.1.1 0 .2.1.2.1h.4c.1 0 .2 0 .2-.1h.1c.1 0 .1-.1.2-.1l3.9-2.1-2.1-1.3zm-3.4.5L4 24.1v-8.2l8.6 4.4z"/>
    <path d="M25.6 19.7c-.7.4-1.5.6-2.2.8v1l2.3 2.3-.1-4.1z"/>
    <polygon fill="#22AA22" points="23.3,23.3 21,21 19.2,22.8 21.2,24.7 16.1,24.7 16.1,27.2 21.2,27.2 19.2,29.1 21,30.9 25.9,26 25.4,25.6"/>
    <polygon points="26.4,8.8 21.6,8.8 21.6,3.9 19.7,3.9 19.7,8.8 16.1,8.8 14.8,8.8 14.8,10.7 19.7,10.7 19.7,13.3 19.7,15.6 21.6,15.5 21.6,11.6 21.6,10.7 26.4,10.6"/>
    <path d="M27.4 2.9A9.78 9.78 0 0 0 20.5 0c-2.5 0-4.9.9-6.8 2.9A9 9 0 0 0 11 8.4a9.64 9.64 0 0 0 .6 4.7l.9 1.8c.4.6.7 1 1.2 1.5.2.2.5.5.7.6.2.2.4.3.6.5.8.6 1.7 1 2.6 1.3a8.8 8.8 0 0 0 5.6.1c.7-.2 1.6-.6 2.2-1 .6-.4 1.3-.8 1.8-1.5 4-3.7 4-9.8.2-13.5zm-1.3 12.2c-.2.2-.4.4-.6.5-.6.6-1.4 1-2.2 1.3s-1.7.5-2.5.5h-.3c-1.2 0-2.3-.3-3.4-.7-.7-.4-1.4-.8-2-1.5a7.8 7.8 0 0 1 0-10.9C16.6 2.8 18.6 2 20.5 2s4 .7 5.4 2.2c3.1 3.1 3.1 8 .2 10.9z"/>
</svg>