<svg viewBox="0 0 32 32">
<g transform="translate(-567.64 -367.91)">
	<path d="M575.4,377.8v3.7h1v-3.7H575.4z M584.5,368.2H570c-1.3,0-2.4,1.1-2.4,2.4v16.9c0,1.3,1.1,2.4,2.4,2.4
		h0.4v-2.4H570v-16.9h13.5l1,1h3.4L584.5,368.2z M589.9,374.2l-0.6-0.6l-0.6-0.7h-2.8h-3.9h-10.3v17l0,0v2.4c0,1.3,1.1,2.4,2.4,2.4
		h2.2v-2.4h-2.2v-16.9h13.5l1,1h3.4L589.9,374.2z M597.1,380.3l-2.4-2.4h-1.2h-3.4h-3.9h-8.4v17l0,0v2.4c0,1.3,1.1,2.4,2.4,2.4h17
		c1.3,0,2.4-1.1,2.4-2.4v-14.5L597.1,380.3z M597.1,397.3h-16.9v-17h13.5l3.4,3.4V397.3z"/>
	<path d="M589,389.1c-0.1,0-0.2,0-0.3,0c-1.9,0-3.5,1.5-3.5,3.4v0.1c0,0.4,0.1,0.8,0.2,1.2s0.4,0.8,0.7,1.2
		c1.4,1.5,3.6,1.6,5.1,0.2c0.1-0.1,0.2-0.2,0.2-0.3c0.3-0.3,0.5-0.7,0.6-1.2c0.1-0.4,0.2-0.8,0.2-1.2
		C592.3,390.8,590.9,389.2,589,389.1L589,389.1z"/>
	<path d="M589.3,381.6h-7.6v4.7h10.5v-4.7H589.3L589.3,381.6z"/>
</g>
</svg>
