<svg viewBox="0 0 32 32">
	<g transform="translate(-289.9 -109.8)">
		<path d="M318.1,116.8h-12.2l-3-3h-9.1c-1.7,0-3,1.3-3,3V134l3-3v-11.2h3c1.5-1.2,3.4-2,5.5-2s4,0.7,5.5,2
			h10.3v14.9h-20.5l-3,3h23.5c1.7,0,3-1.3,3-3v-14.9C321.1,118.2,319.8,116.8,318.1,116.8z"/>
	</g>
	<path d="M14.9,10c-0.8-0.3-1.6-0.5-2.5-0.5S10.7,9.7,9.9,10c-2.6,1-4.4,3.5-4.4,6.4c0,1.7,0.6,3.3,1.7,4.4L7,21.2H6.2L4,23.3
		L1.2,26l-0.4,0.4L2.4,28l5.3-5.3v-0.9l0.4-0.3c1.1,1.1,2.8,1.7,4.5,1.7c3.8,0,6.9-3,6.9-6.9C19.3,13.5,17.5,11,14.9,10z
			M12.4,21.2c-2.7,0-4.8-2.1-4.8-4.8s2.1-4.8,4.8-4.8s4.8,2.1,4.8,4.8S15.1,21.2,12.4,21.2z"/>
</svg>
