<svg viewBox="0 0 32 32">
	<path d="M19,10.8c0-0.3,0-0.6-0.1-1c-0.1-0.3-0.1-0.6-0.2-0.9l1.8-2c0.2-0.2,0.2-0.5,0-0.6l-2.5-3c-0.1-0.1-0.3-0.2-0.5-0.2
		c-0.1,0-0.1,0-0.2,0.1L15,4.6c-0.6-0.3-1.2-0.5-1.8-0.7l-0.8-2.5c-0.1-0.2-0.3-0.4-0.5-0.3L8,1.8c-0.2,0-0.4,0.3-0.4,0.5L7.8,5
		c-0.6,0.3-1,0.8-1.5,1.2L3.7,5.6c-0.1,0-0.1,0-0.2,0C3.2,5.6,3.2,5.7,3,5.9L1.7,9.6c-0.1,0.2,0,0.5,0.2,0.6l2.3,1.3
		c0,0.3,0,0.6,0.1,1c0.1,0.3,0.1,0.6,0.2,0.9l-1.8,2c-0.2,0.2-0.2,0.5,0,0.6l2.5,3c0.1,0.1,0.3,0.2,0.5,0.2c0.1,0,0.1,0,0.2-0.1
		l2.3-1.4c0.6,0.3,1.2,0.5,1.8,0.7l0.8,2.5c0.1,0.2,0.3,0.4,0.5,0.3l3.9-0.7c0.2,0,0.4-0.3,0.4-0.5l-0.1-2.7c0.6-0.3,1-0.8,1.5-1.2
		l2.6,0.6c0.1,0,0.1,0,0.2,0c0.2,0,0.3-0.1,0.4-0.3l1.4-3.7c0.1-0.2,0-0.5-0.2-0.6L19,10.8z M16.8,9.5c0.1,0.3,0.1,0.5,0.2,0.7
		c0,0.2,0.1,0.4,0.1,0.7l0.1,1.1l1,0.5l1.2,0.6L19,14.4l-1.3-0.3l-1.1-0.2l-0.8,0.8c-0.4,0.4-0.7,0.7-1.1,0.9l-1,0.6v1.1v1.4
		l-1.4,0.2l-0.4-1.3l-0.3-1.1l-1.1-0.2C10,16.2,9.6,16,9.2,15.8l-1-0.5l-1,0.6L6,16.6l-0.9-1.1l0.9-1l0.8-0.8l-0.3-1.1
		c-0.1-0.3-0.1-0.5-0.2-0.7s-0.1-0.4-0.1-0.7l-0.1-1.1l-1-0.5L3.9,9l0.5-1.3L5.7,8l1.1,0.2l0.8-0.8C7.9,7,8.3,6.7,8.7,6.5l1-0.6
		V4.8V3.4l1.3-0.2l0.4,1.3l0.3,1.1l1.1,0.2c0.5,0.1,0.9,0.3,1.3,0.5l1,0.5l1-0.6l1.2-0.7l0.9,1.1l-0.9,1l-0.8,0.8
		C16.5,8.4,16.8,9.5,16.8,9.5z M10.9,7.2c-2.2,0.4-3.6,2.4-3.2,4.6c0.4,2.2,2.4,3.6,4.6,3.2s3.6-2.4,3.2-4.6
		C15.2,8.3,13.2,6.8,10.9,7.2z M11.9,13c-1.1,0.2-2.1-0.5-2.3-1.6c-0.2-1.1,0.5-2.1,1.6-2.3s2.1,0.5,2.3,1.6S13,12.9,11.9,13z"/>
	<path d="M27.9,25.3c0.1-0.2,0.2-0.5,0.2-0.7c0.1-0.3,0.1-0.5,0.1-0.7l1.9-0.8c0.2-0.1,0.3-0.3,0.2-0.5l-0.9-3
		c0-0.1-0.1-0.2-0.3-0.3h-0.1L27,19.6c-0.3-0.4-0.7-0.7-1.1-1l0.2-2.1c0-0.2-0.1-0.4-0.3-0.4l-3-0.7c-0.2,0-0.4,0-0.4,0.2l-0.8,1.9
		c-0.5,0.1-1,0.2-1.4,0.4l-1.7-1.2c0,0-0.1,0-0.1-0.1c-0.1,0-0.3,0-0.4,0.1l-2.1,2.2c-0.1,0.1-0.1,0.4,0,0.5l1.3,1.6
		c-0.1,0.2-0.2,0.5-0.2,0.7c-0.1,0.2-0.1,0.5-0.1,0.7l-1.9,0.8c-0.2,0.1-0.3,0.3-0.2,0.5l0.9,3c0,0.1,0.1,0.2,0.3,0.3H16l2.1-0.3
		c0.3,0.4,0.7,0.7,1.1,1L19,29.8c0,0.2,0.1,0.4,0.3,0.4l3,0.7c0.2,0,0.4,0,0.4-0.2l0.8-1.9c0.5-0.1,1-0.2,1.4-0.4l1.7,1.2
		c0,0,0.1,0,0.1,0.1c0.1,0,0.3,0,0.4-0.1l2.1-2.2c0.1-0.1,0.1-0.4,0-0.5L27.9,25.3z M26.7,23.7c0,0.2-0.1,0.4-0.1,0.6
		c0,0.2-0.1,0.3-0.2,0.5l-0.3,0.8l0.5,0.7l0.7,0.8l-0.7,0.8l-0.9-0.6L25,26.8l-0.8,0.3c-0.4,0.2-0.7,0.3-1.1,0.3l-0.9,0.1l-0.3,0.8
		l-0.4,1L20.4,29l0.1-1l0.1-0.9l-0.7-0.5c-0.3-0.2-0.5-0.5-0.8-0.8l-0.6-0.7l-0.9,0.1l-1,0.1l-0.3-1l1-0.4l0.8-0.4l0.1-0.9
		c0-0.2,0.1-0.4,0.1-0.6c0-0.2,0.1-0.3,0.2-0.5l0.3-0.8L18.4,20l-0.7-0.8l0.7-0.8l0.9,0.6l0.7,0.5l0.8-0.3c0.4-0.2,0.7-0.3,1.1-0.3
		l0.9-0.1L23,18l0.4-1l1,0.3l-0.1,1l-0.1,0.9l0.7,0.5c0.3,0.2,0.5,0.5,0.8,0.8l0.6,0.7l0.9-0.1l1-0.1l0.3,1l-1,0.4l-0.8,0.4
		C26.8,22.8,26.7,23.7,26.7,23.7z M23.2,20.2c-1.7-0.4-3.3,0.6-3.7,2.3c-0.4,1.7,0.6,3.3,2.3,3.7c1.7,0.4,3.3-0.6,3.7-2.3
		S24.9,20.6,23.2,20.2z M22.1,24.7c-0.8-0.2-1.3-1-1.1-1.9c0.2-0.8,1-1.3,1.9-1.1c0.8,0.2,1.3,1,1.1,1.9
		C23.8,24.4,22.9,24.9,22.1,24.7z"/>
</svg>
