<svg viewBox="0 0 32 32">
	<path d="M28.3,3.8H3.7C2,3.8,0.6,5.1,0.6,6.9v18.3c0,1.7,1.4,3.1,3.1,3.1h24.6c1.7,0,3.1-1.4,3.1-3.1V6.8C31.4,5,30,3.8,28.3,3.8z
			M28.3,25.1H3.7V6.8h24.6V25.1z"/>
	<rect fill="#4488FF" x="6.7" y="17.5" width="4.3" height="4.4"/>
	<rect x="6.7" y="10.2" width="4.3" height="4.4"/>
	<rect x="13.8" y="17.5" width="4.3" height="4.4"/>
	<rect fill="#FFCE00" x="13.8" y="10.2" width="4.3" height="4.4"/>
	<rect fill="#E24444" x="21" y="17.5" width="4.3" height="4.4"/>
	<rect x="21" y="10.2" width="4.3" height="4.4"/>
</svg>
