<svg viewBox="0 0 24 24">
    <path transform="scale(1.5) translate(-4, -5)" d="M 14.232422 8.171875 L 13.171875 9.2324219 L 14.640625 10.701172 L 13.171875 12.171875 L 14.232422 13.232422 L 15.701172 11.763672 L 17.171875 13.232422 L 18.232422 12.171875 L 16.763672 10.701172 L 18.232422 9.2324219 L 17.171875 8.171875 L 15.701172 9.640625 L 14.232422 8.171875 z M 7 10 L 7 12 L 12 12 L 12 10 L 7 10 z M 14.230469 13.46875 L 13.169922 14.529297 L 14.640625 16 L 13.169922 17.470703 L 14.230469 18.53125 L 15.701172 17.060547 L 17.171875 18.53125 L 18.232422 17.470703 L 16.761719 16 L 18.232422 14.529297 L 17.171875 13.46875 L 15.701172 14.939453 L 14.230469 13.46875 z M 7 15 L 7 17 L 12 17 L 12 15 L 7 15 z" clip-rule="evenodd" fill-rule="evenodd"/>
</svg>