<?xml version="1.0" encoding="utf-8"?>
<!-- Generator: Adobe Illustrator 25.2.0, SVG Export Plug-In . SVG Version: 6.00 Build 0)  -->
<svg version="1.1" id="Layer_1" xmlns="http://www.w3.org/2000/svg" xmlns:xlink="http://www.w3.org/1999/xlink" x="0px" y="0px"
	 viewBox="0 0 32 32" style="enable-background:new 0 0 32 32;" xml:space="preserve">
<g>
	<path d="M25.6,7.3C25.6,7.3,25.6,7.2,25.6,7.3c-0.1-0.2-0.2-0.2-0.2-0.3l-0.1-0.1c-0.1,0-0.1-0.1-0.2-0.1L13.1,0.5
		c-0.4-0.2-0.8-0.2-1.2,0L0.8,6.3H0.7L0.6,6.4L0.5,6.5C0.4,6.6,0.4,6.6,0.3,6.7L0.2,6.8C0.2,6.9,0.1,7,0.1,7v12.1
		c0,0.5,0.3,0.9,0.6,1.1l11.7,6.5c0.1,0,0.2,0.1,0.2,0.1h0.5c-0.1-0.2-0.2-0.4-0.2-0.5c0,0,0,0,0-0.1c-0.3-0.9-0.5-1.7-0.6-2.5
		c-0.1-0.9-0.1-1.7,0-2.5c0.2-1.8,0.9-3.5,1.9-5v-1.8l9.1-4.4v2c0.8,0.1,1.6,0.2,2.3,0.5V7.7C25.7,7.5,25.6,7.4,25.6,7.3z M11.6,3.4
		l0.2,3.2L5.7,6.5L11.6,3.4z M11.8,23.6l-9.2-5.2V9.6l9.2,4.8V23.6z M11.9,11.5l-5.8-3l5.7,0.1L11.9,11.5L11.9,11.5z M13.1,12.2
		C13.1,12.1,13.2,12.1,13.1,12.2L13.1,12.2z M14,11.7l-0.1-3l6,0.1L14,11.7z M13.8,6.8l-0.2-3.2l6.3,3.3L13.8,6.8z"/>
	<g>
		<path d="M22.7,31.6c-5.1,0-9.1-4.1-9.1-9.1c0-5.1,4.1-9.1,9.1-9.1s9.1,4.1,9.1,9.1C31.9,27.6,27.8,31.6,22.7,31.6z M22.7,15.3
			c-4,0-7.2,3.2-7.2,7.2s3.2,7.2,7.2,7.2c4,0,7.2-3.2,7.2-7.2C29.9,18.5,26.7,15.3,22.7,15.3z"/>
	</g>
	<polygon points="28.3,21.5 28.3,23.3 23.7,23.4 23.7,28 21.8,28 21.8,23.4 17.3,23.4 17.3,21.5 21.8,21.5 21.8,16.9 23.7,16.9 
		23.7,21.5 	"/>
</g>
</svg>
