<?xml version="1.0" encoding="utf-8"?>
<!-- Generator: Adobe Illustrator 25.2.0, SVG Export Plug-In . SVG Version: 6.00 Build 0)  -->
<svg version="1.1" id="Layer_1" xmlns="http://www.w3.org/2000/svg" xmlns:xlink="http://www.w3.org/1999/xlink" x="0px" y="0px"
	 viewBox="0 0 32 32" style="enable-background:new 0 0 32 32;" xml:space="preserve">
<g>
	<g id="Grupo_258_13_" transform="translate(-272.1 -317.4)">
		<path d="M303.4,327.5v17.6c0.1,1.6-1.2,2.9-2.8,2.9h-15.3l0.5-2.8h14.9v-16.1h-7.1v-7.3h-9.9v5.1h-2.9v-5.2
			c-0.1-1.6,1.2-2.9,2.8-2.9h11.3L303.4,327.5z"/>
	</g>
	<g>
		<g>
			<path d="M11.5,17.1c-0.5-0.3-1-0.4-1.6-0.4c-0.4,0-0.8,0.1-1.2,0.2c-1.5,0.5-2.6,1.9-2.6,3.5c0,1.7,1.1,3.1,2.6,3.5
				c0.4,0.1,0.8,0.2,1.2,0.2c0.6,0,1.1-0.1,1.6-0.4c1.3-0.6,2.1-1.9,2.1-3.4C13.6,19,12.7,17.7,11.5,17.1z M11.5,21.4
				c-0.3,0.6-0.9,0.9-1.6,0.9c-0.4,0-0.9-0.2-1.2-0.4C8.3,21.5,8,21,8,20.5c0-0.6,0.3-1.1,0.7-1.4c0.3-0.3,0.7-0.4,1.2-0.4
				c0.7,0,1.3,0.4,1.6,0.9c0.2,0.3,0.3,0.6,0.3,0.9C11.7,20.8,11.6,21.1,11.5,21.4z"/>
			<path d="M16.8,21.4c0.1-0.3,0.1-0.6,0.1-0.9s0-0.6-0.1-0.9l2-1.6c0.2-0.1,0.3-0.4,0.1-0.6L17,14.2c-0.1-0.1-0.3-0.3-0.4-0.3h-0.2
				l-2.3,0.9c-0.5-0.4-1-0.7-1.6-0.9l-0.4-2.5c0-0.3-0.3-0.4-0.4-0.4H8c-0.3,0-0.4,0.2-0.4,0.4l-0.4,2.4c-0.6,0.3-1.1,0.6-1.6,0.9
				l-2.3-0.9H3.1c-0.2,0-0.3,0.1-0.4,0.3l-1.9,3.2c-0.1,0.2-0.1,0.4,0.1,0.6l2,1.6c-0.1,0.3-0.1,0.6-0.1,0.9s0,0.6,0.1,0.9l-2,1.6
				c-0.2,0.1-0.3,0.4-0.1,0.6l1.9,3.2C2.8,26.8,3,27,3.1,27h0.2l2.3-0.9c0.5,0.4,1,0.7,1.6,0.9l0.4,2.5c0,0.3,0.3,0.4,0.4,0.4h3.8
				c0.3,0,0.4-0.2,0.4-0.4l0.3-1.8l0.1-0.8c0.6-0.3,1.1-0.6,1.6-0.9l2.3,0.9h0.2c0.2,0,0.3-0.1,0.4-0.3l1.9-3.2
				c0.1-0.2,0.1-0.4-0.1-0.6L16.8,21.4z M15,19.8c0.1,0.3,0.1,0.5,0.1,0.7s0,0.4-0.1,0.7l-0.1,1.1l0.8,0.7l1,0.8L16,24.9l-1.2-0.5
				l-1-0.4L13,24.6c-0.4,0.3-0.8,0.5-1.2,0.7l-0.3,0.1l-0.7,0.3l-0.1,1.1l-0.2,1.3H9.2L9,26.8l-0.1-1.1l-0.2-0.1l-0.8-0.3
				c-0.4-0.2-0.8-0.4-1.1-0.7L5.9,24l-1,0.4l-1.2,0.5l-0.6-1.1l1-0.8l0.8-0.6l-0.1-1.1c0-0.3-0.1-0.5-0.1-0.7s0-0.4,0.1-0.7l0.1-1.1
				l-0.8-0.7l-1-0.8l0.6-1.1l1.2,0.5l1,0.4l0.9-0.6C7.2,16.2,7.6,16,8,15.8l0.8-0.3l0.3-0.1l0.1-1.1L9.4,13h1.3l0.2,1.3l0.1,1.1
				l0.6,0.2l0.4,0.1c0.4,0.2,0.8,0.4,1.1,0.7L14,17l1-0.4l1.2-0.5l0.6,1.1l-1,0.8l-1,0.8L15,19.8z"/>
		</g>
	</g>
</g>
</svg>
