<?xml version="1.0" encoding="utf-8"?>
<!-- Generator: Adobe Illustrator 25.2.0, SVG Export Plug-In . SVG Version: 6.00 Build 0)  -->
<svg version="1.1" id="Layer_1" xmlns="http://www.w3.org/2000/svg" xmlns:xlink="http://www.w3.org/1999/xlink" x="0px" y="0px"
	 viewBox="0 0 32 32" style="enable-background:new 0 0 32 32;" xml:space="preserve">
<g>
	<g>
		<path d="M27.8,1.1v7.8l-3.7,3.6V4.9H9.3v16.8h5.5l-1.6,1.5L11,25.3V27l-0.1,3.5v0.5H3.7c-2,0-3.7-1.7-3.7-3.7v-5.5h5.5V3.8l0,0
			V1.3h22.3V1.1z"/>
		<path d="M27.8,22v3.2c0,3-2.5,5.6-5.5,5.6h-3.6l2.1-2l0.6-0.6L27.8,22z"/>
	</g>
	<g>
		<g>
			<path d="M28.2,19.7l-0.3-0.3l-0.7-0.7L26,17.4L23.6,15l-1.8,1.8l-1.4,1.4L19.4,19l-1.5,1.4l-1.2,1.1L16.3,22l-0.1,0.1l-2,1.9
				l-1.8,1.8v1.1l-0.1,3.5h0.8c0.1,0,3.9,0.1,3.9,0.1l0.2-0.2l2.6-2.5l0.6-0.6l0.6-0.6l1.8-1.7l0.9-0.9l0.6-0.6l0.6-0.6l1-0.9l1.1-1
				L28.2,19.7z M24.2,19.9l-3.8,3.5L16,27.4h-1.1l0.1-1l5.3-4.9l1.8-1.7l1.7-1.6l1.1,1L24.2,19.9z"/>
		</g>
		<g>
			<g>
				<path d="M31.8,16.2l-1.3,1.4l-0.4,0.4l-0.6,0.3L29,17.8l-0.8-0.8L27,15.6L26.3,15l-0.2-0.2l-0.6-0.6l-0.1-0.1l-0.6-0.6l2.1-2.1
					c0.5-0.6,1.4-0.3,1.6,0l0.5,0.5l2.2,2.5C32.1,15.1,32.2,15.8,31.8,16.2z"/>
			</g>
		</g>
	</g>
</g>
</svg>
