<?xml version="1.0" encoding="utf-8"?>
<!-- Generator: Adobe Illustrator 25.2.0, SVG Export Plug-In . SVG Version: 6.00 Build 0)  -->
<svg version="1.1" id="Layer_1" xmlns="http://www.w3.org/2000/svg" xmlns:xlink="http://www.w3.org/1999/xlink" x="0px" y="0px"
	 viewBox="0 0 32 32" style="enable-background:new 0 0 32 32;" xml:space="preserve">
<g>
	<path d="M28.6,2.3H11.5c0,0,0.1,0,0.1,0.1l3,3h7.8l0.2-0.2c0.3-0.3,0.7-0.4,1.1-0.4s0.8,0.2,1.1,0.4L25,5.4h3.6V9l1.5,1.5
		c0.6,0.6,0.6,1.5,0,2.1l-1.5,1.5v10.2h-0.8c0,0.3-0.2,0.6-0.4,0.8l-2.3,2.3h3.5c1.7,0,3.1-1.4,3.1-3.1V5.4
		C31.7,3.8,30.4,2.3,28.6,2.3z"/>
	<path d="M3.4,14.1l-1.7-1.7c-0.6-0.6-0.6-1.5,0-2.1l1.7-1.7V5.4h3.1l3-3l0.1-0.1H3.4c-1.7,0-3.1,1.4-3.1,3.1v18.9
		c0,1.7,1.4,3.1,3.1,3.1h12.8L16,27.2c-0.3-0.3-0.4-0.7-0.4-1.1c0-0.4,0.1-0.8,0.4-1.1l0.6-0.7l0.2-0.2H3.3v-10H3.4z"/>
	<polygon points="12.6,5.4 10.6,3.5 8.7,5.4 3.4,10.6 2.8,11.3 3.4,12 7.3,15.8 10.1,13 10.2,13 11.1,13 12.2,13 12.9,13 12.9,21.7 
		12.9,23.1 14.3,23.1 18.1,23.1 18.3,22.9 19.5,21.7 14.3,21.7 14.3,13 14.9,13 15.9,13 17,13 16.1,14 21.4,19.3 28.6,12 29.1,11.6 
		28.6,11.2 23.8,6.3 18.4,11.6 17.4,11.6 16.3,11.6 13.6,11.6 12.5,11.6 11.5,11.6 15.1,8 	"/>
	<polygon points="26.4,24 22.8,20.5 20.3,23.1 18.9,24.5 17.2,26.2 18.4,27.4 20.7,29.7 23,27.4 26.1,24.3 	"/>
</g>
</svg>
