<?xml version="1.0" encoding="utf-8"?>
<!-- Generator: Adobe Illustrator 25.2.0, SVG Export Plug-In . SVG Version: 6.00 Build 0)  -->
<svg version="1.1" id="Layer_1" xmlns="http://www.w3.org/2000/svg" xmlns:xlink="http://www.w3.org/1999/xlink" x="0px" y="0px"
	 viewBox="0 0 32 32" style="enable-background:new 0 0 32 32;" xml:space="preserve">
<g>
	<g>
		<path d="M3.2,16c0,0.2,0,0.3,0.1,0.5v-1C3.2,15.6,3.2,15.8,3.2,16z M28.7,15.5v1c0.1-0.2,0.1-0.3,0.1-0.5S28.7,15.6,28.7,15.5z"/>
		<path d="M28.7,12.9V3.1c0-1.6-1.4-3.1-3.1-3.1H6.4c-1.6,0-3.1,1.4-3.1,3.1v9.7h-3v6.2h3v9.8c0,1.6,1.4,3.1,3.1,3.1h19.3
			c1.6,0,2.9-1.2,3.1-2.9v-9.9h3v-6.2L28.7,12.9L28.7,12.9z M6.2,3.1c0-0.1,0.1-0.2,0.2-0.2h19.3c0.1,0,0.2,0.1,0.2,0.2v9.7H6.2
			L6.2,3.1L6.2,3.1z M3.2,16c0-0.2,0-0.3,0.1-0.5c0.2-0.8,1-1.4,1.8-1.4c0.4,0,0.8,0.1,1,0.4c0.5,0.4,0.8,0.9,0.8,1.5
			s-0.3,1.1-0.8,1.5c-0.3,0.2-0.7,0.3-1,0.3c-0.9,0-1.6-0.6-1.8-1.4C3.2,16.3,3.2,16.2,3.2,16z M25.8,28.9c0,0.1-0.1,0.3-0.2,0.3
			H6.4c-0.1,0-0.2-0.1-0.2-0.2v-9.8h19.7L25.8,28.9L25.8,28.9z M28.7,16.5L28.7,16.5c-0.2,0.8-1,1.3-1.8,1.3c-0.4,0-0.8-0.1-1-0.3
			c-0.5-0.4-0.8-0.9-0.8-1.5s0.3-1.1,0.8-1.5c0.3-0.2,0.7-0.4,1-0.4c0.9,0,1.6,0.6,1.8,1.3l0,0c0,0.2,0.1,0.3,0.1,0.5
			C28.8,16.2,28.7,16.3,28.7,16.5z"/>
	</g>
	<g>
		<rect x="9" y="23.3" width="13.9" height="2.9"/>
	</g>
	<g>
		<rect x="9" y="5.9" width="13.9" height="2.9"/>
	</g>
</g>
</svg>
