<?xml version="1.0" encoding="utf-8"?>
<!-- Generator: Adobe Illustrator 25.2.0, SVG Export Plug-In . SVG Version: 6.00 Build 0)  -->
<svg version="1.1" id="Layer_1" xmlns="http://www.w3.org/2000/svg" xmlns:xlink="http://www.w3.org/1999/xlink" x="0px" y="0px"
	 viewBox="0 0 32 32" style="enable-background:new 0 0 32 32;" xml:space="preserve">
<g>
	<g>
		<path d="M21,18.9c0.6-1.1,1.1-2.3,1.1-3.7c0-3.8-3.1-6.9-6.9-6.9s-6.9,3.1-6.9,6.9s3.1,6.9,6.9,6.9c1.4,0,2.6-0.5,3.7-1.1l3.7,3.7
			l2.1-2.2L21,18.9z M11.4,15.2c0-2.1,1.7-3.8,3.8-3.8c2.2,0,3.8,1.7,3.8,3.8c0,2.2-1.7,3.8-3.8,3.8C13.1,19.1,11.4,17.4,11.4,15.2z
			 M28.3,3.7H3.7C2,3.7,0.6,5.1,0.6,6.8v18.4c0,1.7,1.4,3.1,3.1,3.1h24.6c1.7,0,3.1-1.4,3.1-3.1V6.8C31.3,5.1,29.9,3.7,28.3,3.7z
			 M28.3,25.2H3.7V6.8h24.6V25.2z M15.2,22.1c1.4,0,2.6-0.5,3.7-1.1l3.7,3.7l2.1-2.2L21,18.8c0.6-1.1,1.1-2.3,1.1-3.7
			c0-3.8-3.1-6.9-6.9-6.9s-6.9,3.1-6.9,6.9C8.3,19.1,11.4,22.1,15.2,22.1z M15.2,11.4c2.2,0,3.8,1.7,3.8,3.8c0,2.2-1.7,3.8-3.8,3.8
			c-2.1,0-3.8-1.7-3.8-3.8S13.1,11.4,15.2,11.4z M21,18.9c0.6-1.1,1.1-2.3,1.1-3.7c0-3.8-3.1-6.9-6.9-6.9s-6.9,3.1-6.9,6.9
			s3.1,6.9,6.9,6.9c1.4,0,2.6-0.5,3.7-1.1l3.7,3.7l2.1-2.2L21,18.9z M11.4,15.2c0-2.1,1.7-3.8,3.8-3.8c2.2,0,3.8,1.7,3.8,3.8
			c0,2.2-1.7,3.8-3.8,3.8C13.1,19.1,11.4,17.4,11.4,15.2z"/>
	</g>
	<rect x="12.6" y="14.8" width="5.2" height="1"/>
</g>
</svg>
