<?xml version="1.0" encoding="utf-8"?>
<!-- Generator: Adobe Illustrator 25.2.0, SVG Export Plug-In . SVG Version: 6.00 Build 0)  -->
<svg version="1.1" id="Layer_1" xmlns="http://www.w3.org/2000/svg" xmlns:xlink="http://www.w3.org/1999/xlink" x="0px" y="0px"
	 viewBox="0 0 32 32" style="enable-background:new 0 0 32 32;" xml:space="preserve">
<style type="text/css">
	.st0{fill:url(#rect11201_1_);stroke:#FFFFFF;stroke-width:0.1923;stroke-linecap:round;stroke-linejoin:round;}
</style>
<g>
	
		<linearGradient id="rect11201_1_" gradientUnits="userSpaceOnUse" x1="2926.3887" y1="87.0112" x2="2926.5688" y2="92.3144" gradientTransform="matrix(0.399 0 0 0.3991 -1142.3571 -32.1379)">
		<stop  offset="0" style="stop-color:#FF0000"/>
		<stop  offset="0.4679" style="stop-color:#FF0000"/>
		<stop  offset="1" style="stop-color:#CF0000"/>
	</linearGradient>
	<rect id="rect11201" x="19" y="1.9" class="st0" width="12.6" height="3"/>
	<rect x="19" y="1.9" width="12.6" height="2.9"/>
	<g id="Grupo_420_4_" transform="translate(-1820 -863.725)">
		<path id="Trazado_1760_4_" d="M1845.6,869.3h-10.8v-2.4l-1.1-1.1h-12.3l-1.1,1.1v4.7c0,0.1,0,0.2,0,0.3v7.6l0,0v12.6
			c0,1,0.8,1.7,1.7,1.7h28c1,0,1.7-0.8,1.7-1.7l0,0v-17.7L1845.6,869.3z M1848,890.4h-24.5v-16.7h20.9l3.6,3V890.4z"/>
	</g>
</g>
</svg>
