<?xml version="1.0" encoding="utf-8"?>
<!-- Generator: Adobe Illustrator 25.2.0, SVG Export Plug-In . SVG Version: 6.00 Build 0)  -->
<svg version="1.1" id="Layer_1" xmlns="http://www.w3.org/2000/svg" xmlns:xlink="http://www.w3.org/1999/xlink" x="0px" y="0px"
	 viewBox="0 0 32 32" style="enable-background:new 0 0 32 32;" xml:space="preserve">
<g>
	<g>
		<path d="M26.3,29.5h-6.8c-0.8,0-1.5-0.7-1.5-1.5V4c0-0.8,0.7-1.5,1.5-1.5h6.8c0.8,0,1.5,0.7,1.5,1.5V28
			C27.8,28.8,27.1,29.5,26.3,29.5z M20.9,26.5h3.8V5.5h-3.8V26.5z M12.6,29.5H5.7c-0.8,0-1.5-0.7-1.5-1.5V4c0-0.8,0.7-1.5,1.5-1.5
			h6.8c0.8,0,1.5,0.7,1.5,1.5V28C14.1,28.8,13.4,29.5,12.6,29.5z M7.2,26.5h3.8V5.5H7.2V26.5z"/>
	</g>
</g>
</svg>
