<?xml version="1.0" encoding="utf-8"?>
<!-- Generator: Adobe Illustrator 25.2.0, SVG Export Plug-In . SVG Version: 6.00 Build 0)  -->
<svg version="1.1" id="Layer_1" xmlns="http://www.w3.org/2000/svg" xmlns:xlink="http://www.w3.org/1999/xlink" x="0px" y="0px"
	 viewBox="0 0 32 32" style="enable-background:new 0 0 32 32;" xml:space="preserve">
<g>
	<path d="M16,1C7.7,1,1,7.8,1,16s6.8,15,15,15s15-6.8,15-15S24.4,1,16,1z M16,28C9.4,28,4,22.6,4,16S9.4,4,16,4s12,5.4,12,12
		S22.6,28,16,28z M21.4,8.5L16,13.9l-5.4-5.4l-2.1,2.1l5.4,5.4l-5.4,5.4l2.1,2.1l5.4-5.4l5.4,5.4l2.1-2.1L18.1,16l5.4-5.4L21.4,8.5z
		"/>
</g>
</svg>
