<?xml version="1.0" encoding="utf-8"?>
<!-- Generator: Adobe Illustrator 25.2.0, SVG Export Plug-In . SVG Version: 6.00 Build 0)  -->
<svg version="1.1" id="Layer_1" xmlns="http://www.w3.org/2000/svg" xmlns:xlink="http://www.w3.org/1999/xlink" x="0px" y="0px"
	 viewBox="0 0 32 32" style="enable-background:new 0 0 32 32;" xml:space="preserve">
<g>
	<path d="M28.7,6.5H16.1l-3.2-3.2H3.4c-1.8,0-3.2,1.5-3.2,3.2v15.9l6.2,6.2l0,0l0,0l0,0h22.2c1.5,0,2.5-0.8,3-2.1
		c0.1-0.2,0.2-0.4,0.2-0.7v-0.3V12.8V9.7C31.9,7.9,30.4,6.5,28.7,6.5z M28.7,9.7v1.6H10.8c-0.8,0-1.6,0.7-1.6,1.6v2.3H6.9
		c-0.8,0-1.6,0.7-1.6,1.6V23l-1.9-1.9V9.7H28.7z M8.5,25.5v-7.2h2.3c0.8,0,1.6-0.7,1.6-1.6v-2.3h16.4v11.1H8.5z"/>
	<rect x="20.5" y="17.6" width="5.1" height="3.2"/>
</g>
</svg>
