<?xml version="1.0" encoding="utf-8"?>
<!-- Generator: Adobe Illustrator 25.2.0, SVG Export Plug-In . SVG Version: 6.00 Build 0)  -->
<svg version="1.1" id="Layer_1" xmlns="http://www.w3.org/2000/svg" xmlns:xlink="http://www.w3.org/1999/xlink" x="0px" y="0px"
	 viewBox="0 0 32 32" style="enable-background:new 0 0 32 32;" xml:space="preserve">
<style type="text/css">
	.st0{fill:none;}
</style>
<g>
	<g id="Grupo_258_6_" transform="translate(-272.1 -317.4)">
		<path class="st0" d="M283.1,348C283,348,283,348,283.1,348"/>
		<path id="Trazado_1677_6_" d="M294,318.8h-11.3c-1.6,0-2.9,1.3-2.8,2.9v5.6l1.4-0.7c0.3-0.2,0.7-0.3,1.1-0.3c0.1,0,0.2,0,0.3,0
			v-4.5h9.9v7.3h7.1v16.1h-11.1L284,348h15.7c1.6,0,2.9-1.3,2.8-2.9v-17.6L294,318.8z"/>
	</g>
	<g>
		<path d="M19.6,15.3C19.6,15.3,19.6,15.2,19.6,15.3c-0.1-0.1-0.1-0.1-0.1-0.2L19.4,15l0,0c0,0,0-0.1-0.1-0.1L19,14.7l-8.3-4.3
			c0,0,0,0-0.1,0c-0.1-0.1-0.2-0.1-0.3-0.1c-0.1,0-0.3,0-0.4,0.1l-2.1,1.1L2,14.6l0,0c0,0,0,0-0.1,0l-0.1,0.1
			c-0.1,0.1-0.1,0.1-0.1,0.1l-0.1,0.1C1.6,15,1.5,15,1.5,15v8.6c0,0.3,0.2,0.6,0.4,0.8l5.8,3.2l2.5,1.4c0.1,0,0.1,0.1,0.1,0.1h0.4
			c0,0,0,0,0.1,0s0.1,0,0.1-0.1l2.3-1.3l5.9-3.2c0.3-0.2,0.4-0.4,0.4-0.8L19.6,15.3C19.6,15.4,19.6,15.3,19.6,15.3z M5.7,16.2h2.1
			h1.9h0.1v0.2l0.1,1.9H9.8H9.7l-2-1l-1.8-0.9L5.7,16.2z M15.5,16.3l-0.2,0.1l-4,1.9v-0.1l-0.1-1.9v-0.1h0.1L15.5,16.3z M15.5,15
			l-4.2-0.1h-0.1l0,0v-0.1l-0.1-2.1l0.1,0.1l4.1,2.2H15.5z M9.6,12.6l0.1,2.1v0.1H9.6H7.7H5.6H5.4l2.4-1.3L9.6,12.6L9.6,12.6z
			 M9,20.7v4.9l-1.2-0.7L4,22.8v-4.6l3.8,2L9,20.7z M11.5,20.2l6.4-3.1v6.2l-6.4,3.5V20.2z"/>
		<path class="st0" d="M19.6,15.3C19.6,15.3,19.6,15.2,19.6,15.3c-0.1-0.1-0.1-0.1-0.1-0.2L19.4,15c0,0,0,0-0.1,0c0,0,0-0.1-0.1-0.1
			l-0.3-0.2l-8.3-4.3c0,0,0,0-0.1,0c-0.1-0.1-0.2-0.1-0.3-0.1c-0.1,0-0.3,0-0.4,0.1l-2,1.1L2,14.6l0,0c0,0,0,0-0.1,0l-0.1,0.1
			c-0.1,0.1-0.1,0.1-0.1,0.1l-0.1,0.1C1.6,15,1.5,15,1.5,15v0.1c0,0.1,0,0.1,0,0.3v8.2c0,0.3,0.2,0.6,0.4,0.8l5.8,3.2l2.5,1.4
			c0.1,0,0.1,0.1,0.1,0.1h0.1c0.1,0,0.1,0,0.2,0s0.1,0,0.2,0c0,0,0,0,0.1,0s0.1,0,0.1-0.1l2.3-1.3l5.9-3.2c0.3-0.2,0.4-0.4,0.4-0.8
			v-8.1C19.6,15.5,19.6,15.4,19.6,15.3C19.6,15.4,19.6,15.3,19.6,15.3z M5.4,14.8l2.4-1.3l1.9-1v0.1v2.3H7.8H5.7H5.4V14.8z
			 M9.8,18.3L9.8,18.3L9.8,18.3l-2.1-1.1L9.8,18.3L9.8,18.3L9.8,18.3L9.8,18.3L9.8,18.3l-2.1-1.1l-1.8-0.9l-0.3-0.1h2.1h1.9h0.1
			L9.8,18.3L9.8,18.3L9.8,18.3z M10.6,18.7L10.6,18.7L10.6,18.7L10.6,18.7z M11.1,14.7L11,12.6l0.1,0.1l4.1,2.2l0.2,0.1l-4.2-0.1H11
			l0,0L11.1,14.7z M11.2,16.4v-0.1h0.1l4.2,0.1l-0.2,0.1l-4,1.9v-0.1L11.2,16.4z M11.5,26.8l6.5-3.5l-0.1-6.2l0.1,6.2L11.5,26.8z"/>
	</g>
</g>
</svg>
