<?xml version="1.0" encoding="utf-8"?>
<!-- Generator: Adobe Illustrator 25.2.0, SVG Export Plug-In . SVG Version: 6.00 Build 0)  -->
<svg version="1.1" id="Layer_1" xmlns="http://www.w3.org/2000/svg" xmlns:xlink="http://www.w3.org/1999/xlink" x="0px" y="0px"
	 viewBox="0 0 32 32" style="enable-background:new 0 0 32 32;" xml:space="preserve">
<g>
	<g>
		<path d="M13.6,22.6l-3.5-3.5L9,20.3l4.7,4.7l10-10l-1.1-1.1L13.6,22.6z"/>
	</g>
	<g id="Grupo_292_1_" transform="translate(-180.6 -325.9)">
		<path id="Trazado_1706_1_" d="M206.7,329.2h-6.1c-0.8-2.2-3.3-3.4-5.5-2.5c-1.2,0.5-2.2,1.4-2.5,2.5h-6.1c-1.6,0-2.9,1.2-2.9,2.8
			v22.7c0,1.6,1.3,2.8,2.9,2.8h20.2c1.6,0,2.9-1.2,2.9-2.8V332C209.5,330.4,208.2,329.2,206.7,329.2z M196.6,329.2
			c0.7,0,1.4,0.7,1.4,1.4c0,0.7-0.7,1.4-1.4,1.4s-1.4-0.7-1.4-1.4C195.2,329.8,195.9,329.2,196.6,329.2z M206.7,354.6h-20.2V332h2.9
			v4.2h14.4V332h2.9V354.6z"/>
	</g>
</g>
</svg>
