<?xml version="1.0" encoding="utf-8"?>
<!-- Generator: Adobe Illustrator 25.2.0, SVG Export Plug-In . SVG Version: 6.00 Build 0)  -->
<svg version="1.1" id="Layer_1" xmlns="http://www.w3.org/2000/svg" xmlns:xlink="http://www.w3.org/1999/xlink" x="0px" y="0px"
	 viewBox="0 0 32 32" style="enable-background:new 0 0 32 32;" xml:space="preserve">
<g>
	<g>
		<g>
			<path d="M18.6,14.9v0.2V14.9L18.6,14.9z M14.4,9.6l-1.8,1.5l4.3,5.4l0.3-0.2v-2.9c0-0.1,0-0.2,0-0.3l0,0L14.4,9.6z"/>
		</g>
		<g>
			<g>
				<path d="M17.2,13.1L17.2,13.1c0,0.1,0,0.2,0,0.3v2.9l-0.3,0.2l-4.3-5.4l1.8-1.5L17.2,13.1z"/>
				<polygon points="18.7,15 18.6,15.1 18.6,14.9 				"/>
			</g>
		</g>
	</g>
	<g id="Grupo_296_1_" transform="translate(94.5 -231.7)">
		<path d="M-80.1,241.3l2.8,3.5l0,0c0,0.1,0,0.2,0,0.3v2.9l-0.3,0.2l-4.3-5.4L-80.1,241.3z"/>
		<path d="M-68.4,244.4l-0.3-2.2l-3.4,0.5c-0.2-0.4-0.4-0.8-0.6-1.2l2.8-2.2l0,0l-0.9-1.2l-0.5-0.7l-0.9,0.7l-1.9,1.6
			c-0.3-0.3-0.7-0.6-1-0.9l0.3-0.7l1.1-2.5l-2.1-0.9l-1.2,2.9c-0.6-0.2-1.3-0.4-1.8-0.5c-0.3-0.6-1.1-1.6-2.6-2.2l0.3-2.7l-2.3-0.3
			l-0.4,2.8c-2.1,0.4-3,1.9-3.4,2.7l-2.8-0.3l-0.1,1l-0.2,1.3l2.7,0.3c0.1,1.6,1.1,2.6,1.6,3c-0.1,0.6-0.1,1.3,0,1.8l-1.6,0.2
			c1.6,1.6,3.6,2.8,5.9,3.4c-0.2-0.2-0.4-0.5-0.6-0.7c-1.9-2.5-1.9-5.8,0.1-7.4c2-1.6,5.2-0.8,7.2,1.6c0.8,1,1.3,2.1,1.4,3.2
			l2.2,2.2c0.2-0.8,0.2-1.6,0.1-2.4L-68.4,244.4z M-83.9,238.4c-0.6,0.5-1.1,1.1-1.5,1.6c-0.3-0.7-0.2-1.4,0.2-1.9
			c0.1-0.2,0.3-0.4,0.6-0.6c0.8-0.6,1.8-0.7,2.7-0.1c-0.6,0.2-1.1,0.4-1.6,0.7C-83.6,238.2-83.7,238.3-83.9,238.4z"/>
		<polygon points="-75.8,246.7 -75.9,246.8 -75.9,246.6 		"/>
		<g id="Trazado_1712_1_">
			<polygon points="-75.8,246.7 -75.9,246.8 -75.9,246.6 			"/>
			<path d="M-75.9,263.5v-5.2c-0.4-0.1-0.8-0.1-1.2-0.2c-8.5-1.6-12.2-7.9-13.5-14.2c0.4,0.6,0.9,1.1,1.4,1.6
				c0.6,0.7,1.3,1.3,1.9,1.7c0.6,0.5,1.3,0.9,1.9,1.3c2.6,1.5,5.7,2.1,9.5,2.1v-3.7l0.1-0.1l-0.1-0.1v-1.6l2,1.9l1.8,1.8l3,2.9
				l2.5,2.5L-75.9,263.5z"/>
		</g>
	</g>
</g>
</svg>
