<?xml version="1.0" encoding="utf-8"?>
<!-- Generator: Adobe Illustrator 25.2.0, SVG Export Plug-In . SVG Version: 6.00 Build 0)  -->
<svg version="1.1" id="Layer_1" xmlns="http://www.w3.org/2000/svg" xmlns:xlink="http://www.w3.org/1999/xlink" x="0px" y="0px"
	 viewBox="0 0 32 32" style="enable-background:new 0 0 32 32;" xml:space="preserve">
<g>
	<g>
		<path d="M19.5,0.6H2c-0.8,0-1.5,0.7-1.5,1.5v17.2c0,0.8,0.7,1.5,1.5,1.5h10v-3H3.5V3.6H18v6.1l3,1.9V2.1C21,1.3,20.4,0.6,19.5,0.6
			z"/>
	</g>
	<g id="Trazado_1729_10_">
		<g>
			<path d="M29.8,19l-4.4-2.8L21,13.4l-0.7-0.5L18,11.4l-4.5-2.9v22.9l10.9-6.9l6.8-4.4l0.2-0.1L29.8,19z M25,20.6l-8.2,5.1V14.8
				l1.3,0.8l1.4,0.9l1.6,1l1,0.7l3.4,2.2L25,20.6z"/>
		</g>
	</g>
</g>
</svg>
