<?xml version="1.0" encoding="utf-8"?>
<!-- Generator: Adobe Illustrator 25.2.0, SVG Export Plug-In . SVG Version: 6.00 Build 0)  -->
<svg version="1.1" id="Layer_1" xmlns="http://www.w3.org/2000/svg" xmlns:xlink="http://www.w3.org/1999/xlink" x="0px" y="0px"
	 viewBox="0 0 32 32" style="enable-background:new 0 0 32 32;" xml:space="preserve">
<style type="text/css">
	.st0{fill:none;}
</style>
<g>
	<g>
		<path class="st0" d="M25.9,22.7l-0.9,1l-1.7,1.7l-1.1-1.1l-0.3-0.3l-0.6-0.6l-1.1,1.1l0,0l1-1l0.6,0.6l0.3,0.3l1.1,1.1l1.7-1.7
			L25.9,22.7l2.5-2.5L25.9,22.7z M28.4,20.2l1,1.1v-0.1L28.4,20.2z"/>
		<path d="M28.4,20.2l1,1.1v-0.1L28.4,20.2z M25,23.7l-1.7,1.7l-1.1-1.1l-0.3-0.3l-0.6-0.6l-1.1,1.1l0,0l1-1l0.6,0.6l0.3,0.3
			l1.1,1.1L25,23.7l0.9-0.9l2.5-2.6l-2.5,2.5L25,23.7z M28.4,20.2l1,1.1v-0.1L28.4,20.2z M25,23.7l-1.7,1.7l-1.1-1.1l-0.3-0.3
			l-0.6-0.6l-1.1,1.1l0,0l1-1l0.6,0.6l0.3,0.3l1.1,1.1L25,23.7l0.9-0.9l2.5-2.6l-2.5,2.5L25,23.7z M28.4,20.2l1,1.1v-0.1L28.4,20.2z
			 M25,23.7l-1.7,1.7l-1.1-1.1l-0.3-0.3l-0.6-0.6l-1.1,1.1l0,0l1-1l0.6,0.6l0.3,0.3l1.1,1.1L25,23.7l0.9-0.9l2.5-2.6l-2.5,2.5
			L25,23.7z M28.4,20.2l1,1.1v-0.1L28.4,20.2z M25,23.7l-1.7,1.7l-1.1-1.1l-0.3-0.3l-0.6-0.6l-1.1,1.1l0,0l1-1l0.6,0.6l0.3,0.3
			l1.1,1.1L25,23.7l0.9-0.9l2.5-2.6l-2.5,2.5L25,23.7z M29.6,21.2l-1.1-1L29.6,21.2L29.6,21.2z M27.9,22.9l-2.7,2.7l-1.9,1.9
			l-0.1,0.1l-3.1-3.1l0,0l3.1,3.1l0.1-0.1l1.7-1.7l0.2-0.2l4.3-4.3l0,0L27.9,22.9z M21.9,24l0.3,0.3l1.1,1.1l1.7-1.7l0.9-1l2.5-2.6
			l-2.5,2.5l-0.9,1l-1.7,1.7l-1.1-1.1L21.9,24l-0.6-0.7l-1.1,1.1l0,0l1-1L21.9,24z M29.6,21.2l-1.1-1L29.6,21.2L29.6,21.2z
			 M27.9,22.9l-2.7,2.7l-1.9,1.9l-0.1,0.1l-3.1-3.1l0,0l3.1,3.1l0.1-0.1l1.7-1.7l0.2-0.2l4.3-4.3l0,0L27.9,22.9z M21.9,24l0.3,0.3
			l1.1,1.1l1.7-1.7l0.9-1l2.5-2.6l-2.5,2.5l-0.9,1l-1.7,1.7l-1.1-1.1L21.9,24l-0.6-0.7l-1.1,1.1l0,0l1-1L21.9,24z M29.6,21.2l-1.1-1
			L29.6,21.2L29.6,21.2z M27.9,22.9l-2.7,2.7l-1.9,1.9l-0.1,0.1l-3.1-3.1l0,0l3.1,3.1l0.1-0.1l1.7-1.7l0.2-0.2l4.3-4.3l0,0
			L27.9,22.9z M21.9,24l0.3,0.3l1.1,1.1l1.7-1.7l0.9-1l2.5-2.6l-2.5,2.5l-0.9,1l-1.7,1.7l-1.1-1.1L21.9,24l-0.6-0.7l-1.1,1.1l0,0
			l1-1L21.9,24z M29.6,21.2l-1.1-1L29.6,21.2L29.6,21.2z M27.9,22.9l-2.7,2.7l-1.9,1.9l-0.1,0.1l-3.1-3.1l0,0l3.1,3.1l0.1-0.1
			l1.7-1.7l0.2-0.2l4.3-4.3l0,0L27.9,22.9z M21.9,24l0.3,0.3l1.1,1.1l1.7-1.7l0.9-1l2.5-2.6l-2.5,2.5l-0.9,1l-1.7,1.7l-1.1-1.1
			L21.9,24l-0.6-0.7l-1.1,1.1l0,0l1-1L21.9,24z M29.6,21.2l-1.1-1L29.6,21.2L29.6,21.2z M27.9,22.9l-2.7,2.7l-1.9,1.9l-0.1,0.1
			l-3.1-3.1l0,0l3.1,3.1l0.1-0.1l1.7-1.7l0.2-0.2l4.3-4.3l0,0L27.9,22.9z M21.9,24l0.3,0.3l1.1,1.1l1.7-1.7l0.9-1l2.5-2.6l-2.5,2.5
			l-0.9,1l-1.7,1.7l-1.1-1.1L21.9,24l-0.6-0.7l-1.1,1.1l0,0l1-1L21.9,24z M29.5,21.4l-1.6,1.6l-2.7,2.7l-1.9,1.9l-0.1,0.1l-3.1-3.1
			l0,0l3.1,3.1l0.1-0.1l1.7-1.7l0.2-0.2L29.5,21.4L29.5,21.4z M28.4,20.2l1,1.1v-0.1L28.4,20.2z M25,23.7l-1.7,1.7l-1.1-1.1
			l-0.3-0.3l-0.6-0.6l-1.1,1.1l0,0l1-1l0.6,0.6l0.3,0.3l1.1,1.1L25,23.7l0.9-0.9l2.5-2.6l-2.5,2.5L25,23.7z M28.4,20.2l1,1.1v-0.1
			L28.4,20.2z M25,23.7l-1.7,1.7l-1.1-1.1l-0.3-0.3l-0.6-0.6l-1.1,1.1l0,0l1-1l0.6,0.6l0.3,0.3l1.1,1.1L25,23.7l0.9-0.9l2.5-2.6
			l-2.5,2.5L25,23.7z"/>
		<path d="M31.4,17.1C31.3,17.1,31.3,17,31.4,17.1c-0.1-0.1-0.1-0.1-0.2-0.2v-3.2c0.1-2.8-2.1-4.8-4.6-4.8h-1.6V1.2H6.5v7.8H5
			c-2.6,0-4.7,2-4.7,4.7v9.3h6.2v6.2h11.2v0.3c0,0.8,0.7,1.6,1.6,1.6h11.1c0.8,0,1.6-0.7,1.6-1.6V18.2
			C31.8,17.7,31.6,17.3,31.4,17.1z M9.6,4.3H22v4.7H9.6V4.3z M17.7,26H9.5v-6.2h8.2V26z M6.4,16.7v3.1H3.3v-6.2
			c0-0.8,0.8-1.6,1.6-1.6h21.7c0.9,0,1.6,0.8,1.6,1.6v3.1H6.4z M30.3,29.3H19.2V18.2h11.1V29.3z"/>
		<polygon points="29.5,21.4 27.9,22.9 25.2,25.6 23.4,27.5 23.3,27.6 20.2,24.6 21.3,23.4 21.9,24 22.2,24.4 23.4,25.5 25,23.8 
			25.9,22.8 28.4,20.2 		"/>
		<circle cx="25" cy="14.3" r="1.6"/>
	</g>
</g>
</svg>
