<?xml version="1.0" encoding="utf-8"?>
<!-- Generator: Adobe Illustrator 25.2.0, SVG Export Plug-In . SVG Version: 6.00 Build 0)  -->
<svg version="1.1" id="Layer_1" xmlns="http://www.w3.org/2000/svg" xmlns:xlink="http://www.w3.org/1999/xlink" x="0px" y="0px"
	 viewBox="0 0 32 32" style="enable-background:new 0 0 32 32;" xml:space="preserve">
<g id="Grupo_361" transform="translate(-254.809 -853.119)">
	<g id="Grupo_359" transform="translate(254.809 853.119)">
		<path id="Trazado_1770" d="M28.3,3.7H3.7C2,3.7,0.7,5.1,0.7,6.8v18.4c0,1.7,1.3,3.1,3.1,3.1h24.5c1.7,0,3.1-1.3,3.1-3.1V6.8
			C31.3,5.1,30,3.7,28.3,3.7z M28.3,25.2H3.7V6.8h24.5V25.2z"/>
	</g>
	<g id="Grupo_360" transform="translate(258.527 858.646)">
		<path id="Trazado_1771" d="M6,14.9c0.5,0,1-0.1,1.3-0.5c0.3-0.3,0.5-0.7,0.6-1.2h2c0,0.6-0.2,1.2-0.6,1.7s-0.8,0.9-1.4,1.2
			c-0.6,0.3-1.3,0.5-1.9,0.4c-1.2,0.1-2.5-0.4-3.3-1.3c-0.8-1-1.2-2.3-1.2-3.7v-0.2C1.4,10,1.9,8.8,2.7,7.7c0.8-0.9,2-1.4,3.3-1.3
			c1,0,2,0.3,2.9,1C9.5,8.2,10,9.1,10,10.1h-2c0-0.5-0.2-1-0.6-1.3C6.9,8.4,6.5,8.3,6,8.3c-0.6,0-1.2,0.3-1.6,0.8
			c-0.4,0.7-0.6,1.5-0.6,2.3v0.3c-0.1,0.8,0.1,1.6,0.6,2.3C4.6,14.6,5.3,14.9,6,14.9z"/>
		<path id="Trazado_1772" d="M12.9,6.5c0.3,0,0.7,0.1,0.9,0.3C14,7,14.1,7.3,14.1,7.6c0,0.3-0.1,0.6-0.3,0.8c-0.5,0.4-1.3,0.4-1.8,0
			c-0.2-0.2-0.3-0.5-0.3-0.8c0-0.3,0.1-0.6,0.3-0.8C12.2,6.6,12.5,6.5,12.9,6.5z M12.9,14.2c0.3,0,0.7,0.1,0.9,0.3
			c0.2,0.2,0.3,0.5,0.3,0.8s-0.1,0.6-0.3,0.8c-0.5,0.4-1.3,0.4-1.8,0c-0.2-0.2-0.3-0.5-0.3-0.8s0.1-0.6,0.3-0.8S12.5,14.2,12.9,14.2
			z"/>
		<path id="Trazado_1773" d="M15.5,3.4h2.1L23,17.5h-2.1L15.5,3.4z"/>
	</g>
</g>
</svg>
