<?xml version="1.0" encoding="utf-8"?>
<!-- Generator: Adobe Illustrator 25.2.0, SVG Export Plug-In . SVG Version: 6.00 Build 0)  -->
<svg version="1.1" id="Layer_1" xmlns="http://www.w3.org/2000/svg" xmlns:xlink="http://www.w3.org/1999/xlink" x="0px" y="0px"
	 viewBox="0 0 32 32" style="enable-background:new 0 0 32 32;" xml:space="preserve">
<g>
	<g>
		<path d="M27.9,2.7H4L0.2,6.5v17.9L4,28.2h14v-3.7H5.6l-1.7-1.7V8.1l1.7-1.7h20.8L28,8.1v11.2l0.6,0.6l2.4,2.5l0.6,0.6l0.3,0.3V6.5
			L27.9,2.7z"/>
	</g>
	<rect x="8.3" y="8.6" width="15.4" height="2.5"/>
	<g>
		<polygon points="30.5,23.8 26.1,28.2 24.9,29.3 23.8,28.2 23,27.4 25.1,25.1 19.4,25.1 19.4,22.3 25.1,22.3 23,20.1 24.9,18.1 
			27.6,20.8 28,21.2 30,23.3 		"/>
	</g>
</g>
</svg>
