<?xml version="1.0" encoding="utf-8"?>
<!-- Generator: Adobe Illustrator 25.2.0, SVG Export Plug-In . SVG Version: 6.00 Build 0)  -->
<svg version="1.1" id="Layer_1" xmlns="http://www.w3.org/2000/svg" xmlns:xlink="http://www.w3.org/1999/xlink" x="0px" y="0px"
	 viewBox="0 0 32 32" style="enable-background:new 0 0 32 32;" xml:space="preserve">
<g>
	<path d="M28.3,3.7H3.7C2,3.7,0.6,5.1,0.6,6.8v18.4c0,1.7,1.4,3.1,3.1,3.1h24.6c1.7,0,3.1-1.4,3.1-3.1V6.8C31.3,5.1,30,3.7,28.3,3.7
		z M28.3,25.2H3.7V6.8h24.6V25.2z"/>
	<path d="M15.2,22.1C15.2,22.1,15.2,22.1,15.2,22.1C15.3,22.1,15.3,22.1,15.2,22.1c1.5,0,2.7-0.5,3.7-1.1l3.7,3.7l0-0.1l0.1,0.1
		l2.1-2.2l-3.7-3.6c0.6-1.1,1.1-2.3,1.1-3.7c0-1.9-0.8-3.7-2.1-4.9c-1.3-1.3-3-2.1-4.9-2.1c-3.8,0-6.9,3.1-6.9,6.9
		C8.3,19.1,11.4,22.1,15.2,22.1z M15.2,19c-2.1,0-3.8-1.7-3.8-3.8c0-2.1,1.7-3.8,3.8-3.8c2.2,0,3.8,1.7,3.8,3.8
		C19,17.4,17.3,19,15.2,19z"/>
	<polygon points="15.7,12.8 14.7,12.8 14.7,14.8 12.6,14.8 12.6,15.8 14.7,15.8 14.7,18 15.7,18 15.7,15.8 17.8,15.8 17.8,14.8 
		15.7,14.8 	"/>
</g>
</svg>
