<?xml version="1.0" encoding="utf-8"?>
<!-- Generator: Adobe Illustrator 25.2.0, SVG Export Plug-In . SVG Version: 6.00 Build 0)  -->
<svg version="1.1" id="Layer_1" xmlns="http://www.w3.org/2000/svg" xmlns:xlink="http://www.w3.org/1999/xlink" x="0px" y="0px"
	 viewBox="0 0 32 32" style="enable-background:new 0 0 32 32;" xml:space="preserve">
<style type="text/css">
	.st0{fill:none;}
</style>
<path class="st0" d="M0,0h32v32H0L0,0z"/>
<g>
	<g>
		<path class="st0" d="M22.9,9.8c0.7,1.2,1.3,2.7,1.7,4.3h0.4v-1.8C24.9,10.9,24,9.9,22.9,9.8z"/>
		<path d="M22.9,9.8c0.7,1.2,1.3,2.7,1.7,4.3h0.4v-1.8C24.9,10.9,24,9.9,22.9,9.8z"/>
	</g>
	<g>
		<path d="M31.6,19.1l-4.2,4.7l-2.5,2.7c-0.3,0.3-0.8,0.6-1.2,0.6h-0.6c-0.2,0.1-0.4,0.1-0.7,0.1H2.5c-1.4,0-2.5-1.1-2.5-2.5v-15
			c0-1.3,1.1-2.5,2.5-2.5H10l2.5,2.5h3.2c0.1,0.2,0.2,0.3,0.2,0.5c0.2,0.7,0.5,1.3,0.6,2h-14v10.2l5.1-5.6c0.3-0.3,0.8-0.6,1.2-0.6
			h4.6l0.8,0.8l1.6,1.7H9.1l-5.2,5.8h19.4l1.7-1.8l2.5-2.7l1.2-1.2h-3l0.3-0.3l1.2-1.3l0.3-0.3l0.5-0.5h2.3c0.7,0,1.2,0.4,1.6,1
			C32.1,17.8,32,18.6,31.6,19.1z"/>
	</g>
	<g id="Grupo_297_5_" transform="translate(119.5 -231.7)">
		<g>
			<path d="M-92.4,247l-0.9,0.9l-1.2,1.3l-1.2,1.2l-1.3,1.4l-1.7,1.8l-3.1-3.2l-2.4-2.5l-0.9-0.9h3.7c0-1.1-0.1-2.2-0.2-3.1
				c-0.2-0.9-0.4-1.7-0.7-2.5c-0.7-1.9-2-3.5-3.7-4.8c3.1,0.7,6.1,2.1,8.1,4.8c1.1,1.5,1.7,3.3,2.1,5.6H-92.4z"/>
		</g>
	</g>
</g>
</svg>
