<?xml version="1.0" encoding="utf-8"?>
<!-- Generator: Adobe Illustrator 25.2.0, SVG Export Plug-In . SVG Version: 6.00 Build 0)  -->
<svg version="1.1" id="Layer_1" xmlns="http://www.w3.org/2000/svg" xmlns:xlink="http://www.w3.org/1999/xlink" x="0px" y="0px"
	 viewBox="0 0 32 32" style="enable-background:new 0 0 32 32;" xml:space="preserve">
<g>
	<polygon points="30.6,9.1 29.1,10.5 29,10.6 27.8,11.7 27.8,18.4 30.7,21.4 30.6,9.3 30.6,9.2 	"/>
	<path d="M18.4,27.2L17,28v-6.6l-2.9-0.1v6.6l-11-6.2V11.1l7.6,4l0.9-0.9l1.4-1.3L7.3,9.9l6.8,0.1l0.1,1.7l4-3.9l-1.9-0.1L16.1,4
		l4,2.1l2.3-2.2l-6.7-3.5c-0.4-0.2-0.9-0.2-1.4,0l-13.2,7H1c-0.1,0-0.1,0.1-0.2,0.1L0.7,7.6L0.5,7.7C0.3,8,0.2,8.3,0.2,8.6v13.9
		c0,0.5,0.3,1,0.7,1.3l13.7,7.8c0.1,0,0.2,0.1,0.3,0.1c0.1,0,0.2,0.1,0.2,0.1h0.6c0.1,0,0.2,0,0.2-0.1c0,0,0,0,0.1,0
		s0.1-0.1,0.2-0.1l4.9-2.7l-2.7-1.7C18.5,27.2,18.4,27.2,18.4,27.2z M13.7,3.9L14,7.7L6.7,7.6L13.7,3.9z"/>
	<polygon points="27.8,20.7 24.7,17.8 22.5,20 25.1,22.5 18.5,22.5 18.5,25.7 25.1,25.7 22.5,28.2 24.7,30.4 31,24.1 30.5,23.6 	"/>
	<path d="M20.5,8l-2.3,2.2l-1.7,1.6l-3.7,3.6v0.8l-0.1,3.7h1.5l2.5,0.1h0.4h0.1l0.2-0.2l2.5-2.4l0.6-0.6l3.1-3l2.2-2.1l1-0.9l1-0.9
		l-0.1-0.2l-0.1-0.1l-0.7-0.7l-1.2-1.3l-0.8-0.8L24.5,6l-0.1-0.1l-0.7-0.7l-2.1,2L20.5,8z M24.4,9l0.3,0.3l-1,0.9L22.9,11l-5,4.8
		l0,0l-0.9,0.8l-0.2,0.2l-0.4,0.4h-1v-1l3.9-3.7l0.1-0.1l0.7-0.7l1.6-1.5l1.7-1.6l0,0l0.4-0.4L24.4,9z"/>
	<path d="M31.5,4.6L31.5,4.6l-0.1-0.2l-2.5-2.6c-0.2-0.2-0.4-0.3-0.8-0.3l0,0h-0.1c-0.1,0-0.3,0.1-0.4,0.1s-0.2,0.1-0.2,0.2
		l-2.1,2.1l0.4,0.4l0.1,0.1l0.5,0.5l0.8,0.8L28.2,7l0,0l0.7,0.7L29,7.9l0.4,0.4l0.4-0.4l1.6-1.7C31.9,5.8,31.9,5.1,31.5,4.6z"/>
</g>
</svg>
