<?xml version="1.0" encoding="utf-8"?>
<!-- Generator: Adobe Illustrator 25.2.0, SVG Export Plug-In . SVG Version: 6.00 Build 0)  -->
<svg version="1.1" id="Layer_1" xmlns="http://www.w3.org/2000/svg" xmlns:xlink="http://www.w3.org/1999/xlink" x="0px" y="0px"
	 viewBox="0 0 32 32" style="enable-background:new 0 0 32 32;" xml:space="preserve">
<g>
	<g>
		<path d="M25.5,31.8H6.5c-1.7,0-3-1.3-3-3V3.2c0-1.7,1.3-3,3-3h19.1c1.7,0,3,1.3,3,3v25.6C28.5,30.4,27.1,31.8,25.5,31.8z M6.5,3
			C6.4,3,6.3,3.1,6.3,3.2v25.6c0,0.1,0.1,0.2,0.2,0.2h19.1c0.1,0,0.2-0.1,0.2-0.2V3.2c0-0.1-0.1-0.2-0.2-0.2H6.5z"/>
	</g>
	<g>
		<rect x="9.1" y="5.9" width="13.8" height="2.8"/>
	</g>
	<g>
		<rect x="11.4" y="11.6" width="9.2" height="2.8"/>
	</g>
	<g>
		<rect x="9.1" y="17.4" width="13.8" height="2.8"/>
	</g>
	<g>
		<rect x="11.7" y="23" width="8.6" height="2.8"/>
	</g>
</g>
</svg>
