<?xml version="1.0" encoding="utf-8"?>
<!-- Generator: Adobe Illustrator 25.2.0, SVG Export Plug-In . SVG Version: 6.00 Build 0)  -->
<svg version="1.1" id="Layer_1" xmlns="http://www.w3.org/2000/svg" xmlns:xlink="http://www.w3.org/1999/xlink" x="0px" y="0px"
	 viewBox="0 0 32 32" style="enable-background:new 0 0 32 32;" xml:space="preserve">
<g id="path7313">
	<path d="M21.6,11c0.2,0,0.4,0,0.7,0.1c0.3,0,0.6,0.1,0.9,0.2c-1,1.4-1.6,3-1.7,4.8c0,0.5,0,1.5,0,2c0.2,1.7,0.8,3.2,1.8,4.6
		c0.4,0.6,1,1.2,1.6,1.7c-0.3,0.6-0.6,1.1-1,1.7c-0.8,1.1-1.3,1.7-1.7,2c-0.2,0.2-0.5,0.2-0.5,0.2c-0.2,0-0.6-0.1-1.3-0.3
		c-0.6-0.2-0.9-0.3-1.3-0.4c-0.9-0.3-1.8-0.4-2.6-0.4c-0.6,0-1.2,0.1-1.8,0.2c-0.6,0.1-1.3,0.3-2.1,0.6c-0.9,0.4-1.3,0.4-1.3,0.4
		l0,0c0,0-0.5-0.1-1.5-1.4c-0.5-0.6-1.1-1.5-1.4-2c-1.1-1.8-1.9-4.1-2.1-6.1c-0.1-0.9-0.1-1.8,0-2.6C6.4,15,6.8,14,7.5,13.1
		c0.9-1.2,2.2-1.9,3.6-1.9c0.1,0,0.2,0,0.5,0.1c0.4,0.1,0.7,0.2,1.7,0.5c0.3,0.1,1.4,0.5,2.1,0.6c0.3,0.1,0.6,0.1,0.9,0.1
		c0.2,0,0.5,0,0.7-0.1c0.3-0.1,0.9-0.2,2.5-0.8c0.6-0.2,0.9-0.3,1.1-0.4C20.8,11,21.2,11,21.6,11 M22.1,0.7
		C22.1,0.7,22,0.7,22.1,0.7c-0.9,0.1-1.6,0.3-2.5,0.7c-0.7,0.4-1.3,0.8-1.9,1.4c-1.1,1.1-1.8,2.5-1.9,3.9c-0.1,0.4,0,1.2,0,1.2l0,0
		c0,0,0.1,0,0.3,0c0.2,0,0.4,0,0.5,0c1.3-0.2,2.5-0.9,3.6-2c0.6-0.6,0.9-1.2,1.3-1.8c0.4-0.7,0.6-1.4,0.6-2.2
		C22.2,1.6,22.2,0.8,22.1,0.7L22.1,0.7L22.1,0.7z M21.6,8c-0.6,0-1.3,0.1-2,0.3c-0.4,0.1-0.7,0.2-1.3,0.4c-1,0.4-1.7,0.6-2.1,0.7
		c-0.1,0-0.1,0-0.2,0s-0.2,0-0.4,0c-0.3-0.1-1-0.3-1.6-0.5c-1-0.4-1.5-0.5-2.1-0.7c-0.4-0.1-0.7-0.1-1.1-0.1c-2.3,0-4.6,1.2-6,3.1
		c-1,1.3-1.6,2.9-1.7,4.7C3,16.9,3,18,3.2,19.2c0.3,2.4,1.2,5.1,2.5,7.2c0.4,0.7,1.1,1.6,1.7,2.4c1.3,1.6,2.4,2.4,3.6,2.5l0,0
		c0.1,0,0.2,0,0.3,0c0.6,0,1.4-0.2,2.5-0.6c0.6-0.2,1.1-0.4,1.6-0.5c0.4-0.1,0.9-0.1,1.3-0.1c0.6,0,1.2,0.1,1.8,0.3
		c0.3,0.1,0.5,0.2,1,0.4c0.8,0.3,1.5,0.5,2.1,0.6c0.1,0,0.2,0,0.2,0c0.8,0,1.7-0.3,2.4-0.9c0.7-0.6,1.4-1.3,2.3-2.6
		c0.7-1,1.2-1.8,1.7-2.9c0.2-0.5,0.7-1.6,0.7-1.7c0,0,0,0-0.1-0.1c-0.3-0.1-0.8-0.4-1.2-0.6c-0.6-0.4-1.3-1.1-1.7-1.6
		c-0.7-0.9-1.1-1.9-1.2-3.1c0-0.3,0-1.1,0-1.4c0.1-1.3,0.5-2.4,1.3-3.4c0.5-0.6,1.1-1.2,1.9-1.7l0.2-0.1l-0.3-0.5
		c-1.2-1.4-2.7-2.2-4.8-2.5C22.3,8,21.9,8,21.6,8L21.6,8z"/>
</g>
</svg>
