<?xml version="1.0" encoding="utf-8"?>
<!-- Generator: Adobe Illustrator 25.2.0, SVG Export Plug-In . SVG Version: 6.00 Build 0)  -->
<svg version="1.1" id="Layer_1" xmlns="http://www.w3.org/2000/svg" xmlns:xlink="http://www.w3.org/1999/xlink" x="0px" y="0px"
	 viewBox="0 0 32 32" style="enable-background:new 0 0 32 32;" xml:space="preserve">
<g id="Grupo_308" transform="translate(-262.8 -667.195)">
	<path id="Trazado_1726" d="M291.7,682.1l-0.4-2.5l-3.8,0.6c-0.2-0.4-0.4-0.9-0.7-1.3l3.2-2.4l-1.6-2l-3.2,2.5
		c-0.3-0.4-0.7-0.7-1.1-1l1.4-3.6l-2.4-0.9l-1.3,3.3c-0.7-0.3-1.3-0.4-2.1-0.5c-0.6-1.2-1.7-2.1-2.9-2.5l0.4-3l-2.5-0.3l-0.4,3.1
		c-1.7,0.3-3.1,1.4-3.8,3l-3.3-0.4l-0.3,2.5l3,0.3c0.1,1.3,0.7,2.6,1.7,3.4c0,0.2-0.1,0.5-0.1,0.7l2.8,1.8c-0.6-1.9,0-4,1.5-5.3
		c2.2-1.8,5.8-1,8.1,1.9c2.2,2.8,2.2,6.3,0.1,8.1l-4.7,3.2c2.1,0.5,4.3,0,6-1.2c2-1.7,3-4.4,2.6-7L291.7,682.1z M274.5,675.5
		c-0.7,0.5-1.2,1.2-1.6,1.9c-0.5-1.3,0.1-2.8,1.5-3.3c0.8-0.3,1.7-0.2,2.4,0.3C275.9,674.7,275.2,675,274.5,675.5L274.5,675.5z"/>
	<path id="Trazado_1727" d="M276.9,693.8l0.7-1.7l-1.9,1.2L276.9,693.8z"/>
	<path id="Trazado_1728" d="M283.5,684.9l-4.8-6.1l-2,1.6l4.8,6.1L283.5,684.9z"/>
	<path id="Trazado_1729" d="M280.6,688.4l-1.4-0.9l-3.6-2.3l-4.1-2.6l-5.6-3.6v18.8l9-5.7l5.6-3.6L280.6,688.4z M268.5,692.9v-9
		l2.2,1.4l2.1,1.4l2.8,1.8l-0.4,0.2L268.5,692.9z"/>
</g>
</svg>
