<?xml version="1.0" encoding="utf-8"?>
<!-- Generator: Adobe Illustrator 25.2.0, SVG Export Plug-In . SVG Version: 6.00 Build 0)  -->
<svg version="1.1" id="Layer_1" xmlns="http://www.w3.org/2000/svg" xmlns:xlink="http://www.w3.org/1999/xlink" x="0px" y="0px"
	 viewBox="0 0 32 32" style="enable-background:new 0 0 32 32;" xml:space="preserve">
<style type="text/css">
	.st0{fill:none;}
</style>
<g>
	<g>
		<path class="st0" d="M9,8.5v10.4l8.2-5.2L9,8.5z"/>
		<path d="M5.9,2.9v21.7l0.8-0.5c0.1-3.4,2.9-6.1,6.3-6.1h3.3l3.7-2.3l1.9-1.2l1.2-0.8L5.9,2.9z M9,19V8.6l8.2,5.2L9,19z"/>
	</g>
	<g>
		<path d="M23,26.8c0.1,0.1,0.1,2.4,0.1,2.4H13c-2.6,0-4.8-2.1-4.8-4.8c0-0.4,0.1-0.9,0.2-1.3c0.6-2,2.4-3.5,4.6-3.5h8.4V16l4.8,4.8
			l-4.8,4.8v-3.6h-8.4c-1.3,0-2.4,1.1-2.4,2.4s1.1,2.4,2.4,2.4L23,26.8L23,26.8z"/>
	</g>
</g>
</svg>
