<?xml version="1.0" encoding="utf-8"?>
<!-- Generator: Adobe Illustrator 25.2.0, SVG Export Plug-In . SVG Version: 6.00 Build 0)  -->
<svg version="1.1" id="Layer_1" xmlns="http://www.w3.org/2000/svg" xmlns:xlink="http://www.w3.org/1999/xlink" x="0px" y="0px"
	 viewBox="0 0 32 32" style="enable-background:new 0 0 32 32;" xml:space="preserve">
<g>
	<g>
		<g>
			<rect x="22.5" y="17.5" transform="matrix(0.7071 -0.7071 0.7071 0.7071 -9.6262 24.476)" width="4.5" height="12.7"/>
			<path d="M24.3,13.2c2.9,0,5.3-2.4,5.3-5.3c0-0.9-0.2-1.7-0.6-2.4l-4.1,4.1l-2.2-2.2l4.1-4.1c-0.7-0.4-1.5-0.6-2.4-0.6
				c-2.9,0-5.3,2.4-5.3,5.3c0,0.6,0.1,1.2,0.3,1.7l-2.8,2.8l-2.7-2.7L15,8.7l-2.1-2.1l3.2-3.2c-1.8-1.8-4.6-1.8-6.4,0L4.4,8.7
				l2.1,2.1H2.3l-1.1,1.1l5.3,5.3l1.1-1.1v-4.2L9.7,14l1.1-1.1l2.7,2.7L2.4,26.7l3.2,3.2l17.1-17.1C23.1,13,23.6,13.2,24.3,13.2z"/>
		</g>
	</g>
</g>
</svg>
