<?xml version="1.0" encoding="utf-8"?>
<!-- Generator: Adobe Illustrator 25.2.0, SVG Export Plug-In . SVG Version: 6.00 Build 0)  -->
<svg version="1.1" id="Layer_1" xmlns="http://www.w3.org/2000/svg" xmlns:xlink="http://www.w3.org/1999/xlink" x="0px" y="0px"
	 viewBox="0 0 32 32" style="enable-background:new 0 0 32 32;" xml:space="preserve">
<g>
	<g>
		<path d="M19,4v7.5c0,1.6,0.6,3.3,1.5,4.5h-9c0.9-1.4,1.5-2.9,1.5-4.5V4H19 M23.5,1h-15C7.7,1,7,1.8,7,2.5S7.8,4,8.5,4l0,0H10v7.5
			c0,2.6-1.9,4.5-4.5,4.5v3h9v10.5L16,31l1.5-1.5V19h9v-3l0,0c-2.6,0-4.5-1.9-4.5-4.5V4h1.5l0,0C24.3,4,25,3.2,25,2.5S24.2,1,23.5,1
			L23.5,1z"/>
	</g>
</g>
</svg>
