<?xml version="1.0" encoding="utf-8"?>
<!-- Generator: Adobe Illustrator 25.2.0, SVG Export Plug-In . SVG Version: 6.00 Build 0)  -->
<svg version="1.1" id="Layer_1" xmlns="http://www.w3.org/2000/svg" xmlns:xlink="http://www.w3.org/1999/xlink" x="0px" y="0px"
	 viewBox="0 0 32 32" style="enable-background:new 0 0 32 32;" xml:space="preserve">
<g>
	<g>
		<g id="Grupo_423_1_" transform="translate(-284.852 -813.673)">
			<g id="Grupo_363_1_" transform="translate(284.852 813.673)">
				<g id="Grupo_362_1_">
					<path id="Trazado_1777_1_" d="M28.6,3.4H3.4c-1.7,0-3.1,1.4-3.1,3.1v18.9c0,1.7,1.4,3.1,3.1,3.1h25.2c1.7,0,3.1-1.4,3.1-3.1
						V6.6C31.7,4.9,30.3,3.4,28.6,3.4z M28.6,25.4H3.4V6.6h25.2V25.4z"/>
				</g>
			</g>
		</g>
		<g>
			<path d="M11.7,9.9h12.9c0.3,0,0.5,0.2,0.5,0.5v2.1c0,0.3-0.2,0.5-0.5,0.5H11.7c-0.3,0-0.5-0.2-0.5-0.5v-2.1
				C11.2,10.1,11.4,9.9,11.7,9.9z"/>
			<path d="M11.7,14.4h12.9c0.3,0,0.5,0.2,0.5,0.5v2.1c0,0.3-0.2,0.5-0.5,0.5H11.7c-0.3,0-0.5-0.2-0.5-0.5v-2.1
				C11.2,14.6,11.4,14.4,11.7,14.4z"/>
			<path d="M11.7,19.1h12.9c0.3,0,0.5,0.2,0.5,0.5v2.1c0,0.3-0.2,0.5-0.5,0.5H11.7c-0.3,0-0.5-0.2-0.5-0.5v-2.1
				C11.2,19.4,11.4,19.1,11.7,19.1z"/>
		</g>
	</g>
	<path d="M7.3,17.4L7.3,17.4c-0.7,0-1.3-0.6-1.3-1.3v-4.3c0-0.7,0.6-1.3,1.3-1.3l0,0c0.7,0,1.3,0.6,1.3,1.3v4.3
		C8.6,16.8,8,17.4,7.3,17.4z"/>
	<path d="M7.3,22.6L7.3,22.6C6.6,22.6,6,22,6,21.3v-0.7c0-0.7,0.6-1.3,1.3-1.3l0,0c0.7,0,1.3,0.6,1.3,1.3v0.7
		C8.6,22.1,8,22.6,7.3,22.6z"/>
</g>
</svg>
