<?xml version="1.0" encoding="utf-8"?>
<!-- Generator: Adobe Illustrator 25.2.0, SVG Export Plug-In . SVG Version: 6.00 Build 0)  -->
<svg version="1.1" id="Layer_1" xmlns="http://www.w3.org/2000/svg" xmlns:xlink="http://www.w3.org/1999/xlink" x="0px" y="0px"
	 viewBox="0 0 32 32" style="enable-background:new 0 0 32 32;" xml:space="preserve">
<g>
	<g>
		<g>
			<path d="M15.9,14v-2h-4v-4h-2v4H6v-4H4v4H0v2h4v4H0v2h4v4h2v-4h4v4h2v-4h4v-2h-4v-4H15.9z M9.9,18H6v-4h4V18z"/>
		</g>
	</g>
	<g>
		<g>
			<path d="M32,14v-2h-4v-4h-2v4h-4v-4h-2v4h-4v2h4v4h-4v2h4v4h2v-4h4v4h2v-4h4v-2h-4v-4H32z M26,18h-4v-4h4V18z"/>
		</g>
	</g>
</g>
</svg>
