<svg viewBox="0 0 512 512">
	<path d="m289.648 159.19c-3.136 3.236-86.784 70.442-89.836 72.36l31.519 39.064 90.026-72.35z" />
	<path d="m498.989 417.204-158.733-195.642-90.096 72.4 158.423 196.372c20.142 24.99 56.738 28.99 81.816 8.719 25.074-20.282 28.827-56.906 8.59-81.849z" />
	<path d="m269.066 118.356-18.665-23.022c34.142-25.443 57.552-32.168 108.839-34.007 6.665-.239 12.371-4.848 14.005-11.313 1.634-6.464-1.196-13.232-6.947-16.608-78.172-45.903-151.412-44.477-211.803 4.126l-63.725 51.29c-6.473 5.209-7.476 14.699-2.232 21.146 5.128 6.306 4.307 15.647-2.281 20.949-6.453 5.194-15.937 4.189-21.14-2.242-5.2-6.426-14.618-7.434-21.059-2.257l-27.292 21.936c-19.372 15.59-22.413 43.867-6.737 63.204l37.74 46.549c15.605 19.248 43.997 22.237 63.279 6.719l27.284-21.93c6.47-5.201 7.485-14.681 2.254-21.134-5.202-6.416-4.188-15.771 2.243-20.947 6.461-5.199 15.957-4.197 21.173 2.235 5.204 6.419 14.618 7.418 21.057 2.239l81.76-65.802c6.466-5.205 7.475-14.682 2.247-21.131z" />
</svg>