<?xml version="1.0" encoding="utf-8"?>
<!-- Generator: Adobe Illustrator 25.2.0, SVG Export Plug-In . SVG Version: 6.00 Build 0)  -->
<svg version="1.1" id="Layer_1" xmlns="http://www.w3.org/2000/svg" xmlns:xlink="http://www.w3.org/1999/xlink" x="0px" y="0px"
	 viewBox="0 0 32 32" style="enable-background:new 0 0 32 32;" xml:space="preserve">
<g>
	<path d="M21.7,19.3h-1.2l-0.4-0.4c1.5-1.7,2.4-3.9,2.4-6.3c0-5.4-4.4-9.8-9.8-9.8s-9.8,4.4-9.8,9.8s4.4,9.8,9.8,9.8
		c2.4,0,4.6-0.9,6.3-2.4l0.4,0.4v1.2l7.5,7.5l2.2-2.2L21.7,19.3z M12.7,19.3c-3.7,0-6.8-3-6.8-6.8s3-6.8,6.8-6.8
		c3.7,0,6.8,3,6.8,6.8S16.5,19.3,12.7,19.3z M13.5,8.8H12v3H9v1.5h3v3h1.5v-3h3v-1.5h-3V8.8z"/>
</g>
</svg>
