<?xml version="1.0" encoding="utf-8"?>
<!-- Generator: Adobe Illustrator 25.2.0, SVG Export Plug-In . SVG Version: 6.00 Build 0)  -->
<svg version="1.1" id="Layer_1" xmlns="http://www.w3.org/2000/svg" xmlns:xlink="http://www.w3.org/1999/xlink" x="0px" y="0px"
	 viewBox="0 0 32 32" style="enable-background:new 0 0 32 32;" xml:space="preserve">
<g>
	<g>
		<path d="M10.7,30.9h6.4c0.3,0,0.5-0.3,0.4-0.6L9.4,11c-0.1-0.4-0.6-0.4-0.8,0L0.2,30.3c-0.1,0.3,0.1,0.6,0.4,0.6h6.1
			c0.2,0,0.4-0.2,0.4-0.4v-1.1c0-0.2-0.2-0.4-0.4-0.4H6c-0.3,0-0.5-0.3-0.4-0.6l0.7-2.1c0.1-0.2,0.2-0.3,0.4-0.3h4.2
			c0.2,0,0.3,0.1,0.4,0.3l0.7,2.1c0.1,0.3-0.1,0.6-0.4,0.6h-0.9c-0.2,0-0.4,0.2-0.4,0.4v1.1C10.2,30.7,10.4,30.9,10.7,30.9z
			 M9.1,22.1c-0.9,0-1.5-0.7-1.5-1.5S8.2,19,9.1,19s1.5,0.7,1.5,1.5S9.9,22.1,9.1,22.1z"/>
	</g>
	<path d="M29.1,15.2V1.1c0-0.4-0.5-0.6-0.7-0.3L14.3,14.9c-0.1,0.1-0.1,0.2-0.1,0.3v1.5c0,0.2,0.2,0.4,0.4,0.4h3.4
		c0.2,0,0.4-0.2,0.4-0.4v-2.1c0-0.1,0-0.2,0.1-0.3l1.6-1.6c0.1-0.1,0.2-0.1,0.3-0.1h4.6c0.2,0,0.4,0.2,0.4,0.4v2.5
		c0,0.1,0,0.2-0.1,0.3l-1.6,1.7h7.1c0.2,0,0.4-0.2,0.4-0.4v-1c0-0.2-0.2-0.4-0.4-0.4h-1.2C29.3,15.7,29.1,15.5,29.1,15.2z
		 M24.9,10.6c-0.9,0-1.6-0.7-1.6-1.6c0-0.9,0.7-1.6,1.6-1.6c0.9,0,1.6,0.7,1.6,1.6C26.5,9.8,25.8,10.6,24.9,10.6z"/>
	<path d="M26.8,20.1L26.8,20.1L26.8,20.1 M25.8,18.5c-0.1,0-0.2,0-0.3,0.1l-5.4,5.3C20,24,20,24.1,20,24.2v6.4
		c0,0.2,0.2,0.4,0.4,0.4h3.8v-1.5h-1.4c-0.2,0-0.4-0.2-0.4-0.4v-4.5c0-0.1,0-0.2,0.1-0.3l1.5-1.5c0.1-0.1,0.2-0.1,0.3-0.1
		c0.1,0,0.2,0,0.3,0.1l0.8,0.8c0.1,0.1,0.1,0.2,0.1,0.3v6.7c0,0.2,0.2,0.4,0.4,0.4h5.5v-1l-2.1-0.5c-0.2,0-0.3-0.2-0.3-0.4v-7.5
		c0-0.1,0-0.2-0.1-0.3l-2.6-2.5C26,18.6,25.9,18.5,25.8,18.5L25.8,18.5z"/>
</g>
</svg>
