<?xml version="1.0" encoding="utf-8"?>
<!-- Generator: Adobe Illustrator 25.2.0, SVG Export Plug-In . SVG Version: 6.00 Build 0)  -->
<svg version="1.1" id="Layer_1" xmlns="http://www.w3.org/2000/svg" xmlns:xlink="http://www.w3.org/1999/xlink" x="0px" y="0px"
	 viewBox="0 0 32 32" style="enable-background:new 0 0 32 32;" xml:space="preserve">
<g>
	<path d="M25.8,25.8c-0.3,0-0.7-0.1-0.8-0.4L24.6,25v0.4c0,1-0.8,1.9-1.9,1.9s-1.9-0.8-1.9-1.9v-3.8H9.5v-17h15.1v7.2l0.4-0.4
		c0.3-0.3,0.6-0.4,0.9-0.4c0.3,0,0.7,0.1,0.9,0.4l0.7,0.7l0.9,0.9V0.9H5.7v2.6l0,0v18.2H0.1v5.6c0,2.1,1.7,3.8,3.8,3.8h19
		c3.1,0,5.6-2.5,5.6-5.6v-1.7l-1.6,1.6C26.5,25.7,26.2,25.8,25.8,25.8z"/>
	<polygon points="27.6,14.2 26.6,13.1 25.8,12.4 24.6,13.7 23.6,14.6 24.6,15.4 24.9,15.7 26.1,16.9 19.8,16.9 19.8,19.9 26.1,19.9 
		24.6,21.5 23.6,22.4 24.6,23.3 25.8,24.5 28.3,22 31.9,18.4 	"/>
</g>
</svg>
