<?xml version="1.0" encoding="utf-8"?>
<!-- Generator: Adobe Illustrator 25.2.0, SVG Export Plug-In . SVG Version: 6.00 Build 0)  -->
<svg version="1.1" id="Layer_1" xmlns="http://www.w3.org/2000/svg" xmlns:xlink="http://www.w3.org/1999/xlink" x="0px" y="0px"
	 viewBox="0 0 32 32" style="enable-background:new 0 0 32 32;" xml:space="preserve">
<g>
	<g id="Grupo_420_2_" transform="translate(-1820 -863.725)">
		<path id="Trazado_1760_2_" d="M1845.2,869.7h-10.4v-2.3l-1-1h-11.7l-1,1v4.5c0,0.1,0,0.2,0,0.3v7.3l0,0v12c0,1,0.8,1.6,1.6,1.6
			h26.7c1,0,1.6-0.8,1.6-1.6l0,0v-16.9L1845.2,869.7z M1847.4,889.8H1824v-15.9h20l3.4,2.9V889.8z"/>
	</g>
	<polygon points="10.7,21.4 13.4,24.2 15.6,22 13.2,19.7 19.3,19.7 19.3,16.6 13.2,16.6 15.6,14.3 13.4,12.2 7.4,18.1 8.1,18.7 	"/>
</g>
</svg>
