<?xml version="1.0" encoding="utf-8"?>
<!-- Generator: Adobe Illustrator 25.2.0, SVG Export Plug-In . SVG Version: 6.00 Build 0)  -->
<svg version="1.1" id="Layer_1" xmlns="http://www.w3.org/2000/svg" xmlns:xlink="http://www.w3.org/1999/xlink" x="0px" y="0px"
	 viewBox="0 0 32 32" style="enable-background:new 0 0 32 32;" xml:space="preserve">
<g>
	<g>
		<path d="M19.7,0C13.7,0,8.8,4.9,8.8,11c0,2.6,1,5.2,2.7,7.1L11,18.6H9.5L1.2,27l2.6,2.6l8.4-8.4v-1.4l0.6-0.6
			c1.2,1.1,2.8,2,4.5,2.3l3.1-3c-0.2,0-0.4,0-0.6,0c-4.2,0-7.6-3.4-7.6-7.6s3.4-7.7,7.6-7.7s7.6,3.4,7.6,7.7c0,2.2-0.9,4.2-2.5,5.6
			l2.2,2.2l0.3,0.3c2.2-2,3.5-4.9,3.5-8C30.7,4.8,25.7,0,19.7,0z"/>
	</g>
	<g>
		<polygon points="30.4,26.3 22.6,26.3 25.3,28.8 25.9,29.6 24.1,31.2 23.5,32 16.1,24.6 16.7,23.9 18.9,21.8 23.5,17.2 25.9,19.6 
			25.3,20.3 25.3,20.4 22.6,22.8 30.4,22.8 		"/>
	</g>
</g>
</svg>
