<?xml version="1.0" encoding="utf-8"?>
<!-- Generator: Adobe Illustrator 25.2.0, SVG Export Plug-In . SVG Version: 6.00 Build 0)  -->
<svg version="1.1" id="Layer_1" xmlns="http://www.w3.org/2000/svg" xmlns:xlink="http://www.w3.org/1999/xlink" x="0px" y="0px"
	 viewBox="0 0 32 32" style="enable-background:new 0 0 32 32;" xml:space="preserve">
<g>
	<g>
		<path d="M29.1,17.9l-2.9,2.9v3.6h-3.6l-3,3h6.6c1.6,0,3-1.3,3-3L29.1,17.9L29.1,17.9z M26.3,4H2.9c-1.6,0-3,1.3-3,3v17.5
			c0,1.6,1.3,3,3,3H11v-3H2.9V6.8h23.3v0.9C26.7,7.2,27.3,7,28,7c0.5,0,0.9,0.1,1.1,0.3V6.8C29.2,5.2,27.9,4,26.3,4z"/>
	</g>
	<g>
		<g>
			<path d="M26.3,15l-2.8-2.8L12.4,23.4V28H17l3.6-3.6l5.6-5.6l1.9-1.9L26.3,15z M17,24.3l-1,1h-1.1v-1.1l8.7-8.7l1,1L17,24.3z"/>
		</g>
		<g>
			<path d="M31.7,13.3l-2.1,2.3l-0.4-0.4l-3-3l-1.3-1.3l1.3-1.3l0.9-0.9c0.3-0.3,0.5-0.4,0.9-0.4s0.6,0.1,0.9,0.4l0.3,0.4l2.5,2.5
				C32.2,12.1,32.2,12.8,31.7,13.3z"/>
		</g>
	</g>
</g>
</svg>
