<?xml version="1.0" encoding="utf-8"?>
<!-- Generator: Adobe Illustrator 25.2.0, SVG Export Plug-In . SVG Version: 6.00 Build 0)  -->
<svg version="1.1" id="Layer_1" xmlns="http://www.w3.org/2000/svg" xmlns:xlink="http://www.w3.org/1999/xlink" x="0px" y="0px"
	 viewBox="0 0 32 32" style="enable-background:new 0 0 32 32;" xml:space="preserve">
<g>
	<g>
		<path d="M23.5,0.7H4.6L0.1,5.2v13.5l4.5,4.5h7.8v-2.6H5.7l-3-3V6.3l3-3h16.7l3,3v5.9l2.6,1.4V5.2L23.5,0.7z"/>
	</g>
	<rect x="5.8" y="5.7" width="16.5" height="2.7"/>
	<polygon points="22.5,10.8 21.5,11.4 19.4,12.5 17.6,13.5 5.8,13.5 5.8,10.8 	"/>
	<polygon points="5.8,15.7 13.5,15.7 12.4,16.2 12.4,18.3 5.8,18.3 	"/>
	<g>
		<g>
			<path d="M31.9,17.5L31.9,17.5c-0.1-0.1-0.1-0.1-0.1-0.2l-0.1-0.1l0,0c0,0,0,0-0.1,0L31.3,17L28,15.3l-2.6-1.4L23,12.6
				c0,0,0,0-0.1,0s-0.2-0.1-0.3-0.1s-0.2,0-0.3,0h-0.1l-1.4,0.8l-0.6,0.3l-3.5,1.9l-2.3,1.2l0,0c0,0,0,0.1-0.1,0.1l-0.1,0.1
				C14.1,17,14.1,17,14.1,17L14,17.1c0,0.1-0.1,0.1-0.1,0.1v8.6c0,0.3,0.2,0.6,0.4,0.8l5.8,3.2l2.5,1.4c0.1,0,0.1,0.1,0.1,0.1h0.4
				c0,0,0,0,0.1,0s0.1,0,0.1-0.1l2.3-1.3l5.9-3.2c0.3-0.2,0.4-0.4,0.4-0.8L31.9,17.5C32,17.7,31.9,17.6,31.9,17.5z M20.1,15.8
				l0.2-0.1l1.7-0.9v0.1v0.8l0.1,1.3v0.1H22h-1.9H18h-0.2L20.1,15.8z M21.4,27.8l-1.2-0.7L16.4,25v-4.6l0.7,0.3l3.2,1.6l1.2,0.6v4.9
				L21.4,27.8L21.4,27.8z M22.2,20.5L22.2,20.5l-2.1-1l-1.8-0.9L18,18.5h2.1H22h0.1v0.2L22.2,20.5L22.2,20.5z M23.5,17l-0.1-2.1
				l0.1,0.1l1.9,1l2.2,1.2l0.2,0.1h-2.5h-1.7h-0.1v-0.1L23.5,17z M23.6,19.5v-0.8v-0.1h0.1h0.8l3.4,0.1l-0.2,0.1l-4,1.9v-0.1
				L23.6,19.5z M23.9,22.9v-0.4l6.4-3.1v6.2l-6.4,3.5V22.9z"/>
		</g>
	</g>
</g>
</svg>
