<?xml version="1.0" encoding="utf-8"?>
<!-- Generator: Adobe Illustrator 25.2.0, SVG Export Plug-In . SVG Version: 6.00 Build 0)  -->
<svg version="1.1" id="Layer_1" xmlns="http://www.w3.org/2000/svg" xmlns:xlink="http://www.w3.org/1999/xlink" x="0px" y="0px"
	 viewBox="0 0 32 32" style="enable-background:new 0 0 32 32;" xml:space="preserve">
<g>
	<g>
		<path d="M31.8,16.2c-0.2-0.5-0.7-0.8-1.2-0.9V16c0,0.3-0.1,0.6-0.2,0.8c0.2,0.2,0.2,0.5,0.2,0.8v1.5l0.9-1.1
			C32,17.5,32,16.7,31.8,16.2z"/>
		<path d="M29.5,20.3l-4.5,5c-0.3,0.3-0.8,0.6-1.3,0.6h-0.5C22.9,26,22.7,26,22.5,26H2.6c-1.4,0-2.5-1.1-2.5-2.5v-15
			C0.1,7.2,1.1,6,2.6,6H10l2.5,2.5h5.4c0,0.2,0.2,0.5,0.3,0.7l0.3,0.3c-0.1,0.1-0.2,0.2-0.2,0.3h-1.6c-0.7,0-1.2,0.5-1.2,1.1h-13
			v10.2l5-5.6c0.3-0.3,0.7-0.6,1.2-0.6h6.8v0.8c0,0.3,0.1,0.6,0.2,0.8c-0.2,0.2-0.2,0.5-0.2,0.8v0.1H9.1l-5.2,5.8h19.4l0.7-0.8
			c0.3-0.1,0.7-0.1,0.9-0.2c1.2-0.4,2.2-1.1,2.9-2.1L29.5,20.3C29.4,20.3,29.5,20.3,29.5,20.3z"/>
	</g>
	<g>
		<g>
			<path d="M21.5,12.8v1.6h3.2v-1.6H21.5z M21.5,15.9v1.6h3.2v-1.6H21.5z M21.5,15.9v1.6h3.2v-1.6H21.5z M21.5,12.8v1.6h3.2v-1.6
				H21.5z M21.5,12.8v1.6h3.2v-1.6H21.5z M21.5,15.9v1.6h3.2v-1.6H21.5z M21.5,15.9v1.6h3.2v-1.6H21.5z M21.5,12.8v1.6h3.2v-1.6
				H21.5z M21.5,12.8v1.6h3.2v-1.6H21.5z M21.5,15.9v1.6h3.2v-1.6H21.5z M21.5,12.8v1.6h3.2v-1.6H21.5z M21.5,15.9v1.6h3.2v-1.6
				H21.5z M21.5,12.8v1.6h3.2v-1.6H21.5z M21.5,15.9v1.6h3.2v-1.6H21.5z M21.5,12.8v1.6h3.2v-1.6H21.5z M21.5,15.9v1.6h3.2v-1.6
				H21.5z M21.5,12.8v1.6h3.2v-1.6H21.5z M21.5,15.9v1.6h3.2v-1.6H21.5z M21.5,17.5h3.2v-1.6h-3.2V17.5z M21.5,12.8v1.6h3.2v-1.6
				H21.5z M21.5,17.5h3.2v-1.6h-3.2V17.5z M21.5,12.8v1.6h3.2v-1.6H21.5z M21.5,12.8v1.6h3.2v-1.6H21.5z M21.5,15.9v1.6h3.2v-1.6
				H21.5z M21.5,15.9v1.6h3.2v-1.6H21.5z M21.5,12.8v1.6h3.2v-1.6H21.5z M21.5,15.9v1.6h3.2v-1.6H21.5z M21.5,12.8v1.6h3.2v-1.6
				H21.5z M21.5,15.9v1.6h3.2v-1.6H21.5z M21.5,12.8v1.6h3.2v-1.6H21.5z M21.5,12.8v1.6h3.2v-1.6H21.5z M21.5,15.9v1.6h3.2v-1.6
				H21.5z M21.5,15.9v1.6h3.2v-1.6H21.5z M21.5,12.8v1.6h3.2v-1.6H21.5z M21.5,12.8v1.6h3.2v-1.6H21.5z M21.5,15.9v1.6h3.2v-1.6
				H21.5z M21.5,15.9v1.6h3.2v-1.6H21.5z M21.5,12.8v1.6h3.2v-1.6H21.5z"/>
			<path d="M29.4,11.2h-2.2c-0.3-0.7-0.8-1.2-1.4-1.5L27,8.4l-1.1-1.1l-1.7,1.7C24,9.1,23.8,9,23.7,9c-0.2,0-0.4-0.1-0.7-0.1
				c-0.3,0-0.7,0.1-1.1,0.2l-1.7-1.7l-1.1,1.1l1.2,1.2c-0.6,0.4-1,0.8-1.3,1.4c0,0-0.1,0.1-0.1,0.2h-2.2v1.6h1.7
				c-0.1,0.2-0.1,0.5-0.1,0.8v0.8h-1.6v1.6h1.6v0.8c0,0.2,0.1,0.5,0.1,0.8h-1.7v1.6H19c0.7,1.2,2,2.2,3.5,2.3c0.2,0,0.4,0,0.7,0
				c0.7,0,1.2-0.2,1.8-0.4c0.3-0.2,0.7-0.3,0.9-0.6c0.5-0.4,1-0.9,1.3-1.5h2.2v-1.6h-1.7c0.1-0.2,0.1-0.5,0.1-0.8v-0.8h1.6v-1.6
				h-1.6v-0.8c0-0.2-0.1-0.5-0.1-0.8h1.7L29.4,11.2L29.4,11.2L29.4,11.2z M26.2,14.3v2.3c0,0.2,0,0.3-0.1,0.5v0.4v0.2l-0.3,0.5
				c-0.2,0.4-0.5,0.7-0.9,1c-0.5,0.4-1.2,0.6-1.8,0.6c-0.2,0-0.4,0-0.7-0.1c-0.8-0.2-1.7-0.7-2.1-1.5L20,17.7v-0.2v-0.4
				c-0.1-0.2-0.1-0.3-0.1-0.6v-3.2c0-0.2,0-0.3,0.1-0.5l0.1-0.5l0.3-0.5c0.2-0.3,0.4-0.7,0.7-0.8c0.1-0.1,0.2-0.2,0.2-0.2l0.5-0.3
				l0.6-0.2c0.2-0.1,0.5-0.1,0.7-0.1c0.2,0,0.5,0.1,0.7,0.1l0.5,0.1l0.5,0.3c0,0,0.1,0,0.1,0.1c0.4,0.2,0.7,0.6,0.8,1l0.3,0.5
				l0.1,0.5c0.1,0.2,0.1,0.3,0.1,0.5C26.2,13.6,26.2,14.3,26.2,14.3z"/>
		</g>
	</g>
</g>
</svg>
