<?xml version="1.0" encoding="utf-8"?>
<!-- Generator: Adobe Illustrator 25.2.0, SVG Export Plug-In . SVG Version: 6.00 Build 0)  -->
<svg version="1.1" id="Layer_1" xmlns="http://www.w3.org/2000/svg" xmlns:xlink="http://www.w3.org/1999/xlink" x="0px" y="0px"
	 viewBox="0 0 32 32" style="enable-background:new 0 0 32 32;" xml:space="preserve">
<g>
	<path d="M-0.1,29.3l2.8,2.8l9.2-9.2v-1.5l0.6-0.6c2,1.8,4.8,2.9,7.7,2.9c6.6,0,11.9-5.3,11.9-11.9s-5.4-11.9-12-11.9
		S8.2,5.2,8.2,11.8c0,2.9,1.1,5.7,2.9,7.7l-0.6,0.6H9L-0.1,29.3z M11.8,11.8c0-4.6,3.7-8.3,8.3-8.3c4.6,0,8.3,3.7,8.3,8.3
		s-3.7,8.3-8.3,8.3C15.5,20.1,11.8,16.4,11.8,11.8z"/>
</g>
</svg>
