<?xml version="1.0" encoding="utf-8"?>
<!-- Generator: Adobe Illustrator 25.2.0, SVG Export Plug-In . SVG Version: 6.00 Build 0)  -->
<svg version="1.1" id="Layer_1" xmlns="http://www.w3.org/2000/svg" xmlns:xlink="http://www.w3.org/1999/xlink" x="0px" y="0px"
	 viewBox="0 0 32 32" style="enable-background:new 0 0 32 32;" xml:space="preserve">
<path d="M26.3,12.4h-2.6v-4l-4.3-3.6h-7.7V3.1l-0.8-0.8H2.2L1.4,3.1V21c0,0.7,0.6,1.2,1.2,1.2h5.7v6.3c0,0.7,0.6,1.2,1.2,1.2h19.8
	c0.7,0,1.2-0.6,1.2-1.2V15.9L26.3,12.4z M3.8,19.8V8h14.8l2.5,2.1v2.3h-2.6v-1.7l-0.8-0.8H9l-0.8,0.8v9.1H3.8z M28,27.4H10.6v-5.1
	v-2.4v-4.4h10.5h2.6h1.8l2.5,2.1V27.4z"/>
</svg>
