<?xml version="1.0" encoding="utf-8"?>
<!-- Generator: Adobe Illustrator 25.2.0, SVG Export Plug-In . SVG Version: 6.00 Build 0)  -->
<svg version="1.1" id="Layer_1" xmlns="http://www.w3.org/2000/svg" xmlns:xlink="http://www.w3.org/1999/xlink" x="0px" y="0px"
	 viewBox="0 0 32 32" style="enable-background:new 0 0 32 32;" xml:space="preserve">
<g>
	<g>
		<g>
			<path d="M28.4,4.6c-1.5-0.6-3.3-0.8-5-0.8c-2.8,0-5.8,0.6-7.8,2.2C13.6,4.5,10.6,4,8,4C5.2,4,2.2,4.5,0.2,6.1v20.6
				c0,0.4,0.5,0.8,0.8,0.8c0.1,0,0.3,0,0.5,0c1.9-1,4.7-1.6,6.8-1.6c2.7,0,5.7,0.6,7.8,2.2c1.9-1.2,5.4-2.2,7.8-2.2
				c2.3,0,4.7,0.4,6.8,1.4c0.1,0,0.1,0,0.5,0c0.5,0,0.8-0.4,0.8-0.8V6C30.4,5.5,29.5,5.1,28.4,4.6z M28.4,23.8
				c-1.5-0.6-3.3-0.8-5-0.8c-2.4,0-5.9,0.8-7.8,2.2V8.9c1.9-1.2,5.4-2.2,7.8-2.2c1.7,0,3.4,0.2,5,0.8V23.8z"/>
			<g>
				<path d="M23.5,12.5c1.3,0,2.4,0.2,3.6,0.4v-2.2c-1.1-0.2-2.3-0.3-3.6-0.3c-2.4,0-4.5,0.4-6.4,1.1V14C18.7,13,21,12.5,23.5,12.5z
					"/>
				<path d="M17.1,15.3v2.5c1.5-0.8,3.8-1.4,6.4-1.4c1.3,0,2.4,0.2,3.6,0.4v-2.2c-1.1-0.2-2.3-0.3-3.6-0.3
					C21.1,14.2,19,14.5,17.1,15.3z"/>
				<path d="M23.5,17.9c-2.4,0-4.5,0.4-6.4,1.1v2.5c1.5-0.8,3.8-1.4,6.4-1.4c1.3,0,2.4,0.2,3.6,0.4v-2.2
					C25.9,18.1,24.8,17.9,23.5,17.9z"/>
			</g>
		</g>
	</g>
</g>
</svg>
