<?xml version="1.0" encoding="utf-8"?>
<!-- Generator: Adobe Illustrator 25.2.0, SVG Export Plug-In . SVG Version: 6.00 Build 0)  -->
<svg version="1.1" id="Layer_1" xmlns="http://www.w3.org/2000/svg" xmlns:xlink="http://www.w3.org/1999/xlink" x="0px" y="0px"
	 viewBox="0 0 32 32" style="enable-background:new 0 0 32 32;" xml:space="preserve">
<g id="Grupo_424" transform="translate(-538.724 -764.86)">
	<g id="Grupo_394" transform="translate(539.69 764.86)">
		<g id="Grupo_393">
			<path d="M30.6,5.2v18.7c0,1.7-1.4,3.1-3.1,3.1H15.9c0.5-0.8,0.8-1.7,1-2.7c0-0.1,0.1-0.3,0.1-0.4h10.5V5.2H2.6v8.4
				c-0.4,0.3-0.9,0.5-1.3,0.8c-0.7,0.5-1.3,1.1-1.8,1.8v-11c0-1.7,1.4-3.1,3.1-3.1h24.9C29.2,2.1,30.6,3.5,30.6,5.2z"/>
			<path d="M30.6,5.2v18.7c0,1.7-1.4,3.1-3.1,3.1H15.9c0.5-0.8,0.8-1.7,1-2.7c0-0.1,0.1-0.3,0.1-0.4h10.5V5.3H2.6v8.4
				c-0.4,0.3-0.9,0.5-1.3,0.8C0.6,15,0,15.6-0.5,16.3v-11c0-1.7,1.4-3.1,3.1-3.1h24.9C29.2,2.1,30.6,3.5,30.6,5.2z"/>
		</g>
	</g>
	<g id="Grupo_395" transform="translate(539.724 770.746)">
		<g id="Trazado_1805" transform="translate(-539.75 -775.23)">
			<path d="M547,783.8c-1.8,0-3.4,0.6-4.7,1.6c-1.9,1.4-3,3.6-3,6.1c0,1.5,0.5,3,1.2,4.2c1.4,2.1,3.8,3.6,6.5,3.6
				c2.5,0,4.7-1.2,6.1-3c0.7-0.9,1.2-2,1.5-3.1c0.1-0.5,0.2-1.1,0.2-1.6C554.7,787.3,551.3,783.8,547,783.8z M552.2,792.7
				c-0.1,0.8-0.5,1.5-1,2.1c-1,1.3-2.5,2-4.2,2c-1.8,0-3.5-0.9-4.5-2.5c-0.6-0.8-0.9-1.8-0.9-2.9c0-1.7,0.8-3.2,2.1-4.2
				c0.9-0.7,2-1.1,3.2-1.1c2.9,0,5.3,2.4,5.3,5.3C552.3,791.9,552.3,792.3,552.2,792.7z"/>
		</g>
	</g>
</g>
</svg>
