<?xml version="1.0" encoding="utf-8"?>
<!-- Generator: Adobe Illustrator 25.2.0, SVG Export Plug-In . SVG Version: 6.00 Build 0)  -->
<svg version="1.1" id="Layer_1" xmlns="http://www.w3.org/2000/svg" xmlns:xlink="http://www.w3.org/1999/xlink" x="0px" y="0px"
	 viewBox="0 0 32 32" style="enable-background:new 0 0 32 32;" xml:space="preserve">
<g id="g7183_1_" transform="matrix(0.20329022,0,0,0.20329022,293.67856,-35.35736)">
	<path id="path7177_1_" d="M364.3,1607.1c-5,0-9.7,0.5-13.9,1.2c-12.2,2.2-14.5,6.8-14.5,15.1v11.1h29v3.7h-29H325
		c-8.4,0-15.9,5.1-18.1,14.7c-2.6,11.1-2.7,17.9,0,29.5c2.1,8.6,7,14.7,15.5,14.7h10v-13.2c0-9.6,8.3-18,18.1-18h29
		c8,0,14.5-6.7,14.5-14.8v-27.6c0-7.8-6.7-13.8-14.5-15.1C374.5,1607.4,369.3,1607.1,364.3,1607.1z M348.6,1616c3,0,5.5,2.4,5.5,5.6
		c0,3-2.4,5.5-5.5,5.5c-3,0-5.5-2.4-5.5-5.5C343.1,1618.4,345.6,1616,348.6,1616z"/>
	<g id="path7179_1_">
		<path d="M408.4,1644.2c2.2,0,6.2,0,8.7,10.1c2.7,10.7,2.7,18.3,0.1,26.1c-3.2,9.5-5.2,10.6-8.8,10.6H394h-29c-3.3,0-6,2.7-6,6v3.7
			c0,3.3,2.7,6,6,6h7.9c-1.5,1.9-2.4,4.2-2.5,6.8c0,3.3,1.4,6.2,3.7,8.2c-3.2,0.7-6.2,1-9.1,1c-4.1,0-8.1-0.6-12.7-2
			c-3.8-1.1-10.2-3.8-10.2-9v-27.6c0-4.8,3.9-8.8,8.5-8.8h29c13.1,0,24.1-11.2,24.1-24.4v-6.8h4.7 M397.6,1638.1v12.9
			c0,10-8.5,18.4-18.1,18.4h-29c-7.9,0-14.5,6.8-14.5,14.8v27.6c0,7.8,6.9,12.5,14.5,14.8c4.8,1.4,9.5,2.2,14.4,2.2
			c4.6,0,9.3-0.7,14.6-2.2c7.3-2.2,14.5-6.4,14.5-14.8v-11.1h-29v-3.7h29h14.5c8.4,0,11.6-5.9,14.5-14.7c3-9.1,2.9-17.8,0-29.5
			c-2.1-8.4-6.1-14.7-14.5-14.7L397.6,1638.1L397.6,1638.1L397.6,1638.1z M381.2,1718.6c-2.7,0-4.9-2.2-4.9-5
			c0.1-2.7,2.3-4.9,4.9-4.9c2.7,0,4.9,2.2,4.9,4.9C386.1,1716.3,383.9,1718.6,381.2,1718.6L381.2,1718.6z"/>
	</g>
</g>
<g id="g7183_2_" transform="matrix(0.20329022,0,0,0.20329022,293.67856,-35.35736)">
	<path id="path7177_2_" d="M-1366.7,191.8c-5,0-9.7,0.5-13.9,1.2c-12.2,2.2-14.5,6.8-14.5,15.1v11.1h29v3.7h-29h-10.9
		c-8.4,0-15.9,5.1-18.1,14.7c-2.6,11.1-2.7,17.9,0,29.5c2.1,8.6,7,14.7,15.5,14.7h10v-13.2c0-9.6,8.3-18,18.1-18h29
		c8,0,14.5-6.7,14.5-14.8v-27.6c0-7.8-6.7-13.8-14.5-15.1C-1356.5,192.1-1361.7,191.8-1366.7,191.8z M-1382.4,200.7
		c3,0,5.5,2.4,5.5,5.6c0,3-2.4,5.5-5.5,5.5c-3,0-5.5-2.4-5.5-5.5C-1387.9,203.1-1385.4,200.7-1382.4,200.7z"/>
	<g id="path7179_2_">
		<path d="M-1322.6,228.9c2.2,0,6.2,0,8.7,10.1c2.7,10.7,2.7,18.3,0.1,26.1c-3.2,9.5-5.2,10.6-8.8,10.6h-14.4h-29c-3.3,0-6,2.7-6,6
			v3.7c0,3.3,2.7,6,6,6h7.9c-1.5,1.9-2.4,4.2-2.5,6.8c0,3.3,1.4,6.2,3.7,8.2c-3.2,0.7-6.2,1-9.1,1c-4.1,0-8.1-0.6-12.7-2
			c-3.8-1.1-10.2-3.8-10.2-9v-27.6c0-4.8,3.9-8.8,8.5-8.8h29c13.1,0,24.1-11.2,24.1-24.4v-6.8h4.7 M-1333.4,222.8v12.9
			c0,10-8.5,18.4-18.1,18.4h-29c-7.9,0-14.5,6.8-14.5,14.8v27.6c0,7.8,6.9,12.5,14.5,14.8c4.8,1.4,9.5,2.2,14.4,2.2
			c4.6,0,9.3-0.7,14.6-2.2c7.3-2.2,14.5-6.4,14.5-14.8v-11.1h-29v-3.7h29h14.5c8.4,0,11.6-5.9,14.5-14.7c3-9.1,2.9-17.8,0-29.5
			c-2.1-8.4-6.1-14.7-14.5-14.7L-1333.4,222.8L-1333.4,222.8L-1333.4,222.8z M-1349.8,303.3c-2.7,0-4.9-2.2-4.9-5
			c0.1-2.7,2.3-4.9,4.9-4.9c2.7,0,4.9,2.2,4.9,4.9S-1347.1,303.3-1349.8,303.3L-1349.8,303.3z"/>
	</g>
</g>
</svg>
