<?xml version="1.0" encoding="utf-8"?>
<!-- Generator: Adobe Illustrator 25.2.0, SVG Export Plug-In . SVG Version: 6.00 Build 0)  -->
<svg version="1.1" id="Layer_1" xmlns="http://www.w3.org/2000/svg" xmlns:xlink="http://www.w3.org/1999/xlink" x="0px" y="0px"
	 viewBox="0 0 32 32" style="enable-background:new 0 0 32 32;" xml:space="preserve">
<g id="Grupo_341_1_" transform="translate(138.54 -420.324)">
	<g id="g6336_2_" transform="translate(-132.813 431.607)">
		<g id="circle6208_2_">
			<ellipse cx="11.9" cy="9" rx="1.5" ry="1.5"/>
		</g>
		<g id="circle6325_2_">
			<ellipse cx="11.9" cy="17.4" rx="1.5" ry="1.5"/>
		</g>
		<g id="Rectángulo_87_1_">
			<path d="M23.2,12.3h-7.5c-0.5,0-1-0.4-1-1V6.7c0-0.5,0.4-1,1-1h7.5c0.5,0,1,0.4,1,1v4.6C24.2,11.9,23.8,12.3,23.2,12.3z
				 M16.6,10.4h5.6V7.7h-5.6V10.4z"/>
		</g>
		<g id="Grupo_337_1_" transform="translate(0)">
			<g id="Trazado_1754_1_">
				<path d="M4.9,11.9l0.7,0.7L9,9.1L5.6,5.7L4.9,6.3l2.9,2.9L4.9,11.9z"/>
			</g>
		</g>
		<g id="Grupo_338_1_" transform="translate(0 4.415)">
			<g id="Trazado_1755_1_">
				<path d="M4.9,15.6l0.7,0.7L9,12.8L5.6,9.4l-0.7,0.7l2.9,2.9L4.9,15.6z"/>
			</g>
		</g>
		<g id="Rectángulo_88_1_">
			<path d="M23.2,20.4h-7.5c-0.5,0-1-0.4-1-1v-4.5c0-0.5,0.4-1,1-1h7.5c0.5,0,1,0.4,1,1v4.6C24.2,20,23.8,20.4,23.2,20.4z
				 M16.6,18.6h5.6v-2.8h-5.6V18.6z"/>
		</g>
	</g>
	<g id="Grupo_340_1_" transform="translate(-138.54 420.324)">
		<g id="Grupo_339_1_">
			<g id="Trazado_1756_1_">
				<path d="M20.2,2h-8l-2-2h-6c-1.1,0-2,0.9-2,2v12.2c0,1.1,0.9,2,2,2h16.2c1.1,0,2-0.9,2-2V4C22.2,3,21.3,2,20.2,2z M20.2,14.2H4
					V2h5.3l2,2h8.9L20.2,14.2z"/>
			</g>
		</g>
	</g>
</g>
</svg>
