<?xml version="1.0" encoding="utf-8"?>
<!-- Generator: Adobe Illustrator 25.2.0, SVG Export Plug-In . SVG Version: 6.00 Build 0)  -->
<svg version="1.1" id="Layer_1" xmlns="http://www.w3.org/2000/svg" xmlns:xlink="http://www.w3.org/1999/xlink" x="0px" y="0px"
	 viewBox="0 0 32 32" style="enable-background:new 0 0 32 32;" xml:space="preserve">
<g>
	<g>
		<path d="M19,1H7C5.3,1,4,2.4,4,4v24c0,1.6,1.3,3,3,3h18c1.6,0,3-1.4,3-3V10L19,1z M25,28H7V4h10.5v7.5H25V28z"/>
		<path d="M11.6,14.6c-2.1,2.1-2.1,5.4,0,7.4c1.7,1.7,4.2,2,6.2,0.9l2.8,2.8l2.1-2.1l-2.8-2.8c1.1-2,0.8-4.5-0.9-6.2
			C16.9,12.5,13.6,12.5,11.6,14.6z M16.9,19.9c-0.9,0.9-2.3,0.9-3.2,0s-0.9-2.3,0-3.2c0.9-0.9,2.3-0.9,3.2,0
			C17.8,17.6,17.8,19,16.9,19.9z"/>
	</g>
</g>
</svg>
