<?xml version="1.0" encoding="utf-8"?>
<!-- Generator: Adobe Illustrator 25.2.0, SVG Export Plug-In . SVG Version: 6.00 Build 0)  -->
<svg version="1.1" id="Layer_1" xmlns="http://www.w3.org/2000/svg" xmlns:xlink="http://www.w3.org/1999/xlink" x="0px" y="0px"
	 viewBox="0 0 32 32" style="enable-background:new 0 0 32 32;" xml:space="preserve">
<g>
	<g>
		<g id="Grupo_423_6_" transform="translate(-284.852 -813.673)">
			<g id="Grupo_363_6_" transform="translate(284.852 813.673)">
				<g id="Grupo_362_6_">
					<path id="Trazado_1777_6_" d="M27.3,28.5h1.3c1.7,0,3.1-1.4,3.1-3.1v-1.2L27.3,28.5z M28.6,3.4H3.3c-1.7,0-3.1,1.4-3.1,3.1
						v18.9c0,1.7,1.4,3.1,3.1,3.1h20.8l-1.6-1.6l1.5-1.5H3.3V6.6h25.2v12.3l1,1l2.1,2.2V6.6C31.7,4.8,30.3,3.4,28.6,3.4z"/>
				</g>
			</g>
		</g>
		<g>
			<path d="M14.5,22.3c0.1,0.1,0.1,1.5,0.1,1.5H8.2c-1.6,0-3-1.3-3-3c0-0.3,0.1-0.6,0.1-0.8c0.4-1.3,1.5-2.2,2.9-2.2h5.3v-2.3l3,3
				l-3,3v-2.3H8.2c-0.8,0-1.5,0.7-1.5,1.5s0.7,1.5,1.5,1.5L14.5,22.3L14.5,22.3z"/>
		</g>
	</g>
	<g>
		<g>
			<polygon points="30.6,23 30.7,23.1 25.8,28 24.7,26.9 26.1,25.4 27.7,23.8 20.6,23.8 20.6,22.3 27.7,22.3 24.7,19.1 25.8,18.1 
				28,20.3 28.6,20.9 			"/>
		</g>
	</g>
</g>
</svg>
