<?xml version="1.0" encoding="utf-8"?>
<!-- Generator: Adobe Illustrator 25.2.0, SVG Export Plug-In . SVG Version: 6.00 Build 0)  -->
<svg version="1.1" id="Layer_1" xmlns="http://www.w3.org/2000/svg" xmlns:xlink="http://www.w3.org/1999/xlink" x="0px" y="0px"
	 viewBox="0 0 32 32" style="enable-background:new 0 0 32 32;" xml:space="preserve">
<style type="text/css">
	.st0{fill:#FFFFFF;}
</style>
<g>
	<g>
		<g>
			<path d="M9.1,20.5c0,1.1,0.3,2,0.9,2.8v-5.5C9.5,18.5,9.1,19.4,9.1,20.5z M4.6,7v6h6.2c0.7-0.8,1.6-1.3,2.7-1.3h4.6V7H4.6z
				 M21.1,2.5h-18c-1.7,0-3,1.4-3,3v21c0,1.6,1.3,3,3,3h7.5c-0.4-0.6-0.6-1.3-0.6-2v-1H3.1v-21h16.8l4.2,4.2v4.1h3V8.5L21.1,2.5z
				 M9.1,20.5c0,1.1,0.3,2,0.9,2.8v-5.5C9.5,18.5,9.1,19.4,9.1,20.5z M4.6,7v6h6.2c0.7-0.8,1.6-1.3,2.7-1.3h4.6V7H4.6z M9.1,20.5
				c0,1.1,0.3,2,0.9,2.8v-5.5C9.5,18.5,9.1,19.4,9.1,20.5z M4.6,7v6h6.2c0.7-0.8,1.6-1.3,2.7-1.3h4.6V7H4.6z"/>
		</g>
	</g>
	<g>
		<g>
			<g>
				<g>
					<path d="M29.8,15.3h-8.1l-2-2h-6.1c-1.1,0-2,1-2,2v12.2c0,1.2,0.9,2,2,2h16.3c1.2,0,2-0.9,2-2V17.3
						C31.9,16.1,30.9,15.3,29.8,15.3z M29.8,27.5H13.5V17.3h16.3V27.5z"/>
				</g>
			</g>
		</g>
		<g>
			<g>
				<path d="M28.1,19.1v2h-6.4l-1.5,1.5c-0.2,0.2-0.5,0.3-0.7,0.3h-1.9L17.5,23v2.6h-2v-3.8c0-0.6,0.5-1,1-1h2.6l1.5-1.5
					c0.2-0.2,0.5-0.3,0.7-0.3L28.1,19.1L28.1,19.1z"/>
				<path class="st0" d="M17.4,22.9V23C17.4,23,17.4,23,17.4,22.9L17.4,22.9z"/>
			</g>
		</g>
	</g>
</g>
</svg>
