<?xml version="1.0" encoding="utf-8"?>
<!-- Generator: Adobe Illustrator 25.2.0, SVG Export Plug-In . SVG Version: 6.00 Build 0)  -->
<svg version="1.1" id="Layer_1" xmlns="http://www.w3.org/2000/svg" xmlns:xlink="http://www.w3.org/1999/xlink" x="0px" y="0px"
	 viewBox="0 0 32 32" style="enable-background:new 0 0 32 32;" xml:space="preserve">
<g>
	<path d="M22.6,9.7h-0.2c-0.1-4.8-4-8.6-8.8-8.6c-4.9,0-8.8,4-8.8,8.8c0,1.5,0.4,3,1.1,4.2l0,0c0.8,1.5,2,2.7,3.5,3.5
		c0.3,0.2,0.6,0.3,0.9,0.4l2.4-2.4c-2.8-0.4-4.9-2.8-4.9-5.8c0-3.2,2.6-5.8,5.8-5.8c3.2,0,5.8,2.6,5.8,5.8c0,0.1,0,0.2,0,0.4
		c-1.8,0.7-3.4,2-4.4,3.7l2.2-1c0.2-0.1,0.4-0.1,0.6-0.2h0.1l0,0c0.2,0,0.5,0.1,0.7,0.2c0.3,0.2,0.6,0.4,0.7,0.8
		c0.1,0.2,0.1,0.4,0.1,0.6c0,0.3-0.1,0.5-0.2,0.7L18,17.6c1.9-1.1,3.4-2.8,4.1-4.9c0.2,0,0.4,0,0.7,0c3.2,0,5.8,2.6,5.8,5.8
		s-2.6,5.8-5.8,5.8c-3,0-5.5-2.3-5.8-5.3l-2.5,2.5c1.2,3.4,4.5,5.8,8.3,5.8c4.9,0,8.8-4,8.8-8.8C31.4,13.6,27.4,9.7,22.6,9.7z"/>
	<polygon points="18.2,28.7 11.6,22.2 13.9,19.9 15.1,18.6 15.7,18 16.3,17.5 16.8,16.4 17.9,14.3 17.8,14.3 17.8,14.3 16.6,14.9 
		15.5,15.4 14.5,15.9 11.8,18.6 10,20.5 2.1,12.6 0.4,14.2 0.4,14.2 0.4,14.2 4.4,18.2 8.3,22.1 5,25.4 1.7,28.7 1.7,28.7 1.7,28.7 
		3.3,30.4 3.4,30.4 7.8,26 10,23.8 13.3,27.1 16.6,30.4 18.6,30.8 19,30.9 19,30.9 19,30.9 	"/>
</g>
</svg>
