<?xml version="1.0" encoding="utf-8"?>
<!-- Generator: Adobe Illustrator 25.2.0, SVG Export Plug-In . SVG Version: 6.00 Build 0)  -->
<svg version="1.1" id="Layer_1" xmlns="http://www.w3.org/2000/svg" xmlns:xlink="http://www.w3.org/1999/xlink" x="0px" y="0px"
	 viewBox="0 0 32 32" style="enable-background:new 0 0 32 32;" xml:space="preserve">
<g>
	<path d="M9.1,12h1.7c0.1,0,0.1,0,0.2,0h0.3v1.8h2.6V12h0.2c0.1,0,0.1,0,0.2,0h2.3c1,0,1.8-0.8,1.8-1.8V2.7c0-1-0.8-1.8-1.8-1.8H9.1
		c-1,0-1.8,0.8-1.8,1.8v2.5v4.6v0.5C7.3,11.2,8.1,12,9.1,12z M10,3.7h5.6v5.6H10V3.7z"/>
	<path d="M16.9,20H9.4c-1,0-1.8,0.8-1.8,1.8v2.3c0,0,0,3.4,0,3.5v1.7c0,1,0.8,1.8,1.8,1.8h7.5c1,0,1.8-0.8,1.8-1.8v-7.5
		C18.7,20.8,17.9,20,16.9,20z M15.9,28.3h-5.6v-5.6h5.6V28.3z"/>
	<path d="M30,10.5h-7.5c-1,0-1.8,0.8-1.8,1.8v2.6l0,0.7H20v2.6h0.8l0,1.3v0.3c0,1,0.8,1.8,1.8,1.8h7.5c1,0,1.8-0.8,1.8-1.8v-7.5
		C31.7,11.3,30.9,10.5,30,10.5z M29,18.8h-5.6v-5.6H29V18.8z"/>
	<rect x="0.1" y="11" width="2.6" height="2.6"/>
	<rect x="0.1" y="15.4" width="2.6" height="2.6"/>
	<rect x="0.1" y="6.6" width="2.6" height="2.6"/>
	<rect x="0.1" y="24.2" width="2.6" height="2.6"/>
	<rect x="0.1" y="19.8" width="2.6" height="2.6"/>
	<rect x="0.1" y="2.2" width="2.6" height="2.6"/>
	<rect x="4.5" y="6.6" width="2.6" height="2.6"/>
	<rect x="4.5" y="24.2" width="2.6" height="2.6"/>
	<rect x="11.2" y="15.5" width="2.6" height="2.6"/>
	<rect x="15.6" y="15.5" width="2.6" height="2.6"/>
</g>
</svg>
