<?xml version="1.0" encoding="utf-8"?>
<!-- Generator: Adobe Illustrator 25.2.0, SVG Export Plug-In . SVG Version: 6.00 Build 0)  -->
<svg version="1.1" id="Layer_1" xmlns="http://www.w3.org/2000/svg" xmlns:xlink="http://www.w3.org/1999/xlink" x="0px" y="0px"
	 viewBox="0 0 32 32" style="enable-background:new 0 0 32 32;" xml:space="preserve">
<g id="Grupo_295_3_" transform="translate(-147.148 -444.666)">
	<g id="Grupo_294_3_" transform="translate(147.148 444.666)">
		<path id="Trazado_1710_3_" d="M19.8,0C13.6,0,8.6,4.9,8.6,11.1c0,2.7,1,5.2,2.8,7.2l-0.5,0.5H9.6L1,27.4l2.6,2.6l8.6-8.6V20
			l0.5-0.5c0.7,0.7,1.5,1.1,2.4,1.6h4.8l-0.4-0.4l-1.2-1.2l-1.3-1.2c-0.2-0.1,0,0-0.2-0.1c-2.7-1.1-4.6-3.9-4.6-6.9v-0.1
			c0-4.3,3.4-7.7,7.7-7.7s7.7,3.4,7.7,7.7c0,2.2-1,4.2-2.4,5.6l2.5,2.5c2.1-2,3.4-4.8,3.4-8C30.9,4.9,25.9,0,19.8,0z"/>
	</g>
	<g id="Grupo_293_3_" transform="translate(156.812 455.173)">
		<g id="Trazado_1708_3_" transform="translate(-159.408 -459.485)">
			<g>
				<polygon points="180.2,473.5 179.5,474.2 173.4,480.4 172.7,481 170.3,478.5 171,477.9 173.5,475.2 165.7,475.2 165.7,471.8 
					173.5,471.8 171,469.1 170.3,468.5 172,466.8 172.7,466 				"/>
			</g>
		</g>
	</g>
</g>
</svg>
