<?xml version="1.0" encoding="utf-8"?>
<!-- Generator: Adobe Illustrator 25.2.0, SVG Export Plug-In . SVG Version: 6.00 Build 0)  -->
<svg version="1.1" id="Layer_1" xmlns="http://www.w3.org/2000/svg" xmlns:xlink="http://www.w3.org/1999/xlink" x="0px" y="0px"
	 viewBox="0 0 32 32" style="enable-background:new 0 0 32 32;" xml:space="preserve">
<g>
	<path d="M9.1,15.7H4.4v8.6H0v-21h10.1v3.5H4.4v5.5h4.7V15.7z"/>
	<path d="M9.9,18.8c0-1.4,0.2-2.8,0.6-4.1c0.4-1.3,0.9-2.5,1.7-3.4c0.8-1,1.5-1.7,2.5-2.1l0.6,1.4c-0.9,0.7-1.6,1.7-2.2,3.1
		c-0.5,1.4-0.8,3-0.8,4.9V19c0,1.9,0.3,3.6,0.8,5c0.5,1.4,1.2,2.5,2.2,3.2l-0.6,1.4c-0.9-0.4-1.6-1-2.4-2s-1.3-2.1-1.7-3.3
		c-0.4-1.2-0.6-2.6-0.7-4C9.9,19.4,9.9,18.8,9.9,18.8z"/>
	<path d="M19.1,14.2l0.1,1.1c0.8-0.9,1.7-1.3,2.9-1.3c1,0,1.9,0.3,2.4,0.9c0.6,0.7,0.8,1.6,0.9,2.8v6.5h-2.7v-6.5
		c0-0.6-0.1-0.9-0.4-1.2c-0.3-0.3-0.7-0.4-1.2-0.4c-0.8,0-1.3,0.3-1.7,0.9v7.2h-2.7V14.2H19.1z"/>
	<path d="M32,19c0,1.4-0.2,2.7-0.6,4.1c-0.4,1.3-0.9,2.5-1.8,3.5c-0.8,1-1.6,1.7-2.5,2.1l-0.6-1.4c0.9-0.7,1.6-1.7,2.1-3.1
		c0.5-1.4,0.8-3,0.8-4.8v-0.5c0-1.9-0.3-3.5-0.8-4.9s-1.2-2.5-2.2-3.2l0.6-1.4c0.9,0.4,1.6,1,2.4,2c0.8,0.9,1.3,2.1,1.8,3.4
		c0.4,1.3,0.7,2.6,0.7,4L32,19L32,19z"/>
</g>
</svg>
