<?xml version="1.0" encoding="utf-8"?>
<!-- Generator: Adobe Illustrator 25.2.0, SVG Export Plug-In . SVG Version: 6.00 Build 0)  -->
<svg version="1.1" id="Layer_1" xmlns="http://www.w3.org/2000/svg" xmlns:xlink="http://www.w3.org/1999/xlink" x="0px" y="0px"
	 viewBox="0 0 32 32" style="enable-background:new 0 0 32 32;" xml:space="preserve">
<g>
	<path d="M12.6,22.8H3.3V9.1h22.1v1c0.1,0,0.2,0.1,0.2,0.1c0.9,0.3,1.7,0.8,2.5,1.3V9.2c0-1.6-1.3-2.7-2.7-2.7H14.4l-2.7-2.7H3.4
		C1.8,3.7,0.7,5,0.7,6.4V23c0,1.6,1.2,2.7,2.7,2.7h10.9L12.6,22.8z"/>
	<g>
		<path d="M22.5,28.3c-4.8,0-8.8-3.9-8.8-8.8c0-4.8,3.9-8.8,8.8-8.8s8.8,3.9,8.8,8.8S27.3,28.3,22.5,28.3z M22.5,12.7
			c-3.8,0-6.8,3.1-6.8,6.8c0,3.8,3.1,6.8,6.8,6.8c3.8,0,6.8-3.1,6.8-6.8S26.3,12.7,22.5,12.7z"/>
	</g>
	<polygon points="27.8,18.6 27.8,20.3 23.3,20.4 23.3,24.9 21.6,24.9 21.6,20.4 17.2,20.4 17.2,18.6 21.6,18.6 21.6,14.3 23.3,14.3 
		23.3,18.6 	"/>
</g>
</svg>
