<?xml version="1.0" encoding="utf-8"?>
<!-- Generator: Adobe Illustrator 25.2.0, SVG Export Plug-In . SVG Version: 6.00 Build 0)  -->
<svg version="1.1" id="Layer_1" xmlns="http://www.w3.org/2000/svg" xmlns:xlink="http://www.w3.org/1999/xlink" x="0px" y="0px"
	 viewBox="0 0 32 32" style="enable-background:new 0 0 32 32;" xml:space="preserve">
<g>
	<path d="M22.2,28h-18V4h10.5v7.5h7.5v1.9h3V10l-9-9h-12c-1.7,0-3,1.3-3,3v24c0,1.7,1.3,3,3,3h18c1.7,0,3-1.3,3-3v-1.2h-3V28z"/>
	<path d="M30,17.2c-1-1.7-2.7-2.8-4.8-2.8h-0.1l-4.5,0.1v2h1.6h2.9h0.1c1.8,0,3.3,1.5,3.3,3.4s-1.5,3.4-3.3,3.4h-0.1h-2.9h-1.6v2.3
		h1.6h3c2.1,0,3.8-1.1,4.8-2.8c0.5-0.8,0.8-1.8,0.8-2.8S30.5,18,30,17.2z"/>
	<polygon points="14.9,21.2 22.2,21.2 24,21.2 24,18.9 22.2,18.9 14.9,18.9 	"/>
	<path d="M9.1,17c-0.6,0.9-1,2-1,3.2c0,1.6,0.7,3,1.7,4c0.5,0.5,1.1,0.9,1.8,1.2c0.7,0.2,1.4,0.4,2.1,0.4h4.6v-2.3h-4.5
		c-1.2,0-2.2-0.6-2.8-1.5c-0.4-0.5-0.6-1.2-0.6-1.9c0-1.9,1.5-3.4,3.4-3.4h4.5v-2.2h-4.5C11.8,14.5,10.1,15.5,9.1,17z"/>
</g>
</svg>
