<?xml version="1.0" encoding="utf-8"?>
<!-- Generator: Adobe Illustrator 25.2.0, SVG Export Plug-In . SVG Version: 6.00 Build 0)  -->
<svg version="1.1" id="Layer_1" xmlns="http://www.w3.org/2000/svg" xmlns:xlink="http://www.w3.org/1999/xlink" x="0px" y="0px"
	 viewBox="0 0 32 32" style="enable-background:new 0 0 32 32;" xml:space="preserve">
<g>
	<g>
		<path d="M19,7.8L9.8,17l-3.6-3.6l-2,2l5.6,5.6L21,9.7L19,7.8z M19,7.8L9.8,17l-3.6-3.6l-2,2l5.6,5.6L21,9.7L19,7.8z M22.4,1.3H2.8
			C1.3,1.3,0,2.5,0,4.1v19.6c0,1.6,1.3,2.8,2.8,2.8h7.5l2.8-2.8H2.8V4.1h19.6v10.3l1.3-1.3l1.5-1.4V4.1C25.2,2.6,23.9,1.3,22.4,1.3z
			 M19,7.8L9.8,17l-3.6-3.6l-2,2l5.6,5.6L21,9.7L19,7.8z"/>
	</g>
	<g>
		<g>
			<g>
				<path d="M23.7,15.2l-8.6,8.6l-2.3,2.3v4.6h4.6l3.5-3.5l0.6-0.6l3.7-3.7l1.2-1.2l1.9-1.9L23.7,15.2z M22.4,21.8l-1.9,2l-2.7,2.8
					L17.3,27l-1,1h-1.1V27l8.5-8.5l1,1L22.4,21.8z"/>
			</g>
		</g>
		<g>
			<g>
				<path d="M31.7,16.2l-2.1,2.2l-4.6-4.6l0.1-0.1l2.1-2.1c0.3-0.3,0.5-0.4,0.8-0.4c0.4,0,0.6,0.1,0.8,0.4l0.3,0.4l2.4,2.4
					C32.1,15.1,32.1,15.8,31.7,16.2z"/>
			</g>
		</g>
	</g>
</g>
</svg>
