<?xml version="1.0" encoding="utf-8"?>
<!-- Generator: Adobe Illustrator 25.2.0, SVG Export Plug-In . SVG Version: 6.00 Build 0)  -->
<svg version="1.1" id="Layer_1" xmlns="http://www.w3.org/2000/svg" xmlns:xlink="http://www.w3.org/1999/xlink" x="0px" y="0px"
	 viewBox="0 0 32 32" style="enable-background:new 0 0 32 32;" xml:space="preserve">
<style type="text/css">
	.st0{fill:none;}
</style>
<g>
	<g>
		<g>
			<line class="st0" x1="17.2" y1="23.6" x2="17.2" y2="21.7"/>
			<path class="st0" d="M28.7,10.1l-3-5.1c-0.1-0.2-0.4-0.4-0.7-0.4h-0.3L21,6c-0.8-0.6-1.6-1.1-2.5-1.5l-0.6-4
				C18,0.2,17.6,0,17.3,0h-5.9c-0.4,0-0.7,0.3-0.7,0.6l-0.6,4C9.2,4.9,8.3,5.4,7.6,6L3.9,4.5H3.6C3.3,4.5,3.1,4.6,3,4.9l-3,5.1
				c-0.2,0.3-0.1,0.7,0.2,1l3.2,2.5c-0.1,0.5-0.1,1-0.1,1.5c0,0.5,0,1,0.1,1.5L0.3,19c-0.3,0.2-0.4,0.6-0.2,1l3,5.1
				c0.1,0.2,0.4,0.4,0.7,0.4H4L7.7,24c0.8,0.6,1.6,1.1,2.5,1.5l0.6,4c0,0.4,0.4,0.6,0.7,0.6h3.5c-0.4-0.5-0.8-0.9-1.2-1.5l0,0l0,0
				c-0.3-0.5-0.5-0.9-0.7-1.4c-0.1-0.1-0.1-0.3-0.2-0.4l-0.1-0.2l0,0l0,0c-0.3-0.9-0.5-1.7-0.6-2.6c0-0.3-0.1-0.6-0.1-0.8
				c0-0.6,0-1.2,0.1-1.8c0-0.2,0-0.5,0.1-0.7c0.1-0.8,0.4-1.6,0.7-2.3c0.1-0.2,0.2-0.4,0.3-0.6c0.5-1,1.2-1.9,2-2.8
				c0.6-0.6,1.2-1,1.8-1.5c0.8-0.6,1.8-1,2.7-1.3c1-0.3,2.1-0.5,3.3-0.5c0.1,0,0.2,0,0.3,0c0.1,0,0.3,0,0.5,0l0,0h0.1
				c1,0.1,1.9,0.3,2.8,0.6c0.1,0,0.2,0.1,0.3,0.1l1.9-1.5C28.8,10.9,28.9,10.5,28.7,10.1z"/>
			<path d="M14.3,9.1c-3.3,0-5.9,2.7-5.9,5.9c0,2.5,1.6,4.6,3.8,5.5c0.1-0.8,0.4-1.6,0.7-2.3c0.1-0.2,0.2-0.4,0.3-0.6
				c-1-0.5-1.8-1.5-1.8-2.7c0-1.7,1.4-3,3-3c1.1,0,2.1,0.6,2.6,1.5c0.8-0.6,1.8-1,2.7-1.3C18.6,10.4,16.6,9.1,14.3,9.1z M14.3,9.1
				c-3.3,0-5.9,2.7-5.9,5.9c0,2.5,1.6,4.6,3.8,5.5c0.1-0.8,0.4-1.6,0.7-2.3c0.1-0.2,0.2-0.4,0.3-0.6c-1-0.5-1.8-1.5-1.8-2.7
				c0-1.7,1.4-3,3-3c1.1,0,2.1,0.6,2.6,1.5c0.8-0.6,1.8-1,2.7-1.3C18.6,10.4,16.6,9.1,14.3,9.1z M14.3,9.1c-3.3,0-5.9,2.7-5.9,5.9
				c0,2.5,1.6,4.6,3.8,5.5c0.1-0.8,0.4-1.6,0.7-2.3c0.1-0.2,0.2-0.4,0.3-0.6c-1-0.5-1.8-1.5-1.8-2.7c0-1.7,1.4-3,3-3
				c1.1,0,2.1,0.6,2.6,1.5c0.8-0.6,1.8-1,2.7-1.3C18.6,10.4,16.6,9.1,14.3,9.1z M14.3,9.1c-3.3,0-5.9,2.7-5.9,5.9
				c0,2.5,1.6,4.6,3.8,5.5c0.1-0.8,0.4-1.6,0.7-2.3c0.1-0.2,0.2-0.4,0.3-0.6c-1-0.5-1.8-1.5-1.8-2.7c0-1.7,1.4-3,3-3
				c1.1,0,2.1,0.6,2.6,1.5c0.8-0.6,1.8-1,2.7-1.3C18.6,10.4,16.6,9.1,14.3,9.1z M28.7,10.1l-3-5.1c-0.1-0.2-0.4-0.4-0.7-0.4h-0.3
				L21,6c-0.8-0.6-1.6-1.1-2.5-1.5l-0.6-4C18,0.2,17.6,0,17.3,0h-5.9c-0.4,0-0.7,0.3-0.7,0.6l-0.6,4C9.2,4.9,8.3,5.4,7.6,6L3.9,4.5
				H3.6C3.3,4.5,3.1,4.6,3,4.9l-3,5.1c-0.2,0.3-0.1,0.7,0.2,1l3.2,2.5c-0.1,0.5-0.1,1-0.1,1.5c0,0.5,0,1,0.1,1.5L0.3,19
				c-0.3,0.2-0.4,0.6-0.2,1l3,5.1c0.1,0.2,0.4,0.4,0.7,0.4H4L7.7,24c0.8,0.6,1.6,1.1,2.5,1.5l0.6,4c0,0.4,0.4,0.6,0.7,0.6h3.5
				c-0.4-0.5-0.8-0.9-1.2-1.5l0,0l0,0c-0.3-0.5-0.5-0.9-0.7-1.4c-0.1-0.1-0.1-0.3-0.2-0.4l-0.1-0.2l0,0l0,0
				c-0.3-0.9-0.5-1.7-0.6-2.6c0-0.3-0.1-0.6-0.1-0.8l-0.9-0.3c-0.6-0.3-1.2-0.6-1.8-1.1l-1.4-1l-1.6,0.6L4.5,22l-1-1.8L5.1,19l1.3-1
				l-0.2-1.7c0-0.5-0.1-0.8-0.1-1.1c0-0.3,0-0.6,0.1-1.1l0.2-1.7l-1.3-1.1l-1.6-1.3l1-1.8l1.9,0.8L8,9.7l1.4-1
				c0.6-0.5,1.3-0.8,1.9-1.1L12.8,7L13,5.3l0.3-2h2.1l0.3,2L15.9,7l1.6,0.6c0.6,0.3,1.2,0.6,1.8,1.1l1.4,1l1.6-0.6l1.9-0.8l1,1.8
				l-1.6,1.3L23,11.7c0.1,0,0.3,0,0.5,0l0,0h0.1c1,0.1,1.9,0.3,2.8,0.6c0.1,0,0.2,0.1,0.3,0.1l1.9-1.5
				C28.8,10.9,28.9,10.5,28.7,10.1z M14.3,9.1c-3.3,0-5.9,2.7-5.9,5.9c0,2.5,1.6,4.6,3.8,5.5c0.1-0.8,0.4-1.6,0.7-2.3
				c0.1-0.2,0.2-0.4,0.3-0.6c-1-0.5-1.8-1.5-1.8-2.7c0-1.7,1.4-3,3-3c1.1,0,2.1,0.6,2.6,1.5c0.8-0.6,1.8-1,2.7-1.3
				C18.6,10.4,16.6,9.1,14.3,9.1z"/>
		</g>
	</g>
	<g>
		<path d="M22.7,32c-5.1,0-9.3-4.2-9.3-9.3c0-5.1,4.2-9.3,9.3-9.3c5.1,0,9.3,4.2,9.3,9.3C32,27.8,27.9,32,22.7,32z M22.7,15.3
			c-4.1,0-7.3,3.3-7.3,7.3s3.3,7.3,7.3,7.3s7.3-3.3,7.3-7.3C30,18.7,26.8,15.3,22.7,15.3z"/>
	</g>
	<polygon points="28.3,21.6 28.3,23.4 23.6,23.5 23.6,28.3 21.7,28.3 21.7,23.5 17.1,23.5 17.1,21.6 21.7,21.6 21.7,17 23.6,17 
		23.6,21.6 	"/>
</g>
</svg>
