<?xml version="1.0" encoding="utf-8"?>
<!-- Generator: Adobe Illustrator 25.2.0, SVG Export Plug-In . SVG Version: 6.00 Build 0)  -->
<svg version="1.1" id="Layer_1" xmlns="http://www.w3.org/2000/svg" xmlns:xlink="http://www.w3.org/1999/xlink" x="0px" y="0px"
	 viewBox="0 0 32 32" style="enable-background:new 0 0 32 32;" xml:space="preserve">
<g>
	<g>
		<g>
			<path d="M25.3,25l-0.1-0.2c-0.5,0.1-0.9,0.2-1.4,0.2c-0.7,0-1.3-0.1-1.9-0.3L20.4,26l-1.1,0.8l-0.8-1.1l-1-1.2h-13l7.1-9.4V7.6
				h2.8v1.7l2,0.2c0.2-0.2,0.5-0.5,0.7-0.7c0.1-0.1,0.3-0.2,0.4-0.3V8.2l0.5-0.6L17.9,6L18,4.8H7.3c-0.6,0-1,0.7-0.6,1.1l2,2.3v5.9
				L0.5,25c-0.7,1,0,2.2,1.1,2.2h22.6C25.3,27.2,26,26,25.3,25z"/>
		</g>
	</g>
	<g>
		<g>
			<path d="M22.2,12.5l-3.1,2.4l1.2,1.6l3.1-2.4L22.2,12.5z M24.7,15.7l-3.1,2.5l1.2,1.6l3.1-2.4L24.7,15.7z M24.7,15.7l-3.1,2.5
				l1.2,1.6l3.1-2.4L24.7,15.7z M22.2,12.5l-3.1,2.4l1.2,1.6l3.1-2.4L22.2,12.5z M22.2,12.5l-3.1,2.4l1.2,1.6l3.1-2.4L22.2,12.5z
				 M24.7,15.7l-3.1,2.5l1.2,1.6l3.1-2.4L24.7,15.7z M24.7,15.7l-3.1,2.5l1.2,1.6l3.1-2.4L24.7,15.7z M22.2,12.5l-3.1,2.4l1.2,1.6
				l3.1-2.4L22.2,12.5z M22.2,12.5l-3.1,2.4l1.2,1.6l3.1-2.4L22.2,12.5z M24.7,15.7l-3.1,2.5l1.2,1.6l3.1-2.4L24.7,15.7z M24.7,15.7
				l-3.1,2.5l1.2,1.6l3.1-2.4L24.7,15.7z M22.2,12.5l-3.1,2.4l1.2,1.6l3.1-2.4L22.2,12.5z M22.2,12.5l-3.1,2.4l1.2,1.6l3.1-2.4
				L22.2,12.5z M24.7,15.7l-3.1,2.5l1.2,1.6l3.1-2.4L24.7,15.7z M24.7,15.7l-3.1,2.5l1.2,1.6l3.1-2.4L24.7,15.7z M22.2,12.5
				l-3.1,2.4l1.2,1.6l3.1-2.4L22.2,12.5z M22.2,12.5l-3.1,2.4l1.2,1.6l3.1-2.4L22.2,12.5z M24.7,15.7l-3.1,2.5l1.2,1.6l3.1-2.4
				L24.7,15.7z M24.7,15.7l-3.1,2.5l1.2,1.6l3.1-2.4L24.7,15.7z M22.2,12.5l-3.1,2.4l1.2,1.6l3.1-2.4L22.2,12.5z M22.2,12.5
				l-3.1,2.4l1.2,1.6l3.1-2.4L22.2,12.5z M24.7,15.7l-3.1,2.5l1.2,1.6l3.1-2.4L24.7,15.7z M24.7,15.7l-3.1,2.5l1.2,1.6l3.1-2.4
				L24.7,15.7z M22.2,12.5l-3.1,2.4l1.2,1.6l3.1-2.4L22.2,12.5z M22.2,12.5l-3.1,2.4l1.2,1.6l3.1-2.4L22.2,12.5z M24.7,15.7
				l-3.1,2.5l1.2,1.6l3.1-2.4L24.7,15.7z M24.7,15.7l-3.1,2.5l1.2,1.6l3.1-2.4L24.7,15.7z M22.2,12.5l-3.1,2.4l1.2,1.6l3.1-2.4
				L22.2,12.5z"/>
			<path d="M31.8,15l-1.2-1.6L29,14.7c-0.2-0.3-0.4-0.6-0.6-0.8l-0.7-0.7l1.6-1.2l-1.2-1.6l-1.6,1.2L26,10.8
				c-0.2-0.3-0.5-0.5-0.7-0.7l1.6-1.3l-1.2-1.6l-2.1,1.7c-0.7-0.3-1.4-0.5-2.1-0.5c-0.2,0-0.3,0-0.5,0l0.3-2.2l-2-0.2l-0.4,3.1
				c-0.5,0.2-0.8,0.5-1.2,0.7c-0.2,0.2-0.4,0.3-0.6,0.5c-0.2,0.2-0.3,0.4-0.5,0.6l-2.5-0.3l-0.5-0.1l-0.2,2l0.7,0.1l1.5,0.2
				c-0.3,0.8-0.3,1.8-0.2,2.6l-0.7,0.6l-1.5,1.2l1.2,1.6l1.5-1.2l0.2-0.1c0.2,0.3,0.4,0.6,0.6,0.8l0.7,0.7L17.4,19L16,20.1l1.2,1.6
				l1.4-1.1l0.2-0.1l0.7,0.7c0.2,0.3,0.5,0.5,0.7,0.7l-0.3,0.2l-1.3,1l0.9,1.2l0.3,0.4l0.5-0.4l0.8-0.7L22,23
				c0.7,0.3,1.4,0.4,2.1,0.4c0.2,0,0.3,0,0.5,0c1.1-0.1,2.2-0.5,3.3-1.2c1.7-1.4,2.5-3.4,2.1-5.5L31.8,15z M26.2,20.8
				c-0.7,0.6-1.6,0.8-2.5,0.8c-0.4,0-0.7,0-1.1-0.2c-0.1,0-0.2-0.1-0.3-0.1l-0.7-0.3l-0.5-0.5c-0.2-0.1-0.4-0.3-0.5-0.6L18.1,17
				c-0.1-0.2-0.3-0.4-0.4-0.6l-0.4-0.6l-0.1-0.7c0-0.3,0-0.5,0-0.7c0-0.4,0-0.7,0.2-1.1l0.2-0.7l0.5-0.6c0.2-0.3,0.4-0.5,0.7-0.7
				c0.3-0.2,0.5-0.3,0.8-0.5l0.6-0.3l0.7-0.1c0.1,0,0.3,0,0.4,0c0.5,0,0.9,0.1,1.4,0.3l0.7,0.3l0.6,0.5c0.2,0.1,0.4,0.4,0.5,0.5
				s0.7,0.9,0.7,0.9l1.9,2.3c0.1,0.2,0.3,0.4,0.4,0.6l0.4,0.6l0.1,0.7C27.9,18.5,27.3,19.9,26.2,20.8z"/>
		</g>
	</g>
</g>
</svg>
