<?xml version="1.0" encoding="utf-8"?>
<!-- Generator: Adobe Illustrator 25.2.0, SVG Export Plug-In . SVG Version: 6.00 Build 0)  -->
<svg version="1.1" id="Layer_1" xmlns="http://www.w3.org/2000/svg" xmlns:xlink="http://www.w3.org/1999/xlink" x="0px" y="0px"
	 viewBox="0 0 32 32" style="enable-background:new 0 0 32 32;" xml:space="preserve">
<g>
	<g id="Grupo_420_1_" transform="translate(-1820 -863.725)">
		<path id="Trazado_1760_1_" d="M1845.2,869.7h-10.4v-2.3l-1-1h-11.7l-1,1v4.5c0,0.1,0,0.2,0,0.3v7.3l0,0v12c0,1,0.8,1.6,1.6,1.6
			h26.7c1,0,1.6-0.8,1.6-1.6l0,0v-16.9L1845.2,869.7z M1847.5,889.8h-23.4v-15.9h20l3.4,2.9V889.8z"/>
	</g>
	<polygon points="21,15 18.2,12.2 16.1,14.3 18.4,16.6 12.2,16.6 12.2,19.7 18.4,19.7 16.1,22 18.2,24.2 24.1,18.2 23.6,17.6 	"/>
</g>
</svg>
