<?xml version="1.0" encoding="utf-8"?>
<!-- Generator: Adobe Illustrator 25.2.0, SVG Export Plug-In . SVG Version: 6.00 Build 0)  -->
<svg version="1.1" id="Layer_1" xmlns="http://www.w3.org/2000/svg" xmlns:xlink="http://www.w3.org/1999/xlink" x="0px" y="0px"
	 viewBox="0 0 32 32" style="enable-background:new 0 0 32 32;" xml:space="preserve">
<g>
	<g>
		<path d="M28.2,1.4H3.7C2,1.4,0.6,2.8,0.6,4.5v20.6c0,1.7,1.4,3.1,3.1,3.1h1.7v0.9c0,0.8,0.7,1.5,1.5,1.5h10.1
			c0.8,0,1.5-0.7,1.5-1.5v-0.9h9.7c1.7,0,3.1-1.4,3.1-3.1V4.5C31.3,2.8,29.9,1.4,28.2,1.4z M15.6,27.6H8.5V16.7h7.1V27.6z
			 M17.1,13.7h-4.4V9.3h7.6v11.4h-1.7v-5.5C18.6,14.3,17.9,13.7,17.1,13.7z M28.3,25.1h-9.7v-1.4h3.2c0.8,0,1.5-0.7,1.5-1.5V7.8
			c0-0.8-0.7-1.5-1.5-1.5H11.2c-0.8,0-1.5,0.7-1.5,1.5v5.9H6.9c-0.8,0-1.5,0.7-1.5,1.5v9.9H3.7V4.5h24.6V25.1z"/>
	</g>
	<rect x="9.8" y="18.7" width="4.3" height="1.5"/>
	<rect x="9.8" y="21.6" width="4.3" height="1.5"/>
	<rect x="9.8" y="24.6" width="4.3" height="1.5"/>
</g>
</svg>
