<?xml version="1.0" encoding="utf-8"?>
<!-- Generator: Adobe Illustrator 25.2.0, SVG Export Plug-In . SVG Version: 6.00 Build 0)  -->
<svg version="1.1" id="Layer_1" xmlns="http://www.w3.org/2000/svg" xmlns:xlink="http://www.w3.org/1999/xlink" x="0px" y="0px"
	 viewBox="0 0 32 32" style="enable-background:new 0 0 32 32;" xml:space="preserve">
<g>
	<g>
		<path d="M27.9,17.5c0.1-0.4-0.1-0.8-0.4-1.1l-2.5-2.5l2.1-1.1c0.4-0.2,0.6-0.5,0.6-0.9c0.1-0.4-0.1-0.8-0.4-1.1L20.9,4
			c-0.4-0.4-1.1-0.5-1.5-0.3l-1.1,0.6v3.3h4.1c0.5,0,1,0.4,1.1,0.8c0.2,0.4,0.1,1-0.3,1.4l-3,3l-2.8,2.8l-1.1,1.1
			c-0.3,0.3-0.5,0.4-0.9,0.4c-0.2,0-0.4,0-0.5-0.1l0,0c-0.2-0.1-0.3-0.2-0.4-0.3l-1.1-1.1l-1.8-1.8L8.1,10l-3.4,1.8
			c-0.4,0.2-0.6,0.5-0.6,0.9c-0.1,0.4,0.1,0.8,0.4,1.1l2.5,2.5l-2.2,1.1c-0.4,0.2-0.6,0.5-0.6,0.9c-0.1,0.4,0.1,0.8,0.4,1.1l2,2.2
			l-1.8,1c-0.4,0.2-0.6,0.5-0.6,0.9c-0.1,0.4,0.1,0.8,0.4,1.1l6.6,6.9c0.3,0.3,0.5,0.4,0.9,0.4c0.2,0,0.4-0.1,0.6-0.2l14.8-8.2
			c0.4-0.2,0.6-0.5,0.6-0.9c0.1-0.4-0.1-0.8-0.4-1.1l-2-2.2l1.8-1C27.7,18.3,27.9,17.9,27.9,17.5z M12.1,29l-4.7-5l0.9-0.5l2.7,2.8
			c0.3,0.3,0.5,0.4,0.9,0.4c0.2,0,0.4-0.1,0.6-0.2l10.8-5.9l1.4,1.5L12.1,29z M23.8,17.5l-2.3,1.2l-9.4,5.1l-1.6-1.7l-1.8-1.8
			l-1.4-1.5l1.3-0.7l1.4,1.5l1,1c0.3,0.3,0.5,0.4,0.9,0.4c0.2,0,0.4-0.1,0.6-0.2l9.5-5.2l1-0.5l1.8,1.8L23.8,17.5z"/>
	</g>
	<g id="Grupo_310_5_" transform="translate(-254.935 -437.323)">
		<g id="Trazado_1730_6_">
			<polygon points="277.6,446.1 276.3,447.3 273.7,450 270.7,453 269.9,452.1 268,450.2 264.2,446.5 263.9,446.1 269.1,446.1 
				269.1,437.6 272.2,437.6 272.2,446.1 			"/>
		</g>
	</g>
</g>
</svg>
