<?xml version="1.0" encoding="utf-8"?>
<!-- Generator: Adobe Illustrator 25.2.0, SVG Export Plug-In . SVG Version: 6.00 Build 0)  -->
<svg version="1.1" id="Layer_1" xmlns="http://www.w3.org/2000/svg" xmlns:xlink="http://www.w3.org/1999/xlink" x="0px" y="0px"
	 viewBox="0 0 32 32" style="enable-background:new 0 0 32 32;" xml:space="preserve">
<g>
	<rect x="18.1" y="1.7" width="12.6" height="2.9"/>
	<path d="M26.2,13h-2.6V9l-4.3-3.6h-7.7V3.7l-0.8-0.8H2.1L1.3,3.7v17.9c0,0.7,0.6,1.2,1.2,1.2h5.7v6.3c0,0.7,0.6,1.2,1.2,1.2h19.8
		c0.7,0,1.2-0.6,1.2-1.2V16.5L26.2,13z M3.8,20.4V8.6h14.8l2.5,2.1V13h-2.6v-1.7l-0.8-0.8H9l-0.8,0.8v9.1H3.8z M28,28H10.6v-5.1
		v-2.4v-4.4h10.5h2.6h1.8l2.5,2.1L28,28L28,28z"/>
</g>
</svg>
