<?xml version="1.0" encoding="utf-8"?>
<!-- Generator: Adobe Illustrator 25.2.0, SVG Export Plug-In . SVG Version: 6.00 Build 0)  -->
<svg version="1.1" id="Layer_1" xmlns="http://www.w3.org/2000/svg" xmlns:xlink="http://www.w3.org/1999/xlink" x="0px" y="0px"
	 viewBox="0 0 32 32" style="enable-background:new 0 0 32 32;" xml:space="preserve">
<g>
	<path d="M16,9.5l1.5,3.4l0.7,1.7l1.8,0.1l3.7,0.3l-2.8,2.4l-1.4,1.2l0.4,1.8l0.8,3.6l-3.2-1.9l-1.5-1L14.5,22l-3.2,1.9l0.8-3.6
		l0.4-1.8l-1.4-1.2l-2.8-2.4l3.7-0.3l1.8-0.2l0.7-1.7L16,9.5 M16,1.8l-4.2,9.9L1,12.6l8.2,7.1L6.7,30.2l9.3-5.6l9.3,5.6l-2.5-10.5
		l8.2-7.1l-10.8-0.9L16,1.8z"/>
</g>
</svg>
