<?xml version="1.0" encoding="utf-8"?>
<!-- Generator: Adobe Illustrator 25.2.0, SVG Export Plug-In . SVG Version: 6.00 Build 0)  -->
<svg version="1.1" id="Layer_1" xmlns="http://www.w3.org/2000/svg" xmlns:xlink="http://www.w3.org/1999/xlink" x="0px" y="0px"
	 viewBox="0 0 32 32" style="enable-background:new 0 0 32 32;" xml:space="preserve">
<g>
	<path d="M15.3,22.1c1.4,0,2.6-0.5,3.7-1.1l3.7,3.7l2.1-2.1l-3.7-3.7c0.6-1.1,1.1-2.3,1.1-3.7c0-3.8-3.1-6.9-6.9-6.9
		s-6.9,3.1-6.9,6.9C8.4,19,11.4,22.1,15.3,22.1z M15.3,11.4c2.1,0,3.8,1.7,3.8,3.8S17.3,19,15.3,19s-3.8-1.7-3.8-3.8
		S13.1,11.4,15.3,11.4z M28.3,3.7H3.8C2,3.7,0.6,5.1,0.6,6.8v18.4c0,1.7,1.4,3.1,3.1,3.1h24.5c1.7,0,3.1-1.4,3.1-3.1V6.8
		C31.4,5.1,30,3.7,28.3,3.7z M28.3,25.2H3.8V6.8h24.5V25.2z"/>
</g>
</svg>
