<?xml version="1.0" encoding="utf-8"?>
<!-- Generator: Adobe Illustrator 25.2.0, SVG Export Plug-In . SVG Version: 6.00 Build 0)  -->
<svg version="1.1" id="Layer_1" xmlns="http://www.w3.org/2000/svg" xmlns:xlink="http://www.w3.org/1999/xlink" x="0px" y="0px"
	 viewBox="0 0 32 32" style="enable-background:new 0 0 32 32;" xml:space="preserve">
<g>
	<path d="M25.8,13.4c-0.9-4.6-5-8.1-9.8-8.1c-3.8,0-7.2,2.2-8.9,5.4c-4,0.4-7.1,3.8-7.1,7.9c0,4.4,3.5,8,8,8h17.3
		c3.6,0,6.7-3,6.7-6.7C32,16.4,29.2,13.6,25.8,13.4z M25.3,24H8c-2.9,0-5.3-2.4-5.3-5.3c0-2.8,2-5,4.7-5.3l1.4-0.2l0.7-1.2
		c1.2-2.4,3.7-4,6.5-4c3.5,0,6.5,2.5,7.2,5.9l0.4,2l2,0.2c2,0.1,3.7,1.9,3.7,3.9C29.3,22.2,27.5,24,25.3,24z M10.7,17.3H14v4H18v-4
		h3.4L16,12L10.7,17.3z"/>
</g>
</svg>
