<?xml version="1.0" encoding="utf-8"?>
<!-- Generator: Adobe Illustrator 25.2.0, SVG Export Plug-In . SVG Version: 6.00 Build 0)  -->
<svg version="1.1" id="Layer_1" xmlns="http://www.w3.org/2000/svg" xmlns:xlink="http://www.w3.org/1999/xlink" x="0px" y="0px"
	 viewBox="0 0 32 32" style="enable-background:new 0 0 32 32;" xml:space="preserve">
<path d="M16.4,19.9h10.4c1,0,1.7-0.8,1.7-1.8v-5.2c0-1-0.8-1.8-1.7-1.8H16.4c-1,0-1.8,0.8-1.8,1.8v1.2h-4.4V10h5.2
	c1,0,1.8-0.8,1.8-1.8V3c0-1-0.8-1.8-1.8-1.8H5C4,1.2,3.3,2,3.3,3v5.2c0,1,0.8,1.8,1.7,1.8h2.5v20.4c0,0.2,0.2,0.4,0.4,0.4H10
	c0.2,0,0.4-0.2,0.4-0.4v-3.2h4.4v1.2c0,1,0.8,1.8,1.8,1.8H27c1,0,1.7-0.8,1.7-1.8v-5.2c0-1-0.8-1.8-1.7-1.8H16.6
	c-1,0-1.8,0.8-1.8,1.8v1.2h-4.4v-7.5h4.4v1.3C14.6,19.1,15.4,19.9,16.4,19.9z M17.3,13.9h8.5v3.3h-8.5V13.9z M5.9,4h8.5v3.3H5.9V4z
	 M17.3,24.1h8.5v3.3h-8.5V24.1z"/>
</svg>
