<?xml version="1.0" encoding="utf-8"?>
<!-- Generator: Adobe Illustrator 25.2.0, SVG Export Plug-In . SVG Version: 6.00 Build 0)  -->
<svg version="1.1" id="Layer_1" xmlns="http://www.w3.org/2000/svg" xmlns:xlink="http://www.w3.org/1999/xlink" x="0px" y="0px"
	 viewBox="0 0 32 32" style="enable-background:new 0 0 32 32;" xml:space="preserve">
<g>
	<path d="M16,28.4L14.9,29v-8.8l0.9-0.5c-1.1-0.6-2.1-1.2-3-2.1l0,0l-5.4-2.8l3.4,0.1c-0.3-0.6-0.6-1.2-0.7-1.8H7l2.7-1.5
		C9.5,10.9,9.5,10,9.5,9.3L2.5,13H2.5c-0.1,0-0.1,0.1-0.2,0.1l-0.1,0.1l-0.1,0.1c-0.2,0.2-0.3,0.4-0.3,0.6v10.9c0,0.4,0.3,0.8,0.6,1
		l10.7,6c0.1,0,0.2,0.1,0.3,0.1c0.1,0,0.2,0.1,0.2,0.1H14c0.1,0,0.2,0,0.2-0.1l0,0l0,0l0,0c0,0,0,0,0.1,0s0.1-0.1,0.2-0.1l3.9-2.1
		l-2.1-1.3C16.1,28.4,16,28.4,16,28.4z M12.6,28.9L4,24.1v-8.2l8.6,4.4V28.9z"/>
	<path d="M25.6,19.7c-0.7,0.4-1.5,0.6-2.2,0.8v1l2.3,2.3L25.6,19.7z"/>
	<polygon points="23.3,23.3 21,21 19.2,22.8 21.2,24.7 16.1,24.7 16.1,27.2 21.2,27.2 19.2,29.1 21,30.9 25.9,26 25.4,25.6 	"/>
	<polygon points="26.4,8.8 21.6,8.8 21.6,3.9 19.7,3.9 19.7,8.8 16.1,8.8 14.8,8.8 14.8,10.7 19.7,10.7 19.7,13.3 19.7,15.6 
		21.6,15.5 21.6,11.6 21.6,10.7 26.4,10.6 	"/>
	<path d="M27.4,2.9C25.5,1,23,0,20.5,0c-2.5,0-4.9,0.9-6.8,2.9c-1.6,1.6-2.5,3.5-2.7,5.5c-0.1,0.8-0.1,1.6,0,2.4
		c0.1,0.8,0.3,1.6,0.6,2.3c0.3,0.6,0.6,1.2,0.9,1.8c0.4,0.6,0.7,1,1.2,1.5c0.2,0.2,0.5,0.5,0.7,0.6c0.2,0.2,0.4,0.3,0.6,0.5
		c0.8,0.6,1.7,1,2.6,1.3c0.9,0.3,1.8,0.5,2.9,0.5c0.9,0,1.8-0.1,2.7-0.4c0.7-0.2,1.6-0.6,2.2-1c0.6-0.4,1.3-0.8,1.8-1.5
		C31.2,12.7,31.2,6.6,27.4,2.9z M26.1,15.1c-0.2,0.2-0.4,0.4-0.6,0.5c-0.6,0.6-1.4,1-2.2,1.3s-1.7,0.5-2.5,0.5c-0.1,0-0.2,0-0.3,0
		c-1.2,0-2.3-0.3-3.4-0.7c-0.7-0.4-1.4-0.8-2-1.5l0,0c-2-2-2.7-5-1.9-7.7c0.4-1.2,1-2.3,1.9-3.2C16.6,2.8,18.6,2,20.5,2
		s4,0.7,5.4,2.2C29,7.3,29,12.2,26.1,15.1z"/>
</g>
</svg>
