<?xml version="1.0" encoding="utf-8"?>
<!-- Generator: Adobe Illustrator 25.2.0, SVG Export Plug-In . SVG Version: 6.00 Build 0)  -->
<svg version="1.1" id="Layer_1" xmlns="http://www.w3.org/2000/svg" xmlns:xlink="http://www.w3.org/1999/xlink" x="0px" y="0px"
	 viewBox="0 0 32 32" style="enable-background:new 0 0 32 32;" xml:space="preserve">
<g>
	<path d="M23.5,2.5h-18c-1.7,0-3,1.4-3,3v21c0,1.6,1.3,3,3,3h21c1.6,0,3-1.4,3-3v-18L23.5,2.5z M26.5,26.5h-21v-21h16.8l4.2,4.2
		V26.5z M16,16c-2.5,0-4.5,1.9-4.5,4.5s2,4.5,4.5,4.5s4.5-1.9,4.5-4.5S18.6,16,16,16z M7,7h13.5v6H7V7z"/>
</g>
</svg>
