<?xml version="1.0" encoding="utf-8"?>
<!-- Generator: Adobe Illustrator 25.2.0, SVG Export Plug-In . SVG Version: 6.00 Build 0)  -->
<svg version="1.1" id="Layer_1" xmlns="http://www.w3.org/2000/svg" xmlns:xlink="http://www.w3.org/1999/xlink" x="0px" y="0px"
	 viewBox="0 0 32 32" style="enable-background:new 0 0 32 32;" xml:space="preserve">
<path d="M23.6,3l5.2,5.2l-6.1,6.1c0.2,0.7,0.3,1.3,0.3,2.1c0,0.5,0,0.8-0.1,1.2l6.3,6.3L23.9,29l-5.9-5.9c-0.7,0.2-1.4,0.3-2.1,0.3
	c-0.7,0-1.4-0.1-2.1-0.3L8,29l-5.2-5.2l6.1-6.1c-0.1-0.5-0.1-0.9-0.1-1.4c0-0.7,0.1-1.5,0.3-2.1l-5.9-6L8.3,3l6.3,6.3
	c0.4-0.1,0.8-0.1,1.3-0.1s0.9,0.1,1.4,0.1L23.6,3 M23.6,0.2c-0.7,0-1.4,0.3-2,0.8l-5.3,5.3c-0.1,0-0.2,0-0.4,0c-0.1,0-0.2,0-0.2,0
	L10.4,1c-0.6-0.6-1.3-0.8-2-0.8S7,0.5,6.5,1L1.2,6.2c-0.6,0.6-0.8,1.2-0.8,2c0,0.7,0.3,1.5,0.8,2L6.1,15C6,15.4,6,15.9,6,16.2
	c0,0.1,0,0.2,0,0.4l-5.1,5.1C0.3,22.3,0,23,0,23.7s0.3,1.5,0.8,2l5.2,5.2c0.6,0.6,1.2,0.8,2,0.8s1.5-0.3,2-0.8l4.8-4.8
	c0.4,0,0.7,0.1,1.1,0.1c0.4,0,0.8,0,1.2-0.1L22,31c0.6,0.6,1.2,0.8,2,0.8s1.5-0.3,2-0.8l5.2-5.2c1.1-1.1,1.1-2.9,0-3.9l-5.3-5.3
	c0-0.1,0-0.1,0-0.2c0-0.4,0-0.7-0.1-1.1l5-5c1.1-1.1,1.1-2.9,0-3.9L25.5,1C25,0.5,24.3,0.2,23.6,0.2L23.6,0.2z"/>
</svg>
