<?xml version="1.0" encoding="utf-8"?>
<!-- Generator: Adobe Illustrator 25.2.0, SVG Export Plug-In . SVG Version: 6.00 Build 0)  -->
<svg version="1.1" id="Layer_1" xmlns="http://www.w3.org/2000/svg" xmlns:xlink="http://www.w3.org/1999/xlink" x="0px" y="0px"
	 viewBox="0 0 32 32" style="enable-background:new 0 0 32 32;" xml:space="preserve">
<style type="text/css">
	.st0{fill:none;}
</style>
<g>
	<g>
		<line class="st0" x1="17.1" y1="23.6" x2="17.1" y2="21.8"/>
		<path d="M14.3,9.2c-3.3,0-5.9,2.7-5.9,5.9c0,2.5,1.6,4.6,3.7,5.5c0.1-0.8,0.4-1.6,0.7-2.3c0.1-0.2,0.2-0.4,0.3-0.6
			c-1-0.5-1.8-1.5-1.8-2.7c0-1.7,1.4-3,3-3c1.1,0,2.1,0.6,2.6,1.5c0.8-0.6,1.8-1,2.7-1.3C18.5,10.4,16.5,9.2,14.3,9.2z M14.3,9.2
			c-3.3,0-5.9,2.7-5.9,5.9c0,2.5,1.6,4.6,3.7,5.5c0.1-0.8,0.4-1.6,0.7-2.3c0.1-0.2,0.2-0.4,0.3-0.6c-1-0.5-1.8-1.5-1.8-2.7
			c0-1.7,1.4-3,3-3c1.1,0,2.1,0.6,2.6,1.5c0.8-0.6,1.8-1,2.7-1.3C18.5,10.4,16.5,9.2,14.3,9.2z M14.3,9.2c-3.3,0-5.9,2.7-5.9,5.9
			c0,2.5,1.6,4.6,3.7,5.5c0.1-0.8,0.4-1.6,0.7-2.3c0.1-0.2,0.2-0.4,0.3-0.6c-1-0.5-1.8-1.5-1.8-2.7c0-1.7,1.4-3,3-3
			c1.1,0,2.1,0.6,2.6,1.5c0.8-0.6,1.8-1,2.7-1.3C18.5,10.4,16.5,9.2,14.3,9.2z M14.3,9.2c-3.3,0-5.9,2.7-5.9,5.9
			c0,2.5,1.6,4.6,3.7,5.5c0.1-0.8,0.4-1.6,0.7-2.3c0.1-0.2,0.2-0.4,0.3-0.6c-1-0.5-1.8-1.5-1.8-2.7c0-1.7,1.4-3,3-3
			c1.1,0,2.1,0.6,2.6,1.5c0.8-0.6,1.8-1,2.7-1.3C18.5,10.4,16.5,9.2,14.3,9.2z M28.6,10.1l-3-5.1c-0.1-0.2-0.4-0.4-0.7-0.4h-0.3
			L21,6.1c-0.8-0.6-1.6-1.1-2.5-1.5l-0.6-3.9c0-0.4-0.4-0.6-0.7-0.6h-5.9c-0.4,0-0.7,0.3-0.7,0.6L10,4.6C9.2,5,8.3,5.5,7.6,6.1
			L3.9,4.6H3.6C3.3,4.6,3.1,4.7,3,5l-3,5.1c-0.2,0.3-0.1,0.7,0.2,1l3.2,2.5c-0.1,0.5-0.1,1-0.1,1.5c0,0.5,0,1,0.1,1.5L0.3,19
			c-0.3,0.2-0.4,0.6-0.2,1l3,5.1c0.1,0.2,0.4,0.4,0.7,0.4H4L7.7,24c0.8,0.6,1.6,1.1,2.5,1.5l0.6,3.9c0,0.4,0.4,0.6,0.7,0.6h3.4
			c-0.4-0.5-0.8-0.9-1.2-1.5l0,0l0,0c-0.3-0.5-0.5-0.9-0.7-1.4c-0.1-0.1-0.1-0.3-0.2-0.4l-0.1-0.2l0,0l0,0c-0.3-0.9-0.5-1.7-0.6-2.6
			c0-0.3-0.1-0.6-0.1-0.8l-0.9-0.3c-0.6-0.3-1.2-0.6-1.8-1.1l-1.4-1l-1.6,0.6l-1.9,0.6l-1-1.8L5.1,19l1.3-1l-0.2-1.7
			c0-0.5-0.1-0.8-0.1-1.1c0-0.3,0-0.6,0.1-1.1l0.2-1.7l-1.3-1.1l-1.6-1.3l1-1.8l1.9,0.8L8,9.7l1.4-1c0.6-0.5,1.3-0.8,1.9-1.1
			l1.6-0.6L13,5.4l0.3-2h2.1l0.3,2l0.2,1.7l1.6,0.6C18,8,18.6,8.3,19.2,8.8l1.4,1l1.6-0.6L24,8.4l1,1.8l-1.6,1.3l-0.5,0.4
			c0.1,0,0.3,0,0.5,0l0,0h0.1c1,0.1,1.9,0.3,2.8,0.6c0.1,0,0.2,0.1,0.3,0.1l1.9-1.5C28.7,10.9,28.8,10.5,28.6,10.1z M14.3,9.2
			c-3.3,0-5.9,2.7-5.9,5.9c0,2.5,1.6,4.6,3.7,5.5c0.1-0.8,0.4-1.6,0.7-2.3c0.1-0.2,0.2-0.4,0.3-0.6c-1-0.5-1.8-1.5-1.8-2.7
			c0-1.7,1.4-3,3-3c1.1,0,2.1,0.6,2.6,1.5c0.8-0.6,1.8-1,2.7-1.3C18.5,10.4,16.5,9.2,14.3,9.2z"/>
	</g>
	<g>
		<rect x="17.1" y="21.8" width="11.2" height="1.9"/>
		<path d="M22.8,13.4c-5.1,0-9.3,4.1-9.3,9.3c0,5.1,4.1,9.3,9.3,9.3s9.3-4.1,9.3-9.3C32,17.5,27.8,13.4,22.8,13.4z M22.8,29.9
			c-4,0-7.3-3.3-7.3-7.3s3.3-7.3,7.3-7.3s7.3,3.3,7.3,7.3S26.7,29.9,22.8,29.9z"/>
	</g>
</g>
</svg>
