<?xml version="1.0" encoding="utf-8"?>
<!-- Generator: Adobe Illustrator 25.2.0, SVG Export Plug-In . SVG Version: 6.00 Build 0)  -->
<svg version="1.1" id="Layer_1" xmlns="http://www.w3.org/2000/svg" xmlns:xlink="http://www.w3.org/1999/xlink" x="0px" y="0px"
	 viewBox="0 0 32 32" style="enable-background:new 0 0 32 32;" xml:space="preserve">
<style type="text/css">
	.st0{fill:none;}
</style>
<g>
	<g>
		<polygon class="st0" points="11.9,6.8 5.7,6.7 11.7,3.6 		"/>
		<polygon class="st0" points="12.1,11.6 6.2,8.6 12,8.7 		"/>
		<polygon class="st0" points="11.9,14.3 11.9,23.5 2.7,18.3 2.7,9.6 		"/>
		<polygon class="st0" points="19.9,8.9 13.9,11.8 13.9,8.8 		"/>
		<polygon class="st0" points="19.9,7 13.8,6.9 13.6,3.7 		"/>
		<path d="M1,6.5c-0.1,0-0.1,0.1-0.2,0.1C0.8,6.6,0.9,6.5,1,6.5C0.9,6.5,0.9,6.5,1,6.5z"/>
		<path d="M25.2,7.1C25.1,7.1,25.1,7,25,7l0,0C25.1,7.1,25.2,7.1,25.2,7.1z"/>
		<path d="M13.1,12.1L13.1,12.1H13C13,12.1,13,12.1,13.1,12.1L13.1,12.1z"/>
		<path d="M25.1,6.9L13.1,0.6c-0.4-0.2-0.8-0.2-1.2,0l-11,5.9c0,0-0.7,0.3-0.7,0.7s0,12,0,12c0,0.5,0.3,0.9,0.6,1.1l11.6,6.5
			c0.1,0,0.2,0.1,0.2,0.1h0.5c-0.1-0.2-0.2-0.4-0.2-0.5c0,0,0,0,0-0.1c-0.3-0.9-0.5-1.6-0.6-2.5c-0.1-0.9-0.1-1.6,0-2.5
			c0.2-1.7,0.9-3.5,1.9-4.9v-1.8l9-4.3v2c0.8,0.1,1.5,0.2,2.3,0.5V7.8C25.5,7.3,25.4,7.1,25.1,6.9z M11.7,3.6l0.2,3.2L5.8,6.7
			L11.7,3.6z M11.9,23.5l-9.2-5.1V9.7l9.2,4.7V23.5z M12,11.6l-5.8-3l5.7,0.1L12,11.6L12,11.6z M13.1,12.2
			C13.1,12.1,13.1,12.1,13.1,12.2L13.1,12.2z M13.9,11.8l-0.1-3l6,0.1L13.9,11.8z M13.8,6.9l-0.2-3.2L19.9,7L13.8,6.9z"/>
	</g>
	<g>
		<g>
			<polygon points="28.2,21.5 28.2,23.3 23.7,23.4 21.8,23.4 17.3,23.4 17.3,21.5 21.8,21.5 23.7,21.5 			"/>
			<path d="M29.1,15.9c-1-1-2.2-1.7-3.5-2.2c-0.8-0.3-1.5-0.5-2.3-0.5l0,0c-0.2,0-0.4,0-0.7,0c-2.3,0-4.6,0.9-6.5,2.7
				c-0.9,0.9-1.4,1.7-1.9,2.8c-0.4,0.8-0.6,1.6-0.7,2.4c-0.1,0.8-0.1,1.4,0,2.3c0.1,0.8,0.3,1.4,0.5,2.2c0.1,0.2,0.2,0.4,0.2,0.5
				c0.2,0.4,0.4,0.8,0.7,1.3c0.4,0.5,0.7,1,1.2,1.4c0.2,0.2,0.5,0.5,0.7,0.6c0.2,0.2,0.4,0.3,0.6,0.5c0.8,0.5,1.5,1,2.4,1.3
				c0.9,0.3,1.7,0.5,2.7,0.5c0.9,0,1.7-0.1,2.5-0.4c0.7-0.2,1.4-0.5,2.1-1c0.6-0.4,1.3-0.8,1.7-1.4C32.7,25.3,32.7,19.5,29.1,15.9z
				 M27.9,27.5c-0.2,0.2-0.4,0.4-0.5,0.5c-0.6,0.5-1.4,1-2.1,1.3c-0.8,0.3-1.5,0.5-2.3,0.5h-0.3c-1.2,0-2.2-0.3-3.2-0.7
				c-0.7-0.4-1.4-0.8-1.9-1.4c-0.7-0.7-1.2-1.4-1.5-2.2c-0.3-0.8-0.5-1.5-0.6-2.4l0,0c-0.1-0.9,0-1.7,0.3-2.6c0.4-1.2,1-2.2,1.8-3.1
				c1.4-1.4,3.3-2.1,5.1-2.1c0.2,0,0.4,0,0.7,0c0,0,0,0,0.1,0c0.8,0.1,1.5,0.3,2.3,0.6c0.8,0.4,1.5,0.9,2.1,1.4
				C30.7,20.1,30.7,24.7,27.9,27.5z"/>
		</g>
	</g>
</g>
</svg>
