<?xml version="1.0" encoding="utf-8"?>
<!-- Generator: Adobe Illustrator 25.2.0, SVG Export Plug-In . SVG Version: 6.00 Build 0)  -->
<svg version="1.1" id="Layer_1" xmlns="http://www.w3.org/2000/svg" xmlns:xlink="http://www.w3.org/1999/xlink" x="0px" y="0px"
	 viewBox="0 0 32 32" style="enable-background:new 0 0 32 32;" xml:space="preserve">
<g>
	<path d="M24.3,4V2.5c0-0.9-0.8-1.5-1.5-1.5h-18C4,1,3.3,1.6,3.3,2.5v6C3.3,9.3,4,10,4.8,10h18c0.8,0,1.5-0.8,1.5-1.5V7h1.5v6h-15
		v16.5c0,0.8,0.8,1.5,1.5,1.5h3c0.8,0,1.5-0.8,1.5-1.5V16h12V4H24.3z M21.3,7h-15V4h15V7z"/>
</g>
</svg>
