<?xml version="1.0" encoding="utf-8"?>
<!-- Generator: Adobe Illustrator 25.2.0, SVG Export Plug-In . SVG Version: 6.00 Build 0)  -->
<svg version="1.1" id="Layer_1" xmlns="http://www.w3.org/2000/svg" xmlns:xlink="http://www.w3.org/1999/xlink" x="0px" y="0px"
	 viewBox="0 0 32 32" style="enable-background:new 0 0 32 32;" xml:space="preserve">
<path d="M27.8,14.7H9.2l16.2-9.4C25.7,5.1,26,4.8,26,4.4c0.1-0.4,0-0.8-0.2-1.1l-1.5-2.5c-0.4-0.7-1.3-1-1.9-0.5L3.5,11.2
	c-0.3,0.2-0.6,0.5-0.7,0.9c-0.1,0.4,0,0.8,0.2,1.1l1.5,2.5c0,0,0,0,0,0.1S4.4,16,4.4,16.2v14.2c0,0.8,0.7,1.5,1.5,1.5h21.8
	c0.8,0,1.5-0.7,1.5-1.5V16.2C29.3,15.3,28.7,14.7,27.8,14.7z M7.4,20.1v-2.4h2.3L7.4,20.1L7.4,20.1z M13.8,17.6h2.3L13.9,20h-2.3
	L13.8,17.6z M20.1,17.6h2.3L20.2,20h-2.3L20.1,17.6z M26.3,17.7V20h-2.1L26.3,17.7z M7.4,28.9V23h18.9v5.8H7.4z"/>
</svg>
