<?xml version="1.0" encoding="utf-8"?>
<!-- Generator: Adobe Illustrator 25.2.0, SVG Export Plug-In . SVG Version: 6.00 Build 0)  -->
<svg version="1.1" id="Layer_1" xmlns="http://www.w3.org/2000/svg" xmlns:xlink="http://www.w3.org/1999/xlink" x="0px" y="0px"
	 viewBox="0 0 32 32" style="enable-background:new 0 0 32 32;" xml:space="preserve">
<g>
	<g>
		<g>
			<path d="M19,1H7C5.3,1,4,2.3,4,4v24c0,1.7,1.3,3,3,3h18c1.7,0,3-1.3,3-3V10L19,1z M7,28V4h10.5v7.5H25V28H7z"/>
		</g>
	</g>
	<polygon points="23.8,22.5 22.3,22.5 22.3,20.7 20.1,20.7 20.1,22.5 16.5,22.5 16.5,20.7 14.3,20.7 14.3,22.5 11.6,22.5 11.6,10.7 
		13.9,10.7 13.9,8.4 11.6,8.4 11.6,5.8 9.4,5.8 9.4,8.4 7.6,8.4 7.6,10.7 9.4,10.7 9.4,22.5 7.6,22.5 7.6,24.7 9.4,24.7 9.4,26.6 
		11.6,26.6 11.6,24.7 14.3,24.7 14.3,26.6 16.5,26.6 16.5,24.7 20.1,24.7 20.1,26.6 22.3,26.6 22.3,24.7 23.8,24.7 	"/>
</g>
</svg>
