<?xml version="1.0" encoding="utf-8"?>
<!-- Generator: Adobe Illustrator 25.2.0, SVG Export Plug-In . SVG Version: 6.00 Build 0)  -->
<svg version="1.1" id="Layer_1" xmlns="http://www.w3.org/2000/svg" xmlns:xlink="http://www.w3.org/1999/xlink" x="0px" y="0px"
	 viewBox="0 0 32 32" style="enable-background:new 0 0 32 32;" xml:space="preserve">
<style type="text/css">
	.st0{fill:#FFFFFF;stroke:#FFFFFF;stroke-width:2.881;stroke-linecap:round;stroke-linejoin:round;}
</style>
<path class="st0" d="M6.7,4.2v2.1H4.6V1.8H16h11.4v4.4h-2.1V4.2H16H6.7z"/>
<g>
	<g>
		<path d="M25.7,6.7V5H6.3v1.7H3.6V1.3h24.9v5.3H25.7z"/>
		<path d="M28.3,25.3v5.3H3.5v-5.3h2.7V27h19.3v-1.7H28.3z"/>
	</g>
	<g>
		<g>
			<path d="M18.9,19.3l-3,4.7l-3-4.7H18.9 M22.3,17.4H9.7l6.3,9.8L22.3,17.4z"/>
		</g>
		<g>
			<path d="M12.9,12.7l3-4.7l3,4.7H12.9 M9.7,14.4h12.5l-6.3-9.8L9.7,14.4z"/>
		</g>
	</g>
</g>
</svg>
