<?xml version="1.0" encoding="utf-8"?>
<!-- Generator: Adobe Illustrator 25.2.0, SVG Export Plug-In . SVG Version: 6.00 Build 0)  -->
<svg version="1.1" id="Layer_1" xmlns="http://www.w3.org/2000/svg" xmlns:xlink="http://www.w3.org/1999/xlink" x="0px" y="0px"
	 viewBox="0 0 32 32" style="enable-background:new 0 0 32 32;" xml:space="preserve">
<style type="text/css">
	.st0{enable-background:new    ;}
</style>
<g>
	<g id="g6850_3_" transform="matrix(1.0212803,0,0,1.0213893,322.73762,227.28249)">
		<g class="st0">
			<path d="M-312-205.6c-1.2-1.8-1.1-3.4,0.2-5l1.1-1.3c0.8-0.9,0.8-1.7,0-2.4l1.1-1.4c0.8,0.6,1.5,0.5,2.3-0.3l1.2-1.4
				c0.7-0.8,1.4-1.3,2.2-1.5c0.8-0.2,1.7,0,2.7,0.4l-0.5,1.4c-0.4-0.2-0.9-0.2-1.3,0s-0.9,0.5-1.3,1l-1.3,1.5
				c-0.8,1-1.8,1.3-2.9,1.1c0.4,1.1,0.2,2.1-0.6,3.1l-1.2,1.4c-0.8,1-1,1.9-0.6,2.7L-312-205.6z"/>
		</g>
		<g class="st0">
			<path d="M-300.5-208.9c-0.2-0.3-0.4-0.5-0.6-0.6c-0.7-0.6-1.4-0.8-2-0.5l-3.9,4.6l-1.9-1.6l6-7.1l1.8,1.5l-0.8,0.9
				c0.9-0.3,1.7-0.2,2.4,0.4c0.2,0.2,0.4,0.4,0.5,0.6L-300.5-208.9z"/>
			<path d="M-301.1-200.1c-1-0.9-1.6-1.9-1.7-3.1c-0.1-1.2,0.3-2.3,1.2-3.4l0.2-0.2c0.6-0.7,1.3-1.2,2-1.6c0.7-0.3,1.5-0.4,2.3-0.3
				c0.8,0.1,1.5,0.5,2.1,1c1,0.8,1.5,1.8,1.5,2.8c0,1.1-0.4,2.2-1.4,3.3l-0.7,0.9l-4.5-3.8c-0.3,0.5-0.5,1-0.4,1.6
				c0.1,0.5,0.3,1,0.8,1.4c0.7,0.6,1.5,0.8,2.4,0.6l0.1,1.8c-0.6,0.2-1.3,0.2-1.9,0C-299.8-199.3-300.5-199.6-301.1-200.1z
				 M-296.4-206.1c-0.4-0.3-0.8-0.4-1.2-0.4c-0.4,0.1-0.9,0.3-1.4,0.7l2.6,2.2l0.1-0.2c0.3-0.4,0.5-0.8,0.5-1.3
				C-295.8-205.4-296-205.8-296.4-206.1z"/>
		</g>
		<g class="st0">
			<path d="M-299.2-196.6c0.9,0.3,1.7,0,2.6-1l1.2-1.4c0.8-1,1.8-1.3,2.9-1c-0.5-1.1-0.3-2.1,0.6-3.1l1.2-1.4c0.8-1,1-1.9,0.6-2.8
				l1.3-0.7c0.6,0.9,0.9,1.7,0.9,2.5s-0.4,1.6-1,2.4l-1.2,1.4c-0.7,0.9-0.7,1.6,0.1,2.3l-1.1,1.4c-0.8-0.7-1.5-0.5-2.3,0.4l-1.2,1.4
				c-1.3,1.5-2.9,1.8-4.8,1L-299.2-196.6z"/>
		</g>
	</g>
</g>
</svg>
