<?xml version="1.0" encoding="utf-8"?>
<!-- Generator: Adobe Illustrator 25.2.0, SVG Export Plug-In . SVG Version: 6.00 Build 0)  -->
<svg version="1.1" id="Layer_1" xmlns="http://www.w3.org/2000/svg" xmlns:xlink="http://www.w3.org/1999/xlink" x="0px" y="0px"
	 viewBox="0 0 32 32" style="enable-background:new 0 0 32 32;" xml:space="preserve">
<g>
	<path d="M23.5,8.5h-6v3h6c2.5,0,4.5,2,4.5,4.5s-2,4.5-4.5,4.5h-6v3h6c4.1,0,7.5-3.4,7.5-7.5S27.6,8.5,23.5,8.5z M14.5,20.5h-6
		C6,20.5,4,18.5,4,16s2-4.5,4.5-4.5h6v-3h-6C4.4,8.5,1,11.9,1,16s3.4,7.5,7.5,7.5h6V20.5z M10,14.5h12v3H10V14.5z"/>
</g>
</svg>
