<?xml version="1.0" encoding="utf-8"?>
<!-- Generator: Adobe Illustrator 25.2.0, SVG Export Plug-In . SVG Version: 6.00 Build 0)  -->
<svg version="1.1" id="Layer_1" xmlns="http://www.w3.org/2000/svg" xmlns:xlink="http://www.w3.org/1999/xlink" x="0px" y="0px"
	 viewBox="0 0 32 32" style="enable-background:new 0 0 32 32;" xml:space="preserve">
<g>
	<g>
		<path d="M21.1,12.9H11c-0.8,0-1.4,0.6-1.4,1.4v10.1c0,0.8,0.6,1.4,1.4,1.4h10.1c0.8,0,1.4-0.6,1.4-1.4v-10
			C22.6,13.6,21.9,12.9,21.1,12.9z M21.1,24.5H11V14.4h10.1V24.5z M20.4,17.2l-1-1L14.6,21l-1.9-1.9l-1,1l2.9,2.9L20.4,17.2z"/>
	</g>
	<g id="Grupo_258_23_" transform="translate(-272.1 -317.4)">
		<path id="Trazado_1677_22_" d="M290.9,318.8h-11.3c-1.6,0-2.9,1.3-2.8,2.9v23.4c0,1.6,1.2,2.9,2.8,2.9h17c1.6,0,2.9-1.3,2.8-2.9
			v-17.6L290.9,318.8z M279.6,345.2v-23.4h9.9v7.3h7.1v16.1H279.6z"/>
	</g>
</g>
</svg>
