<svg viewBox="0 0 32 32">
	<rect x="7.5" y="1" width="10" height="10" rx="1"/>
	<rect x="7.5" y="20.5" width="10" height="10" rx="1"/>
	<rect x="21" y="12" width="10" height="10" rx="1"/>

	<rect x="0.1" y="11" width="2.6" height="2.6"/>
	<rect x="0.1" y="15.4" width="2.6" height="2.6"/>
	<rect x="0.1" y="6.6" width="2.6" height="2.6"/>
	<rect x="0.1" y="24.2" width="2.6" height="2.6"/>
	<rect x="0.1" y="19.8" width="2.6" height="2.6"/>
	<rect x="0.1" y="2.2" width="2.6" height="2.6"/>
	<rect x="4.5" y="6.6" width="2.6" height="2.6"/>
	<rect x="4.5" y="24.2" width="2.6" height="2.6"/>
	<rect x="11.2" y="11" width="2.6" height="2.6"/>
	<rect x="11.2" y="15.5" width="2.6" height="2.6"/>
	<rect x="15.6" y="15.5" width="2.6" height="2.6"/>
	<rect x="20" y="15.5" width="2.6" height="2.6"/>
</svg>