<svg viewBox="0 0 32 32">
	<path d="M3.7,14.8H0v2h4V20l2-2v-0.9L3.7,14.8z M11.9,8.9v-4h-2v4h-4v-4H4v2.5l3.5,3.5h2.5v2.5l0.4,0.4l1.6-1.6v-1.2h1.2
		l1.3-1.3l0.2-0.1L15.9,9L11.9,8.9L11.9,8.9z"/>
	<path d="M32,10.9v-2h-4v-4h-2v4h-4v-4h-2v2L22,6l-2,3.9l-0.5,1.1H20v4h-3.2L16,15.7v1.2h4v4h2v-4h4v4h2v-4h4v-2h-4v-4L32,10.9
		L32,10.9z M26.1,14.8h-4v-4h4V14.8z"/>
	<polygon points="20,27.1 17.4,26.5 10.3,19.4 9.9,19.7 3.2,26.5 1.4,24.6 5.3,20.8 5.9,20.1 8.5,17.6 0,9.1 0,8.9 0.2,8.9 
		1.8,7.3 3.4,8.9 10.3,15.7 11.9,14.1 15.2,10.9 15.2,10.9 15.9,10.6 16.1,10.4 18.7,9.2 17.9,10.9 17,12.5 14.9,14.8 12.9,16.8 
		12.1,17.6 19.1,24.6 			"/>
</svg>
