<svg viewBox="0 0 24 24">
    <path d="M 12 0 C 10.695 0 9.583875 0.835 9.171875 2 L 5 2 C 3.91 2 3 2.911 3 4 L 3 20 C 3 21.089 3.911 22 5 22 L 19 22 C 20.09 22 21 21.089 21 20 L 21 3.9726562 C 21 2.8826562 20.09 2 19 2 L 14.828125 2 C 14.416125 0.835 13.305 0 12 0 z M 12 2 C 12.552 2 13 2.448 13 3 C 13 3.552 12.552 4 12 4 C 11.448 4 11 3.552 11 3 C 11 2.448 11.448 2 12 2 z M 5 4 L 7 4 L 7 7 L 17 7 L 17 4 L 19 4 L 19 20 L 5 20 L 5 4 z M 7 10 L 7 12 L 12 12 L 12 10 L 7 10 z z M 7 15 L 7 17 L 12 17 L 12 15 L 7 15 z"/>
    <path fill="#22AA22" d=" M 17.091797 8.8613281 L 14.970703 11.017578 L 13.908203 9.9570312 L 12.847656 11.017578 L 14.970703 13.138672 L 18.152344 9.921875 L 17.091797 8.8613281 z" />
    <path  fill="#E24444" d=" M 14.25 13.470703 L 13.189453 14.529297 L 14.658203 16 L 13.189453 17.470703 L 14.25 18.529297 L 15.720703 17.060547 L 17.189453 18.529297 L 18.25 17.470703 L 16.78125 16 L 18.25 14.529297 L 17.189453 13.470703 L 15.720703 14.939453 L 14.25 13.470703 z"/>
</svg>