<svg viewBox="0 0 32 32">
	<g transform="translate(1.44)">
		<path fill="#E24444" d="M22.1,22.3l-3.2,3.2l-2.4,2.4l-0.6,0.6h-0.3l-3-3l-0.4-0.4c-0.1-0.1-0.1-0.1,0-0.3l6.2-6.2h0.3l3.4,3.4
			C22.2,22.2,22.2,22.3,22.1,22.3z"/>
		<path fill="#4488FF" d="M20.8,10.1l-7.1,7.1c-0.1,0.1-0.3,0.1-0.4,0l-3.5-3.5c-0.1-0.1-0.1-0.2,0-0.4l7.1-7.1h0.4l3.5,3.5
			C20.9,9.8,20.9,10,20.8,10.1z"/>
		<path fill="#FFCE00" d="M10.6,20.2l-7.1,7.1l-0.2,0.1l-3.6-3.6c-0.1-0.1-0.1-0.2,0-0.3l1.9-2l5.2-5.1h0.3l3.4,3.4
			C10.7,19.8,10.7,20.1,10.6,20.2z"/>
	</g>
	<path d="M28.6,3.7H3.4c-1.5,0-2.7,1.2-2.7,2.7V21l2.4-2.4v-12c0-0.1,0.1-0.5,0.2-0.38V6.2h12l1.6-1.6c1-1,2.5-1,3.5,0L22,6.2h6.5
		c0.1,0,0.2,0.1,0.2,0.2v18.9c0,0.1-0.1,0.2-0.2,0.2h-5l-2.4,2.4h7.4c1.4,0,2.6-1.2,2.7-2.7V6.4C31.3,4.9,30.1,3.7,28.6,3.7z
		M10.8,25.5H10l-2.4,2.4h5.6L10.8,25.5z"/>
</svg>