<svg viewBox="0 0 32 32">
	<g transform="translate(-284.852 -813.673) translate(284.852 813.673)">
		<path id="Trazado_1777" d="M28.6,3.4H3.4c-1.7,0-3.1,1.4-3.1,3.1v18.9c0,1.7,1.4,3.1,3.1,3.1h25.2c1.7,0,3.1-1.4,3.1-3.1V6.6
			C31.7,4.9,30.3,3.4,28.6,3.4z M28.6,25.4H3.4V6.6h25.2C28.6,6.6,28.6,25.4,28.6,25.4z"/>
	</g>
	<path d="M26.6,15.4L26.6,15.4l-4.7-6.9l-1.5,1l2.6,3.9c-0.2,0-0.4-0.1-0.6-0.1c-2,0-3.7,1.2-4.5,2.9c-0.6-0.4-1.3-0.6-2-0.6
		s-1.4,0.2-2,0.6c-0.8-1.7-2.5-2.9-4.5-2.9c-0.2,0-0.3,0-0.5,0.1l2.6-3.9l-1.5-1l-4.6,6.7c-0.7,0.9-1.1,2-1.1,3.1
		c0,2.8,2.3,5.1,5.1,5.1s5.1-2.3,5.1-5.1c0-0.1,0-0.2,0-0.2c0.3-0.5,0.9-0.8,1.5-0.8s1.2,0.3,1.5,0.8c0,0.1,0,0.1,0,0.2
		c0,2.8,2.3,5.1,5.1,5.1s5.1-2.3,5.1-5.1C27.6,17.4,27.2,16.4,26.6,15.4z M9.4,21.1c-1.4,0-2.6-1.1-2.6-2.6s1.1-2.6,2.6-2.6
		s2.6,1.1,2.6,2.6S10.8,21.1,9.4,21.1z M22.5,21.1c-1.4,0-2.6-1.1-2.6-2.6s1.1-2.6,2.6-2.6s2.6,1.1,2.6,2.6S23.9,21.1,22.5,21.1z"/>
</svg>
