<svg viewBox="0 0 32 32">
	<path fill="#4488FF" d="M26.6,15.4L26.6,15.4l-4.7-6.9l-1.5,1l2.6,3.9c-0.2,0-0.4-0.1-0.6-0.1c-2,0-3.7,1.2-4.5,2.9
		c-0.6-0.4-1.3-0.6-2-0.6s-1.4,0.2-2,0.6c-0.8-1.7-2.5-2.9-4.5-2.9c-0.2,0-0.3,0-0.5,0.1l2.6-3.9l-1.5-1l-4.6,6.7
		c-0.7,0.9-1.1,2-1.1,3.1c0,2.8,2.3,5.1,5.1,5.1s5.1-2.3,5.1-5.1c0-0.1,0-0.2,0-0.2c0.3-0.5,0.9-0.8,1.5-0.8s1.2,0.3,1.5,0.8
		c0,0.1,0,0.1,0,0.2c0,2.8,2.3,5.1,5.1,5.1s5.1-2.3,5.1-5.1C27.6,17.5,27.2,16.5,26.6,15.4z M9.4,21.2c-1.4,0-2.6-1.1-2.6-2.6
		s1.1-2.6,2.6-2.6S12,17,12,18.5S10.8,21.2,9.4,21.2z M22.5,21.2c-1.4,0-2.6-1.1-2.6-2.6s1.1-2.6,2.6-2.6s2.6,1.1,2.6,2.6
		S23.9,21.2,22.5,21.2z"/>
	<path d="M28.6,28.1H3.4c-1.5,0-2.7-1.2-2.7-2.7V6.6c0-1.5,1.2-2.7,2.7-2.7h25.2c1.5,0,2.7,1.2,2.7,2.7v18.8
		C31.2,26.9,30,28.1,28.6,28.1z M3.3,6.5c-0.1,0-0.2,0.1-0.2,0.2v18.8c0,0.1,0.1,0.2,0.2,0.2h25.2c0.1,0,0.2-0.1,0.2-0.2V6.6
		c0-0.1-0.1-0.2-0.2-0.2H3.3V6.5z"/>
</svg>
