<?xml version="1.0" encoding="UTF-8" standalone="no"?>
<svg
   xmlns:dc="http://purl.org/dc/elements/1.1/"
   xmlns:cc="http://creativecommons.org/ns#"
   xmlns:rdf="http://www.w3.org/1999/02/22-rdf-syntax-ns#"
   xmlns:svg="http://www.w3.org/2000/svg"
   xmlns="http://www.w3.org/2000/svg"
   xmlns:sodipodi="http://sodipodi.sourceforge.net/DTD/sodipodi-0.dtd"
   xmlns:inkscape="http://www.inkscape.org/namespaces/inkscape"
   sodipodi:docname="browser1.svg"
   inkscape:version="1.0 (1.0+r73+1)"
   id="svg8"
   version="1.1"
   viewBox="0 0 8.4666665 8.4666669"
   height="32"
   width="32">
  <defs
     id="defs2" />
  <sodipodi:namedview
     inkscape:window-maximized="0"
     inkscape:window-y="40"
     inkscape:window-x="20"
     inkscape:window-height="704"
     inkscape:window-width="875"
     units="px"
     showgrid="false"
     inkscape:document-rotation="0"
     inkscape:current-layer="layer1"
     inkscape:document-units="px"
     inkscape:cy="5.0911293"
     inkscape:cx="14.704655"
     inkscape:zoom="3.959798"
     inkscape:pageshadow="2"
     inkscape:pageopacity="0.0"
     borderopacity="1.0"
     bordercolor="#666666"
     pagecolor="#ffffff"
     id="base" />
  <metadata
     id="metadata5">
    <rdf:RDF>
      <cc:Work
         rdf:about="">
        <dc:format>image/svg+xml</dc:format>
        <dc:type
           rdf:resource="http://purl.org/dc/dcmitype/StillImage" />
        <dc:title></dc:title>
      </cc:Work>
    </rdf:RDF>
  </metadata>
  <g
     id="layer1"
     inkscape:groupmode="layer"
     inkscape:label="Layer 1">
    <g
       inkscape:export-ydpi="96"
       inkscape:export-xdpi="96"
       inkscape:export-filename="E:\inkscape\pyscripter\default 32x32 icon pack\browser 32x32.png"
       id="g5645"
       transform="matrix(0.26213077,0,0,0.26213077,0.03696236,0.07737878)">
      <g
         id="g5625">
        <g
           id="g5589"
           transform="matrix(0.23839371,0,0,0.23406459,161.59765,35.276798)">
          <g
             id="g5606"
             transform="matrix(0.99966249,0,0,0.99972366,-2.0944626,-0.0075061)">
            <path
               d="m -544.18056,-70.694019 c -10.67,7.558 -27.09549,20.304525 -48.43549,40.755525 -21.719,-10.644 -58.03151,-11.005525 -61.81251,-10.465525 -6.343,-24.033 -12.686,-48.065 -19.029,-72.098001 7.466,-3.499 10.352,-4.187 17.131,-4.197 6.778,-0.011 17.449,0.656 40.123,9.993 12.004,-14.671 33.344,-26.676 44.015,-29.343 9.336,21.784 18.672,43.569001 28.008,65.355001 z"
               id="path26"
               inkscape:connector-curvature="0"
               style="fill:#999999;stroke:#803300;stroke-width:5;stroke-linecap:round;stroke-linejoin:round;stroke-miterlimit:4;stroke-dasharray:none"
               sodipodi:nodetypes="cccccccc" />
            <path
               d="m -669.97656,-114.06602 c 5.09,-2.151 8.034,-2.625 13.649,-2.633 6.778,-0.011 17.449,0.656 40.123,9.993 7.405,24.066001 14.14359,46.055624 21.54859,70.122624 -17.16,-8.863 -46.87959,-9.202623 -56.82459,-9.308623 -6.165,-22.725 -12.33,-45.449 -18.496,-68.174001 z"
               id="path28"
               inkscape:connector-curvature="0"
               style="fill:#f2f2f2;stroke:none;stroke-linecap:round;stroke-linejoin:round"
               sodipodi:nodetypes="cccccc" />
            <path
               d="m -572.18956,-136.05002 c 8.696,20.29 17.391,40.579001 26.086,60.868001 -11.39,7.497 -28.01941,18.978623 -48.55241,38.598623 -7.405,-24.066 -14.14259,-46.056623 -21.54759,-70.123624 12.003,-14.671 33.344,-26.675 44.014,-29.343 z"
               id="path30"
               inkscape:connector-curvature="0"
               style="fill:#f9f9f9;stroke:none;stroke-linecap:round;stroke-linejoin:round"
               sodipodi:nodetypes="ccccc" />
            <path
               d="m -575.56856,-129.10802 c -10.208,4.106 -16.608,8.537 -22.219,13.346 -5.61,4.809 -10.43,9.997 -12.602,12.611"
               id="path2"
               inkscape:connector-curvature="0"
               style="fill:none;stroke:#000000;stroke-linecap:round;stroke-linejoin:round" />
            <path
               d="m -572.00056,-120.09202 c -10.208,4.105 -16.608,8.536 -22.218,13.346 -5.61,4.809 -10.43,9.997001 -12.603,12.611001"
               id="path4"
               inkscape:connector-curvature="0"
               style="fill:none;stroke:#000000;stroke-linecap:round;stroke-linejoin:round" />
            <path
               d="m -570.97656,-110.13302 c -10.208,4.105 -16.608,8.536 -22.219,13.346001 -5.61,4.809 -10.43,9.997 -12.603,12.611"
               id="path6"
               inkscape:connector-curvature="0"
               style="fill:none;stroke:#000000;stroke-linecap:round;stroke-linejoin:round" />
            <path
               d="m -567.40956,-101.11802 c -10.208,4.105001 -16.608,8.536001 -22.218,13.346001 -5.61,4.809 -10.43,9.997 -12.603,12.611"
               id="path8"
               inkscape:connector-curvature="0"
               style="fill:none;stroke:#000000;stroke-linecap:round;stroke-linejoin:round" />
            <path
               d="m -566.21256,-90.851019 c -10.208,4.105 -16.608,8.536 -22.218,13.346 -5.61,4.81 -10.43,9.997 -12.603,12.611"
               id="path10"
               inkscape:connector-curvature="0"
               style="fill:none;stroke:#000000;stroke-linecap:round;stroke-linejoin:round" />
            <path
               d="m -562.64456,-81.835019 c -10.208,4.105 -16.608,8.537 -22.219,13.346 -5.61,4.81 -10.43,9.998 -12.602,12.611"
               id="path12"
               inkscape:connector-curvature="0"
               style="fill:none;stroke:#000000;stroke-linecap:round;stroke-linejoin:round" />
            <path
               d="m -649.80156,-59.351019 c 10.909,-1.436 18.66,-0.718 25.908,0.718 7.249,1.436 13.995,3.588 17.171,4.799"
               id="path14"
               inkscape:connector-curvature="0"
               style="fill:none;stroke:#000000;stroke-linecap:round;stroke-linejoin:round" />
            <path
               d="m -651.12056,-68.957019 c 10.909,-1.435 18.66,-0.718 25.908,0.718 7.249,1.436 13.995,3.588 17.171,4.799"
               id="path16"
               inkscape:connector-curvature="0"
               style="fill:none;stroke:#000000;stroke-linecap:round;stroke-linejoin:round" />
            <path
               d="m -655.11856,-78.489019 c 10.909,-1.436 18.66,-0.718 25.908,0.718 7.249,1.435 13.995,3.588 17.171,4.799"
               id="path18"
               inkscape:connector-curvature="0"
               style="fill:none;stroke:#000000;stroke-linecap:round;stroke-linejoin:round" />
            <path
               d="m -656.43656,-88.095019 c 10.909,-1.436 18.66,-0.718 25.908,0.718 7.249,1.435 13.995,3.588 17.171,4.799"
               id="path20"
               inkscape:connector-curvature="0"
               style="fill:none;stroke:#000000;stroke-linecap:round;stroke-linejoin:round" />
            <path
               d="m -660.43456,-97.274019 c 10.909,-1.435 18.66,-0.718 25.909,0.718 7.249,1.436 13.995,3.588 17.171,4.799"
               id="path22"
               inkscape:connector-curvature="0"
               style="fill:none;stroke:#000000;stroke-linecap:round;stroke-linejoin:round" />
            <path
               d="m -661.75256,-106.87902 c 10.909,-1.436 18.66,-0.718 25.908,0.717 7.249,1.436 13.995,3.589 17.171,4.799"
               id="path24"
               inkscape:connector-curvature="0"
               style="fill:none;stroke:#000000;stroke-linecap:round;stroke-linejoin:round" />
          </g>
        </g>
      </g>
    </g>
  </g>
</svg>
