<?xml version="1.0" encoding="UTF-8" standalone="no"?>
<svg
   xmlns:dc="http://purl.org/dc/elements/1.1/"
   xmlns:cc="http://creativecommons.org/ns#"
   xmlns:rdf="http://www.w3.org/1999/02/22-rdf-syntax-ns#"
   xmlns:svg="http://www.w3.org/2000/svg"
   xmlns="http://www.w3.org/2000/svg"
   xmlns:xlink="http://www.w3.org/1999/xlink"
   xmlns:sodipodi="http://sodipodi.sourceforge.net/DTD/sodipodi-0.dtd"
   xmlns:inkscape="http://www.inkscape.org/namespaces/inkscape"
   sodipodi:docname="browser9.svg"
   inkscape:version="1.0 (1.0+r73+1)"
   id="svg8"
   version="1.1"
   viewBox="0 0 8.4666665 8.4666669"
   height="32"
   width="32">
  <defs
     id="defs2">
    <linearGradient
       inkscape:collect="always"
       xlink:href="#linearGradient5686"
       id="linearGradient5688"
       x1="28.268864"
       y1="1051.5282"
       x2="-48.488998"
       y2="1022.985"
       gradientUnits="userSpaceOnUse" />
    <linearGradient
       inkscape:collect="always"
       id="linearGradient5686">
      <stop
         style="stop-color:#646494;stop-opacity:1;"
         offset="0"
         id="stop5682" />
      <stop
         style="stop-color:#fafafc;stop-opacity:1"
         offset="1"
         id="stop5684" />
    </linearGradient>
  </defs>
  <sodipodi:namedview
     showguides="false"
     inkscape:window-maximized="0"
     inkscape:window-y="40"
     inkscape:window-x="20"
     inkscape:window-height="704"
     inkscape:window-width="875"
     units="px"
     showgrid="false"
     inkscape:document-rotation="0"
     inkscape:current-layer="layer1"
     inkscape:document-units="px"
     inkscape:cy="20.941117"
     inkscape:cx="12.388131"
     inkscape:zoom="5.6"
     inkscape:pageshadow="2"
     inkscape:pageopacity="0.0"
     borderopacity="1.0"
     bordercolor="#666666"
     pagecolor="#ffffff"
     id="base" />
  <metadata
     id="metadata5">
    <rdf:RDF>
      <cc:Work
         rdf:about="">
        <dc:format>image/svg+xml</dc:format>
        <dc:type
           rdf:resource="http://purl.org/dc/dcmitype/StillImage" />
        <dc:title></dc:title>
      </cc:Work>
    </rdf:RDF>
  </metadata>
  <g
     id="layer1"
     inkscape:groupmode="layer"
     inkscape:label="Layer 1">
    <g
       inkscape:export-ydpi="96"
       inkscape:export-xdpi="96"
       inkscape:export-filename="E:\inkscape\pyscripter\default 32x32 icon pack\browser 32x32.png"
       id="g5750"
       transform="matrix(0.25853249,0,0,0.25764495,0.09666857,0.11087133)">
      <path
         sodipodi:nodetypes="ccccc"
         inkscape:connector-curvature="0"
         id="rect5694"
         d="M 15.561456,17.892213 30.201004,26.305888 16.581028,31.890826 0.16496157,23.332089 Z"
         style="opacity:1;fill:#784421;fill-opacity:1;fill-rule:nonzero;stroke:#784421;stroke-width:0.219355;stroke-linecap:butt;stroke-linejoin:round;stroke-miterlimit:4;stroke-dasharray:none;stroke-dashoffset:0;stroke-opacity:1" />
      <polygon
         transform="matrix(0.22121066,0,0,0.21708917,27.478029,-200.73871)"
         style="fill:url(#linearGradient5688);fill-opacity:1;stroke:none;stroke-linecap:round;stroke-linejoin:round"
         id="polygon98"
         points="7.553,1045.543 8.673,1003.882 -13.135,965.263 -48.489,1022.985 -48.84,1067.863 " />
      <polygon
         transform="matrix(0.22121066,0,0,0.21708917,27.478029,-200.73871)"
         style="fill:#c87137;fill-opacity:1;stroke:#502d16;stroke-width:1.00098;stroke-linecap:round;stroke-linejoin:round;stroke-miterlimit:4;stroke-dasharray:none"
         id="polygon94"
         points="-29.002,1060.011 -28.412,1018.636 -8.43,1012.167 -8.874,1052.045 " />
      <polygon
         transform="matrix(0.22121066,0,0,0.21708917,27.478029,-200.73871)"
         style="fill:#bebed2;fill-opacity:1;stroke:none;stroke-linecap:round;stroke-linejoin:round"
         id="polygon96"
         points="-118.601,1031.501 -118.243,999.192 -48.489,1022.985 -48.84,1067.863 " />
      <path
         inkscape:connector-curvature="0"
         id="path5725"
         d="m 16.685173,22.878772 -8.3796645,-3.930285 6.3774445,-0.222469 2.068792,2.614237 z"
         style="opacity:0.878;fill:#4d4d4d;stroke:none;stroke-width:1px;stroke-linecap:butt;stroke-linejoin:miter;stroke-opacity:1" />
      <path
         sodipodi:nodetypes="ccccc"
         inkscape:connector-curvature="0"
         id="path5731"
         d="M 16.685173,22.878772 25.213151,9.4564769 24.02665,7.2317872 16.759329,19.170955 l -0.07416,3.707817"
         style="opacity:0.507;fill:#4d4d4d;stroke:none;stroke-width:1px;stroke-linecap:butt;stroke-linejoin:miter;stroke-opacity:1" />
      <polygon
         transform="matrix(0.22121066,0,0,0.21708917,27.478029,-200.73871)"
         style="fill:#575b72;fill-opacity:1;stroke:none;stroke-linecap:round;stroke-linejoin:round"
         id="polygon100"
         points="-13.135,965.263 -7.442,955.968 20.197,1005.697 8.673,1003.882 " />
      <polygon
         transform="matrix(0.22121066,0,0,0.21708917,27.478029,-200.73871)"
         style="fill:#646494;fill-opacity:0.607843;stroke:none;stroke-linecap:round;stroke-linejoin:round"
         id="polygon114"
         points="-46.706,929.32 -61.549,924.686 -74.432,931.94 -59.356,936.842 " />
      <polygon
         transform="matrix(0.22121066,0,0,0.21708917,27.478029,-200.73871)"
         style="fill:#9999f0;fill-opacity:1;stroke:none;stroke-linecap:round;stroke-linejoin:round"
         id="polygon102"
         points="-53.511,1031.184 -7.442,955.968 -80.034,935.983 -123.198,996.744 " />
      <polygon
         transform="matrix(0.22121066,0,0,0.21708917,27.478029,-200.73871)"
         style="fill:#c1c1d4;fill-opacity:1;stroke:none;stroke-linecap:round;stroke-linejoin:round"
         id="polygon104"
         points="-69.807,940.522 -59.457,943.888 -60.042,984.924 -70.587,982.306 " />
      <path
         inkscape:connector-curvature="0"
         id="path5729"
         d="M 16.406214,9.0847026 18.946941,4.914402 16.777869,4.3211514 14.441944,7.5654906 Z"
         style="opacity:0.857;fill:#4d4d4d;stroke:none;stroke-width:1px;stroke-linecap:butt;stroke-linejoin:miter;stroke-opacity:1" />
      <polygon
         transform="matrix(0.22121066,0,0,0.21708917,27.478029,-200.73871)"
         style="fill:#646493;fill-opacity:1;stroke:none;stroke-linecap:round;stroke-linejoin:round"
         id="polygon106"
         points="-59.457,943.888 -49.796,938.448 -50.051,966.531 -60.042,984.924 " />
      <polygon
         transform="matrix(0.22121066,0,0,0.21708917,27.478029,-200.73871)"
         style="fill:#090956;fill-opacity:1;stroke:none;stroke-linecap:round;stroke-linejoin:round"
         id="polygon108"
         points="-59.498,934.233 -67.686,931.632 -60.858,927.423 -53.08,930.021 " />
      <polygon
         transform="matrix(0.22121066,0,0,0.21708917,27.478029,-200.73871)"
         style="fill:#bbbbea;fill-opacity:1;stroke:none;stroke-linecap:round;stroke-linejoin:round"
         id="polygon110"
         points="-59.356,936.842 -74.432,931.94 -74.533,938.986 -59.457,943.888 " />
      <polygon
         transform="matrix(0.22121066,0,0,0.21708917,27.478029,-200.73871)"
         style="fill:#7676f4;fill-opacity:1;stroke:none;stroke-linecap:round;stroke-linejoin:round"
         id="polygon112"
         points="-46.706,929.32 -59.356,936.842 -59.457,943.888 -46.574,936.633 " />
    </g>
  </g>
</svg>
