<svg height="32" viewBox="0 0 8.4666665 8.4666669" width="32" xmlns="http://www.w3.org/2000/svg" xmlns:xlink="http://www.w3.org/1999/xlink"><filter id="a" color-interpolation-filters="sRGB" height="1.04467" width="1.037547" x="-.018774" y="-.022335"><feGaussianBlur stdDeviation=".03106929"/></filter><g transform="matrix(1.9005441 0 0 1.9005441 100.65971 -12.458428)"><path d="m-51.112437 10.196799c.128144-.266036.384277-.7977915.604191-1.1958245.219914-.3980329.403772-.6626771.637505-.9214228s.518031-.5123839.726789-.6709959c.208759-.1586119.342525-.222708.390888-.2577553.04836-.035047.01139-.041326-.14666-.0007733-.158052.040552-.434156.1270511-.704028.283363-.269871.1563119-.531274.3815635-.766656.609964-.235381.2284006-.44396.4592278-.599974.676486-.156014.2172583-.258901.4202503-.322897.5330585-.064.1128083-.08929.1352899-.114345.1575622 0 0-.540445-.3320602-.540445-.3320602-.156805-.093278-.313386-.1864224-.43637-.2494552-.122984-.063033-.212061-.095738-.301068-.1284185-.02784.016704-.05537.033224.139061.2989898.194433.2657658.609829.7784109.84161 1.0610032.231781.282593.279106.334094.325863.36265.04676.02856.09269.03412.115541.03689.02285.0028.02285.0028.150995-.263263z" fill="#1a1a1a" filter="url(#a)"/><path d="m-51.221015 10.104926c.128143-.2660369.384277-.7977924.604191-1.1958254.219914-.3980329.403772-.6626771.637505-.9214228s.518031-.5123839.726789-.6709959c.208759-.1586119.342525-.222708.390888-.2577553.04836-.035047.01139-.041326-.14666-.0007733-.158052.040552-.434156.1270511-.704028.283363-.269871.1563119-.531274.3815635-.766656.609964-.235381.2284006-.44396.4592278-.599974.676486-.156014.2172583-.258901.4202503-.322897.5330585-.064.1128083-.08929.1352899-.114345.1575622 0 0-.540445-.3320602-.540445-.3320602-.156805-.093278-.313386-.1864224-.43637-.2494552-.122984-.063033-.212061-.095738-.301068-.1284185-.02784.016704-.05537.033224.139061.2989898.194433.2657658.609829.7784109.84161 1.0610032.231781.2825929.279106.3340939.325863.3626499.04676.02856.09269.03412.115541.03689.02285.0028.02285.0028.150995-.263262z" fill="#f00"/></g></svg>