<svg height="11" viewBox="0 0 3.7041666 2.9104167" width="14" xmlns="http://www.w3.org/2000/svg" xmlns:xlink="http://www.w3.org/1999/xlink"><linearGradient id="a" gradientUnits="userSpaceOnUse" x1="7.69201" x2="17.729298" y1="4.532146" y2="20.795601"><stop offset="0" stop-color="#f8a5a5"/><stop offset="1" stop-color="#e6e6e6" stop-opacity="0"/></linearGradient><filter id="b" color-interpolation-filters="sRGB" height="1.139445" width="1.129707" x="-.064854" y="-.069723"><feGaussianBlur stdDeviation=".72026172"/></filter><linearGradient id="c" gradientUnits="userSpaceOnUse" x1="186.52" x2="185.75835" y1="455.366" y2="411.13419"><stop offset="0" stop-color="#000080"/><stop offset=".34293374" stop-color="#00f"/><stop offset=".89766061" stop-color="#0ff"/><stop offset="1" stop-color="#000080"/></linearGradient><g transform="matrix(.80369629 0 0 .80369629 -.678996 3.857819)"><circle cx="3.156143" cy="-2.946601" fill="#f00" r="1.423035" stroke="#333" stroke-linecap="round" stroke-linejoin="round" stroke-width=".072556"/><path d="m16 2.0351562a13.96443 13.96443 0 0 0 -13.9648438 13.9648438 13.96443 13.96443 0 0 0 5.1640626 10.828125 21.927635 21.927635 0 0 1 21.2304692-16.630859 21.927635 21.927635 0 0 1 .259765.013672 13.96443 13.96443 0 0 0 -12.689453-8.1757818z" fill="url(#a)" filter="url(#b)" transform="matrix(.09806577 0 0 .09806577 1.584643 -4.521673)"/></g><path d="m191.636 466.062h-5.116v-10.696h-19.875v-11.055-11.055h19.875v-10.697h5.116l21.751 21.752z" fill="url(#c)" stroke="#fff" stroke-linecap="round" stroke-linejoin="round" stroke-width="3.37749" transform="matrix(.05749316 0 0 .05019778 -9.072535 -20.848191)"/></svg>