<svg height="32" viewBox="0 0 8.4666665 8.4666669" width="32" xmlns="http://www.w3.org/2000/svg" xmlns:xlink="http://www.w3.org/1999/xlink"><linearGradient id="a" gradientUnits="userSpaceOnUse" x1="2.43717452227" x2="8.00273312469" y1="4.90272541521" y2="4.90272541521"><stop offset="0" stop-color="#ff8700"/><stop offset="1" stop-color="#ffc100"/></linearGradient><g transform="translate(-.844788 -.644336)"><path d="m6.1543645 2.1827294c-.8827008 0-1.5981008.742313-1.5981008 1.658223 0 .126957.01371.250035.03996.36857l-2.4427243 2.5339779v.414555l.3995253.4145581h.799048l.399529-.4145581v-.414555h.399521v-.414559h.399526v-.41456h.7990489l.441978-.4585999c.1167392.02774.237835.04275.362694.04275.882701 0 1.5981021-.742316 1.5981021-1.658229 0-.9159121-.716026-1.657578-1.5981021-1.657578zm-1.6037208 2.902543-1.997625 2.0727829v-.414555l1.997625-2.0727859zm1.9976291-1.243669c-.2203681 0-.3995272-.185909-.3995272-.414558 0-.228656.1791681-.414558.3995272-.414558.2203648 0 .3995248.185907.3995248.414558 0 .228656-.17917.414558-.3995248.414558z" fill="#1a1a1a"/><path d="m6.4141716 2.3209974c-.877434 0-1.5885649.711132-1.5885649 1.588564 0 .121623.013621.239529.03972.353086l-2.4281483 2.427525v.3971399l.3971403.397143h.794281l.397144-.397143v-.3971399h.397139v-.3971419h.397142v-.3971431h.7942811l.4393398-.4393361c.116042.02658.2364161.04094.36053.04094.877434 0 1.5885671-.711132 1.5885671-1.588565 0-.8774361-.7117541-1.587945-1.5885671-1.587945zm-1.5941508 2.780609-1.9857062 1.9857059v-.3971399l1.9857062-1.985706zm1.9857069-1.191422c-.219052 0-.397142-.1781-.397142-.397143 0-.219051.1781001-.397142.397142-.397142.2190509 0 .397143.178098.397143.397142 0 .219051-.1781.397143-.397143.397143z" fill="url(#a)"/></g></svg>