<svg height="32" viewBox="0 0 8.4666665 8.4666669" width="32" xmlns="http://www.w3.org/2000/svg" xmlns:xlink="http://www.w3.org/1999/xlink"><linearGradient id="a" gradientUnits="userSpaceOnUse" x1="-20.701866" x2="-24.600317" y1="13.473795" y2="10.867916"><stop offset="0" stop-color="#646494"/><stop offset="1" stop-color="#fafafc"/></linearGradient><g stroke="#000080" transform="matrix(2.1333258 0 0 2.1333258 55.948413 -18.757575)"><path d="m-26.008665 9.853128h3.524617v2.664343h-3.524617z" fill="url(#a)" stroke-linejoin="round" stroke-width=".144"/><path d="m-24.939588 9.8364229c-.02296-.1886194.03446-.3856997.155154-.5324587.120692-.1467591.302974-.241162.492477-.2550515.189504-.01389.383603.052927.524403.18052.1408.1275932.226349.3141941.231131.5041462.001.04024-.0014.080567-.0073.1203898" fill="none" stroke-width=".165"/></g><g transform="matrix(1.832048 0 0 1.832048 26.205457 .156278)"><g stroke="#500" stroke-linecap="round" stroke-linejoin="round" transform="matrix(.10397706 0 0 .10566918 11.670909 -75.407687)"><path d="m-208.85562 742.13932-8.11318 7.15114 1.0178-6.22946 8.45794-7.13507z" fill="#800000"/><path d="m-216.9688 749.29046-11.4998-10.859.0226-7.06846 12.495 11.698z" fill="#f00"/><path d="m-219.77494 724.50872-8.67106 6.85428 12.495 11.698 8.45794-7.13507z" fill="#d40000"/></g><path d="m-13.347656 2.0878906v.2636719h.935547v-.2636719z" fill="#ccc" stroke="#1a1a1a" stroke-width=".056612"/><path d="m-13.65625 2.5957031v.265625h1.244141v-.265625z" fill="#ccc" stroke="#1a1a1a" stroke-width=".056612"/><path d="m-13.371094 3.1308594v.265625h1.244141v-.265625z" fill="#ccc" stroke="#1a1a1a" stroke-width=".056612"/></g></svg>