<svg height="32" viewBox="0 0 8.4666665 8.4666669" width="32" xmlns="http://www.w3.org/2000/svg"><g fill="#00f" stroke="#fff" stroke-width=".188149" transform="translate(-30.298662 31.69964)"><path d="m34.613791-24.824621v.825527h-.796175q-.799844 0-1.166745-.322872-.366901-.322873-.366901-1.030992v-.70445q0-.550351-.198127-.763153-.198126-.216472-.719125-.216472h-.22381v-.818189h.22381q.520999 0 .719125-.212802.198127-.212803.198127-.763154v-.752147q0-.708119.366901-1.027323.366901-.322872 1.166745-.322872h.796175v.825527h-.253162q-.51733 0-.675098.161436-.154098.157767-.154098.678767v.609055q0 .576034-.165105.836534-.165106.2605-.568697.352225.40726.09906.568697.359563.165105.260499.165105.832865v.609055q0 .524669.154098.682436.157768.161436.675098.161436z"/><path d="m34.450199-24.824621h.256831q.513661 0 .667759-.161436.157768-.157767.157768-.682436v-.609055q0-.572366.165105-.832865.165106-.2605.572366-.359563-.40726-.09173-.572366-.352225-.165105-.2605-.165105-.836534v-.609055q0-.521-.157768-.678767-.154098-.161436-.667759-.161436h-.256831v-.825527h.796175q.799844 0 1.166745.322872.366901.319204.366901 1.027323v.752147q0 .550351.198126.763154.198127.212802.719126.212802h.22381v.818189h-.22381q-.520999 0-.719126.216472-.198126.212802-.198126.763153v.70445q0 .708119-.366901 1.030992-.366901.322872-1.166745.322872h-.796175z"/></g></svg>