<svg height="32" viewBox="0 0 8.4666665 8.4666669" width="32" xmlns="http://www.w3.org/2000/svg" xmlns:xlink="http://www.w3.org/1999/xlink"><linearGradient id="a" gradientUnits="userSpaceOnUse" x1="-117.38606" x2="-105.36859" y1="86.632568" y2="95.386116"><stop offset="0" stop-color="#f8cc53"/><stop offset=".23920624" stop-color="#ffd15e"/><stop offset="1" stop-color="#ebbe41"/></linearGradient><filter id="b" color-interpolation-filters="sRGB" height="1.067456" width="1.040228" x="-.020114" y="-.033728"><feGaussianBlur stdDeviation=".08824285"/></filter><linearGradient id="c" gradientUnits="userSpaceOnUse" x1="-107.28858" x2="-112.96468" y1="95.098" y2="90.591957"><stop offset="0" stop-color="#f9e12d"/><stop offset="1" stop-color="#f3cc3d"/></linearGradient><linearGradient id="d" gradientUnits="userSpaceOnUse" x1="186.52" x2="185.75835" y1="455.366" y2="411.13419"><stop offset="0" stop-color="#007500"/><stop offset=".34293374" stop-color="#00d200"/><stop offset=".89766061" stop-color="#00d200"/><stop offset="1" stop-color="#007500"/></linearGradient><g transform="matrix(.67649108 0 0 .67649108 79.606552 -57.835254)"><path d="m-117.38606 87.121964v8.126842l.50793 1.015856h11.42838v-7.534261l-1.01586-1.015855h-4.90997l-.62468-1.081978h-5.3858z" fill="url(#a)" stroke="#000" stroke-width=".1"/><path d="m-116.614 90.292405h3.5494l.53241-1.008507h6.44725v6.279102h-10.52906v-4.967688z" fill="#333" filter="url(#b)"/><path d="m-116.51408 90.591958h3.5494l.53241-1.008507h6.44725v6.279102h-10.52906v-4.967688z" fill="url(#c)"/></g><path d="m191.636 422.559 21.751 21.752-21.751 21.751h-5.116v-10.696h-19.875v-11.055-11.055h19.875v-10.697z" fill="url(#d)" stroke="#fff" stroke-linecap="round" stroke-linejoin="round" transform="matrix(.06752287 0 0 .06752287 -6.276047 -23.774019)"/></svg>